%FSLAX45Y45*%
G04 Gerber Fmt 4.5, Leading zero omitted, Abs format (unit mm)*
G04 Created by KiCad (PCBNEW (5.1.12)-1) date 2021-12-15 02:21:57*
%MOMM*%
%LPD*%
G01*
G04 APERTURE LIST*
%TA.AperFunction,Profile*%
%ADD10C,0.010000*%
%TD*%
%TA.AperFunction,Profile*%
%ADD11C,0.100000*%
%TD*%
%ADD12C,0.200000*%
%ADD13C,0.300000*%
G04 APERTURE END LIST*
D10*
X30129375Y-3285000D02*
G75*
G02*
X30204375Y-3210000I75000J0D01*
G01*
X30204375Y-4610000D02*
G75*
G02*
X30129375Y-4535000I0J75000D01*
G01*
X27749375Y-3285000D02*
X27749375Y-4535000D01*
X27824375Y-4610000D02*
G75*
G02*
X27749375Y-4535000I0J75000D01*
G01*
X27824375Y-4610000D02*
X28374375Y-4610000D01*
X28449375Y-4535000D02*
G75*
G02*
X28374375Y-4610000I-75000J0D01*
G01*
X28449375Y-4535000D02*
X28449375Y-3285000D01*
X30129375Y-3285000D02*
X30129375Y-4535000D01*
X30204375Y-4610000D02*
X30754375Y-4610000D01*
X28374375Y-3210000D02*
X27824375Y-3210000D01*
X30754375Y-3210000D02*
G75*
G02*
X30829375Y-3285000I0J-75000D01*
G01*
X27749375Y-3285000D02*
G75*
G02*
X27824375Y-3210000I75000J0D01*
G01*
X28374375Y-3210000D02*
G75*
G02*
X28449375Y-3285000I0J-75000D01*
G01*
X30829375Y-4535000D02*
G75*
G02*
X30754375Y-4610000I-75000J0D01*
G01*
X30829375Y-4535000D02*
X30829375Y-3285000D01*
X30754375Y-3210000D02*
X30204375Y-3210000D01*
X28514375Y-4450000D02*
X30064375Y-4450000D01*
X28514375Y-3170000D02*
X28514375Y-4450000D01*
X30064375Y-4450000D02*
X30064375Y-3170000D01*
X30064375Y-3170000D02*
X28514375Y-3170000D01*
D11*
X26443750Y-11430000D02*
G75*
G03*
X26443750Y-11430000I-250000J0D01*
G01*
X5650000Y-5715000D02*
G75*
G03*
X5650000Y-5715000I-250000J0D01*
G01*
X32800000Y-4762500D02*
G75*
G03*
X32800000Y-4762500I-250000J0D01*
G01*
X2650000Y-3245000D02*
X3180000Y-2715000D01*
X2650000Y-7360000D02*
X2650000Y-3245000D01*
X2800000Y-7360000D02*
X2650000Y-7360000D01*
X2800000Y-7880000D02*
X2800000Y-7360000D01*
X2650000Y-7880000D02*
X2800000Y-7880000D01*
X2650000Y-11995000D02*
X2650000Y-7880000D01*
X3180000Y-12525000D02*
X2650000Y-11995000D01*
X7520000Y-12525000D02*
X3180000Y-12525000D01*
X7520000Y-12700000D02*
X7520000Y-12525000D01*
X8020000Y-12700000D02*
G75*
G02*
X7520000Y-12700000I-250000J0D01*
G01*
X8020000Y-12525000D02*
X8020000Y-12700000D01*
X8370000Y-12525000D02*
X8020000Y-12525000D01*
X8370000Y-12725000D02*
X8370000Y-12525000D01*
X12500000Y-12725000D02*
X8370000Y-12725000D01*
X12500000Y-12425000D02*
X12500000Y-12725000D01*
X13500000Y-12425000D02*
X12500000Y-12425000D01*
X13500000Y-12725000D02*
X13500000Y-12425000D01*
X17970000Y-12725000D02*
X13500000Y-12725000D01*
X17970000Y-12525000D02*
X17970000Y-12725000D01*
X17970000Y-2515000D02*
X17970000Y-2715000D01*
X13500000Y-2515000D02*
X17970000Y-2515000D01*
X13500000Y-2815000D02*
X13500000Y-2515000D01*
X12500000Y-2815000D02*
X13500000Y-2815000D01*
X12500000Y-2515000D02*
X12500000Y-2815000D01*
X8370000Y-2515000D02*
X12500000Y-2515000D01*
X8370000Y-2715000D02*
X8370000Y-2515000D01*
X8020000Y-2715000D02*
X8370000Y-2715000D01*
X8020000Y-2540000D02*
X8020000Y-2715000D01*
X7520000Y-2540000D02*
G75*
G02*
X8020000Y-2540000I250000J0D01*
G01*
X7520000Y-2715000D02*
X7520000Y-2540000D01*
X3180000Y-2715000D02*
X7520000Y-2715000D01*
X33967500Y-2715000D02*
X29627500Y-2715000D01*
X34497500Y-3245000D02*
X33967500Y-2715000D01*
X34497500Y-7360000D02*
X34497500Y-3245000D01*
X34347500Y-7360000D02*
X34497500Y-7360000D01*
X34347500Y-7880000D02*
X34347500Y-7360000D01*
X34497500Y-7880000D02*
X34347500Y-7880000D01*
X34497500Y-11995000D02*
X34497500Y-7880000D01*
X33967500Y-12525000D02*
X34497500Y-11995000D01*
X29627500Y-12525000D02*
X33967500Y-12525000D01*
X29627500Y-12700000D02*
X29627500Y-12525000D01*
X29627500Y-12700000D02*
G75*
G02*
X29127500Y-12700000I-250000J0D01*
G01*
X29127500Y-12525000D02*
X29127500Y-12700000D01*
X28777500Y-12525000D02*
X29127500Y-12525000D01*
X28777500Y-12725000D02*
X28777500Y-12525000D01*
X24647500Y-12725000D02*
X28777500Y-12725000D01*
X24647500Y-12425000D02*
X24647500Y-12725000D01*
X23647500Y-12425000D02*
X24647500Y-12425000D01*
X23647500Y-12725000D02*
X23647500Y-12425000D01*
X19177500Y-12725000D02*
X23647500Y-12725000D01*
X19177500Y-12525000D02*
X19177500Y-12725000D01*
X17970000Y-12525000D02*
X19177500Y-12525000D01*
X19177500Y-2715000D02*
X17970000Y-2715000D01*
X19177500Y-2515000D02*
X19177500Y-2715000D01*
X23647500Y-2515000D02*
X19177500Y-2515000D01*
X23647500Y-2815000D02*
X23647500Y-2515000D01*
X24647500Y-2815000D02*
X23647500Y-2815000D01*
X24647500Y-2515000D02*
X24647500Y-2815000D01*
X28777500Y-2515000D02*
X24647500Y-2515000D01*
X28777500Y-2715000D02*
X28777500Y-2515000D01*
X29127500Y-2715000D02*
X28777500Y-2715000D01*
X29127500Y-2540000D02*
X29127500Y-2715000D01*
X29127500Y-2540000D02*
G75*
G02*
X29627500Y-2540000I250000J0D01*
G01*
X29627500Y-2715000D02*
X29627500Y-2540000D01*
X7895000Y-12700000D02*
G75*
G03*
X7895000Y-12700000I-125000J0D01*
G01*
X29502500Y-12700000D02*
G75*
G03*
X29502500Y-12700000I-125000J0D01*
G01*
X7895000Y-2540000D02*
G75*
G03*
X7895000Y-2540000I-125000J0D01*
G01*
X29502500Y-2540000D02*
G75*
G03*
X29502500Y-2540000I-125000J0D01*
G01*
D10*
X32562500Y-4450000D02*
X34112500Y-4450000D01*
X34112500Y-5075000D02*
X32562500Y-5075000D01*
X32562500Y-5075000D02*
X32562500Y-6355000D01*
X32562500Y-6355000D02*
X34112500Y-6355000D01*
X34112500Y-6355000D02*
X34112500Y-5075000D01*
X34112500Y-4450000D02*
X34112500Y-3170000D01*
X34112500Y-3170000D02*
X32562500Y-3170000D01*
X32562500Y-3170000D02*
X32562500Y-4450000D01*
D11*
X6075000Y-7620000D02*
G75*
G03*
X6075000Y-7620000I-250000J0D01*
G01*
D10*
X10752500Y-10380000D02*
G75*
G02*
X10827500Y-10455000I0J-75000D01*
G01*
X10827500Y-10455000D02*
X10827500Y-11230000D01*
X10202500Y-10380000D02*
X10752500Y-10380000D01*
X10752500Y-12330000D02*
X10202500Y-12330000D01*
X10827500Y-11630000D02*
X10827500Y-12255000D01*
X10827500Y-12255000D02*
G75*
G02*
X10752500Y-12330000I-75000J0D01*
G01*
X12181250Y-10380000D02*
G75*
G02*
X12256250Y-10455000I0J-75000D01*
G01*
X12256250Y-10455000D02*
X12256250Y-11230000D01*
X11631250Y-10380000D02*
X12181250Y-10380000D01*
X12181250Y-12330000D02*
X11631250Y-12330000D01*
X12256250Y-11630000D02*
X12256250Y-12255000D01*
X12256250Y-12255000D02*
G75*
G02*
X12181250Y-12330000I-75000J0D01*
G01*
X4585000Y-4450000D02*
X4585000Y-3170000D01*
X3035000Y-4450000D02*
X4585000Y-4450000D01*
X3035000Y-3170000D02*
X3035000Y-4450000D01*
X4585000Y-3170000D02*
X3035000Y-3170000D01*
X34112500Y-12070000D02*
X34112500Y-10790000D01*
X32562500Y-12070000D02*
X34112500Y-12070000D01*
X32562500Y-10790000D02*
X32562500Y-12070000D01*
X34112500Y-10790000D02*
X32562500Y-10790000D01*
X32207500Y-12070000D02*
X32207500Y-10790000D01*
X30657500Y-12070000D02*
X32207500Y-12070000D01*
X30657500Y-10790000D02*
X30657500Y-12070000D01*
X32207500Y-10790000D02*
X30657500Y-10790000D01*
X30302500Y-12070000D02*
X30302500Y-10790000D01*
X28752500Y-12070000D02*
X30302500Y-12070000D01*
X28752500Y-10790000D02*
X28752500Y-12070000D01*
X30302500Y-10790000D02*
X28752500Y-10790000D01*
X32207500Y-10165000D02*
X32207500Y-8885000D01*
X30657500Y-10165000D02*
X32207500Y-10165000D01*
X30657500Y-8885000D02*
X30657500Y-10165000D01*
X32207500Y-8885000D02*
X30657500Y-8885000D01*
X5061250Y-6355000D02*
X5061250Y-5075000D01*
X3511250Y-6355000D02*
X5061250Y-6355000D01*
X3511250Y-5075000D02*
X3511250Y-6355000D01*
X5061250Y-5075000D02*
X3511250Y-5075000D01*
X5299375Y-8260000D02*
X5299375Y-6980000D01*
X5775625Y-10165000D02*
X5775625Y-8885000D01*
X4225625Y-10165000D02*
X5775625Y-10165000D01*
X4225625Y-8885000D02*
X4225625Y-10165000D01*
X5775625Y-8885000D02*
X4225625Y-8885000D01*
X3535625Y-10125000D02*
G75*
G02*
X3460625Y-10050000I0J75000D01*
G01*
X3460625Y-8800000D02*
X3460625Y-10050000D01*
X3460625Y-8800000D02*
G75*
G02*
X3535625Y-8725000I75000J0D01*
G01*
X4085625Y-8725000D02*
X3535625Y-8725000D01*
X4085625Y-8725000D02*
G75*
G02*
X4160625Y-8800000I0J-75000D01*
G01*
X4160625Y-10050000D02*
X4160625Y-8800000D01*
X4160625Y-10050000D02*
G75*
G02*
X4085625Y-10125000I-75000J0D01*
G01*
X3535625Y-10125000D02*
X4085625Y-10125000D01*
X5840625Y-8800000D02*
X5840625Y-10050000D01*
X5840625Y-8800000D02*
G75*
G02*
X5915625Y-8725000I75000J0D01*
G01*
X6465625Y-8725000D02*
X5915625Y-8725000D01*
X6465625Y-8725000D02*
G75*
G02*
X6540625Y-8800000I0J-75000D01*
G01*
X6540625Y-10050000D02*
X6540625Y-8800000D01*
X6540625Y-10050000D02*
G75*
G02*
X6465625Y-10125000I-75000J0D01*
G01*
X5915625Y-10125000D02*
X6465625Y-10125000D01*
X5915625Y-10125000D02*
G75*
G02*
X5840625Y-10050000I0J75000D01*
G01*
X29111875Y-10165000D02*
X29111875Y-8885000D01*
X27561875Y-10165000D02*
X29111875Y-10165000D01*
X27561875Y-8885000D02*
X27561875Y-10165000D01*
X29111875Y-8885000D02*
X27561875Y-8885000D01*
X30778750Y-6355000D02*
X30778750Y-5075000D01*
X29228750Y-6355000D02*
X30778750Y-6355000D01*
X29228750Y-5075000D02*
X29228750Y-6355000D01*
X30778750Y-5075000D02*
X29228750Y-5075000D01*
X30064375Y-8260000D02*
X30064375Y-6980000D01*
X28514375Y-8260000D02*
X30064375Y-8260000D01*
X28514375Y-6980000D02*
X28514375Y-8260000D01*
X30064375Y-6980000D02*
X28514375Y-6980000D01*
X6490000Y-4450000D02*
X6490000Y-3170000D01*
X4940000Y-4450000D02*
X6490000Y-4450000D01*
X4940000Y-3170000D02*
X4940000Y-4450000D01*
X6490000Y-3170000D02*
X4940000Y-3170000D01*
X28397500Y-6355000D02*
X28397500Y-5075000D01*
X26847500Y-6355000D02*
X28397500Y-6355000D01*
X26847500Y-5075000D02*
X26847500Y-6355000D01*
X28397500Y-5075000D02*
X26847500Y-5075000D01*
X26968750Y-8260000D02*
X26968750Y-6980000D01*
X25418750Y-8260000D02*
X26968750Y-8260000D01*
X25418750Y-6980000D02*
X25418750Y-8260000D01*
X26968750Y-6980000D02*
X25418750Y-6980000D01*
X26016250Y-10165000D02*
X26016250Y-8885000D01*
X24466250Y-10165000D02*
X26016250Y-10165000D01*
X24466250Y-8885000D02*
X24466250Y-10165000D01*
X26016250Y-8885000D02*
X24466250Y-8885000D01*
X7442500Y-6355000D02*
X7442500Y-5075000D01*
X5892500Y-6355000D02*
X7442500Y-6355000D01*
X5892500Y-5075000D02*
X5892500Y-6355000D01*
X7442500Y-5075000D02*
X5892500Y-5075000D01*
X7918750Y-8260000D02*
X7918750Y-6980000D01*
X6368750Y-8260000D02*
X7918750Y-8260000D01*
X6368750Y-6980000D02*
X6368750Y-8260000D01*
X7918750Y-6980000D02*
X6368750Y-6980000D01*
X8871250Y-10165000D02*
X8871250Y-8885000D01*
X7321250Y-10165000D02*
X8871250Y-10165000D01*
X7321250Y-8885000D02*
X7321250Y-10165000D01*
X8871250Y-8885000D02*
X7321250Y-8885000D01*
X4823125Y-12070000D02*
X4823125Y-10790000D01*
X3273125Y-12070000D02*
X4823125Y-12070000D01*
X3273125Y-10790000D02*
X3273125Y-12070000D01*
X4823125Y-10790000D02*
X3273125Y-10790000D01*
X25778125Y-12070000D02*
X25778125Y-10790000D01*
X24228125Y-12070000D02*
X25778125Y-12070000D01*
X24228125Y-10790000D02*
X24228125Y-12070000D01*
X25778125Y-10790000D02*
X24228125Y-10790000D01*
X28159375Y-12070000D02*
X28159375Y-10790000D01*
X26609375Y-12070000D02*
X28159375Y-12070000D01*
X26609375Y-10790000D02*
X26609375Y-12070000D01*
X28159375Y-10790000D02*
X26609375Y-10790000D01*
X21846875Y-12070000D02*
X21846875Y-10790000D01*
X23396875Y-12070000D02*
X21846875Y-12070000D01*
X23396875Y-10790000D02*
X23396875Y-12070000D01*
X21846875Y-10790000D02*
X23396875Y-10790000D01*
X7204375Y-12070000D02*
X7204375Y-10790000D01*
X9585625Y-12070000D02*
X9585625Y-10790000D01*
X27421875Y-8725000D02*
G75*
G02*
X27496875Y-8800000I0J-75000D01*
G01*
X27496875Y-10050000D02*
X27496875Y-8800000D01*
X27496875Y-10050000D02*
G75*
G02*
X27421875Y-10125000I-75000J0D01*
G01*
X26871875Y-10125000D02*
X27421875Y-10125000D01*
X26871875Y-10125000D02*
G75*
G02*
X26796875Y-10050000I0J75000D01*
G01*
X26796875Y-8800000D02*
X26796875Y-10050000D01*
X26796875Y-8800000D02*
G75*
G02*
X26871875Y-8725000I75000J0D01*
G01*
X27421875Y-8725000D02*
X26871875Y-8725000D01*
X29876875Y-10050000D02*
G75*
G02*
X29801875Y-10125000I-75000J0D01*
G01*
X29251875Y-10125000D02*
X29801875Y-10125000D01*
X29251875Y-10125000D02*
G75*
G02*
X29176875Y-10050000I0J75000D01*
G01*
X29176875Y-8800000D02*
X29176875Y-10050000D01*
X29176875Y-8800000D02*
G75*
G02*
X29251875Y-8725000I75000J0D01*
G01*
X29801875Y-8725000D02*
X29251875Y-8725000D01*
X29801875Y-8725000D02*
G75*
G02*
X29876875Y-8800000I0J-75000D01*
G01*
X29876875Y-10050000D02*
X29876875Y-8800000D01*
X28449375Y-8145000D02*
G75*
G02*
X28374375Y-8220000I-75000J0D01*
G01*
X27824375Y-8220000D02*
X28374375Y-8220000D01*
X27824375Y-8220000D02*
G75*
G02*
X27749375Y-8145000I0J75000D01*
G01*
X27749375Y-6895000D02*
X27749375Y-8145000D01*
X27749375Y-6895000D02*
G75*
G02*
X27824375Y-6820000I75000J0D01*
G01*
X28374375Y-6820000D02*
X27824375Y-6820000D01*
X28374375Y-6820000D02*
G75*
G02*
X28449375Y-6895000I0J-75000D01*
G01*
X28449375Y-8145000D02*
X28449375Y-6895000D01*
X30204375Y-8220000D02*
G75*
G02*
X30129375Y-8145000I0J75000D01*
G01*
X30129375Y-6895000D02*
X30129375Y-8145000D01*
X30129375Y-6895000D02*
G75*
G02*
X30204375Y-6820000I75000J0D01*
G01*
X30754375Y-6820000D02*
X30204375Y-6820000D01*
X30754375Y-6820000D02*
G75*
G02*
X30829375Y-6895000I0J-75000D01*
G01*
X30829375Y-8145000D02*
X30829375Y-6895000D01*
X30829375Y-8145000D02*
G75*
G02*
X30754375Y-8220000I-75000J0D01*
G01*
X30204375Y-8220000D02*
X30754375Y-8220000D01*
X6845000Y-4450000D02*
X8395000Y-4450000D01*
X6845000Y-3170000D02*
X6845000Y-4450000D01*
X8395000Y-3170000D02*
X6845000Y-3170000D01*
X8395000Y-4450000D02*
X8395000Y-3170000D01*
X8750000Y-4450000D02*
X10300000Y-4450000D01*
X8750000Y-3170000D02*
X8750000Y-4450000D01*
X10300000Y-3170000D02*
X8750000Y-3170000D01*
X10300000Y-4450000D02*
X10300000Y-3170000D01*
X10655000Y-4450000D02*
X12205000Y-4450000D01*
X10655000Y-3170000D02*
X10655000Y-4450000D01*
X12205000Y-3170000D02*
X10655000Y-3170000D01*
X12205000Y-4450000D02*
X12205000Y-3170000D01*
X12560000Y-4450000D02*
X14110000Y-4450000D01*
X12560000Y-3170000D02*
X12560000Y-4450000D01*
X14110000Y-3170000D02*
X12560000Y-3170000D01*
X14110000Y-4450000D02*
X14110000Y-3170000D01*
X14465000Y-4450000D02*
X16015000Y-4450000D01*
X14465000Y-3170000D02*
X14465000Y-4450000D01*
X16015000Y-3170000D02*
X14465000Y-3170000D01*
X16015000Y-4450000D02*
X16015000Y-3170000D01*
X16370000Y-4450000D02*
X17920000Y-4450000D01*
X16370000Y-3170000D02*
X16370000Y-4450000D01*
X17920000Y-3170000D02*
X16370000Y-3170000D01*
X17920000Y-4450000D02*
X17920000Y-3170000D01*
X25895000Y-4450000D02*
X27445000Y-4450000D01*
X25895000Y-3170000D02*
X25895000Y-4450000D01*
X27445000Y-3170000D02*
X25895000Y-3170000D01*
X27445000Y-4450000D02*
X27445000Y-3170000D01*
X23990000Y-4450000D02*
X25540000Y-4450000D01*
X23990000Y-3170000D02*
X23990000Y-4450000D01*
X25540000Y-3170000D02*
X23990000Y-3170000D01*
X25540000Y-4450000D02*
X25540000Y-3170000D01*
X22085000Y-4450000D02*
X23635000Y-4450000D01*
X22085000Y-3170000D02*
X22085000Y-4450000D01*
X23635000Y-3170000D02*
X22085000Y-3170000D01*
X23635000Y-4450000D02*
X23635000Y-3170000D01*
X20180000Y-4450000D02*
X21730000Y-4450000D01*
X20180000Y-3170000D02*
X20180000Y-4450000D01*
X21730000Y-3170000D02*
X20180000Y-3170000D01*
X21730000Y-4450000D02*
X21730000Y-3170000D01*
X18275000Y-4450000D02*
X19825000Y-4450000D01*
X18275000Y-3170000D02*
X18275000Y-4450000D01*
X19825000Y-3170000D02*
X18275000Y-3170000D01*
X19825000Y-4450000D02*
X19825000Y-3170000D01*
X7797500Y-6355000D02*
X9347500Y-6355000D01*
X7797500Y-5075000D02*
X7797500Y-6355000D01*
X9347500Y-5075000D02*
X7797500Y-5075000D01*
X9347500Y-6355000D02*
X9347500Y-5075000D01*
X9702500Y-6355000D02*
X11252500Y-6355000D01*
X9702500Y-5075000D02*
X9702500Y-6355000D01*
X11252500Y-5075000D02*
X9702500Y-5075000D01*
X11252500Y-6355000D02*
X11252500Y-5075000D01*
X11607500Y-6355000D02*
X13157500Y-6355000D01*
X11607500Y-5075000D02*
X11607500Y-6355000D01*
X13157500Y-5075000D02*
X11607500Y-5075000D01*
X13157500Y-6355000D02*
X13157500Y-5075000D01*
X13512500Y-6355000D02*
X15062500Y-6355000D01*
X13512500Y-5075000D02*
X13512500Y-6355000D01*
X15062500Y-5075000D02*
X13512500Y-5075000D01*
X15062500Y-6355000D02*
X15062500Y-5075000D01*
X15417500Y-6355000D02*
X16967500Y-6355000D01*
X15417500Y-5075000D02*
X15417500Y-6355000D01*
X16967500Y-5075000D02*
X15417500Y-5075000D01*
X16967500Y-6355000D02*
X16967500Y-5075000D01*
X17322500Y-6355000D02*
X18872500Y-6355000D01*
X17322500Y-5075000D02*
X17322500Y-6355000D01*
X18872500Y-5075000D02*
X17322500Y-5075000D01*
X18872500Y-6355000D02*
X18872500Y-5075000D01*
X19227500Y-6355000D02*
X20777500Y-6355000D01*
X19227500Y-5075000D02*
X19227500Y-6355000D01*
X20777500Y-5075000D02*
X19227500Y-5075000D01*
X20777500Y-6355000D02*
X20777500Y-5075000D01*
X24942500Y-6355000D02*
X26492500Y-6355000D01*
X24942500Y-5075000D02*
X24942500Y-6355000D01*
X26492500Y-5075000D02*
X24942500Y-5075000D01*
X26492500Y-6355000D02*
X26492500Y-5075000D01*
X23037500Y-6355000D02*
X24587500Y-6355000D01*
X23037500Y-5075000D02*
X23037500Y-6355000D01*
X24587500Y-5075000D02*
X23037500Y-5075000D01*
X24587500Y-6355000D02*
X24587500Y-5075000D01*
X21132500Y-6355000D02*
X22682500Y-6355000D01*
X21132500Y-5075000D02*
X21132500Y-6355000D01*
X22682500Y-5075000D02*
X21132500Y-5075000D01*
X22682500Y-6355000D02*
X22682500Y-5075000D01*
X8273750Y-8260000D02*
X9823750Y-8260000D01*
X8273750Y-6980000D02*
X8273750Y-8260000D01*
X9823750Y-6980000D02*
X8273750Y-6980000D01*
X9823750Y-8260000D02*
X9823750Y-6980000D01*
X10178750Y-8260000D02*
X11728750Y-8260000D01*
X10178750Y-6980000D02*
X10178750Y-8260000D01*
X11728750Y-6980000D02*
X10178750Y-6980000D01*
X11728750Y-8260000D02*
X11728750Y-6980000D01*
X12083750Y-8260000D02*
X13633750Y-8260000D01*
X12083750Y-6980000D02*
X12083750Y-8260000D01*
X13633750Y-6980000D02*
X12083750Y-6980000D01*
X13633750Y-8260000D02*
X13633750Y-6980000D01*
X13988750Y-8260000D02*
X15538750Y-8260000D01*
X13988750Y-6980000D02*
X13988750Y-8260000D01*
X15538750Y-6980000D02*
X13988750Y-6980000D01*
X15538750Y-8260000D02*
X15538750Y-6980000D01*
X15893750Y-8260000D02*
X17443750Y-8260000D01*
X15893750Y-6980000D02*
X15893750Y-8260000D01*
X17443750Y-6980000D02*
X15893750Y-6980000D01*
X17443750Y-8260000D02*
X17443750Y-6980000D01*
X17798750Y-8260000D02*
X19348750Y-8260000D01*
X17798750Y-6980000D02*
X17798750Y-8260000D01*
X19348750Y-6980000D02*
X17798750Y-6980000D01*
X19348750Y-8260000D02*
X19348750Y-6980000D01*
X19703750Y-8260000D02*
X21253750Y-8260000D01*
X19703750Y-6980000D02*
X19703750Y-8260000D01*
X21253750Y-6980000D02*
X19703750Y-6980000D01*
X21253750Y-8260000D02*
X21253750Y-6980000D01*
X23513750Y-8260000D02*
X25063750Y-8260000D01*
X23513750Y-6980000D02*
X23513750Y-8260000D01*
X25063750Y-6980000D02*
X23513750Y-6980000D01*
X25063750Y-8260000D02*
X25063750Y-6980000D01*
X21608750Y-8260000D02*
X23158750Y-8260000D01*
X21608750Y-6980000D02*
X21608750Y-8260000D01*
X23158750Y-6980000D02*
X21608750Y-6980000D01*
X23158750Y-8260000D02*
X23158750Y-6980000D01*
X9226250Y-10165000D02*
X10776250Y-10165000D01*
X9226250Y-8885000D02*
X9226250Y-10165000D01*
X10776250Y-8885000D02*
X9226250Y-8885000D01*
X10776250Y-10165000D02*
X10776250Y-8885000D01*
X11131250Y-10165000D02*
X12681250Y-10165000D01*
X11131250Y-8885000D02*
X11131250Y-10165000D01*
X12681250Y-8885000D02*
X11131250Y-8885000D01*
X12681250Y-10165000D02*
X12681250Y-8885000D01*
X13036250Y-10165000D02*
X14586250Y-10165000D01*
X13036250Y-8885000D02*
X13036250Y-10165000D01*
X14586250Y-8885000D02*
X13036250Y-8885000D01*
X14586250Y-10165000D02*
X14586250Y-8885000D01*
X14941250Y-10165000D02*
X16491250Y-10165000D01*
X14941250Y-8885000D02*
X14941250Y-10165000D01*
X16491250Y-8885000D02*
X14941250Y-8885000D01*
X16491250Y-10165000D02*
X16491250Y-8885000D01*
X16846250Y-10165000D02*
X18396250Y-10165000D01*
X16846250Y-8885000D02*
X16846250Y-10165000D01*
X18396250Y-8885000D02*
X16846250Y-8885000D01*
X18396250Y-10165000D02*
X18396250Y-8885000D01*
X18751250Y-10165000D02*
X20301250Y-10165000D01*
X18751250Y-8885000D02*
X18751250Y-10165000D01*
X20301250Y-8885000D02*
X18751250Y-8885000D01*
X20301250Y-10165000D02*
X20301250Y-8885000D01*
X20656250Y-10165000D02*
X22206250Y-10165000D01*
X20656250Y-8885000D02*
X20656250Y-10165000D01*
X22206250Y-8885000D02*
X20656250Y-8885000D01*
X22206250Y-10165000D02*
X22206250Y-8885000D01*
X22561250Y-10165000D02*
X24111250Y-10165000D01*
X22561250Y-8885000D02*
X22561250Y-10165000D01*
X24111250Y-8885000D02*
X22561250Y-8885000D01*
X24111250Y-10165000D02*
X24111250Y-8885000D01*
X7559375Y-12070000D02*
X9585625Y-12070000D01*
X7559375Y-10790000D02*
X7559375Y-12070000D01*
X9585625Y-10790000D02*
X7559375Y-10790000D01*
X5416250Y-12070000D02*
X7204375Y-12070000D01*
X5416250Y-10790000D02*
X5416250Y-12070000D01*
X7204375Y-10790000D02*
X5416250Y-10790000D01*
X3273125Y-8260000D02*
X5299375Y-8260000D01*
X3273125Y-6980000D02*
X3273125Y-8260000D01*
X5299375Y-6980000D02*
X3273125Y-6980000D01*
X14703125Y-11630000D02*
X12256250Y-11630000D01*
X14703125Y-12070000D02*
X14703125Y-11630000D01*
X17443750Y-12070000D02*
X14703125Y-12070000D01*
X17443750Y-11630000D02*
X17443750Y-12070000D01*
X19176250Y-11630000D02*
X17443750Y-11630000D01*
X19176250Y-12255000D02*
X19176250Y-11630000D01*
X19251250Y-12330000D02*
G75*
G02*
X19176250Y-12255000I0J75000D01*
G01*
X19801250Y-12330000D02*
X19251250Y-12330000D01*
X19876250Y-12255000D02*
G75*
G02*
X19801250Y-12330000I-75000J0D01*
G01*
X19876250Y-11630000D02*
X19876250Y-12255000D01*
X20128750Y-11630000D02*
X19876250Y-11630000D01*
X20128750Y-12255000D02*
X20128750Y-11630000D01*
X20203750Y-12330000D02*
G75*
G02*
X20128750Y-12255000I0J75000D01*
G01*
X20753750Y-12330000D02*
X20203750Y-12330000D01*
X20828750Y-12255000D02*
G75*
G02*
X20753750Y-12330000I-75000J0D01*
G01*
X20828750Y-10455000D02*
X20828750Y-12255000D01*
X20753750Y-10380000D02*
G75*
G02*
X20828750Y-10455000I0J-75000D01*
G01*
X20203750Y-10380000D02*
X20753750Y-10380000D01*
X20128750Y-10455000D02*
G75*
G02*
X20203750Y-10380000I75000J0D01*
G01*
X20128750Y-11230000D02*
X20128750Y-10455000D01*
X19876250Y-11230000D02*
X20128750Y-11230000D01*
X19876250Y-10455000D02*
X19876250Y-11230000D01*
X19801250Y-10380000D02*
G75*
G02*
X19876250Y-10455000I0J-75000D01*
G01*
X19251250Y-10380000D02*
X19801250Y-10380000D01*
X19176250Y-10455000D02*
G75*
G02*
X19251250Y-10380000I75000J0D01*
G01*
X19176250Y-11230000D02*
X19176250Y-10455000D01*
X17443750Y-11230000D02*
X19176250Y-11230000D01*
X17443750Y-10790000D02*
X17443750Y-11230000D01*
X14703125Y-10790000D02*
X17443750Y-10790000D01*
X14703125Y-11230000D02*
X14703125Y-10790000D01*
X12256250Y-11230000D02*
X14703125Y-11230000D01*
X11556250Y-10455000D02*
G75*
G02*
X11631250Y-10380000I75000J0D01*
G01*
X11556250Y-11230000D02*
X11556250Y-10455000D01*
X10827500Y-11230000D02*
X11556250Y-11230000D01*
X10127500Y-10455000D02*
G75*
G02*
X10202500Y-10380000I75000J0D01*
G01*
X10127500Y-12255000D02*
X10127500Y-10455000D01*
X10202500Y-12330000D02*
G75*
G02*
X10127500Y-12255000I0J75000D01*
G01*
X11556250Y-11630000D02*
X10827500Y-11630000D01*
X11556250Y-12255000D02*
X11556250Y-11630000D01*
X11631250Y-12330000D02*
G75*
G02*
X11556250Y-12255000I0J75000D01*
G01*
X32445000Y-7435000D02*
G75*
G03*
X32445000Y-7435000I-450000J0D01*
G01*
D12*
X3035000Y-3785000D02*
X3085000Y-3835000D01*
X3085000Y-3785000D02*
X3035000Y-3835000D01*
X3045000Y-3195000D02*
X3045000Y-4425000D01*
X3075000Y-3195000D02*
X3075000Y-4425000D01*
X3045000Y-4425000D02*
G75*
G03*
X3075000Y-4425000I15000J0D01*
G01*
X3075000Y-3195000D02*
G75*
G03*
X3045000Y-3195000I-15000J0D01*
G01*
X3273125Y-7595000D02*
X3323125Y-7645000D01*
X3323125Y-7595000D02*
X3273125Y-7645000D01*
X3283125Y-7005000D02*
X3283125Y-8235000D01*
X3313125Y-7005000D02*
X3313125Y-8235000D01*
X3283125Y-8235000D02*
G75*
G03*
X3313125Y-8235000I15000J0D01*
G01*
X3313125Y-7005000D02*
G75*
G03*
X3283125Y-7005000I-15000J0D01*
G01*
X3273125Y-11405000D02*
X3323125Y-11455000D01*
X3323125Y-11405000D02*
X3273125Y-11455000D01*
X3283125Y-10815000D02*
X3283125Y-12045000D01*
X3313125Y-10815000D02*
X3313125Y-12045000D01*
X3283125Y-12045000D02*
G75*
G03*
X3313125Y-12045000I15000J0D01*
G01*
X3313125Y-10815000D02*
G75*
G03*
X3283125Y-10815000I-15000J0D01*
G01*
X3511250Y-5690000D02*
X3561250Y-5740000D01*
X3561250Y-5690000D02*
X3511250Y-5740000D01*
X3521250Y-5100000D02*
X3521250Y-6330000D01*
X3551250Y-5100000D02*
X3551250Y-6330000D01*
X3521250Y-6330000D02*
G75*
G03*
X3551250Y-6330000I15000J0D01*
G01*
X3551250Y-5100000D02*
G75*
G03*
X3521250Y-5100000I-15000J0D01*
G01*
X3749375Y-7595000D02*
X3799375Y-7645000D01*
X3799375Y-7595000D02*
X3749375Y-7645000D01*
X3759375Y-7005000D02*
X3759375Y-8235000D01*
X3789375Y-7005000D02*
X3789375Y-8235000D01*
X3759375Y-8235000D02*
G75*
G03*
X3789375Y-8235000I15000J0D01*
G01*
X3789375Y-7005000D02*
G75*
G03*
X3759375Y-7005000I-15000J0D01*
G01*
X3785000Y-3170000D02*
X3835000Y-3220000D01*
X3835000Y-3170000D02*
X3785000Y-3220000D01*
X3060000Y-3210000D02*
X4560000Y-3210000D01*
X3060000Y-3180000D02*
X4560000Y-3180000D01*
X4560000Y-3210000D02*
G75*
G03*
X4560000Y-3180000I0J15000D01*
G01*
X3060000Y-3180000D02*
G75*
G03*
X3060000Y-3210000I0J-15000D01*
G01*
X3785000Y-4400000D02*
X3835000Y-4450000D01*
X3835000Y-4400000D02*
X3785000Y-4450000D01*
X3060000Y-4440000D02*
X4560000Y-4440000D01*
X3060000Y-4410000D02*
X4560000Y-4410000D01*
X4560000Y-4440000D02*
G75*
G03*
X4560000Y-4410000I0J15000D01*
G01*
X3060000Y-4410000D02*
G75*
G03*
X3060000Y-4440000I0J-15000D01*
G01*
X4023125Y-6980000D02*
X4073125Y-7030000D01*
X4073125Y-6980000D02*
X4023125Y-7030000D01*
X3298125Y-7020000D02*
X4798125Y-7020000D01*
X3298125Y-6990000D02*
X4798125Y-6990000D01*
X4798125Y-7020000D02*
G75*
G03*
X4798125Y-6990000I0J15000D01*
G01*
X3298125Y-6990000D02*
G75*
G03*
X3298125Y-7020000I0J-15000D01*
G01*
X4023125Y-8210000D02*
X4073125Y-8260000D01*
X4073125Y-8210000D02*
X4023125Y-8260000D01*
X3298125Y-8250000D02*
X4798125Y-8250000D01*
X3298125Y-8220000D02*
X4798125Y-8220000D01*
X4798125Y-8250000D02*
G75*
G03*
X4798125Y-8220000I0J15000D01*
G01*
X3298125Y-8220000D02*
G75*
G03*
X3298125Y-8250000I0J-15000D01*
G01*
X4023125Y-10790000D02*
X4073125Y-10840000D01*
X4073125Y-10790000D02*
X4023125Y-10840000D01*
X3298125Y-10830000D02*
X4798125Y-10830000D01*
X3298125Y-10800000D02*
X4798125Y-10800000D01*
X4798125Y-10830000D02*
G75*
G03*
X4798125Y-10800000I0J15000D01*
G01*
X3298125Y-10800000D02*
G75*
G03*
X3298125Y-10830000I0J-15000D01*
G01*
X4023125Y-12020000D02*
X4073125Y-12070000D01*
X4073125Y-12020000D02*
X4023125Y-12070000D01*
X3298125Y-12060000D02*
X4798125Y-12060000D01*
X3298125Y-12030000D02*
X4798125Y-12030000D01*
X4798125Y-12060000D02*
G75*
G03*
X4798125Y-12030000I0J15000D01*
G01*
X3298125Y-12030000D02*
G75*
G03*
X3298125Y-12060000I0J-15000D01*
G01*
X4225625Y-9500000D02*
X4275625Y-9550000D01*
X4275625Y-9500000D02*
X4225625Y-9550000D01*
X4235625Y-8910000D02*
X4235625Y-10140000D01*
X4265625Y-8910000D02*
X4265625Y-10140000D01*
X4235625Y-10140000D02*
G75*
G03*
X4265625Y-10140000I15000J0D01*
G01*
X4265625Y-8910000D02*
G75*
G03*
X4235625Y-8910000I-15000J0D01*
G01*
X4261250Y-5075000D02*
X4311250Y-5125000D01*
X4311250Y-5075000D02*
X4261250Y-5125000D01*
X3536250Y-5115000D02*
X5036250Y-5115000D01*
X3536250Y-5085000D02*
X5036250Y-5085000D01*
X5036250Y-5115000D02*
G75*
G03*
X5036250Y-5085000I0J15000D01*
G01*
X3536250Y-5085000D02*
G75*
G03*
X3536250Y-5115000I0J-15000D01*
G01*
X4261250Y-6305000D02*
X4311250Y-6355000D01*
X4311250Y-6305000D02*
X4261250Y-6355000D01*
X3536250Y-6345000D02*
X5036250Y-6345000D01*
X3536250Y-6315000D02*
X5036250Y-6315000D01*
X5036250Y-6345000D02*
G75*
G03*
X5036250Y-6315000I0J15000D01*
G01*
X3536250Y-6315000D02*
G75*
G03*
X3536250Y-6345000I0J-15000D01*
G01*
X4499375Y-6980000D02*
X4549375Y-7030000D01*
X4549375Y-6980000D02*
X4499375Y-7030000D01*
X3774375Y-7020000D02*
X5274375Y-7020000D01*
X3774375Y-6990000D02*
X5274375Y-6990000D01*
X5274375Y-7020000D02*
G75*
G03*
X5274375Y-6990000I0J15000D01*
G01*
X3774375Y-6990000D02*
G75*
G03*
X3774375Y-7020000I0J-15000D01*
G01*
X4499375Y-8210000D02*
X4549375Y-8260000D01*
X4549375Y-8210000D02*
X4499375Y-8260000D01*
X3774375Y-8250000D02*
X5274375Y-8250000D01*
X3774375Y-8220000D02*
X5274375Y-8220000D01*
X5274375Y-8250000D02*
G75*
G03*
X5274375Y-8220000I0J15000D01*
G01*
X3774375Y-8220000D02*
G75*
G03*
X3774375Y-8250000I0J-15000D01*
G01*
X4535000Y-3785000D02*
X4585000Y-3835000D01*
X4585000Y-3785000D02*
X4535000Y-3835000D01*
X4545000Y-3195000D02*
X4545000Y-4425000D01*
X4575000Y-3195000D02*
X4575000Y-4425000D01*
X4545000Y-4425000D02*
G75*
G03*
X4575000Y-4425000I15000J0D01*
G01*
X4575000Y-3195000D02*
G75*
G03*
X4545000Y-3195000I-15000J0D01*
G01*
X4773125Y-7595000D02*
X4823125Y-7645000D01*
X4823125Y-7595000D02*
X4773125Y-7645000D01*
X4783125Y-7005000D02*
X4783125Y-8235000D01*
X4813125Y-7005000D02*
X4813125Y-8235000D01*
X4783125Y-8235000D02*
G75*
G03*
X4813125Y-8235000I15000J0D01*
G01*
X4813125Y-7005000D02*
G75*
G03*
X4783125Y-7005000I-15000J0D01*
G01*
X4773125Y-11405000D02*
X4823125Y-11455000D01*
X4823125Y-11405000D02*
X4773125Y-11455000D01*
X4783125Y-10815000D02*
X4783125Y-12045000D01*
X4813125Y-10815000D02*
X4813125Y-12045000D01*
X4783125Y-12045000D02*
G75*
G03*
X4813125Y-12045000I15000J0D01*
G01*
X4813125Y-10815000D02*
G75*
G03*
X4783125Y-10815000I-15000J0D01*
G01*
X4940000Y-3785000D02*
X4990000Y-3835000D01*
X4990000Y-3785000D02*
X4940000Y-3835000D01*
X4950000Y-3195000D02*
X4950000Y-4425000D01*
X4980000Y-3195000D02*
X4980000Y-4425000D01*
X4950000Y-4425000D02*
G75*
G03*
X4980000Y-4425000I15000J0D01*
G01*
X4980000Y-3195000D02*
G75*
G03*
X4950000Y-3195000I-15000J0D01*
G01*
X4975625Y-8885000D02*
X5025625Y-8935000D01*
X5025625Y-8885000D02*
X4975625Y-8935000D01*
X4250625Y-8925000D02*
X5750625Y-8925000D01*
X4250625Y-8895000D02*
X5750625Y-8895000D01*
X5750625Y-8925000D02*
G75*
G03*
X5750625Y-8895000I0J15000D01*
G01*
X4250625Y-8895000D02*
G75*
G03*
X4250625Y-8925000I0J-15000D01*
G01*
X4975625Y-10115000D02*
X5025625Y-10165000D01*
X5025625Y-10115000D02*
X4975625Y-10165000D01*
X4250625Y-10155000D02*
X5750625Y-10155000D01*
X4250625Y-10125000D02*
X5750625Y-10125000D01*
X5750625Y-10155000D02*
G75*
G03*
X5750625Y-10125000I0J15000D01*
G01*
X4250625Y-10125000D02*
G75*
G03*
X4250625Y-10155000I0J-15000D01*
G01*
X5011250Y-5690000D02*
X5061250Y-5740000D01*
X5061250Y-5690000D02*
X5011250Y-5740000D01*
X5021250Y-5100000D02*
X5021250Y-6330000D01*
X5051250Y-5100000D02*
X5051250Y-6330000D01*
X5021250Y-6330000D02*
G75*
G03*
X5051250Y-6330000I15000J0D01*
G01*
X5051250Y-5100000D02*
G75*
G03*
X5021250Y-5100000I-15000J0D01*
G01*
X5249375Y-7595000D02*
X5299375Y-7645000D01*
X5299375Y-7595000D02*
X5249375Y-7645000D01*
X5259375Y-7005000D02*
X5259375Y-8235000D01*
X5289375Y-7005000D02*
X5289375Y-8235000D01*
X5259375Y-8235000D02*
G75*
G03*
X5289375Y-8235000I15000J0D01*
G01*
X5289375Y-7005000D02*
G75*
G03*
X5259375Y-7005000I-15000J0D01*
G01*
X5416250Y-11405000D02*
X5466250Y-11455000D01*
X5466250Y-11405000D02*
X5416250Y-11455000D01*
X5426250Y-10815000D02*
X5426250Y-12045000D01*
X5456250Y-10815000D02*
X5456250Y-12045000D01*
X5426250Y-12045000D02*
G75*
G03*
X5456250Y-12045000I15000J0D01*
G01*
X5456250Y-10815000D02*
G75*
G03*
X5426250Y-10815000I-15000J0D01*
G01*
X5654375Y-11405000D02*
X5704375Y-11455000D01*
X5704375Y-11405000D02*
X5654375Y-11455000D01*
X5664375Y-10815000D02*
X5664375Y-12045000D01*
X5694375Y-10815000D02*
X5694375Y-12045000D01*
X5664375Y-12045000D02*
G75*
G03*
X5694375Y-12045000I15000J0D01*
G01*
X5694375Y-10815000D02*
G75*
G03*
X5664375Y-10815000I-15000J0D01*
G01*
X5690000Y-3170000D02*
X5740000Y-3220000D01*
X5740000Y-3170000D02*
X5690000Y-3220000D01*
X4965000Y-3210000D02*
X6465000Y-3210000D01*
X4965000Y-3180000D02*
X6465000Y-3180000D01*
X6465000Y-3210000D02*
G75*
G03*
X6465000Y-3180000I0J15000D01*
G01*
X4965000Y-3180000D02*
G75*
G03*
X4965000Y-3210000I0J-15000D01*
G01*
X5690000Y-4400000D02*
X5740000Y-4450000D01*
X5740000Y-4400000D02*
X5690000Y-4450000D01*
X4965000Y-4440000D02*
X6465000Y-4440000D01*
X4965000Y-4410000D02*
X6465000Y-4410000D01*
X6465000Y-4440000D02*
G75*
G03*
X6465000Y-4410000I0J15000D01*
G01*
X4965000Y-4410000D02*
G75*
G03*
X4965000Y-4440000I0J-15000D01*
G01*
X5725625Y-9500000D02*
X5775625Y-9550000D01*
X5775625Y-9500000D02*
X5725625Y-9550000D01*
X5735625Y-8910000D02*
X5735625Y-10140000D01*
X5765625Y-8910000D02*
X5765625Y-10140000D01*
X5735625Y-10140000D02*
G75*
G03*
X5765625Y-10140000I15000J0D01*
G01*
X5765625Y-8910000D02*
G75*
G03*
X5735625Y-8910000I-15000J0D01*
G01*
X5892500Y-5690000D02*
X5942500Y-5740000D01*
X5942500Y-5690000D02*
X5892500Y-5740000D01*
X5902500Y-5100000D02*
X5902500Y-6330000D01*
X5932500Y-5100000D02*
X5932500Y-6330000D01*
X5902500Y-6330000D02*
G75*
G03*
X5932500Y-6330000I15000J0D01*
G01*
X5932500Y-5100000D02*
G75*
G03*
X5902500Y-5100000I-15000J0D01*
G01*
X6166250Y-10790000D02*
X6216250Y-10840000D01*
X6216250Y-10790000D02*
X6166250Y-10840000D01*
X5441250Y-10830000D02*
X6941250Y-10830000D01*
X5441250Y-10800000D02*
X6941250Y-10800000D01*
X6941250Y-10830000D02*
G75*
G03*
X6941250Y-10800000I0J15000D01*
G01*
X5441250Y-10800000D02*
G75*
G03*
X5441250Y-10830000I0J-15000D01*
G01*
X6166250Y-12020000D02*
X6216250Y-12070000D01*
X6216250Y-12020000D02*
X6166250Y-12070000D01*
X5441250Y-12060000D02*
X6941250Y-12060000D01*
X5441250Y-12030000D02*
X6941250Y-12030000D01*
X6941250Y-12060000D02*
G75*
G03*
X6941250Y-12030000I0J15000D01*
G01*
X5441250Y-12030000D02*
G75*
G03*
X5441250Y-12060000I0J-15000D01*
G01*
X6368750Y-7595000D02*
X6418750Y-7645000D01*
X6418750Y-7595000D02*
X6368750Y-7645000D01*
X6378750Y-7005000D02*
X6378750Y-8235000D01*
X6408750Y-7005000D02*
X6408750Y-8235000D01*
X6378750Y-8235000D02*
G75*
G03*
X6408750Y-8235000I15000J0D01*
G01*
X6408750Y-7005000D02*
G75*
G03*
X6378750Y-7005000I-15000J0D01*
G01*
X6404375Y-10790000D02*
X6454375Y-10840000D01*
X6454375Y-10790000D02*
X6404375Y-10840000D01*
X5679375Y-10830000D02*
X7179375Y-10830000D01*
X5679375Y-10800000D02*
X7179375Y-10800000D01*
X7179375Y-10830000D02*
G75*
G03*
X7179375Y-10800000I0J15000D01*
G01*
X5679375Y-10800000D02*
G75*
G03*
X5679375Y-10830000I0J-15000D01*
G01*
X6404375Y-12020000D02*
X6454375Y-12070000D01*
X6454375Y-12020000D02*
X6404375Y-12070000D01*
X5679375Y-12060000D02*
X7179375Y-12060000D01*
X5679375Y-12030000D02*
X7179375Y-12030000D01*
X7179375Y-12060000D02*
G75*
G03*
X7179375Y-12030000I0J15000D01*
G01*
X5679375Y-12030000D02*
G75*
G03*
X5679375Y-12060000I0J-15000D01*
G01*
X6440000Y-3785000D02*
X6490000Y-3835000D01*
X6490000Y-3785000D02*
X6440000Y-3835000D01*
X6450000Y-3195000D02*
X6450000Y-4425000D01*
X6480000Y-3195000D02*
X6480000Y-4425000D01*
X6450000Y-4425000D02*
G75*
G03*
X6480000Y-4425000I15000J0D01*
G01*
X6480000Y-3195000D02*
G75*
G03*
X6450000Y-3195000I-15000J0D01*
G01*
X6642500Y-5075000D02*
X6692500Y-5125000D01*
X6692500Y-5075000D02*
X6642500Y-5125000D01*
X5917500Y-5115000D02*
X7417500Y-5115000D01*
X5917500Y-5085000D02*
X7417500Y-5085000D01*
X7417500Y-5115000D02*
G75*
G03*
X7417500Y-5085000I0J15000D01*
G01*
X5917500Y-5085000D02*
G75*
G03*
X5917500Y-5115000I0J-15000D01*
G01*
X6642500Y-6305000D02*
X6692500Y-6355000D01*
X6692500Y-6305000D02*
X6642500Y-6355000D01*
X5917500Y-6345000D02*
X7417500Y-6345000D01*
X5917500Y-6315000D02*
X7417500Y-6315000D01*
X7417500Y-6345000D02*
G75*
G03*
X7417500Y-6315000I0J15000D01*
G01*
X5917500Y-6315000D02*
G75*
G03*
X5917500Y-6345000I0J-15000D01*
G01*
X6845000Y-3785000D02*
X6895000Y-3835000D01*
X6895000Y-3785000D02*
X6845000Y-3835000D01*
X6855000Y-3195000D02*
X6855000Y-4425000D01*
X6885000Y-3195000D02*
X6885000Y-4425000D01*
X6855000Y-4425000D02*
G75*
G03*
X6885000Y-4425000I15000J0D01*
G01*
X6885000Y-3195000D02*
G75*
G03*
X6855000Y-3195000I-15000J0D01*
G01*
X6916250Y-11405000D02*
X6966250Y-11455000D01*
X6966250Y-11405000D02*
X6916250Y-11455000D01*
X6926250Y-10815000D02*
X6926250Y-12045000D01*
X6956250Y-10815000D02*
X6956250Y-12045000D01*
X6926250Y-12045000D02*
G75*
G03*
X6956250Y-12045000I15000J0D01*
G01*
X6956250Y-10815000D02*
G75*
G03*
X6926250Y-10815000I-15000J0D01*
G01*
X7118750Y-6980000D02*
X7168750Y-7030000D01*
X7168750Y-6980000D02*
X7118750Y-7030000D01*
X6393750Y-7020000D02*
X7893750Y-7020000D01*
X6393750Y-6990000D02*
X7893750Y-6990000D01*
X7893750Y-7020000D02*
G75*
G03*
X7893750Y-6990000I0J15000D01*
G01*
X6393750Y-6990000D02*
G75*
G03*
X6393750Y-7020000I0J-15000D01*
G01*
X7118750Y-8210000D02*
X7168750Y-8260000D01*
X7168750Y-8210000D02*
X7118750Y-8260000D01*
X6393750Y-8250000D02*
X7893750Y-8250000D01*
X6393750Y-8220000D02*
X7893750Y-8220000D01*
X7893750Y-8250000D02*
G75*
G03*
X7893750Y-8220000I0J15000D01*
G01*
X6393750Y-8220000D02*
G75*
G03*
X6393750Y-8250000I0J-15000D01*
G01*
X7154375Y-11405000D02*
X7204375Y-11455000D01*
X7204375Y-11405000D02*
X7154375Y-11455000D01*
X7164375Y-10815000D02*
X7164375Y-12045000D01*
X7194375Y-10815000D02*
X7194375Y-12045000D01*
X7164375Y-12045000D02*
G75*
G03*
X7194375Y-12045000I15000J0D01*
G01*
X7194375Y-10815000D02*
G75*
G03*
X7164375Y-10815000I-15000J0D01*
G01*
X7321250Y-9500000D02*
X7371250Y-9550000D01*
X7371250Y-9500000D02*
X7321250Y-9550000D01*
X7331250Y-8910000D02*
X7331250Y-10140000D01*
X7361250Y-8910000D02*
X7361250Y-10140000D01*
X7331250Y-10140000D02*
G75*
G03*
X7361250Y-10140000I15000J0D01*
G01*
X7361250Y-8910000D02*
G75*
G03*
X7331250Y-8910000I-15000J0D01*
G01*
X7392500Y-5690000D02*
X7442500Y-5740000D01*
X7442500Y-5690000D02*
X7392500Y-5740000D01*
X7402500Y-5100000D02*
X7402500Y-6330000D01*
X7432500Y-5100000D02*
X7432500Y-6330000D01*
X7402500Y-6330000D02*
G75*
G03*
X7432500Y-6330000I15000J0D01*
G01*
X7432500Y-5100000D02*
G75*
G03*
X7402500Y-5100000I-15000J0D01*
G01*
X7559375Y-11405000D02*
X7609375Y-11455000D01*
X7609375Y-11405000D02*
X7559375Y-11455000D01*
X7569375Y-10815000D02*
X7569375Y-12045000D01*
X7599375Y-10815000D02*
X7599375Y-12045000D01*
X7569375Y-12045000D02*
G75*
G03*
X7599375Y-12045000I15000J0D01*
G01*
X7599375Y-10815000D02*
G75*
G03*
X7569375Y-10815000I-15000J0D01*
G01*
X7595000Y-3170000D02*
X7645000Y-3220000D01*
X7645000Y-3170000D02*
X7595000Y-3220000D01*
X6870000Y-3210000D02*
X8370000Y-3210000D01*
X6870000Y-3180000D02*
X8370000Y-3180000D01*
X8370000Y-3210000D02*
G75*
G03*
X8370000Y-3180000I0J15000D01*
G01*
X6870000Y-3180000D02*
G75*
G03*
X6870000Y-3210000I0J-15000D01*
G01*
X7595000Y-4400000D02*
X7645000Y-4450000D01*
X7645000Y-4400000D02*
X7595000Y-4450000D01*
X6870000Y-4440000D02*
X8370000Y-4440000D01*
X6870000Y-4410000D02*
X8370000Y-4410000D01*
X8370000Y-4440000D02*
G75*
G03*
X8370000Y-4410000I0J15000D01*
G01*
X6870000Y-4410000D02*
G75*
G03*
X6870000Y-4440000I0J-15000D01*
G01*
X7797500Y-5690000D02*
X7847500Y-5740000D01*
X7847500Y-5690000D02*
X7797500Y-5740000D01*
X7807500Y-5100000D02*
X7807500Y-6330000D01*
X7837500Y-5100000D02*
X7837500Y-6330000D01*
X7807500Y-6330000D02*
G75*
G03*
X7837500Y-6330000I15000J0D01*
G01*
X7837500Y-5100000D02*
G75*
G03*
X7807500Y-5100000I-15000J0D01*
G01*
X7868750Y-7595000D02*
X7918750Y-7645000D01*
X7918750Y-7595000D02*
X7868750Y-7645000D01*
X7878750Y-7005000D02*
X7878750Y-8235000D01*
X7908750Y-7005000D02*
X7908750Y-8235000D01*
X7878750Y-8235000D02*
G75*
G03*
X7908750Y-8235000I15000J0D01*
G01*
X7908750Y-7005000D02*
G75*
G03*
X7878750Y-7005000I-15000J0D01*
G01*
X8035625Y-11405000D02*
X8085625Y-11455000D01*
X8085625Y-11405000D02*
X8035625Y-11455000D01*
X8045625Y-10815000D02*
X8045625Y-12045000D01*
X8075625Y-10815000D02*
X8075625Y-12045000D01*
X8045625Y-12045000D02*
G75*
G03*
X8075625Y-12045000I15000J0D01*
G01*
X8075625Y-10815000D02*
G75*
G03*
X8045625Y-10815000I-15000J0D01*
G01*
X8071250Y-8885000D02*
X8121250Y-8935000D01*
X8121250Y-8885000D02*
X8071250Y-8935000D01*
X7346250Y-8925000D02*
X8846250Y-8925000D01*
X7346250Y-8895000D02*
X8846250Y-8895000D01*
X8846250Y-8925000D02*
G75*
G03*
X8846250Y-8895000I0J15000D01*
G01*
X7346250Y-8895000D02*
G75*
G03*
X7346250Y-8925000I0J-15000D01*
G01*
X8071250Y-10115000D02*
X8121250Y-10165000D01*
X8121250Y-10115000D02*
X8071250Y-10165000D01*
X7346250Y-10155000D02*
X8846250Y-10155000D01*
X7346250Y-10125000D02*
X8846250Y-10125000D01*
X8846250Y-10155000D02*
G75*
G03*
X8846250Y-10125000I0J15000D01*
G01*
X7346250Y-10125000D02*
G75*
G03*
X7346250Y-10155000I0J-15000D01*
G01*
X8273750Y-7595000D02*
X8323750Y-7645000D01*
X8323750Y-7595000D02*
X8273750Y-7645000D01*
X8283750Y-7005000D02*
X8283750Y-8235000D01*
X8313750Y-7005000D02*
X8313750Y-8235000D01*
X8283750Y-8235000D02*
G75*
G03*
X8313750Y-8235000I15000J0D01*
G01*
X8313750Y-7005000D02*
G75*
G03*
X8283750Y-7005000I-15000J0D01*
G01*
X8309375Y-10790000D02*
X8359375Y-10840000D01*
X8359375Y-10790000D02*
X8309375Y-10840000D01*
X7584375Y-10830000D02*
X9084375Y-10830000D01*
X7584375Y-10800000D02*
X9084375Y-10800000D01*
X9084375Y-10830000D02*
G75*
G03*
X9084375Y-10800000I0J15000D01*
G01*
X7584375Y-10800000D02*
G75*
G03*
X7584375Y-10830000I0J-15000D01*
G01*
X8309375Y-12020000D02*
X8359375Y-12070000D01*
X8359375Y-12020000D02*
X8309375Y-12070000D01*
X7584375Y-12060000D02*
X9084375Y-12060000D01*
X7584375Y-12030000D02*
X9084375Y-12030000D01*
X9084375Y-12060000D02*
G75*
G03*
X9084375Y-12030000I0J15000D01*
G01*
X7584375Y-12030000D02*
G75*
G03*
X7584375Y-12060000I0J-15000D01*
G01*
X8345000Y-3785000D02*
X8395000Y-3835000D01*
X8395000Y-3785000D02*
X8345000Y-3835000D01*
X8355000Y-3195000D02*
X8355000Y-4425000D01*
X8385000Y-3195000D02*
X8385000Y-4425000D01*
X8355000Y-4425000D02*
G75*
G03*
X8385000Y-4425000I15000J0D01*
G01*
X8385000Y-3195000D02*
G75*
G03*
X8355000Y-3195000I-15000J0D01*
G01*
X8547500Y-5075000D02*
X8597500Y-5125000D01*
X8597500Y-5075000D02*
X8547500Y-5125000D01*
X7822500Y-5115000D02*
X9322500Y-5115000D01*
X7822500Y-5085000D02*
X9322500Y-5085000D01*
X9322500Y-5115000D02*
G75*
G03*
X9322500Y-5085000I0J15000D01*
G01*
X7822500Y-5085000D02*
G75*
G03*
X7822500Y-5115000I0J-15000D01*
G01*
X8547500Y-6305000D02*
X8597500Y-6355000D01*
X8597500Y-6305000D02*
X8547500Y-6355000D01*
X7822500Y-6345000D02*
X9322500Y-6345000D01*
X7822500Y-6315000D02*
X9322500Y-6315000D01*
X9322500Y-6345000D02*
G75*
G03*
X9322500Y-6315000I0J15000D01*
G01*
X7822500Y-6315000D02*
G75*
G03*
X7822500Y-6345000I0J-15000D01*
G01*
X8750000Y-3785000D02*
X8800000Y-3835000D01*
X8800000Y-3785000D02*
X8750000Y-3835000D01*
X8760000Y-3195000D02*
X8760000Y-4425000D01*
X8790000Y-3195000D02*
X8790000Y-4425000D01*
X8760000Y-4425000D02*
G75*
G03*
X8790000Y-4425000I15000J0D01*
G01*
X8790000Y-3195000D02*
G75*
G03*
X8760000Y-3195000I-15000J0D01*
G01*
X8785625Y-10790000D02*
X8835625Y-10840000D01*
X8835625Y-10790000D02*
X8785625Y-10840000D01*
X8060625Y-10830000D02*
X9560625Y-10830000D01*
X8060625Y-10800000D02*
X9560625Y-10800000D01*
X9560625Y-10830000D02*
G75*
G03*
X9560625Y-10800000I0J15000D01*
G01*
X8060625Y-10800000D02*
G75*
G03*
X8060625Y-10830000I0J-15000D01*
G01*
X8785625Y-12020000D02*
X8835625Y-12070000D01*
X8835625Y-12020000D02*
X8785625Y-12070000D01*
X8060625Y-12060000D02*
X9560625Y-12060000D01*
X8060625Y-12030000D02*
X9560625Y-12030000D01*
X9560625Y-12060000D02*
G75*
G03*
X9560625Y-12030000I0J15000D01*
G01*
X8060625Y-12030000D02*
G75*
G03*
X8060625Y-12060000I0J-15000D01*
G01*
X8821250Y-9500000D02*
X8871250Y-9550000D01*
X8871250Y-9500000D02*
X8821250Y-9550000D01*
X8831250Y-8910000D02*
X8831250Y-10140000D01*
X8861250Y-8910000D02*
X8861250Y-10140000D01*
X8831250Y-10140000D02*
G75*
G03*
X8861250Y-10140000I15000J0D01*
G01*
X8861250Y-8910000D02*
G75*
G03*
X8831250Y-8910000I-15000J0D01*
G01*
X9023750Y-6980000D02*
X9073750Y-7030000D01*
X9073750Y-6980000D02*
X9023750Y-7030000D01*
X8298750Y-7020000D02*
X9798750Y-7020000D01*
X8298750Y-6990000D02*
X9798750Y-6990000D01*
X9798750Y-7020000D02*
G75*
G03*
X9798750Y-6990000I0J15000D01*
G01*
X8298750Y-6990000D02*
G75*
G03*
X8298750Y-7020000I0J-15000D01*
G01*
X9023750Y-8210000D02*
X9073750Y-8260000D01*
X9073750Y-8210000D02*
X9023750Y-8260000D01*
X8298750Y-8250000D02*
X9798750Y-8250000D01*
X8298750Y-8220000D02*
X9798750Y-8220000D01*
X9798750Y-8250000D02*
G75*
G03*
X9798750Y-8220000I0J15000D01*
G01*
X8298750Y-8220000D02*
G75*
G03*
X8298750Y-8250000I0J-15000D01*
G01*
X9059375Y-11405000D02*
X9109375Y-11455000D01*
X9109375Y-11405000D02*
X9059375Y-11455000D01*
X9069375Y-10815000D02*
X9069375Y-12045000D01*
X9099375Y-10815000D02*
X9099375Y-12045000D01*
X9069375Y-12045000D02*
G75*
G03*
X9099375Y-12045000I15000J0D01*
G01*
X9099375Y-10815000D02*
G75*
G03*
X9069375Y-10815000I-15000J0D01*
G01*
X9226250Y-9500000D02*
X9276250Y-9550000D01*
X9276250Y-9500000D02*
X9226250Y-9550000D01*
X9236250Y-8910000D02*
X9236250Y-10140000D01*
X9266250Y-8910000D02*
X9266250Y-10140000D01*
X9236250Y-10140000D02*
G75*
G03*
X9266250Y-10140000I15000J0D01*
G01*
X9266250Y-8910000D02*
G75*
G03*
X9236250Y-8910000I-15000J0D01*
G01*
X9297500Y-5690000D02*
X9347500Y-5740000D01*
X9347500Y-5690000D02*
X9297500Y-5740000D01*
X9307500Y-5100000D02*
X9307500Y-6330000D01*
X9337500Y-5100000D02*
X9337500Y-6330000D01*
X9307500Y-6330000D02*
G75*
G03*
X9337500Y-6330000I15000J0D01*
G01*
X9337500Y-5100000D02*
G75*
G03*
X9307500Y-5100000I-15000J0D01*
G01*
X9500000Y-3170000D02*
X9550000Y-3220000D01*
X9550000Y-3170000D02*
X9500000Y-3220000D01*
X8775000Y-3210000D02*
X10275000Y-3210000D01*
X8775000Y-3180000D02*
X10275000Y-3180000D01*
X10275000Y-3210000D02*
G75*
G03*
X10275000Y-3180000I0J15000D01*
G01*
X8775000Y-3180000D02*
G75*
G03*
X8775000Y-3210000I0J-15000D01*
G01*
X9500000Y-4400000D02*
X9550000Y-4450000D01*
X9550000Y-4400000D02*
X9500000Y-4450000D01*
X8775000Y-4440000D02*
X10275000Y-4440000D01*
X8775000Y-4410000D02*
X10275000Y-4410000D01*
X10275000Y-4440000D02*
G75*
G03*
X10275000Y-4410000I0J15000D01*
G01*
X8775000Y-4410000D02*
G75*
G03*
X8775000Y-4440000I0J-15000D01*
G01*
X9535625Y-11405000D02*
X9585625Y-11455000D01*
X9585625Y-11405000D02*
X9535625Y-11455000D01*
X9545625Y-10815000D02*
X9545625Y-12045000D01*
X9575625Y-10815000D02*
X9575625Y-12045000D01*
X9545625Y-12045000D02*
G75*
G03*
X9575625Y-12045000I15000J0D01*
G01*
X9575625Y-10815000D02*
G75*
G03*
X9545625Y-10815000I-15000J0D01*
G01*
X9702500Y-5690000D02*
X9752500Y-5740000D01*
X9752500Y-5690000D02*
X9702500Y-5740000D01*
X9712500Y-5100000D02*
X9712500Y-6330000D01*
X9742500Y-5100000D02*
X9742500Y-6330000D01*
X9712500Y-6330000D02*
G75*
G03*
X9742500Y-6330000I15000J0D01*
G01*
X9742500Y-5100000D02*
G75*
G03*
X9712500Y-5100000I-15000J0D01*
G01*
X9773750Y-7595000D02*
X9823750Y-7645000D01*
X9823750Y-7595000D02*
X9773750Y-7645000D01*
X9783750Y-7005000D02*
X9783750Y-8235000D01*
X9813750Y-7005000D02*
X9813750Y-8235000D01*
X9783750Y-8235000D02*
G75*
G03*
X9813750Y-8235000I15000J0D01*
G01*
X9813750Y-7005000D02*
G75*
G03*
X9783750Y-7005000I-15000J0D01*
G01*
X9976250Y-8885000D02*
X10026250Y-8935000D01*
X10026250Y-8885000D02*
X9976250Y-8935000D01*
X9251250Y-8925000D02*
X10751250Y-8925000D01*
X9251250Y-8895000D02*
X10751250Y-8895000D01*
X10751250Y-8925000D02*
G75*
G03*
X10751250Y-8895000I0J15000D01*
G01*
X9251250Y-8895000D02*
G75*
G03*
X9251250Y-8925000I0J-15000D01*
G01*
X9976250Y-10115000D02*
X10026250Y-10165000D01*
X10026250Y-10115000D02*
X9976250Y-10165000D01*
X9251250Y-10155000D02*
X10751250Y-10155000D01*
X9251250Y-10125000D02*
X10751250Y-10125000D01*
X10751250Y-10155000D02*
G75*
G03*
X10751250Y-10125000I0J15000D01*
G01*
X9251250Y-10125000D02*
G75*
G03*
X9251250Y-10155000I0J-15000D01*
G01*
X10178750Y-7595000D02*
X10228750Y-7645000D01*
X10228750Y-7595000D02*
X10178750Y-7645000D01*
X10188750Y-7005000D02*
X10188750Y-8235000D01*
X10218750Y-7005000D02*
X10218750Y-8235000D01*
X10188750Y-8235000D02*
G75*
G03*
X10218750Y-8235000I15000J0D01*
G01*
X10218750Y-7005000D02*
G75*
G03*
X10188750Y-7005000I-15000J0D01*
G01*
X10250000Y-3785000D02*
X10300000Y-3835000D01*
X10300000Y-3785000D02*
X10250000Y-3835000D01*
X10260000Y-3195000D02*
X10260000Y-4425000D01*
X10290000Y-3195000D02*
X10290000Y-4425000D01*
X10260000Y-4425000D02*
G75*
G03*
X10290000Y-4425000I15000J0D01*
G01*
X10290000Y-3195000D02*
G75*
G03*
X10260000Y-3195000I-15000J0D01*
G01*
X10452500Y-5075000D02*
X10502500Y-5125000D01*
X10502500Y-5075000D02*
X10452500Y-5125000D01*
X9727500Y-5115000D02*
X11227500Y-5115000D01*
X9727500Y-5085000D02*
X11227500Y-5085000D01*
X11227500Y-5115000D02*
G75*
G03*
X11227500Y-5085000I0J15000D01*
G01*
X9727500Y-5085000D02*
G75*
G03*
X9727500Y-5115000I0J-15000D01*
G01*
X10452500Y-6305000D02*
X10502500Y-6355000D01*
X10502500Y-6305000D02*
X10452500Y-6355000D01*
X9727500Y-6345000D02*
X11227500Y-6345000D01*
X9727500Y-6315000D02*
X11227500Y-6315000D01*
X11227500Y-6345000D02*
G75*
G03*
X11227500Y-6315000I0J15000D01*
G01*
X9727500Y-6315000D02*
G75*
G03*
X9727500Y-6345000I0J-15000D01*
G01*
X10655000Y-3785000D02*
X10705000Y-3835000D01*
X10705000Y-3785000D02*
X10655000Y-3835000D01*
X10665000Y-3195000D02*
X10665000Y-4425000D01*
X10695000Y-3195000D02*
X10695000Y-4425000D01*
X10665000Y-4425000D02*
G75*
G03*
X10695000Y-4425000I15000J0D01*
G01*
X10695000Y-3195000D02*
G75*
G03*
X10665000Y-3195000I-15000J0D01*
G01*
X10726250Y-9500000D02*
X10776250Y-9550000D01*
X10776250Y-9500000D02*
X10726250Y-9550000D01*
X10736250Y-8910000D02*
X10736250Y-10140000D01*
X10766250Y-8910000D02*
X10766250Y-10140000D01*
X10736250Y-10140000D02*
G75*
G03*
X10766250Y-10140000I15000J0D01*
G01*
X10766250Y-8910000D02*
G75*
G03*
X10736250Y-8910000I-15000J0D01*
G01*
X10928750Y-6980000D02*
X10978750Y-7030000D01*
X10978750Y-6980000D02*
X10928750Y-7030000D01*
X10203750Y-7020000D02*
X11703750Y-7020000D01*
X10203750Y-6990000D02*
X11703750Y-6990000D01*
X11703750Y-7020000D02*
G75*
G03*
X11703750Y-6990000I0J15000D01*
G01*
X10203750Y-6990000D02*
G75*
G03*
X10203750Y-7020000I0J-15000D01*
G01*
X10928750Y-8210000D02*
X10978750Y-8260000D01*
X10978750Y-8210000D02*
X10928750Y-8260000D01*
X10203750Y-8250000D02*
X11703750Y-8250000D01*
X10203750Y-8220000D02*
X11703750Y-8220000D01*
X11703750Y-8250000D02*
G75*
G03*
X11703750Y-8220000I0J15000D01*
G01*
X10203750Y-8220000D02*
G75*
G03*
X10203750Y-8250000I0J-15000D01*
G01*
X11131250Y-9500000D02*
X11181250Y-9550000D01*
X11181250Y-9500000D02*
X11131250Y-9550000D01*
X11141250Y-8910000D02*
X11141250Y-10140000D01*
X11171250Y-8910000D02*
X11171250Y-10140000D01*
X11141250Y-10140000D02*
G75*
G03*
X11171250Y-10140000I15000J0D01*
G01*
X11171250Y-8910000D02*
G75*
G03*
X11141250Y-8910000I-15000J0D01*
G01*
X11202500Y-5690000D02*
X11252500Y-5740000D01*
X11252500Y-5690000D02*
X11202500Y-5740000D01*
X11212500Y-5100000D02*
X11212500Y-6330000D01*
X11242500Y-5100000D02*
X11242500Y-6330000D01*
X11212500Y-6330000D02*
G75*
G03*
X11242500Y-6330000I15000J0D01*
G01*
X11242500Y-5100000D02*
G75*
G03*
X11212500Y-5100000I-15000J0D01*
G01*
X11405000Y-3170000D02*
X11455000Y-3220000D01*
X11455000Y-3170000D02*
X11405000Y-3220000D01*
X10680000Y-3210000D02*
X12180000Y-3210000D01*
X10680000Y-3180000D02*
X12180000Y-3180000D01*
X12180000Y-3210000D02*
G75*
G03*
X12180000Y-3180000I0J15000D01*
G01*
X10680000Y-3180000D02*
G75*
G03*
X10680000Y-3210000I0J-15000D01*
G01*
X11405000Y-4400000D02*
X11455000Y-4450000D01*
X11455000Y-4400000D02*
X11405000Y-4450000D01*
X10680000Y-4440000D02*
X12180000Y-4440000D01*
X10680000Y-4410000D02*
X12180000Y-4410000D01*
X12180000Y-4440000D02*
G75*
G03*
X12180000Y-4410000I0J15000D01*
G01*
X10680000Y-4410000D02*
G75*
G03*
X10680000Y-4440000I0J-15000D01*
G01*
X11607500Y-5690000D02*
X11657500Y-5740000D01*
X11657500Y-5690000D02*
X11607500Y-5740000D01*
X11617500Y-5100000D02*
X11617500Y-6330000D01*
X11647500Y-5100000D02*
X11647500Y-6330000D01*
X11617500Y-6330000D02*
G75*
G03*
X11647500Y-6330000I15000J0D01*
G01*
X11647500Y-5100000D02*
G75*
G03*
X11617500Y-5100000I-15000J0D01*
G01*
X11678750Y-7595000D02*
X11728750Y-7645000D01*
X11728750Y-7595000D02*
X11678750Y-7645000D01*
X11688750Y-7005000D02*
X11688750Y-8235000D01*
X11718750Y-7005000D02*
X11718750Y-8235000D01*
X11688750Y-8235000D02*
G75*
G03*
X11718750Y-8235000I15000J0D01*
G01*
X11718750Y-7005000D02*
G75*
G03*
X11688750Y-7005000I-15000J0D01*
G01*
X11881250Y-8885000D02*
X11931250Y-8935000D01*
X11931250Y-8885000D02*
X11881250Y-8935000D01*
X11156250Y-8925000D02*
X12656250Y-8925000D01*
X11156250Y-8895000D02*
X12656250Y-8895000D01*
X12656250Y-8925000D02*
G75*
G03*
X12656250Y-8895000I0J15000D01*
G01*
X11156250Y-8895000D02*
G75*
G03*
X11156250Y-8925000I0J-15000D01*
G01*
X11881250Y-10115000D02*
X11931250Y-10165000D01*
X11931250Y-10115000D02*
X11881250Y-10165000D01*
X11156250Y-10155000D02*
X12656250Y-10155000D01*
X11156250Y-10125000D02*
X12656250Y-10125000D01*
X12656250Y-10155000D02*
G75*
G03*
X12656250Y-10125000I0J15000D01*
G01*
X11156250Y-10125000D02*
G75*
G03*
X11156250Y-10155000I0J-15000D01*
G01*
X12083750Y-7595000D02*
X12133750Y-7645000D01*
X12133750Y-7595000D02*
X12083750Y-7645000D01*
X12093750Y-7005000D02*
X12093750Y-8235000D01*
X12123750Y-7005000D02*
X12123750Y-8235000D01*
X12093750Y-8235000D02*
G75*
G03*
X12123750Y-8235000I15000J0D01*
G01*
X12123750Y-7005000D02*
G75*
G03*
X12093750Y-7005000I-15000J0D01*
G01*
X12155000Y-3785000D02*
X12205000Y-3835000D01*
X12205000Y-3785000D02*
X12155000Y-3835000D01*
X12165000Y-3195000D02*
X12165000Y-4425000D01*
X12195000Y-3195000D02*
X12195000Y-4425000D01*
X12165000Y-4425000D02*
G75*
G03*
X12195000Y-4425000I15000J0D01*
G01*
X12195000Y-3195000D02*
G75*
G03*
X12165000Y-3195000I-15000J0D01*
G01*
X12357500Y-5075000D02*
X12407500Y-5125000D01*
X12407500Y-5075000D02*
X12357500Y-5125000D01*
X11632500Y-5115000D02*
X13132500Y-5115000D01*
X11632500Y-5085000D02*
X13132500Y-5085000D01*
X13132500Y-5115000D02*
G75*
G03*
X13132500Y-5085000I0J15000D01*
G01*
X11632500Y-5085000D02*
G75*
G03*
X11632500Y-5115000I0J-15000D01*
G01*
X12357500Y-6305000D02*
X12407500Y-6355000D01*
X12407500Y-6305000D02*
X12357500Y-6355000D01*
X11632500Y-6345000D02*
X13132500Y-6345000D01*
X11632500Y-6315000D02*
X13132500Y-6315000D01*
X13132500Y-6345000D02*
G75*
G03*
X13132500Y-6315000I0J15000D01*
G01*
X11632500Y-6315000D02*
G75*
G03*
X11632500Y-6345000I0J-15000D01*
G01*
X12560000Y-3785000D02*
X12610000Y-3835000D01*
X12610000Y-3785000D02*
X12560000Y-3835000D01*
X12570000Y-3195000D02*
X12570000Y-4425000D01*
X12600000Y-3195000D02*
X12600000Y-4425000D01*
X12570000Y-4425000D02*
G75*
G03*
X12600000Y-4425000I15000J0D01*
G01*
X12600000Y-3195000D02*
G75*
G03*
X12570000Y-3195000I-15000J0D01*
G01*
X12631250Y-9500000D02*
X12681250Y-9550000D01*
X12681250Y-9500000D02*
X12631250Y-9550000D01*
X12641250Y-8910000D02*
X12641250Y-10140000D01*
X12671250Y-8910000D02*
X12671250Y-10140000D01*
X12641250Y-10140000D02*
G75*
G03*
X12671250Y-10140000I15000J0D01*
G01*
X12671250Y-8910000D02*
G75*
G03*
X12641250Y-8910000I-15000J0D01*
G01*
X12833750Y-6980000D02*
X12883750Y-7030000D01*
X12883750Y-6980000D02*
X12833750Y-7030000D01*
X12108750Y-7020000D02*
X13608750Y-7020000D01*
X12108750Y-6990000D02*
X13608750Y-6990000D01*
X13608750Y-7020000D02*
G75*
G03*
X13608750Y-6990000I0J15000D01*
G01*
X12108750Y-6990000D02*
G75*
G03*
X12108750Y-7020000I0J-15000D01*
G01*
X12833750Y-8210000D02*
X12883750Y-8260000D01*
X12883750Y-8210000D02*
X12833750Y-8260000D01*
X12108750Y-8250000D02*
X13608750Y-8250000D01*
X12108750Y-8220000D02*
X13608750Y-8220000D01*
X13608750Y-8250000D02*
G75*
G03*
X13608750Y-8220000I0J15000D01*
G01*
X12108750Y-8220000D02*
G75*
G03*
X12108750Y-8250000I0J-15000D01*
G01*
X13036250Y-9500000D02*
X13086250Y-9550000D01*
X13086250Y-9500000D02*
X13036250Y-9550000D01*
X13046250Y-8910000D02*
X13046250Y-10140000D01*
X13076250Y-8910000D02*
X13076250Y-10140000D01*
X13046250Y-10140000D02*
G75*
G03*
X13076250Y-10140000I15000J0D01*
G01*
X13076250Y-8910000D02*
G75*
G03*
X13046250Y-8910000I-15000J0D01*
G01*
X13107500Y-5690000D02*
X13157500Y-5740000D01*
X13157500Y-5690000D02*
X13107500Y-5740000D01*
X13117500Y-5100000D02*
X13117500Y-6330000D01*
X13147500Y-5100000D02*
X13147500Y-6330000D01*
X13117500Y-6330000D02*
G75*
G03*
X13147500Y-6330000I15000J0D01*
G01*
X13147500Y-5100000D02*
G75*
G03*
X13117500Y-5100000I-15000J0D01*
G01*
X13310000Y-3170000D02*
X13360000Y-3220000D01*
X13360000Y-3170000D02*
X13310000Y-3220000D01*
X12585000Y-3210000D02*
X14085000Y-3210000D01*
X12585000Y-3180000D02*
X14085000Y-3180000D01*
X14085000Y-3210000D02*
G75*
G03*
X14085000Y-3180000I0J15000D01*
G01*
X12585000Y-3180000D02*
G75*
G03*
X12585000Y-3210000I0J-15000D01*
G01*
X13310000Y-4400000D02*
X13360000Y-4450000D01*
X13360000Y-4400000D02*
X13310000Y-4450000D01*
X12585000Y-4440000D02*
X14085000Y-4440000D01*
X12585000Y-4410000D02*
X14085000Y-4410000D01*
X14085000Y-4440000D02*
G75*
G03*
X14085000Y-4410000I0J15000D01*
G01*
X12585000Y-4410000D02*
G75*
G03*
X12585000Y-4440000I0J-15000D01*
G01*
X13512500Y-5690000D02*
X13562500Y-5740000D01*
X13562500Y-5690000D02*
X13512500Y-5740000D01*
X13522500Y-5100000D02*
X13522500Y-6330000D01*
X13552500Y-5100000D02*
X13552500Y-6330000D01*
X13522500Y-6330000D02*
G75*
G03*
X13552500Y-6330000I15000J0D01*
G01*
X13552500Y-5100000D02*
G75*
G03*
X13522500Y-5100000I-15000J0D01*
G01*
X13583750Y-7595000D02*
X13633750Y-7645000D01*
X13633750Y-7595000D02*
X13583750Y-7645000D01*
X13593750Y-7005000D02*
X13593750Y-8235000D01*
X13623750Y-7005000D02*
X13623750Y-8235000D01*
X13593750Y-8235000D02*
G75*
G03*
X13623750Y-8235000I15000J0D01*
G01*
X13623750Y-7005000D02*
G75*
G03*
X13593750Y-7005000I-15000J0D01*
G01*
X13786250Y-8885000D02*
X13836250Y-8935000D01*
X13836250Y-8885000D02*
X13786250Y-8935000D01*
X13061250Y-8925000D02*
X14561250Y-8925000D01*
X13061250Y-8895000D02*
X14561250Y-8895000D01*
X14561250Y-8925000D02*
G75*
G03*
X14561250Y-8895000I0J15000D01*
G01*
X13061250Y-8895000D02*
G75*
G03*
X13061250Y-8925000I0J-15000D01*
G01*
X13786250Y-10115000D02*
X13836250Y-10165000D01*
X13836250Y-10115000D02*
X13786250Y-10165000D01*
X13061250Y-10155000D02*
X14561250Y-10155000D01*
X13061250Y-10125000D02*
X14561250Y-10125000D01*
X14561250Y-10155000D02*
G75*
G03*
X14561250Y-10125000I0J15000D01*
G01*
X13061250Y-10125000D02*
G75*
G03*
X13061250Y-10155000I0J-15000D01*
G01*
X13988750Y-7595000D02*
X14038750Y-7645000D01*
X14038750Y-7595000D02*
X13988750Y-7645000D01*
X13998750Y-7005000D02*
X13998750Y-8235000D01*
X14028750Y-7005000D02*
X14028750Y-8235000D01*
X13998750Y-8235000D02*
G75*
G03*
X14028750Y-8235000I15000J0D01*
G01*
X14028750Y-7005000D02*
G75*
G03*
X13998750Y-7005000I-15000J0D01*
G01*
X14060000Y-3785000D02*
X14110000Y-3835000D01*
X14110000Y-3785000D02*
X14060000Y-3835000D01*
X14070000Y-3195000D02*
X14070000Y-4425000D01*
X14100000Y-3195000D02*
X14100000Y-4425000D01*
X14070000Y-4425000D02*
G75*
G03*
X14100000Y-4425000I15000J0D01*
G01*
X14100000Y-3195000D02*
G75*
G03*
X14070000Y-3195000I-15000J0D01*
G01*
X14262500Y-5075000D02*
X14312500Y-5125000D01*
X14312500Y-5075000D02*
X14262500Y-5125000D01*
X13537500Y-5115000D02*
X15037500Y-5115000D01*
X13537500Y-5085000D02*
X15037500Y-5085000D01*
X15037500Y-5115000D02*
G75*
G03*
X15037500Y-5085000I0J15000D01*
G01*
X13537500Y-5085000D02*
G75*
G03*
X13537500Y-5115000I0J-15000D01*
G01*
X14262500Y-6305000D02*
X14312500Y-6355000D01*
X14312500Y-6305000D02*
X14262500Y-6355000D01*
X13537500Y-6345000D02*
X15037500Y-6345000D01*
X13537500Y-6315000D02*
X15037500Y-6315000D01*
X15037500Y-6345000D02*
G75*
G03*
X15037500Y-6315000I0J15000D01*
G01*
X13537500Y-6315000D02*
G75*
G03*
X13537500Y-6345000I0J-15000D01*
G01*
X14465000Y-3785000D02*
X14515000Y-3835000D01*
X14515000Y-3785000D02*
X14465000Y-3835000D01*
X14475000Y-3195000D02*
X14475000Y-4425000D01*
X14505000Y-3195000D02*
X14505000Y-4425000D01*
X14475000Y-4425000D02*
G75*
G03*
X14505000Y-4425000I15000J0D01*
G01*
X14505000Y-3195000D02*
G75*
G03*
X14475000Y-3195000I-15000J0D01*
G01*
X14536250Y-9500000D02*
X14586250Y-9550000D01*
X14586250Y-9500000D02*
X14536250Y-9550000D01*
X14546250Y-8910000D02*
X14546250Y-10140000D01*
X14576250Y-8910000D02*
X14576250Y-10140000D01*
X14546250Y-10140000D02*
G75*
G03*
X14576250Y-10140000I15000J0D01*
G01*
X14576250Y-8910000D02*
G75*
G03*
X14546250Y-8910000I-15000J0D01*
G01*
X14703125Y-11405000D02*
X14753125Y-11455000D01*
X14753125Y-11405000D02*
X14703125Y-11455000D01*
X14713125Y-10815000D02*
X14713125Y-12045000D01*
X14743125Y-10815000D02*
X14743125Y-12045000D01*
X14713125Y-12045000D02*
G75*
G03*
X14743125Y-12045000I15000J0D01*
G01*
X14743125Y-10815000D02*
G75*
G03*
X14713125Y-10815000I-15000J0D01*
G01*
X14738750Y-6980000D02*
X14788750Y-7030000D01*
X14788750Y-6980000D02*
X14738750Y-7030000D01*
X14013750Y-7020000D02*
X15513750Y-7020000D01*
X14013750Y-6990000D02*
X15513750Y-6990000D01*
X15513750Y-7020000D02*
G75*
G03*
X15513750Y-6990000I0J15000D01*
G01*
X14013750Y-6990000D02*
G75*
G03*
X14013750Y-7020000I0J-15000D01*
G01*
X14738750Y-8210000D02*
X14788750Y-8260000D01*
X14788750Y-8210000D02*
X14738750Y-8260000D01*
X14013750Y-8250000D02*
X15513750Y-8250000D01*
X14013750Y-8220000D02*
X15513750Y-8220000D01*
X15513750Y-8250000D02*
G75*
G03*
X15513750Y-8220000I0J15000D01*
G01*
X14013750Y-8220000D02*
G75*
G03*
X14013750Y-8250000I0J-15000D01*
G01*
X14941250Y-9500000D02*
X14991250Y-9550000D01*
X14991250Y-9500000D02*
X14941250Y-9550000D01*
X14951250Y-8910000D02*
X14951250Y-10140000D01*
X14981250Y-8910000D02*
X14981250Y-10140000D01*
X14951250Y-10140000D02*
G75*
G03*
X14981250Y-10140000I15000J0D01*
G01*
X14981250Y-8910000D02*
G75*
G03*
X14951250Y-8910000I-15000J0D01*
G01*
X15012500Y-5690000D02*
X15062500Y-5740000D01*
X15062500Y-5690000D02*
X15012500Y-5740000D01*
X15022500Y-5100000D02*
X15022500Y-6330000D01*
X15052500Y-5100000D02*
X15052500Y-6330000D01*
X15022500Y-6330000D02*
G75*
G03*
X15052500Y-6330000I15000J0D01*
G01*
X15052500Y-5100000D02*
G75*
G03*
X15022500Y-5100000I-15000J0D01*
G01*
X15215000Y-3170000D02*
X15265000Y-3220000D01*
X15265000Y-3170000D02*
X15215000Y-3220000D01*
X14490000Y-3210000D02*
X15990000Y-3210000D01*
X14490000Y-3180000D02*
X15990000Y-3180000D01*
X15990000Y-3210000D02*
G75*
G03*
X15990000Y-3180000I0J15000D01*
G01*
X14490000Y-3180000D02*
G75*
G03*
X14490000Y-3210000I0J-15000D01*
G01*
X15215000Y-4400000D02*
X15265000Y-4450000D01*
X15265000Y-4400000D02*
X15215000Y-4450000D01*
X14490000Y-4440000D02*
X15990000Y-4440000D01*
X14490000Y-4410000D02*
X15990000Y-4410000D01*
X15990000Y-4440000D02*
G75*
G03*
X15990000Y-4410000I0J15000D01*
G01*
X14490000Y-4410000D02*
G75*
G03*
X14490000Y-4440000I0J-15000D01*
G01*
X15417500Y-5690000D02*
X15467500Y-5740000D01*
X15467500Y-5690000D02*
X15417500Y-5740000D01*
X15427500Y-5100000D02*
X15427500Y-6330000D01*
X15457500Y-5100000D02*
X15457500Y-6330000D01*
X15427500Y-6330000D02*
G75*
G03*
X15457500Y-6330000I15000J0D01*
G01*
X15457500Y-5100000D02*
G75*
G03*
X15427500Y-5100000I-15000J0D01*
G01*
X15453125Y-10790000D02*
X15503125Y-10840000D01*
X15503125Y-10790000D02*
X15453125Y-10840000D01*
X14728125Y-10830000D02*
X16228125Y-10830000D01*
X14728125Y-10800000D02*
X16228125Y-10800000D01*
X16228125Y-10830000D02*
G75*
G03*
X16228125Y-10800000I0J15000D01*
G01*
X14728125Y-10800000D02*
G75*
G03*
X14728125Y-10830000I0J-15000D01*
G01*
X15453125Y-12020000D02*
X15503125Y-12070000D01*
X15503125Y-12020000D02*
X15453125Y-12070000D01*
X14728125Y-12060000D02*
X16228125Y-12060000D01*
X14728125Y-12030000D02*
X16228125Y-12030000D01*
X16228125Y-12060000D02*
G75*
G03*
X16228125Y-12030000I0J15000D01*
G01*
X14728125Y-12030000D02*
G75*
G03*
X14728125Y-12060000I0J-15000D01*
G01*
X15488750Y-7595000D02*
X15538750Y-7645000D01*
X15538750Y-7595000D02*
X15488750Y-7645000D01*
X15498750Y-7005000D02*
X15498750Y-8235000D01*
X15528750Y-7005000D02*
X15528750Y-8235000D01*
X15498750Y-8235000D02*
G75*
G03*
X15528750Y-8235000I15000J0D01*
G01*
X15528750Y-7005000D02*
G75*
G03*
X15498750Y-7005000I-15000J0D01*
G01*
X15691250Y-8885000D02*
X15741250Y-8935000D01*
X15741250Y-8885000D02*
X15691250Y-8935000D01*
X14966250Y-8925000D02*
X16466250Y-8925000D01*
X14966250Y-8895000D02*
X16466250Y-8895000D01*
X16466250Y-8925000D02*
G75*
G03*
X16466250Y-8895000I0J15000D01*
G01*
X14966250Y-8895000D02*
G75*
G03*
X14966250Y-8925000I0J-15000D01*
G01*
X15691250Y-10115000D02*
X15741250Y-10165000D01*
X15741250Y-10115000D02*
X15691250Y-10165000D01*
X14966250Y-10155000D02*
X16466250Y-10155000D01*
X14966250Y-10125000D02*
X16466250Y-10125000D01*
X16466250Y-10155000D02*
G75*
G03*
X16466250Y-10125000I0J15000D01*
G01*
X14966250Y-10125000D02*
G75*
G03*
X14966250Y-10155000I0J-15000D01*
G01*
X15893750Y-7595000D02*
X15943750Y-7645000D01*
X15943750Y-7595000D02*
X15893750Y-7645000D01*
X15903750Y-7005000D02*
X15903750Y-8235000D01*
X15933750Y-7005000D02*
X15933750Y-8235000D01*
X15903750Y-8235000D02*
G75*
G03*
X15933750Y-8235000I15000J0D01*
G01*
X15933750Y-7005000D02*
G75*
G03*
X15903750Y-7005000I-15000J0D01*
G01*
X15893750Y-11405000D02*
X15943750Y-11455000D01*
X15943750Y-11405000D02*
X15893750Y-11455000D01*
X15903750Y-10815000D02*
X15903750Y-12045000D01*
X15933750Y-10815000D02*
X15933750Y-12045000D01*
X15903750Y-12045000D02*
G75*
G03*
X15933750Y-12045000I15000J0D01*
G01*
X15933750Y-10815000D02*
G75*
G03*
X15903750Y-10815000I-15000J0D01*
G01*
X15965000Y-3785000D02*
X16015000Y-3835000D01*
X16015000Y-3785000D02*
X15965000Y-3835000D01*
X15975000Y-3195000D02*
X15975000Y-4425000D01*
X16005000Y-3195000D02*
X16005000Y-4425000D01*
X15975000Y-4425000D02*
G75*
G03*
X16005000Y-4425000I15000J0D01*
G01*
X16005000Y-3195000D02*
G75*
G03*
X15975000Y-3195000I-15000J0D01*
G01*
X16167500Y-5075000D02*
X16217500Y-5125000D01*
X16217500Y-5075000D02*
X16167500Y-5125000D01*
X15442500Y-5115000D02*
X16942500Y-5115000D01*
X15442500Y-5085000D02*
X16942500Y-5085000D01*
X16942500Y-5115000D02*
G75*
G03*
X16942500Y-5085000I0J15000D01*
G01*
X15442500Y-5085000D02*
G75*
G03*
X15442500Y-5115000I0J-15000D01*
G01*
X16167500Y-6305000D02*
X16217500Y-6355000D01*
X16217500Y-6305000D02*
X16167500Y-6355000D01*
X15442500Y-6345000D02*
X16942500Y-6345000D01*
X15442500Y-6315000D02*
X16942500Y-6315000D01*
X16942500Y-6345000D02*
G75*
G03*
X16942500Y-6315000I0J15000D01*
G01*
X15442500Y-6315000D02*
G75*
G03*
X15442500Y-6345000I0J-15000D01*
G01*
X16203125Y-11405000D02*
X16253125Y-11455000D01*
X16253125Y-11405000D02*
X16203125Y-11455000D01*
X16213125Y-10815000D02*
X16213125Y-12045000D01*
X16243125Y-10815000D02*
X16243125Y-12045000D01*
X16213125Y-12045000D02*
G75*
G03*
X16243125Y-12045000I15000J0D01*
G01*
X16243125Y-10815000D02*
G75*
G03*
X16213125Y-10815000I-15000J0D01*
G01*
X16370000Y-3785000D02*
X16420000Y-3835000D01*
X16420000Y-3785000D02*
X16370000Y-3835000D01*
X16380000Y-3195000D02*
X16380000Y-4425000D01*
X16410000Y-3195000D02*
X16410000Y-4425000D01*
X16380000Y-4425000D02*
G75*
G03*
X16410000Y-4425000I15000J0D01*
G01*
X16410000Y-3195000D02*
G75*
G03*
X16380000Y-3195000I-15000J0D01*
G01*
X16441250Y-9500000D02*
X16491250Y-9550000D01*
X16491250Y-9500000D02*
X16441250Y-9550000D01*
X16451250Y-8910000D02*
X16451250Y-10140000D01*
X16481250Y-8910000D02*
X16481250Y-10140000D01*
X16451250Y-10140000D02*
G75*
G03*
X16481250Y-10140000I15000J0D01*
G01*
X16481250Y-8910000D02*
G75*
G03*
X16451250Y-8910000I-15000J0D01*
G01*
X16643750Y-6980000D02*
X16693750Y-7030000D01*
X16693750Y-6980000D02*
X16643750Y-7030000D01*
X15918750Y-7020000D02*
X17418750Y-7020000D01*
X15918750Y-6990000D02*
X17418750Y-6990000D01*
X17418750Y-7020000D02*
G75*
G03*
X17418750Y-6990000I0J15000D01*
G01*
X15918750Y-6990000D02*
G75*
G03*
X15918750Y-7020000I0J-15000D01*
G01*
X16643750Y-8210000D02*
X16693750Y-8260000D01*
X16693750Y-8210000D02*
X16643750Y-8260000D01*
X15918750Y-8250000D02*
X17418750Y-8250000D01*
X15918750Y-8220000D02*
X17418750Y-8220000D01*
X17418750Y-8250000D02*
G75*
G03*
X17418750Y-8220000I0J15000D01*
G01*
X15918750Y-8220000D02*
G75*
G03*
X15918750Y-8250000I0J-15000D01*
G01*
X16643750Y-10790000D02*
X16693750Y-10840000D01*
X16693750Y-10790000D02*
X16643750Y-10840000D01*
X15918750Y-10830000D02*
X17418750Y-10830000D01*
X15918750Y-10800000D02*
X17418750Y-10800000D01*
X17418750Y-10830000D02*
G75*
G03*
X17418750Y-10800000I0J15000D01*
G01*
X15918750Y-10800000D02*
G75*
G03*
X15918750Y-10830000I0J-15000D01*
G01*
X16643750Y-12020000D02*
X16693750Y-12070000D01*
X16693750Y-12020000D02*
X16643750Y-12070000D01*
X15918750Y-12060000D02*
X17418750Y-12060000D01*
X15918750Y-12030000D02*
X17418750Y-12030000D01*
X17418750Y-12060000D02*
G75*
G03*
X17418750Y-12030000I0J15000D01*
G01*
X15918750Y-12030000D02*
G75*
G03*
X15918750Y-12060000I0J-15000D01*
G01*
X16846250Y-9500000D02*
X16896250Y-9550000D01*
X16896250Y-9500000D02*
X16846250Y-9550000D01*
X16856250Y-8910000D02*
X16856250Y-10140000D01*
X16886250Y-8910000D02*
X16886250Y-10140000D01*
X16856250Y-10140000D02*
G75*
G03*
X16886250Y-10140000I15000J0D01*
G01*
X16886250Y-8910000D02*
G75*
G03*
X16856250Y-8910000I-15000J0D01*
G01*
X16917500Y-5690000D02*
X16967500Y-5740000D01*
X16967500Y-5690000D02*
X16917500Y-5740000D01*
X16927500Y-5100000D02*
X16927500Y-6330000D01*
X16957500Y-5100000D02*
X16957500Y-6330000D01*
X16927500Y-6330000D02*
G75*
G03*
X16957500Y-6330000I15000J0D01*
G01*
X16957500Y-5100000D02*
G75*
G03*
X16927500Y-5100000I-15000J0D01*
G01*
X17120000Y-3170000D02*
X17170000Y-3220000D01*
X17170000Y-3170000D02*
X17120000Y-3220000D01*
X16395000Y-3210000D02*
X17895000Y-3210000D01*
X16395000Y-3180000D02*
X17895000Y-3180000D01*
X17895000Y-3210000D02*
G75*
G03*
X17895000Y-3180000I0J15000D01*
G01*
X16395000Y-3180000D02*
G75*
G03*
X16395000Y-3210000I0J-15000D01*
G01*
X17120000Y-4400000D02*
X17170000Y-4450000D01*
X17170000Y-4400000D02*
X17120000Y-4450000D01*
X16395000Y-4440000D02*
X17895000Y-4440000D01*
X16395000Y-4410000D02*
X17895000Y-4410000D01*
X17895000Y-4440000D02*
G75*
G03*
X17895000Y-4410000I0J15000D01*
G01*
X16395000Y-4410000D02*
G75*
G03*
X16395000Y-4440000I0J-15000D01*
G01*
X17322500Y-5690000D02*
X17372500Y-5740000D01*
X17372500Y-5690000D02*
X17322500Y-5740000D01*
X17332500Y-5100000D02*
X17332500Y-6330000D01*
X17362500Y-5100000D02*
X17362500Y-6330000D01*
X17332500Y-6330000D02*
G75*
G03*
X17362500Y-6330000I15000J0D01*
G01*
X17362500Y-5100000D02*
G75*
G03*
X17332500Y-5100000I-15000J0D01*
G01*
X17393750Y-7595000D02*
X17443750Y-7645000D01*
X17443750Y-7595000D02*
X17393750Y-7645000D01*
X17403750Y-7005000D02*
X17403750Y-8235000D01*
X17433750Y-7005000D02*
X17433750Y-8235000D01*
X17403750Y-8235000D02*
G75*
G03*
X17433750Y-8235000I15000J0D01*
G01*
X17433750Y-7005000D02*
G75*
G03*
X17403750Y-7005000I-15000J0D01*
G01*
X17393750Y-11405000D02*
X17443750Y-11455000D01*
X17443750Y-11405000D02*
X17393750Y-11455000D01*
X17403750Y-10815000D02*
X17403750Y-12045000D01*
X17433750Y-10815000D02*
X17433750Y-12045000D01*
X17403750Y-12045000D02*
G75*
G03*
X17433750Y-12045000I15000J0D01*
G01*
X17433750Y-10815000D02*
G75*
G03*
X17403750Y-10815000I-15000J0D01*
G01*
X17596250Y-8885000D02*
X17646250Y-8935000D01*
X17646250Y-8885000D02*
X17596250Y-8935000D01*
X16871250Y-8925000D02*
X18371250Y-8925000D01*
X16871250Y-8895000D02*
X18371250Y-8895000D01*
X18371250Y-8925000D02*
G75*
G03*
X18371250Y-8895000I0J15000D01*
G01*
X16871250Y-8895000D02*
G75*
G03*
X16871250Y-8925000I0J-15000D01*
G01*
X17596250Y-10115000D02*
X17646250Y-10165000D01*
X17646250Y-10115000D02*
X17596250Y-10165000D01*
X16871250Y-10155000D02*
X18371250Y-10155000D01*
X16871250Y-10125000D02*
X18371250Y-10125000D01*
X18371250Y-10155000D02*
G75*
G03*
X18371250Y-10125000I0J15000D01*
G01*
X16871250Y-10125000D02*
G75*
G03*
X16871250Y-10155000I0J-15000D01*
G01*
X17798750Y-7595000D02*
X17848750Y-7645000D01*
X17848750Y-7595000D02*
X17798750Y-7645000D01*
X17808750Y-7005000D02*
X17808750Y-8235000D01*
X17838750Y-7005000D02*
X17838750Y-8235000D01*
X17808750Y-8235000D02*
G75*
G03*
X17838750Y-8235000I15000J0D01*
G01*
X17838750Y-7005000D02*
G75*
G03*
X17808750Y-7005000I-15000J0D01*
G01*
X17870000Y-3785000D02*
X17920000Y-3835000D01*
X17920000Y-3785000D02*
X17870000Y-3835000D01*
X17880000Y-3195000D02*
X17880000Y-4425000D01*
X17910000Y-3195000D02*
X17910000Y-4425000D01*
X17880000Y-4425000D02*
G75*
G03*
X17910000Y-4425000I15000J0D01*
G01*
X17910000Y-3195000D02*
G75*
G03*
X17880000Y-3195000I-15000J0D01*
G01*
X18072500Y-5075000D02*
X18122500Y-5125000D01*
X18122500Y-5075000D02*
X18072500Y-5125000D01*
X17347500Y-5115000D02*
X18847500Y-5115000D01*
X17347500Y-5085000D02*
X18847500Y-5085000D01*
X18847500Y-5115000D02*
G75*
G03*
X18847500Y-5085000I0J15000D01*
G01*
X17347500Y-5085000D02*
G75*
G03*
X17347500Y-5115000I0J-15000D01*
G01*
X18072500Y-6305000D02*
X18122500Y-6355000D01*
X18122500Y-6305000D02*
X18072500Y-6355000D01*
X17347500Y-6345000D02*
X18847500Y-6345000D01*
X17347500Y-6315000D02*
X18847500Y-6315000D01*
X18847500Y-6345000D02*
G75*
G03*
X18847500Y-6315000I0J15000D01*
G01*
X17347500Y-6315000D02*
G75*
G03*
X17347500Y-6345000I0J-15000D01*
G01*
X18275000Y-3785000D02*
X18325000Y-3835000D01*
X18325000Y-3785000D02*
X18275000Y-3835000D01*
X18285000Y-3195000D02*
X18285000Y-4425000D01*
X18315000Y-3195000D02*
X18315000Y-4425000D01*
X18285000Y-4425000D02*
G75*
G03*
X18315000Y-4425000I15000J0D01*
G01*
X18315000Y-3195000D02*
G75*
G03*
X18285000Y-3195000I-15000J0D01*
G01*
X18346250Y-9500000D02*
X18396250Y-9550000D01*
X18396250Y-9500000D02*
X18346250Y-9550000D01*
X18356250Y-8910000D02*
X18356250Y-10140000D01*
X18386250Y-8910000D02*
X18386250Y-10140000D01*
X18356250Y-10140000D02*
G75*
G03*
X18386250Y-10140000I15000J0D01*
G01*
X18386250Y-8910000D02*
G75*
G03*
X18356250Y-8910000I-15000J0D01*
G01*
X18548750Y-6980000D02*
X18598750Y-7030000D01*
X18598750Y-6980000D02*
X18548750Y-7030000D01*
X17823750Y-7020000D02*
X19323750Y-7020000D01*
X17823750Y-6990000D02*
X19323750Y-6990000D01*
X19323750Y-7020000D02*
G75*
G03*
X19323750Y-6990000I0J15000D01*
G01*
X17823750Y-6990000D02*
G75*
G03*
X17823750Y-7020000I0J-15000D01*
G01*
X18548750Y-8210000D02*
X18598750Y-8260000D01*
X18598750Y-8210000D02*
X18548750Y-8260000D01*
X17823750Y-8250000D02*
X19323750Y-8250000D01*
X17823750Y-8220000D02*
X19323750Y-8220000D01*
X19323750Y-8250000D02*
G75*
G03*
X19323750Y-8220000I0J15000D01*
G01*
X17823750Y-8220000D02*
G75*
G03*
X17823750Y-8250000I0J-15000D01*
G01*
X18751250Y-9500000D02*
X18801250Y-9550000D01*
X18801250Y-9500000D02*
X18751250Y-9550000D01*
X18761250Y-8910000D02*
X18761250Y-10140000D01*
X18791250Y-8910000D02*
X18791250Y-10140000D01*
X18761250Y-10140000D02*
G75*
G03*
X18791250Y-10140000I15000J0D01*
G01*
X18791250Y-8910000D02*
G75*
G03*
X18761250Y-8910000I-15000J0D01*
G01*
X18822500Y-5690000D02*
X18872500Y-5740000D01*
X18872500Y-5690000D02*
X18822500Y-5740000D01*
X18832500Y-5100000D02*
X18832500Y-6330000D01*
X18862500Y-5100000D02*
X18862500Y-6330000D01*
X18832500Y-6330000D02*
G75*
G03*
X18862500Y-6330000I15000J0D01*
G01*
X18862500Y-5100000D02*
G75*
G03*
X18832500Y-5100000I-15000J0D01*
G01*
X19025000Y-3170000D02*
X19075000Y-3220000D01*
X19075000Y-3170000D02*
X19025000Y-3220000D01*
X18300000Y-3210000D02*
X19800000Y-3210000D01*
X18300000Y-3180000D02*
X19800000Y-3180000D01*
X19800000Y-3210000D02*
G75*
G03*
X19800000Y-3180000I0J15000D01*
G01*
X18300000Y-3180000D02*
G75*
G03*
X18300000Y-3210000I0J-15000D01*
G01*
X19025000Y-4400000D02*
X19075000Y-4450000D01*
X19075000Y-4400000D02*
X19025000Y-4450000D01*
X18300000Y-4440000D02*
X19800000Y-4440000D01*
X18300000Y-4410000D02*
X19800000Y-4410000D01*
X19800000Y-4440000D02*
G75*
G03*
X19800000Y-4410000I0J15000D01*
G01*
X18300000Y-4410000D02*
G75*
G03*
X18300000Y-4440000I0J-15000D01*
G01*
X19227500Y-5690000D02*
X19277500Y-5740000D01*
X19277500Y-5690000D02*
X19227500Y-5740000D01*
X19237500Y-5100000D02*
X19237500Y-6330000D01*
X19267500Y-5100000D02*
X19267500Y-6330000D01*
X19237500Y-6330000D02*
G75*
G03*
X19267500Y-6330000I15000J0D01*
G01*
X19267500Y-5100000D02*
G75*
G03*
X19237500Y-5100000I-15000J0D01*
G01*
X19298750Y-7595000D02*
X19348750Y-7645000D01*
X19348750Y-7595000D02*
X19298750Y-7645000D01*
X19308750Y-7005000D02*
X19308750Y-8235000D01*
X19338750Y-7005000D02*
X19338750Y-8235000D01*
X19308750Y-8235000D02*
G75*
G03*
X19338750Y-8235000I15000J0D01*
G01*
X19338750Y-7005000D02*
G75*
G03*
X19308750Y-7005000I-15000J0D01*
G01*
X19501250Y-8885000D02*
X19551250Y-8935000D01*
X19551250Y-8885000D02*
X19501250Y-8935000D01*
X18776250Y-8925000D02*
X20276250Y-8925000D01*
X18776250Y-8895000D02*
X20276250Y-8895000D01*
X20276250Y-8925000D02*
G75*
G03*
X20276250Y-8895000I0J15000D01*
G01*
X18776250Y-8895000D02*
G75*
G03*
X18776250Y-8925000I0J-15000D01*
G01*
X19501250Y-10115000D02*
X19551250Y-10165000D01*
X19551250Y-10115000D02*
X19501250Y-10165000D01*
X18776250Y-10155000D02*
X20276250Y-10155000D01*
X18776250Y-10125000D02*
X20276250Y-10125000D01*
X20276250Y-10155000D02*
G75*
G03*
X20276250Y-10125000I0J15000D01*
G01*
X18776250Y-10125000D02*
G75*
G03*
X18776250Y-10155000I0J-15000D01*
G01*
X19703750Y-7595000D02*
X19753750Y-7645000D01*
X19753750Y-7595000D02*
X19703750Y-7645000D01*
X19713750Y-7005000D02*
X19713750Y-8235000D01*
X19743750Y-7005000D02*
X19743750Y-8235000D01*
X19713750Y-8235000D02*
G75*
G03*
X19743750Y-8235000I15000J0D01*
G01*
X19743750Y-7005000D02*
G75*
G03*
X19713750Y-7005000I-15000J0D01*
G01*
X19775000Y-3785000D02*
X19825000Y-3835000D01*
X19825000Y-3785000D02*
X19775000Y-3835000D01*
X19785000Y-3195000D02*
X19785000Y-4425000D01*
X19815000Y-3195000D02*
X19815000Y-4425000D01*
X19785000Y-4425000D02*
G75*
G03*
X19815000Y-4425000I15000J0D01*
G01*
X19815000Y-3195000D02*
G75*
G03*
X19785000Y-3195000I-15000J0D01*
G01*
X19977500Y-5075000D02*
X20027500Y-5125000D01*
X20027500Y-5075000D02*
X19977500Y-5125000D01*
X19252500Y-5115000D02*
X20752500Y-5115000D01*
X19252500Y-5085000D02*
X20752500Y-5085000D01*
X20752500Y-5115000D02*
G75*
G03*
X20752500Y-5085000I0J15000D01*
G01*
X19252500Y-5085000D02*
G75*
G03*
X19252500Y-5115000I0J-15000D01*
G01*
X19977500Y-6305000D02*
X20027500Y-6355000D01*
X20027500Y-6305000D02*
X19977500Y-6355000D01*
X19252500Y-6345000D02*
X20752500Y-6345000D01*
X19252500Y-6315000D02*
X20752500Y-6315000D01*
X20752500Y-6345000D02*
G75*
G03*
X20752500Y-6315000I0J15000D01*
G01*
X19252500Y-6315000D02*
G75*
G03*
X19252500Y-6345000I0J-15000D01*
G01*
X20180000Y-3785000D02*
X20230000Y-3835000D01*
X20230000Y-3785000D02*
X20180000Y-3835000D01*
X20190000Y-3195000D02*
X20190000Y-4425000D01*
X20220000Y-3195000D02*
X20220000Y-4425000D01*
X20190000Y-4425000D02*
G75*
G03*
X20220000Y-4425000I15000J0D01*
G01*
X20220000Y-3195000D02*
G75*
G03*
X20190000Y-3195000I-15000J0D01*
G01*
X20251250Y-9500000D02*
X20301250Y-9550000D01*
X20301250Y-9500000D02*
X20251250Y-9550000D01*
X20261250Y-8910000D02*
X20261250Y-10140000D01*
X20291250Y-8910000D02*
X20291250Y-10140000D01*
X20261250Y-10140000D02*
G75*
G03*
X20291250Y-10140000I15000J0D01*
G01*
X20291250Y-8910000D02*
G75*
G03*
X20261250Y-8910000I-15000J0D01*
G01*
X20453750Y-6980000D02*
X20503750Y-7030000D01*
X20503750Y-6980000D02*
X20453750Y-7030000D01*
X19728750Y-7020000D02*
X21228750Y-7020000D01*
X19728750Y-6990000D02*
X21228750Y-6990000D01*
X21228750Y-7020000D02*
G75*
G03*
X21228750Y-6990000I0J15000D01*
G01*
X19728750Y-6990000D02*
G75*
G03*
X19728750Y-7020000I0J-15000D01*
G01*
X20453750Y-8210000D02*
X20503750Y-8260000D01*
X20503750Y-8210000D02*
X20453750Y-8260000D01*
X19728750Y-8250000D02*
X21228750Y-8250000D01*
X19728750Y-8220000D02*
X21228750Y-8220000D01*
X21228750Y-8250000D02*
G75*
G03*
X21228750Y-8220000I0J15000D01*
G01*
X19728750Y-8220000D02*
G75*
G03*
X19728750Y-8250000I0J-15000D01*
G01*
X20656250Y-9500000D02*
X20706250Y-9550000D01*
X20706250Y-9500000D02*
X20656250Y-9550000D01*
X20666250Y-8910000D02*
X20666250Y-10140000D01*
X20696250Y-8910000D02*
X20696250Y-10140000D01*
X20666250Y-10140000D02*
G75*
G03*
X20696250Y-10140000I15000J0D01*
G01*
X20696250Y-8910000D02*
G75*
G03*
X20666250Y-8910000I-15000J0D01*
G01*
X20727500Y-5690000D02*
X20777500Y-5740000D01*
X20777500Y-5690000D02*
X20727500Y-5740000D01*
X20737500Y-5100000D02*
X20737500Y-6330000D01*
X20767500Y-5100000D02*
X20767500Y-6330000D01*
X20737500Y-6330000D02*
G75*
G03*
X20767500Y-6330000I15000J0D01*
G01*
X20767500Y-5100000D02*
G75*
G03*
X20737500Y-5100000I-15000J0D01*
G01*
X20930000Y-3170000D02*
X20980000Y-3220000D01*
X20980000Y-3170000D02*
X20930000Y-3220000D01*
X20205000Y-3210000D02*
X21705000Y-3210000D01*
X20205000Y-3180000D02*
X21705000Y-3180000D01*
X21705000Y-3210000D02*
G75*
G03*
X21705000Y-3180000I0J15000D01*
G01*
X20205000Y-3180000D02*
G75*
G03*
X20205000Y-3210000I0J-15000D01*
G01*
X20930000Y-4400000D02*
X20980000Y-4450000D01*
X20980000Y-4400000D02*
X20930000Y-4450000D01*
X20205000Y-4440000D02*
X21705000Y-4440000D01*
X20205000Y-4410000D02*
X21705000Y-4410000D01*
X21705000Y-4440000D02*
G75*
G03*
X21705000Y-4410000I0J15000D01*
G01*
X20205000Y-4410000D02*
G75*
G03*
X20205000Y-4440000I0J-15000D01*
G01*
X21132500Y-5690000D02*
X21182500Y-5740000D01*
X21182500Y-5690000D02*
X21132500Y-5740000D01*
X21142500Y-5100000D02*
X21142500Y-6330000D01*
X21172500Y-5100000D02*
X21172500Y-6330000D01*
X21142500Y-6330000D02*
G75*
G03*
X21172500Y-6330000I15000J0D01*
G01*
X21172500Y-5100000D02*
G75*
G03*
X21142500Y-5100000I-15000J0D01*
G01*
X21203750Y-7595000D02*
X21253750Y-7645000D01*
X21253750Y-7595000D02*
X21203750Y-7645000D01*
X21213750Y-7005000D02*
X21213750Y-8235000D01*
X21243750Y-7005000D02*
X21243750Y-8235000D01*
X21213750Y-8235000D02*
G75*
G03*
X21243750Y-8235000I15000J0D01*
G01*
X21243750Y-7005000D02*
G75*
G03*
X21213750Y-7005000I-15000J0D01*
G01*
X21406250Y-8885000D02*
X21456250Y-8935000D01*
X21456250Y-8885000D02*
X21406250Y-8935000D01*
X20681250Y-8925000D02*
X22181250Y-8925000D01*
X20681250Y-8895000D02*
X22181250Y-8895000D01*
X22181250Y-8925000D02*
G75*
G03*
X22181250Y-8895000I0J15000D01*
G01*
X20681250Y-8895000D02*
G75*
G03*
X20681250Y-8925000I0J-15000D01*
G01*
X21406250Y-10115000D02*
X21456250Y-10165000D01*
X21456250Y-10115000D02*
X21406250Y-10165000D01*
X20681250Y-10155000D02*
X22181250Y-10155000D01*
X20681250Y-10125000D02*
X22181250Y-10125000D01*
X22181250Y-10155000D02*
G75*
G03*
X22181250Y-10125000I0J15000D01*
G01*
X20681250Y-10125000D02*
G75*
G03*
X20681250Y-10155000I0J-15000D01*
G01*
X21608750Y-7595000D02*
X21658750Y-7645000D01*
X21658750Y-7595000D02*
X21608750Y-7645000D01*
X21618750Y-7005000D02*
X21618750Y-8235000D01*
X21648750Y-7005000D02*
X21648750Y-8235000D01*
X21618750Y-8235000D02*
G75*
G03*
X21648750Y-8235000I15000J0D01*
G01*
X21648750Y-7005000D02*
G75*
G03*
X21618750Y-7005000I-15000J0D01*
G01*
X21680000Y-3785000D02*
X21730000Y-3835000D01*
X21730000Y-3785000D02*
X21680000Y-3835000D01*
X21690000Y-3195000D02*
X21690000Y-4425000D01*
X21720000Y-3195000D02*
X21720000Y-4425000D01*
X21690000Y-4425000D02*
G75*
G03*
X21720000Y-4425000I15000J0D01*
G01*
X21720000Y-3195000D02*
G75*
G03*
X21690000Y-3195000I-15000J0D01*
G01*
X21846875Y-11405000D02*
X21896875Y-11455000D01*
X21896875Y-11405000D02*
X21846875Y-11455000D01*
X21856875Y-10815000D02*
X21856875Y-12045000D01*
X21886875Y-10815000D02*
X21886875Y-12045000D01*
X21856875Y-12045000D02*
G75*
G03*
X21886875Y-12045000I15000J0D01*
G01*
X21886875Y-10815000D02*
G75*
G03*
X21856875Y-10815000I-15000J0D01*
G01*
X21882500Y-5075000D02*
X21932500Y-5125000D01*
X21932500Y-5075000D02*
X21882500Y-5125000D01*
X21157500Y-5115000D02*
X22657500Y-5115000D01*
X21157500Y-5085000D02*
X22657500Y-5085000D01*
X22657500Y-5115000D02*
G75*
G03*
X22657500Y-5085000I0J15000D01*
G01*
X21157500Y-5085000D02*
G75*
G03*
X21157500Y-5115000I0J-15000D01*
G01*
X21882500Y-6305000D02*
X21932500Y-6355000D01*
X21932500Y-6305000D02*
X21882500Y-6355000D01*
X21157500Y-6345000D02*
X22657500Y-6345000D01*
X21157500Y-6315000D02*
X22657500Y-6315000D01*
X22657500Y-6345000D02*
G75*
G03*
X22657500Y-6315000I0J15000D01*
G01*
X21157500Y-6315000D02*
G75*
G03*
X21157500Y-6345000I0J-15000D01*
G01*
X22085000Y-3785000D02*
X22135000Y-3835000D01*
X22135000Y-3785000D02*
X22085000Y-3835000D01*
X22095000Y-3195000D02*
X22095000Y-4425000D01*
X22125000Y-3195000D02*
X22125000Y-4425000D01*
X22095000Y-4425000D02*
G75*
G03*
X22125000Y-4425000I15000J0D01*
G01*
X22125000Y-3195000D02*
G75*
G03*
X22095000Y-3195000I-15000J0D01*
G01*
X22156250Y-9500000D02*
X22206250Y-9550000D01*
X22206250Y-9500000D02*
X22156250Y-9550000D01*
X22166250Y-8910000D02*
X22166250Y-10140000D01*
X22196250Y-8910000D02*
X22196250Y-10140000D01*
X22166250Y-10140000D02*
G75*
G03*
X22196250Y-10140000I15000J0D01*
G01*
X22196250Y-8910000D02*
G75*
G03*
X22166250Y-8910000I-15000J0D01*
G01*
X22358750Y-6980000D02*
X22408750Y-7030000D01*
X22408750Y-6980000D02*
X22358750Y-7030000D01*
X21633750Y-7020000D02*
X23133750Y-7020000D01*
X21633750Y-6990000D02*
X23133750Y-6990000D01*
X23133750Y-7020000D02*
G75*
G03*
X23133750Y-6990000I0J15000D01*
G01*
X21633750Y-6990000D02*
G75*
G03*
X21633750Y-7020000I0J-15000D01*
G01*
X22358750Y-8210000D02*
X22408750Y-8260000D01*
X22408750Y-8210000D02*
X22358750Y-8260000D01*
X21633750Y-8250000D02*
X23133750Y-8250000D01*
X21633750Y-8220000D02*
X23133750Y-8220000D01*
X23133750Y-8250000D02*
G75*
G03*
X23133750Y-8220000I0J15000D01*
G01*
X21633750Y-8220000D02*
G75*
G03*
X21633750Y-8250000I0J-15000D01*
G01*
X22561250Y-9500000D02*
X22611250Y-9550000D01*
X22611250Y-9500000D02*
X22561250Y-9550000D01*
X22571250Y-8910000D02*
X22571250Y-10140000D01*
X22601250Y-8910000D02*
X22601250Y-10140000D01*
X22571250Y-10140000D02*
G75*
G03*
X22601250Y-10140000I15000J0D01*
G01*
X22601250Y-8910000D02*
G75*
G03*
X22571250Y-8910000I-15000J0D01*
G01*
X22596875Y-10790000D02*
X22646875Y-10840000D01*
X22646875Y-10790000D02*
X22596875Y-10840000D01*
X21871875Y-10830000D02*
X23371875Y-10830000D01*
X21871875Y-10800000D02*
X23371875Y-10800000D01*
X23371875Y-10830000D02*
G75*
G03*
X23371875Y-10800000I0J15000D01*
G01*
X21871875Y-10800000D02*
G75*
G03*
X21871875Y-10830000I0J-15000D01*
G01*
X22596875Y-12020000D02*
X22646875Y-12070000D01*
X22646875Y-12020000D02*
X22596875Y-12070000D01*
X21871875Y-12060000D02*
X23371875Y-12060000D01*
X21871875Y-12030000D02*
X23371875Y-12030000D01*
X23371875Y-12060000D02*
G75*
G03*
X23371875Y-12030000I0J15000D01*
G01*
X21871875Y-12030000D02*
G75*
G03*
X21871875Y-12060000I0J-15000D01*
G01*
X22632500Y-5690000D02*
X22682500Y-5740000D01*
X22682500Y-5690000D02*
X22632500Y-5740000D01*
X22642500Y-5100000D02*
X22642500Y-6330000D01*
X22672500Y-5100000D02*
X22672500Y-6330000D01*
X22642500Y-6330000D02*
G75*
G03*
X22672500Y-6330000I15000J0D01*
G01*
X22672500Y-5100000D02*
G75*
G03*
X22642500Y-5100000I-15000J0D01*
G01*
X22835000Y-3170000D02*
X22885000Y-3220000D01*
X22885000Y-3170000D02*
X22835000Y-3220000D01*
X22110000Y-3210000D02*
X23610000Y-3210000D01*
X22110000Y-3180000D02*
X23610000Y-3180000D01*
X23610000Y-3210000D02*
G75*
G03*
X23610000Y-3180000I0J15000D01*
G01*
X22110000Y-3180000D02*
G75*
G03*
X22110000Y-3210000I0J-15000D01*
G01*
X22835000Y-4400000D02*
X22885000Y-4450000D01*
X22885000Y-4400000D02*
X22835000Y-4450000D01*
X22110000Y-4440000D02*
X23610000Y-4440000D01*
X22110000Y-4410000D02*
X23610000Y-4410000D01*
X23610000Y-4440000D02*
G75*
G03*
X23610000Y-4410000I0J15000D01*
G01*
X22110000Y-4410000D02*
G75*
G03*
X22110000Y-4440000I0J-15000D01*
G01*
X23037500Y-5690000D02*
X23087500Y-5740000D01*
X23087500Y-5690000D02*
X23037500Y-5740000D01*
X23047500Y-5100000D02*
X23047500Y-6330000D01*
X23077500Y-5100000D02*
X23077500Y-6330000D01*
X23047500Y-6330000D02*
G75*
G03*
X23077500Y-6330000I15000J0D01*
G01*
X23077500Y-5100000D02*
G75*
G03*
X23047500Y-5100000I-15000J0D01*
G01*
X23108750Y-7595000D02*
X23158750Y-7645000D01*
X23158750Y-7595000D02*
X23108750Y-7645000D01*
X23118750Y-7005000D02*
X23118750Y-8235000D01*
X23148750Y-7005000D02*
X23148750Y-8235000D01*
X23118750Y-8235000D02*
G75*
G03*
X23148750Y-8235000I15000J0D01*
G01*
X23148750Y-7005000D02*
G75*
G03*
X23118750Y-7005000I-15000J0D01*
G01*
X23311250Y-8885000D02*
X23361250Y-8935000D01*
X23361250Y-8885000D02*
X23311250Y-8935000D01*
X22586250Y-8925000D02*
X24086250Y-8925000D01*
X22586250Y-8895000D02*
X24086250Y-8895000D01*
X24086250Y-8925000D02*
G75*
G03*
X24086250Y-8895000I0J15000D01*
G01*
X22586250Y-8895000D02*
G75*
G03*
X22586250Y-8925000I0J-15000D01*
G01*
X23311250Y-10115000D02*
X23361250Y-10165000D01*
X23361250Y-10115000D02*
X23311250Y-10165000D01*
X22586250Y-10155000D02*
X24086250Y-10155000D01*
X22586250Y-10125000D02*
X24086250Y-10125000D01*
X24086250Y-10155000D02*
G75*
G03*
X24086250Y-10125000I0J15000D01*
G01*
X22586250Y-10125000D02*
G75*
G03*
X22586250Y-10155000I0J-15000D01*
G01*
X23346875Y-11405000D02*
X23396875Y-11455000D01*
X23396875Y-11405000D02*
X23346875Y-11455000D01*
X23356875Y-10815000D02*
X23356875Y-12045000D01*
X23386875Y-10815000D02*
X23386875Y-12045000D01*
X23356875Y-12045000D02*
G75*
G03*
X23386875Y-12045000I15000J0D01*
G01*
X23386875Y-10815000D02*
G75*
G03*
X23356875Y-10815000I-15000J0D01*
G01*
X23513750Y-7595000D02*
X23563750Y-7645000D01*
X23563750Y-7595000D02*
X23513750Y-7645000D01*
X23523750Y-7005000D02*
X23523750Y-8235000D01*
X23553750Y-7005000D02*
X23553750Y-8235000D01*
X23523750Y-8235000D02*
G75*
G03*
X23553750Y-8235000I15000J0D01*
G01*
X23553750Y-7005000D02*
G75*
G03*
X23523750Y-7005000I-15000J0D01*
G01*
X23585000Y-3785000D02*
X23635000Y-3835000D01*
X23635000Y-3785000D02*
X23585000Y-3835000D01*
X23595000Y-3195000D02*
X23595000Y-4425000D01*
X23625000Y-3195000D02*
X23625000Y-4425000D01*
X23595000Y-4425000D02*
G75*
G03*
X23625000Y-4425000I15000J0D01*
G01*
X23625000Y-3195000D02*
G75*
G03*
X23595000Y-3195000I-15000J0D01*
G01*
X23787500Y-5075000D02*
X23837500Y-5125000D01*
X23837500Y-5075000D02*
X23787500Y-5125000D01*
X23062500Y-5115000D02*
X24562500Y-5115000D01*
X23062500Y-5085000D02*
X24562500Y-5085000D01*
X24562500Y-5115000D02*
G75*
G03*
X24562500Y-5085000I0J15000D01*
G01*
X23062500Y-5085000D02*
G75*
G03*
X23062500Y-5115000I0J-15000D01*
G01*
X23787500Y-6305000D02*
X23837500Y-6355000D01*
X23837500Y-6305000D02*
X23787500Y-6355000D01*
X23062500Y-6345000D02*
X24562500Y-6345000D01*
X23062500Y-6315000D02*
X24562500Y-6315000D01*
X24562500Y-6345000D02*
G75*
G03*
X24562500Y-6315000I0J15000D01*
G01*
X23062500Y-6315000D02*
G75*
G03*
X23062500Y-6345000I0J-15000D01*
G01*
X23990000Y-3785000D02*
X24040000Y-3835000D01*
X24040000Y-3785000D02*
X23990000Y-3835000D01*
X24000000Y-3195000D02*
X24000000Y-4425000D01*
X24030000Y-3195000D02*
X24030000Y-4425000D01*
X24000000Y-4425000D02*
G75*
G03*
X24030000Y-4425000I15000J0D01*
G01*
X24030000Y-3195000D02*
G75*
G03*
X24000000Y-3195000I-15000J0D01*
G01*
X24061250Y-9500000D02*
X24111250Y-9550000D01*
X24111250Y-9500000D02*
X24061250Y-9550000D01*
X24071250Y-8910000D02*
X24071250Y-10140000D01*
X24101250Y-8910000D02*
X24101250Y-10140000D01*
X24071250Y-10140000D02*
G75*
G03*
X24101250Y-10140000I15000J0D01*
G01*
X24101250Y-8910000D02*
G75*
G03*
X24071250Y-8910000I-15000J0D01*
G01*
X24228125Y-11405000D02*
X24278125Y-11455000D01*
X24278125Y-11405000D02*
X24228125Y-11455000D01*
X24238125Y-10815000D02*
X24238125Y-12045000D01*
X24268125Y-10815000D02*
X24268125Y-12045000D01*
X24238125Y-12045000D02*
G75*
G03*
X24268125Y-12045000I15000J0D01*
G01*
X24268125Y-10815000D02*
G75*
G03*
X24238125Y-10815000I-15000J0D01*
G01*
X24263750Y-6980000D02*
X24313750Y-7030000D01*
X24313750Y-6980000D02*
X24263750Y-7030000D01*
X23538750Y-7020000D02*
X25038750Y-7020000D01*
X23538750Y-6990000D02*
X25038750Y-6990000D01*
X25038750Y-7020000D02*
G75*
G03*
X25038750Y-6990000I0J15000D01*
G01*
X23538750Y-6990000D02*
G75*
G03*
X23538750Y-7020000I0J-15000D01*
G01*
X24263750Y-8210000D02*
X24313750Y-8260000D01*
X24313750Y-8210000D02*
X24263750Y-8260000D01*
X23538750Y-8250000D02*
X25038750Y-8250000D01*
X23538750Y-8220000D02*
X25038750Y-8220000D01*
X25038750Y-8250000D02*
G75*
G03*
X25038750Y-8220000I0J15000D01*
G01*
X23538750Y-8220000D02*
G75*
G03*
X23538750Y-8250000I0J-15000D01*
G01*
X24466250Y-9500000D02*
X24516250Y-9550000D01*
X24516250Y-9500000D02*
X24466250Y-9550000D01*
X24476250Y-8910000D02*
X24476250Y-10140000D01*
X24506250Y-8910000D02*
X24506250Y-10140000D01*
X24476250Y-10140000D02*
G75*
G03*
X24506250Y-10140000I15000J0D01*
G01*
X24506250Y-8910000D02*
G75*
G03*
X24476250Y-8910000I-15000J0D01*
G01*
X24537500Y-5690000D02*
X24587500Y-5740000D01*
X24587500Y-5690000D02*
X24537500Y-5740000D01*
X24547500Y-5100000D02*
X24547500Y-6330000D01*
X24577500Y-5100000D02*
X24577500Y-6330000D01*
X24547500Y-6330000D02*
G75*
G03*
X24577500Y-6330000I15000J0D01*
G01*
X24577500Y-5100000D02*
G75*
G03*
X24547500Y-5100000I-15000J0D01*
G01*
X24740000Y-3170000D02*
X24790000Y-3220000D01*
X24790000Y-3170000D02*
X24740000Y-3220000D01*
X24015000Y-3210000D02*
X25515000Y-3210000D01*
X24015000Y-3180000D02*
X25515000Y-3180000D01*
X25515000Y-3210000D02*
G75*
G03*
X25515000Y-3180000I0J15000D01*
G01*
X24015000Y-3180000D02*
G75*
G03*
X24015000Y-3210000I0J-15000D01*
G01*
X24740000Y-4400000D02*
X24790000Y-4450000D01*
X24790000Y-4400000D02*
X24740000Y-4450000D01*
X24015000Y-4440000D02*
X25515000Y-4440000D01*
X24015000Y-4410000D02*
X25515000Y-4410000D01*
X25515000Y-4440000D02*
G75*
G03*
X25515000Y-4410000I0J15000D01*
G01*
X24015000Y-4410000D02*
G75*
G03*
X24015000Y-4440000I0J-15000D01*
G01*
X24942500Y-5690000D02*
X24992500Y-5740000D01*
X24992500Y-5690000D02*
X24942500Y-5740000D01*
X24952500Y-5100000D02*
X24952500Y-6330000D01*
X24982500Y-5100000D02*
X24982500Y-6330000D01*
X24952500Y-6330000D02*
G75*
G03*
X24982500Y-6330000I15000J0D01*
G01*
X24982500Y-5100000D02*
G75*
G03*
X24952500Y-5100000I-15000J0D01*
G01*
X24978125Y-10790000D02*
X25028125Y-10840000D01*
X25028125Y-10790000D02*
X24978125Y-10840000D01*
X24253125Y-10830000D02*
X25753125Y-10830000D01*
X24253125Y-10800000D02*
X25753125Y-10800000D01*
X25753125Y-10830000D02*
G75*
G03*
X25753125Y-10800000I0J15000D01*
G01*
X24253125Y-10800000D02*
G75*
G03*
X24253125Y-10830000I0J-15000D01*
G01*
X24978125Y-12020000D02*
X25028125Y-12070000D01*
X25028125Y-12020000D02*
X24978125Y-12070000D01*
X24253125Y-12060000D02*
X25753125Y-12060000D01*
X24253125Y-12030000D02*
X25753125Y-12030000D01*
X25753125Y-12060000D02*
G75*
G03*
X25753125Y-12030000I0J15000D01*
G01*
X24253125Y-12030000D02*
G75*
G03*
X24253125Y-12060000I0J-15000D01*
G01*
X25013750Y-7595000D02*
X25063750Y-7645000D01*
X25063750Y-7595000D02*
X25013750Y-7645000D01*
X25023750Y-7005000D02*
X25023750Y-8235000D01*
X25053750Y-7005000D02*
X25053750Y-8235000D01*
X25023750Y-8235000D02*
G75*
G03*
X25053750Y-8235000I15000J0D01*
G01*
X25053750Y-7005000D02*
G75*
G03*
X25023750Y-7005000I-15000J0D01*
G01*
X25216250Y-8885000D02*
X25266250Y-8935000D01*
X25266250Y-8885000D02*
X25216250Y-8935000D01*
X24491250Y-8925000D02*
X25991250Y-8925000D01*
X24491250Y-8895000D02*
X25991250Y-8895000D01*
X25991250Y-8925000D02*
G75*
G03*
X25991250Y-8895000I0J15000D01*
G01*
X24491250Y-8895000D02*
G75*
G03*
X24491250Y-8925000I0J-15000D01*
G01*
X25216250Y-10115000D02*
X25266250Y-10165000D01*
X25266250Y-10115000D02*
X25216250Y-10165000D01*
X24491250Y-10155000D02*
X25991250Y-10155000D01*
X24491250Y-10125000D02*
X25991250Y-10125000D01*
X25991250Y-10155000D02*
G75*
G03*
X25991250Y-10125000I0J15000D01*
G01*
X24491250Y-10125000D02*
G75*
G03*
X24491250Y-10155000I0J-15000D01*
G01*
X25418750Y-7595000D02*
X25468750Y-7645000D01*
X25468750Y-7595000D02*
X25418750Y-7645000D01*
X25428750Y-7005000D02*
X25428750Y-8235000D01*
X25458750Y-7005000D02*
X25458750Y-8235000D01*
X25428750Y-8235000D02*
G75*
G03*
X25458750Y-8235000I15000J0D01*
G01*
X25458750Y-7005000D02*
G75*
G03*
X25428750Y-7005000I-15000J0D01*
G01*
X25490000Y-3785000D02*
X25540000Y-3835000D01*
X25540000Y-3785000D02*
X25490000Y-3835000D01*
X25500000Y-3195000D02*
X25500000Y-4425000D01*
X25530000Y-3195000D02*
X25530000Y-4425000D01*
X25500000Y-4425000D02*
G75*
G03*
X25530000Y-4425000I15000J0D01*
G01*
X25530000Y-3195000D02*
G75*
G03*
X25500000Y-3195000I-15000J0D01*
G01*
X25692500Y-5075000D02*
X25742500Y-5125000D01*
X25742500Y-5075000D02*
X25692500Y-5125000D01*
X24967500Y-5115000D02*
X26467500Y-5115000D01*
X24967500Y-5085000D02*
X26467500Y-5085000D01*
X26467500Y-5115000D02*
G75*
G03*
X26467500Y-5085000I0J15000D01*
G01*
X24967500Y-5085000D02*
G75*
G03*
X24967500Y-5115000I0J-15000D01*
G01*
X25692500Y-6305000D02*
X25742500Y-6355000D01*
X25742500Y-6305000D02*
X25692500Y-6355000D01*
X24967500Y-6345000D02*
X26467500Y-6345000D01*
X24967500Y-6315000D02*
X26467500Y-6315000D01*
X26467500Y-6345000D02*
G75*
G03*
X26467500Y-6315000I0J15000D01*
G01*
X24967500Y-6315000D02*
G75*
G03*
X24967500Y-6345000I0J-15000D01*
G01*
X25728125Y-11405000D02*
X25778125Y-11455000D01*
X25778125Y-11405000D02*
X25728125Y-11455000D01*
X25738125Y-10815000D02*
X25738125Y-12045000D01*
X25768125Y-10815000D02*
X25768125Y-12045000D01*
X25738125Y-12045000D02*
G75*
G03*
X25768125Y-12045000I15000J0D01*
G01*
X25768125Y-10815000D02*
G75*
G03*
X25738125Y-10815000I-15000J0D01*
G01*
X25895000Y-3785000D02*
X25945000Y-3835000D01*
X25945000Y-3785000D02*
X25895000Y-3835000D01*
X25905000Y-3195000D02*
X25905000Y-4425000D01*
X25935000Y-3195000D02*
X25935000Y-4425000D01*
X25905000Y-4425000D02*
G75*
G03*
X25935000Y-4425000I15000J0D01*
G01*
X25935000Y-3195000D02*
G75*
G03*
X25905000Y-3195000I-15000J0D01*
G01*
X25966250Y-9500000D02*
X26016250Y-9550000D01*
X26016250Y-9500000D02*
X25966250Y-9550000D01*
X25976250Y-8910000D02*
X25976250Y-10140000D01*
X26006250Y-8910000D02*
X26006250Y-10140000D01*
X25976250Y-10140000D02*
G75*
G03*
X26006250Y-10140000I15000J0D01*
G01*
X26006250Y-8910000D02*
G75*
G03*
X25976250Y-8910000I-15000J0D01*
G01*
X26168750Y-6980000D02*
X26218750Y-7030000D01*
X26218750Y-6980000D02*
X26168750Y-7030000D01*
X25443750Y-7020000D02*
X26943750Y-7020000D01*
X25443750Y-6990000D02*
X26943750Y-6990000D01*
X26943750Y-7020000D02*
G75*
G03*
X26943750Y-6990000I0J15000D01*
G01*
X25443750Y-6990000D02*
G75*
G03*
X25443750Y-7020000I0J-15000D01*
G01*
X26168750Y-8210000D02*
X26218750Y-8260000D01*
X26218750Y-8210000D02*
X26168750Y-8260000D01*
X25443750Y-8250000D02*
X26943750Y-8250000D01*
X25443750Y-8220000D02*
X26943750Y-8220000D01*
X26943750Y-8250000D02*
G75*
G03*
X26943750Y-8220000I0J15000D01*
G01*
X25443750Y-8220000D02*
G75*
G03*
X25443750Y-8250000I0J-15000D01*
G01*
X26442500Y-5690000D02*
X26492500Y-5740000D01*
X26492500Y-5690000D02*
X26442500Y-5740000D01*
X26452500Y-5100000D02*
X26452500Y-6330000D01*
X26482500Y-5100000D02*
X26482500Y-6330000D01*
X26452500Y-6330000D02*
G75*
G03*
X26482500Y-6330000I15000J0D01*
G01*
X26482500Y-5100000D02*
G75*
G03*
X26452500Y-5100000I-15000J0D01*
G01*
X26609375Y-11405000D02*
X26659375Y-11455000D01*
X26659375Y-11405000D02*
X26609375Y-11455000D01*
X26619375Y-10815000D02*
X26619375Y-12045000D01*
X26649375Y-10815000D02*
X26649375Y-12045000D01*
X26619375Y-12045000D02*
G75*
G03*
X26649375Y-12045000I15000J0D01*
G01*
X26649375Y-10815000D02*
G75*
G03*
X26619375Y-10815000I-15000J0D01*
G01*
X26645000Y-3170000D02*
X26695000Y-3220000D01*
X26695000Y-3170000D02*
X26645000Y-3220000D01*
X25920000Y-3210000D02*
X27420000Y-3210000D01*
X25920000Y-3180000D02*
X27420000Y-3180000D01*
X27420000Y-3210000D02*
G75*
G03*
X27420000Y-3180000I0J15000D01*
G01*
X25920000Y-3180000D02*
G75*
G03*
X25920000Y-3210000I0J-15000D01*
G01*
X26645000Y-4400000D02*
X26695000Y-4450000D01*
X26695000Y-4400000D02*
X26645000Y-4450000D01*
X25920000Y-4440000D02*
X27420000Y-4440000D01*
X25920000Y-4410000D02*
X27420000Y-4410000D01*
X27420000Y-4440000D02*
G75*
G03*
X27420000Y-4410000I0J15000D01*
G01*
X25920000Y-4410000D02*
G75*
G03*
X25920000Y-4440000I0J-15000D01*
G01*
X26847500Y-5690000D02*
X26897500Y-5740000D01*
X26897500Y-5690000D02*
X26847500Y-5740000D01*
X26857500Y-5100000D02*
X26857500Y-6330000D01*
X26887500Y-5100000D02*
X26887500Y-6330000D01*
X26857500Y-6330000D02*
G75*
G03*
X26887500Y-6330000I15000J0D01*
G01*
X26887500Y-5100000D02*
G75*
G03*
X26857500Y-5100000I-15000J0D01*
G01*
X26918750Y-7595000D02*
X26968750Y-7645000D01*
X26968750Y-7595000D02*
X26918750Y-7645000D01*
X26928750Y-7005000D02*
X26928750Y-8235000D01*
X26958750Y-7005000D02*
X26958750Y-8235000D01*
X26928750Y-8235000D02*
G75*
G03*
X26958750Y-8235000I15000J0D01*
G01*
X26958750Y-7005000D02*
G75*
G03*
X26928750Y-7005000I-15000J0D01*
G01*
X27359375Y-10790000D02*
X27409375Y-10840000D01*
X27409375Y-10790000D02*
X27359375Y-10840000D01*
X26634375Y-10830000D02*
X28134375Y-10830000D01*
X26634375Y-10800000D02*
X28134375Y-10800000D01*
X28134375Y-10830000D02*
G75*
G03*
X28134375Y-10800000I0J15000D01*
G01*
X26634375Y-10800000D02*
G75*
G03*
X26634375Y-10830000I0J-15000D01*
G01*
X27359375Y-12020000D02*
X27409375Y-12070000D01*
X27409375Y-12020000D02*
X27359375Y-12070000D01*
X26634375Y-12060000D02*
X28134375Y-12060000D01*
X26634375Y-12030000D02*
X28134375Y-12030000D01*
X28134375Y-12060000D02*
G75*
G03*
X28134375Y-12030000I0J15000D01*
G01*
X26634375Y-12030000D02*
G75*
G03*
X26634375Y-12060000I0J-15000D01*
G01*
X27395000Y-3785000D02*
X27445000Y-3835000D01*
X27445000Y-3785000D02*
X27395000Y-3835000D01*
X27405000Y-3195000D02*
X27405000Y-4425000D01*
X27435000Y-3195000D02*
X27435000Y-4425000D01*
X27405000Y-4425000D02*
G75*
G03*
X27435000Y-4425000I15000J0D01*
G01*
X27435000Y-3195000D02*
G75*
G03*
X27405000Y-3195000I-15000J0D01*
G01*
X27561875Y-9500000D02*
X27611875Y-9550000D01*
X27611875Y-9500000D02*
X27561875Y-9550000D01*
X27571875Y-8910000D02*
X27571875Y-10140000D01*
X27601875Y-8910000D02*
X27601875Y-10140000D01*
X27571875Y-10140000D02*
G75*
G03*
X27601875Y-10140000I15000J0D01*
G01*
X27601875Y-8910000D02*
G75*
G03*
X27571875Y-8910000I-15000J0D01*
G01*
X27597500Y-5075000D02*
X27647500Y-5125000D01*
X27647500Y-5075000D02*
X27597500Y-5125000D01*
X26872500Y-5115000D02*
X28372500Y-5115000D01*
X26872500Y-5085000D02*
X28372500Y-5085000D01*
X28372500Y-5115000D02*
G75*
G03*
X28372500Y-5085000I0J15000D01*
G01*
X26872500Y-5085000D02*
G75*
G03*
X26872500Y-5115000I0J-15000D01*
G01*
X27597500Y-6305000D02*
X27647500Y-6355000D01*
X27647500Y-6305000D02*
X27597500Y-6355000D01*
X26872500Y-6345000D02*
X28372500Y-6345000D01*
X26872500Y-6315000D02*
X28372500Y-6315000D01*
X28372500Y-6345000D02*
G75*
G03*
X28372500Y-6315000I0J15000D01*
G01*
X26872500Y-6315000D02*
G75*
G03*
X26872500Y-6345000I0J-15000D01*
G01*
X28109375Y-11405000D02*
X28159375Y-11455000D01*
X28159375Y-11405000D02*
X28109375Y-11455000D01*
X28119375Y-10815000D02*
X28119375Y-12045000D01*
X28149375Y-10815000D02*
X28149375Y-12045000D01*
X28119375Y-12045000D02*
G75*
G03*
X28149375Y-12045000I15000J0D01*
G01*
X28149375Y-10815000D02*
G75*
G03*
X28119375Y-10815000I-15000J0D01*
G01*
X28311875Y-8885000D02*
X28361875Y-8935000D01*
X28361875Y-8885000D02*
X28311875Y-8935000D01*
X27586875Y-8925000D02*
X29086875Y-8925000D01*
X27586875Y-8895000D02*
X29086875Y-8895000D01*
X29086875Y-8925000D02*
G75*
G03*
X29086875Y-8895000I0J15000D01*
G01*
X27586875Y-8895000D02*
G75*
G03*
X27586875Y-8925000I0J-15000D01*
G01*
X28311875Y-10115000D02*
X28361875Y-10165000D01*
X28361875Y-10115000D02*
X28311875Y-10165000D01*
X27586875Y-10155000D02*
X29086875Y-10155000D01*
X27586875Y-10125000D02*
X29086875Y-10125000D01*
X29086875Y-10155000D02*
G75*
G03*
X29086875Y-10125000I0J15000D01*
G01*
X27586875Y-10125000D02*
G75*
G03*
X27586875Y-10155000I0J-15000D01*
G01*
X28347500Y-5690000D02*
X28397500Y-5740000D01*
X28397500Y-5690000D02*
X28347500Y-5740000D01*
X28357500Y-5100000D02*
X28357500Y-6330000D01*
X28387500Y-5100000D02*
X28387500Y-6330000D01*
X28357500Y-6330000D02*
G75*
G03*
X28387500Y-6330000I15000J0D01*
G01*
X28387500Y-5100000D02*
G75*
G03*
X28357500Y-5100000I-15000J0D01*
G01*
X28514375Y-3785000D02*
X28564375Y-3835000D01*
X28564375Y-3785000D02*
X28514375Y-3835000D01*
X28554375Y-4425000D02*
X28554375Y-3195000D01*
X28524375Y-4425000D02*
X28524375Y-3195000D01*
X28554375Y-3195000D02*
G75*
G03*
X28524375Y-3195000I-15000J0D01*
G01*
X28524375Y-4425000D02*
G75*
G03*
X28554375Y-4425000I15000J0D01*
G01*
X28514375Y-7595000D02*
X28564375Y-7645000D01*
X28564375Y-7595000D02*
X28514375Y-7645000D01*
X28524375Y-7005000D02*
X28524375Y-8235000D01*
X28554375Y-7005000D02*
X28554375Y-8235000D01*
X28524375Y-8235000D02*
G75*
G03*
X28554375Y-8235000I15000J0D01*
G01*
X28554375Y-7005000D02*
G75*
G03*
X28524375Y-7005000I-15000J0D01*
G01*
X28752500Y-11405000D02*
X28802500Y-11455000D01*
X28802500Y-11405000D02*
X28752500Y-11455000D01*
X28762500Y-10815000D02*
X28762500Y-12045000D01*
X28792500Y-10815000D02*
X28792500Y-12045000D01*
X28762500Y-12045000D02*
G75*
G03*
X28792500Y-12045000I15000J0D01*
G01*
X28792500Y-10815000D02*
G75*
G03*
X28762500Y-10815000I-15000J0D01*
G01*
X29061875Y-9500000D02*
X29111875Y-9550000D01*
X29111875Y-9500000D02*
X29061875Y-9550000D01*
X29071875Y-8910000D02*
X29071875Y-10140000D01*
X29101875Y-8910000D02*
X29101875Y-10140000D01*
X29071875Y-10140000D02*
G75*
G03*
X29101875Y-10140000I15000J0D01*
G01*
X29101875Y-8910000D02*
G75*
G03*
X29071875Y-8910000I-15000J0D01*
G01*
X29228750Y-5690000D02*
X29278750Y-5740000D01*
X29278750Y-5690000D02*
X29228750Y-5740000D01*
X29238750Y-5100000D02*
X29238750Y-6330000D01*
X29268750Y-5100000D02*
X29268750Y-6330000D01*
X29238750Y-6330000D02*
G75*
G03*
X29268750Y-6330000I15000J0D01*
G01*
X29268750Y-5100000D02*
G75*
G03*
X29238750Y-5100000I-15000J0D01*
G01*
X29264375Y-3170000D02*
X29314375Y-3220000D01*
X29314375Y-3170000D02*
X29264375Y-3220000D01*
X30039375Y-3180000D02*
X28539375Y-3180000D01*
X30039375Y-3210000D02*
X28539375Y-3210000D01*
X28539375Y-3180000D02*
G75*
G03*
X28539375Y-3210000I0J-15000D01*
G01*
X30039375Y-3210000D02*
G75*
G03*
X30039375Y-3180000I0J15000D01*
G01*
X29264375Y-4400000D02*
X29314375Y-4450000D01*
X29314375Y-4400000D02*
X29264375Y-4450000D01*
X30039375Y-4410000D02*
X28539375Y-4410000D01*
X30039375Y-4440000D02*
X28539375Y-4440000D01*
X28539375Y-4410000D02*
G75*
G03*
X28539375Y-4440000I0J-15000D01*
G01*
X30039375Y-4440000D02*
G75*
G03*
X30039375Y-4410000I0J15000D01*
G01*
X29264375Y-6980000D02*
X29314375Y-7030000D01*
X29314375Y-6980000D02*
X29264375Y-7030000D01*
X28539375Y-7020000D02*
X30039375Y-7020000D01*
X28539375Y-6990000D02*
X30039375Y-6990000D01*
X30039375Y-7020000D02*
G75*
G03*
X30039375Y-6990000I0J15000D01*
G01*
X28539375Y-6990000D02*
G75*
G03*
X28539375Y-7020000I0J-15000D01*
G01*
X29264375Y-8210000D02*
X29314375Y-8260000D01*
X29314375Y-8210000D02*
X29264375Y-8260000D01*
X28539375Y-8250000D02*
X30039375Y-8250000D01*
X28539375Y-8220000D02*
X30039375Y-8220000D01*
X30039375Y-8250000D02*
G75*
G03*
X30039375Y-8220000I0J15000D01*
G01*
X28539375Y-8220000D02*
G75*
G03*
X28539375Y-8250000I0J-15000D01*
G01*
X29502500Y-10790000D02*
X29552500Y-10840000D01*
X29552500Y-10790000D02*
X29502500Y-10840000D01*
X28777500Y-10830000D02*
X30277500Y-10830000D01*
X28777500Y-10800000D02*
X30277500Y-10800000D01*
X30277500Y-10830000D02*
G75*
G03*
X30277500Y-10800000I0J15000D01*
G01*
X28777500Y-10800000D02*
G75*
G03*
X28777500Y-10830000I0J-15000D01*
G01*
X29502500Y-12020000D02*
X29552500Y-12070000D01*
X29552500Y-12020000D02*
X29502500Y-12070000D01*
X28777500Y-12060000D02*
X30277500Y-12060000D01*
X28777500Y-12030000D02*
X30277500Y-12030000D01*
X30277500Y-12060000D02*
G75*
G03*
X30277500Y-12030000I0J15000D01*
G01*
X28777500Y-12030000D02*
G75*
G03*
X28777500Y-12060000I0J-15000D01*
G01*
X29978750Y-5075000D02*
X30028750Y-5125000D01*
X30028750Y-5075000D02*
X29978750Y-5125000D01*
X29253750Y-5115000D02*
X30753750Y-5115000D01*
X29253750Y-5085000D02*
X30753750Y-5085000D01*
X30753750Y-5115000D02*
G75*
G03*
X30753750Y-5085000I0J15000D01*
G01*
X29253750Y-5085000D02*
G75*
G03*
X29253750Y-5115000I0J-15000D01*
G01*
X29978750Y-6305000D02*
X30028750Y-6355000D01*
X30028750Y-6305000D02*
X29978750Y-6355000D01*
X29253750Y-6345000D02*
X30753750Y-6345000D01*
X29253750Y-6315000D02*
X30753750Y-6315000D01*
X30753750Y-6345000D02*
G75*
G03*
X30753750Y-6315000I0J15000D01*
G01*
X29253750Y-6315000D02*
G75*
G03*
X29253750Y-6345000I0J-15000D01*
G01*
X30014375Y-3785000D02*
X30064375Y-3835000D01*
X30064375Y-3785000D02*
X30014375Y-3835000D01*
X30054375Y-4425000D02*
X30054375Y-3195000D01*
X30024375Y-4425000D02*
X30024375Y-3195000D01*
X30054375Y-3195000D02*
G75*
G03*
X30024375Y-3195000I-15000J0D01*
G01*
X30024375Y-4425000D02*
G75*
G03*
X30054375Y-4425000I15000J0D01*
G01*
X30014375Y-7595000D02*
X30064375Y-7645000D01*
X30064375Y-7595000D02*
X30014375Y-7645000D01*
X30024375Y-7005000D02*
X30024375Y-8235000D01*
X30054375Y-7005000D02*
X30054375Y-8235000D01*
X30024375Y-8235000D02*
G75*
G03*
X30054375Y-8235000I15000J0D01*
G01*
X30054375Y-7005000D02*
G75*
G03*
X30024375Y-7005000I-15000J0D01*
G01*
X30252500Y-11405000D02*
X30302500Y-11455000D01*
X30302500Y-11405000D02*
X30252500Y-11455000D01*
X30262500Y-10815000D02*
X30262500Y-12045000D01*
X30292500Y-10815000D02*
X30292500Y-12045000D01*
X30262500Y-12045000D02*
G75*
G03*
X30292500Y-12045000I15000J0D01*
G01*
X30292500Y-10815000D02*
G75*
G03*
X30262500Y-10815000I-15000J0D01*
G01*
X30657500Y-9500000D02*
X30707500Y-9550000D01*
X30707500Y-9500000D02*
X30657500Y-9550000D01*
X30667500Y-8910000D02*
X30667500Y-10140000D01*
X30697500Y-8910000D02*
X30697500Y-10140000D01*
X30667500Y-10140000D02*
G75*
G03*
X30697500Y-10140000I15000J0D01*
G01*
X30697500Y-8910000D02*
G75*
G03*
X30667500Y-8910000I-15000J0D01*
G01*
X30657500Y-11405000D02*
X30707500Y-11455000D01*
X30707500Y-11405000D02*
X30657500Y-11455000D01*
X30667500Y-10815000D02*
X30667500Y-12045000D01*
X30697500Y-10815000D02*
X30697500Y-12045000D01*
X30667500Y-12045000D02*
G75*
G03*
X30697500Y-12045000I15000J0D01*
G01*
X30697500Y-10815000D02*
G75*
G03*
X30667500Y-10815000I-15000J0D01*
G01*
X30728750Y-5690000D02*
X30778750Y-5740000D01*
X30778750Y-5690000D02*
X30728750Y-5740000D01*
X30738750Y-5100000D02*
X30738750Y-6330000D01*
X30768750Y-5100000D02*
X30768750Y-6330000D01*
X30738750Y-6330000D02*
G75*
G03*
X30768750Y-6330000I15000J0D01*
G01*
X30768750Y-5100000D02*
G75*
G03*
X30738750Y-5100000I-15000J0D01*
G01*
X31407500Y-8885000D02*
X31457500Y-8935000D01*
X31457500Y-8885000D02*
X31407500Y-8935000D01*
X30682500Y-8925000D02*
X32182500Y-8925000D01*
X30682500Y-8895000D02*
X32182500Y-8895000D01*
X32182500Y-8925000D02*
G75*
G03*
X32182500Y-8895000I0J15000D01*
G01*
X30682500Y-8895000D02*
G75*
G03*
X30682500Y-8925000I0J-15000D01*
G01*
X31407500Y-10115000D02*
X31457500Y-10165000D01*
X31457500Y-10115000D02*
X31407500Y-10165000D01*
X30682500Y-10155000D02*
X32182500Y-10155000D01*
X30682500Y-10125000D02*
X32182500Y-10125000D01*
X32182500Y-10155000D02*
G75*
G03*
X32182500Y-10125000I0J15000D01*
G01*
X30682500Y-10125000D02*
G75*
G03*
X30682500Y-10155000I0J-15000D01*
G01*
X31407500Y-10790000D02*
X31457500Y-10840000D01*
X31457500Y-10790000D02*
X31407500Y-10840000D01*
X30682500Y-10830000D02*
X32182500Y-10830000D01*
X30682500Y-10800000D02*
X32182500Y-10800000D01*
X32182500Y-10830000D02*
G75*
G03*
X32182500Y-10800000I0J15000D01*
G01*
X30682500Y-10800000D02*
G75*
G03*
X30682500Y-10830000I0J-15000D01*
G01*
X31407500Y-12020000D02*
X31457500Y-12070000D01*
X31457500Y-12020000D02*
X31407500Y-12070000D01*
X30682500Y-12060000D02*
X32182500Y-12060000D01*
X30682500Y-12030000D02*
X32182500Y-12030000D01*
X32182500Y-12060000D02*
G75*
G03*
X32182500Y-12030000I0J15000D01*
G01*
X30682500Y-12030000D02*
G75*
G03*
X30682500Y-12060000I0J-15000D01*
G01*
X32157500Y-9500000D02*
X32207500Y-9550000D01*
X32207500Y-9500000D02*
X32157500Y-9550000D01*
X32167500Y-8910000D02*
X32167500Y-10140000D01*
X32197500Y-8910000D02*
X32197500Y-10140000D01*
X32167500Y-10140000D02*
G75*
G03*
X32197500Y-10140000I15000J0D01*
G01*
X32197500Y-8910000D02*
G75*
G03*
X32167500Y-8910000I-15000J0D01*
G01*
X32157500Y-11405000D02*
X32207500Y-11455000D01*
X32207500Y-11405000D02*
X32157500Y-11455000D01*
X32167500Y-10815000D02*
X32167500Y-12045000D01*
X32197500Y-10815000D02*
X32197500Y-12045000D01*
X32167500Y-12045000D02*
G75*
G03*
X32197500Y-12045000I15000J0D01*
G01*
X32197500Y-10815000D02*
G75*
G03*
X32167500Y-10815000I-15000J0D01*
G01*
X32562500Y-3785000D02*
X32612500Y-3835000D01*
X32612500Y-3785000D02*
X32562500Y-3835000D01*
X32572500Y-3195000D02*
X32572500Y-4425000D01*
X32602500Y-3195000D02*
X32602500Y-4425000D01*
X32572500Y-4425000D02*
G75*
G03*
X32602500Y-4425000I15000J0D01*
G01*
X32602500Y-3195000D02*
G75*
G03*
X32572500Y-3195000I-15000J0D01*
G01*
X32562500Y-5690000D02*
X32612500Y-5740000D01*
X32612500Y-5690000D02*
X32562500Y-5740000D01*
X32572500Y-5100000D02*
X32572500Y-6330000D01*
X32602500Y-5100000D02*
X32602500Y-6330000D01*
X32572500Y-6330000D02*
G75*
G03*
X32602500Y-6330000I15000J0D01*
G01*
X32602500Y-5100000D02*
G75*
G03*
X32572500Y-5100000I-15000J0D01*
G01*
X32562500Y-11405000D02*
X32612500Y-11455000D01*
X32612500Y-11405000D02*
X32562500Y-11455000D01*
X32572500Y-10815000D02*
X32572500Y-12045000D01*
X32602500Y-10815000D02*
X32602500Y-12045000D01*
X32572500Y-12045000D02*
G75*
G03*
X32602500Y-12045000I15000J0D01*
G01*
X32602500Y-10815000D02*
G75*
G03*
X32572500Y-10815000I-15000J0D01*
G01*
X33312500Y-3170000D02*
X33362500Y-3220000D01*
X33362500Y-3170000D02*
X33312500Y-3220000D01*
X32587500Y-3210000D02*
X34087500Y-3210000D01*
X32587500Y-3180000D02*
X34087500Y-3180000D01*
X34087500Y-3210000D02*
G75*
G03*
X34087500Y-3180000I0J15000D01*
G01*
X32587500Y-3180000D02*
G75*
G03*
X32587500Y-3210000I0J-15000D01*
G01*
X33312500Y-4400000D02*
X33362500Y-4450000D01*
X33362500Y-4400000D02*
X33312500Y-4450000D01*
X32587500Y-4440000D02*
X34087500Y-4440000D01*
X32587500Y-4410000D02*
X34087500Y-4410000D01*
X34087500Y-4440000D02*
G75*
G03*
X34087500Y-4410000I0J15000D01*
G01*
X32587500Y-4410000D02*
G75*
G03*
X32587500Y-4440000I0J-15000D01*
G01*
X33312500Y-5075000D02*
X33362500Y-5125000D01*
X33362500Y-5075000D02*
X33312500Y-5125000D01*
X32587500Y-5115000D02*
X34087500Y-5115000D01*
X32587500Y-5085000D02*
X34087500Y-5085000D01*
X34087500Y-5115000D02*
G75*
G03*
X34087500Y-5085000I0J15000D01*
G01*
X32587500Y-5085000D02*
G75*
G03*
X32587500Y-5115000I0J-15000D01*
G01*
X33312500Y-6305000D02*
X33362500Y-6355000D01*
X33362500Y-6305000D02*
X33312500Y-6355000D01*
X32587500Y-6345000D02*
X34087500Y-6345000D01*
X32587500Y-6315000D02*
X34087500Y-6315000D01*
X34087500Y-6345000D02*
G75*
G03*
X34087500Y-6315000I0J15000D01*
G01*
X32587500Y-6315000D02*
G75*
G03*
X32587500Y-6345000I0J-15000D01*
G01*
X33312500Y-10790000D02*
X33362500Y-10840000D01*
X33362500Y-10790000D02*
X33312500Y-10840000D01*
X32587500Y-10830000D02*
X34087500Y-10830000D01*
X32587500Y-10800000D02*
X34087500Y-10800000D01*
X34087500Y-10830000D02*
G75*
G03*
X34087500Y-10800000I0J15000D01*
G01*
X32587500Y-10800000D02*
G75*
G03*
X32587500Y-10830000I0J-15000D01*
G01*
X33312500Y-12020000D02*
X33362500Y-12070000D01*
X33362500Y-12020000D02*
X33312500Y-12070000D01*
X32587500Y-12060000D02*
X34087500Y-12060000D01*
X32587500Y-12030000D02*
X34087500Y-12030000D01*
X34087500Y-12060000D02*
G75*
G03*
X34087500Y-12030000I0J15000D01*
G01*
X32587500Y-12030000D02*
G75*
G03*
X32587500Y-12060000I0J-15000D01*
G01*
X34062500Y-3785000D02*
X34112500Y-3835000D01*
X34112500Y-3785000D02*
X34062500Y-3835000D01*
X34072500Y-3195000D02*
X34072500Y-4425000D01*
X34102500Y-3195000D02*
X34102500Y-4425000D01*
X34072500Y-4425000D02*
G75*
G03*
X34102500Y-4425000I15000J0D01*
G01*
X34102500Y-3195000D02*
G75*
G03*
X34072500Y-3195000I-15000J0D01*
G01*
X34062500Y-5690000D02*
X34112500Y-5740000D01*
X34112500Y-5690000D02*
X34062500Y-5740000D01*
X34072500Y-5100000D02*
X34072500Y-6330000D01*
X34102500Y-5100000D02*
X34102500Y-6330000D01*
X34072500Y-6330000D02*
G75*
G03*
X34102500Y-6330000I15000J0D01*
G01*
X34102500Y-5100000D02*
G75*
G03*
X34072500Y-5100000I-15000J0D01*
G01*
X34062500Y-11405000D02*
X34112500Y-11455000D01*
X34112500Y-11405000D02*
X34062500Y-11455000D01*
X34072500Y-10815000D02*
X34072500Y-12045000D01*
X34102500Y-10815000D02*
X34102500Y-12045000D01*
X34072500Y-12045000D02*
G75*
G03*
X34102500Y-12045000I15000J0D01*
G01*
X34102500Y-10815000D02*
G75*
G03*
X34072500Y-10815000I-15000J0D01*
G01*
D13*
X2931428Y-13420714D02*
X2931428Y-13120714D01*
X3002857Y-13120714D01*
X3045714Y-13135000D01*
X3074286Y-13163571D01*
X3088571Y-13192143D01*
X3102857Y-13249286D01*
X3102857Y-13292143D01*
X3088571Y-13349286D01*
X3074286Y-13377857D01*
X3045714Y-13406429D01*
X3002857Y-13420714D01*
X2931428Y-13420714D01*
X3231428Y-13420714D02*
X3231428Y-13220714D01*
X3231428Y-13277857D02*
X3245714Y-13249286D01*
X3260000Y-13235000D01*
X3288571Y-13220714D01*
X3317143Y-13220714D01*
X3417143Y-13420714D02*
X3417143Y-13220714D01*
X3417143Y-13120714D02*
X3402857Y-13135000D01*
X3417143Y-13149286D01*
X3431428Y-13135000D01*
X3417143Y-13120714D01*
X3417143Y-13149286D01*
X3602857Y-13420714D02*
X3574286Y-13406429D01*
X3560000Y-13377857D01*
X3560000Y-13120714D01*
X3760000Y-13420714D02*
X3731428Y-13406429D01*
X3717143Y-13377857D01*
X3717143Y-13120714D01*
X4102857Y-13420714D02*
X4102857Y-13120714D01*
X4202857Y-13335000D01*
X4302857Y-13120714D01*
X4302857Y-13420714D01*
X4574286Y-13420714D02*
X4574286Y-13263571D01*
X4560000Y-13235000D01*
X4531428Y-13220714D01*
X4474286Y-13220714D01*
X4445714Y-13235000D01*
X4574286Y-13406429D02*
X4545714Y-13420714D01*
X4474286Y-13420714D01*
X4445714Y-13406429D01*
X4431428Y-13377857D01*
X4431428Y-13349286D01*
X4445714Y-13320714D01*
X4474286Y-13306429D01*
X4545714Y-13306429D01*
X4574286Y-13292143D01*
X4717143Y-13220714D02*
X4717143Y-13520714D01*
X4717143Y-13235000D02*
X4745714Y-13220714D01*
X4802857Y-13220714D01*
X4831428Y-13235000D01*
X4845714Y-13249286D01*
X4860000Y-13277857D01*
X4860000Y-13363571D01*
X4845714Y-13392143D01*
X4831428Y-13406429D01*
X4802857Y-13420714D01*
X4745714Y-13420714D01*
X4717143Y-13406429D01*
X4988571Y-13392143D02*
X5002857Y-13406429D01*
X4988571Y-13420714D01*
X4974286Y-13406429D01*
X4988571Y-13392143D01*
X4988571Y-13420714D01*
X4988571Y-13235000D02*
X5002857Y-13249286D01*
X4988571Y-13263571D01*
X4974286Y-13249286D01*
X4988571Y-13235000D01*
X4988571Y-13263571D01*
X2595000Y-13890000D02*
X2645000Y-13940000D01*
X2645000Y-13890000D02*
X2595000Y-13940000D01*
X2988571Y-13750714D02*
X3017143Y-13750714D01*
X3045714Y-13765000D01*
X3060000Y-13779286D01*
X3074286Y-13807857D01*
X3088571Y-13865000D01*
X3088571Y-13936429D01*
X3074286Y-13993571D01*
X3060000Y-14022143D01*
X3045714Y-14036429D01*
X3017143Y-14050714D01*
X2988571Y-14050714D01*
X2960000Y-14036429D01*
X2945714Y-14022143D01*
X2931428Y-13993571D01*
X2917143Y-13936429D01*
X2917143Y-13865000D01*
X2931428Y-13807857D01*
X2945714Y-13779286D01*
X2960000Y-13765000D01*
X2988571Y-13750714D01*
X3217143Y-14022143D02*
X3231428Y-14036429D01*
X3217143Y-14050714D01*
X3202857Y-14036429D01*
X3217143Y-14022143D01*
X3217143Y-14050714D01*
X3502857Y-13750714D02*
X3360000Y-13750714D01*
X3345714Y-13893571D01*
X3360000Y-13879286D01*
X3388571Y-13865000D01*
X3460000Y-13865000D01*
X3488571Y-13879286D01*
X3502857Y-13893571D01*
X3517143Y-13922143D01*
X3517143Y-13993571D01*
X3502857Y-14022143D01*
X3488571Y-14036429D01*
X3460000Y-14050714D01*
X3388571Y-14050714D01*
X3360000Y-14036429D01*
X3345714Y-14022143D01*
X3702857Y-13750714D02*
X3731428Y-13750714D01*
X3760000Y-13765000D01*
X3774286Y-13779286D01*
X3788571Y-13807857D01*
X3802857Y-13865000D01*
X3802857Y-13936429D01*
X3788571Y-13993571D01*
X3774286Y-14022143D01*
X3760000Y-14036429D01*
X3731428Y-14050714D01*
X3702857Y-14050714D01*
X3674286Y-14036429D01*
X3660000Y-14022143D01*
X3645714Y-13993571D01*
X3631428Y-13936429D01*
X3631428Y-13865000D01*
X3645714Y-13807857D01*
X3660000Y-13779286D01*
X3674286Y-13765000D01*
X3702857Y-13750714D01*
X3988571Y-13750714D02*
X4017143Y-13750714D01*
X4045714Y-13765000D01*
X4060000Y-13779286D01*
X4074286Y-13807857D01*
X4088571Y-13865000D01*
X4088571Y-13936429D01*
X4074286Y-13993571D01*
X4060000Y-14022143D01*
X4045714Y-14036429D01*
X4017143Y-14050714D01*
X3988571Y-14050714D01*
X3960000Y-14036429D01*
X3945714Y-14022143D01*
X3931428Y-13993571D01*
X3917143Y-13936429D01*
X3917143Y-13865000D01*
X3931428Y-13807857D01*
X3945714Y-13779286D01*
X3960000Y-13765000D01*
X3988571Y-13750714D01*
X4217143Y-14050714D02*
X4217143Y-13850714D01*
X4217143Y-13879286D02*
X4231428Y-13865000D01*
X4260000Y-13850714D01*
X4302857Y-13850714D01*
X4331428Y-13865000D01*
X4345714Y-13893571D01*
X4345714Y-14050714D01*
X4345714Y-13893571D02*
X4360000Y-13865000D01*
X4388571Y-13850714D01*
X4431428Y-13850714D01*
X4460000Y-13865000D01*
X4474286Y-13893571D01*
X4474286Y-14050714D01*
X4617143Y-14050714D02*
X4617143Y-13850714D01*
X4617143Y-13879286D02*
X4631428Y-13865000D01*
X4660000Y-13850714D01*
X4702857Y-13850714D01*
X4731428Y-13865000D01*
X4745714Y-13893571D01*
X4745714Y-14050714D01*
X4745714Y-13893571D02*
X4760000Y-13865000D01*
X4788571Y-13850714D01*
X4831428Y-13850714D01*
X4860000Y-13865000D01*
X4874286Y-13893571D01*
X4874286Y-14050714D01*
X5460000Y-13736429D02*
X5202857Y-14122143D01*
X5845714Y-13750714D02*
X5874286Y-13750714D01*
X5902857Y-13765000D01*
X5917143Y-13779286D01*
X5931428Y-13807857D01*
X5945714Y-13865000D01*
X5945714Y-13936429D01*
X5931428Y-13993571D01*
X5917143Y-14022143D01*
X5902857Y-14036429D01*
X5874286Y-14050714D01*
X5845714Y-14050714D01*
X5817143Y-14036429D01*
X5802857Y-14022143D01*
X5788571Y-13993571D01*
X5774286Y-13936429D01*
X5774286Y-13865000D01*
X5788571Y-13807857D01*
X5802857Y-13779286D01*
X5817143Y-13765000D01*
X5845714Y-13750714D01*
X6074286Y-14022143D02*
X6088571Y-14036429D01*
X6074286Y-14050714D01*
X6060000Y-14036429D01*
X6074286Y-14022143D01*
X6074286Y-14050714D01*
X6274286Y-13750714D02*
X6302857Y-13750714D01*
X6331428Y-13765000D01*
X6345714Y-13779286D01*
X6360000Y-13807857D01*
X6374286Y-13865000D01*
X6374286Y-13936429D01*
X6360000Y-13993571D01*
X6345714Y-14022143D01*
X6331428Y-14036429D01*
X6302857Y-14050714D01*
X6274286Y-14050714D01*
X6245714Y-14036429D01*
X6231428Y-14022143D01*
X6217143Y-13993571D01*
X6202857Y-13936429D01*
X6202857Y-13865000D01*
X6217143Y-13807857D01*
X6231428Y-13779286D01*
X6245714Y-13765000D01*
X6274286Y-13750714D01*
X6660000Y-14050714D02*
X6488571Y-14050714D01*
X6574286Y-14050714D02*
X6574286Y-13750714D01*
X6545714Y-13793571D01*
X6517143Y-13822143D01*
X6488571Y-13836429D01*
X6802857Y-14050714D02*
X6860000Y-14050714D01*
X6888571Y-14036429D01*
X6902857Y-14022143D01*
X6931428Y-13979286D01*
X6945714Y-13922143D01*
X6945714Y-13807857D01*
X6931428Y-13779286D01*
X6917143Y-13765000D01*
X6888571Y-13750714D01*
X6831428Y-13750714D01*
X6802857Y-13765000D01*
X6788571Y-13779286D01*
X6774286Y-13807857D01*
X6774286Y-13879286D01*
X6788571Y-13907857D01*
X6802857Y-13922143D01*
X6831428Y-13936429D01*
X6888571Y-13936429D01*
X6917143Y-13922143D01*
X6931428Y-13907857D01*
X6945714Y-13879286D01*
X7045714Y-13750714D02*
X7245714Y-13750714D01*
X7117143Y-14050714D01*
X7345714Y-13750714D02*
X7345714Y-13807857D01*
X7460000Y-13750714D02*
X7460000Y-13807857D01*
X7902857Y-14165000D02*
X7888571Y-14150714D01*
X7860000Y-14107857D01*
X7845714Y-14079286D01*
X7831428Y-14036429D01*
X7817143Y-13965000D01*
X7817143Y-13907857D01*
X7831428Y-13836429D01*
X7845714Y-13793571D01*
X7860000Y-13765000D01*
X7888571Y-13722143D01*
X7902857Y-13707857D01*
X8074286Y-13750714D02*
X8102857Y-13750714D01*
X8131428Y-13765000D01*
X8145714Y-13779286D01*
X8160000Y-13807857D01*
X8174286Y-13865000D01*
X8174286Y-13936429D01*
X8160000Y-13993571D01*
X8145714Y-14022143D01*
X8131428Y-14036429D01*
X8102857Y-14050714D01*
X8074286Y-14050714D01*
X8045714Y-14036429D01*
X8031428Y-14022143D01*
X8017143Y-13993571D01*
X8002857Y-13936429D01*
X8002857Y-13865000D01*
X8017143Y-13807857D01*
X8031428Y-13779286D01*
X8045714Y-13765000D01*
X8074286Y-13750714D01*
X8531428Y-14050714D02*
X8531428Y-13750714D01*
X8660000Y-14050714D02*
X8660000Y-13893571D01*
X8645714Y-13865000D01*
X8617143Y-13850714D01*
X8574286Y-13850714D01*
X8545714Y-13865000D01*
X8531428Y-13879286D01*
X8845714Y-14050714D02*
X8817143Y-14036429D01*
X8802857Y-14022143D01*
X8788571Y-13993571D01*
X8788571Y-13907857D01*
X8802857Y-13879286D01*
X8817143Y-13865000D01*
X8845714Y-13850714D01*
X8888571Y-13850714D01*
X8917143Y-13865000D01*
X8931428Y-13879286D01*
X8945714Y-13907857D01*
X8945714Y-13993571D01*
X8931428Y-14022143D01*
X8917143Y-14036429D01*
X8888571Y-14050714D01*
X8845714Y-14050714D01*
X9117143Y-14050714D02*
X9088571Y-14036429D01*
X9074286Y-14007857D01*
X9074286Y-13750714D01*
X9345714Y-14036429D02*
X9317143Y-14050714D01*
X9260000Y-14050714D01*
X9231428Y-14036429D01*
X9217143Y-14007857D01*
X9217143Y-13893571D01*
X9231428Y-13865000D01*
X9260000Y-13850714D01*
X9317143Y-13850714D01*
X9345714Y-13865000D01*
X9360000Y-13893571D01*
X9360000Y-13922143D01*
X9217143Y-13950714D01*
X9474286Y-14036429D02*
X9502857Y-14050714D01*
X9560000Y-14050714D01*
X9588571Y-14036429D01*
X9602857Y-14007857D01*
X9602857Y-13993571D01*
X9588571Y-13965000D01*
X9560000Y-13950714D01*
X9517143Y-13950714D01*
X9488571Y-13936429D01*
X9474286Y-13907857D01*
X9474286Y-13893571D01*
X9488571Y-13865000D01*
X9517143Y-13850714D01*
X9560000Y-13850714D01*
X9588571Y-13865000D01*
X9960000Y-13936429D02*
X10188571Y-13936429D01*
X10074286Y-14050714D02*
X10074286Y-13822143D01*
X10545714Y-13779286D02*
X10560000Y-13765000D01*
X10588571Y-13750714D01*
X10660000Y-13750714D01*
X10688571Y-13765000D01*
X10702857Y-13779286D01*
X10717143Y-13807857D01*
X10717143Y-13836429D01*
X10702857Y-13879286D01*
X10531428Y-14050714D01*
X10717143Y-14050714D01*
X10888571Y-13879286D02*
X10860000Y-13865000D01*
X10845714Y-13850714D01*
X10831428Y-13822143D01*
X10831428Y-13807857D01*
X10845714Y-13779286D01*
X10860000Y-13765000D01*
X10888571Y-13750714D01*
X10945714Y-13750714D01*
X10974286Y-13765000D01*
X10988571Y-13779286D01*
X11002857Y-13807857D01*
X11002857Y-13822143D01*
X10988571Y-13850714D01*
X10974286Y-13865000D01*
X10945714Y-13879286D01*
X10888571Y-13879286D01*
X10860000Y-13893571D01*
X10845714Y-13907857D01*
X10831428Y-13936429D01*
X10831428Y-13993571D01*
X10845714Y-14022143D01*
X10860000Y-14036429D01*
X10888571Y-14050714D01*
X10945714Y-14050714D01*
X10974286Y-14036429D01*
X10988571Y-14022143D01*
X11002857Y-13993571D01*
X11002857Y-13936429D01*
X10988571Y-13907857D01*
X10974286Y-13893571D01*
X10945714Y-13879286D01*
X11188571Y-13750714D02*
X11217143Y-13750714D01*
X11245714Y-13765000D01*
X11260000Y-13779286D01*
X11274286Y-13807857D01*
X11288571Y-13865000D01*
X11288571Y-13936429D01*
X11274286Y-13993571D01*
X11260000Y-14022143D01*
X11245714Y-14036429D01*
X11217143Y-14050714D01*
X11188571Y-14050714D01*
X11160000Y-14036429D01*
X11145714Y-14022143D01*
X11131428Y-13993571D01*
X11117143Y-13936429D01*
X11117143Y-13865000D01*
X11131428Y-13807857D01*
X11145714Y-13779286D01*
X11160000Y-13765000D01*
X11188571Y-13750714D01*
X11631428Y-14036429D02*
X11660000Y-14050714D01*
X11717143Y-14050714D01*
X11745714Y-14036429D01*
X11760000Y-14007857D01*
X11760000Y-13993571D01*
X11745714Y-13965000D01*
X11717143Y-13950714D01*
X11674286Y-13950714D01*
X11645714Y-13936429D01*
X11631428Y-13907857D01*
X11631428Y-13893571D01*
X11645714Y-13865000D01*
X11674286Y-13850714D01*
X11717143Y-13850714D01*
X11745714Y-13865000D01*
X11931428Y-14050714D02*
X11902857Y-14036429D01*
X11888571Y-14007857D01*
X11888571Y-13750714D01*
X12088571Y-14050714D02*
X12060000Y-14036429D01*
X12045714Y-14022143D01*
X12031428Y-13993571D01*
X12031428Y-13907857D01*
X12045714Y-13879286D01*
X12060000Y-13865000D01*
X12088571Y-13850714D01*
X12131428Y-13850714D01*
X12160000Y-13865000D01*
X12174286Y-13879286D01*
X12188571Y-13907857D01*
X12188571Y-13993571D01*
X12174286Y-14022143D01*
X12160000Y-14036429D01*
X12131428Y-14050714D01*
X12088571Y-14050714D01*
X12274286Y-13850714D02*
X12388571Y-13850714D01*
X12317143Y-13750714D02*
X12317143Y-14007857D01*
X12331428Y-14036429D01*
X12360000Y-14050714D01*
X12388571Y-14050714D01*
X12474286Y-14036429D02*
X12502857Y-14050714D01*
X12560000Y-14050714D01*
X12588571Y-14036429D01*
X12602857Y-14007857D01*
X12602857Y-13993571D01*
X12588571Y-13965000D01*
X12560000Y-13950714D01*
X12517143Y-13950714D01*
X12488571Y-13936429D01*
X12474286Y-13907857D01*
X12474286Y-13893571D01*
X12488571Y-13865000D01*
X12517143Y-13850714D01*
X12560000Y-13850714D01*
X12588571Y-13865000D01*
X12702857Y-14165000D02*
X12717143Y-14150714D01*
X12745714Y-14107857D01*
X12760000Y-14079286D01*
X12774286Y-14036429D01*
X12788571Y-13965000D01*
X12788571Y-13907857D01*
X12774286Y-13836429D01*
X12760000Y-13793571D01*
X12745714Y-13765000D01*
X12717143Y-13722143D01*
X12702857Y-13707857D01*
M02*
