M48
; DRILL file {KiCad (5.1.12)-1} date 12/15/21 02:21:55
; FORMAT={-:-/ absolute / metric / decimal}
; #@! TF.CreationDate,2021-12-15T02:21:55-05:00
; #@! TF.GenerationSoftware,Kicad,Pcbnew,(5.1.12)-1
; #@! TF.FileFunction,Plated,1,2,PTH
FMAT,2
METRIC
T1C0.500
%
G90
G05
T1
X30.6Y-31.95G85X30.6Y-44.25
G05
X32.981Y-70.05G85X32.981Y-82.35
G05
X32.981Y-108.15G85X32.981Y-120.45
G05
X35.362Y-51.0G85X35.362Y-63.3
G05
X37.744Y-70.05G85X37.744Y-82.35
G05
X30.6Y-31.95G85X45.6Y-31.95
G05
X30.6Y-44.25G85X45.6Y-44.25
G05
X32.981Y-70.05G85X47.981Y-70.05
G05
X32.981Y-82.35G85X47.981Y-82.35
G05
X32.981Y-108.15G85X47.981Y-108.15
G05
X32.981Y-120.45G85X47.981Y-120.45
G05
X42.506Y-89.1G85X42.506Y-101.4
G05
X35.362Y-51.0G85X50.362Y-51.0
G05
X35.362Y-63.3G85X50.362Y-63.3
G05
X37.744Y-70.05G85X52.744Y-70.05
G05
X37.744Y-82.35G85X52.744Y-82.35
G05
X45.6Y-31.95G85X45.6Y-44.25
G05
X47.981Y-70.05G85X47.981Y-82.35
G05
X47.981Y-108.15G85X47.981Y-120.45
G05
X49.65Y-31.95G85X49.65Y-44.25
G05
X42.506Y-89.1G85X57.506Y-89.1
G05
X42.506Y-101.4G85X57.506Y-101.4
G05
X50.362Y-51.0G85X50.362Y-63.3
G05
X52.744Y-70.05G85X52.744Y-82.35
G05
X54.412Y-108.15G85X54.412Y-120.45
G05
X56.794Y-108.15G85X56.794Y-120.45
G05
X49.65Y-31.95G85X64.65Y-31.95
G05
X49.65Y-44.25G85X64.65Y-44.25
G05
X57.506Y-89.1G85X57.506Y-101.4
G05
X59.175Y-51.0G85X59.175Y-63.3
G05
X54.412Y-108.15G85X69.412Y-108.15
G05
X54.412Y-120.45G85X69.412Y-120.45
G05
X63.938Y-70.05G85X63.938Y-82.35
G05
X56.794Y-108.15G85X71.794Y-108.15
G05
X56.794Y-120.45G85X71.794Y-120.45
G05
X64.65Y-31.95G85X64.65Y-44.25
G05
X59.175Y-51.0G85X74.175Y-51.0
G05
X59.175Y-63.3G85X74.175Y-63.3
G05
X68.7Y-31.95G85X68.7Y-44.25
G05
X69.412Y-108.15G85X69.412Y-120.45
G05
X63.938Y-70.05G85X78.938Y-70.05
G05
X63.938Y-82.35G85X78.938Y-82.35
G05
X71.794Y-108.15G85X71.794Y-120.45
G05
X73.462Y-89.1G85X73.462Y-101.4
G05
X74.175Y-51.0G85X74.175Y-63.3
G05
X75.844Y-108.15G85X75.844Y-120.45
G05
X68.7Y-31.95G85X83.7Y-31.95
G05
X68.7Y-44.25G85X83.7Y-44.25
G05
X78.225Y-51.0G85X78.225Y-63.3
G05
X78.938Y-70.05G85X78.938Y-82.35
G05
X80.606Y-108.15G85X80.606Y-120.45
G05
X73.462Y-89.1G85X88.462Y-89.1
G05
X73.462Y-101.4G85X88.462Y-101.4
G05
X82.987Y-70.05G85X82.987Y-82.35
G05
X75.844Y-108.15G85X90.844Y-108.15
G05
X75.844Y-120.45G85X90.844Y-120.45
G05
X83.7Y-31.95G85X83.7Y-44.25
G05
X78.225Y-51.0G85X93.225Y-51.0
G05
X78.225Y-63.3G85X93.225Y-63.3
G05
X87.75Y-31.95G85X87.75Y-44.25
G05
X80.606Y-108.15G85X95.606Y-108.15
G05
X80.606Y-120.45G85X95.606Y-120.45
G05
X88.462Y-89.1G85X88.462Y-101.4
G05
X82.987Y-70.05G85X97.987Y-70.05
G05
X82.987Y-82.35G85X97.987Y-82.35
G05
X90.844Y-108.15G85X90.844Y-120.45
G05
X92.513Y-89.1G85X92.513Y-101.4
G05
X93.225Y-51.0G85X93.225Y-63.3
G05
X87.75Y-31.95G85X102.75Y-31.95
G05
X87.75Y-44.25G85X102.75Y-44.25
G05
X95.606Y-108.15G85X95.606Y-120.45
G05
X97.275Y-51.0G85X97.275Y-63.3
G05
X97.987Y-70.05G85X97.987Y-82.35
G05
X92.513Y-89.1G85X107.512Y-89.1
G05
X92.513Y-101.4G85X107.512Y-101.4
G05
X102.037Y-70.05G85X102.037Y-82.35
G05
X102.75Y-31.95G85X102.75Y-44.25
G05
X97.275Y-51.0G85X112.275Y-51.0
G05
X97.275Y-63.3G85X112.275Y-63.3
G05
X106.8Y-31.95G85X106.8Y-44.25
G05
X107.512Y-89.1G85X107.512Y-101.4
G05
X102.037Y-70.05G85X117.037Y-70.05
G05
X102.037Y-82.35G85X117.037Y-82.35
G05
X111.562Y-89.1G85X111.562Y-101.4
G05
X112.275Y-51.0G85X112.275Y-63.3
G05
X106.8Y-31.95G85X121.8Y-31.95
G05
X106.8Y-44.25G85X121.8Y-44.25
G05
X116.325Y-51.0G85X116.325Y-63.3
G05
X117.037Y-70.05G85X117.037Y-82.35
G05
X111.562Y-89.1G85X126.562Y-89.1
G05
X111.562Y-101.4G85X126.562Y-101.4
G05
X121.087Y-70.05G85X121.087Y-82.35
G05
X121.8Y-31.95G85X121.8Y-44.25
G05
X116.325Y-51.0G85X131.325Y-51.0
G05
X116.325Y-63.3G85X131.325Y-63.3
G05
X125.85Y-31.95G85X125.85Y-44.25
G05
X126.562Y-89.1G85X126.562Y-101.4
G05
X121.087Y-70.05G85X136.088Y-70.05
G05
X121.087Y-82.35G85X136.088Y-82.35
G05
X130.612Y-89.1G85X130.612Y-101.4
G05
X131.325Y-51.0G85X131.325Y-63.3
G05
X125.85Y-31.95G85X140.85Y-31.95
G05
X125.85Y-44.25G85X140.85Y-44.25
G05
X135.375Y-51.0G85X135.375Y-63.3
G05
X136.088Y-70.05G85X136.088Y-82.35
G05
X130.612Y-89.1G85X145.612Y-89.1
G05
X130.612Y-101.4G85X145.612Y-101.4
G05
X140.137Y-70.05G85X140.137Y-82.35
G05
X140.85Y-31.95G85X140.85Y-44.25
G05
X135.375Y-51.0G85X150.375Y-51.0
G05
X135.375Y-63.3G85X150.375Y-63.3
G05
X144.9Y-31.95G85X144.9Y-44.25
G05
X145.612Y-89.1G85X145.612Y-101.4
G05
X147.281Y-108.15G85X147.281Y-120.45
G05
X140.137Y-70.05G85X155.137Y-70.05
G05
X140.137Y-82.35G85X155.137Y-82.35
G05
X149.662Y-89.1G85X149.662Y-101.4
G05
X150.375Y-51.0G85X150.375Y-63.3
G05
X144.9Y-31.95G85X159.9Y-31.95
G05
X144.9Y-44.25G85X159.9Y-44.25
G05
X154.425Y-51.0G85X154.425Y-63.3
G05
X147.281Y-108.15G85X162.281Y-108.15
G05
X147.281Y-120.45G85X162.281Y-120.45
G05
X155.137Y-70.05G85X155.137Y-82.35
G05
X149.662Y-89.1G85X164.662Y-89.1
G05
X149.662Y-101.4G85X164.662Y-101.4
G05
X159.188Y-70.05G85X159.188Y-82.35
G05
X159.188Y-108.15G85X159.188Y-120.45
G05
X159.9Y-31.95G85X159.9Y-44.25
G05
X154.425Y-51.0G85X169.425Y-51.0
G05
X154.425Y-63.3G85X169.425Y-63.3
G05
X162.281Y-108.15G85X162.281Y-120.45
G05
X163.95Y-31.95G85X163.95Y-44.25
G05
X164.662Y-89.1G85X164.662Y-101.4
G05
X159.188Y-70.05G85X174.188Y-70.05
G05
X159.188Y-82.35G85X174.188Y-82.35
G05
X159.188Y-108.15G85X174.188Y-108.15
G05
X159.188Y-120.45G85X174.188Y-120.45
G05
X168.713Y-89.1G85X168.713Y-101.4
G05
X169.425Y-51.0G85X169.425Y-63.3
G05
X163.95Y-31.95G85X178.95Y-31.95
G05
X163.95Y-44.25G85X178.95Y-44.25
G05
X173.475Y-51.0G85X173.475Y-63.3
G05
X174.188Y-70.05G85X174.188Y-82.35
G05
X174.188Y-108.15G85X174.188Y-120.45
G05
X168.713Y-89.1G85X183.713Y-89.1
G05
X168.713Y-101.4G85X183.713Y-101.4
G05
X178.237Y-70.05G85X178.237Y-82.35
G05
X178.95Y-31.95G85X178.95Y-44.25
G05
X173.475Y-51.0G85X188.475Y-51.0
G05
X173.475Y-63.3G85X188.475Y-63.3
G05
X183.0Y-31.95G85X183.0Y-44.25
G05
X183.713Y-89.1G85X183.713Y-101.4
G05
X178.237Y-70.05G85X193.237Y-70.05
G05
X178.237Y-82.35G85X193.237Y-82.35
G05
X187.762Y-89.1G85X187.762Y-101.4
G05
X188.475Y-51.0G85X188.475Y-63.3
G05
X183.0Y-31.95G85X198.0Y-31.95
G05
X183.0Y-44.25G85X198.0Y-44.25
G05
X192.525Y-51.0G85X192.525Y-63.3
G05
X193.237Y-70.05G85X193.237Y-82.35
G05
X187.762Y-89.1G85X202.762Y-89.1
G05
X187.762Y-101.4G85X202.762Y-101.4
G05
X197.287Y-70.05G85X197.287Y-82.35
G05
X198.0Y-31.95G85X198.0Y-44.25
G05
X192.525Y-51.0G85X207.525Y-51.0
G05
X192.525Y-63.3G85X207.525Y-63.3
G05
X202.05Y-31.95G85X202.05Y-44.25
G05
X202.762Y-89.1G85X202.762Y-101.4
G05
X197.287Y-70.05G85X212.287Y-70.05
G05
X197.287Y-82.35G85X212.287Y-82.35
G05
X206.812Y-89.1G85X206.812Y-101.4
G05
X207.525Y-51.0G85X207.525Y-63.3
G05
X202.05Y-31.95G85X217.05Y-31.95
G05
X202.05Y-44.25G85X217.05Y-44.25
G05
X211.575Y-51.0G85X211.575Y-63.3
G05
X212.287Y-70.05G85X212.287Y-82.35
G05
X206.812Y-89.1G85X221.812Y-89.1
G05
X206.812Y-101.4G85X221.812Y-101.4
G05
X216.337Y-70.05G85X216.337Y-82.35
G05
X217.05Y-31.95G85X217.05Y-44.25
G05
X218.719Y-108.15G85X218.719Y-120.45
G05
X211.575Y-51.0G85X226.575Y-51.0
G05
X211.575Y-63.3G85X226.575Y-63.3
G05
X221.1Y-31.95G85X221.1Y-44.25
G05
X221.812Y-89.1G85X221.812Y-101.4
G05
X216.337Y-70.05G85X231.337Y-70.05
G05
X216.337Y-82.35G85X231.337Y-82.35
G05
X225.862Y-89.1G85X225.862Y-101.4
G05
X218.719Y-108.15G85X233.719Y-108.15
G05
X218.719Y-120.45G85X233.719Y-120.45
G05
X226.575Y-51.0G85X226.575Y-63.3
G05
X221.1Y-31.95G85X236.1Y-31.95
G05
X221.1Y-44.25G85X236.1Y-44.25
G05
X230.625Y-51.0G85X230.625Y-63.3
G05
X231.337Y-70.05G85X231.337Y-82.35
G05
X225.862Y-89.1G85X240.862Y-89.1
G05
X225.862Y-101.4G85X240.862Y-101.4
G05
X233.719Y-108.15G85X233.719Y-120.45
G05
X235.387Y-70.05G85X235.387Y-82.35
G05
X236.1Y-31.95G85X236.1Y-44.25
G05
X230.625Y-51.0G85X245.625Y-51.0
G05
X230.625Y-63.3G85X245.625Y-63.3
G05
X240.15Y-31.95G85X240.15Y-44.25
G05
X240.862Y-89.1G85X240.862Y-101.4
G05
X242.531Y-108.15G85X242.531Y-120.45
G05
X235.387Y-70.05G85X250.387Y-70.05
G05
X235.387Y-82.35G85X250.387Y-82.35
G05
X244.912Y-89.1G85X244.912Y-101.4
G05
X245.625Y-51.0G85X245.625Y-63.3
G05
X240.15Y-31.95G85X255.15Y-31.95
G05
X240.15Y-44.25G85X255.15Y-44.25
G05
X249.675Y-51.0G85X249.675Y-63.3
G05
X242.531Y-108.15G85X257.531Y-108.15
G05
X242.531Y-120.45G85X257.531Y-120.45
G05
X250.387Y-70.05G85X250.387Y-82.35
G05
X244.912Y-89.1G85X259.912Y-89.1
G05
X244.912Y-101.4G85X259.912Y-101.4
G05
X254.438Y-70.05G85X254.438Y-82.35
G05
X255.15Y-31.95G85X255.15Y-44.25
G05
X249.675Y-51.0G85X264.675Y-51.0
G05
X249.675Y-63.3G85X264.675Y-63.3
G05
X257.531Y-108.15G85X257.531Y-120.45
G05
X259.2Y-31.95G85X259.2Y-44.25
G05
X259.912Y-89.1G85X259.912Y-101.4
G05
X254.438Y-70.05G85X269.438Y-70.05
G05
X254.438Y-82.35G85X269.438Y-82.35
G05
X264.675Y-51.0G85X264.675Y-63.3
G05
X266.344Y-108.15G85X266.344Y-120.45
G05
X259.2Y-31.95G85X274.2Y-31.95
G05
X259.2Y-44.25G85X274.2Y-44.25
G05
X268.725Y-51.0G85X268.725Y-63.3
G05
X269.438Y-70.05G85X269.438Y-82.35
G05
X266.344Y-108.15G85X281.344Y-108.15
G05
X266.344Y-120.45G85X281.344Y-120.45
G05
X274.2Y-31.95G85X274.2Y-44.25
G05
X275.869Y-89.1G85X275.869Y-101.4
G05
X268.725Y-51.0G85X283.725Y-51.0
G05
X268.725Y-63.3G85X283.725Y-63.3
G05
X281.344Y-108.15G85X281.344Y-120.45
G05
X275.869Y-89.1G85X290.869Y-89.1
G05
X275.869Y-101.4G85X290.869Y-101.4
G05
X283.725Y-51.0G85X283.725Y-63.3
G05
X285.394Y-44.25G85X285.394Y-31.95
G05
X285.394Y-70.05G85X285.394Y-82.35
G05
X287.775Y-108.15G85X287.775Y-120.45
G05
X290.869Y-89.1G85X290.869Y-101.4
G05
X292.537Y-51.0G85X292.537Y-63.3
G05
X300.394Y-31.95G85X285.394Y-31.95
G05
X300.394Y-44.25G85X285.394Y-44.25
G05
X285.394Y-70.05G85X300.394Y-70.05
G05
X285.394Y-82.35G85X300.394Y-82.35
G05
X287.775Y-108.15G85X302.775Y-108.15
G05
X287.775Y-120.45G85X302.775Y-120.45
G05
X292.537Y-51.0G85X307.537Y-51.0
G05
X292.537Y-63.3G85X307.537Y-63.3
G05
X300.394Y-44.25G85X300.394Y-31.95
G05
X300.394Y-70.05G85X300.394Y-82.35
G05
X302.775Y-108.15G85X302.775Y-120.45
G05
X306.825Y-89.1G85X306.825Y-101.4
G05
X306.825Y-108.15G85X306.825Y-120.45
G05
X307.537Y-51.0G85X307.537Y-63.3
G05
X306.825Y-89.1G85X321.825Y-89.1
G05
X306.825Y-101.4G85X321.825Y-101.4
G05
X306.825Y-108.15G85X321.825Y-108.15
G05
X306.825Y-120.45G85X321.825Y-120.45
G05
X321.825Y-89.1G85X321.825Y-101.4
G05
X321.825Y-108.15G85X321.825Y-120.45
G05
X325.875Y-31.95G85X325.875Y-44.25
G05
X325.875Y-51.0G85X325.875Y-63.3
G05
X325.875Y-108.15G85X325.875Y-120.45
G05
X325.875Y-31.95G85X340.875Y-31.95
G05
X325.875Y-44.25G85X340.875Y-44.25
G05
X325.875Y-51.0G85X340.875Y-51.0
G05
X325.875Y-63.3G85X340.875Y-63.3
G05
X325.875Y-108.15G85X340.875Y-108.15
G05
X325.875Y-120.45G85X340.875Y-120.45
G05
X340.875Y-31.95G85X340.875Y-44.25
G05
X340.875Y-51.0G85X340.875Y-63.3
G05
X340.875Y-108.15G85X340.875Y-120.45
G05
T0
M30
