M48
; DRILL file {KiCad (5.1.12)-1} date 12/15/21 02:21:55
; FORMAT={-:-/ absolute / metric / decimal}
; #@! TF.CreationDate,2021-12-15T02:21:55-05:00
; #@! TF.GenerationSoftware,Kicad,Pcbnew,(5.1.12)-1
; #@! TF.FileFunction,NonPlated,1,2,NPTH
FMAT,2
METRIC
T1C0.750
T2C4.000
T3C5.000
%
G90
G05
T1
X74.95Y-27.9
X74.95Y-124.5
X75.95Y-27.9
X75.95Y-124.5
X77.7Y-27.9
X77.7Y-124.5
X79.45Y-27.9
X79.45Y-124.5
X80.45Y-27.9
X80.45Y-124.5
X291.025Y-27.9
X291.025Y-124.5
X292.025Y-27.9
X292.025Y-124.5
X293.775Y-27.9
X293.775Y-124.5
X295.525Y-27.9
X295.525Y-124.5
X296.525Y-27.9
X296.525Y-124.5
T2
X138.112Y-76.2
T3
X52.387Y-114.3
X157.162Y-76.2
X233.362Y-76.2
X247.65Y-57.15
X323.85Y-114.3
T0
M30
