G04 #@! TF.GenerationSoftware,KiCad,Pcbnew,(5.1.12)-1*
G04 #@! TF.CreationDate,2021-12-15T02:21:53-05:00*
G04 #@! TF.ProjectId,fc660a_plate,66633636-3061-45f7-906c-6174652e6b69,rev?*
G04 #@! TF.SameCoordinates,Original*
G04 #@! TF.FileFunction,Soldermask,Bot*
G04 #@! TF.FilePolarity,Negative*
%FSLAX46Y46*%
G04 Gerber Fmt 4.6, Leading zero omitted, Abs format (unit mm)*
G04 Created by KiCad (PCBNEW (5.1.12)-1) date 2021-12-15 02:21:53*
%MOMM*%
%LPD*%
G01*
G04 APERTURE LIST*
%ADD10O,17.500000X2.500000*%
%ADD11O,2.500000X14.800000*%
%ADD12C,0.750000*%
%ADD13C,4.000000*%
%ADD14C,5.000000*%
G04 APERTURE END LIST*
D10*
X292893750Y-44250000D03*
X292893750Y-31950000D03*
D11*
X285393750Y-38100000D03*
X300393750Y-38100000D03*
X275868750Y-95250000D03*
X290868750Y-95250000D03*
D10*
X283368750Y-101400000D03*
X283368750Y-89100000D03*
D11*
X285393750Y-76200000D03*
X300393750Y-76200000D03*
D10*
X292893750Y-82350000D03*
X292893750Y-70050000D03*
D11*
X42506250Y-95250000D03*
X57506250Y-95250000D03*
D10*
X50006250Y-101400000D03*
X50006250Y-89100000D03*
D12*
X77700000Y-124500000D03*
X79450000Y-124500000D03*
X80450000Y-124500000D03*
X74950000Y-124500000D03*
X75950000Y-124500000D03*
X293775000Y-124500000D03*
X295525000Y-124500000D03*
X296525000Y-124500000D03*
X291025000Y-124500000D03*
X292025000Y-124500000D03*
X293775000Y-27900000D03*
X295525000Y-27900000D03*
X296525000Y-27900000D03*
X291025000Y-27900000D03*
X292025000Y-27900000D03*
X77700000Y-27900000D03*
X79450000Y-27900000D03*
X80450000Y-27900000D03*
X74950000Y-27900000D03*
X75950000Y-27900000D03*
D10*
X38100000Y-31950000D03*
X38100000Y-44250000D03*
D11*
X45600000Y-38100000D03*
X30600000Y-38100000D03*
D10*
X252412500Y-89100000D03*
X252412500Y-101400000D03*
D11*
X259912500Y-95250000D03*
X244912500Y-95250000D03*
D10*
X242887500Y-70050000D03*
X242887500Y-82350000D03*
D11*
X250387500Y-76200000D03*
X235387500Y-76200000D03*
D10*
X261937500Y-70050000D03*
X261937500Y-82350000D03*
D11*
X269437500Y-76200000D03*
X254437500Y-76200000D03*
D10*
X300037500Y-51000000D03*
X300037500Y-63300000D03*
D11*
X307537500Y-57150000D03*
X292537500Y-57150000D03*
D10*
X276225000Y-51000000D03*
X276225000Y-63300000D03*
D11*
X283725000Y-57150000D03*
X268725000Y-57150000D03*
D10*
X333375000Y-31950000D03*
X333375000Y-44250000D03*
D11*
X340875000Y-38100000D03*
X325875000Y-38100000D03*
D13*
X138112500Y-76200000D03*
D14*
X247650000Y-57150000D03*
X157162500Y-76200000D03*
X323850000Y-114300000D03*
X52387500Y-114300000D03*
D10*
X88106250Y-108150000D03*
X88106250Y-120450000D03*
D11*
X95606250Y-114300000D03*
X80606250Y-114300000D03*
D10*
X83343750Y-108150000D03*
X83343750Y-120450000D03*
D11*
X90843750Y-114300000D03*
X75843750Y-114300000D03*
D10*
X64293750Y-108150000D03*
X64293750Y-120450000D03*
D11*
X71793750Y-114300000D03*
X56793750Y-114300000D03*
D10*
X61912500Y-108150000D03*
X61912500Y-120450000D03*
D11*
X69412500Y-114300000D03*
X54412500Y-114300000D03*
D10*
X45243750Y-70050000D03*
X45243750Y-82350000D03*
D11*
X52743750Y-76200000D03*
X37743750Y-76200000D03*
D10*
X40481250Y-70050000D03*
X40481250Y-82350000D03*
D11*
X47981250Y-76200000D03*
X32981250Y-76200000D03*
D10*
X40481250Y-108150000D03*
X40481250Y-120450000D03*
D11*
X47981250Y-114300000D03*
X32981250Y-114300000D03*
D10*
X42862500Y-51000000D03*
X42862500Y-63300000D03*
D11*
X50362500Y-57150000D03*
X35362500Y-57150000D03*
D10*
X223837500Y-70050000D03*
X223837500Y-82350000D03*
D11*
X231337500Y-76200000D03*
X216337500Y-76200000D03*
D10*
X128587500Y-70050000D03*
X128587500Y-82350000D03*
D11*
X136087500Y-76200000D03*
X121087500Y-76200000D03*
D10*
X147637500Y-70050000D03*
X147637500Y-82350000D03*
D11*
X155137500Y-76200000D03*
X140137500Y-76200000D03*
D10*
X166687500Y-108150000D03*
X166687500Y-120450000D03*
D11*
X174187500Y-114300000D03*
X159187500Y-114300000D03*
D10*
X154781250Y-108150000D03*
X154781250Y-120450000D03*
D11*
X162281250Y-114300000D03*
X147281250Y-114300000D03*
D10*
X226218750Y-108150000D03*
X226218750Y-120450000D03*
D11*
X233718750Y-114300000D03*
X218718750Y-114300000D03*
D10*
X250031250Y-108150000D03*
X250031250Y-120450000D03*
D11*
X257531250Y-114300000D03*
X242531250Y-114300000D03*
D10*
X273843750Y-108150000D03*
X273843750Y-120450000D03*
D11*
X281343750Y-114300000D03*
X266343750Y-114300000D03*
D10*
X314325000Y-89100000D03*
X314325000Y-101400000D03*
D11*
X321825000Y-95250000D03*
X306825000Y-95250000D03*
D10*
X190500000Y-31950000D03*
X190500000Y-44250000D03*
D11*
X198000000Y-38100000D03*
X183000000Y-38100000D03*
D10*
X333375000Y-108150000D03*
X333375000Y-120450000D03*
D11*
X340875000Y-114300000D03*
X325875000Y-114300000D03*
D10*
X295275000Y-108150000D03*
X295275000Y-120450000D03*
D11*
X302775000Y-114300000D03*
X287775000Y-114300000D03*
D10*
X314325000Y-108150000D03*
X314325000Y-120450000D03*
D11*
X321825000Y-114300000D03*
X306825000Y-114300000D03*
D10*
X233362500Y-89100000D03*
X233362500Y-101400000D03*
D11*
X240862500Y-95250000D03*
X225862500Y-95250000D03*
D10*
X195262500Y-89100000D03*
X195262500Y-101400000D03*
D11*
X202762500Y-95250000D03*
X187762500Y-95250000D03*
D10*
X214312500Y-89100000D03*
X214312500Y-101400000D03*
D11*
X221812500Y-95250000D03*
X206812500Y-95250000D03*
D10*
X176212500Y-89100000D03*
X176212500Y-101400000D03*
D11*
X183712500Y-95250000D03*
X168712500Y-95250000D03*
D10*
X138112500Y-89100000D03*
X138112500Y-101400000D03*
D11*
X145612500Y-95250000D03*
X130612500Y-95250000D03*
D10*
X157162500Y-89100000D03*
X157162500Y-101400000D03*
D11*
X164662500Y-95250000D03*
X149662500Y-95250000D03*
D10*
X119062500Y-89100000D03*
X119062500Y-101400000D03*
D11*
X126562500Y-95250000D03*
X111562500Y-95250000D03*
D10*
X80962500Y-89100000D03*
X80962500Y-101400000D03*
D11*
X88462500Y-95250000D03*
X73462500Y-95250000D03*
D10*
X100012500Y-89100000D03*
X100012500Y-101400000D03*
D11*
X107512500Y-95250000D03*
X92512500Y-95250000D03*
D10*
X204787500Y-70050000D03*
X204787500Y-82350000D03*
D11*
X212287500Y-76200000D03*
X197287500Y-76200000D03*
D10*
X166687500Y-70050000D03*
X166687500Y-82350000D03*
D11*
X174187500Y-76200000D03*
X159187500Y-76200000D03*
D10*
X185737500Y-70050000D03*
X185737500Y-82350000D03*
D11*
X193237500Y-76200000D03*
X178237500Y-76200000D03*
D10*
X109537500Y-70050000D03*
X109537500Y-82350000D03*
D11*
X117037500Y-76200000D03*
X102037500Y-76200000D03*
D10*
X71437500Y-70050000D03*
X71437500Y-82350000D03*
D11*
X78937500Y-76200000D03*
X63937500Y-76200000D03*
D10*
X90487500Y-70050000D03*
X90487500Y-82350000D03*
D11*
X97987500Y-76200000D03*
X82987500Y-76200000D03*
D10*
X238125000Y-51000000D03*
X238125000Y-63300000D03*
D11*
X245625000Y-57150000D03*
X230625000Y-57150000D03*
D10*
X257175000Y-51000000D03*
X257175000Y-63300000D03*
D11*
X264675000Y-57150000D03*
X249675000Y-57150000D03*
D10*
X219075000Y-51000000D03*
X219075000Y-63300000D03*
D11*
X226575000Y-57150000D03*
X211575000Y-57150000D03*
D10*
X180975000Y-51000000D03*
X180975000Y-63300000D03*
D11*
X188475000Y-57150000D03*
X173475000Y-57150000D03*
D10*
X200025000Y-51000000D03*
X200025000Y-63300000D03*
D11*
X207525000Y-57150000D03*
X192525000Y-57150000D03*
D10*
X161925000Y-51000000D03*
X161925000Y-63300000D03*
D11*
X169425000Y-57150000D03*
X154425000Y-57150000D03*
D10*
X123825000Y-51000000D03*
X123825000Y-63300000D03*
D11*
X131325000Y-57150000D03*
X116325000Y-57150000D03*
D10*
X142875000Y-51000000D03*
X142875000Y-63300000D03*
D11*
X150375000Y-57150000D03*
X135375000Y-57150000D03*
D10*
X104775000Y-51000000D03*
X104775000Y-63300000D03*
D11*
X112275000Y-57150000D03*
X97275000Y-57150000D03*
D10*
X66675000Y-51000000D03*
X66675000Y-63300000D03*
D11*
X74175000Y-57150000D03*
X59175000Y-57150000D03*
D10*
X85725000Y-51000000D03*
X85725000Y-63300000D03*
D11*
X93225000Y-57150000D03*
X78225000Y-57150000D03*
D10*
X171450000Y-31950000D03*
X171450000Y-44250000D03*
D11*
X178950000Y-38100000D03*
X163950000Y-38100000D03*
D10*
X133350000Y-31950000D03*
X133350000Y-44250000D03*
D11*
X140850000Y-38100000D03*
X125850000Y-38100000D03*
D10*
X152400000Y-31950000D03*
X152400000Y-44250000D03*
D11*
X159900000Y-38100000D03*
X144900000Y-38100000D03*
D10*
X247650000Y-31950000D03*
X247650000Y-44250000D03*
D11*
X255150000Y-38100000D03*
X240150000Y-38100000D03*
D10*
X209550000Y-31950000D03*
X209550000Y-44250000D03*
D11*
X217050000Y-38100000D03*
X202050000Y-38100000D03*
D10*
X228600000Y-31950000D03*
X228600000Y-44250000D03*
D11*
X236100000Y-38100000D03*
X221100000Y-38100000D03*
D10*
X266700000Y-31950000D03*
X266700000Y-44250000D03*
D11*
X274200000Y-38100000D03*
X259200000Y-38100000D03*
D10*
X333375000Y-51000000D03*
X333375000Y-63300000D03*
D11*
X340875000Y-57150000D03*
X325875000Y-57150000D03*
D10*
X114300000Y-31950000D03*
X114300000Y-44250000D03*
D11*
X121800000Y-38100000D03*
X106800000Y-38100000D03*
D10*
X95250000Y-31950000D03*
X95250000Y-44250000D03*
D11*
X102750000Y-38100000D03*
X87750000Y-38100000D03*
D10*
X76200000Y-31950000D03*
X76200000Y-44250000D03*
D11*
X83700000Y-38100000D03*
X68700000Y-38100000D03*
D10*
X57150000Y-31950000D03*
X57150000Y-44250000D03*
D11*
X64650000Y-38100000D03*
X49650000Y-38100000D03*
D14*
X233362500Y-76200000D03*
M02*
