G04 #@! TF.GenerationSoftware,KiCad,Pcbnew,(5.1.12)-1*
G04 #@! TF.CreationDate,2021-12-15T00:33:09-05:00*
G04 #@! TF.ProjectId,alps66,616c7073-3636-42e6-9b69-6361645f7063,F*
G04 #@! TF.SameCoordinates,Original*
G04 #@! TF.FileFunction,Copper,L2,Bot*
G04 #@! TF.FilePolarity,Positive*
%FSLAX46Y46*%
G04 Gerber Fmt 4.6, Leading zero omitted, Abs format (unit mm)*
G04 Created by KiCad (PCBNEW (5.1.12)-1) date 2021-12-15 00:33:09*
%MOMM*%
%LPD*%
G01*
G04 APERTURE LIST*
G04 #@! TA.AperFunction,ComponentPad*
%ADD10C,2.300000*%
G04 #@! TD*
G04 #@! TA.AperFunction,SMDPad,CuDef*
%ADD11R,0.900000X1.200000*%
G04 #@! TD*
G04 #@! TA.AperFunction,ComponentPad*
%ADD12R,1.600000X1.600000*%
G04 #@! TD*
G04 #@! TA.AperFunction,ComponentPad*
%ADD13C,1.600000*%
G04 #@! TD*
G04 #@! TA.AperFunction,ConnectorPad*
%ADD14R,2.400000X0.500000*%
G04 #@! TD*
G04 #@! TA.AperFunction,SMDPad,CuDef*
%ADD15C,0.100000*%
G04 #@! TD*
G04 #@! TA.AperFunction,ComponentPad*
%ADD16C,1.700000*%
G04 #@! TD*
G04 #@! TA.AperFunction,ComponentPad*
%ADD17C,6.000000*%
G04 #@! TD*
G04 #@! TA.AperFunction,SMDPad,CuDef*
%ADD18R,0.500000X1.400000*%
G04 #@! TD*
G04 #@! TA.AperFunction,ComponentPad*
%ADD19O,1.500000X4.000000*%
G04 #@! TD*
G04 #@! TA.AperFunction,SMDPad,CuDef*
%ADD20R,1.000000X1.250000*%
G04 #@! TD*
G04 #@! TA.AperFunction,SMDPad,CuDef*
%ADD21R,0.700000X1.300000*%
G04 #@! TD*
G04 #@! TA.AperFunction,SMDPad,CuDef*
%ADD22R,1.700000X0.900000*%
G04 #@! TD*
G04 #@! TA.AperFunction,SMDPad,CuDef*
%ADD23R,1.400000X1.200000*%
G04 #@! TD*
G04 #@! TA.AperFunction,ComponentPad*
%ADD24R,1.800000X1.800000*%
G04 #@! TD*
G04 #@! TA.AperFunction,ComponentPad*
%ADD25C,1.800000*%
G04 #@! TD*
G04 #@! TA.AperFunction,ConnectorPad*
%ADD26R,0.500000X2.400000*%
G04 #@! TD*
G04 #@! TA.AperFunction,SMDPad,CuDef*
%ADD27R,1.200000X0.900000*%
G04 #@! TD*
G04 #@! TA.AperFunction,SMDPad,CuDef*
%ADD28R,1.250000X1.000000*%
G04 #@! TD*
G04 #@! TA.AperFunction,ViaPad*
%ADD29C,0.800000*%
G04 #@! TD*
G04 #@! TA.AperFunction,ViaPad*
%ADD30C,0.600000*%
G04 #@! TD*
G04 #@! TA.AperFunction,Conductor*
%ADD31C,0.381000*%
G04 #@! TD*
G04 #@! TA.AperFunction,Conductor*
%ADD32C,0.254000*%
G04 #@! TD*
G04 #@! TA.AperFunction,Conductor*
%ADD33C,0.152400*%
G04 #@! TD*
G04 #@! TA.AperFunction,Conductor*
%ADD34C,0.100000*%
G04 #@! TD*
G04 APERTURE END LIST*
D10*
X223718750Y-110300000D03*
X228718750Y-109800000D03*
X242768750Y-110300000D03*
X247768750Y-109800000D03*
X247531250Y-110300000D03*
X252531250Y-109800000D03*
X152281250Y-110300000D03*
X157281250Y-109800000D03*
X154662500Y-110300000D03*
X159662500Y-109800000D03*
X97750000Y-118300000D03*
X92750000Y-118800000D03*
X92987500Y-118300000D03*
X87987500Y-118800000D03*
X85606250Y-110300000D03*
X90606250Y-109800000D03*
X71556250Y-118300000D03*
X66556250Y-118800000D03*
X69175000Y-118300000D03*
X64175000Y-118800000D03*
X61793750Y-110300000D03*
X66793750Y-109800000D03*
X42743750Y-72200000D03*
X47743750Y-71700000D03*
X45362500Y-80200000D03*
X40362500Y-80700000D03*
X45362500Y-118300000D03*
X40362500Y-118800000D03*
X292775000Y-34100000D03*
X297775000Y-33600000D03*
X271343750Y-110300000D03*
X276343750Y-109800000D03*
X216575000Y-110300000D03*
X221575000Y-109800000D03*
X207050000Y-34100000D03*
X212050000Y-33600000D03*
X188000000Y-34100000D03*
X193000000Y-33600000D03*
X197525000Y-53150000D03*
X202525000Y-52650000D03*
X183237500Y-72200000D03*
X188237500Y-71700000D03*
X164187500Y-72200000D03*
X169187500Y-71700000D03*
X173712500Y-91250000D03*
X178712500Y-90750000D03*
X154662500Y-91250000D03*
X159662500Y-90750000D03*
X245387500Y-118300000D03*
X240387500Y-118800000D03*
X168950000Y-34100000D03*
X173950000Y-33600000D03*
X149900000Y-34100000D03*
X154900000Y-33600000D03*
X178475000Y-53150000D03*
X183475000Y-52650000D03*
X159425000Y-53150000D03*
X164425000Y-52650000D03*
X145137500Y-72200000D03*
X150137500Y-71700000D03*
X135612500Y-91250000D03*
X140612500Y-90750000D03*
X116562500Y-91250000D03*
X121562500Y-90750000D03*
X169187500Y-118300000D03*
X164187500Y-118800000D03*
X130850000Y-34100000D03*
X135850000Y-33600000D03*
X111800000Y-34100000D03*
X116800000Y-33600000D03*
X140375000Y-53150000D03*
X145375000Y-52650000D03*
X121325000Y-53150000D03*
X126325000Y-52650000D03*
X126087500Y-72200000D03*
X131087500Y-71700000D03*
X107037500Y-72200000D03*
X112037500Y-71700000D03*
X97512500Y-91250000D03*
X102512500Y-90750000D03*
X85843750Y-118300000D03*
X80843750Y-118800000D03*
X92750000Y-34100000D03*
X97750000Y-33600000D03*
X73700000Y-34100000D03*
X78700000Y-33600000D03*
X102275000Y-53150000D03*
X107275000Y-52650000D03*
X83225000Y-53150000D03*
X88225000Y-52650000D03*
X87987500Y-72200000D03*
X92987500Y-71700000D03*
X78462500Y-91250000D03*
X83462500Y-90750000D03*
X59412500Y-110300000D03*
X64412500Y-109800000D03*
X54650000Y-34100000D03*
X59650000Y-33600000D03*
X35600000Y-34100000D03*
X40600000Y-33600000D03*
X64175000Y-53150000D03*
X69175000Y-52650000D03*
X40362500Y-53150000D03*
X45362500Y-52650000D03*
X68937500Y-72200000D03*
X73937500Y-71700000D03*
X42981250Y-80200000D03*
X37981250Y-80700000D03*
X47506250Y-91250000D03*
X52506250Y-90750000D03*
X37981250Y-110300000D03*
X42981250Y-109800000D03*
X330875000Y-110300000D03*
X335875000Y-109800000D03*
X307300000Y-42100000D03*
X302300000Y-42600000D03*
X283250000Y-34100000D03*
X288250000Y-33600000D03*
X273725000Y-53150000D03*
X278725000Y-52650000D03*
X297537500Y-53150000D03*
X302537500Y-52650000D03*
X290393750Y-72200000D03*
X295393750Y-71700000D03*
X311825000Y-91250000D03*
X316825000Y-90750000D03*
X280868750Y-91250000D03*
X285868750Y-90750000D03*
X311825000Y-110300000D03*
X316825000Y-109800000D03*
X330875000Y-53150000D03*
X335875000Y-52650000D03*
X264200000Y-34100000D03*
X269200000Y-33600000D03*
X254675000Y-53150000D03*
X259675000Y-52650000D03*
X235625000Y-53150000D03*
X240625000Y-52650000D03*
X259437500Y-72200000D03*
X264437500Y-71700000D03*
X240387500Y-72200000D03*
X245387500Y-71700000D03*
X249912500Y-91250000D03*
X254912500Y-90750000D03*
X230862500Y-91250000D03*
X235862500Y-90750000D03*
X292775000Y-110300000D03*
X297775000Y-109800000D03*
X330875000Y-34100000D03*
X335875000Y-33600000D03*
X245150000Y-34100000D03*
X250150000Y-33600000D03*
X226100000Y-34100000D03*
X231100000Y-33600000D03*
X216575000Y-53150000D03*
X221575000Y-52650000D03*
X221337500Y-72200000D03*
X226337500Y-71700000D03*
X202287500Y-72200000D03*
X207287500Y-71700000D03*
X211812500Y-91250000D03*
X216812500Y-90750000D03*
X192762500Y-91250000D03*
X197762500Y-90750000D03*
X273962500Y-118300000D03*
X268962500Y-118800000D03*
D11*
X80650000Y-106250000D03*
X77350000Y-106250000D03*
D12*
X75100000Y-106250000D03*
D13*
X82900000Y-106250000D03*
D14*
X76300000Y-106250000D03*
X81700000Y-106250000D03*
G04 #@! TA.AperFunction,SMDPad,CuDef*
D15*
G36*
X137508999Y-114924937D02*
G01*
X137084735Y-115349201D01*
X136236207Y-114500673D01*
X136660471Y-114076409D01*
X137508999Y-114924937D01*
G37*
G04 #@! TD.AperFunction*
G04 #@! TA.AperFunction,SMDPad,CuDef*
G36*
X136943313Y-115490622D02*
G01*
X136519049Y-115914886D01*
X135670521Y-115066358D01*
X136094785Y-114642094D01*
X136943313Y-115490622D01*
G37*
G04 #@! TD.AperFunction*
G04 #@! TA.AperFunction,SMDPad,CuDef*
G36*
X136377628Y-116056308D02*
G01*
X135953364Y-116480572D01*
X135104836Y-115632044D01*
X135529100Y-115207780D01*
X136377628Y-116056308D01*
G37*
G04 #@! TD.AperFunction*
G04 #@! TA.AperFunction,SMDPad,CuDef*
G36*
X135811943Y-116621993D02*
G01*
X135387679Y-117046257D01*
X134539151Y-116197729D01*
X134963415Y-115773465D01*
X135811943Y-116621993D01*
G37*
G04 #@! TD.AperFunction*
G04 #@! TA.AperFunction,SMDPad,CuDef*
G36*
X135246257Y-117187679D02*
G01*
X134821993Y-117611943D01*
X133973465Y-116763415D01*
X134397729Y-116339151D01*
X135246257Y-117187679D01*
G37*
G04 #@! TD.AperFunction*
G04 #@! TA.AperFunction,SMDPad,CuDef*
G36*
X134680572Y-117753364D02*
G01*
X134256308Y-118177628D01*
X133407780Y-117329100D01*
X133832044Y-116904836D01*
X134680572Y-117753364D01*
G37*
G04 #@! TD.AperFunction*
G04 #@! TA.AperFunction,SMDPad,CuDef*
G36*
X134114886Y-118319049D02*
G01*
X133690622Y-118743313D01*
X132842094Y-117894785D01*
X133266358Y-117470521D01*
X134114886Y-118319049D01*
G37*
G04 #@! TD.AperFunction*
G04 #@! TA.AperFunction,SMDPad,CuDef*
G36*
X133549201Y-118884735D02*
G01*
X133124937Y-119308999D01*
X132276409Y-118460471D01*
X132700673Y-118036207D01*
X133549201Y-118884735D01*
G37*
G04 #@! TD.AperFunction*
G04 #@! TA.AperFunction,SMDPad,CuDef*
G36*
X130650063Y-119308999D02*
G01*
X130225799Y-118884735D01*
X131074327Y-118036207D01*
X131498591Y-118460471D01*
X130650063Y-119308999D01*
G37*
G04 #@! TD.AperFunction*
G04 #@! TA.AperFunction,SMDPad,CuDef*
G36*
X130084378Y-118743313D02*
G01*
X129660114Y-118319049D01*
X130508642Y-117470521D01*
X130932906Y-117894785D01*
X130084378Y-118743313D01*
G37*
G04 #@! TD.AperFunction*
G04 #@! TA.AperFunction,SMDPad,CuDef*
G36*
X129518692Y-118177628D02*
G01*
X129094428Y-117753364D01*
X129942956Y-116904836D01*
X130367220Y-117329100D01*
X129518692Y-118177628D01*
G37*
G04 #@! TD.AperFunction*
G04 #@! TA.AperFunction,SMDPad,CuDef*
G36*
X128953007Y-117611943D02*
G01*
X128528743Y-117187679D01*
X129377271Y-116339151D01*
X129801535Y-116763415D01*
X128953007Y-117611943D01*
G37*
G04 #@! TD.AperFunction*
G04 #@! TA.AperFunction,SMDPad,CuDef*
G36*
X128387321Y-117046257D02*
G01*
X127963057Y-116621993D01*
X128811585Y-115773465D01*
X129235849Y-116197729D01*
X128387321Y-117046257D01*
G37*
G04 #@! TD.AperFunction*
G04 #@! TA.AperFunction,SMDPad,CuDef*
G36*
X127821636Y-116480572D02*
G01*
X127397372Y-116056308D01*
X128245900Y-115207780D01*
X128670164Y-115632044D01*
X127821636Y-116480572D01*
G37*
G04 #@! TD.AperFunction*
G04 #@! TA.AperFunction,SMDPad,CuDef*
G36*
X127255951Y-115914886D02*
G01*
X126831687Y-115490622D01*
X127680215Y-114642094D01*
X128104479Y-115066358D01*
X127255951Y-115914886D01*
G37*
G04 #@! TD.AperFunction*
G04 #@! TA.AperFunction,SMDPad,CuDef*
G36*
X126690265Y-115349201D02*
G01*
X126266001Y-114924937D01*
X127114529Y-114076409D01*
X127538793Y-114500673D01*
X126690265Y-115349201D01*
G37*
G04 #@! TD.AperFunction*
G04 #@! TA.AperFunction,SMDPad,CuDef*
G36*
X127538793Y-112874327D02*
G01*
X127114529Y-113298591D01*
X126266001Y-112450063D01*
X126690265Y-112025799D01*
X127538793Y-112874327D01*
G37*
G04 #@! TD.AperFunction*
G04 #@! TA.AperFunction,SMDPad,CuDef*
G36*
X128104479Y-112308642D02*
G01*
X127680215Y-112732906D01*
X126831687Y-111884378D01*
X127255951Y-111460114D01*
X128104479Y-112308642D01*
G37*
G04 #@! TD.AperFunction*
G04 #@! TA.AperFunction,SMDPad,CuDef*
G36*
X128670164Y-111742956D02*
G01*
X128245900Y-112167220D01*
X127397372Y-111318692D01*
X127821636Y-110894428D01*
X128670164Y-111742956D01*
G37*
G04 #@! TD.AperFunction*
G04 #@! TA.AperFunction,SMDPad,CuDef*
G36*
X129235849Y-111177271D02*
G01*
X128811585Y-111601535D01*
X127963057Y-110753007D01*
X128387321Y-110328743D01*
X129235849Y-111177271D01*
G37*
G04 #@! TD.AperFunction*
G04 #@! TA.AperFunction,SMDPad,CuDef*
G36*
X129801535Y-110611585D02*
G01*
X129377271Y-111035849D01*
X128528743Y-110187321D01*
X128953007Y-109763057D01*
X129801535Y-110611585D01*
G37*
G04 #@! TD.AperFunction*
G04 #@! TA.AperFunction,SMDPad,CuDef*
G36*
X130367220Y-110045900D02*
G01*
X129942956Y-110470164D01*
X129094428Y-109621636D01*
X129518692Y-109197372D01*
X130367220Y-110045900D01*
G37*
G04 #@! TD.AperFunction*
G04 #@! TA.AperFunction,SMDPad,CuDef*
G36*
X130932906Y-109480215D02*
G01*
X130508642Y-109904479D01*
X129660114Y-109055951D01*
X130084378Y-108631687D01*
X130932906Y-109480215D01*
G37*
G04 #@! TD.AperFunction*
G04 #@! TA.AperFunction,SMDPad,CuDef*
G36*
X131498591Y-108914529D02*
G01*
X131074327Y-109338793D01*
X130225799Y-108490265D01*
X130650063Y-108066001D01*
X131498591Y-108914529D01*
G37*
G04 #@! TD.AperFunction*
G04 #@! TA.AperFunction,SMDPad,CuDef*
G36*
X132700673Y-109338793D02*
G01*
X132276409Y-108914529D01*
X133124937Y-108066001D01*
X133549201Y-108490265D01*
X132700673Y-109338793D01*
G37*
G04 #@! TD.AperFunction*
G04 #@! TA.AperFunction,SMDPad,CuDef*
G36*
X133266358Y-109904479D02*
G01*
X132842094Y-109480215D01*
X133690622Y-108631687D01*
X134114886Y-109055951D01*
X133266358Y-109904479D01*
G37*
G04 #@! TD.AperFunction*
G04 #@! TA.AperFunction,SMDPad,CuDef*
G36*
X133832044Y-110470164D02*
G01*
X133407780Y-110045900D01*
X134256308Y-109197372D01*
X134680572Y-109621636D01*
X133832044Y-110470164D01*
G37*
G04 #@! TD.AperFunction*
G04 #@! TA.AperFunction,SMDPad,CuDef*
G36*
X134397729Y-111035849D02*
G01*
X133973465Y-110611585D01*
X134821993Y-109763057D01*
X135246257Y-110187321D01*
X134397729Y-111035849D01*
G37*
G04 #@! TD.AperFunction*
G04 #@! TA.AperFunction,SMDPad,CuDef*
G36*
X134963415Y-111601535D02*
G01*
X134539151Y-111177271D01*
X135387679Y-110328743D01*
X135811943Y-110753007D01*
X134963415Y-111601535D01*
G37*
G04 #@! TD.AperFunction*
G04 #@! TA.AperFunction,SMDPad,CuDef*
G36*
X135529100Y-112167220D02*
G01*
X135104836Y-111742956D01*
X135953364Y-110894428D01*
X136377628Y-111318692D01*
X135529100Y-112167220D01*
G37*
G04 #@! TD.AperFunction*
G04 #@! TA.AperFunction,SMDPad,CuDef*
G36*
X136094785Y-112732906D02*
G01*
X135670521Y-112308642D01*
X136519049Y-111460114D01*
X136943313Y-111884378D01*
X136094785Y-112732906D01*
G37*
G04 #@! TD.AperFunction*
G04 #@! TA.AperFunction,SMDPad,CuDef*
G36*
X136660471Y-113298591D02*
G01*
X136236207Y-112874327D01*
X137084735Y-112025799D01*
X137508999Y-112450063D01*
X136660471Y-113298591D01*
G37*
G04 #@! TD.AperFunction*
D16*
X132500000Y-102750000D03*
D17*
X247650000Y-57150000D03*
X157162500Y-76200000D03*
X52387500Y-114287500D03*
X323850000Y-114300000D03*
X262000000Y-114300000D03*
X325500000Y-47625000D03*
X54000000Y-57137500D03*
D18*
X317650000Y-33537500D03*
X318450000Y-33537500D03*
X319250000Y-33537500D03*
X320050000Y-33537500D03*
X320850000Y-33537500D03*
D19*
X315600000Y-31137500D03*
X322900000Y-31137500D03*
D16*
X128500000Y-102750000D03*
X124500000Y-102750000D03*
D20*
X136000000Y-103500000D03*
X138000000Y-103500000D03*
X148000000Y-118500000D03*
X150000000Y-118500000D03*
X147000000Y-110000000D03*
X149000000Y-110000000D03*
X140750000Y-119250000D03*
X142750000Y-119250000D03*
X142500000Y-113000000D03*
X144500000Y-113000000D03*
D21*
X171700000Y-102750000D03*
X169800000Y-102750000D03*
X171700000Y-105500000D03*
X169800000Y-105500000D03*
X114200000Y-116000000D03*
X112300000Y-116000000D03*
X58050000Y-79500000D03*
X59950000Y-79500000D03*
D22*
X334000000Y-73300000D03*
X334000000Y-76700000D03*
D23*
X147400000Y-113700000D03*
X149600000Y-113700000D03*
X149600000Y-115300000D03*
X147400000Y-115300000D03*
D21*
X332800000Y-70000000D03*
X334700000Y-70000000D03*
D24*
X36830000Y-43180000D03*
D25*
X39370000Y-43180000D03*
D24*
X57000000Y-76200000D03*
D25*
X59540000Y-76200000D03*
D14*
X264200000Y-104000000D03*
X258800000Y-104000000D03*
D13*
X265400000Y-104000000D03*
D12*
X257600000Y-104000000D03*
D11*
X259850000Y-104000000D03*
X263150000Y-104000000D03*
D26*
X204787500Y-92550000D03*
X204787500Y-97950000D03*
D13*
X204787500Y-91350000D03*
D12*
X204787500Y-99150000D03*
D27*
X204787500Y-96900000D03*
X204787500Y-93600000D03*
X223837500Y-93600000D03*
X223837500Y-96900000D03*
D12*
X223837500Y-99150000D03*
D13*
X223837500Y-91350000D03*
D26*
X223837500Y-97950000D03*
X223837500Y-92550000D03*
X214312500Y-73500000D03*
X214312500Y-78900000D03*
D13*
X214312500Y-72300000D03*
D12*
X214312500Y-80100000D03*
D27*
X214312500Y-77850000D03*
X214312500Y-74550000D03*
D14*
X223450000Y-65500000D03*
X218050000Y-65500000D03*
D13*
X224650000Y-65500000D03*
D12*
X216850000Y-65500000D03*
D11*
X219100000Y-65500000D03*
X222400000Y-65500000D03*
D27*
X228600000Y-55500000D03*
X228600000Y-58800000D03*
D12*
X228600000Y-61050000D03*
D13*
X228600000Y-53250000D03*
D26*
X228600000Y-59850000D03*
X228600000Y-54450000D03*
X238125000Y-35400000D03*
X238125000Y-40800000D03*
D13*
X238125000Y-34200000D03*
D12*
X238125000Y-42000000D03*
D27*
X238125000Y-39750000D03*
X238125000Y-36450000D03*
X257162500Y-36437500D03*
X257162500Y-39737500D03*
D12*
X257162500Y-41987500D03*
D13*
X257162500Y-34187500D03*
D26*
X257162500Y-40787500D03*
X257162500Y-35387500D03*
D11*
X336400000Y-46000000D03*
X333100000Y-46000000D03*
D12*
X330850000Y-46000000D03*
D13*
X338650000Y-46000000D03*
D14*
X332050000Y-46000000D03*
X337450000Y-46000000D03*
D27*
X286000000Y-112650000D03*
X286000000Y-115950000D03*
D12*
X286000000Y-118200000D03*
D13*
X286000000Y-110400000D03*
D26*
X286000000Y-117000000D03*
X286000000Y-111600000D03*
D27*
X242887500Y-93600000D03*
X242887500Y-96900000D03*
D12*
X242887500Y-99150000D03*
D13*
X242887500Y-91350000D03*
D26*
X242887500Y-97950000D03*
X242887500Y-92550000D03*
D27*
X261937500Y-93600000D03*
X261937500Y-96900000D03*
D12*
X261937500Y-99150000D03*
D13*
X261937500Y-91350000D03*
D26*
X261937500Y-97950000D03*
X261937500Y-92550000D03*
D27*
X252412500Y-74550000D03*
X252412500Y-77850000D03*
D12*
X252412500Y-80100000D03*
D13*
X252412500Y-72300000D03*
D26*
X252412500Y-78900000D03*
X252412500Y-73500000D03*
X271462500Y-73500000D03*
X271462500Y-78900000D03*
D13*
X271462500Y-72300000D03*
D12*
X271462500Y-80100000D03*
D27*
X271462500Y-77850000D03*
X271462500Y-74550000D03*
D11*
X240400000Y-65500000D03*
X237100000Y-65500000D03*
D12*
X234850000Y-65500000D03*
D13*
X242650000Y-65500000D03*
D14*
X236050000Y-65500000D03*
X241450000Y-65500000D03*
D27*
X266700000Y-55500000D03*
X266700000Y-58800000D03*
D12*
X266700000Y-61050000D03*
D13*
X266700000Y-53250000D03*
D26*
X266700000Y-59850000D03*
X266700000Y-54450000D03*
D27*
X276225000Y-36450000D03*
X276225000Y-39750000D03*
D12*
X276225000Y-42000000D03*
D13*
X276225000Y-34200000D03*
D26*
X276225000Y-40800000D03*
X276225000Y-35400000D03*
D27*
X338500000Y-93600000D03*
X338500000Y-96900000D03*
D12*
X338500000Y-99150000D03*
D13*
X338500000Y-91350000D03*
D26*
X338500000Y-97950000D03*
X338500000Y-92550000D03*
X304800000Y-111600000D03*
X304800000Y-117000000D03*
D13*
X304800000Y-110400000D03*
D12*
X304800000Y-118200000D03*
D27*
X304800000Y-115950000D03*
X304800000Y-112650000D03*
D26*
X304250000Y-92550000D03*
X304250000Y-97950000D03*
D13*
X304250000Y-91350000D03*
D12*
X304250000Y-99150000D03*
D27*
X304250000Y-96900000D03*
X304250000Y-93600000D03*
X324250000Y-93600000D03*
X324250000Y-96900000D03*
D12*
X324250000Y-99150000D03*
D13*
X324250000Y-91350000D03*
D26*
X324250000Y-97950000D03*
X324250000Y-92550000D03*
D27*
X290000000Y-55500000D03*
X290000000Y-58800000D03*
D12*
X290000000Y-61050000D03*
D13*
X290000000Y-53250000D03*
D26*
X290000000Y-59850000D03*
X290000000Y-54450000D03*
X286000000Y-54450000D03*
X286000000Y-59850000D03*
D13*
X286000000Y-53250000D03*
D12*
X286000000Y-61050000D03*
D27*
X286000000Y-58800000D03*
X286000000Y-55500000D03*
D11*
X275650000Y-46000000D03*
X272350000Y-46000000D03*
D12*
X270100000Y-46000000D03*
D13*
X277900000Y-46000000D03*
D14*
X271300000Y-46000000D03*
X276700000Y-46000000D03*
D11*
X297150000Y-46000000D03*
X293850000Y-46000000D03*
D12*
X291600000Y-46000000D03*
D13*
X299400000Y-46000000D03*
D14*
X292800000Y-46000000D03*
X298200000Y-46000000D03*
D27*
X311750000Y-55500000D03*
X311750000Y-58800000D03*
D12*
X311750000Y-61050000D03*
D13*
X311750000Y-53250000D03*
D26*
X311750000Y-59850000D03*
X311750000Y-54450000D03*
X333750000Y-92550000D03*
X333750000Y-97950000D03*
D13*
X333750000Y-91350000D03*
D12*
X333750000Y-99150000D03*
D27*
X333750000Y-96900000D03*
X333750000Y-93600000D03*
X33000000Y-93600000D03*
X33000000Y-96900000D03*
D12*
X33000000Y-99150000D03*
D13*
X33000000Y-91350000D03*
D26*
X33000000Y-97950000D03*
X33000000Y-92550000D03*
D27*
X40481250Y-93600000D03*
X40481250Y-96900000D03*
D12*
X40481250Y-99150000D03*
D13*
X40481250Y-91350000D03*
D26*
X40481250Y-97950000D03*
X40481250Y-92550000D03*
D11*
X40150000Y-65500000D03*
X36850000Y-65500000D03*
D12*
X34600000Y-65500000D03*
D13*
X42400000Y-65500000D03*
D14*
X35800000Y-65500000D03*
X41200000Y-65500000D03*
D26*
X80962500Y-73500000D03*
X80962500Y-78900000D03*
D13*
X80962500Y-72300000D03*
D12*
X80962500Y-80100000D03*
D27*
X80962500Y-77850000D03*
X80962500Y-74550000D03*
D26*
X33337500Y-54450000D03*
X33337500Y-59850000D03*
D13*
X33337500Y-53250000D03*
D12*
X33337500Y-61050000D03*
D27*
X33337500Y-58800000D03*
X33337500Y-55500000D03*
X76200000Y-55500000D03*
X76200000Y-58800000D03*
D12*
X76200000Y-61050000D03*
D13*
X76200000Y-53250000D03*
D26*
X76200000Y-59850000D03*
X76200000Y-54450000D03*
D27*
X47625000Y-36450000D03*
X47625000Y-39750000D03*
D12*
X47625000Y-42000000D03*
D13*
X47625000Y-34200000D03*
D26*
X47625000Y-40800000D03*
X47625000Y-35400000D03*
X66675000Y-35400000D03*
X66675000Y-40800000D03*
D13*
X66675000Y-34200000D03*
D12*
X66675000Y-42000000D03*
D27*
X66675000Y-39750000D03*
X66675000Y-36450000D03*
D14*
X219450000Y-104000000D03*
X214050000Y-104000000D03*
D13*
X220650000Y-104000000D03*
D12*
X212850000Y-104000000D03*
D11*
X215100000Y-104000000D03*
X218400000Y-104000000D03*
D14*
X70950000Y-106250000D03*
X65550000Y-106250000D03*
D13*
X72150000Y-106250000D03*
D12*
X64350000Y-106250000D03*
D11*
X66600000Y-106250000D03*
X69900000Y-106250000D03*
D26*
X90487500Y-92550000D03*
X90487500Y-97950000D03*
D13*
X90487500Y-91350000D03*
D12*
X90487500Y-99150000D03*
D27*
X90487500Y-96900000D03*
X90487500Y-93600000D03*
D26*
X100012500Y-73500000D03*
X100012500Y-78900000D03*
D13*
X100012500Y-72300000D03*
D12*
X100012500Y-80100000D03*
D27*
X100012500Y-77850000D03*
X100012500Y-74550000D03*
D26*
X95250000Y-54450000D03*
X95250000Y-59850000D03*
D13*
X95250000Y-53250000D03*
D12*
X95250000Y-61050000D03*
D27*
X95250000Y-58800000D03*
X95250000Y-55500000D03*
X114300000Y-55500000D03*
X114300000Y-58800000D03*
D12*
X114300000Y-61050000D03*
D13*
X114300000Y-53250000D03*
D26*
X114300000Y-59850000D03*
X114300000Y-54450000D03*
D27*
X85725000Y-36450000D03*
X85725000Y-39750000D03*
D12*
X85725000Y-42000000D03*
D13*
X85725000Y-34200000D03*
D26*
X85725000Y-40800000D03*
X85725000Y-35400000D03*
D27*
X104775000Y-36450000D03*
X104775000Y-39750000D03*
D12*
X104775000Y-42000000D03*
D13*
X104775000Y-34200000D03*
D26*
X104775000Y-40800000D03*
X104775000Y-35400000D03*
D27*
X109537500Y-93600000D03*
X109537500Y-96900000D03*
D12*
X109537500Y-99150000D03*
D13*
X109537500Y-91350000D03*
D26*
X109537500Y-97950000D03*
X109537500Y-92550000D03*
X119062500Y-73500000D03*
X119062500Y-78900000D03*
D13*
X119062500Y-72300000D03*
D12*
X119062500Y-80100000D03*
D27*
X119062500Y-77850000D03*
X119062500Y-74550000D03*
D11*
X133900000Y-65500000D03*
X130600000Y-65500000D03*
D12*
X128350000Y-65500000D03*
D13*
X136150000Y-65500000D03*
D14*
X129550000Y-65500000D03*
X134950000Y-65500000D03*
D26*
X133350000Y-54450000D03*
X133350000Y-59850000D03*
D13*
X133350000Y-53250000D03*
D12*
X133350000Y-61050000D03*
D27*
X133350000Y-58800000D03*
X133350000Y-55500000D03*
D26*
X152400000Y-54450000D03*
X152400000Y-59850000D03*
D13*
X152400000Y-53250000D03*
D12*
X152400000Y-61050000D03*
D27*
X152400000Y-58800000D03*
X152400000Y-55500000D03*
D26*
X123825000Y-35400000D03*
X123825000Y-40800000D03*
D13*
X123825000Y-34200000D03*
D12*
X123825000Y-42000000D03*
D27*
X123825000Y-39750000D03*
X123825000Y-36450000D03*
D26*
X142875000Y-35400000D03*
X142875000Y-40800000D03*
D13*
X142875000Y-34200000D03*
D12*
X142875000Y-42000000D03*
D27*
X142875000Y-39750000D03*
X142875000Y-36450000D03*
D26*
X180500000Y-110300000D03*
X180500000Y-115700000D03*
D13*
X180500000Y-109100000D03*
D12*
X180500000Y-116900000D03*
D27*
X180500000Y-114650000D03*
X180500000Y-111350000D03*
D26*
X128587500Y-92550000D03*
X128587500Y-97950000D03*
D13*
X128587500Y-91350000D03*
D12*
X128587500Y-99150000D03*
D27*
X128587500Y-96900000D03*
X128587500Y-93600000D03*
D26*
X147637500Y-92550000D03*
X147637500Y-97950000D03*
D13*
X147637500Y-91350000D03*
D12*
X147637500Y-99150000D03*
D27*
X147637500Y-96900000D03*
X147637500Y-93600000D03*
D14*
X157200000Y-65500000D03*
X151800000Y-65500000D03*
D13*
X158400000Y-65500000D03*
D12*
X150600000Y-65500000D03*
D11*
X152850000Y-65500000D03*
X156150000Y-65500000D03*
D26*
X171450000Y-54450000D03*
X171450000Y-59850000D03*
D13*
X171450000Y-53250000D03*
D12*
X171450000Y-61050000D03*
D27*
X171450000Y-58800000D03*
X171450000Y-55500000D03*
X190500000Y-55500000D03*
X190500000Y-58800000D03*
D12*
X190500000Y-61050000D03*
D13*
X190500000Y-53250000D03*
D26*
X190500000Y-59850000D03*
X190500000Y-54450000D03*
X161925000Y-35400000D03*
X161925000Y-40800000D03*
D13*
X161925000Y-34200000D03*
D12*
X161925000Y-42000000D03*
D27*
X161925000Y-39750000D03*
X161925000Y-36450000D03*
X180975000Y-36450000D03*
X180975000Y-39750000D03*
D12*
X180975000Y-42000000D03*
D13*
X180975000Y-34200000D03*
D26*
X180975000Y-40800000D03*
X180975000Y-35400000D03*
D11*
X244650000Y-104000000D03*
X241350000Y-104000000D03*
D12*
X239100000Y-104000000D03*
D13*
X246900000Y-104000000D03*
D14*
X240300000Y-104000000D03*
X245700000Y-104000000D03*
D26*
X166687500Y-92550000D03*
X166687500Y-97950000D03*
D13*
X166687500Y-91350000D03*
D12*
X166687500Y-99150000D03*
D27*
X166687500Y-96900000D03*
X166687500Y-93600000D03*
D26*
X185737500Y-92550000D03*
X185737500Y-97950000D03*
D13*
X185737500Y-91350000D03*
D12*
X185737500Y-99150000D03*
D27*
X185737500Y-96900000D03*
X185737500Y-93600000D03*
D26*
X176212500Y-73500000D03*
X176212500Y-78900000D03*
D13*
X176212500Y-72300000D03*
D12*
X176212500Y-80100000D03*
D27*
X176212500Y-77850000D03*
X176212500Y-74550000D03*
D26*
X195262500Y-73500000D03*
X195262500Y-78900000D03*
D13*
X195262500Y-72300000D03*
D12*
X195262500Y-80100000D03*
D27*
X195262500Y-77850000D03*
X195262500Y-74550000D03*
X209550000Y-55500000D03*
X209550000Y-58800000D03*
D12*
X209550000Y-61050000D03*
D13*
X209550000Y-53250000D03*
D26*
X209550000Y-59850000D03*
X209550000Y-54450000D03*
D27*
X200025000Y-36450000D03*
X200025000Y-39750000D03*
D12*
X200025000Y-42000000D03*
D13*
X200025000Y-34200000D03*
D26*
X200025000Y-40800000D03*
X200025000Y-35400000D03*
D27*
X219075000Y-36450000D03*
X219075000Y-39750000D03*
D12*
X219075000Y-42000000D03*
D13*
X219075000Y-34200000D03*
D26*
X219075000Y-40800000D03*
X219075000Y-35400000D03*
D28*
X142500000Y-108750000D03*
X142500000Y-110750000D03*
D29*
X315500000Y-48750000D03*
X322250000Y-55500000D03*
X140750000Y-117750000D03*
X141250000Y-114250000D03*
X134000000Y-113750000D03*
D30*
X137750000Y-106000000D03*
X150750000Y-106000000D03*
X110500000Y-115500000D03*
X111000000Y-101750000D03*
X113500000Y-107250000D03*
X107500000Y-101750000D03*
X166250000Y-105500000D03*
X163500000Y-102750000D03*
X154250000Y-119750000D03*
X134500000Y-120000000D03*
X286000000Y-95000000D03*
X130000000Y-120500000D03*
X92750000Y-91250000D03*
X101250000Y-115750000D03*
X108500000Y-117000000D03*
X119000000Y-116250000D03*
X144250000Y-83500000D03*
X115750000Y-101000000D03*
X138000000Y-119750000D03*
X192250000Y-102250000D03*
X131500000Y-122500000D03*
X99250000Y-112000000D03*
X141787500Y-95287500D03*
X51500000Y-76500006D03*
X43000000Y-62000000D03*
X269000000Y-69000000D03*
X47000000Y-55500000D03*
X39500000Y-38000000D03*
X130000000Y-106500000D03*
X327750000Y-66250000D03*
X122750000Y-107500000D03*
X58000000Y-50500000D03*
X56750000Y-45500000D03*
D31*
X136837247Y-112697551D02*
X136889696Y-112750000D01*
X315500000Y-36500000D02*
X317650000Y-34350000D01*
X317650000Y-34350000D02*
X317650000Y-33537500D01*
X136837247Y-112697551D02*
X136837247Y-112697550D01*
X315500000Y-48750000D02*
X315500000Y-36500000D01*
X327500000Y-55500000D02*
X322250000Y-55500000D01*
X334700000Y-62700000D02*
X327500000Y-55500000D01*
X140750000Y-119250000D02*
X140750000Y-117750000D01*
X142500000Y-110750000D02*
X142500000Y-113000000D01*
X136872603Y-112662195D02*
X139662195Y-112662195D01*
X140000000Y-113000000D02*
X142500000Y-113000000D01*
X139662195Y-112662195D02*
X140000000Y-113000000D01*
X137653427Y-110750000D02*
X142500000Y-110750000D01*
X136306917Y-112096510D02*
X137653427Y-110750000D01*
X139250000Y-119250000D02*
X140750000Y-119250000D01*
X138000000Y-118000000D02*
X139250000Y-119250000D01*
X136765686Y-118000000D02*
X138000000Y-118000000D01*
X135175547Y-116409861D02*
X136765686Y-118000000D01*
X142500000Y-113000000D02*
X141250000Y-114250000D01*
X134675000Y-113750000D02*
X134000000Y-113750000D01*
X136271562Y-112153438D02*
X134675000Y-113750000D01*
X268000000Y-96500000D02*
X263750000Y-100750000D01*
X287500000Y-96500000D02*
X268000000Y-96500000D01*
X292000000Y-92000000D02*
X287500000Y-96500000D01*
X292000000Y-85500000D02*
X292000000Y-92000000D01*
X315500000Y-62000000D02*
X292000000Y-85500000D01*
X315500000Y-48750000D02*
X315500000Y-62000000D01*
X263750000Y-100750000D02*
X126500000Y-100750000D01*
X126500000Y-100750000D02*
X124500000Y-102750000D01*
X334700000Y-62700000D02*
X334700000Y-70000000D01*
D32*
X134574506Y-110434809D02*
X134555191Y-110434809D01*
X135705877Y-115808820D02*
X135705877Y-115805877D01*
X134849505Y-110159810D02*
X134574506Y-110434809D01*
X147400000Y-115300000D02*
X147700000Y-115300000D01*
D33*
X147700000Y-115300000D02*
X149300000Y-113700000D01*
D32*
X149600000Y-113700000D02*
X149300000Y-113700000D01*
X137750000Y-107259314D02*
X134609861Y-110399453D01*
X137750000Y-106000000D02*
X137750000Y-107259314D01*
X135741232Y-115844176D02*
X136647056Y-116750000D01*
X136647056Y-116750000D02*
X142000000Y-116750000D01*
X142750000Y-117500000D02*
X142750000Y-119250000D01*
X142000000Y-116750000D02*
X142750000Y-117500000D01*
X112300000Y-116000000D02*
X111000000Y-116000000D01*
X111000000Y-116000000D02*
X110500000Y-115500000D01*
X332700000Y-76700000D02*
X334000000Y-76700000D01*
X320850000Y-33537500D02*
X320850000Y-64850000D01*
X329000000Y-73000000D02*
X332700000Y-76700000D01*
X320850000Y-64850000D02*
X329000000Y-73000000D01*
X151750000Y-107000000D02*
X150750000Y-106000000D01*
X189250000Y-111250000D02*
X185000000Y-107000000D01*
X211500000Y-107500000D02*
X207750000Y-111250000D01*
X301000000Y-107500000D02*
X211500000Y-107500000D01*
X306000000Y-102500000D02*
X301000000Y-107500000D01*
X306000000Y-92000000D02*
X306000000Y-102500000D01*
X310500000Y-87500000D02*
X306000000Y-92000000D01*
X185000000Y-107000000D02*
X151750000Y-107000000D01*
X207750000Y-111250000D02*
X189250000Y-111250000D01*
X320000000Y-87500000D02*
X310500000Y-87500000D01*
X329000000Y-78500000D02*
X320000000Y-87500000D01*
X329000000Y-73000000D02*
X329000000Y-78500000D01*
X61250000Y-79500000D02*
X59950000Y-79500000D01*
X81750000Y-100000000D02*
X61250000Y-79500000D01*
X86750000Y-100000000D02*
X81750000Y-100000000D01*
X88500000Y-101750000D02*
X86750000Y-100000000D01*
X107500000Y-101750000D02*
X88500000Y-101750000D01*
X136000000Y-107877944D02*
X136000000Y-103500000D01*
X134044176Y-109833768D02*
X136000000Y-107877944D01*
X147687500Y-118537500D02*
X147687500Y-118387500D01*
X147687500Y-118537500D02*
X147687500Y-118287500D01*
X149600000Y-116150000D02*
X149600000Y-115300000D01*
X148000000Y-117750000D02*
X149600000Y-116150000D01*
X148000000Y-118500000D02*
X148000000Y-117750000D01*
X147250000Y-118500000D02*
X148000000Y-118500000D01*
X144750000Y-116000000D02*
X147250000Y-118500000D01*
X137028427Y-116000000D02*
X144750000Y-116000000D01*
X136306917Y-115278490D02*
X137028427Y-116000000D01*
X147000000Y-113300000D02*
X147400000Y-113700000D01*
X147000000Y-110000000D02*
X147000000Y-113300000D01*
X146550000Y-113700000D02*
X147400000Y-113700000D01*
X145000000Y-115250000D02*
X146550000Y-113700000D01*
X137409798Y-115250000D02*
X145000000Y-115250000D01*
X136837247Y-114677449D02*
X137409798Y-115250000D01*
X128634809Y-116374506D02*
X128634809Y-116402691D01*
X128634809Y-116374506D02*
X128600494Y-116374506D01*
X116750000Y-115250000D02*
X116000000Y-116000000D01*
X122000000Y-115250000D02*
X116750000Y-115250000D01*
X124250000Y-117500000D02*
X122000000Y-115250000D01*
X127509314Y-117500000D02*
X124250000Y-117500000D01*
X128599453Y-116409861D02*
X127509314Y-117500000D01*
X116000000Y-116000000D02*
X114200000Y-116000000D01*
X173000000Y-102750000D02*
X171700000Y-102750000D01*
X174000000Y-103750000D02*
X173000000Y-102750000D01*
X190000000Y-109500000D02*
X184250000Y-103750000D01*
X207000000Y-109500000D02*
X190000000Y-109500000D01*
X210750000Y-105750000D02*
X207000000Y-109500000D01*
X184250000Y-103750000D02*
X174000000Y-103750000D01*
X285750000Y-105750000D02*
X210750000Y-105750000D01*
X309500000Y-73250000D02*
X309500000Y-82000000D01*
X318450000Y-64300000D02*
X309500000Y-73250000D01*
X309500000Y-82000000D02*
X285750000Y-105750000D01*
X318450000Y-33537500D02*
X318450000Y-64300000D01*
X174000000Y-104500000D02*
X173000000Y-105500000D01*
X184000000Y-104500000D02*
X174000000Y-104500000D01*
X189750000Y-110250000D02*
X184000000Y-104500000D01*
X207250000Y-110250000D02*
X189750000Y-110250000D01*
X173000000Y-105500000D02*
X171700000Y-105500000D01*
X211000000Y-106500000D02*
X207250000Y-110250000D01*
X286000000Y-106500000D02*
X211000000Y-106500000D01*
X310250000Y-82250000D02*
X286000000Y-106500000D01*
X310250000Y-73500000D02*
X310250000Y-82250000D01*
X319250000Y-64500000D02*
X310250000Y-73500000D01*
X319250000Y-33537500D02*
X319250000Y-64500000D01*
X159000000Y-104500000D02*
X142772056Y-104500000D01*
X160000000Y-105500000D02*
X159000000Y-104500000D01*
X163500000Y-105500000D02*
X160000000Y-105500000D01*
X142772056Y-104500000D02*
X135741232Y-111530824D01*
X166250000Y-102750000D02*
X163500000Y-105500000D01*
X169800000Y-102750000D02*
X166250000Y-102750000D01*
X169800000Y-105500000D02*
X166250000Y-105500000D01*
X142390686Y-103750000D02*
X135175547Y-110965139D01*
X159000000Y-103750000D02*
X142390686Y-103750000D01*
X160000000Y-102750000D02*
X159000000Y-103750000D01*
X163500000Y-102750000D02*
X160000000Y-102750000D01*
X228600000Y-61050000D02*
X231000000Y-58650000D01*
X231000000Y-49125000D02*
X238125000Y-42000000D01*
X231000000Y-58650000D02*
X231000000Y-49125000D01*
X204775000Y-99137500D02*
X223825000Y-99137500D01*
X216850000Y-77562500D02*
X214312500Y-80100000D01*
X216850000Y-65500000D02*
X216850000Y-77562500D01*
X221300000Y-61050000D02*
X216850000Y-65500000D01*
X228600000Y-61050000D02*
X221300000Y-61050000D01*
X134008820Y-117508820D02*
X137500000Y-121000000D01*
X153000000Y-121000000D02*
X154250000Y-119750000D01*
X137500000Y-121000000D02*
X153000000Y-121000000D01*
X220500000Y-95812500D02*
X223837500Y-99150000D01*
X220500000Y-89500000D02*
X220500000Y-95812500D01*
X214312500Y-83312500D02*
X220500000Y-89500000D01*
X214312500Y-80100000D02*
X214312500Y-83312500D01*
X266700000Y-61050000D02*
X266700000Y-75337500D01*
X266700000Y-75337500D02*
X271462500Y-80100000D01*
X242887500Y-99150000D02*
X261937500Y-99150000D01*
X242875000Y-99137500D02*
X245037500Y-96975000D01*
X252400000Y-83675000D02*
X252400000Y-80087500D01*
X245037500Y-91037500D02*
X252400000Y-83675000D01*
X245037500Y-96975000D02*
X245037500Y-91037500D01*
X243850000Y-80100000D02*
X252412500Y-80100000D01*
X234850000Y-71100000D02*
X243850000Y-80100000D01*
X134500000Y-120000000D02*
X134500000Y-119128427D01*
X133443135Y-118071562D02*
X133443135Y-118093135D01*
X134500000Y-119128427D02*
X133443135Y-118071562D01*
X234850000Y-71100000D02*
X234850000Y-65500000D01*
X286000000Y-118200000D02*
X297800000Y-118200000D01*
X297800000Y-118200000D02*
X301750000Y-114250000D01*
X301750000Y-114250000D02*
X317000000Y-114250000D01*
X317000000Y-114250000D02*
X321250000Y-118500000D01*
X321250000Y-118500000D02*
X332000000Y-118500000D01*
X332000000Y-118500000D02*
X338500000Y-112000000D01*
X269500000Y-58250000D02*
X266700000Y-61050000D01*
X269500000Y-53000000D02*
X269500000Y-58250000D01*
X274000000Y-48500000D02*
X269500000Y-53000000D01*
X274000000Y-44225000D02*
X274000000Y-48500000D01*
X276225000Y-42000000D02*
X274000000Y-44225000D01*
X338500000Y-99150000D02*
X338500000Y-112000000D01*
X286000000Y-95000000D02*
X283500000Y-92500000D01*
X283500000Y-92500000D02*
X283500000Y-87500000D01*
X286000000Y-85000000D02*
X283500000Y-87500000D01*
X132877449Y-118637247D02*
X132877449Y-118647551D01*
X132877449Y-118637247D02*
X132887247Y-118637247D01*
X294100000Y-46000000D02*
X294100000Y-45775000D01*
X304800000Y-118200000D02*
X304800000Y-116700000D01*
X133250000Y-120500000D02*
X133250000Y-119009798D01*
X134750000Y-122000000D02*
X133250000Y-120500000D01*
X189000000Y-118000000D02*
X185000000Y-122000000D01*
X133250000Y-119009798D02*
X132877449Y-118637247D01*
X207500000Y-118000000D02*
X189000000Y-118000000D01*
X211500000Y-122000000D02*
X207500000Y-118000000D01*
X301000000Y-122000000D02*
X211500000Y-122000000D01*
X185000000Y-122000000D02*
X134750000Y-122000000D01*
X304800000Y-118200000D02*
X301000000Y-122000000D01*
X286000000Y-61050000D02*
X290000000Y-61050000D01*
X290000000Y-61050000D02*
X311750000Y-61050000D01*
X286000000Y-61050000D02*
X286000000Y-85000000D01*
X306000000Y-55300000D02*
X311750000Y-61050000D01*
X306000000Y-51500000D02*
X306000000Y-55300000D01*
X303250000Y-48750000D02*
X306000000Y-51500000D01*
X294350000Y-48750000D02*
X303250000Y-48750000D01*
X291600000Y-46000000D02*
X294350000Y-48750000D01*
X333750000Y-99150000D02*
X324250000Y-99150000D01*
X76200000Y-61050000D02*
X78500000Y-63350000D01*
X78500000Y-77637500D02*
X80962500Y-80100000D01*
X78500000Y-63350000D02*
X78500000Y-77637500D01*
X76200000Y-61050000D02*
X73500000Y-58350000D01*
X73500000Y-48825000D02*
X66675000Y-42000000D01*
X73500000Y-58350000D02*
X73500000Y-48825000D01*
X130000000Y-119534798D02*
X130000000Y-120500000D01*
X130897551Y-118637247D02*
X130000000Y-119534798D01*
X100012500Y-80100000D02*
X102000000Y-78112500D01*
X102000000Y-78112500D02*
X102000000Y-67800000D01*
X102000000Y-67800000D02*
X95250000Y-61050000D01*
X104775000Y-42000000D02*
X111500000Y-48725000D01*
X111500000Y-58250000D02*
X114300000Y-61050000D01*
X111500000Y-48725000D02*
X111500000Y-58250000D01*
X85725000Y-42000000D02*
X92500000Y-48775000D01*
X92500000Y-48775000D02*
X92500000Y-58300000D01*
X92500000Y-58300000D02*
X95250000Y-61050000D01*
X130331865Y-118071562D02*
X130331865Y-118105635D01*
X130331865Y-118071562D02*
X130331865Y-118093135D01*
X109125000Y-119750000D02*
X105125000Y-115750000D01*
X115000000Y-119750000D02*
X109125000Y-119750000D01*
X105125000Y-115750000D02*
X101250000Y-115750000D01*
X121000000Y-118000000D02*
X116750000Y-118000000D01*
X122750000Y-119750000D02*
X121000000Y-118000000D01*
X128653427Y-119750000D02*
X122750000Y-119750000D01*
X116750000Y-118000000D02*
X115000000Y-119750000D01*
X130296510Y-118106917D02*
X128653427Y-119750000D01*
X92750000Y-96887500D02*
X90487500Y-99150000D01*
X92750000Y-91250000D02*
X92750000Y-96887500D01*
X119062500Y-80100000D02*
X115900000Y-80100000D01*
X115900000Y-80100000D02*
X112000000Y-84000000D01*
X133350000Y-61050000D02*
X136000000Y-58400000D01*
X136000000Y-48875000D02*
X142875000Y-42000000D01*
X136000000Y-58400000D02*
X136000000Y-48875000D01*
X129766180Y-117505877D02*
X129706623Y-117505877D01*
X129766180Y-117505877D02*
X129766180Y-117508820D01*
X110500000Y-119000000D02*
X108500000Y-117000000D01*
X114500000Y-119000000D02*
X110500000Y-119000000D01*
X123250000Y-119000000D02*
X121500000Y-117250000D01*
X121500000Y-117250000D02*
X116250000Y-117250000D01*
X128272057Y-119000000D02*
X123250000Y-119000000D01*
X116250000Y-117250000D02*
X114500000Y-119000000D01*
X129766180Y-117505877D02*
X128272057Y-119000000D01*
X112000000Y-96687500D02*
X109537500Y-99150000D01*
X112000000Y-84000000D02*
X112000000Y-96687500D01*
X171450000Y-61050000D02*
X174000000Y-58500000D01*
X174000000Y-58500000D02*
X174000000Y-48975000D01*
X174000000Y-48975000D02*
X180975000Y-42000000D01*
X161912500Y-42012500D02*
X161912500Y-41987500D01*
X147625000Y-99137500D02*
X128575000Y-99137500D01*
X129200494Y-116940191D02*
X129200494Y-116962006D01*
X129200494Y-116940191D02*
X129184809Y-116940191D01*
X121750000Y-116250000D02*
X119000000Y-116250000D01*
X123750000Y-118250000D02*
X121750000Y-116250000D01*
X127890685Y-118250000D02*
X123750000Y-118250000D01*
X129200494Y-116940191D02*
X127890685Y-118250000D01*
X171450000Y-61050000D02*
X164950000Y-61050000D01*
X144250000Y-95762500D02*
X147637500Y-99150000D01*
X144250000Y-83500000D02*
X144250000Y-95762500D01*
X150600000Y-65500000D02*
X152850000Y-63250000D01*
X162750000Y-63250000D02*
X164950000Y-61050000D01*
X152850000Y-63250000D02*
X162750000Y-63250000D01*
X128587500Y-99150000D02*
X117600000Y-99150000D01*
X117600000Y-99150000D02*
X115750000Y-101000000D01*
X209550000Y-61050000D02*
X212000000Y-58600000D01*
X212000000Y-49075000D02*
X219075000Y-42000000D01*
X212000000Y-58600000D02*
X212000000Y-49075000D01*
X197000000Y-73575000D02*
X197000000Y-78337500D01*
X197000000Y-78337500D02*
X195250000Y-80087500D01*
X197000000Y-73575000D02*
X209537500Y-61037500D01*
X134574506Y-116940191D02*
X134590191Y-116940191D01*
X137250000Y-119000000D02*
X136634314Y-119000000D01*
X137250000Y-119000000D02*
X138000000Y-119750000D01*
X136634314Y-119000000D02*
X134609861Y-116975547D01*
X239100000Y-104000000D02*
X237350000Y-102250000D01*
X174650000Y-80100000D02*
X176212500Y-80100000D01*
X169068750Y-85681250D02*
X174650000Y-80100000D01*
X169068750Y-96743750D02*
X169068750Y-85681250D01*
X166675000Y-99137500D02*
X169068750Y-96743750D01*
X211100000Y-102250000D02*
X212850000Y-104000000D01*
X192250000Y-102250000D02*
X211100000Y-102250000D01*
X212850000Y-104000000D02*
X214600000Y-102250000D01*
X214600000Y-102250000D02*
X237350000Y-102250000D01*
X271343750Y-110300000D02*
X273543750Y-112500000D01*
X290975000Y-108500000D02*
X292775000Y-110300000D01*
X283500000Y-108500000D02*
X290975000Y-108500000D01*
X279500000Y-112500000D02*
X283500000Y-108500000D01*
X273543750Y-112500000D02*
X279500000Y-112500000D01*
X124750000Y-116750000D02*
X122500000Y-114500000D01*
X127127943Y-116750000D02*
X124750000Y-116750000D01*
X128069123Y-115808820D02*
X127127943Y-116750000D01*
X128069123Y-115855877D02*
X128069123Y-115808820D01*
X45362500Y-118300000D02*
X48062500Y-121000000D01*
X68856250Y-121000000D02*
X71556250Y-118300000D01*
X48062500Y-121000000D02*
X68856250Y-121000000D01*
X59412500Y-110300000D02*
X62862500Y-113750000D01*
X67006250Y-113750000D02*
X71556250Y-118300000D01*
X62862500Y-113750000D02*
X67006250Y-113750000D01*
X168162500Y-118300000D02*
X169187500Y-118300000D01*
X159662500Y-109800000D02*
X168162500Y-118300000D01*
X159662500Y-109800000D02*
X157281250Y-109800000D01*
X69175000Y-118300000D02*
X71556250Y-118300000D01*
X86343750Y-118800000D02*
X85843750Y-118300000D01*
X87987500Y-118800000D02*
X86343750Y-118800000D01*
X98450000Y-119000000D02*
X97750000Y-118300000D01*
X106750000Y-119000000D02*
X98450000Y-119000000D01*
X108500000Y-120750000D02*
X106750000Y-119000000D01*
X115500000Y-120750000D02*
X108500000Y-120750000D01*
X117000000Y-119250000D02*
X115500000Y-120750000D01*
X120750000Y-119250000D02*
X117000000Y-119250000D01*
X124000000Y-122500000D02*
X120750000Y-119250000D01*
X131500000Y-122500000D02*
X124000000Y-122500000D01*
X95306250Y-114500000D02*
X90606250Y-109800000D01*
X122500000Y-114500000D02*
X95306250Y-114500000D01*
X85843750Y-114562500D02*
X85843750Y-118300000D01*
X90606250Y-109800000D02*
X85843750Y-114562500D01*
X97750000Y-118300000D02*
X95050000Y-121000000D01*
X90187500Y-121000000D02*
X87987500Y-118800000D01*
X95050000Y-121000000D02*
X90187500Y-121000000D01*
X85843750Y-118300000D02*
X83143750Y-121000000D01*
X74256250Y-121000000D02*
X71556250Y-118300000D01*
X83143750Y-121000000D02*
X74256250Y-121000000D01*
X123000000Y-113750000D02*
X101000000Y-113750000D01*
X126746573Y-116000000D02*
X125250000Y-116000000D01*
X127503438Y-115243135D02*
X126746573Y-116000000D01*
X125250000Y-116000000D02*
X123000000Y-113750000D01*
X127503438Y-115271562D02*
X127503438Y-115243135D01*
X101000000Y-113750000D02*
X99250000Y-112000000D01*
X120600000Y-95287500D02*
X141787500Y-95287500D01*
X116550000Y-91237500D02*
X120600000Y-95287500D01*
X42743750Y-72200000D02*
X45362500Y-74818750D01*
X45362500Y-74818750D02*
X45362500Y-80200000D01*
X107037500Y-72200000D02*
X111037500Y-76200000D01*
X111037500Y-76200000D02*
X120562500Y-76200000D01*
X120562500Y-76200000D02*
X135612500Y-91250000D01*
X42981250Y-80200000D02*
X45362500Y-80200000D01*
X125750000Y-115250000D02*
X126365202Y-115250000D01*
X123500000Y-113000000D02*
X125750000Y-115250000D01*
X126365202Y-115250000D02*
X126937753Y-114677449D01*
X95250000Y-106250000D02*
X102000000Y-113000000D01*
X85500000Y-106250000D02*
X95250000Y-106250000D01*
X83737500Y-104487500D02*
X85500000Y-106250000D01*
X102000000Y-113000000D02*
X123500000Y-113000000D01*
X52987500Y-104487500D02*
X83737500Y-104487500D01*
X45362500Y-96862500D02*
X52987500Y-104487500D01*
X45362500Y-80200000D02*
X45362500Y-96862500D01*
X141937500Y-69000000D02*
X145137500Y-72200000D01*
X129287500Y-69000000D02*
X141937500Y-69000000D01*
X126087500Y-72200000D02*
X129287500Y-69000000D01*
X160987500Y-69000000D02*
X164187500Y-72200000D01*
X148337500Y-69000000D02*
X160987500Y-69000000D01*
X145137500Y-72200000D02*
X148337500Y-69000000D01*
X126922551Y-112697551D02*
X126475000Y-112250000D01*
X102500000Y-112250000D02*
X95750000Y-105500000D01*
X67487500Y-103737500D02*
X54750000Y-91000000D01*
X86000000Y-105500000D02*
X84237500Y-103737500D01*
X95750000Y-105500000D02*
X86000000Y-105500000D01*
X84237500Y-103737500D02*
X67487500Y-103737500D01*
X54750000Y-91000000D02*
X54750000Y-84500000D01*
X126475000Y-112250000D02*
X102500000Y-112250000D01*
X54750000Y-84500000D02*
X51500000Y-81250000D01*
X51500000Y-81250000D02*
X51500000Y-76500006D01*
X43000000Y-62000000D02*
X40362500Y-59362500D01*
X40362500Y-59362500D02*
X40362500Y-53150000D01*
X269000000Y-69000000D02*
X281000000Y-57000000D01*
X293687500Y-57000000D02*
X297537500Y-53150000D01*
X281000000Y-57000000D02*
X293687500Y-57000000D01*
X126871573Y-111500000D02*
X127503438Y-112131865D01*
X86500000Y-104750000D02*
X97500000Y-104750000D01*
X84737500Y-102987500D02*
X86500000Y-104750000D01*
X55500000Y-90500000D02*
X67987500Y-102987500D01*
X67987500Y-102987500D02*
X84737500Y-102987500D01*
X55500000Y-84000000D02*
X55500000Y-90500000D01*
X104250000Y-111500000D02*
X126871573Y-111500000D01*
X52750000Y-81250000D02*
X55500000Y-84000000D01*
X52750000Y-71750000D02*
X52750000Y-81250000D01*
X97500000Y-104750000D02*
X104250000Y-111500000D01*
X43000000Y-62000000D02*
X52750000Y-71750000D01*
X128069123Y-111566180D02*
X128066180Y-111566180D01*
X104750000Y-110750000D02*
X127252943Y-110750000D01*
X127252943Y-110750000D02*
X128069123Y-111566180D01*
X87000000Y-104000000D02*
X98000000Y-104000000D01*
X68487500Y-102237500D02*
X85237500Y-102237500D01*
X85237500Y-102237500D02*
X87000000Y-104000000D01*
X56250000Y-83500000D02*
X56250000Y-90000000D01*
X56250000Y-90000000D02*
X68487500Y-102237500D01*
X53500000Y-80750000D02*
X56250000Y-83500000D01*
X53500000Y-71250000D02*
X53500000Y-80750000D01*
X98000000Y-104000000D02*
X104750000Y-110750000D01*
X47000000Y-64750000D02*
X53500000Y-71250000D01*
X47000000Y-55500000D02*
X47000000Y-64750000D01*
X254675000Y-53150000D02*
X269725000Y-38100000D01*
X279250000Y-38100000D02*
X283250000Y-34100000D01*
X269725000Y-38100000D02*
X279250000Y-38100000D01*
X226100000Y-34100000D02*
X230100000Y-38100000D01*
X239625000Y-38100000D02*
X254675000Y-53150000D01*
X230100000Y-38100000D02*
X239625000Y-38100000D01*
X48500000Y-47000000D02*
X39500000Y-38000000D01*
X48500000Y-65000000D02*
X48500000Y-47000000D01*
X54250000Y-80250000D02*
X54250000Y-70750000D01*
X57000000Y-83000000D02*
X54250000Y-80250000D01*
X68750000Y-101500000D02*
X57000000Y-89750000D01*
X85750000Y-101500000D02*
X68750000Y-101500000D01*
X87500000Y-103250000D02*
X85750000Y-101500000D01*
X54250000Y-70750000D02*
X48500000Y-65000000D01*
X57000000Y-89750000D02*
X57000000Y-83000000D01*
X106250000Y-103250000D02*
X87500000Y-103250000D01*
X113000000Y-110000000D02*
X106250000Y-103250000D01*
X127634315Y-110000000D02*
X113000000Y-110000000D01*
X128634809Y-111000494D02*
X127634315Y-110000000D01*
X54650000Y-49100000D02*
X54650000Y-34100000D01*
X129165139Y-110399453D02*
X128015686Y-109250000D01*
X57750000Y-82500000D02*
X55000000Y-79750000D01*
X128015686Y-109250000D02*
X113500000Y-109250000D01*
X113500000Y-109250000D02*
X106750000Y-102500000D01*
X106750000Y-102500000D02*
X88000000Y-102500000D01*
X88000000Y-102500000D02*
X86250000Y-100750000D01*
X86250000Y-100750000D02*
X69500000Y-100750000D01*
X69500000Y-100750000D02*
X57750000Y-89000000D01*
X57750000Y-89000000D02*
X57750000Y-82500000D01*
X49750000Y-54000000D02*
X54650000Y-49100000D01*
X55000000Y-79750000D02*
X55000000Y-70250000D01*
X55000000Y-70250000D02*
X49750000Y-65000000D01*
X49750000Y-65000000D02*
X49750000Y-54000000D01*
X286000000Y-110400000D02*
X287850000Y-112250000D01*
X295325000Y-112250000D02*
X297775000Y-109800000D01*
X287850000Y-112250000D02*
X295325000Y-112250000D01*
X254912500Y-90750000D02*
X261337500Y-90750000D01*
X261337500Y-90750000D02*
X261937500Y-91350000D01*
X242650000Y-54675000D02*
X240625000Y-52650000D01*
X242650000Y-65500000D02*
X242650000Y-54675000D01*
X306700000Y-108500000D02*
X304800000Y-110400000D01*
X315525000Y-108500000D02*
X306700000Y-108500000D01*
X316825000Y-109800000D02*
X315525000Y-108500000D01*
X323650000Y-90750000D02*
X324250000Y-91350000D01*
X316825000Y-90750000D02*
X323650000Y-90750000D01*
X278725000Y-46825000D02*
X277900000Y-46000000D01*
X278725000Y-52650000D02*
X278725000Y-46825000D01*
X299400000Y-44750000D02*
X299400000Y-46000000D01*
X288250000Y-33600000D02*
X299400000Y-44750000D01*
X302300000Y-42600000D02*
X302300000Y-46550000D01*
X309000000Y-53250000D02*
X311750000Y-53250000D01*
X302300000Y-46550000D02*
X309000000Y-53250000D01*
X297775000Y-38075000D02*
X302300000Y-42600000D01*
X297775000Y-33600000D02*
X297775000Y-38075000D01*
X35000000Y-93350000D02*
X33000000Y-91350000D01*
X35000000Y-103750000D02*
X35000000Y-93350000D01*
X41050000Y-109800000D02*
X35000000Y-103750000D01*
X42981250Y-109800000D02*
X41050000Y-109800000D01*
X40362500Y-112418750D02*
X42981250Y-109800000D01*
X40362500Y-118800000D02*
X40362500Y-112418750D01*
X40362500Y-80700000D02*
X37981250Y-80700000D01*
X47743750Y-70843750D02*
X47743750Y-71700000D01*
X42400000Y-65500000D02*
X47743750Y-70843750D01*
X37981250Y-69918750D02*
X42400000Y-65500000D01*
X37981250Y-80700000D02*
X37981250Y-69918750D01*
X33337500Y-53250000D02*
X35587500Y-51000000D01*
X43712500Y-51000000D02*
X45362500Y-52650000D01*
X35587500Y-51000000D02*
X43712500Y-51000000D01*
X64412500Y-109800000D02*
X66793750Y-109800000D01*
X66556250Y-118800000D02*
X64175000Y-118800000D01*
X80843750Y-115062500D02*
X80843750Y-118800000D01*
X85606250Y-110300000D02*
X80843750Y-115062500D01*
X85606250Y-108956250D02*
X85606250Y-110300000D01*
X82900000Y-106250000D02*
X85606250Y-108956250D01*
X152281250Y-110300000D02*
X154662500Y-110300000D01*
X152281250Y-110300000D02*
X154831250Y-107750000D01*
X179150000Y-107750000D02*
X180500000Y-109100000D01*
X154831250Y-107750000D02*
X179150000Y-107750000D01*
X160781250Y-118800000D02*
X152281250Y-110300000D01*
X164187500Y-118800000D02*
X160781250Y-118800000D01*
X121562500Y-90750000D02*
X127987500Y-90750000D01*
X127987500Y-90750000D02*
X128587500Y-91350000D01*
X242768750Y-110300000D02*
X245468750Y-113000000D01*
X249331250Y-113000000D02*
X252531250Y-109800000D01*
X245468750Y-113000000D02*
X249331250Y-113000000D01*
X130887753Y-108737753D02*
X130897551Y-108737753D01*
X130897551Y-108737753D02*
X130897551Y-108722551D01*
X130000000Y-107840202D02*
X130862195Y-108702397D01*
X130000000Y-106500000D02*
X130000000Y-107840202D01*
X329750000Y-66250000D02*
X327750000Y-66250000D01*
X332800000Y-69300000D02*
X329750000Y-66250000D01*
X332800000Y-70000000D02*
X332800000Y-69300000D01*
X332800000Y-70800000D02*
X332800000Y-70000000D01*
X334000000Y-72000000D02*
X332800000Y-70800000D01*
X334000000Y-73300000D02*
X334000000Y-72000000D01*
X226337500Y-67187500D02*
X224650000Y-65500000D01*
X226337500Y-71700000D02*
X226337500Y-67187500D01*
X338650000Y-36375000D02*
X335875000Y-33600000D01*
X338650000Y-46000000D02*
X338650000Y-36375000D01*
X338500000Y-55275000D02*
X335875000Y-52650000D01*
X338500000Y-91350000D02*
X338500000Y-55275000D01*
X335875000Y-93475000D02*
X333750000Y-91350000D01*
X335875000Y-109800000D02*
X335875000Y-93475000D01*
X218775000Y-112500000D02*
X226018750Y-112500000D01*
X226018750Y-112500000D02*
X228718750Y-109800000D01*
X216575000Y-110300000D02*
X218775000Y-112500000D01*
X129730824Y-109833768D02*
X128397056Y-108500000D01*
X123750000Y-108500000D02*
X122750000Y-107500000D01*
X128397056Y-108500000D02*
X123750000Y-108500000D01*
X304250000Y-107500000D02*
X328075000Y-107500000D01*
X297500000Y-114250000D02*
X304250000Y-107500000D01*
X328075000Y-107500000D02*
X330875000Y-110300000D01*
X269250000Y-114250000D02*
X297500000Y-114250000D01*
X264250000Y-119250000D02*
X269250000Y-114250000D01*
X251750000Y-114750000D02*
X256250000Y-119250000D01*
X232300000Y-109800000D02*
X237250000Y-114750000D01*
X256250000Y-119250000D02*
X264250000Y-119250000D01*
X237250000Y-114750000D02*
X251750000Y-114750000D01*
X228718750Y-109800000D02*
X232300000Y-109800000D01*
X133478490Y-109268083D02*
X134500000Y-108246573D01*
X134500000Y-104750000D02*
X132500000Y-102750000D01*
X134500000Y-108246573D02*
X134500000Y-104750000D01*
X57000000Y-78450000D02*
X58050000Y-79500000D01*
X57000000Y-76200000D02*
X57000000Y-78450000D01*
X57000000Y-76200000D02*
X57000000Y-68500000D01*
X58000000Y-50500000D02*
X58000000Y-67500000D01*
X57000000Y-68500000D02*
X58000000Y-67500000D01*
X59540000Y-48290000D02*
X56750000Y-45500000D01*
X59540000Y-76200000D02*
X59540000Y-48290000D01*
X81840000Y-98500000D02*
X59540000Y-76200000D01*
X89000000Y-101000000D02*
X86500000Y-98500000D01*
X86500000Y-98500000D02*
X81840000Y-98500000D01*
X108500000Y-101000000D02*
X89000000Y-101000000D01*
X120250000Y-103000000D02*
X110500000Y-103000000D01*
X122250000Y-105000000D02*
X120250000Y-103000000D01*
X110500000Y-103000000D02*
X108500000Y-101000000D01*
X132250000Y-105000000D02*
X122250000Y-105000000D01*
X133500000Y-106250000D02*
X132250000Y-105000000D01*
X133500000Y-108115202D02*
X133500000Y-106250000D01*
X132912805Y-108702397D02*
X133500000Y-108115202D01*
X321807333Y-29434904D02*
X321740031Y-29656769D01*
X321723000Y-29829689D01*
X321723001Y-32445312D01*
X321740032Y-32618232D01*
X321807334Y-32840097D01*
X321916627Y-33044570D01*
X322063710Y-33223791D01*
X322242931Y-33370874D01*
X322447404Y-33480167D01*
X322669269Y-33547469D01*
X322900000Y-33570194D01*
X323130732Y-33547469D01*
X323352597Y-33480167D01*
X323557070Y-33370874D01*
X323623000Y-33316767D01*
X323623000Y-34123000D01*
X321737220Y-34123000D01*
X321735000Y-33823250D01*
X321576250Y-33664500D01*
X320973000Y-33664500D01*
X320973000Y-33684500D01*
X320729066Y-33684500D01*
X320729066Y-32837500D01*
X320727000Y-32816522D01*
X320727000Y-32361250D01*
X320973000Y-32361250D01*
X320973000Y-33410500D01*
X321576250Y-33410500D01*
X321735000Y-33251750D01*
X321737994Y-32847454D01*
X321727677Y-32722796D01*
X321693239Y-32602546D01*
X321636003Y-32491326D01*
X321558169Y-32393408D01*
X321462727Y-32312557D01*
X321353346Y-32251879D01*
X321234229Y-32213706D01*
X321131750Y-32202500D01*
X320973000Y-32361250D01*
X320727000Y-32361250D01*
X320568250Y-32202500D01*
X320465771Y-32213706D01*
X320346654Y-32251879D01*
X320237273Y-32312557D01*
X320141831Y-32393408D01*
X320129887Y-32408434D01*
X319800000Y-32408434D01*
X319716293Y-32416678D01*
X319650000Y-32436789D01*
X319583707Y-32416678D01*
X319500000Y-32408434D01*
X319000000Y-32408434D01*
X318916293Y-32416678D01*
X318850000Y-32436789D01*
X318783707Y-32416678D01*
X318700000Y-32408434D01*
X318200000Y-32408434D01*
X318116293Y-32416678D01*
X318050000Y-32436789D01*
X317983707Y-32416678D01*
X317900000Y-32408434D01*
X317400000Y-32408434D01*
X317316293Y-32416678D01*
X317235804Y-32441095D01*
X317161624Y-32480745D01*
X317096605Y-32534105D01*
X317043245Y-32599124D01*
X317003595Y-32673304D01*
X316979178Y-32753793D01*
X316970934Y-32837500D01*
X316970934Y-34123000D01*
X314877000Y-34123000D01*
X314877000Y-33316766D01*
X314942931Y-33370874D01*
X315147404Y-33480167D01*
X315369269Y-33547469D01*
X315600000Y-33570194D01*
X315830732Y-33547469D01*
X316052597Y-33480167D01*
X316257070Y-33370874D01*
X316436291Y-33223791D01*
X316583374Y-33044570D01*
X316692667Y-32840097D01*
X316759969Y-32618232D01*
X316777000Y-32445312D01*
X316777000Y-29829688D01*
X316759969Y-29656768D01*
X316692667Y-29434903D01*
X316661717Y-29377000D01*
X321838283Y-29377000D01*
X321807333Y-29434904D01*
G04 #@! TA.AperFunction,Conductor*
D34*
G36*
X321807333Y-29434904D02*
G01*
X321740031Y-29656769D01*
X321723000Y-29829689D01*
X321723001Y-32445312D01*
X321740032Y-32618232D01*
X321807334Y-32840097D01*
X321916627Y-33044570D01*
X322063710Y-33223791D01*
X322242931Y-33370874D01*
X322447404Y-33480167D01*
X322669269Y-33547469D01*
X322900000Y-33570194D01*
X323130732Y-33547469D01*
X323352597Y-33480167D01*
X323557070Y-33370874D01*
X323623000Y-33316767D01*
X323623000Y-34123000D01*
X321737220Y-34123000D01*
X321735000Y-33823250D01*
X321576250Y-33664500D01*
X320973000Y-33664500D01*
X320973000Y-33684500D01*
X320729066Y-33684500D01*
X320729066Y-32837500D01*
X320727000Y-32816522D01*
X320727000Y-32361250D01*
X320973000Y-32361250D01*
X320973000Y-33410500D01*
X321576250Y-33410500D01*
X321735000Y-33251750D01*
X321737994Y-32847454D01*
X321727677Y-32722796D01*
X321693239Y-32602546D01*
X321636003Y-32491326D01*
X321558169Y-32393408D01*
X321462727Y-32312557D01*
X321353346Y-32251879D01*
X321234229Y-32213706D01*
X321131750Y-32202500D01*
X320973000Y-32361250D01*
X320727000Y-32361250D01*
X320568250Y-32202500D01*
X320465771Y-32213706D01*
X320346654Y-32251879D01*
X320237273Y-32312557D01*
X320141831Y-32393408D01*
X320129887Y-32408434D01*
X319800000Y-32408434D01*
X319716293Y-32416678D01*
X319650000Y-32436789D01*
X319583707Y-32416678D01*
X319500000Y-32408434D01*
X319000000Y-32408434D01*
X318916293Y-32416678D01*
X318850000Y-32436789D01*
X318783707Y-32416678D01*
X318700000Y-32408434D01*
X318200000Y-32408434D01*
X318116293Y-32416678D01*
X318050000Y-32436789D01*
X317983707Y-32416678D01*
X317900000Y-32408434D01*
X317400000Y-32408434D01*
X317316293Y-32416678D01*
X317235804Y-32441095D01*
X317161624Y-32480745D01*
X317096605Y-32534105D01*
X317043245Y-32599124D01*
X317003595Y-32673304D01*
X316979178Y-32753793D01*
X316970934Y-32837500D01*
X316970934Y-34123000D01*
X314877000Y-34123000D01*
X314877000Y-33316766D01*
X314942931Y-33370874D01*
X315147404Y-33480167D01*
X315369269Y-33547469D01*
X315600000Y-33570194D01*
X315830732Y-33547469D01*
X316052597Y-33480167D01*
X316257070Y-33370874D01*
X316436291Y-33223791D01*
X316583374Y-33044570D01*
X316692667Y-32840097D01*
X316759969Y-32618232D01*
X316777000Y-32445312D01*
X316777000Y-29829688D01*
X316759969Y-29656768D01*
X316692667Y-29434903D01*
X316661717Y-29377000D01*
X321838283Y-29377000D01*
X321807333Y-29434904D01*
G37*
G04 #@! TD.AperFunction*
D32*
X151873000Y-108820212D02*
X151834674Y-108827835D01*
X151556049Y-108943245D01*
X151305294Y-109110795D01*
X151092045Y-109324044D01*
X150924495Y-109574799D01*
X150809085Y-109853424D01*
X150750250Y-110149210D01*
X150750250Y-110450790D01*
X150809085Y-110746576D01*
X150924495Y-111025201D01*
X151092045Y-111275956D01*
X151305294Y-111489205D01*
X151556049Y-111656755D01*
X151834674Y-111772165D01*
X151873000Y-111779788D01*
X151873000Y-120492000D01*
X143403531Y-120492000D01*
X143494180Y-120464502D01*
X143604494Y-120405537D01*
X143701185Y-120326185D01*
X143780537Y-120229494D01*
X143839502Y-120119180D01*
X143875812Y-119999482D01*
X143888072Y-119875000D01*
X143885000Y-119535750D01*
X143726250Y-119377000D01*
X142877000Y-119377000D01*
X142877000Y-119397000D01*
X142623000Y-119397000D01*
X142623000Y-119377000D01*
X142603000Y-119377000D01*
X142603000Y-119123000D01*
X142623000Y-119123000D01*
X142623000Y-118148750D01*
X142877000Y-118148750D01*
X142877000Y-119123000D01*
X143726250Y-119123000D01*
X143885000Y-118964250D01*
X143888072Y-118625000D01*
X143875812Y-118500518D01*
X143839502Y-118380820D01*
X143780537Y-118270506D01*
X143701185Y-118173815D01*
X143604494Y-118094463D01*
X143494180Y-118035498D01*
X143374482Y-117999188D01*
X143250000Y-117986928D01*
X143035750Y-117990000D01*
X142877000Y-118148750D01*
X142623000Y-118148750D01*
X142464250Y-117990000D01*
X142250000Y-117986928D01*
X142125518Y-117999188D01*
X142005820Y-118035498D01*
X141895506Y-118094463D01*
X141798815Y-118173815D01*
X141719463Y-118270506D01*
X141660498Y-118380820D01*
X141624188Y-118500518D01*
X141620804Y-118534874D01*
X141603701Y-118478492D01*
X141568322Y-118412304D01*
X141520711Y-118354289D01*
X141462696Y-118306678D01*
X141396508Y-118271299D01*
X141347936Y-118256565D01*
X141356642Y-118247859D01*
X141442113Y-118119942D01*
X141500987Y-117977809D01*
X141531000Y-117826922D01*
X141531000Y-117673078D01*
X141500987Y-117522191D01*
X141442113Y-117380058D01*
X141356642Y-117252141D01*
X141247859Y-117143358D01*
X141119942Y-117057887D01*
X140977809Y-116999013D01*
X140826922Y-116969000D01*
X140673078Y-116969000D01*
X140522191Y-116999013D01*
X140380058Y-117057887D01*
X140252141Y-117143358D01*
X140143358Y-117252141D01*
X140057887Y-117380058D01*
X139999013Y-117522191D01*
X139969000Y-117673078D01*
X139969000Y-117826922D01*
X139999013Y-117977809D01*
X140057887Y-118119942D01*
X140143358Y-118247859D01*
X140152064Y-118256565D01*
X140103492Y-118271299D01*
X140037304Y-118306678D01*
X139979289Y-118354289D01*
X139931678Y-118412304D01*
X139896299Y-118478492D01*
X139874513Y-118550311D01*
X139867157Y-118625000D01*
X139867157Y-118678500D01*
X139486723Y-118678500D01*
X138423970Y-117615748D01*
X138406067Y-117593933D01*
X138319045Y-117522516D01*
X138219762Y-117469448D01*
X138112034Y-117436769D01*
X138028074Y-117428500D01*
X138000000Y-117425735D01*
X137971926Y-117428500D01*
X137002409Y-117428500D01*
X136876758Y-117302849D01*
X137671606Y-116508000D01*
X144539580Y-116508000D01*
X146873145Y-118841565D01*
X146889052Y-118860948D01*
X146934747Y-118898448D01*
X146966404Y-118924429D01*
X146982595Y-118933083D01*
X147054657Y-118971601D01*
X147117157Y-118990560D01*
X147117157Y-119125000D01*
X147124513Y-119199689D01*
X147146299Y-119271508D01*
X147181678Y-119337696D01*
X147229289Y-119395711D01*
X147287304Y-119443322D01*
X147353492Y-119478701D01*
X147425311Y-119500487D01*
X147500000Y-119507843D01*
X148500000Y-119507843D01*
X148574689Y-119500487D01*
X148646508Y-119478701D01*
X148712696Y-119443322D01*
X148770711Y-119395711D01*
X148818322Y-119337696D01*
X148853701Y-119271508D01*
X148870804Y-119215126D01*
X148874188Y-119249482D01*
X148910498Y-119369180D01*
X148969463Y-119479494D01*
X149048815Y-119576185D01*
X149145506Y-119655537D01*
X149255820Y-119714502D01*
X149375518Y-119750812D01*
X149500000Y-119763072D01*
X149714250Y-119760000D01*
X149873000Y-119601250D01*
X149873000Y-118627000D01*
X150127000Y-118627000D01*
X150127000Y-119601250D01*
X150285750Y-119760000D01*
X150500000Y-119763072D01*
X150624482Y-119750812D01*
X150744180Y-119714502D01*
X150854494Y-119655537D01*
X150951185Y-119576185D01*
X151030537Y-119479494D01*
X151089502Y-119369180D01*
X151125812Y-119249482D01*
X151138072Y-119125000D01*
X151135000Y-118785750D01*
X150976250Y-118627000D01*
X150127000Y-118627000D01*
X149873000Y-118627000D01*
X149853000Y-118627000D01*
X149853000Y-118373000D01*
X149873000Y-118373000D01*
X149873000Y-117398750D01*
X150127000Y-117398750D01*
X150127000Y-118373000D01*
X150976250Y-118373000D01*
X151135000Y-118214250D01*
X151138072Y-117875000D01*
X151125812Y-117750518D01*
X151089502Y-117630820D01*
X151030537Y-117520506D01*
X150951185Y-117423815D01*
X150854494Y-117344463D01*
X150744180Y-117285498D01*
X150624482Y-117249188D01*
X150500000Y-117236928D01*
X150285750Y-117240000D01*
X150127000Y-117398750D01*
X149873000Y-117398750D01*
X149714250Y-117240000D01*
X149500000Y-117236928D01*
X149375518Y-117249188D01*
X149255820Y-117285498D01*
X149145506Y-117344463D01*
X149048815Y-117423815D01*
X148969463Y-117520506D01*
X148910498Y-117630820D01*
X148874188Y-117750518D01*
X148870804Y-117784874D01*
X148853701Y-117728492D01*
X148818322Y-117662304D01*
X148812820Y-117655600D01*
X149941565Y-116526855D01*
X149960948Y-116510948D01*
X150024429Y-116433595D01*
X150071601Y-116345343D01*
X150090560Y-116282843D01*
X150300000Y-116282843D01*
X150374689Y-116275487D01*
X150446508Y-116253701D01*
X150512696Y-116218322D01*
X150570711Y-116170711D01*
X150618322Y-116112696D01*
X150653701Y-116046508D01*
X150675487Y-115974689D01*
X150682843Y-115900000D01*
X150682843Y-114807272D01*
X150751185Y-114751185D01*
X150830537Y-114654494D01*
X150889502Y-114544180D01*
X150925812Y-114424482D01*
X150938072Y-114300000D01*
X150935000Y-113985750D01*
X150776250Y-113827000D01*
X149727000Y-113827000D01*
X149727000Y-113847000D01*
X149473000Y-113847000D01*
X149473000Y-113827000D01*
X149453000Y-113827000D01*
X149453000Y-113573000D01*
X149473000Y-113573000D01*
X149473000Y-112623750D01*
X149727000Y-112623750D01*
X149727000Y-113573000D01*
X150776250Y-113573000D01*
X150935000Y-113414250D01*
X150938072Y-113100000D01*
X150925812Y-112975518D01*
X150889502Y-112855820D01*
X150830537Y-112745506D01*
X150751185Y-112648815D01*
X150654494Y-112569463D01*
X150544180Y-112510498D01*
X150424482Y-112474188D01*
X150300000Y-112461928D01*
X149885750Y-112465000D01*
X149727000Y-112623750D01*
X149473000Y-112623750D01*
X149314250Y-112465000D01*
X148900000Y-112461928D01*
X148775518Y-112474188D01*
X148655820Y-112510498D01*
X148545506Y-112569463D01*
X148448815Y-112648815D01*
X148369463Y-112745506D01*
X148338715Y-112803031D01*
X148312696Y-112781678D01*
X148246508Y-112746299D01*
X148174689Y-112724513D01*
X148100000Y-112717157D01*
X147508000Y-112717157D01*
X147508000Y-111007055D01*
X147574689Y-111000487D01*
X147646508Y-110978701D01*
X147712696Y-110943322D01*
X147770711Y-110895711D01*
X147818322Y-110837696D01*
X147853701Y-110771508D01*
X147870804Y-110715126D01*
X147874188Y-110749482D01*
X147910498Y-110869180D01*
X147969463Y-110979494D01*
X148048815Y-111076185D01*
X148145506Y-111155537D01*
X148255820Y-111214502D01*
X148375518Y-111250812D01*
X148500000Y-111263072D01*
X148714250Y-111260000D01*
X148873000Y-111101250D01*
X148873000Y-110127000D01*
X149127000Y-110127000D01*
X149127000Y-111101250D01*
X149285750Y-111260000D01*
X149500000Y-111263072D01*
X149624482Y-111250812D01*
X149744180Y-111214502D01*
X149854494Y-111155537D01*
X149951185Y-111076185D01*
X150030537Y-110979494D01*
X150089502Y-110869180D01*
X150125812Y-110749482D01*
X150138072Y-110625000D01*
X150135000Y-110285750D01*
X149976250Y-110127000D01*
X149127000Y-110127000D01*
X148873000Y-110127000D01*
X148853000Y-110127000D01*
X148853000Y-109873000D01*
X148873000Y-109873000D01*
X148873000Y-108898750D01*
X149127000Y-108898750D01*
X149127000Y-109873000D01*
X149976250Y-109873000D01*
X150135000Y-109714250D01*
X150138072Y-109375000D01*
X150125812Y-109250518D01*
X150089502Y-109130820D01*
X150030537Y-109020506D01*
X149951185Y-108923815D01*
X149854494Y-108844463D01*
X149744180Y-108785498D01*
X149624482Y-108749188D01*
X149500000Y-108736928D01*
X149285750Y-108740000D01*
X149127000Y-108898750D01*
X148873000Y-108898750D01*
X148714250Y-108740000D01*
X148500000Y-108736928D01*
X148375518Y-108749188D01*
X148255820Y-108785498D01*
X148145506Y-108844463D01*
X148048815Y-108923815D01*
X147969463Y-109020506D01*
X147910498Y-109130820D01*
X147874188Y-109250518D01*
X147870804Y-109284874D01*
X147853701Y-109228492D01*
X147818322Y-109162304D01*
X147770711Y-109104289D01*
X147712696Y-109056678D01*
X147646508Y-109021299D01*
X147574689Y-108999513D01*
X147500000Y-108992157D01*
X146627000Y-108992157D01*
X146627000Y-108377000D01*
X151873000Y-108377000D01*
X151873000Y-108820212D01*
G04 #@! TA.AperFunction,Conductor*
D34*
G36*
X151873000Y-108820212D02*
G01*
X151834674Y-108827835D01*
X151556049Y-108943245D01*
X151305294Y-109110795D01*
X151092045Y-109324044D01*
X150924495Y-109574799D01*
X150809085Y-109853424D01*
X150750250Y-110149210D01*
X150750250Y-110450790D01*
X150809085Y-110746576D01*
X150924495Y-111025201D01*
X151092045Y-111275956D01*
X151305294Y-111489205D01*
X151556049Y-111656755D01*
X151834674Y-111772165D01*
X151873000Y-111779788D01*
X151873000Y-120492000D01*
X143403531Y-120492000D01*
X143494180Y-120464502D01*
X143604494Y-120405537D01*
X143701185Y-120326185D01*
X143780537Y-120229494D01*
X143839502Y-120119180D01*
X143875812Y-119999482D01*
X143888072Y-119875000D01*
X143885000Y-119535750D01*
X143726250Y-119377000D01*
X142877000Y-119377000D01*
X142877000Y-119397000D01*
X142623000Y-119397000D01*
X142623000Y-119377000D01*
X142603000Y-119377000D01*
X142603000Y-119123000D01*
X142623000Y-119123000D01*
X142623000Y-118148750D01*
X142877000Y-118148750D01*
X142877000Y-119123000D01*
X143726250Y-119123000D01*
X143885000Y-118964250D01*
X143888072Y-118625000D01*
X143875812Y-118500518D01*
X143839502Y-118380820D01*
X143780537Y-118270506D01*
X143701185Y-118173815D01*
X143604494Y-118094463D01*
X143494180Y-118035498D01*
X143374482Y-117999188D01*
X143250000Y-117986928D01*
X143035750Y-117990000D01*
X142877000Y-118148750D01*
X142623000Y-118148750D01*
X142464250Y-117990000D01*
X142250000Y-117986928D01*
X142125518Y-117999188D01*
X142005820Y-118035498D01*
X141895506Y-118094463D01*
X141798815Y-118173815D01*
X141719463Y-118270506D01*
X141660498Y-118380820D01*
X141624188Y-118500518D01*
X141620804Y-118534874D01*
X141603701Y-118478492D01*
X141568322Y-118412304D01*
X141520711Y-118354289D01*
X141462696Y-118306678D01*
X141396508Y-118271299D01*
X141347936Y-118256565D01*
X141356642Y-118247859D01*
X141442113Y-118119942D01*
X141500987Y-117977809D01*
X141531000Y-117826922D01*
X141531000Y-117673078D01*
X141500987Y-117522191D01*
X141442113Y-117380058D01*
X141356642Y-117252141D01*
X141247859Y-117143358D01*
X141119942Y-117057887D01*
X140977809Y-116999013D01*
X140826922Y-116969000D01*
X140673078Y-116969000D01*
X140522191Y-116999013D01*
X140380058Y-117057887D01*
X140252141Y-117143358D01*
X140143358Y-117252141D01*
X140057887Y-117380058D01*
X139999013Y-117522191D01*
X139969000Y-117673078D01*
X139969000Y-117826922D01*
X139999013Y-117977809D01*
X140057887Y-118119942D01*
X140143358Y-118247859D01*
X140152064Y-118256565D01*
X140103492Y-118271299D01*
X140037304Y-118306678D01*
X139979289Y-118354289D01*
X139931678Y-118412304D01*
X139896299Y-118478492D01*
X139874513Y-118550311D01*
X139867157Y-118625000D01*
X139867157Y-118678500D01*
X139486723Y-118678500D01*
X138423970Y-117615748D01*
X138406067Y-117593933D01*
X138319045Y-117522516D01*
X138219762Y-117469448D01*
X138112034Y-117436769D01*
X138028074Y-117428500D01*
X138000000Y-117425735D01*
X137971926Y-117428500D01*
X137002409Y-117428500D01*
X136876758Y-117302849D01*
X137671606Y-116508000D01*
X144539580Y-116508000D01*
X146873145Y-118841565D01*
X146889052Y-118860948D01*
X146934747Y-118898448D01*
X146966404Y-118924429D01*
X146982595Y-118933083D01*
X147054657Y-118971601D01*
X147117157Y-118990560D01*
X147117157Y-119125000D01*
X147124513Y-119199689D01*
X147146299Y-119271508D01*
X147181678Y-119337696D01*
X147229289Y-119395711D01*
X147287304Y-119443322D01*
X147353492Y-119478701D01*
X147425311Y-119500487D01*
X147500000Y-119507843D01*
X148500000Y-119507843D01*
X148574689Y-119500487D01*
X148646508Y-119478701D01*
X148712696Y-119443322D01*
X148770711Y-119395711D01*
X148818322Y-119337696D01*
X148853701Y-119271508D01*
X148870804Y-119215126D01*
X148874188Y-119249482D01*
X148910498Y-119369180D01*
X148969463Y-119479494D01*
X149048815Y-119576185D01*
X149145506Y-119655537D01*
X149255820Y-119714502D01*
X149375518Y-119750812D01*
X149500000Y-119763072D01*
X149714250Y-119760000D01*
X149873000Y-119601250D01*
X149873000Y-118627000D01*
X150127000Y-118627000D01*
X150127000Y-119601250D01*
X150285750Y-119760000D01*
X150500000Y-119763072D01*
X150624482Y-119750812D01*
X150744180Y-119714502D01*
X150854494Y-119655537D01*
X150951185Y-119576185D01*
X151030537Y-119479494D01*
X151089502Y-119369180D01*
X151125812Y-119249482D01*
X151138072Y-119125000D01*
X151135000Y-118785750D01*
X150976250Y-118627000D01*
X150127000Y-118627000D01*
X149873000Y-118627000D01*
X149853000Y-118627000D01*
X149853000Y-118373000D01*
X149873000Y-118373000D01*
X149873000Y-117398750D01*
X150127000Y-117398750D01*
X150127000Y-118373000D01*
X150976250Y-118373000D01*
X151135000Y-118214250D01*
X151138072Y-117875000D01*
X151125812Y-117750518D01*
X151089502Y-117630820D01*
X151030537Y-117520506D01*
X150951185Y-117423815D01*
X150854494Y-117344463D01*
X150744180Y-117285498D01*
X150624482Y-117249188D01*
X150500000Y-117236928D01*
X150285750Y-117240000D01*
X150127000Y-117398750D01*
X149873000Y-117398750D01*
X149714250Y-117240000D01*
X149500000Y-117236928D01*
X149375518Y-117249188D01*
X149255820Y-117285498D01*
X149145506Y-117344463D01*
X149048815Y-117423815D01*
X148969463Y-117520506D01*
X148910498Y-117630820D01*
X148874188Y-117750518D01*
X148870804Y-117784874D01*
X148853701Y-117728492D01*
X148818322Y-117662304D01*
X148812820Y-117655600D01*
X149941565Y-116526855D01*
X149960948Y-116510948D01*
X150024429Y-116433595D01*
X150071601Y-116345343D01*
X150090560Y-116282843D01*
X150300000Y-116282843D01*
X150374689Y-116275487D01*
X150446508Y-116253701D01*
X150512696Y-116218322D01*
X150570711Y-116170711D01*
X150618322Y-116112696D01*
X150653701Y-116046508D01*
X150675487Y-115974689D01*
X150682843Y-115900000D01*
X150682843Y-114807272D01*
X150751185Y-114751185D01*
X150830537Y-114654494D01*
X150889502Y-114544180D01*
X150925812Y-114424482D01*
X150938072Y-114300000D01*
X150935000Y-113985750D01*
X150776250Y-113827000D01*
X149727000Y-113827000D01*
X149727000Y-113847000D01*
X149473000Y-113847000D01*
X149473000Y-113827000D01*
X149453000Y-113827000D01*
X149453000Y-113573000D01*
X149473000Y-113573000D01*
X149473000Y-112623750D01*
X149727000Y-112623750D01*
X149727000Y-113573000D01*
X150776250Y-113573000D01*
X150935000Y-113414250D01*
X150938072Y-113100000D01*
X150925812Y-112975518D01*
X150889502Y-112855820D01*
X150830537Y-112745506D01*
X150751185Y-112648815D01*
X150654494Y-112569463D01*
X150544180Y-112510498D01*
X150424482Y-112474188D01*
X150300000Y-112461928D01*
X149885750Y-112465000D01*
X149727000Y-112623750D01*
X149473000Y-112623750D01*
X149314250Y-112465000D01*
X148900000Y-112461928D01*
X148775518Y-112474188D01*
X148655820Y-112510498D01*
X148545506Y-112569463D01*
X148448815Y-112648815D01*
X148369463Y-112745506D01*
X148338715Y-112803031D01*
X148312696Y-112781678D01*
X148246508Y-112746299D01*
X148174689Y-112724513D01*
X148100000Y-112717157D01*
X147508000Y-112717157D01*
X147508000Y-111007055D01*
X147574689Y-111000487D01*
X147646508Y-110978701D01*
X147712696Y-110943322D01*
X147770711Y-110895711D01*
X147818322Y-110837696D01*
X147853701Y-110771508D01*
X147870804Y-110715126D01*
X147874188Y-110749482D01*
X147910498Y-110869180D01*
X147969463Y-110979494D01*
X148048815Y-111076185D01*
X148145506Y-111155537D01*
X148255820Y-111214502D01*
X148375518Y-111250812D01*
X148500000Y-111263072D01*
X148714250Y-111260000D01*
X148873000Y-111101250D01*
X148873000Y-110127000D01*
X149127000Y-110127000D01*
X149127000Y-111101250D01*
X149285750Y-111260000D01*
X149500000Y-111263072D01*
X149624482Y-111250812D01*
X149744180Y-111214502D01*
X149854494Y-111155537D01*
X149951185Y-111076185D01*
X150030537Y-110979494D01*
X150089502Y-110869180D01*
X150125812Y-110749482D01*
X150138072Y-110625000D01*
X150135000Y-110285750D01*
X149976250Y-110127000D01*
X149127000Y-110127000D01*
X148873000Y-110127000D01*
X148853000Y-110127000D01*
X148853000Y-109873000D01*
X148873000Y-109873000D01*
X148873000Y-108898750D01*
X149127000Y-108898750D01*
X149127000Y-109873000D01*
X149976250Y-109873000D01*
X150135000Y-109714250D01*
X150138072Y-109375000D01*
X150125812Y-109250518D01*
X150089502Y-109130820D01*
X150030537Y-109020506D01*
X149951185Y-108923815D01*
X149854494Y-108844463D01*
X149744180Y-108785498D01*
X149624482Y-108749188D01*
X149500000Y-108736928D01*
X149285750Y-108740000D01*
X149127000Y-108898750D01*
X148873000Y-108898750D01*
X148714250Y-108740000D01*
X148500000Y-108736928D01*
X148375518Y-108749188D01*
X148255820Y-108785498D01*
X148145506Y-108844463D01*
X148048815Y-108923815D01*
X147969463Y-109020506D01*
X147910498Y-109130820D01*
X147874188Y-109250518D01*
X147870804Y-109284874D01*
X147853701Y-109228492D01*
X147818322Y-109162304D01*
X147770711Y-109104289D01*
X147712696Y-109056678D01*
X147646508Y-109021299D01*
X147574689Y-108999513D01*
X147500000Y-108992157D01*
X146627000Y-108992157D01*
X146627000Y-108377000D01*
X151873000Y-108377000D01*
X151873000Y-108820212D01*
G37*
G04 #@! TD.AperFunction*
D32*
X146223750Y-115173000D02*
X147273000Y-115173000D01*
X147273000Y-115153000D01*
X147527000Y-115153000D01*
X147527000Y-115173000D01*
X147547000Y-115173000D01*
X147547000Y-115427000D01*
X147527000Y-115427000D01*
X147527000Y-116376250D01*
X147685750Y-116535000D01*
X148100000Y-116538072D01*
X148224482Y-116525812D01*
X148344180Y-116489502D01*
X148454494Y-116430537D01*
X148551185Y-116351185D01*
X148630537Y-116254494D01*
X148661285Y-116196969D01*
X148687304Y-116218322D01*
X148753492Y-116253701D01*
X148772203Y-116259377D01*
X147658430Y-117373150D01*
X147639053Y-117389052D01*
X147623151Y-117408429D01*
X147623150Y-117408430D01*
X147575571Y-117466405D01*
X147561806Y-117492157D01*
X147500000Y-117492157D01*
X147425311Y-117499513D01*
X147353492Y-117521299D01*
X147287304Y-117556678D01*
X147229289Y-117604289D01*
X147181678Y-117662304D01*
X147163929Y-117695509D01*
X145368420Y-115900000D01*
X146061928Y-115900000D01*
X146074188Y-116024482D01*
X146110498Y-116144180D01*
X146169463Y-116254494D01*
X146248815Y-116351185D01*
X146345506Y-116430537D01*
X146455820Y-116489502D01*
X146575518Y-116525812D01*
X146700000Y-116538072D01*
X147114250Y-116535000D01*
X147273000Y-116376250D01*
X147273000Y-115427000D01*
X146223750Y-115427000D01*
X146065000Y-115585750D01*
X146061928Y-115900000D01*
X145368420Y-115900000D01*
X145191260Y-115722840D01*
X145195343Y-115721601D01*
X145283595Y-115674429D01*
X145360948Y-115610948D01*
X145376855Y-115591565D01*
X145841420Y-115127000D01*
X146177750Y-115127000D01*
X146223750Y-115173000D01*
G04 #@! TA.AperFunction,Conductor*
D34*
G36*
X146223750Y-115173000D02*
G01*
X147273000Y-115173000D01*
X147273000Y-115153000D01*
X147527000Y-115153000D01*
X147527000Y-115173000D01*
X147547000Y-115173000D01*
X147547000Y-115427000D01*
X147527000Y-115427000D01*
X147527000Y-116376250D01*
X147685750Y-116535000D01*
X148100000Y-116538072D01*
X148224482Y-116525812D01*
X148344180Y-116489502D01*
X148454494Y-116430537D01*
X148551185Y-116351185D01*
X148630537Y-116254494D01*
X148661285Y-116196969D01*
X148687304Y-116218322D01*
X148753492Y-116253701D01*
X148772203Y-116259377D01*
X147658430Y-117373150D01*
X147639053Y-117389052D01*
X147623151Y-117408429D01*
X147623150Y-117408430D01*
X147575571Y-117466405D01*
X147561806Y-117492157D01*
X147500000Y-117492157D01*
X147425311Y-117499513D01*
X147353492Y-117521299D01*
X147287304Y-117556678D01*
X147229289Y-117604289D01*
X147181678Y-117662304D01*
X147163929Y-117695509D01*
X145368420Y-115900000D01*
X146061928Y-115900000D01*
X146074188Y-116024482D01*
X146110498Y-116144180D01*
X146169463Y-116254494D01*
X146248815Y-116351185D01*
X146345506Y-116430537D01*
X146455820Y-116489502D01*
X146575518Y-116525812D01*
X146700000Y-116538072D01*
X147114250Y-116535000D01*
X147273000Y-116376250D01*
X147273000Y-115427000D01*
X146223750Y-115427000D01*
X146065000Y-115585750D01*
X146061928Y-115900000D01*
X145368420Y-115900000D01*
X145191260Y-115722840D01*
X145195343Y-115721601D01*
X145283595Y-115674429D01*
X145360948Y-115610948D01*
X145376855Y-115591565D01*
X145841420Y-115127000D01*
X146177750Y-115127000D01*
X146223750Y-115173000D01*
G37*
G04 #@! TD.AperFunction*
D32*
X115146506Y-100677426D02*
X115095171Y-100801360D01*
X115069000Y-100932927D01*
X115069000Y-101067073D01*
X115095171Y-101198640D01*
X115146506Y-101322574D01*
X115221033Y-101434112D01*
X115315888Y-101528967D01*
X115427426Y-101603494D01*
X115551360Y-101654829D01*
X115682927Y-101681000D01*
X115817073Y-101681000D01*
X115948640Y-101654829D01*
X116072574Y-101603494D01*
X116184112Y-101528967D01*
X116278967Y-101434112D01*
X116353494Y-101322574D01*
X116404829Y-101198640D01*
X116431000Y-101067073D01*
X116431000Y-101037420D01*
X116841420Y-100627000D01*
X125814777Y-100627000D01*
X124870667Y-101571111D01*
X124859069Y-101566307D01*
X124621243Y-101519000D01*
X124378757Y-101519000D01*
X124140931Y-101566307D01*
X123916903Y-101659102D01*
X123715283Y-101793820D01*
X123543820Y-101965283D01*
X123409102Y-102166903D01*
X123316307Y-102390931D01*
X123269000Y-102628757D01*
X123269000Y-102871243D01*
X123316307Y-103109069D01*
X123409102Y-103333097D01*
X123543820Y-103534717D01*
X123715283Y-103706180D01*
X123916903Y-103840898D01*
X124140931Y-103933693D01*
X124378757Y-103981000D01*
X124621243Y-103981000D01*
X124859069Y-103933693D01*
X125083097Y-103840898D01*
X125176636Y-103778397D01*
X127651208Y-103778397D01*
X127728843Y-104027472D01*
X127992883Y-104153371D01*
X128276411Y-104225339D01*
X128568531Y-104240611D01*
X128858019Y-104198599D01*
X129133747Y-104100919D01*
X129271157Y-104027472D01*
X129348792Y-103778397D01*
X128500000Y-102929605D01*
X127651208Y-103778397D01*
X125176636Y-103778397D01*
X125284717Y-103706180D01*
X125456180Y-103534717D01*
X125590898Y-103333097D01*
X125683693Y-103109069D01*
X125731000Y-102871243D01*
X125731000Y-102818531D01*
X127009389Y-102818531D01*
X127051401Y-103108019D01*
X127149081Y-103383747D01*
X127222528Y-103521157D01*
X127471603Y-103598792D01*
X128320395Y-102750000D01*
X128679605Y-102750000D01*
X129528397Y-103598792D01*
X129777472Y-103521157D01*
X129903371Y-103257117D01*
X129975339Y-102973589D01*
X129990611Y-102681469D01*
X129948599Y-102391981D01*
X129850919Y-102116253D01*
X129777472Y-101978843D01*
X129528397Y-101901208D01*
X128679605Y-102750000D01*
X128320395Y-102750000D01*
X127471603Y-101901208D01*
X127222528Y-101978843D01*
X127096629Y-102242883D01*
X127024661Y-102526411D01*
X127009389Y-102818531D01*
X125731000Y-102818531D01*
X125731000Y-102628757D01*
X125683693Y-102390931D01*
X125678889Y-102379333D01*
X126736723Y-101321500D01*
X128085246Y-101321500D01*
X127866253Y-101399081D01*
X127728843Y-101472528D01*
X127651208Y-101721603D01*
X128500000Y-102570395D01*
X129348792Y-101721603D01*
X129271157Y-101472528D01*
X129007117Y-101346629D01*
X128908118Y-101321500D01*
X151873000Y-101321500D01*
X151873000Y-103242000D01*
X142415629Y-103242000D01*
X142390685Y-103239543D01*
X142365741Y-103242000D01*
X142365739Y-103242000D01*
X142291101Y-103249351D01*
X142195343Y-103278399D01*
X142195341Y-103278400D01*
X142107090Y-103325571D01*
X142063983Y-103360948D01*
X142029738Y-103389052D01*
X142013836Y-103408429D01*
X135690567Y-109731699D01*
X135685194Y-109728232D01*
X135460687Y-109728232D01*
X135182534Y-110006385D01*
X135174983Y-110010421D01*
X135116968Y-110058032D01*
X134268440Y-110906560D01*
X134220829Y-110964575D01*
X134216793Y-110972126D01*
X133938640Y-111250279D01*
X133938640Y-111474786D01*
X133946544Y-111487034D01*
X134043235Y-111566387D01*
X134153549Y-111625351D01*
X134273248Y-111661661D01*
X134397729Y-111673921D01*
X134485714Y-111665256D01*
X134692704Y-111872246D01*
X134750719Y-111919857D01*
X134774045Y-111932326D01*
X134786514Y-111955652D01*
X134834125Y-112013667D01*
X135218618Y-112398160D01*
X134483209Y-113133569D01*
X134369942Y-113057887D01*
X134227809Y-112999013D01*
X134076922Y-112969000D01*
X133923078Y-112969000D01*
X133772191Y-112999013D01*
X133630058Y-113057887D01*
X133502141Y-113143358D01*
X133393358Y-113252141D01*
X133307887Y-113380058D01*
X133249013Y-113522191D01*
X133219000Y-113673078D01*
X133219000Y-113826922D01*
X133249013Y-113977809D01*
X133307887Y-114119942D01*
X133393358Y-114247859D01*
X133502141Y-114356642D01*
X133630058Y-114442113D01*
X133772191Y-114500987D01*
X133923078Y-114531000D01*
X134076922Y-114531000D01*
X134227809Y-114500987D01*
X134369942Y-114442113D01*
X134497859Y-114356642D01*
X134533001Y-114321500D01*
X134646926Y-114321500D01*
X134675000Y-114324265D01*
X134703074Y-114321500D01*
X134787034Y-114313231D01*
X134894762Y-114280552D01*
X134994045Y-114227484D01*
X135081067Y-114156067D01*
X135098970Y-114134252D01*
X136026840Y-113206382D01*
X136389760Y-113569302D01*
X136447775Y-113616913D01*
X136513963Y-113652292D01*
X136585782Y-113674078D01*
X136660471Y-113681434D01*
X136735160Y-113674078D01*
X136806979Y-113652292D01*
X136873167Y-113616913D01*
X136931182Y-113569302D01*
X137266789Y-113233695D01*
X139425473Y-113233695D01*
X139576030Y-113384252D01*
X139593933Y-113406067D01*
X139680955Y-113477484D01*
X139780238Y-113530552D01*
X139887966Y-113563231D01*
X139971926Y-113571500D01*
X139971927Y-113571500D01*
X139999999Y-113574265D01*
X140028071Y-113571500D01*
X140859685Y-113571500D01*
X140752141Y-113643358D01*
X140643358Y-113752141D01*
X140562603Y-113873000D01*
X138500000Y-113873000D01*
X138475224Y-113875440D01*
X138451399Y-113882667D01*
X138429443Y-113894403D01*
X138410197Y-113910197D01*
X137722939Y-114597455D01*
X136931182Y-113805698D01*
X136873167Y-113758087D01*
X136806979Y-113722708D01*
X136735160Y-113700922D01*
X136660471Y-113693566D01*
X136585782Y-113700922D01*
X136513963Y-113722708D01*
X136447775Y-113758087D01*
X136389760Y-113805698D01*
X135965496Y-114229962D01*
X135917885Y-114287977D01*
X135905417Y-114311303D01*
X135882089Y-114323772D01*
X135824074Y-114371383D01*
X135617084Y-114578373D01*
X135529100Y-114569708D01*
X135404619Y-114581968D01*
X135284920Y-114618278D01*
X135174606Y-114677242D01*
X135077915Y-114756595D01*
X135070011Y-114768843D01*
X135070011Y-114993350D01*
X135348161Y-115271500D01*
X135352199Y-115279054D01*
X135399810Y-115337069D01*
X135928020Y-115865279D01*
X135762335Y-116030963D01*
X135234126Y-115502754D01*
X135176111Y-115455143D01*
X135168555Y-115451104D01*
X134890406Y-115172955D01*
X134665899Y-115172955D01*
X134653651Y-115180859D01*
X134574298Y-115277550D01*
X134515334Y-115387864D01*
X134479024Y-115507563D01*
X134466764Y-115632044D01*
X134475429Y-115720029D01*
X134268440Y-115927018D01*
X134220829Y-115985033D01*
X134208360Y-116008360D01*
X134185033Y-116020829D01*
X134127018Y-116068440D01*
X133702754Y-116492704D01*
X133655143Y-116550719D01*
X133642674Y-116574045D01*
X133619348Y-116586514D01*
X133561333Y-116634125D01*
X133137069Y-117058389D01*
X133089458Y-117116404D01*
X133076990Y-117139730D01*
X133053662Y-117152199D01*
X132995647Y-117199810D01*
X132571383Y-117624074D01*
X132523772Y-117682089D01*
X132511303Y-117705417D01*
X132487977Y-117717885D01*
X132429962Y-117765496D01*
X132005698Y-118189760D01*
X131958087Y-118247775D01*
X131922708Y-118313963D01*
X131900922Y-118385782D01*
X131893566Y-118460471D01*
X131900922Y-118535160D01*
X131922708Y-118606979D01*
X131958087Y-118673167D01*
X132005698Y-118731182D01*
X132742001Y-119467485D01*
X132742001Y-119578393D01*
X130328394Y-121992000D01*
X124210421Y-121992000D01*
X121126855Y-118908435D01*
X121110948Y-118889052D01*
X121033595Y-118825571D01*
X120945343Y-118778399D01*
X120849585Y-118749351D01*
X120774947Y-118742000D01*
X120774944Y-118742000D01*
X120750000Y-118739543D01*
X120725056Y-118742000D01*
X117024943Y-118742000D01*
X116999999Y-118739543D01*
X116975055Y-118742000D01*
X116975053Y-118742000D01*
X116900415Y-118749351D01*
X116804657Y-118778399D01*
X116804655Y-118778400D01*
X116716404Y-118825571D01*
X116673297Y-118860948D01*
X116639052Y-118889052D01*
X116623150Y-118908429D01*
X115289580Y-120242000D01*
X115128097Y-120242000D01*
X115195343Y-120221601D01*
X115283595Y-120174429D01*
X115360948Y-120110948D01*
X115376855Y-120091565D01*
X116960420Y-118508000D01*
X120789580Y-118508000D01*
X122373145Y-120091565D01*
X122389052Y-120110948D01*
X122466405Y-120174429D01*
X122554657Y-120221601D01*
X122650415Y-120250649D01*
X122725053Y-120258000D01*
X122725056Y-120258000D01*
X122750000Y-120260457D01*
X122774944Y-120258000D01*
X128628483Y-120258000D01*
X128653427Y-120260457D01*
X128678371Y-120258000D01*
X128678374Y-120258000D01*
X128753012Y-120250649D01*
X128848770Y-120221601D01*
X128937022Y-120174429D01*
X129014375Y-120110948D01*
X129030282Y-120091565D01*
X129492000Y-119629847D01*
X129492001Y-120044920D01*
X129471033Y-120065888D01*
X129396506Y-120177426D01*
X129345171Y-120301360D01*
X129319000Y-120432927D01*
X129319000Y-120567073D01*
X129345171Y-120698640D01*
X129396506Y-120822574D01*
X129471033Y-120934112D01*
X129565888Y-121028967D01*
X129677426Y-121103494D01*
X129801360Y-121154829D01*
X129932927Y-121181000D01*
X130067073Y-121181000D01*
X130198640Y-121154829D01*
X130322574Y-121103494D01*
X130434112Y-121028967D01*
X130528967Y-120934112D01*
X130603494Y-120822574D01*
X130654829Y-120698640D01*
X130681000Y-120567073D01*
X130681000Y-120432927D01*
X130654829Y-120301360D01*
X130603494Y-120177426D01*
X130528967Y-120065888D01*
X130508000Y-120044921D01*
X130508000Y-119745218D01*
X130570278Y-119682940D01*
X130575374Y-119684486D01*
X130650063Y-119691842D01*
X130724752Y-119684486D01*
X130796571Y-119662700D01*
X130862759Y-119627321D01*
X130920774Y-119579710D01*
X131769302Y-118731182D01*
X131816913Y-118673167D01*
X131852292Y-118606979D01*
X131874078Y-118535160D01*
X131881434Y-118460471D01*
X131874078Y-118385782D01*
X131852292Y-118313963D01*
X131816913Y-118247775D01*
X131769302Y-118189760D01*
X131345038Y-117765496D01*
X131287023Y-117717885D01*
X131263697Y-117705417D01*
X131251228Y-117682089D01*
X131203617Y-117624074D01*
X130779353Y-117199810D01*
X130721338Y-117152199D01*
X130698010Y-117139730D01*
X130685542Y-117116404D01*
X130637931Y-117058389D01*
X130213667Y-116634125D01*
X130155652Y-116586514D01*
X130132326Y-116574045D01*
X130119857Y-116550719D01*
X130072246Y-116492704D01*
X129647982Y-116068440D01*
X129589967Y-116020829D01*
X129566640Y-116008360D01*
X129554171Y-115985033D01*
X129506560Y-115927018D01*
X129082296Y-115502754D01*
X129024281Y-115455143D01*
X129000955Y-115442674D01*
X128988486Y-115419348D01*
X128940875Y-115361333D01*
X128516611Y-114937069D01*
X128458596Y-114889458D01*
X128435270Y-114876990D01*
X128422801Y-114853662D01*
X128375190Y-114795647D01*
X127950926Y-114371383D01*
X127892911Y-114323772D01*
X127869583Y-114311303D01*
X127857115Y-114287977D01*
X127809504Y-114229962D01*
X127385240Y-113805698D01*
X127327225Y-113758087D01*
X127261037Y-113722708D01*
X127189218Y-113700922D01*
X127114529Y-113693566D01*
X127039840Y-113700922D01*
X126968021Y-113722708D01*
X126901833Y-113758087D01*
X126843818Y-113805698D01*
X125995290Y-114654226D01*
X125947679Y-114712241D01*
X125941751Y-114723331D01*
X123976420Y-112758000D01*
X126032516Y-112758000D01*
X126843818Y-113569302D01*
X126901833Y-113616913D01*
X126968021Y-113652292D01*
X127039840Y-113674078D01*
X127114529Y-113681434D01*
X127189218Y-113674078D01*
X127261037Y-113652292D01*
X127327225Y-113616913D01*
X127385240Y-113569302D01*
X127809504Y-113145038D01*
X127857115Y-113087023D01*
X127869583Y-113063697D01*
X127892911Y-113051228D01*
X127950926Y-113003617D01*
X128375190Y-112579353D01*
X128422801Y-112521338D01*
X128435270Y-112498010D01*
X128458596Y-112485542D01*
X128516611Y-112437931D01*
X128940875Y-112013667D01*
X128988486Y-111955652D01*
X129000955Y-111932326D01*
X129024281Y-111919857D01*
X129082296Y-111872246D01*
X129506560Y-111447982D01*
X129554171Y-111389967D01*
X129566640Y-111366640D01*
X129589967Y-111354171D01*
X129647982Y-111306560D01*
X130072246Y-110882296D01*
X130119857Y-110824281D01*
X130132326Y-110800955D01*
X130155652Y-110788486D01*
X130213667Y-110740875D01*
X130637931Y-110316611D01*
X130685542Y-110258596D01*
X130698010Y-110235270D01*
X130721338Y-110222801D01*
X130779353Y-110175190D01*
X131203617Y-109750926D01*
X131251228Y-109692911D01*
X131263697Y-109669583D01*
X131287023Y-109657115D01*
X131345038Y-109609504D01*
X131769302Y-109185240D01*
X131816913Y-109127225D01*
X131852292Y-109061037D01*
X131874078Y-108989218D01*
X131881434Y-108914529D01*
X131874078Y-108839840D01*
X131852292Y-108768021D01*
X131816913Y-108701833D01*
X131769302Y-108643818D01*
X130920774Y-107795290D01*
X130862759Y-107747679D01*
X130796571Y-107712300D01*
X130724752Y-107690514D01*
X130650063Y-107683158D01*
X130575374Y-107690514D01*
X130570278Y-107692060D01*
X130508000Y-107629782D01*
X130508000Y-106955079D01*
X130528967Y-106934112D01*
X130603494Y-106822574D01*
X130654829Y-106698640D01*
X130681000Y-106567073D01*
X130681000Y-106432927D01*
X130654829Y-106301360D01*
X130603494Y-106177426D01*
X130528967Y-106065888D01*
X130434112Y-105971033D01*
X130322574Y-105896506D01*
X130198640Y-105845171D01*
X130067073Y-105819000D01*
X129932927Y-105819000D01*
X129801360Y-105845171D01*
X129677426Y-105896506D01*
X129565888Y-105971033D01*
X129471033Y-106065888D01*
X129396506Y-106177426D01*
X129345171Y-106301360D01*
X129319000Y-106432927D01*
X129319000Y-106567073D01*
X129345171Y-106698640D01*
X129396506Y-106822574D01*
X129471033Y-106934112D01*
X129492000Y-106955079D01*
X129492001Y-107815248D01*
X129489543Y-107840202D01*
X129497389Y-107919859D01*
X129499352Y-107939787D01*
X129515191Y-107992000D01*
X129528400Y-108035545D01*
X129575571Y-108123797D01*
X129623150Y-108181772D01*
X129639053Y-108201150D01*
X129658430Y-108217052D01*
X129808011Y-108366633D01*
X129395060Y-108779584D01*
X128773911Y-108158435D01*
X128758004Y-108139052D01*
X128680651Y-108075571D01*
X128592399Y-108028399D01*
X128496641Y-107999351D01*
X128422003Y-107992000D01*
X128422000Y-107992000D01*
X128397056Y-107989543D01*
X128372112Y-107992000D01*
X123960420Y-107992000D01*
X123431000Y-107462580D01*
X123431000Y-107432927D01*
X123404829Y-107301360D01*
X123353494Y-107177426D01*
X123278967Y-107065888D01*
X123184112Y-106971033D01*
X123072574Y-106896506D01*
X122948640Y-106845171D01*
X122817073Y-106819000D01*
X122682927Y-106819000D01*
X122551360Y-106845171D01*
X122427426Y-106896506D01*
X122315888Y-106971033D01*
X122221033Y-107065888D01*
X122146506Y-107177426D01*
X122095171Y-107301360D01*
X122069000Y-107432927D01*
X122069000Y-107567073D01*
X122095171Y-107698640D01*
X122146506Y-107822574D01*
X122221033Y-107934112D01*
X122315888Y-108028967D01*
X122427426Y-108103494D01*
X122551360Y-108154829D01*
X122682927Y-108181000D01*
X122712580Y-108181000D01*
X123273580Y-108742000D01*
X113710420Y-108742000D01*
X110793912Y-105825492D01*
X116681500Y-105825492D01*
X116681500Y-106294508D01*
X116773000Y-106754512D01*
X116952485Y-107187827D01*
X117213056Y-107577799D01*
X117544701Y-107909444D01*
X117934673Y-108170015D01*
X118367988Y-108349500D01*
X118827992Y-108441000D01*
X119297008Y-108441000D01*
X119757012Y-108349500D01*
X120190327Y-108170015D01*
X120580299Y-107909444D01*
X120911944Y-107577799D01*
X121172515Y-107187827D01*
X121352000Y-106754512D01*
X121443500Y-106294508D01*
X121443500Y-105825492D01*
X121352000Y-105365488D01*
X121172515Y-104932173D01*
X120911944Y-104542201D01*
X120580299Y-104210556D01*
X120190327Y-103949985D01*
X119757012Y-103770500D01*
X119297008Y-103679000D01*
X118827992Y-103679000D01*
X118367988Y-103770500D01*
X117934673Y-103949985D01*
X117544701Y-104210556D01*
X117213056Y-104542201D01*
X116952485Y-104932173D01*
X116773000Y-105365488D01*
X116681500Y-105825492D01*
X110793912Y-105825492D01*
X110127000Y-105158580D01*
X110127000Y-103346262D01*
X110139052Y-103360948D01*
X110158429Y-103376850D01*
X110216404Y-103424429D01*
X110255532Y-103445343D01*
X110304657Y-103471601D01*
X110400415Y-103500649D01*
X110475053Y-103508000D01*
X110475055Y-103508000D01*
X110499999Y-103510457D01*
X110524943Y-103508000D01*
X120039580Y-103508000D01*
X121873149Y-105341570D01*
X121889052Y-105360948D01*
X121908429Y-105376850D01*
X121966404Y-105424429D01*
X122013576Y-105449643D01*
X122054657Y-105471601D01*
X122150415Y-105500649D01*
X122225053Y-105508000D01*
X122225055Y-105508000D01*
X122249999Y-105510457D01*
X122274943Y-105508000D01*
X132039580Y-105508000D01*
X132992001Y-106460422D01*
X132992000Y-107708183D01*
X132978429Y-107712300D01*
X132912241Y-107747679D01*
X132854226Y-107795290D01*
X132005698Y-108643818D01*
X131958087Y-108701833D01*
X131922708Y-108768021D01*
X131900922Y-108839840D01*
X131893566Y-108914529D01*
X131900922Y-108989218D01*
X131922708Y-109061037D01*
X131958087Y-109127225D01*
X132005698Y-109185240D01*
X132429962Y-109609504D01*
X132487977Y-109657115D01*
X132511303Y-109669583D01*
X132523772Y-109692911D01*
X132571383Y-109750926D01*
X132995647Y-110175190D01*
X133053662Y-110222801D01*
X133076990Y-110235270D01*
X133089458Y-110258596D01*
X133137069Y-110316611D01*
X133344058Y-110523600D01*
X133335393Y-110611585D01*
X133347653Y-110736066D01*
X133383963Y-110855765D01*
X133442927Y-110966079D01*
X133522280Y-111062770D01*
X133534528Y-111070674D01*
X133759035Y-111070674D01*
X134037184Y-110792525D01*
X134044740Y-110788486D01*
X134102755Y-110740875D01*
X134951283Y-109892347D01*
X134998894Y-109834332D01*
X135002933Y-109826776D01*
X135281082Y-109548627D01*
X135281082Y-109324120D01*
X135277616Y-109318748D01*
X136341565Y-108254799D01*
X136360948Y-108238892D01*
X136424429Y-108161539D01*
X136471601Y-108073287D01*
X136500649Y-107977529D01*
X136508000Y-107902891D01*
X136508000Y-107902888D01*
X136510457Y-107877944D01*
X136508000Y-107853000D01*
X136508000Y-104507055D01*
X136574689Y-104500487D01*
X136646508Y-104478701D01*
X136712696Y-104443322D01*
X136770711Y-104395711D01*
X136818322Y-104337696D01*
X136853701Y-104271508D01*
X136870804Y-104215126D01*
X136874188Y-104249482D01*
X136910498Y-104369180D01*
X136969463Y-104479494D01*
X137048815Y-104576185D01*
X137145506Y-104655537D01*
X137255820Y-104714502D01*
X137375518Y-104750812D01*
X137500000Y-104763072D01*
X137714250Y-104760000D01*
X137873000Y-104601250D01*
X137873000Y-103627000D01*
X138127000Y-103627000D01*
X138127000Y-104601250D01*
X138285750Y-104760000D01*
X138500000Y-104763072D01*
X138624482Y-104750812D01*
X138744180Y-104714502D01*
X138854494Y-104655537D01*
X138951185Y-104576185D01*
X139030537Y-104479494D01*
X139089502Y-104369180D01*
X139125812Y-104249482D01*
X139138072Y-104125000D01*
X139135000Y-103785750D01*
X138976250Y-103627000D01*
X138127000Y-103627000D01*
X137873000Y-103627000D01*
X137853000Y-103627000D01*
X137853000Y-103373000D01*
X137873000Y-103373000D01*
X137873000Y-102398750D01*
X138127000Y-102398750D01*
X138127000Y-103373000D01*
X138976250Y-103373000D01*
X139135000Y-103214250D01*
X139138072Y-102875000D01*
X139125812Y-102750518D01*
X139089502Y-102630820D01*
X139030537Y-102520506D01*
X138951185Y-102423815D01*
X138854494Y-102344463D01*
X138744180Y-102285498D01*
X138624482Y-102249188D01*
X138500000Y-102236928D01*
X138285750Y-102240000D01*
X138127000Y-102398750D01*
X137873000Y-102398750D01*
X137714250Y-102240000D01*
X137500000Y-102236928D01*
X137375518Y-102249188D01*
X137255820Y-102285498D01*
X137145506Y-102344463D01*
X137048815Y-102423815D01*
X136969463Y-102520506D01*
X136910498Y-102630820D01*
X136874188Y-102750518D01*
X136870804Y-102784874D01*
X136853701Y-102728492D01*
X136818322Y-102662304D01*
X136770711Y-102604289D01*
X136712696Y-102556678D01*
X136646508Y-102521299D01*
X136574689Y-102499513D01*
X136500000Y-102492157D01*
X135500000Y-102492157D01*
X135425311Y-102499513D01*
X135353492Y-102521299D01*
X135287304Y-102556678D01*
X135229289Y-102604289D01*
X135181678Y-102662304D01*
X135146299Y-102728492D01*
X135124513Y-102800311D01*
X135117157Y-102875000D01*
X135117157Y-104125000D01*
X135124513Y-104199689D01*
X135146299Y-104271508D01*
X135181678Y-104337696D01*
X135229289Y-104395711D01*
X135287304Y-104443322D01*
X135353492Y-104478701D01*
X135425311Y-104500487D01*
X135492001Y-104507055D01*
X135492000Y-107667524D01*
X135008000Y-108151524D01*
X135008000Y-104774943D01*
X135010457Y-104749999D01*
X135006961Y-104714502D01*
X135000649Y-104650415D01*
X134971601Y-104554657D01*
X134936797Y-104489543D01*
X134924429Y-104466404D01*
X134876850Y-104408429D01*
X134860948Y-104389052D01*
X134841571Y-104373150D01*
X133652587Y-103184166D01*
X133683693Y-103109069D01*
X133731000Y-102871243D01*
X133731000Y-102628757D01*
X133683693Y-102390931D01*
X133590898Y-102166903D01*
X133456180Y-101965283D01*
X133284717Y-101793820D01*
X133083097Y-101659102D01*
X132859069Y-101566307D01*
X132621243Y-101519000D01*
X132378757Y-101519000D01*
X132140931Y-101566307D01*
X131916903Y-101659102D01*
X131715283Y-101793820D01*
X131543820Y-101965283D01*
X131409102Y-102166903D01*
X131316307Y-102390931D01*
X131269000Y-102628757D01*
X131269000Y-102871243D01*
X131316307Y-103109069D01*
X131409102Y-103333097D01*
X131543820Y-103534717D01*
X131715283Y-103706180D01*
X131916903Y-103840898D01*
X132140931Y-103933693D01*
X132378757Y-103981000D01*
X132621243Y-103981000D01*
X132859069Y-103933693D01*
X132934166Y-103902587D01*
X133992001Y-104960422D01*
X133992001Y-106121905D01*
X133971601Y-106054657D01*
X133926903Y-105971033D01*
X133924429Y-105966404D01*
X133876850Y-105908429D01*
X133860948Y-105889052D01*
X133841571Y-105873150D01*
X132626855Y-104658435D01*
X132610948Y-104639052D01*
X132533595Y-104575571D01*
X132445343Y-104528399D01*
X132349585Y-104499351D01*
X132274947Y-104492000D01*
X132274944Y-104492000D01*
X132250000Y-104489543D01*
X132225056Y-104492000D01*
X122460421Y-104492000D01*
X120626855Y-102658435D01*
X120610948Y-102639052D01*
X120533595Y-102575571D01*
X120445343Y-102528399D01*
X120349585Y-102499351D01*
X120274947Y-102492000D01*
X120274944Y-102492000D01*
X120250000Y-102489543D01*
X120225056Y-102492000D01*
X110710421Y-102492000D01*
X110127000Y-101908579D01*
X110127000Y-100627000D01*
X115180199Y-100627000D01*
X115146506Y-100677426D01*
G04 #@! TA.AperFunction,Conductor*
D34*
G36*
X115146506Y-100677426D02*
G01*
X115095171Y-100801360D01*
X115069000Y-100932927D01*
X115069000Y-101067073D01*
X115095171Y-101198640D01*
X115146506Y-101322574D01*
X115221033Y-101434112D01*
X115315888Y-101528967D01*
X115427426Y-101603494D01*
X115551360Y-101654829D01*
X115682927Y-101681000D01*
X115817073Y-101681000D01*
X115948640Y-101654829D01*
X116072574Y-101603494D01*
X116184112Y-101528967D01*
X116278967Y-101434112D01*
X116353494Y-101322574D01*
X116404829Y-101198640D01*
X116431000Y-101067073D01*
X116431000Y-101037420D01*
X116841420Y-100627000D01*
X125814777Y-100627000D01*
X124870667Y-101571111D01*
X124859069Y-101566307D01*
X124621243Y-101519000D01*
X124378757Y-101519000D01*
X124140931Y-101566307D01*
X123916903Y-101659102D01*
X123715283Y-101793820D01*
X123543820Y-101965283D01*
X123409102Y-102166903D01*
X123316307Y-102390931D01*
X123269000Y-102628757D01*
X123269000Y-102871243D01*
X123316307Y-103109069D01*
X123409102Y-103333097D01*
X123543820Y-103534717D01*
X123715283Y-103706180D01*
X123916903Y-103840898D01*
X124140931Y-103933693D01*
X124378757Y-103981000D01*
X124621243Y-103981000D01*
X124859069Y-103933693D01*
X125083097Y-103840898D01*
X125176636Y-103778397D01*
X127651208Y-103778397D01*
X127728843Y-104027472D01*
X127992883Y-104153371D01*
X128276411Y-104225339D01*
X128568531Y-104240611D01*
X128858019Y-104198599D01*
X129133747Y-104100919D01*
X129271157Y-104027472D01*
X129348792Y-103778397D01*
X128500000Y-102929605D01*
X127651208Y-103778397D01*
X125176636Y-103778397D01*
X125284717Y-103706180D01*
X125456180Y-103534717D01*
X125590898Y-103333097D01*
X125683693Y-103109069D01*
X125731000Y-102871243D01*
X125731000Y-102818531D01*
X127009389Y-102818531D01*
X127051401Y-103108019D01*
X127149081Y-103383747D01*
X127222528Y-103521157D01*
X127471603Y-103598792D01*
X128320395Y-102750000D01*
X128679605Y-102750000D01*
X129528397Y-103598792D01*
X129777472Y-103521157D01*
X129903371Y-103257117D01*
X129975339Y-102973589D01*
X129990611Y-102681469D01*
X129948599Y-102391981D01*
X129850919Y-102116253D01*
X129777472Y-101978843D01*
X129528397Y-101901208D01*
X128679605Y-102750000D01*
X128320395Y-102750000D01*
X127471603Y-101901208D01*
X127222528Y-101978843D01*
X127096629Y-102242883D01*
X127024661Y-102526411D01*
X127009389Y-102818531D01*
X125731000Y-102818531D01*
X125731000Y-102628757D01*
X125683693Y-102390931D01*
X125678889Y-102379333D01*
X126736723Y-101321500D01*
X128085246Y-101321500D01*
X127866253Y-101399081D01*
X127728843Y-101472528D01*
X127651208Y-101721603D01*
X128500000Y-102570395D01*
X129348792Y-101721603D01*
X129271157Y-101472528D01*
X129007117Y-101346629D01*
X128908118Y-101321500D01*
X151873000Y-101321500D01*
X151873000Y-103242000D01*
X142415629Y-103242000D01*
X142390685Y-103239543D01*
X142365741Y-103242000D01*
X142365739Y-103242000D01*
X142291101Y-103249351D01*
X142195343Y-103278399D01*
X142195341Y-103278400D01*
X142107090Y-103325571D01*
X142063983Y-103360948D01*
X142029738Y-103389052D01*
X142013836Y-103408429D01*
X135690567Y-109731699D01*
X135685194Y-109728232D01*
X135460687Y-109728232D01*
X135182534Y-110006385D01*
X135174983Y-110010421D01*
X135116968Y-110058032D01*
X134268440Y-110906560D01*
X134220829Y-110964575D01*
X134216793Y-110972126D01*
X133938640Y-111250279D01*
X133938640Y-111474786D01*
X133946544Y-111487034D01*
X134043235Y-111566387D01*
X134153549Y-111625351D01*
X134273248Y-111661661D01*
X134397729Y-111673921D01*
X134485714Y-111665256D01*
X134692704Y-111872246D01*
X134750719Y-111919857D01*
X134774045Y-111932326D01*
X134786514Y-111955652D01*
X134834125Y-112013667D01*
X135218618Y-112398160D01*
X134483209Y-113133569D01*
X134369942Y-113057887D01*
X134227809Y-112999013D01*
X134076922Y-112969000D01*
X133923078Y-112969000D01*
X133772191Y-112999013D01*
X133630058Y-113057887D01*
X133502141Y-113143358D01*
X133393358Y-113252141D01*
X133307887Y-113380058D01*
X133249013Y-113522191D01*
X133219000Y-113673078D01*
X133219000Y-113826922D01*
X133249013Y-113977809D01*
X133307887Y-114119942D01*
X133393358Y-114247859D01*
X133502141Y-114356642D01*
X133630058Y-114442113D01*
X133772191Y-114500987D01*
X133923078Y-114531000D01*
X134076922Y-114531000D01*
X134227809Y-114500987D01*
X134369942Y-114442113D01*
X134497859Y-114356642D01*
X134533001Y-114321500D01*
X134646926Y-114321500D01*
X134675000Y-114324265D01*
X134703074Y-114321500D01*
X134787034Y-114313231D01*
X134894762Y-114280552D01*
X134994045Y-114227484D01*
X135081067Y-114156067D01*
X135098970Y-114134252D01*
X136026840Y-113206382D01*
X136389760Y-113569302D01*
X136447775Y-113616913D01*
X136513963Y-113652292D01*
X136585782Y-113674078D01*
X136660471Y-113681434D01*
X136735160Y-113674078D01*
X136806979Y-113652292D01*
X136873167Y-113616913D01*
X136931182Y-113569302D01*
X137266789Y-113233695D01*
X139425473Y-113233695D01*
X139576030Y-113384252D01*
X139593933Y-113406067D01*
X139680955Y-113477484D01*
X139780238Y-113530552D01*
X139887966Y-113563231D01*
X139971926Y-113571500D01*
X139971927Y-113571500D01*
X139999999Y-113574265D01*
X140028071Y-113571500D01*
X140859685Y-113571500D01*
X140752141Y-113643358D01*
X140643358Y-113752141D01*
X140562603Y-113873000D01*
X138500000Y-113873000D01*
X138475224Y-113875440D01*
X138451399Y-113882667D01*
X138429443Y-113894403D01*
X138410197Y-113910197D01*
X137722939Y-114597455D01*
X136931182Y-113805698D01*
X136873167Y-113758087D01*
X136806979Y-113722708D01*
X136735160Y-113700922D01*
X136660471Y-113693566D01*
X136585782Y-113700922D01*
X136513963Y-113722708D01*
X136447775Y-113758087D01*
X136389760Y-113805698D01*
X135965496Y-114229962D01*
X135917885Y-114287977D01*
X135905417Y-114311303D01*
X135882089Y-114323772D01*
X135824074Y-114371383D01*
X135617084Y-114578373D01*
X135529100Y-114569708D01*
X135404619Y-114581968D01*
X135284920Y-114618278D01*
X135174606Y-114677242D01*
X135077915Y-114756595D01*
X135070011Y-114768843D01*
X135070011Y-114993350D01*
X135348161Y-115271500D01*
X135352199Y-115279054D01*
X135399810Y-115337069D01*
X135928020Y-115865279D01*
X135762335Y-116030963D01*
X135234126Y-115502754D01*
X135176111Y-115455143D01*
X135168555Y-115451104D01*
X134890406Y-115172955D01*
X134665899Y-115172955D01*
X134653651Y-115180859D01*
X134574298Y-115277550D01*
X134515334Y-115387864D01*
X134479024Y-115507563D01*
X134466764Y-115632044D01*
X134475429Y-115720029D01*
X134268440Y-115927018D01*
X134220829Y-115985033D01*
X134208360Y-116008360D01*
X134185033Y-116020829D01*
X134127018Y-116068440D01*
X133702754Y-116492704D01*
X133655143Y-116550719D01*
X133642674Y-116574045D01*
X133619348Y-116586514D01*
X133561333Y-116634125D01*
X133137069Y-117058389D01*
X133089458Y-117116404D01*
X133076990Y-117139730D01*
X133053662Y-117152199D01*
X132995647Y-117199810D01*
X132571383Y-117624074D01*
X132523772Y-117682089D01*
X132511303Y-117705417D01*
X132487977Y-117717885D01*
X132429962Y-117765496D01*
X132005698Y-118189760D01*
X131958087Y-118247775D01*
X131922708Y-118313963D01*
X131900922Y-118385782D01*
X131893566Y-118460471D01*
X131900922Y-118535160D01*
X131922708Y-118606979D01*
X131958087Y-118673167D01*
X132005698Y-118731182D01*
X132742001Y-119467485D01*
X132742001Y-119578393D01*
X130328394Y-121992000D01*
X124210421Y-121992000D01*
X121126855Y-118908435D01*
X121110948Y-118889052D01*
X121033595Y-118825571D01*
X120945343Y-118778399D01*
X120849585Y-118749351D01*
X120774947Y-118742000D01*
X120774944Y-118742000D01*
X120750000Y-118739543D01*
X120725056Y-118742000D01*
X117024943Y-118742000D01*
X116999999Y-118739543D01*
X116975055Y-118742000D01*
X116975053Y-118742000D01*
X116900415Y-118749351D01*
X116804657Y-118778399D01*
X116804655Y-118778400D01*
X116716404Y-118825571D01*
X116673297Y-118860948D01*
X116639052Y-118889052D01*
X116623150Y-118908429D01*
X115289580Y-120242000D01*
X115128097Y-120242000D01*
X115195343Y-120221601D01*
X115283595Y-120174429D01*
X115360948Y-120110948D01*
X115376855Y-120091565D01*
X116960420Y-118508000D01*
X120789580Y-118508000D01*
X122373145Y-120091565D01*
X122389052Y-120110948D01*
X122466405Y-120174429D01*
X122554657Y-120221601D01*
X122650415Y-120250649D01*
X122725053Y-120258000D01*
X122725056Y-120258000D01*
X122750000Y-120260457D01*
X122774944Y-120258000D01*
X128628483Y-120258000D01*
X128653427Y-120260457D01*
X128678371Y-120258000D01*
X128678374Y-120258000D01*
X128753012Y-120250649D01*
X128848770Y-120221601D01*
X128937022Y-120174429D01*
X129014375Y-120110948D01*
X129030282Y-120091565D01*
X129492000Y-119629847D01*
X129492001Y-120044920D01*
X129471033Y-120065888D01*
X129396506Y-120177426D01*
X129345171Y-120301360D01*
X129319000Y-120432927D01*
X129319000Y-120567073D01*
X129345171Y-120698640D01*
X129396506Y-120822574D01*
X129471033Y-120934112D01*
X129565888Y-121028967D01*
X129677426Y-121103494D01*
X129801360Y-121154829D01*
X129932927Y-121181000D01*
X130067073Y-121181000D01*
X130198640Y-121154829D01*
X130322574Y-121103494D01*
X130434112Y-121028967D01*
X130528967Y-120934112D01*
X130603494Y-120822574D01*
X130654829Y-120698640D01*
X130681000Y-120567073D01*
X130681000Y-120432927D01*
X130654829Y-120301360D01*
X130603494Y-120177426D01*
X130528967Y-120065888D01*
X130508000Y-120044921D01*
X130508000Y-119745218D01*
X130570278Y-119682940D01*
X130575374Y-119684486D01*
X130650063Y-119691842D01*
X130724752Y-119684486D01*
X130796571Y-119662700D01*
X130862759Y-119627321D01*
X130920774Y-119579710D01*
X131769302Y-118731182D01*
X131816913Y-118673167D01*
X131852292Y-118606979D01*
X131874078Y-118535160D01*
X131881434Y-118460471D01*
X131874078Y-118385782D01*
X131852292Y-118313963D01*
X131816913Y-118247775D01*
X131769302Y-118189760D01*
X131345038Y-117765496D01*
X131287023Y-117717885D01*
X131263697Y-117705417D01*
X131251228Y-117682089D01*
X131203617Y-117624074D01*
X130779353Y-117199810D01*
X130721338Y-117152199D01*
X130698010Y-117139730D01*
X130685542Y-117116404D01*
X130637931Y-117058389D01*
X130213667Y-116634125D01*
X130155652Y-116586514D01*
X130132326Y-116574045D01*
X130119857Y-116550719D01*
X130072246Y-116492704D01*
X129647982Y-116068440D01*
X129589967Y-116020829D01*
X129566640Y-116008360D01*
X129554171Y-115985033D01*
X129506560Y-115927018D01*
X129082296Y-115502754D01*
X129024281Y-115455143D01*
X129000955Y-115442674D01*
X128988486Y-115419348D01*
X128940875Y-115361333D01*
X128516611Y-114937069D01*
X128458596Y-114889458D01*
X128435270Y-114876990D01*
X128422801Y-114853662D01*
X128375190Y-114795647D01*
X127950926Y-114371383D01*
X127892911Y-114323772D01*
X127869583Y-114311303D01*
X127857115Y-114287977D01*
X127809504Y-114229962D01*
X127385240Y-113805698D01*
X127327225Y-113758087D01*
X127261037Y-113722708D01*
X127189218Y-113700922D01*
X127114529Y-113693566D01*
X127039840Y-113700922D01*
X126968021Y-113722708D01*
X126901833Y-113758087D01*
X126843818Y-113805698D01*
X125995290Y-114654226D01*
X125947679Y-114712241D01*
X125941751Y-114723331D01*
X123976420Y-112758000D01*
X126032516Y-112758000D01*
X126843818Y-113569302D01*
X126901833Y-113616913D01*
X126968021Y-113652292D01*
X127039840Y-113674078D01*
X127114529Y-113681434D01*
X127189218Y-113674078D01*
X127261037Y-113652292D01*
X127327225Y-113616913D01*
X127385240Y-113569302D01*
X127809504Y-113145038D01*
X127857115Y-113087023D01*
X127869583Y-113063697D01*
X127892911Y-113051228D01*
X127950926Y-113003617D01*
X128375190Y-112579353D01*
X128422801Y-112521338D01*
X128435270Y-112498010D01*
X128458596Y-112485542D01*
X128516611Y-112437931D01*
X128940875Y-112013667D01*
X128988486Y-111955652D01*
X129000955Y-111932326D01*
X129024281Y-111919857D01*
X129082296Y-111872246D01*
X129506560Y-111447982D01*
X129554171Y-111389967D01*
X129566640Y-111366640D01*
X129589967Y-111354171D01*
X129647982Y-111306560D01*
X130072246Y-110882296D01*
X130119857Y-110824281D01*
X130132326Y-110800955D01*
X130155652Y-110788486D01*
X130213667Y-110740875D01*
X130637931Y-110316611D01*
X130685542Y-110258596D01*
X130698010Y-110235270D01*
X130721338Y-110222801D01*
X130779353Y-110175190D01*
X131203617Y-109750926D01*
X131251228Y-109692911D01*
X131263697Y-109669583D01*
X131287023Y-109657115D01*
X131345038Y-109609504D01*
X131769302Y-109185240D01*
X131816913Y-109127225D01*
X131852292Y-109061037D01*
X131874078Y-108989218D01*
X131881434Y-108914529D01*
X131874078Y-108839840D01*
X131852292Y-108768021D01*
X131816913Y-108701833D01*
X131769302Y-108643818D01*
X130920774Y-107795290D01*
X130862759Y-107747679D01*
X130796571Y-107712300D01*
X130724752Y-107690514D01*
X130650063Y-107683158D01*
X130575374Y-107690514D01*
X130570278Y-107692060D01*
X130508000Y-107629782D01*
X130508000Y-106955079D01*
X130528967Y-106934112D01*
X130603494Y-106822574D01*
X130654829Y-106698640D01*
X130681000Y-106567073D01*
X130681000Y-106432927D01*
X130654829Y-106301360D01*
X130603494Y-106177426D01*
X130528967Y-106065888D01*
X130434112Y-105971033D01*
X130322574Y-105896506D01*
X130198640Y-105845171D01*
X130067073Y-105819000D01*
X129932927Y-105819000D01*
X129801360Y-105845171D01*
X129677426Y-105896506D01*
X129565888Y-105971033D01*
X129471033Y-106065888D01*
X129396506Y-106177426D01*
X129345171Y-106301360D01*
X129319000Y-106432927D01*
X129319000Y-106567073D01*
X129345171Y-106698640D01*
X129396506Y-106822574D01*
X129471033Y-106934112D01*
X129492000Y-106955079D01*
X129492001Y-107815248D01*
X129489543Y-107840202D01*
X129497389Y-107919859D01*
X129499352Y-107939787D01*
X129515191Y-107992000D01*
X129528400Y-108035545D01*
X129575571Y-108123797D01*
X129623150Y-108181772D01*
X129639053Y-108201150D01*
X129658430Y-108217052D01*
X129808011Y-108366633D01*
X129395060Y-108779584D01*
X128773911Y-108158435D01*
X128758004Y-108139052D01*
X128680651Y-108075571D01*
X128592399Y-108028399D01*
X128496641Y-107999351D01*
X128422003Y-107992000D01*
X128422000Y-107992000D01*
X128397056Y-107989543D01*
X128372112Y-107992000D01*
X123960420Y-107992000D01*
X123431000Y-107462580D01*
X123431000Y-107432927D01*
X123404829Y-107301360D01*
X123353494Y-107177426D01*
X123278967Y-107065888D01*
X123184112Y-106971033D01*
X123072574Y-106896506D01*
X122948640Y-106845171D01*
X122817073Y-106819000D01*
X122682927Y-106819000D01*
X122551360Y-106845171D01*
X122427426Y-106896506D01*
X122315888Y-106971033D01*
X122221033Y-107065888D01*
X122146506Y-107177426D01*
X122095171Y-107301360D01*
X122069000Y-107432927D01*
X122069000Y-107567073D01*
X122095171Y-107698640D01*
X122146506Y-107822574D01*
X122221033Y-107934112D01*
X122315888Y-108028967D01*
X122427426Y-108103494D01*
X122551360Y-108154829D01*
X122682927Y-108181000D01*
X122712580Y-108181000D01*
X123273580Y-108742000D01*
X113710420Y-108742000D01*
X110793912Y-105825492D01*
X116681500Y-105825492D01*
X116681500Y-106294508D01*
X116773000Y-106754512D01*
X116952485Y-107187827D01*
X117213056Y-107577799D01*
X117544701Y-107909444D01*
X117934673Y-108170015D01*
X118367988Y-108349500D01*
X118827992Y-108441000D01*
X119297008Y-108441000D01*
X119757012Y-108349500D01*
X120190327Y-108170015D01*
X120580299Y-107909444D01*
X120911944Y-107577799D01*
X121172515Y-107187827D01*
X121352000Y-106754512D01*
X121443500Y-106294508D01*
X121443500Y-105825492D01*
X121352000Y-105365488D01*
X121172515Y-104932173D01*
X120911944Y-104542201D01*
X120580299Y-104210556D01*
X120190327Y-103949985D01*
X119757012Y-103770500D01*
X119297008Y-103679000D01*
X118827992Y-103679000D01*
X118367988Y-103770500D01*
X117934673Y-103949985D01*
X117544701Y-104210556D01*
X117213056Y-104542201D01*
X116952485Y-104932173D01*
X116773000Y-105365488D01*
X116681500Y-105825492D01*
X110793912Y-105825492D01*
X110127000Y-105158580D01*
X110127000Y-103346262D01*
X110139052Y-103360948D01*
X110158429Y-103376850D01*
X110216404Y-103424429D01*
X110255532Y-103445343D01*
X110304657Y-103471601D01*
X110400415Y-103500649D01*
X110475053Y-103508000D01*
X110475055Y-103508000D01*
X110499999Y-103510457D01*
X110524943Y-103508000D01*
X120039580Y-103508000D01*
X121873149Y-105341570D01*
X121889052Y-105360948D01*
X121908429Y-105376850D01*
X121966404Y-105424429D01*
X122013576Y-105449643D01*
X122054657Y-105471601D01*
X122150415Y-105500649D01*
X122225053Y-105508000D01*
X122225055Y-105508000D01*
X122249999Y-105510457D01*
X122274943Y-105508000D01*
X132039580Y-105508000D01*
X132992001Y-106460422D01*
X132992000Y-107708183D01*
X132978429Y-107712300D01*
X132912241Y-107747679D01*
X132854226Y-107795290D01*
X132005698Y-108643818D01*
X131958087Y-108701833D01*
X131922708Y-108768021D01*
X131900922Y-108839840D01*
X131893566Y-108914529D01*
X131900922Y-108989218D01*
X131922708Y-109061037D01*
X131958087Y-109127225D01*
X132005698Y-109185240D01*
X132429962Y-109609504D01*
X132487977Y-109657115D01*
X132511303Y-109669583D01*
X132523772Y-109692911D01*
X132571383Y-109750926D01*
X132995647Y-110175190D01*
X133053662Y-110222801D01*
X133076990Y-110235270D01*
X133089458Y-110258596D01*
X133137069Y-110316611D01*
X133344058Y-110523600D01*
X133335393Y-110611585D01*
X133347653Y-110736066D01*
X133383963Y-110855765D01*
X133442927Y-110966079D01*
X133522280Y-111062770D01*
X133534528Y-111070674D01*
X133759035Y-111070674D01*
X134037184Y-110792525D01*
X134044740Y-110788486D01*
X134102755Y-110740875D01*
X134951283Y-109892347D01*
X134998894Y-109834332D01*
X135002933Y-109826776D01*
X135281082Y-109548627D01*
X135281082Y-109324120D01*
X135277616Y-109318748D01*
X136341565Y-108254799D01*
X136360948Y-108238892D01*
X136424429Y-108161539D01*
X136471601Y-108073287D01*
X136500649Y-107977529D01*
X136508000Y-107902891D01*
X136508000Y-107902888D01*
X136510457Y-107877944D01*
X136508000Y-107853000D01*
X136508000Y-104507055D01*
X136574689Y-104500487D01*
X136646508Y-104478701D01*
X136712696Y-104443322D01*
X136770711Y-104395711D01*
X136818322Y-104337696D01*
X136853701Y-104271508D01*
X136870804Y-104215126D01*
X136874188Y-104249482D01*
X136910498Y-104369180D01*
X136969463Y-104479494D01*
X137048815Y-104576185D01*
X137145506Y-104655537D01*
X137255820Y-104714502D01*
X137375518Y-104750812D01*
X137500000Y-104763072D01*
X137714250Y-104760000D01*
X137873000Y-104601250D01*
X137873000Y-103627000D01*
X138127000Y-103627000D01*
X138127000Y-104601250D01*
X138285750Y-104760000D01*
X138500000Y-104763072D01*
X138624482Y-104750812D01*
X138744180Y-104714502D01*
X138854494Y-104655537D01*
X138951185Y-104576185D01*
X139030537Y-104479494D01*
X139089502Y-104369180D01*
X139125812Y-104249482D01*
X139138072Y-104125000D01*
X139135000Y-103785750D01*
X138976250Y-103627000D01*
X138127000Y-103627000D01*
X137873000Y-103627000D01*
X137853000Y-103627000D01*
X137853000Y-103373000D01*
X137873000Y-103373000D01*
X137873000Y-102398750D01*
X138127000Y-102398750D01*
X138127000Y-103373000D01*
X138976250Y-103373000D01*
X139135000Y-103214250D01*
X139138072Y-102875000D01*
X139125812Y-102750518D01*
X139089502Y-102630820D01*
X139030537Y-102520506D01*
X138951185Y-102423815D01*
X138854494Y-102344463D01*
X138744180Y-102285498D01*
X138624482Y-102249188D01*
X138500000Y-102236928D01*
X138285750Y-102240000D01*
X138127000Y-102398750D01*
X137873000Y-102398750D01*
X137714250Y-102240000D01*
X137500000Y-102236928D01*
X137375518Y-102249188D01*
X137255820Y-102285498D01*
X137145506Y-102344463D01*
X137048815Y-102423815D01*
X136969463Y-102520506D01*
X136910498Y-102630820D01*
X136874188Y-102750518D01*
X136870804Y-102784874D01*
X136853701Y-102728492D01*
X136818322Y-102662304D01*
X136770711Y-102604289D01*
X136712696Y-102556678D01*
X136646508Y-102521299D01*
X136574689Y-102499513D01*
X136500000Y-102492157D01*
X135500000Y-102492157D01*
X135425311Y-102499513D01*
X135353492Y-102521299D01*
X135287304Y-102556678D01*
X135229289Y-102604289D01*
X135181678Y-102662304D01*
X135146299Y-102728492D01*
X135124513Y-102800311D01*
X135117157Y-102875000D01*
X135117157Y-104125000D01*
X135124513Y-104199689D01*
X135146299Y-104271508D01*
X135181678Y-104337696D01*
X135229289Y-104395711D01*
X135287304Y-104443322D01*
X135353492Y-104478701D01*
X135425311Y-104500487D01*
X135492001Y-104507055D01*
X135492000Y-107667524D01*
X135008000Y-108151524D01*
X135008000Y-104774943D01*
X135010457Y-104749999D01*
X135006961Y-104714502D01*
X135000649Y-104650415D01*
X134971601Y-104554657D01*
X134936797Y-104489543D01*
X134924429Y-104466404D01*
X134876850Y-104408429D01*
X134860948Y-104389052D01*
X134841571Y-104373150D01*
X133652587Y-103184166D01*
X133683693Y-103109069D01*
X133731000Y-102871243D01*
X133731000Y-102628757D01*
X133683693Y-102390931D01*
X133590898Y-102166903D01*
X133456180Y-101965283D01*
X133284717Y-101793820D01*
X133083097Y-101659102D01*
X132859069Y-101566307D01*
X132621243Y-101519000D01*
X132378757Y-101519000D01*
X132140931Y-101566307D01*
X131916903Y-101659102D01*
X131715283Y-101793820D01*
X131543820Y-101965283D01*
X131409102Y-102166903D01*
X131316307Y-102390931D01*
X131269000Y-102628757D01*
X131269000Y-102871243D01*
X131316307Y-103109069D01*
X131409102Y-103333097D01*
X131543820Y-103534717D01*
X131715283Y-103706180D01*
X131916903Y-103840898D01*
X132140931Y-103933693D01*
X132378757Y-103981000D01*
X132621243Y-103981000D01*
X132859069Y-103933693D01*
X132934166Y-103902587D01*
X133992001Y-104960422D01*
X133992001Y-106121905D01*
X133971601Y-106054657D01*
X133926903Y-105971033D01*
X133924429Y-105966404D01*
X133876850Y-105908429D01*
X133860948Y-105889052D01*
X133841571Y-105873150D01*
X132626855Y-104658435D01*
X132610948Y-104639052D01*
X132533595Y-104575571D01*
X132445343Y-104528399D01*
X132349585Y-104499351D01*
X132274947Y-104492000D01*
X132274944Y-104492000D01*
X132250000Y-104489543D01*
X132225056Y-104492000D01*
X122460421Y-104492000D01*
X120626855Y-102658435D01*
X120610948Y-102639052D01*
X120533595Y-102575571D01*
X120445343Y-102528399D01*
X120349585Y-102499351D01*
X120274947Y-102492000D01*
X120274944Y-102492000D01*
X120250000Y-102489543D01*
X120225056Y-102492000D01*
X110710421Y-102492000D01*
X110127000Y-101908579D01*
X110127000Y-100627000D01*
X115180199Y-100627000D01*
X115146506Y-100677426D01*
G37*
G04 #@! TD.AperFunction*
D32*
X111360498Y-115105820D02*
X111324188Y-115225518D01*
X111311928Y-115350000D01*
X111315000Y-115714250D01*
X111473750Y-115873000D01*
X112173000Y-115873000D01*
X112173000Y-115853000D01*
X112427000Y-115853000D01*
X112427000Y-115873000D01*
X113126250Y-115873000D01*
X113285000Y-115714250D01*
X113288072Y-115350000D01*
X113275812Y-115225518D01*
X113239502Y-115105820D01*
X113187215Y-115008000D01*
X113681601Y-115008000D01*
X113637304Y-115031678D01*
X113579289Y-115079289D01*
X113531678Y-115137304D01*
X113496299Y-115203492D01*
X113474513Y-115275311D01*
X113467157Y-115350000D01*
X113467157Y-116650000D01*
X113474513Y-116724689D01*
X113496299Y-116796508D01*
X113531678Y-116862696D01*
X113579289Y-116920711D01*
X113637304Y-116968322D01*
X113703492Y-117003701D01*
X113775311Y-117025487D01*
X113850000Y-117032843D01*
X114550000Y-117032843D01*
X114624689Y-117025487D01*
X114696508Y-117003701D01*
X114762696Y-116968322D01*
X114820711Y-116920711D01*
X114868322Y-116862696D01*
X114903701Y-116796508D01*
X114925487Y-116724689D01*
X114932843Y-116650000D01*
X114932843Y-116508000D01*
X115975056Y-116508000D01*
X116000000Y-116510457D01*
X116024944Y-116508000D01*
X116024947Y-116508000D01*
X116099585Y-116500649D01*
X116195343Y-116471601D01*
X116283595Y-116424429D01*
X116360948Y-116360948D01*
X116376855Y-116341565D01*
X116960421Y-115758000D01*
X118528921Y-115758000D01*
X118471033Y-115815888D01*
X118396506Y-115927426D01*
X118345171Y-116051360D01*
X118319000Y-116182927D01*
X118319000Y-116317073D01*
X118345171Y-116448640D01*
X118396506Y-116572574D01*
X118471033Y-116684112D01*
X118528921Y-116742000D01*
X116274944Y-116742000D01*
X116250000Y-116739543D01*
X116225056Y-116742000D01*
X116225053Y-116742000D01*
X116150415Y-116749351D01*
X116054657Y-116778399D01*
X115966405Y-116825571D01*
X115889052Y-116889052D01*
X115873145Y-116908435D01*
X114289580Y-118492000D01*
X110710421Y-118492000D01*
X110127000Y-117908579D01*
X110127000Y-116650000D01*
X111311928Y-116650000D01*
X111324188Y-116774482D01*
X111360498Y-116894180D01*
X111419463Y-117004494D01*
X111498815Y-117101185D01*
X111595506Y-117180537D01*
X111705820Y-117239502D01*
X111825518Y-117275812D01*
X111950000Y-117288072D01*
X112014250Y-117285000D01*
X112173000Y-117126250D01*
X112173000Y-116127000D01*
X112427000Y-116127000D01*
X112427000Y-117126250D01*
X112585750Y-117285000D01*
X112650000Y-117288072D01*
X112774482Y-117275812D01*
X112894180Y-117239502D01*
X113004494Y-117180537D01*
X113101185Y-117101185D01*
X113180537Y-117004494D01*
X113239502Y-116894180D01*
X113275812Y-116774482D01*
X113288072Y-116650000D01*
X113285000Y-116285750D01*
X113126250Y-116127000D01*
X112427000Y-116127000D01*
X112173000Y-116127000D01*
X111473750Y-116127000D01*
X111315000Y-116285750D01*
X111311928Y-116650000D01*
X110127000Y-116650000D01*
X110127000Y-115008000D01*
X111412785Y-115008000D01*
X111360498Y-115105820D01*
G04 #@! TA.AperFunction,Conductor*
D34*
G36*
X111360498Y-115105820D02*
G01*
X111324188Y-115225518D01*
X111311928Y-115350000D01*
X111315000Y-115714250D01*
X111473750Y-115873000D01*
X112173000Y-115873000D01*
X112173000Y-115853000D01*
X112427000Y-115853000D01*
X112427000Y-115873000D01*
X113126250Y-115873000D01*
X113285000Y-115714250D01*
X113288072Y-115350000D01*
X113275812Y-115225518D01*
X113239502Y-115105820D01*
X113187215Y-115008000D01*
X113681601Y-115008000D01*
X113637304Y-115031678D01*
X113579289Y-115079289D01*
X113531678Y-115137304D01*
X113496299Y-115203492D01*
X113474513Y-115275311D01*
X113467157Y-115350000D01*
X113467157Y-116650000D01*
X113474513Y-116724689D01*
X113496299Y-116796508D01*
X113531678Y-116862696D01*
X113579289Y-116920711D01*
X113637304Y-116968322D01*
X113703492Y-117003701D01*
X113775311Y-117025487D01*
X113850000Y-117032843D01*
X114550000Y-117032843D01*
X114624689Y-117025487D01*
X114696508Y-117003701D01*
X114762696Y-116968322D01*
X114820711Y-116920711D01*
X114868322Y-116862696D01*
X114903701Y-116796508D01*
X114925487Y-116724689D01*
X114932843Y-116650000D01*
X114932843Y-116508000D01*
X115975056Y-116508000D01*
X116000000Y-116510457D01*
X116024944Y-116508000D01*
X116024947Y-116508000D01*
X116099585Y-116500649D01*
X116195343Y-116471601D01*
X116283595Y-116424429D01*
X116360948Y-116360948D01*
X116376855Y-116341565D01*
X116960421Y-115758000D01*
X118528921Y-115758000D01*
X118471033Y-115815888D01*
X118396506Y-115927426D01*
X118345171Y-116051360D01*
X118319000Y-116182927D01*
X118319000Y-116317073D01*
X118345171Y-116448640D01*
X118396506Y-116572574D01*
X118471033Y-116684112D01*
X118528921Y-116742000D01*
X116274944Y-116742000D01*
X116250000Y-116739543D01*
X116225056Y-116742000D01*
X116225053Y-116742000D01*
X116150415Y-116749351D01*
X116054657Y-116778399D01*
X115966405Y-116825571D01*
X115889052Y-116889052D01*
X115873145Y-116908435D01*
X114289580Y-118492000D01*
X110710421Y-118492000D01*
X110127000Y-117908579D01*
X110127000Y-116650000D01*
X111311928Y-116650000D01*
X111324188Y-116774482D01*
X111360498Y-116894180D01*
X111419463Y-117004494D01*
X111498815Y-117101185D01*
X111595506Y-117180537D01*
X111705820Y-117239502D01*
X111825518Y-117275812D01*
X111950000Y-117288072D01*
X112014250Y-117285000D01*
X112173000Y-117126250D01*
X112173000Y-116127000D01*
X112427000Y-116127000D01*
X112427000Y-117126250D01*
X112585750Y-117285000D01*
X112650000Y-117288072D01*
X112774482Y-117275812D01*
X112894180Y-117239502D01*
X113004494Y-117180537D01*
X113101185Y-117101185D01*
X113180537Y-117004494D01*
X113239502Y-116894180D01*
X113275812Y-116774482D01*
X113288072Y-116650000D01*
X113285000Y-116285750D01*
X113126250Y-116127000D01*
X112427000Y-116127000D01*
X112173000Y-116127000D01*
X111473750Y-116127000D01*
X111315000Y-116285750D01*
X111311928Y-116650000D01*
X110127000Y-116650000D01*
X110127000Y-115008000D01*
X111412785Y-115008000D01*
X111360498Y-115105820D01*
G37*
G04 #@! TD.AperFunction*
D32*
X151873000Y-107123000D02*
X145500000Y-107123000D01*
X145475224Y-107125440D01*
X145451399Y-107132667D01*
X145429443Y-107144403D01*
X145410197Y-107160197D01*
X145394403Y-107179443D01*
X145382667Y-107201399D01*
X145375440Y-107225224D01*
X145373000Y-107250000D01*
X145373000Y-111859650D01*
X145354494Y-111844463D01*
X145244180Y-111785498D01*
X145124482Y-111749188D01*
X145000000Y-111736928D01*
X144785750Y-111740000D01*
X144627000Y-111898750D01*
X144627000Y-112873000D01*
X144647000Y-112873000D01*
X144647000Y-113127000D01*
X144627000Y-113127000D01*
X144627000Y-113147000D01*
X144373000Y-113147000D01*
X144373000Y-113127000D01*
X144353000Y-113127000D01*
X144353000Y-112873000D01*
X144373000Y-112873000D01*
X144373000Y-111898750D01*
X144214250Y-111740000D01*
X144000000Y-111736928D01*
X143875518Y-111749188D01*
X143755820Y-111785498D01*
X143645506Y-111844463D01*
X143548815Y-111923815D01*
X143469463Y-112020506D01*
X143410498Y-112130820D01*
X143374188Y-112250518D01*
X143370804Y-112284874D01*
X143353701Y-112228492D01*
X143318322Y-112162304D01*
X143270711Y-112104289D01*
X143212696Y-112056678D01*
X143146508Y-112021299D01*
X143074689Y-111999513D01*
X143071500Y-111999199D01*
X143071500Y-111632843D01*
X143125000Y-111632843D01*
X143199689Y-111625487D01*
X143271508Y-111603701D01*
X143337696Y-111568322D01*
X143395711Y-111520711D01*
X143443322Y-111462696D01*
X143478701Y-111396508D01*
X143500487Y-111324689D01*
X143507843Y-111250000D01*
X143507843Y-110250000D01*
X143500487Y-110175311D01*
X143478701Y-110103492D01*
X143443322Y-110037304D01*
X143395711Y-109979289D01*
X143337696Y-109931678D01*
X143271508Y-109896299D01*
X143215126Y-109879196D01*
X143249482Y-109875812D01*
X143369180Y-109839502D01*
X143479494Y-109780537D01*
X143576185Y-109701185D01*
X143655537Y-109604494D01*
X143714502Y-109494180D01*
X143750812Y-109374482D01*
X143763072Y-109250000D01*
X143760000Y-109035750D01*
X143601250Y-108877000D01*
X142627000Y-108877000D01*
X142627000Y-108897000D01*
X142373000Y-108897000D01*
X142373000Y-108877000D01*
X141398750Y-108877000D01*
X141240000Y-109035750D01*
X141236928Y-109250000D01*
X141249188Y-109374482D01*
X141285498Y-109494180D01*
X141344463Y-109604494D01*
X141423815Y-109701185D01*
X141520506Y-109780537D01*
X141630820Y-109839502D01*
X141750518Y-109875812D01*
X141784874Y-109879196D01*
X141728492Y-109896299D01*
X141662304Y-109931678D01*
X141604289Y-109979289D01*
X141556678Y-110037304D01*
X141521299Y-110103492D01*
X141499513Y-110175311D01*
X141499199Y-110178500D01*
X137811976Y-110178500D01*
X139740476Y-108250000D01*
X141236928Y-108250000D01*
X141240000Y-108464250D01*
X141398750Y-108623000D01*
X142373000Y-108623000D01*
X142373000Y-107773750D01*
X142627000Y-107773750D01*
X142627000Y-108623000D01*
X143601250Y-108623000D01*
X143760000Y-108464250D01*
X143763072Y-108250000D01*
X143750812Y-108125518D01*
X143714502Y-108005820D01*
X143655537Y-107895506D01*
X143576185Y-107798815D01*
X143479494Y-107719463D01*
X143369180Y-107660498D01*
X143249482Y-107624188D01*
X143125000Y-107611928D01*
X142785750Y-107615000D01*
X142627000Y-107773750D01*
X142373000Y-107773750D01*
X142214250Y-107615000D01*
X141875000Y-107611928D01*
X141750518Y-107624188D01*
X141630820Y-107660498D01*
X141520506Y-107719463D01*
X141423815Y-107798815D01*
X141344463Y-107895506D01*
X141285498Y-108005820D01*
X141249188Y-108125518D01*
X141236928Y-108250000D01*
X139740476Y-108250000D01*
X142982476Y-105008000D01*
X151873000Y-105008000D01*
X151873000Y-107123000D01*
G04 #@! TA.AperFunction,Conductor*
D34*
G36*
X151873000Y-107123000D02*
G01*
X145500000Y-107123000D01*
X145475224Y-107125440D01*
X145451399Y-107132667D01*
X145429443Y-107144403D01*
X145410197Y-107160197D01*
X145394403Y-107179443D01*
X145382667Y-107201399D01*
X145375440Y-107225224D01*
X145373000Y-107250000D01*
X145373000Y-111859650D01*
X145354494Y-111844463D01*
X145244180Y-111785498D01*
X145124482Y-111749188D01*
X145000000Y-111736928D01*
X144785750Y-111740000D01*
X144627000Y-111898750D01*
X144627000Y-112873000D01*
X144647000Y-112873000D01*
X144647000Y-113127000D01*
X144627000Y-113127000D01*
X144627000Y-113147000D01*
X144373000Y-113147000D01*
X144373000Y-113127000D01*
X144353000Y-113127000D01*
X144353000Y-112873000D01*
X144373000Y-112873000D01*
X144373000Y-111898750D01*
X144214250Y-111740000D01*
X144000000Y-111736928D01*
X143875518Y-111749188D01*
X143755820Y-111785498D01*
X143645506Y-111844463D01*
X143548815Y-111923815D01*
X143469463Y-112020506D01*
X143410498Y-112130820D01*
X143374188Y-112250518D01*
X143370804Y-112284874D01*
X143353701Y-112228492D01*
X143318322Y-112162304D01*
X143270711Y-112104289D01*
X143212696Y-112056678D01*
X143146508Y-112021299D01*
X143074689Y-111999513D01*
X143071500Y-111999199D01*
X143071500Y-111632843D01*
X143125000Y-111632843D01*
X143199689Y-111625487D01*
X143271508Y-111603701D01*
X143337696Y-111568322D01*
X143395711Y-111520711D01*
X143443322Y-111462696D01*
X143478701Y-111396508D01*
X143500487Y-111324689D01*
X143507843Y-111250000D01*
X143507843Y-110250000D01*
X143500487Y-110175311D01*
X143478701Y-110103492D01*
X143443322Y-110037304D01*
X143395711Y-109979289D01*
X143337696Y-109931678D01*
X143271508Y-109896299D01*
X143215126Y-109879196D01*
X143249482Y-109875812D01*
X143369180Y-109839502D01*
X143479494Y-109780537D01*
X143576185Y-109701185D01*
X143655537Y-109604494D01*
X143714502Y-109494180D01*
X143750812Y-109374482D01*
X143763072Y-109250000D01*
X143760000Y-109035750D01*
X143601250Y-108877000D01*
X142627000Y-108877000D01*
X142627000Y-108897000D01*
X142373000Y-108897000D01*
X142373000Y-108877000D01*
X141398750Y-108877000D01*
X141240000Y-109035750D01*
X141236928Y-109250000D01*
X141249188Y-109374482D01*
X141285498Y-109494180D01*
X141344463Y-109604494D01*
X141423815Y-109701185D01*
X141520506Y-109780537D01*
X141630820Y-109839502D01*
X141750518Y-109875812D01*
X141784874Y-109879196D01*
X141728492Y-109896299D01*
X141662304Y-109931678D01*
X141604289Y-109979289D01*
X141556678Y-110037304D01*
X141521299Y-110103492D01*
X141499513Y-110175311D01*
X141499199Y-110178500D01*
X137811976Y-110178500D01*
X139740476Y-108250000D01*
X141236928Y-108250000D01*
X141240000Y-108464250D01*
X141398750Y-108623000D01*
X142373000Y-108623000D01*
X142373000Y-107773750D01*
X142627000Y-107773750D01*
X142627000Y-108623000D01*
X143601250Y-108623000D01*
X143760000Y-108464250D01*
X143763072Y-108250000D01*
X143750812Y-108125518D01*
X143714502Y-108005820D01*
X143655537Y-107895506D01*
X143576185Y-107798815D01*
X143479494Y-107719463D01*
X143369180Y-107660498D01*
X143249482Y-107624188D01*
X143125000Y-107611928D01*
X142785750Y-107615000D01*
X142627000Y-107773750D01*
X142373000Y-107773750D01*
X142214250Y-107615000D01*
X141875000Y-107611928D01*
X141750518Y-107624188D01*
X141630820Y-107660498D01*
X141520506Y-107719463D01*
X141423815Y-107798815D01*
X141344463Y-107895506D01*
X141285498Y-108005820D01*
X141249188Y-108125518D01*
X141236928Y-108250000D01*
X139740476Y-108250000D01*
X142982476Y-105008000D01*
X151873000Y-105008000D01*
X151873000Y-107123000D01*
G37*
G04 #@! TD.AperFunction*
M02*
