G04 #@! TF.GenerationSoftware,KiCad,Pcbnew,(5.1.12)-1*
G04 #@! TF.CreationDate,2021-12-15T00:33:09-05:00*
G04 #@! TF.ProjectId,alps66,616c7073-3636-42e6-9b69-6361645f7063,F*
G04 #@! TF.SameCoordinates,Original*
G04 #@! TF.FileFunction,Legend,Bot*
G04 #@! TF.FilePolarity,Positive*
%FSLAX46Y46*%
G04 Gerber Fmt 4.6, Leading zero omitted, Abs format (unit mm)*
G04 Created by KiCad (PCBNEW (5.1.12)-1) date 2021-12-15 00:33:09*
%MOMM*%
%LPD*%
G01*
G04 APERTURE LIST*
%ADD10C,0.300000*%
%ADD11C,0.200000*%
%ADD12C,0.150000*%
%ADD13C,0.120000*%
%ADD14C,0.010000*%
%ADD15C,2.300000*%
%ADD16R,0.900000X1.200000*%
%ADD17R,1.600000X1.600000*%
%ADD18C,1.600000*%
%ADD19C,0.100000*%
%ADD20C,1.700000*%
%ADD21C,11.500000*%
%ADD22C,4.000000*%
%ADD23C,6.000000*%
%ADD24R,0.500000X1.400000*%
%ADD25O,1.500000X4.000000*%
%ADD26R,1.000000X1.250000*%
%ADD27R,0.700000X1.300000*%
%ADD28R,1.700000X0.900000*%
%ADD29C,0.800000*%
%ADD30R,1.400000X1.200000*%
%ADD31R,1.800000X1.800000*%
%ADD32C,1.800000*%
%ADD33R,1.200000X0.900000*%
%ADD34R,1.250000X1.000000*%
G04 APERTURE END LIST*
D10*
X336964285Y-85120833D02*
X336369047Y-85120833D01*
X337083333Y-85477976D02*
X336666666Y-84227976D01*
X336250000Y-85477976D01*
X335654761Y-85477976D02*
X335773809Y-85418452D01*
X335833333Y-85299404D01*
X335833333Y-84227976D01*
X335178571Y-84644642D02*
X335178571Y-85894642D01*
X335178571Y-84704166D02*
X335059523Y-84644642D01*
X334821428Y-84644642D01*
X334702380Y-84704166D01*
X334642857Y-84763690D01*
X334583333Y-84882738D01*
X334583333Y-85239880D01*
X334642857Y-85358928D01*
X334702380Y-85418452D01*
X334821428Y-85477976D01*
X335059523Y-85477976D01*
X335178571Y-85418452D01*
X334107142Y-85418452D02*
X333988095Y-85477976D01*
X333750000Y-85477976D01*
X333630952Y-85418452D01*
X333571428Y-85299404D01*
X333571428Y-85239880D01*
X333630952Y-85120833D01*
X333750000Y-85061309D01*
X333928571Y-85061309D01*
X334047619Y-85001785D01*
X334107142Y-84882738D01*
X334107142Y-84823214D01*
X334047619Y-84704166D01*
X333928571Y-84644642D01*
X333750000Y-84644642D01*
X333630952Y-84704166D01*
X332500000Y-84227976D02*
X332738095Y-84227976D01*
X332857142Y-84287500D01*
X332916666Y-84347023D01*
X333035714Y-84525595D01*
X333095238Y-84763690D01*
X333095238Y-85239880D01*
X333035714Y-85358928D01*
X332976190Y-85418452D01*
X332857142Y-85477976D01*
X332619047Y-85477976D01*
X332500000Y-85418452D01*
X332440476Y-85358928D01*
X332380952Y-85239880D01*
X332380952Y-84942261D01*
X332440476Y-84823214D01*
X332500000Y-84763690D01*
X332619047Y-84704166D01*
X332857142Y-84704166D01*
X332976190Y-84763690D01*
X333035714Y-84823214D01*
X333095238Y-84942261D01*
X331309523Y-84227976D02*
X331547619Y-84227976D01*
X331666666Y-84287500D01*
X331726190Y-84347023D01*
X331845238Y-84525595D01*
X331904761Y-84763690D01*
X331904761Y-85239880D01*
X331845238Y-85358928D01*
X331785714Y-85418452D01*
X331666666Y-85477976D01*
X331428571Y-85477976D01*
X331309523Y-85418452D01*
X331250000Y-85358928D01*
X331190476Y-85239880D01*
X331190476Y-84942261D01*
X331250000Y-84823214D01*
X331309523Y-84763690D01*
X331428571Y-84704166D01*
X331666666Y-84704166D01*
X331785714Y-84763690D01*
X331845238Y-84823214D01*
X331904761Y-84942261D01*
X328988095Y-85477976D02*
X329404761Y-84882738D01*
X329702380Y-85477976D02*
X329702380Y-84227976D01*
X329226190Y-84227976D01*
X329107142Y-84287500D01*
X329047619Y-84347023D01*
X328988095Y-84466071D01*
X328988095Y-84644642D01*
X329047619Y-84763690D01*
X329107142Y-84823214D01*
X329226190Y-84882738D01*
X329702380Y-84882738D01*
X327976190Y-85418452D02*
X328095238Y-85477976D01*
X328333333Y-85477976D01*
X328452380Y-85418452D01*
X328511904Y-85299404D01*
X328511904Y-84823214D01*
X328452380Y-84704166D01*
X328333333Y-84644642D01*
X328095238Y-84644642D01*
X327976190Y-84704166D01*
X327916666Y-84823214D01*
X327916666Y-84942261D01*
X328511904Y-85061309D01*
X327500000Y-84644642D02*
X327202380Y-85477976D01*
X326904761Y-84644642D01*
X325535714Y-84347023D02*
X325476190Y-84287500D01*
X325357142Y-84227976D01*
X325059523Y-84227976D01*
X324940476Y-84287500D01*
X324880952Y-84347023D01*
X324821428Y-84466071D01*
X324821428Y-84585119D01*
X324880952Y-84763690D01*
X325595238Y-85477976D01*
X324821428Y-85477976D01*
X324285714Y-85358928D02*
X324226190Y-85418452D01*
X324285714Y-85477976D01*
X324345238Y-85418452D01*
X324285714Y-85358928D01*
X324285714Y-85477976D01*
X323452380Y-84227976D02*
X323333333Y-84227976D01*
X323214285Y-84287500D01*
X323154761Y-84347023D01*
X323095238Y-84466071D01*
X323035714Y-84704166D01*
X323035714Y-85001785D01*
X323095238Y-85239880D01*
X323154761Y-85358928D01*
X323214285Y-85418452D01*
X323333333Y-85477976D01*
X323452380Y-85477976D01*
X323571428Y-85418452D01*
X323630952Y-85358928D01*
X323690476Y-85239880D01*
X323750000Y-85001785D01*
X323750000Y-84704166D01*
X323690476Y-84466071D01*
X323630952Y-84347023D01*
X323571428Y-84287500D01*
X323452380Y-84227976D01*
X341071428Y-86998214D02*
X340892857Y-87057738D01*
X340833333Y-87117261D01*
X340773809Y-87236309D01*
X340773809Y-87414880D01*
X340833333Y-87533928D01*
X340892857Y-87593452D01*
X341011904Y-87652976D01*
X341488095Y-87652976D01*
X341488095Y-86402976D01*
X341071428Y-86402976D01*
X340952380Y-86462500D01*
X340892857Y-86522023D01*
X340833333Y-86641071D01*
X340833333Y-86760119D01*
X340892857Y-86879166D01*
X340952380Y-86938690D01*
X341071428Y-86998214D01*
X341488095Y-86998214D01*
X339702380Y-87652976D02*
X339702380Y-86998214D01*
X339761904Y-86879166D01*
X339880952Y-86819642D01*
X340119047Y-86819642D01*
X340238095Y-86879166D01*
X339702380Y-87593452D02*
X339821428Y-87652976D01*
X340119047Y-87652976D01*
X340238095Y-87593452D01*
X340297619Y-87474404D01*
X340297619Y-87355357D01*
X340238095Y-87236309D01*
X340119047Y-87176785D01*
X339821428Y-87176785D01*
X339702380Y-87117261D01*
X339166666Y-87593452D02*
X339047619Y-87652976D01*
X338809523Y-87652976D01*
X338690476Y-87593452D01*
X338630952Y-87474404D01*
X338630952Y-87414880D01*
X338690476Y-87295833D01*
X338809523Y-87236309D01*
X338988095Y-87236309D01*
X339107142Y-87176785D01*
X339166666Y-87057738D01*
X339166666Y-86998214D01*
X339107142Y-86879166D01*
X338988095Y-86819642D01*
X338809523Y-86819642D01*
X338690476Y-86879166D01*
X337619047Y-87593452D02*
X337738095Y-87652976D01*
X337976190Y-87652976D01*
X338095238Y-87593452D01*
X338154761Y-87474404D01*
X338154761Y-86998214D01*
X338095238Y-86879166D01*
X337976190Y-86819642D01*
X337738095Y-86819642D01*
X337619047Y-86879166D01*
X337559523Y-86998214D01*
X337559523Y-87117261D01*
X338154761Y-87236309D01*
X336488095Y-87652976D02*
X336488095Y-86402976D01*
X336488095Y-87593452D02*
X336607142Y-87652976D01*
X336845238Y-87652976D01*
X336964285Y-87593452D01*
X337023809Y-87533928D01*
X337083333Y-87414880D01*
X337083333Y-87057738D01*
X337023809Y-86938690D01*
X336964285Y-86879166D01*
X336845238Y-86819642D01*
X336607142Y-86819642D01*
X336488095Y-86879166D01*
X334761904Y-87652976D02*
X334880952Y-87593452D01*
X334940476Y-87533928D01*
X335000000Y-87414880D01*
X335000000Y-87057738D01*
X334940476Y-86938690D01*
X334880952Y-86879166D01*
X334761904Y-86819642D01*
X334583333Y-86819642D01*
X334464285Y-86879166D01*
X334404761Y-86938690D01*
X334345238Y-87057738D01*
X334345238Y-87414880D01*
X334404761Y-87533928D01*
X334464285Y-87593452D01*
X334583333Y-87652976D01*
X334761904Y-87652976D01*
X333809523Y-86819642D02*
X333809523Y-87652976D01*
X333809523Y-86938690D02*
X333750000Y-86879166D01*
X333630952Y-86819642D01*
X333452380Y-86819642D01*
X333333333Y-86879166D01*
X333273809Y-86998214D01*
X333273809Y-87652976D01*
X331190476Y-87652976D02*
X331190476Y-86998214D01*
X331250000Y-86879166D01*
X331369047Y-86819642D01*
X331607142Y-86819642D01*
X331726190Y-86879166D01*
X331190476Y-87593452D02*
X331309523Y-87652976D01*
X331607142Y-87652976D01*
X331726190Y-87593452D01*
X331785714Y-87474404D01*
X331785714Y-87355357D01*
X331726190Y-87236309D01*
X331607142Y-87176785D01*
X331309523Y-87176785D01*
X331190476Y-87117261D01*
X329642857Y-87652976D02*
X329642857Y-86402976D01*
X329642857Y-86998214D02*
X328928571Y-86998214D01*
X328928571Y-87652976D02*
X328928571Y-86402976D01*
X327797619Y-87652976D02*
X327797619Y-86998214D01*
X327857142Y-86879166D01*
X327976190Y-86819642D01*
X328214285Y-86819642D01*
X328333333Y-86879166D01*
X327797619Y-87593452D02*
X327916666Y-87652976D01*
X328214285Y-87652976D01*
X328333333Y-87593452D01*
X328392857Y-87474404D01*
X328392857Y-87355357D01*
X328333333Y-87236309D01*
X328214285Y-87176785D01*
X327916666Y-87176785D01*
X327797619Y-87117261D01*
X327261904Y-87593452D02*
X327142857Y-87652976D01*
X326904761Y-87652976D01*
X326785714Y-87593452D01*
X326726190Y-87474404D01*
X326726190Y-87414880D01*
X326785714Y-87295833D01*
X326904761Y-87236309D01*
X327083333Y-87236309D01*
X327202380Y-87176785D01*
X327261904Y-87057738D01*
X327261904Y-86998214D01*
X327202380Y-86879166D01*
X327083333Y-86819642D01*
X326904761Y-86819642D01*
X326785714Y-86879166D01*
X325654761Y-86819642D02*
X325654761Y-87652976D01*
X326190476Y-86819642D02*
X326190476Y-87474404D01*
X326130952Y-87593452D01*
X326011904Y-87652976D01*
X325833333Y-87652976D01*
X325714285Y-87593452D01*
X325654761Y-87533928D01*
X324107142Y-87652976D02*
X324107142Y-86402976D01*
X323809523Y-86402976D01*
X323630952Y-86462500D01*
X323511904Y-86581547D01*
X323452380Y-86700595D01*
X323392857Y-86938690D01*
X323392857Y-87117261D01*
X323452380Y-87355357D01*
X323511904Y-87474404D01*
X323630952Y-87593452D01*
X323809523Y-87652976D01*
X324107142Y-87652976D01*
X322380952Y-87593452D02*
X322500000Y-87652976D01*
X322738095Y-87652976D01*
X322857142Y-87593452D01*
X322916666Y-87474404D01*
X322916666Y-86998214D01*
X322857142Y-86879166D01*
X322738095Y-86819642D01*
X322500000Y-86819642D01*
X322380952Y-86879166D01*
X322321428Y-86998214D01*
X322321428Y-87117261D01*
X322916666Y-87236309D01*
X321845238Y-87593452D02*
X321726190Y-87652976D01*
X321488095Y-87652976D01*
X321369047Y-87593452D01*
X321309523Y-87474404D01*
X321309523Y-87414880D01*
X321369047Y-87295833D01*
X321488095Y-87236309D01*
X321666666Y-87236309D01*
X321785714Y-87176785D01*
X321845238Y-87057738D01*
X321845238Y-86998214D01*
X321785714Y-86879166D01*
X321666666Y-86819642D01*
X321488095Y-86819642D01*
X321369047Y-86879166D01*
X320773809Y-87652976D02*
X320773809Y-86819642D01*
X320773809Y-86402976D02*
X320833333Y-86462500D01*
X320773809Y-86522023D01*
X320714285Y-86462500D01*
X320773809Y-86402976D01*
X320773809Y-86522023D01*
X319642857Y-86819642D02*
X319642857Y-87831547D01*
X319702380Y-87950595D01*
X319761904Y-88010119D01*
X319880952Y-88069642D01*
X320059523Y-88069642D01*
X320178571Y-88010119D01*
X319642857Y-87593452D02*
X319761904Y-87652976D01*
X320000000Y-87652976D01*
X320119047Y-87593452D01*
X320178571Y-87533928D01*
X320238095Y-87414880D01*
X320238095Y-87057738D01*
X320178571Y-86938690D01*
X320119047Y-86879166D01*
X320000000Y-86819642D01*
X319761904Y-86819642D01*
X319642857Y-86879166D01*
X319047619Y-86819642D02*
X319047619Y-87652976D01*
X319047619Y-86938690D02*
X318988095Y-86879166D01*
X318869047Y-86819642D01*
X318690476Y-86819642D01*
X318571428Y-86879166D01*
X318511904Y-86998214D01*
X318511904Y-87652976D01*
D11*
X80000000Y-107450000D02*
X81800000Y-107450000D01*
X81800000Y-105050000D02*
X80000000Y-105050000D01*
X76375000Y-105050000D02*
X76375000Y-107450000D01*
X76450000Y-105050000D02*
X76450000Y-107450000D01*
X76200000Y-105050000D02*
X76200000Y-107450000D01*
X76200000Y-105050000D02*
X78000000Y-105050000D01*
X81800000Y-105050000D02*
X81800000Y-107450000D01*
X78000000Y-107450000D02*
X76200000Y-107450000D01*
D12*
X136854925Y-113846599D02*
X137721131Y-114712805D01*
X131887500Y-108560976D02*
X132099632Y-108773108D01*
X126760976Y-113687500D02*
X126973108Y-113899632D01*
X131887500Y-118814024D02*
X131675368Y-118601892D01*
X137014024Y-113687500D02*
X136801892Y-113475368D01*
X131887500Y-118814024D02*
X132099632Y-118601892D01*
X126760976Y-113687500D02*
X126973108Y-113475368D01*
X131887500Y-108560976D02*
X131675368Y-108773108D01*
X137014024Y-113687500D02*
X136854925Y-113846599D01*
D11*
X323100000Y-33937500D02*
X323100000Y-27437500D01*
X315400000Y-33937500D02*
X315400000Y-27437500D01*
X315400000Y-33937500D02*
X323100000Y-33937500D01*
D13*
X136500000Y-102650000D02*
X137500000Y-102650000D01*
X137500000Y-104350000D02*
X136500000Y-104350000D01*
X148500000Y-117650000D02*
X149500000Y-117650000D01*
X149500000Y-119350000D02*
X148500000Y-119350000D01*
X147500000Y-109150000D02*
X148500000Y-109150000D01*
X148500000Y-110850000D02*
X147500000Y-110850000D01*
X141250000Y-118400000D02*
X142250000Y-118400000D01*
X142250000Y-120100000D02*
X141250000Y-120100000D01*
X143000000Y-112150000D02*
X144000000Y-112150000D01*
X144000000Y-113850000D02*
X143000000Y-113850000D01*
X171350000Y-101870000D02*
X170150000Y-101870000D01*
X170150000Y-103630000D02*
X171350000Y-103630000D01*
X171350000Y-104620000D02*
X170150000Y-104620000D01*
X170150000Y-106380000D02*
X171350000Y-106380000D01*
X113850000Y-115120000D02*
X112650000Y-115120000D01*
X112650000Y-116880000D02*
X113850000Y-116880000D01*
X58400000Y-80380000D02*
X59600000Y-80380000D01*
X59600000Y-78620000D02*
X58400000Y-78620000D01*
X332600000Y-76650000D02*
X332900000Y-76650000D01*
X332600000Y-73350000D02*
X332600000Y-76650000D01*
X332900000Y-73350000D02*
X332600000Y-73350000D01*
X335400000Y-76650000D02*
X335100000Y-76650000D01*
X335400000Y-73350000D02*
X335400000Y-76650000D01*
X335100000Y-73350000D02*
X335400000Y-73350000D01*
D14*
G36*
X332659352Y-79039657D02*
G01*
X332382834Y-79043502D01*
X332110477Y-79049380D01*
X331854720Y-79057116D01*
X331628005Y-79066535D01*
X331442774Y-79077461D01*
X331311468Y-79089720D01*
X331306314Y-79090395D01*
X331151621Y-79114475D01*
X331053380Y-79141427D01*
X330997627Y-79178535D01*
X330970398Y-79233083D01*
X330963078Y-79269420D01*
X330957642Y-79317959D01*
X330962546Y-79356291D01*
X330984896Y-79385400D01*
X331031800Y-79406270D01*
X331110363Y-79419888D01*
X331227694Y-79427236D01*
X331390899Y-79429301D01*
X331607084Y-79427066D01*
X331883358Y-79421516D01*
X332035785Y-79418047D01*
X332346753Y-79411614D01*
X332593220Y-79408310D01*
X332781180Y-79408247D01*
X332916622Y-79411536D01*
X333005539Y-79418291D01*
X333053922Y-79428621D01*
X333066450Y-79437270D01*
X333073475Y-79483570D01*
X333078553Y-79588702D01*
X333081764Y-79740968D01*
X333083187Y-79928675D01*
X333082902Y-80140126D01*
X333080991Y-80363625D01*
X333077532Y-80587478D01*
X333072605Y-80799989D01*
X333066292Y-80989462D01*
X333058672Y-81144202D01*
X333054343Y-81205555D01*
X333046260Y-81322948D01*
X333036615Y-81491732D01*
X333026407Y-81692791D01*
X333016638Y-81907006D01*
X333012785Y-81999305D01*
X333003116Y-82197599D01*
X332991356Y-82375897D01*
X332978671Y-82520065D01*
X332966227Y-82615968D01*
X332959636Y-82643757D01*
X332951239Y-82722311D01*
X332999244Y-82793688D01*
X333104481Y-82853920D01*
X333231268Y-82848105D01*
X333318167Y-82811699D01*
X333401863Y-82741383D01*
X333450961Y-82669237D01*
X333464934Y-82604453D01*
X333479374Y-82472312D01*
X333494127Y-82276009D01*
X333509039Y-82018740D01*
X333523955Y-81703700D01*
X333538721Y-81334085D01*
X333553183Y-80913091D01*
X333567186Y-80443912D01*
X333577699Y-80046233D01*
X333584284Y-79850654D01*
X333593218Y-79679800D01*
X333603594Y-79546147D01*
X333614509Y-79462166D01*
X333621711Y-79439859D01*
X333666381Y-79432379D01*
X333766263Y-79433491D01*
X333906615Y-79442565D01*
X334072698Y-79458973D01*
X334074583Y-79459189D01*
X334536968Y-79510866D01*
X334934360Y-79552402D01*
X335271552Y-79584067D01*
X335553333Y-79606135D01*
X335784495Y-79618876D01*
X335969828Y-79622562D01*
X336114123Y-79617466D01*
X336222172Y-79603859D01*
X336291295Y-79584978D01*
X336351565Y-79536808D01*
X336392604Y-79460868D01*
X336405101Y-79383842D01*
X336379743Y-79332413D01*
X336379482Y-79332251D01*
X336332530Y-79322097D01*
X336230101Y-79310183D01*
X336087198Y-79297979D01*
X335918825Y-79286955D01*
X335915275Y-79286755D01*
X335720873Y-79274165D01*
X335526604Y-79258703D01*
X335357521Y-79242513D01*
X335256389Y-79230361D01*
X335139264Y-79215441D01*
X334970899Y-79196068D01*
X334770309Y-79174335D01*
X334556506Y-79152331D01*
X334462639Y-79143053D01*
X334249062Y-79121684D01*
X334040286Y-79099810D01*
X333855323Y-79079490D01*
X333713182Y-79062784D01*
X333668889Y-79057080D01*
X333558193Y-79048124D01*
X333389449Y-79042080D01*
X333175101Y-79038771D01*
X332927588Y-79038022D01*
X332659352Y-79039657D01*
G37*
X332659352Y-79039657D02*
X332382834Y-79043502D01*
X332110477Y-79049380D01*
X331854720Y-79057116D01*
X331628005Y-79066535D01*
X331442774Y-79077461D01*
X331311468Y-79089720D01*
X331306314Y-79090395D01*
X331151621Y-79114475D01*
X331053380Y-79141427D01*
X330997627Y-79178535D01*
X330970398Y-79233083D01*
X330963078Y-79269420D01*
X330957642Y-79317959D01*
X330962546Y-79356291D01*
X330984896Y-79385400D01*
X331031800Y-79406270D01*
X331110363Y-79419888D01*
X331227694Y-79427236D01*
X331390899Y-79429301D01*
X331607084Y-79427066D01*
X331883358Y-79421516D01*
X332035785Y-79418047D01*
X332346753Y-79411614D01*
X332593220Y-79408310D01*
X332781180Y-79408247D01*
X332916622Y-79411536D01*
X333005539Y-79418291D01*
X333053922Y-79428621D01*
X333066450Y-79437270D01*
X333073475Y-79483570D01*
X333078553Y-79588702D01*
X333081764Y-79740968D01*
X333083187Y-79928675D01*
X333082902Y-80140126D01*
X333080991Y-80363625D01*
X333077532Y-80587478D01*
X333072605Y-80799989D01*
X333066292Y-80989462D01*
X333058672Y-81144202D01*
X333054343Y-81205555D01*
X333046260Y-81322948D01*
X333036615Y-81491732D01*
X333026407Y-81692791D01*
X333016638Y-81907006D01*
X333012785Y-81999305D01*
X333003116Y-82197599D01*
X332991356Y-82375897D01*
X332978671Y-82520065D01*
X332966227Y-82615968D01*
X332959636Y-82643757D01*
X332951239Y-82722311D01*
X332999244Y-82793688D01*
X333104481Y-82853920D01*
X333231268Y-82848105D01*
X333318167Y-82811699D01*
X333401863Y-82741383D01*
X333450961Y-82669237D01*
X333464934Y-82604453D01*
X333479374Y-82472312D01*
X333494127Y-82276009D01*
X333509039Y-82018740D01*
X333523955Y-81703700D01*
X333538721Y-81334085D01*
X333553183Y-80913091D01*
X333567186Y-80443912D01*
X333577699Y-80046233D01*
X333584284Y-79850654D01*
X333593218Y-79679800D01*
X333603594Y-79546147D01*
X333614509Y-79462166D01*
X333621711Y-79439859D01*
X333666381Y-79432379D01*
X333766263Y-79433491D01*
X333906615Y-79442565D01*
X334072698Y-79458973D01*
X334074583Y-79459189D01*
X334536968Y-79510866D01*
X334934360Y-79552402D01*
X335271552Y-79584067D01*
X335553333Y-79606135D01*
X335784495Y-79618876D01*
X335969828Y-79622562D01*
X336114123Y-79617466D01*
X336222172Y-79603859D01*
X336291295Y-79584978D01*
X336351565Y-79536808D01*
X336392604Y-79460868D01*
X336405101Y-79383842D01*
X336379743Y-79332413D01*
X336379482Y-79332251D01*
X336332530Y-79322097D01*
X336230101Y-79310183D01*
X336087198Y-79297979D01*
X335918825Y-79286955D01*
X335915275Y-79286755D01*
X335720873Y-79274165D01*
X335526604Y-79258703D01*
X335357521Y-79242513D01*
X335256389Y-79230361D01*
X335139264Y-79215441D01*
X334970899Y-79196068D01*
X334770309Y-79174335D01*
X334556506Y-79152331D01*
X334462639Y-79143053D01*
X334249062Y-79121684D01*
X334040286Y-79099810D01*
X333855323Y-79079490D01*
X333713182Y-79062784D01*
X333668889Y-79057080D01*
X333558193Y-79048124D01*
X333389449Y-79042080D01*
X333175101Y-79038771D01*
X332927588Y-79038022D01*
X332659352Y-79039657D01*
G36*
X328150260Y-78851440D02*
G01*
X328082487Y-78860658D01*
X327966779Y-78886676D01*
X327894155Y-78931194D01*
X327846036Y-78994858D01*
X327794176Y-79111927D01*
X327742530Y-79286518D01*
X327693781Y-79505637D01*
X327650617Y-79756294D01*
X327615721Y-80025498D01*
X327600540Y-80182500D01*
X327583332Y-80375566D01*
X327564774Y-80565315D01*
X327547226Y-80728563D01*
X327534357Y-80832870D01*
X327521419Y-80957752D01*
X327518270Y-81062108D01*
X327522991Y-81109884D01*
X327522676Y-81175785D01*
X327506644Y-81200347D01*
X327483685Y-81243147D01*
X327450566Y-81338777D01*
X327411289Y-81471400D01*
X327369858Y-81625181D01*
X327330273Y-81784285D01*
X327296540Y-81932876D01*
X327272659Y-82055119D01*
X327262635Y-82135178D01*
X327264972Y-82156437D01*
X327324658Y-82189544D01*
X327429158Y-82182200D01*
X327541962Y-82145294D01*
X327640109Y-82068080D01*
X327731806Y-81921965D01*
X327816643Y-81708345D01*
X327894206Y-81428614D01*
X327964083Y-81084169D01*
X328025861Y-80676406D01*
X328059834Y-80393146D01*
X328082307Y-80186124D01*
X328101862Y-80002407D01*
X328117268Y-79853873D01*
X328127291Y-79752400D01*
X328130703Y-79710513D01*
X328144741Y-79711098D01*
X328180882Y-79761190D01*
X328231099Y-79846499D01*
X328287364Y-79952735D01*
X328341651Y-80065606D01*
X328378485Y-80151640D01*
X328500248Y-80444928D01*
X328609775Y-80677406D01*
X328712055Y-80856686D01*
X328812079Y-80990379D01*
X328914836Y-81086094D01*
X329025317Y-81151444D01*
X329037548Y-81156845D01*
X329230788Y-81203110D01*
X329433859Y-81185432D01*
X329638989Y-81108193D01*
X329838408Y-80975777D01*
X330024344Y-80792564D01*
X330189026Y-80562938D01*
X330235429Y-80481371D01*
X330345202Y-80276796D01*
X330370843Y-80652981D01*
X330380002Y-80886193D01*
X330379347Y-81148595D01*
X330369814Y-81417246D01*
X330352343Y-81669204D01*
X330327872Y-81881527D01*
X330318195Y-81940221D01*
X330270623Y-82079404D01*
X330194361Y-82192985D01*
X330133587Y-82264515D01*
X330116825Y-82323859D01*
X330135704Y-82406098D01*
X330140211Y-82419909D01*
X330206331Y-82544730D01*
X330301068Y-82605063D01*
X330424509Y-82600949D01*
X330477558Y-82583068D01*
X330575833Y-82508959D01*
X330665798Y-82376457D01*
X330742839Y-82197631D01*
X330802342Y-81984545D01*
X330839693Y-81749267D01*
X330849257Y-81611106D01*
X330858163Y-81241316D01*
X330858439Y-80881013D01*
X330850701Y-80537093D01*
X330835564Y-80216451D01*
X330813644Y-79925984D01*
X330785556Y-79672586D01*
X330751916Y-79463153D01*
X330713339Y-79304580D01*
X330670441Y-79203764D01*
X330631240Y-79168683D01*
X330576323Y-79125103D01*
X330549121Y-79067916D01*
X330501052Y-79001999D01*
X330398314Y-78974648D01*
X330238878Y-78985528D01*
X330151476Y-79002072D01*
X330120806Y-79009274D01*
X330097986Y-79022528D01*
X330080202Y-79052355D01*
X330064643Y-79109278D01*
X330048498Y-79203816D01*
X330028954Y-79346491D01*
X330003200Y-79547825D01*
X330000996Y-79565139D01*
X329942376Y-79902158D01*
X329859070Y-80197099D01*
X329753974Y-80443423D01*
X329629982Y-80634593D01*
X329489988Y-80764073D01*
X329462836Y-80780591D01*
X329391108Y-80812954D01*
X329335567Y-80804090D01*
X329275892Y-80763859D01*
X329224058Y-80716621D01*
X329170931Y-80648910D01*
X329111612Y-80551890D01*
X329041200Y-80416725D01*
X328954795Y-80234581D01*
X328847497Y-79996623D01*
X328836057Y-79970833D01*
X328753519Y-79784537D01*
X328668481Y-79592553D01*
X328591959Y-79419757D01*
X328543215Y-79309651D01*
X328476218Y-79170039D01*
X328405622Y-79041511D01*
X328345803Y-78950080D01*
X328341501Y-78944637D01*
X328282841Y-78879373D01*
X328228617Y-78851395D01*
X328150260Y-78851440D01*
G37*
X328150260Y-78851440D02*
X328082487Y-78860658D01*
X327966779Y-78886676D01*
X327894155Y-78931194D01*
X327846036Y-78994858D01*
X327794176Y-79111927D01*
X327742530Y-79286518D01*
X327693781Y-79505637D01*
X327650617Y-79756294D01*
X327615721Y-80025498D01*
X327600540Y-80182500D01*
X327583332Y-80375566D01*
X327564774Y-80565315D01*
X327547226Y-80728563D01*
X327534357Y-80832870D01*
X327521419Y-80957752D01*
X327518270Y-81062108D01*
X327522991Y-81109884D01*
X327522676Y-81175785D01*
X327506644Y-81200347D01*
X327483685Y-81243147D01*
X327450566Y-81338777D01*
X327411289Y-81471400D01*
X327369858Y-81625181D01*
X327330273Y-81784285D01*
X327296540Y-81932876D01*
X327272659Y-82055119D01*
X327262635Y-82135178D01*
X327264972Y-82156437D01*
X327324658Y-82189544D01*
X327429158Y-82182200D01*
X327541962Y-82145294D01*
X327640109Y-82068080D01*
X327731806Y-81921965D01*
X327816643Y-81708345D01*
X327894206Y-81428614D01*
X327964083Y-81084169D01*
X328025861Y-80676406D01*
X328059834Y-80393146D01*
X328082307Y-80186124D01*
X328101862Y-80002407D01*
X328117268Y-79853873D01*
X328127291Y-79752400D01*
X328130703Y-79710513D01*
X328144741Y-79711098D01*
X328180882Y-79761190D01*
X328231099Y-79846499D01*
X328287364Y-79952735D01*
X328341651Y-80065606D01*
X328378485Y-80151640D01*
X328500248Y-80444928D01*
X328609775Y-80677406D01*
X328712055Y-80856686D01*
X328812079Y-80990379D01*
X328914836Y-81086094D01*
X329025317Y-81151444D01*
X329037548Y-81156845D01*
X329230788Y-81203110D01*
X329433859Y-81185432D01*
X329638989Y-81108193D01*
X329838408Y-80975777D01*
X330024344Y-80792564D01*
X330189026Y-80562938D01*
X330235429Y-80481371D01*
X330345202Y-80276796D01*
X330370843Y-80652981D01*
X330380002Y-80886193D01*
X330379347Y-81148595D01*
X330369814Y-81417246D01*
X330352343Y-81669204D01*
X330327872Y-81881527D01*
X330318195Y-81940221D01*
X330270623Y-82079404D01*
X330194361Y-82192985D01*
X330133587Y-82264515D01*
X330116825Y-82323859D01*
X330135704Y-82406098D01*
X330140211Y-82419909D01*
X330206331Y-82544730D01*
X330301068Y-82605063D01*
X330424509Y-82600949D01*
X330477558Y-82583068D01*
X330575833Y-82508959D01*
X330665798Y-82376457D01*
X330742839Y-82197631D01*
X330802342Y-81984545D01*
X330839693Y-81749267D01*
X330849257Y-81611106D01*
X330858163Y-81241316D01*
X330858439Y-80881013D01*
X330850701Y-80537093D01*
X330835564Y-80216451D01*
X330813644Y-79925984D01*
X330785556Y-79672586D01*
X330751916Y-79463153D01*
X330713339Y-79304580D01*
X330670441Y-79203764D01*
X330631240Y-79168683D01*
X330576323Y-79125103D01*
X330549121Y-79067916D01*
X330501052Y-79001999D01*
X330398314Y-78974648D01*
X330238878Y-78985528D01*
X330151476Y-79002072D01*
X330120806Y-79009274D01*
X330097986Y-79022528D01*
X330080202Y-79052355D01*
X330064643Y-79109278D01*
X330048498Y-79203816D01*
X330028954Y-79346491D01*
X330003200Y-79547825D01*
X330000996Y-79565139D01*
X329942376Y-79902158D01*
X329859070Y-80197099D01*
X329753974Y-80443423D01*
X329629982Y-80634593D01*
X329489988Y-80764073D01*
X329462836Y-80780591D01*
X329391108Y-80812954D01*
X329335567Y-80804090D01*
X329275892Y-80763859D01*
X329224058Y-80716621D01*
X329170931Y-80648910D01*
X329111612Y-80551890D01*
X329041200Y-80416725D01*
X328954795Y-80234581D01*
X328847497Y-79996623D01*
X328836057Y-79970833D01*
X328753519Y-79784537D01*
X328668481Y-79592553D01*
X328591959Y-79419757D01*
X328543215Y-79309651D01*
X328476218Y-79170039D01*
X328405622Y-79041511D01*
X328345803Y-78950080D01*
X328341501Y-78944637D01*
X328282841Y-78879373D01*
X328228617Y-78851395D01*
X328150260Y-78851440D01*
G36*
X326502927Y-78189396D02*
G01*
X326370804Y-78238004D01*
X326339795Y-78258896D01*
X326318889Y-78308130D01*
X326296283Y-78417980D01*
X326273131Y-78578565D01*
X326250586Y-78780003D01*
X326229804Y-79012412D01*
X326211937Y-79265911D01*
X326202621Y-79433538D01*
X326194129Y-79629134D01*
X326184929Y-79762509D01*
X326165276Y-79841415D01*
X326125423Y-79873605D01*
X326055625Y-79866831D01*
X325946136Y-79828846D01*
X325787210Y-79767404D01*
X325784306Y-79766307D01*
X325663119Y-79720915D01*
X325569750Y-79686527D01*
X325521913Y-79669654D01*
X325519722Y-79669027D01*
X325458213Y-79646957D01*
X325336919Y-79596091D01*
X325176531Y-79525556D01*
X325054882Y-79474694D01*
X324943767Y-79433799D01*
X324894309Y-79418828D01*
X324804795Y-79404011D01*
X324688660Y-79394565D01*
X324565820Y-79390717D01*
X324456188Y-79392693D01*
X324379678Y-79400719D01*
X324355556Y-79412711D01*
X324329842Y-79427942D01*
X324311458Y-79423914D01*
X324250616Y-79430762D01*
X324204842Y-79455941D01*
X324164156Y-79519796D01*
X324177333Y-79592629D01*
X324231519Y-79660449D01*
X324313865Y-79709266D01*
X324411520Y-79725090D01*
X324447501Y-79720117D01*
X324507322Y-79719422D01*
X324600562Y-79730381D01*
X324703592Y-79748581D01*
X324792788Y-79769612D01*
X324844522Y-79789062D01*
X324849445Y-79795165D01*
X324879472Y-79822165D01*
X324945917Y-79846286D01*
X325014405Y-79870711D01*
X325130096Y-79919460D01*
X325276975Y-79985526D01*
X325439029Y-80061901D01*
X325443105Y-80063867D01*
X325608749Y-80144702D01*
X325720221Y-80202927D01*
X325787257Y-80245827D01*
X325819593Y-80280687D01*
X325826967Y-80314794D01*
X325821323Y-80346878D01*
X325769841Y-80465230D01*
X325685009Y-80586046D01*
X325597221Y-80669412D01*
X325530530Y-80715915D01*
X325439066Y-80780397D01*
X325413889Y-80798247D01*
X325310958Y-80867634D01*
X325183266Y-80948854D01*
X325110155Y-80993391D01*
X325000061Y-81064369D01*
X324907602Y-81133231D01*
X324867368Y-81169963D01*
X324797413Y-81227463D01*
X324694990Y-81290804D01*
X324651578Y-81313247D01*
X324537227Y-81381964D01*
X324436147Y-81464328D01*
X324411573Y-81490526D01*
X324346247Y-81557419D01*
X324294621Y-81592212D01*
X324287278Y-81593611D01*
X324251059Y-81612897D01*
X324249621Y-81620069D01*
X324223022Y-81655206D01*
X324157724Y-81707429D01*
X324143582Y-81717083D01*
X324037917Y-81818512D01*
X323995421Y-81935914D01*
X323997031Y-81983383D01*
X323978475Y-82042850D01*
X323922839Y-82114817D01*
X323915598Y-82121825D01*
X323842422Y-82208821D01*
X323834998Y-82270848D01*
X323893277Y-82308396D01*
X323896976Y-82309396D01*
X323978107Y-82295959D01*
X324033403Y-82244151D01*
X324085780Y-82192070D01*
X324121028Y-82182272D01*
X324121567Y-82182770D01*
X324141793Y-82176113D01*
X324145004Y-82155115D01*
X324175438Y-82080853D01*
X324253052Y-81992441D01*
X324361442Y-81906315D01*
X324439803Y-81859768D01*
X324544240Y-81792885D01*
X324631583Y-81715731D01*
X324644112Y-81701018D01*
X324695162Y-81644808D01*
X324725247Y-81627750D01*
X324726434Y-81628889D01*
X324760811Y-81623376D01*
X324834131Y-81587723D01*
X324927951Y-81532838D01*
X325023828Y-81469631D01*
X325103321Y-81409012D01*
X325114062Y-81399583D01*
X325192188Y-81341425D01*
X325301347Y-81274348D01*
X325356579Y-81244402D01*
X325465627Y-81184086D01*
X325557248Y-81126260D01*
X325587963Y-81103291D01*
X325696988Y-81011980D01*
X325764834Y-80957598D01*
X325803735Y-80930976D01*
X325825925Y-80922944D01*
X325828806Y-80922769D01*
X325868832Y-80900998D01*
X325939461Y-80846721D01*
X325974295Y-80816936D01*
X326052667Y-80753352D01*
X326110881Y-80715897D01*
X326124225Y-80711666D01*
X326149732Y-80743393D01*
X326157108Y-80830544D01*
X326148863Y-80961072D01*
X326127505Y-81122932D01*
X326095543Y-81304077D01*
X326055484Y-81492462D01*
X326009838Y-81676040D01*
X325961112Y-81842765D01*
X325911815Y-81980592D01*
X325864455Y-82077474D01*
X325831801Y-82115958D01*
X325779472Y-82186390D01*
X325766667Y-82244246D01*
X325782105Y-82305649D01*
X325841257Y-82336015D01*
X325878321Y-82342823D01*
X325970027Y-82341229D01*
X326051984Y-82296890D01*
X326095220Y-82258633D01*
X326166663Y-82195696D01*
X326217296Y-82160647D01*
X326225692Y-82158055D01*
X326255138Y-82127340D01*
X326299196Y-82046514D01*
X326350633Y-81932552D01*
X326402215Y-81802433D01*
X326446710Y-81673132D01*
X326473690Y-81575972D01*
X326504717Y-81443599D01*
X326534873Y-81316839D01*
X326544713Y-81276111D01*
X326579490Y-81098899D01*
X326608201Y-80875325D01*
X326631303Y-80599674D01*
X326649254Y-80266228D01*
X326662511Y-79869272D01*
X326664753Y-79776805D01*
X326676609Y-79402126D01*
X326694444Y-79084007D01*
X326719601Y-78808603D01*
X326753421Y-78562072D01*
X326797246Y-78330570D01*
X326811007Y-78268680D01*
X326820646Y-78209946D01*
X326803223Y-78181532D01*
X326742519Y-78172435D01*
X326668044Y-78171666D01*
X326502927Y-78189396D01*
G37*
X326502927Y-78189396D02*
X326370804Y-78238004D01*
X326339795Y-78258896D01*
X326318889Y-78308130D01*
X326296283Y-78417980D01*
X326273131Y-78578565D01*
X326250586Y-78780003D01*
X326229804Y-79012412D01*
X326211937Y-79265911D01*
X326202621Y-79433538D01*
X326194129Y-79629134D01*
X326184929Y-79762509D01*
X326165276Y-79841415D01*
X326125423Y-79873605D01*
X326055625Y-79866831D01*
X325946136Y-79828846D01*
X325787210Y-79767404D01*
X325784306Y-79766307D01*
X325663119Y-79720915D01*
X325569750Y-79686527D01*
X325521913Y-79669654D01*
X325519722Y-79669027D01*
X325458213Y-79646957D01*
X325336919Y-79596091D01*
X325176531Y-79525556D01*
X325054882Y-79474694D01*
X324943767Y-79433799D01*
X324894309Y-79418828D01*
X324804795Y-79404011D01*
X324688660Y-79394565D01*
X324565820Y-79390717D01*
X324456188Y-79392693D01*
X324379678Y-79400719D01*
X324355556Y-79412711D01*
X324329842Y-79427942D01*
X324311458Y-79423914D01*
X324250616Y-79430762D01*
X324204842Y-79455941D01*
X324164156Y-79519796D01*
X324177333Y-79592629D01*
X324231519Y-79660449D01*
X324313865Y-79709266D01*
X324411520Y-79725090D01*
X324447501Y-79720117D01*
X324507322Y-79719422D01*
X324600562Y-79730381D01*
X324703592Y-79748581D01*
X324792788Y-79769612D01*
X324844522Y-79789062D01*
X324849445Y-79795165D01*
X324879472Y-79822165D01*
X324945917Y-79846286D01*
X325014405Y-79870711D01*
X325130096Y-79919460D01*
X325276975Y-79985526D01*
X325439029Y-80061901D01*
X325443105Y-80063867D01*
X325608749Y-80144702D01*
X325720221Y-80202927D01*
X325787257Y-80245827D01*
X325819593Y-80280687D01*
X325826967Y-80314794D01*
X325821323Y-80346878D01*
X325769841Y-80465230D01*
X325685009Y-80586046D01*
X325597221Y-80669412D01*
X325530530Y-80715915D01*
X325439066Y-80780397D01*
X325413889Y-80798247D01*
X325310958Y-80867634D01*
X325183266Y-80948854D01*
X325110155Y-80993391D01*
X325000061Y-81064369D01*
X324907602Y-81133231D01*
X324867368Y-81169963D01*
X324797413Y-81227463D01*
X324694990Y-81290804D01*
X324651578Y-81313247D01*
X324537227Y-81381964D01*
X324436147Y-81464328D01*
X324411573Y-81490526D01*
X324346247Y-81557419D01*
X324294621Y-81592212D01*
X324287278Y-81593611D01*
X324251059Y-81612897D01*
X324249621Y-81620069D01*
X324223022Y-81655206D01*
X324157724Y-81707429D01*
X324143582Y-81717083D01*
X324037917Y-81818512D01*
X323995421Y-81935914D01*
X323997031Y-81983383D01*
X323978475Y-82042850D01*
X323922839Y-82114817D01*
X323915598Y-82121825D01*
X323842422Y-82208821D01*
X323834998Y-82270848D01*
X323893277Y-82308396D01*
X323896976Y-82309396D01*
X323978107Y-82295959D01*
X324033403Y-82244151D01*
X324085780Y-82192070D01*
X324121028Y-82182272D01*
X324121567Y-82182770D01*
X324141793Y-82176113D01*
X324145004Y-82155115D01*
X324175438Y-82080853D01*
X324253052Y-81992441D01*
X324361442Y-81906315D01*
X324439803Y-81859768D01*
X324544240Y-81792885D01*
X324631583Y-81715731D01*
X324644112Y-81701018D01*
X324695162Y-81644808D01*
X324725247Y-81627750D01*
X324726434Y-81628889D01*
X324760811Y-81623376D01*
X324834131Y-81587723D01*
X324927951Y-81532838D01*
X325023828Y-81469631D01*
X325103321Y-81409012D01*
X325114062Y-81399583D01*
X325192188Y-81341425D01*
X325301347Y-81274348D01*
X325356579Y-81244402D01*
X325465627Y-81184086D01*
X325557248Y-81126260D01*
X325587963Y-81103291D01*
X325696988Y-81011980D01*
X325764834Y-80957598D01*
X325803735Y-80930976D01*
X325825925Y-80922944D01*
X325828806Y-80922769D01*
X325868832Y-80900998D01*
X325939461Y-80846721D01*
X325974295Y-80816936D01*
X326052667Y-80753352D01*
X326110881Y-80715897D01*
X326124225Y-80711666D01*
X326149732Y-80743393D01*
X326157108Y-80830544D01*
X326148863Y-80961072D01*
X326127505Y-81122932D01*
X326095543Y-81304077D01*
X326055484Y-81492462D01*
X326009838Y-81676040D01*
X325961112Y-81842765D01*
X325911815Y-81980592D01*
X325864455Y-82077474D01*
X325831801Y-82115958D01*
X325779472Y-82186390D01*
X325766667Y-82244246D01*
X325782105Y-82305649D01*
X325841257Y-82336015D01*
X325878321Y-82342823D01*
X325970027Y-82341229D01*
X326051984Y-82296890D01*
X326095220Y-82258633D01*
X326166663Y-82195696D01*
X326217296Y-82160647D01*
X326225692Y-82158055D01*
X326255138Y-82127340D01*
X326299196Y-82046514D01*
X326350633Y-81932552D01*
X326402215Y-81802433D01*
X326446710Y-81673132D01*
X326473690Y-81575972D01*
X326504717Y-81443599D01*
X326534873Y-81316839D01*
X326544713Y-81276111D01*
X326579490Y-81098899D01*
X326608201Y-80875325D01*
X326631303Y-80599674D01*
X326649254Y-80266228D01*
X326662511Y-79869272D01*
X326664753Y-79776805D01*
X326676609Y-79402126D01*
X326694444Y-79084007D01*
X326719601Y-78808603D01*
X326753421Y-78562072D01*
X326797246Y-78330570D01*
X326811007Y-78268680D01*
X326820646Y-78209946D01*
X326803223Y-78181532D01*
X326742519Y-78172435D01*
X326668044Y-78171666D01*
X326502927Y-78189396D01*
D13*
X146500000Y-112900000D02*
X150500000Y-112900000D01*
X146500000Y-116100000D02*
X146500000Y-112900000D01*
X333150000Y-70880000D02*
X334350000Y-70880000D01*
X334350000Y-69120000D02*
X333150000Y-69120000D01*
X40110000Y-42355000D02*
X40110000Y-42245000D01*
X40110000Y-44115000D02*
X40110000Y-44005000D01*
X40100000Y-42245000D02*
X40110000Y-42245000D01*
X37910000Y-42245000D02*
X38641000Y-42245000D01*
X40100000Y-44115000D02*
X40110000Y-44115000D01*
X37910000Y-44115000D02*
X38641000Y-44115000D01*
X60280000Y-75375000D02*
X60280000Y-75265000D01*
X60280000Y-77135000D02*
X60280000Y-77025000D01*
X60270000Y-75265000D02*
X60280000Y-75265000D01*
X58080000Y-75265000D02*
X58811000Y-75265000D01*
X60270000Y-77135000D02*
X60280000Y-77135000D01*
X58080000Y-77135000D02*
X58811000Y-77135000D01*
D11*
X260500000Y-105200000D02*
X258700000Y-105200000D01*
X264300000Y-102800000D02*
X264300000Y-105200000D01*
X258700000Y-102800000D02*
X260500000Y-102800000D01*
X258700000Y-102800000D02*
X258700000Y-105200000D01*
X258950000Y-102800000D02*
X258950000Y-105200000D01*
X258875000Y-102800000D02*
X258875000Y-105200000D01*
X264300000Y-102800000D02*
X262500000Y-102800000D01*
X262500000Y-105200000D02*
X264300000Y-105200000D01*
X205987500Y-96250000D02*
X205987500Y-98050000D01*
X203587500Y-92450000D02*
X205987500Y-92450000D01*
X203587500Y-98050000D02*
X203587500Y-96250000D01*
X203587500Y-98050000D02*
X205987500Y-98050000D01*
X203587500Y-97800000D02*
X205987500Y-97800000D01*
X203587500Y-97875000D02*
X205987500Y-97875000D01*
X203587500Y-92450000D02*
X203587500Y-94250000D01*
X205987500Y-94250000D02*
X205987500Y-92450000D01*
X225037500Y-94250000D02*
X225037500Y-92450000D01*
X222637500Y-92450000D02*
X222637500Y-94250000D01*
X222637500Y-97875000D02*
X225037500Y-97875000D01*
X222637500Y-97800000D02*
X225037500Y-97800000D01*
X222637500Y-98050000D02*
X225037500Y-98050000D01*
X222637500Y-98050000D02*
X222637500Y-96250000D01*
X222637500Y-92450000D02*
X225037500Y-92450000D01*
X225037500Y-96250000D02*
X225037500Y-98050000D01*
X215512500Y-77200000D02*
X215512500Y-79000000D01*
X213112500Y-73400000D02*
X215512500Y-73400000D01*
X213112500Y-79000000D02*
X213112500Y-77200000D01*
X213112500Y-79000000D02*
X215512500Y-79000000D01*
X213112500Y-78750000D02*
X215512500Y-78750000D01*
X213112500Y-78825000D02*
X215512500Y-78825000D01*
X213112500Y-73400000D02*
X213112500Y-75200000D01*
X215512500Y-75200000D02*
X215512500Y-73400000D01*
X219750000Y-66700000D02*
X217950000Y-66700000D01*
X223550000Y-64300000D02*
X223550000Y-66700000D01*
X217950000Y-64300000D02*
X219750000Y-64300000D01*
X217950000Y-64300000D02*
X217950000Y-66700000D01*
X218200000Y-64300000D02*
X218200000Y-66700000D01*
X218125000Y-64300000D02*
X218125000Y-66700000D01*
X223550000Y-64300000D02*
X221750000Y-64300000D01*
X221750000Y-66700000D02*
X223550000Y-66700000D01*
X229800000Y-56150000D02*
X229800000Y-54350000D01*
X227400000Y-54350000D02*
X227400000Y-56150000D01*
X227400000Y-59775000D02*
X229800000Y-59775000D01*
X227400000Y-59700000D02*
X229800000Y-59700000D01*
X227400000Y-59950000D02*
X229800000Y-59950000D01*
X227400000Y-59950000D02*
X227400000Y-58150000D01*
X227400000Y-54350000D02*
X229800000Y-54350000D01*
X229800000Y-58150000D02*
X229800000Y-59950000D01*
X239325000Y-39100000D02*
X239325000Y-40900000D01*
X236925000Y-35300000D02*
X239325000Y-35300000D01*
X236925000Y-40900000D02*
X236925000Y-39100000D01*
X236925000Y-40900000D02*
X239325000Y-40900000D01*
X236925000Y-40650000D02*
X239325000Y-40650000D01*
X236925000Y-40725000D02*
X239325000Y-40725000D01*
X236925000Y-35300000D02*
X236925000Y-37100000D01*
X239325000Y-37100000D02*
X239325000Y-35300000D01*
X258362500Y-37087500D02*
X258362500Y-35287500D01*
X255962500Y-35287500D02*
X255962500Y-37087500D01*
X255962500Y-40712500D02*
X258362500Y-40712500D01*
X255962500Y-40637500D02*
X258362500Y-40637500D01*
X255962500Y-40887500D02*
X258362500Y-40887500D01*
X255962500Y-40887500D02*
X255962500Y-39087500D01*
X255962500Y-35287500D02*
X258362500Y-35287500D01*
X258362500Y-39087500D02*
X258362500Y-40887500D01*
X335750000Y-47200000D02*
X337550000Y-47200000D01*
X337550000Y-44800000D02*
X335750000Y-44800000D01*
X332125000Y-44800000D02*
X332125000Y-47200000D01*
X332200000Y-44800000D02*
X332200000Y-47200000D01*
X331950000Y-44800000D02*
X331950000Y-47200000D01*
X331950000Y-44800000D02*
X333750000Y-44800000D01*
X337550000Y-44800000D02*
X337550000Y-47200000D01*
X333750000Y-47200000D02*
X331950000Y-47200000D01*
X287200000Y-113300000D02*
X287200000Y-111500000D01*
X284800000Y-111500000D02*
X284800000Y-113300000D01*
X284800000Y-116925000D02*
X287200000Y-116925000D01*
X284800000Y-116850000D02*
X287200000Y-116850000D01*
X284800000Y-117100000D02*
X287200000Y-117100000D01*
X284800000Y-117100000D02*
X284800000Y-115300000D01*
X284800000Y-111500000D02*
X287200000Y-111500000D01*
X287200000Y-115300000D02*
X287200000Y-117100000D01*
X244087500Y-94250000D02*
X244087500Y-92450000D01*
X241687500Y-92450000D02*
X241687500Y-94250000D01*
X241687500Y-97875000D02*
X244087500Y-97875000D01*
X241687500Y-97800000D02*
X244087500Y-97800000D01*
X241687500Y-98050000D02*
X244087500Y-98050000D01*
X241687500Y-98050000D02*
X241687500Y-96250000D01*
X241687500Y-92450000D02*
X244087500Y-92450000D01*
X244087500Y-96250000D02*
X244087500Y-98050000D01*
X263137500Y-94250000D02*
X263137500Y-92450000D01*
X260737500Y-92450000D02*
X260737500Y-94250000D01*
X260737500Y-97875000D02*
X263137500Y-97875000D01*
X260737500Y-97800000D02*
X263137500Y-97800000D01*
X260737500Y-98050000D02*
X263137500Y-98050000D01*
X260737500Y-98050000D02*
X260737500Y-96250000D01*
X260737500Y-92450000D02*
X263137500Y-92450000D01*
X263137500Y-96250000D02*
X263137500Y-98050000D01*
X253612500Y-75200000D02*
X253612500Y-73400000D01*
X251212500Y-73400000D02*
X251212500Y-75200000D01*
X251212500Y-78825000D02*
X253612500Y-78825000D01*
X251212500Y-78750000D02*
X253612500Y-78750000D01*
X251212500Y-79000000D02*
X253612500Y-79000000D01*
X251212500Y-79000000D02*
X251212500Y-77200000D01*
X251212500Y-73400000D02*
X253612500Y-73400000D01*
X253612500Y-77200000D02*
X253612500Y-79000000D01*
X272662500Y-77200000D02*
X272662500Y-79000000D01*
X270262500Y-73400000D02*
X272662500Y-73400000D01*
X270262500Y-79000000D02*
X270262500Y-77200000D01*
X270262500Y-79000000D02*
X272662500Y-79000000D01*
X270262500Y-78750000D02*
X272662500Y-78750000D01*
X270262500Y-78825000D02*
X272662500Y-78825000D01*
X270262500Y-73400000D02*
X270262500Y-75200000D01*
X272662500Y-75200000D02*
X272662500Y-73400000D01*
X239750000Y-66700000D02*
X241550000Y-66700000D01*
X241550000Y-64300000D02*
X239750000Y-64300000D01*
X236125000Y-64300000D02*
X236125000Y-66700000D01*
X236200000Y-64300000D02*
X236200000Y-66700000D01*
X235950000Y-64300000D02*
X235950000Y-66700000D01*
X235950000Y-64300000D02*
X237750000Y-64300000D01*
X241550000Y-64300000D02*
X241550000Y-66700000D01*
X237750000Y-66700000D02*
X235950000Y-66700000D01*
X267900000Y-56150000D02*
X267900000Y-54350000D01*
X265500000Y-54350000D02*
X265500000Y-56150000D01*
X265500000Y-59775000D02*
X267900000Y-59775000D01*
X265500000Y-59700000D02*
X267900000Y-59700000D01*
X265500000Y-59950000D02*
X267900000Y-59950000D01*
X265500000Y-59950000D02*
X265500000Y-58150000D01*
X265500000Y-54350000D02*
X267900000Y-54350000D01*
X267900000Y-58150000D02*
X267900000Y-59950000D01*
X277425000Y-37100000D02*
X277425000Y-35300000D01*
X275025000Y-35300000D02*
X275025000Y-37100000D01*
X275025000Y-40725000D02*
X277425000Y-40725000D01*
X275025000Y-40650000D02*
X277425000Y-40650000D01*
X275025000Y-40900000D02*
X277425000Y-40900000D01*
X275025000Y-40900000D02*
X275025000Y-39100000D01*
X275025000Y-35300000D02*
X277425000Y-35300000D01*
X277425000Y-39100000D02*
X277425000Y-40900000D01*
X339700000Y-94250000D02*
X339700000Y-92450000D01*
X337300000Y-92450000D02*
X337300000Y-94250000D01*
X337300000Y-97875000D02*
X339700000Y-97875000D01*
X337300000Y-97800000D02*
X339700000Y-97800000D01*
X337300000Y-98050000D02*
X339700000Y-98050000D01*
X337300000Y-98050000D02*
X337300000Y-96250000D01*
X337300000Y-92450000D02*
X339700000Y-92450000D01*
X339700000Y-96250000D02*
X339700000Y-98050000D01*
X306000000Y-115300000D02*
X306000000Y-117100000D01*
X303600000Y-111500000D02*
X306000000Y-111500000D01*
X303600000Y-117100000D02*
X303600000Y-115300000D01*
X303600000Y-117100000D02*
X306000000Y-117100000D01*
X303600000Y-116850000D02*
X306000000Y-116850000D01*
X303600000Y-116925000D02*
X306000000Y-116925000D01*
X303600000Y-111500000D02*
X303600000Y-113300000D01*
X306000000Y-113300000D02*
X306000000Y-111500000D01*
X305450000Y-96250000D02*
X305450000Y-98050000D01*
X303050000Y-92450000D02*
X305450000Y-92450000D01*
X303050000Y-98050000D02*
X303050000Y-96250000D01*
X303050000Y-98050000D02*
X305450000Y-98050000D01*
X303050000Y-97800000D02*
X305450000Y-97800000D01*
X303050000Y-97875000D02*
X305450000Y-97875000D01*
X303050000Y-92450000D02*
X303050000Y-94250000D01*
X305450000Y-94250000D02*
X305450000Y-92450000D01*
X325450000Y-94250000D02*
X325450000Y-92450000D01*
X323050000Y-92450000D02*
X323050000Y-94250000D01*
X323050000Y-97875000D02*
X325450000Y-97875000D01*
X323050000Y-97800000D02*
X325450000Y-97800000D01*
X323050000Y-98050000D02*
X325450000Y-98050000D01*
X323050000Y-98050000D02*
X323050000Y-96250000D01*
X323050000Y-92450000D02*
X325450000Y-92450000D01*
X325450000Y-96250000D02*
X325450000Y-98050000D01*
X291200000Y-56150000D02*
X291200000Y-54350000D01*
X288800000Y-54350000D02*
X288800000Y-56150000D01*
X288800000Y-59775000D02*
X291200000Y-59775000D01*
X288800000Y-59700000D02*
X291200000Y-59700000D01*
X288800000Y-59950000D02*
X291200000Y-59950000D01*
X288800000Y-59950000D02*
X288800000Y-58150000D01*
X288800000Y-54350000D02*
X291200000Y-54350000D01*
X291200000Y-58150000D02*
X291200000Y-59950000D01*
X287200000Y-58150000D02*
X287200000Y-59950000D01*
X284800000Y-54350000D02*
X287200000Y-54350000D01*
X284800000Y-59950000D02*
X284800000Y-58150000D01*
X284800000Y-59950000D02*
X287200000Y-59950000D01*
X284800000Y-59700000D02*
X287200000Y-59700000D01*
X284800000Y-59775000D02*
X287200000Y-59775000D01*
X284800000Y-54350000D02*
X284800000Y-56150000D01*
X287200000Y-56150000D02*
X287200000Y-54350000D01*
X275000000Y-47200000D02*
X276800000Y-47200000D01*
X276800000Y-44800000D02*
X275000000Y-44800000D01*
X271375000Y-44800000D02*
X271375000Y-47200000D01*
X271450000Y-44800000D02*
X271450000Y-47200000D01*
X271200000Y-44800000D02*
X271200000Y-47200000D01*
X271200000Y-44800000D02*
X273000000Y-44800000D01*
X276800000Y-44800000D02*
X276800000Y-47200000D01*
X273000000Y-47200000D02*
X271200000Y-47200000D01*
X296500000Y-47200000D02*
X298300000Y-47200000D01*
X298300000Y-44800000D02*
X296500000Y-44800000D01*
X292875000Y-44800000D02*
X292875000Y-47200000D01*
X292950000Y-44800000D02*
X292950000Y-47200000D01*
X292700000Y-44800000D02*
X292700000Y-47200000D01*
X292700000Y-44800000D02*
X294500000Y-44800000D01*
X298300000Y-44800000D02*
X298300000Y-47200000D01*
X294500000Y-47200000D02*
X292700000Y-47200000D01*
X312950000Y-56150000D02*
X312950000Y-54350000D01*
X310550000Y-54350000D02*
X310550000Y-56150000D01*
X310550000Y-59775000D02*
X312950000Y-59775000D01*
X310550000Y-59700000D02*
X312950000Y-59700000D01*
X310550000Y-59950000D02*
X312950000Y-59950000D01*
X310550000Y-59950000D02*
X310550000Y-58150000D01*
X310550000Y-54350000D02*
X312950000Y-54350000D01*
X312950000Y-58150000D02*
X312950000Y-59950000D01*
X334950000Y-96250000D02*
X334950000Y-98050000D01*
X332550000Y-92450000D02*
X334950000Y-92450000D01*
X332550000Y-98050000D02*
X332550000Y-96250000D01*
X332550000Y-98050000D02*
X334950000Y-98050000D01*
X332550000Y-97800000D02*
X334950000Y-97800000D01*
X332550000Y-97875000D02*
X334950000Y-97875000D01*
X332550000Y-92450000D02*
X332550000Y-94250000D01*
X334950000Y-94250000D02*
X334950000Y-92450000D01*
X34200000Y-94250000D02*
X34200000Y-92450000D01*
X31800000Y-92450000D02*
X31800000Y-94250000D01*
X31800000Y-97875000D02*
X34200000Y-97875000D01*
X31800000Y-97800000D02*
X34200000Y-97800000D01*
X31800000Y-98050000D02*
X34200000Y-98050000D01*
X31800000Y-98050000D02*
X31800000Y-96250000D01*
X31800000Y-92450000D02*
X34200000Y-92450000D01*
X34200000Y-96250000D02*
X34200000Y-98050000D01*
X41681250Y-94250000D02*
X41681250Y-92450000D01*
X39281250Y-92450000D02*
X39281250Y-94250000D01*
X39281250Y-97875000D02*
X41681250Y-97875000D01*
X39281250Y-97800000D02*
X41681250Y-97800000D01*
X39281250Y-98050000D02*
X41681250Y-98050000D01*
X39281250Y-98050000D02*
X39281250Y-96250000D01*
X39281250Y-92450000D02*
X41681250Y-92450000D01*
X41681250Y-96250000D02*
X41681250Y-98050000D01*
X39500000Y-66700000D02*
X41300000Y-66700000D01*
X41300000Y-64300000D02*
X39500000Y-64300000D01*
X35875000Y-64300000D02*
X35875000Y-66700000D01*
X35950000Y-64300000D02*
X35950000Y-66700000D01*
X35700000Y-64300000D02*
X35700000Y-66700000D01*
X35700000Y-64300000D02*
X37500000Y-64300000D01*
X41300000Y-64300000D02*
X41300000Y-66700000D01*
X37500000Y-66700000D02*
X35700000Y-66700000D01*
X82162500Y-77200000D02*
X82162500Y-79000000D01*
X79762500Y-73400000D02*
X82162500Y-73400000D01*
X79762500Y-79000000D02*
X79762500Y-77200000D01*
X79762500Y-79000000D02*
X82162500Y-79000000D01*
X79762500Y-78750000D02*
X82162500Y-78750000D01*
X79762500Y-78825000D02*
X82162500Y-78825000D01*
X79762500Y-73400000D02*
X79762500Y-75200000D01*
X82162500Y-75200000D02*
X82162500Y-73400000D01*
X34537500Y-58150000D02*
X34537500Y-59950000D01*
X32137500Y-54350000D02*
X34537500Y-54350000D01*
X32137500Y-59950000D02*
X32137500Y-58150000D01*
X32137500Y-59950000D02*
X34537500Y-59950000D01*
X32137500Y-59700000D02*
X34537500Y-59700000D01*
X32137500Y-59775000D02*
X34537500Y-59775000D01*
X32137500Y-54350000D02*
X32137500Y-56150000D01*
X34537500Y-56150000D02*
X34537500Y-54350000D01*
X77400000Y-56150000D02*
X77400000Y-54350000D01*
X75000000Y-54350000D02*
X75000000Y-56150000D01*
X75000000Y-59775000D02*
X77400000Y-59775000D01*
X75000000Y-59700000D02*
X77400000Y-59700000D01*
X75000000Y-59950000D02*
X77400000Y-59950000D01*
X75000000Y-59950000D02*
X75000000Y-58150000D01*
X75000000Y-54350000D02*
X77400000Y-54350000D01*
X77400000Y-58150000D02*
X77400000Y-59950000D01*
X48825000Y-37100000D02*
X48825000Y-35300000D01*
X46425000Y-35300000D02*
X46425000Y-37100000D01*
X46425000Y-40725000D02*
X48825000Y-40725000D01*
X46425000Y-40650000D02*
X48825000Y-40650000D01*
X46425000Y-40900000D02*
X48825000Y-40900000D01*
X46425000Y-40900000D02*
X46425000Y-39100000D01*
X46425000Y-35300000D02*
X48825000Y-35300000D01*
X48825000Y-39100000D02*
X48825000Y-40900000D01*
X67875000Y-39100000D02*
X67875000Y-40900000D01*
X65475000Y-35300000D02*
X67875000Y-35300000D01*
X65475000Y-40900000D02*
X65475000Y-39100000D01*
X65475000Y-40900000D02*
X67875000Y-40900000D01*
X65475000Y-40650000D02*
X67875000Y-40650000D01*
X65475000Y-40725000D02*
X67875000Y-40725000D01*
X65475000Y-35300000D02*
X65475000Y-37100000D01*
X67875000Y-37100000D02*
X67875000Y-35300000D01*
X215750000Y-105200000D02*
X213950000Y-105200000D01*
X219550000Y-102800000D02*
X219550000Y-105200000D01*
X213950000Y-102800000D02*
X215750000Y-102800000D01*
X213950000Y-102800000D02*
X213950000Y-105200000D01*
X214200000Y-102800000D02*
X214200000Y-105200000D01*
X214125000Y-102800000D02*
X214125000Y-105200000D01*
X219550000Y-102800000D02*
X217750000Y-102800000D01*
X217750000Y-105200000D02*
X219550000Y-105200000D01*
X67250000Y-107450000D02*
X65450000Y-107450000D01*
X71050000Y-105050000D02*
X71050000Y-107450000D01*
X65450000Y-105050000D02*
X67250000Y-105050000D01*
X65450000Y-105050000D02*
X65450000Y-107450000D01*
X65700000Y-105050000D02*
X65700000Y-107450000D01*
X65625000Y-105050000D02*
X65625000Y-107450000D01*
X71050000Y-105050000D02*
X69250000Y-105050000D01*
X69250000Y-107450000D02*
X71050000Y-107450000D01*
X91687500Y-96250000D02*
X91687500Y-98050000D01*
X89287500Y-92450000D02*
X91687500Y-92450000D01*
X89287500Y-98050000D02*
X89287500Y-96250000D01*
X89287500Y-98050000D02*
X91687500Y-98050000D01*
X89287500Y-97800000D02*
X91687500Y-97800000D01*
X89287500Y-97875000D02*
X91687500Y-97875000D01*
X89287500Y-92450000D02*
X89287500Y-94250000D01*
X91687500Y-94250000D02*
X91687500Y-92450000D01*
X101212500Y-77200000D02*
X101212500Y-79000000D01*
X98812500Y-73400000D02*
X101212500Y-73400000D01*
X98812500Y-79000000D02*
X98812500Y-77200000D01*
X98812500Y-79000000D02*
X101212500Y-79000000D01*
X98812500Y-78750000D02*
X101212500Y-78750000D01*
X98812500Y-78825000D02*
X101212500Y-78825000D01*
X98812500Y-73400000D02*
X98812500Y-75200000D01*
X101212500Y-75200000D02*
X101212500Y-73400000D01*
X96450000Y-58150000D02*
X96450000Y-59950000D01*
X94050000Y-54350000D02*
X96450000Y-54350000D01*
X94050000Y-59950000D02*
X94050000Y-58150000D01*
X94050000Y-59950000D02*
X96450000Y-59950000D01*
X94050000Y-59700000D02*
X96450000Y-59700000D01*
X94050000Y-59775000D02*
X96450000Y-59775000D01*
X94050000Y-54350000D02*
X94050000Y-56150000D01*
X96450000Y-56150000D02*
X96450000Y-54350000D01*
X115500000Y-56150000D02*
X115500000Y-54350000D01*
X113100000Y-54350000D02*
X113100000Y-56150000D01*
X113100000Y-59775000D02*
X115500000Y-59775000D01*
X113100000Y-59700000D02*
X115500000Y-59700000D01*
X113100000Y-59950000D02*
X115500000Y-59950000D01*
X113100000Y-59950000D02*
X113100000Y-58150000D01*
X113100000Y-54350000D02*
X115500000Y-54350000D01*
X115500000Y-58150000D02*
X115500000Y-59950000D01*
X86925000Y-37100000D02*
X86925000Y-35300000D01*
X84525000Y-35300000D02*
X84525000Y-37100000D01*
X84525000Y-40725000D02*
X86925000Y-40725000D01*
X84525000Y-40650000D02*
X86925000Y-40650000D01*
X84525000Y-40900000D02*
X86925000Y-40900000D01*
X84525000Y-40900000D02*
X84525000Y-39100000D01*
X84525000Y-35300000D02*
X86925000Y-35300000D01*
X86925000Y-39100000D02*
X86925000Y-40900000D01*
X105975000Y-37100000D02*
X105975000Y-35300000D01*
X103575000Y-35300000D02*
X103575000Y-37100000D01*
X103575000Y-40725000D02*
X105975000Y-40725000D01*
X103575000Y-40650000D02*
X105975000Y-40650000D01*
X103575000Y-40900000D02*
X105975000Y-40900000D01*
X103575000Y-40900000D02*
X103575000Y-39100000D01*
X103575000Y-35300000D02*
X105975000Y-35300000D01*
X105975000Y-39100000D02*
X105975000Y-40900000D01*
X110737500Y-94250000D02*
X110737500Y-92450000D01*
X108337500Y-92450000D02*
X108337500Y-94250000D01*
X108337500Y-97875000D02*
X110737500Y-97875000D01*
X108337500Y-97800000D02*
X110737500Y-97800000D01*
X108337500Y-98050000D02*
X110737500Y-98050000D01*
X108337500Y-98050000D02*
X108337500Y-96250000D01*
X108337500Y-92450000D02*
X110737500Y-92450000D01*
X110737500Y-96250000D02*
X110737500Y-98050000D01*
X120262500Y-77200000D02*
X120262500Y-79000000D01*
X117862500Y-73400000D02*
X120262500Y-73400000D01*
X117862500Y-79000000D02*
X117862500Y-77200000D01*
X117862500Y-79000000D02*
X120262500Y-79000000D01*
X117862500Y-78750000D02*
X120262500Y-78750000D01*
X117862500Y-78825000D02*
X120262500Y-78825000D01*
X117862500Y-73400000D02*
X117862500Y-75200000D01*
X120262500Y-75200000D02*
X120262500Y-73400000D01*
X133250000Y-66700000D02*
X135050000Y-66700000D01*
X135050000Y-64300000D02*
X133250000Y-64300000D01*
X129625000Y-64300000D02*
X129625000Y-66700000D01*
X129700000Y-64300000D02*
X129700000Y-66700000D01*
X129450000Y-64300000D02*
X129450000Y-66700000D01*
X129450000Y-64300000D02*
X131250000Y-64300000D01*
X135050000Y-64300000D02*
X135050000Y-66700000D01*
X131250000Y-66700000D02*
X129450000Y-66700000D01*
X134550000Y-58150000D02*
X134550000Y-59950000D01*
X132150000Y-54350000D02*
X134550000Y-54350000D01*
X132150000Y-59950000D02*
X132150000Y-58150000D01*
X132150000Y-59950000D02*
X134550000Y-59950000D01*
X132150000Y-59700000D02*
X134550000Y-59700000D01*
X132150000Y-59775000D02*
X134550000Y-59775000D01*
X132150000Y-54350000D02*
X132150000Y-56150000D01*
X134550000Y-56150000D02*
X134550000Y-54350000D01*
X153600000Y-58150000D02*
X153600000Y-59950000D01*
X151200000Y-54350000D02*
X153600000Y-54350000D01*
X151200000Y-59950000D02*
X151200000Y-58150000D01*
X151200000Y-59950000D02*
X153600000Y-59950000D01*
X151200000Y-59700000D02*
X153600000Y-59700000D01*
X151200000Y-59775000D02*
X153600000Y-59775000D01*
X151200000Y-54350000D02*
X151200000Y-56150000D01*
X153600000Y-56150000D02*
X153600000Y-54350000D01*
X125025000Y-39100000D02*
X125025000Y-40900000D01*
X122625000Y-35300000D02*
X125025000Y-35300000D01*
X122625000Y-40900000D02*
X122625000Y-39100000D01*
X122625000Y-40900000D02*
X125025000Y-40900000D01*
X122625000Y-40650000D02*
X125025000Y-40650000D01*
X122625000Y-40725000D02*
X125025000Y-40725000D01*
X122625000Y-35300000D02*
X122625000Y-37100000D01*
X125025000Y-37100000D02*
X125025000Y-35300000D01*
X144075000Y-39100000D02*
X144075000Y-40900000D01*
X141675000Y-35300000D02*
X144075000Y-35300000D01*
X141675000Y-40900000D02*
X141675000Y-39100000D01*
X141675000Y-40900000D02*
X144075000Y-40900000D01*
X141675000Y-40650000D02*
X144075000Y-40650000D01*
X141675000Y-40725000D02*
X144075000Y-40725000D01*
X141675000Y-35300000D02*
X141675000Y-37100000D01*
X144075000Y-37100000D02*
X144075000Y-35300000D01*
X181700000Y-114000000D02*
X181700000Y-115800000D01*
X179300000Y-110200000D02*
X181700000Y-110200000D01*
X179300000Y-115800000D02*
X179300000Y-114000000D01*
X179300000Y-115800000D02*
X181700000Y-115800000D01*
X179300000Y-115550000D02*
X181700000Y-115550000D01*
X179300000Y-115625000D02*
X181700000Y-115625000D01*
X179300000Y-110200000D02*
X179300000Y-112000000D01*
X181700000Y-112000000D02*
X181700000Y-110200000D01*
X129787500Y-96250000D02*
X129787500Y-98050000D01*
X127387500Y-92450000D02*
X129787500Y-92450000D01*
X127387500Y-98050000D02*
X127387500Y-96250000D01*
X127387500Y-98050000D02*
X129787500Y-98050000D01*
X127387500Y-97800000D02*
X129787500Y-97800000D01*
X127387500Y-97875000D02*
X129787500Y-97875000D01*
X127387500Y-92450000D02*
X127387500Y-94250000D01*
X129787500Y-94250000D02*
X129787500Y-92450000D01*
X148837500Y-96250000D02*
X148837500Y-98050000D01*
X146437500Y-92450000D02*
X148837500Y-92450000D01*
X146437500Y-98050000D02*
X146437500Y-96250000D01*
X146437500Y-98050000D02*
X148837500Y-98050000D01*
X146437500Y-97800000D02*
X148837500Y-97800000D01*
X146437500Y-97875000D02*
X148837500Y-97875000D01*
X146437500Y-92450000D02*
X146437500Y-94250000D01*
X148837500Y-94250000D02*
X148837500Y-92450000D01*
X153500000Y-66700000D02*
X151700000Y-66700000D01*
X157300000Y-64300000D02*
X157300000Y-66700000D01*
X151700000Y-64300000D02*
X153500000Y-64300000D01*
X151700000Y-64300000D02*
X151700000Y-66700000D01*
X151950000Y-64300000D02*
X151950000Y-66700000D01*
X151875000Y-64300000D02*
X151875000Y-66700000D01*
X157300000Y-64300000D02*
X155500000Y-64300000D01*
X155500000Y-66700000D02*
X157300000Y-66700000D01*
X172650000Y-58150000D02*
X172650000Y-59950000D01*
X170250000Y-54350000D02*
X172650000Y-54350000D01*
X170250000Y-59950000D02*
X170250000Y-58150000D01*
X170250000Y-59950000D02*
X172650000Y-59950000D01*
X170250000Y-59700000D02*
X172650000Y-59700000D01*
X170250000Y-59775000D02*
X172650000Y-59775000D01*
X170250000Y-54350000D02*
X170250000Y-56150000D01*
X172650000Y-56150000D02*
X172650000Y-54350000D01*
X191700000Y-56150000D02*
X191700000Y-54350000D01*
X189300000Y-54350000D02*
X189300000Y-56150000D01*
X189300000Y-59775000D02*
X191700000Y-59775000D01*
X189300000Y-59700000D02*
X191700000Y-59700000D01*
X189300000Y-59950000D02*
X191700000Y-59950000D01*
X189300000Y-59950000D02*
X189300000Y-58150000D01*
X189300000Y-54350000D02*
X191700000Y-54350000D01*
X191700000Y-58150000D02*
X191700000Y-59950000D01*
X163125000Y-39100000D02*
X163125000Y-40900000D01*
X160725000Y-35300000D02*
X163125000Y-35300000D01*
X160725000Y-40900000D02*
X160725000Y-39100000D01*
X160725000Y-40900000D02*
X163125000Y-40900000D01*
X160725000Y-40650000D02*
X163125000Y-40650000D01*
X160725000Y-40725000D02*
X163125000Y-40725000D01*
X160725000Y-35300000D02*
X160725000Y-37100000D01*
X163125000Y-37100000D02*
X163125000Y-35300000D01*
X182175000Y-37100000D02*
X182175000Y-35300000D01*
X179775000Y-35300000D02*
X179775000Y-37100000D01*
X179775000Y-40725000D02*
X182175000Y-40725000D01*
X179775000Y-40650000D02*
X182175000Y-40650000D01*
X179775000Y-40900000D02*
X182175000Y-40900000D01*
X179775000Y-40900000D02*
X179775000Y-39100000D01*
X179775000Y-35300000D02*
X182175000Y-35300000D01*
X182175000Y-39100000D02*
X182175000Y-40900000D01*
X244000000Y-105200000D02*
X245800000Y-105200000D01*
X245800000Y-102800000D02*
X244000000Y-102800000D01*
X240375000Y-102800000D02*
X240375000Y-105200000D01*
X240450000Y-102800000D02*
X240450000Y-105200000D01*
X240200000Y-102800000D02*
X240200000Y-105200000D01*
X240200000Y-102800000D02*
X242000000Y-102800000D01*
X245800000Y-102800000D02*
X245800000Y-105200000D01*
X242000000Y-105200000D02*
X240200000Y-105200000D01*
X167887500Y-96250000D02*
X167887500Y-98050000D01*
X165487500Y-92450000D02*
X167887500Y-92450000D01*
X165487500Y-98050000D02*
X165487500Y-96250000D01*
X165487500Y-98050000D02*
X167887500Y-98050000D01*
X165487500Y-97800000D02*
X167887500Y-97800000D01*
X165487500Y-97875000D02*
X167887500Y-97875000D01*
X165487500Y-92450000D02*
X165487500Y-94250000D01*
X167887500Y-94250000D02*
X167887500Y-92450000D01*
X186937500Y-96250000D02*
X186937500Y-98050000D01*
X184537500Y-92450000D02*
X186937500Y-92450000D01*
X184537500Y-98050000D02*
X184537500Y-96250000D01*
X184537500Y-98050000D02*
X186937500Y-98050000D01*
X184537500Y-97800000D02*
X186937500Y-97800000D01*
X184537500Y-97875000D02*
X186937500Y-97875000D01*
X184537500Y-92450000D02*
X184537500Y-94250000D01*
X186937500Y-94250000D02*
X186937500Y-92450000D01*
X177412500Y-77200000D02*
X177412500Y-79000000D01*
X175012500Y-73400000D02*
X177412500Y-73400000D01*
X175012500Y-79000000D02*
X175012500Y-77200000D01*
X175012500Y-79000000D02*
X177412500Y-79000000D01*
X175012500Y-78750000D02*
X177412500Y-78750000D01*
X175012500Y-78825000D02*
X177412500Y-78825000D01*
X175012500Y-73400000D02*
X175012500Y-75200000D01*
X177412500Y-75200000D02*
X177412500Y-73400000D01*
X196462500Y-77200000D02*
X196462500Y-79000000D01*
X194062500Y-73400000D02*
X196462500Y-73400000D01*
X194062500Y-79000000D02*
X194062500Y-77200000D01*
X194062500Y-79000000D02*
X196462500Y-79000000D01*
X194062500Y-78750000D02*
X196462500Y-78750000D01*
X194062500Y-78825000D02*
X196462500Y-78825000D01*
X194062500Y-73400000D02*
X194062500Y-75200000D01*
X196462500Y-75200000D02*
X196462500Y-73400000D01*
X210750000Y-56150000D02*
X210750000Y-54350000D01*
X208350000Y-54350000D02*
X208350000Y-56150000D01*
X208350000Y-59775000D02*
X210750000Y-59775000D01*
X208350000Y-59700000D02*
X210750000Y-59700000D01*
X208350000Y-59950000D02*
X210750000Y-59950000D01*
X208350000Y-59950000D02*
X208350000Y-58150000D01*
X208350000Y-54350000D02*
X210750000Y-54350000D01*
X210750000Y-58150000D02*
X210750000Y-59950000D01*
X201225000Y-37100000D02*
X201225000Y-35300000D01*
X198825000Y-35300000D02*
X198825000Y-37100000D01*
X198825000Y-40725000D02*
X201225000Y-40725000D01*
X198825000Y-40650000D02*
X201225000Y-40650000D01*
X198825000Y-40900000D02*
X201225000Y-40900000D01*
X198825000Y-40900000D02*
X198825000Y-39100000D01*
X198825000Y-35300000D02*
X201225000Y-35300000D01*
X201225000Y-39100000D02*
X201225000Y-40900000D01*
X220275000Y-37100000D02*
X220275000Y-35300000D01*
X217875000Y-35300000D02*
X217875000Y-37100000D01*
X217875000Y-40725000D02*
X220275000Y-40725000D01*
X217875000Y-40650000D02*
X220275000Y-40650000D01*
X217875000Y-40900000D02*
X220275000Y-40900000D01*
X217875000Y-40900000D02*
X217875000Y-39100000D01*
X217875000Y-35300000D02*
X220275000Y-35300000D01*
X220275000Y-39100000D02*
X220275000Y-40900000D01*
D13*
X143350000Y-109250000D02*
X143350000Y-110250000D01*
X141650000Y-110250000D02*
X141650000Y-109250000D01*
D12*
X79452380Y-105035714D02*
X78452380Y-105035714D01*
X78452380Y-105273809D01*
X78500000Y-105416666D01*
X78595238Y-105511904D01*
X78690476Y-105559523D01*
X78880952Y-105607142D01*
X79023809Y-105607142D01*
X79214285Y-105559523D01*
X79309523Y-105511904D01*
X79404761Y-105416666D01*
X79452380Y-105273809D01*
X79452380Y-105035714D01*
X78452380Y-106511904D02*
X78452380Y-106035714D01*
X78928571Y-105988095D01*
X78880952Y-106035714D01*
X78833333Y-106130952D01*
X78833333Y-106369047D01*
X78880952Y-106464285D01*
X78928571Y-106511904D01*
X79023809Y-106559523D01*
X79261904Y-106559523D01*
X79357142Y-106511904D01*
X79404761Y-106464285D01*
X79452380Y-106369047D01*
X79452380Y-106130952D01*
X79404761Y-106035714D01*
X79357142Y-105988095D01*
X78452380Y-107178571D02*
X78452380Y-107273809D01*
X78500000Y-107369047D01*
X78547619Y-107416666D01*
X78642857Y-107464285D01*
X78833333Y-107511904D01*
X79071428Y-107511904D01*
X79261904Y-107464285D01*
X79357142Y-107416666D01*
X79404761Y-107369047D01*
X79452380Y-107273809D01*
X79452380Y-107178571D01*
X79404761Y-107083333D01*
X79357142Y-107035714D01*
X79261904Y-106988095D01*
X79071428Y-106940476D01*
X78833333Y-106940476D01*
X78642857Y-106988095D01*
X78547619Y-107035714D01*
X78500000Y-107083333D01*
X78452380Y-107178571D01*
X136950048Y-109702447D02*
X136377628Y-110274867D01*
X136276613Y-110308539D01*
X136209269Y-110308539D01*
X136108254Y-110274867D01*
X135973567Y-110140180D01*
X135939895Y-110039165D01*
X135939895Y-109971821D01*
X135973567Y-109870806D01*
X136545987Y-109298386D01*
X135131773Y-109298386D02*
X135535834Y-109702447D01*
X135333804Y-109500417D02*
X136040910Y-108793310D01*
X136007239Y-108961669D01*
X136007239Y-109096356D01*
X136040910Y-109197371D01*
X137166666Y-102357142D02*
X137214285Y-102404761D01*
X137357142Y-102452380D01*
X137452380Y-102452380D01*
X137595238Y-102404761D01*
X137690476Y-102309523D01*
X137738095Y-102214285D01*
X137785714Y-102023809D01*
X137785714Y-101880952D01*
X137738095Y-101690476D01*
X137690476Y-101595238D01*
X137595238Y-101500000D01*
X137452380Y-101452380D01*
X137357142Y-101452380D01*
X137214285Y-101500000D01*
X137166666Y-101547619D01*
X136785714Y-101547619D02*
X136738095Y-101500000D01*
X136642857Y-101452380D01*
X136404761Y-101452380D01*
X136309523Y-101500000D01*
X136261904Y-101547619D01*
X136214285Y-101642857D01*
X136214285Y-101738095D01*
X136261904Y-101880952D01*
X136833333Y-102452380D01*
X136214285Y-102452380D01*
X149166666Y-117357142D02*
X149214285Y-117404761D01*
X149357142Y-117452380D01*
X149452380Y-117452380D01*
X149595238Y-117404761D01*
X149690476Y-117309523D01*
X149738095Y-117214285D01*
X149785714Y-117023809D01*
X149785714Y-116880952D01*
X149738095Y-116690476D01*
X149690476Y-116595238D01*
X149595238Y-116500000D01*
X149452380Y-116452380D01*
X149357142Y-116452380D01*
X149214285Y-116500000D01*
X149166666Y-116547619D01*
X148833333Y-116452380D02*
X148214285Y-116452380D01*
X148547619Y-116833333D01*
X148404761Y-116833333D01*
X148309523Y-116880952D01*
X148261904Y-116928571D01*
X148214285Y-117023809D01*
X148214285Y-117261904D01*
X148261904Y-117357142D01*
X148309523Y-117404761D01*
X148404761Y-117452380D01*
X148690476Y-117452380D01*
X148785714Y-117404761D01*
X148833333Y-117357142D01*
X148166666Y-108857142D02*
X148214285Y-108904761D01*
X148357142Y-108952380D01*
X148452380Y-108952380D01*
X148595238Y-108904761D01*
X148690476Y-108809523D01*
X148738095Y-108714285D01*
X148785714Y-108523809D01*
X148785714Y-108380952D01*
X148738095Y-108190476D01*
X148690476Y-108095238D01*
X148595238Y-108000000D01*
X148452380Y-107952380D01*
X148357142Y-107952380D01*
X148214285Y-108000000D01*
X148166666Y-108047619D01*
X147309523Y-108285714D02*
X147309523Y-108952380D01*
X147547619Y-107904761D02*
X147785714Y-108619047D01*
X147166666Y-108619047D01*
X141916666Y-118107142D02*
X141964285Y-118154761D01*
X142107142Y-118202380D01*
X142202380Y-118202380D01*
X142345238Y-118154761D01*
X142440476Y-118059523D01*
X142488095Y-117964285D01*
X142535714Y-117773809D01*
X142535714Y-117630952D01*
X142488095Y-117440476D01*
X142440476Y-117345238D01*
X142345238Y-117250000D01*
X142202380Y-117202380D01*
X142107142Y-117202380D01*
X141964285Y-117250000D01*
X141916666Y-117297619D01*
X141011904Y-117202380D02*
X141488095Y-117202380D01*
X141535714Y-117678571D01*
X141488095Y-117630952D01*
X141392857Y-117583333D01*
X141154761Y-117583333D01*
X141059523Y-117630952D01*
X141011904Y-117678571D01*
X140964285Y-117773809D01*
X140964285Y-118011904D01*
X141011904Y-118107142D01*
X141059523Y-118154761D01*
X141154761Y-118202380D01*
X141392857Y-118202380D01*
X141488095Y-118154761D01*
X141535714Y-118107142D01*
X140916666Y-113357142D02*
X140964285Y-113404761D01*
X141107142Y-113452380D01*
X141202380Y-113452380D01*
X141345238Y-113404761D01*
X141440476Y-113309523D01*
X141488095Y-113214285D01*
X141535714Y-113023809D01*
X141535714Y-112880952D01*
X141488095Y-112690476D01*
X141440476Y-112595238D01*
X141345238Y-112500000D01*
X141202380Y-112452380D01*
X141107142Y-112452380D01*
X140964285Y-112500000D01*
X140916666Y-112547619D01*
X140059523Y-112452380D02*
X140250000Y-112452380D01*
X140345238Y-112500000D01*
X140392857Y-112547619D01*
X140488095Y-112690476D01*
X140535714Y-112880952D01*
X140535714Y-113261904D01*
X140488095Y-113357142D01*
X140440476Y-113404761D01*
X140345238Y-113452380D01*
X140154761Y-113452380D01*
X140059523Y-113404761D01*
X140011904Y-113357142D01*
X139964285Y-113261904D01*
X139964285Y-113023809D01*
X140011904Y-112928571D01*
X140059523Y-112880952D01*
X140154761Y-112833333D01*
X140345238Y-112833333D01*
X140440476Y-112880952D01*
X140488095Y-112928571D01*
X140535714Y-113023809D01*
X173416666Y-103202380D02*
X173750000Y-102726190D01*
X173988095Y-103202380D02*
X173988095Y-102202380D01*
X173607142Y-102202380D01*
X173511904Y-102250000D01*
X173464285Y-102297619D01*
X173416666Y-102392857D01*
X173416666Y-102535714D01*
X173464285Y-102630952D01*
X173511904Y-102678571D01*
X173607142Y-102726190D01*
X173988095Y-102726190D01*
X172464285Y-103202380D02*
X173035714Y-103202380D01*
X172750000Y-103202380D02*
X172750000Y-102202380D01*
X172845238Y-102345238D01*
X172940476Y-102440476D01*
X173035714Y-102488095D01*
X173416666Y-105952380D02*
X173750000Y-105476190D01*
X173988095Y-105952380D02*
X173988095Y-104952380D01*
X173607142Y-104952380D01*
X173511904Y-105000000D01*
X173464285Y-105047619D01*
X173416666Y-105142857D01*
X173416666Y-105285714D01*
X173464285Y-105380952D01*
X173511904Y-105428571D01*
X173607142Y-105476190D01*
X173988095Y-105476190D01*
X173035714Y-105047619D02*
X172988095Y-105000000D01*
X172892857Y-104952380D01*
X172654761Y-104952380D01*
X172559523Y-105000000D01*
X172511904Y-105047619D01*
X172464285Y-105142857D01*
X172464285Y-105238095D01*
X172511904Y-105380952D01*
X173083333Y-105952380D01*
X172464285Y-105952380D01*
X113416666Y-114802380D02*
X113750000Y-114326190D01*
X113988095Y-114802380D02*
X113988095Y-113802380D01*
X113607142Y-113802380D01*
X113511904Y-113850000D01*
X113464285Y-113897619D01*
X113416666Y-113992857D01*
X113416666Y-114135714D01*
X113464285Y-114230952D01*
X113511904Y-114278571D01*
X113607142Y-114326190D01*
X113988095Y-114326190D01*
X113083333Y-113802380D02*
X112464285Y-113802380D01*
X112797619Y-114183333D01*
X112654761Y-114183333D01*
X112559523Y-114230952D01*
X112511904Y-114278571D01*
X112464285Y-114373809D01*
X112464285Y-114611904D01*
X112511904Y-114707142D01*
X112559523Y-114754761D01*
X112654761Y-114802380D01*
X112940476Y-114802380D01*
X113035714Y-114754761D01*
X113083333Y-114707142D01*
X59166666Y-78452380D02*
X59500000Y-77976190D01*
X59738095Y-78452380D02*
X59738095Y-77452380D01*
X59357142Y-77452380D01*
X59261904Y-77500000D01*
X59214285Y-77547619D01*
X59166666Y-77642857D01*
X59166666Y-77785714D01*
X59214285Y-77880952D01*
X59261904Y-77928571D01*
X59357142Y-77976190D01*
X59738095Y-77976190D01*
X58309523Y-77785714D02*
X58309523Y-78452380D01*
X58547619Y-77404761D02*
X58785714Y-78119047D01*
X58166666Y-78119047D01*
X331904761Y-73666666D02*
X331952380Y-73809523D01*
X331952380Y-74047619D01*
X331904761Y-74142857D01*
X331857142Y-74190476D01*
X331761904Y-74238095D01*
X331666666Y-74238095D01*
X331571428Y-74190476D01*
X331523809Y-74142857D01*
X331476190Y-74047619D01*
X331428571Y-73857142D01*
X331380952Y-73761904D01*
X331333333Y-73714285D01*
X331238095Y-73666666D01*
X331142857Y-73666666D01*
X331047619Y-73714285D01*
X331000000Y-73761904D01*
X330952380Y-73857142D01*
X330952380Y-74095238D01*
X331000000Y-74238095D01*
X330952380Y-74571428D02*
X331952380Y-74809523D01*
X331238095Y-75000000D01*
X331952380Y-75190476D01*
X330952380Y-75428571D01*
X331952380Y-76333333D02*
X331952380Y-75761904D01*
X331952380Y-76047619D02*
X330952380Y-76047619D01*
X331095238Y-75952380D01*
X331190476Y-75857142D01*
X331238095Y-75761904D01*
X152309523Y-113702380D02*
X151642857Y-114702380D01*
X151642857Y-113702380D02*
X152309523Y-114702380D01*
X150738095Y-114702380D02*
X151309523Y-114702380D01*
X151023809Y-114702380D02*
X151023809Y-113702380D01*
X151119047Y-113845238D01*
X151214285Y-113940476D01*
X151309523Y-113988095D01*
X333916666Y-68702380D02*
X334250000Y-68226190D01*
X334488095Y-68702380D02*
X334488095Y-67702380D01*
X334107142Y-67702380D01*
X334011904Y-67750000D01*
X333964285Y-67797619D01*
X333916666Y-67892857D01*
X333916666Y-68035714D01*
X333964285Y-68130952D01*
X334011904Y-68178571D01*
X334107142Y-68226190D01*
X334488095Y-68226190D01*
X333011904Y-67702380D02*
X333488095Y-67702380D01*
X333535714Y-68178571D01*
X333488095Y-68130952D01*
X333392857Y-68083333D01*
X333154761Y-68083333D01*
X333059523Y-68130952D01*
X333011904Y-68178571D01*
X332964285Y-68273809D01*
X332964285Y-68511904D01*
X333011904Y-68607142D01*
X333059523Y-68654761D01*
X333154761Y-68702380D01*
X333392857Y-68702380D01*
X333488095Y-68654761D01*
X333535714Y-68607142D01*
X40076190Y-45567380D02*
X40552380Y-45567380D01*
X40552380Y-44567380D01*
X39742857Y-45043571D02*
X39409523Y-45043571D01*
X39266666Y-45567380D02*
X39742857Y-45567380D01*
X39742857Y-44567380D01*
X39266666Y-44567380D01*
X38838095Y-45567380D02*
X38838095Y-44567380D01*
X38599999Y-44567380D01*
X38457142Y-44615000D01*
X38361904Y-44710238D01*
X38314285Y-44805476D01*
X38266666Y-44995952D01*
X38266666Y-45138809D01*
X38314285Y-45329285D01*
X38361904Y-45424523D01*
X38457142Y-45519761D01*
X38599999Y-45567380D01*
X38838095Y-45567380D01*
X37314285Y-45567380D02*
X37885714Y-45567380D01*
X37599999Y-45567380D02*
X37599999Y-44567380D01*
X37695238Y-44710238D01*
X37790476Y-44805476D01*
X37885714Y-44853095D01*
X37123809Y-45662619D02*
X36361904Y-45662619D01*
X35599999Y-45567380D02*
X36171428Y-45567380D01*
X35885714Y-45567380D02*
X35885714Y-44567380D01*
X35980952Y-44710238D01*
X36076190Y-44805476D01*
X36171428Y-44853095D01*
X60246190Y-74702380D02*
X60722380Y-74702380D01*
X60722380Y-73702380D01*
X59912857Y-74178571D02*
X59579523Y-74178571D01*
X59436666Y-74702380D02*
X59912857Y-74702380D01*
X59912857Y-73702380D01*
X59436666Y-73702380D01*
X59008095Y-74702380D02*
X59008095Y-73702380D01*
X58769999Y-73702380D01*
X58627142Y-73750000D01*
X58531904Y-73845238D01*
X58484285Y-73940476D01*
X58436666Y-74130952D01*
X58436666Y-74273809D01*
X58484285Y-74464285D01*
X58531904Y-74559523D01*
X58627142Y-74654761D01*
X58769999Y-74702380D01*
X59008095Y-74702380D01*
X57484285Y-74702380D02*
X58055714Y-74702380D01*
X57769999Y-74702380D02*
X57769999Y-73702380D01*
X57865238Y-73845238D01*
X57960476Y-73940476D01*
X58055714Y-73988095D01*
X57293809Y-74797619D02*
X56531904Y-74797619D01*
X56103333Y-73702380D02*
X56008095Y-73702380D01*
X55912857Y-73750000D01*
X55865238Y-73797619D01*
X55817619Y-73892857D01*
X55769999Y-74083333D01*
X55769999Y-74321428D01*
X55817619Y-74511904D01*
X55865238Y-74607142D01*
X55912857Y-74654761D01*
X56008095Y-74702380D01*
X56103333Y-74702380D01*
X56198571Y-74654761D01*
X56246190Y-74607142D01*
X56293809Y-74511904D01*
X56341428Y-74321428D01*
X56341428Y-74083333D01*
X56293809Y-73892857D01*
X56246190Y-73797619D01*
X56198571Y-73750000D01*
X56103333Y-73702380D01*
X261952380Y-103261904D02*
X260952380Y-103261904D01*
X260952380Y-103500000D01*
X261000000Y-103642857D01*
X261095238Y-103738095D01*
X261190476Y-103785714D01*
X261380952Y-103833333D01*
X261523809Y-103833333D01*
X261714285Y-103785714D01*
X261809523Y-103738095D01*
X261904761Y-103642857D01*
X261952380Y-103500000D01*
X261952380Y-103261904D01*
X260952380Y-104452380D02*
X260952380Y-104547619D01*
X261000000Y-104642857D01*
X261047619Y-104690476D01*
X261142857Y-104738095D01*
X261333333Y-104785714D01*
X261571428Y-104785714D01*
X261761904Y-104738095D01*
X261857142Y-104690476D01*
X261904761Y-104642857D01*
X261952380Y-104547619D01*
X261952380Y-104452380D01*
X261904761Y-104357142D01*
X261857142Y-104309523D01*
X261761904Y-104261904D01*
X261571428Y-104214285D01*
X261333333Y-104214285D01*
X261142857Y-104261904D01*
X261047619Y-104309523D01*
X261000000Y-104357142D01*
X260952380Y-104452380D01*
X205525595Y-95702380D02*
X205525595Y-94702380D01*
X205287500Y-94702380D01*
X205144642Y-94750000D01*
X205049404Y-94845238D01*
X205001785Y-94940476D01*
X204954166Y-95130952D01*
X204954166Y-95273809D01*
X205001785Y-95464285D01*
X205049404Y-95559523D01*
X205144642Y-95654761D01*
X205287500Y-95702380D01*
X205525595Y-95702380D01*
X204001785Y-95702380D02*
X204573214Y-95702380D01*
X204287500Y-95702380D02*
X204287500Y-94702380D01*
X204382738Y-94845238D01*
X204477976Y-94940476D01*
X204573214Y-94988095D01*
X224575595Y-95702380D02*
X224575595Y-94702380D01*
X224337500Y-94702380D01*
X224194642Y-94750000D01*
X224099404Y-94845238D01*
X224051785Y-94940476D01*
X224004166Y-95130952D01*
X224004166Y-95273809D01*
X224051785Y-95464285D01*
X224099404Y-95559523D01*
X224194642Y-95654761D01*
X224337500Y-95702380D01*
X224575595Y-95702380D01*
X223623214Y-94797619D02*
X223575595Y-94750000D01*
X223480357Y-94702380D01*
X223242261Y-94702380D01*
X223147023Y-94750000D01*
X223099404Y-94797619D01*
X223051785Y-94892857D01*
X223051785Y-94988095D01*
X223099404Y-95130952D01*
X223670833Y-95702380D01*
X223051785Y-95702380D01*
X215050595Y-76652380D02*
X215050595Y-75652380D01*
X214812500Y-75652380D01*
X214669642Y-75700000D01*
X214574404Y-75795238D01*
X214526785Y-75890476D01*
X214479166Y-76080952D01*
X214479166Y-76223809D01*
X214526785Y-76414285D01*
X214574404Y-76509523D01*
X214669642Y-76604761D01*
X214812500Y-76652380D01*
X215050595Y-76652380D01*
X214145833Y-75652380D02*
X213526785Y-75652380D01*
X213860119Y-76033333D01*
X213717261Y-76033333D01*
X213622023Y-76080952D01*
X213574404Y-76128571D01*
X213526785Y-76223809D01*
X213526785Y-76461904D01*
X213574404Y-76557142D01*
X213622023Y-76604761D01*
X213717261Y-76652380D01*
X214002976Y-76652380D01*
X214098214Y-76604761D01*
X214145833Y-76557142D01*
X221202380Y-64761904D02*
X220202380Y-64761904D01*
X220202380Y-65000000D01*
X220250000Y-65142857D01*
X220345238Y-65238095D01*
X220440476Y-65285714D01*
X220630952Y-65333333D01*
X220773809Y-65333333D01*
X220964285Y-65285714D01*
X221059523Y-65238095D01*
X221154761Y-65142857D01*
X221202380Y-65000000D01*
X221202380Y-64761904D01*
X220535714Y-66190476D02*
X221202380Y-66190476D01*
X220154761Y-65952380D02*
X220869047Y-65714285D01*
X220869047Y-66333333D01*
X229338095Y-57602380D02*
X229338095Y-56602380D01*
X229100000Y-56602380D01*
X228957142Y-56650000D01*
X228861904Y-56745238D01*
X228814285Y-56840476D01*
X228766666Y-57030952D01*
X228766666Y-57173809D01*
X228814285Y-57364285D01*
X228861904Y-57459523D01*
X228957142Y-57554761D01*
X229100000Y-57602380D01*
X229338095Y-57602380D01*
X227861904Y-56602380D02*
X228338095Y-56602380D01*
X228385714Y-57078571D01*
X228338095Y-57030952D01*
X228242857Y-56983333D01*
X228004761Y-56983333D01*
X227909523Y-57030952D01*
X227861904Y-57078571D01*
X227814285Y-57173809D01*
X227814285Y-57411904D01*
X227861904Y-57507142D01*
X227909523Y-57554761D01*
X228004761Y-57602380D01*
X228242857Y-57602380D01*
X228338095Y-57554761D01*
X228385714Y-57507142D01*
X238863095Y-38552380D02*
X238863095Y-37552380D01*
X238625000Y-37552380D01*
X238482142Y-37600000D01*
X238386904Y-37695238D01*
X238339285Y-37790476D01*
X238291666Y-37980952D01*
X238291666Y-38123809D01*
X238339285Y-38314285D01*
X238386904Y-38409523D01*
X238482142Y-38504761D01*
X238625000Y-38552380D01*
X238863095Y-38552380D01*
X237434523Y-37552380D02*
X237625000Y-37552380D01*
X237720238Y-37600000D01*
X237767857Y-37647619D01*
X237863095Y-37790476D01*
X237910714Y-37980952D01*
X237910714Y-38361904D01*
X237863095Y-38457142D01*
X237815476Y-38504761D01*
X237720238Y-38552380D01*
X237529761Y-38552380D01*
X237434523Y-38504761D01*
X237386904Y-38457142D01*
X237339285Y-38361904D01*
X237339285Y-38123809D01*
X237386904Y-38028571D01*
X237434523Y-37980952D01*
X237529761Y-37933333D01*
X237720238Y-37933333D01*
X237815476Y-37980952D01*
X237863095Y-38028571D01*
X237910714Y-38123809D01*
X257900595Y-38539880D02*
X257900595Y-37539880D01*
X257662500Y-37539880D01*
X257519642Y-37587500D01*
X257424404Y-37682738D01*
X257376785Y-37777976D01*
X257329166Y-37968452D01*
X257329166Y-38111309D01*
X257376785Y-38301785D01*
X257424404Y-38397023D01*
X257519642Y-38492261D01*
X257662500Y-38539880D01*
X257900595Y-38539880D01*
X256995833Y-37539880D02*
X256329166Y-37539880D01*
X256757738Y-38539880D01*
X335202380Y-45261904D02*
X334202380Y-45261904D01*
X334202380Y-45500000D01*
X334250000Y-45642857D01*
X334345238Y-45738095D01*
X334440476Y-45785714D01*
X334630952Y-45833333D01*
X334773809Y-45833333D01*
X334964285Y-45785714D01*
X335059523Y-45738095D01*
X335154761Y-45642857D01*
X335202380Y-45500000D01*
X335202380Y-45261904D01*
X334630952Y-46404761D02*
X334583333Y-46309523D01*
X334535714Y-46261904D01*
X334440476Y-46214285D01*
X334392857Y-46214285D01*
X334297619Y-46261904D01*
X334250000Y-46309523D01*
X334202380Y-46404761D01*
X334202380Y-46595238D01*
X334250000Y-46690476D01*
X334297619Y-46738095D01*
X334392857Y-46785714D01*
X334440476Y-46785714D01*
X334535714Y-46738095D01*
X334583333Y-46690476D01*
X334630952Y-46595238D01*
X334630952Y-46404761D01*
X334678571Y-46309523D01*
X334726190Y-46261904D01*
X334821428Y-46214285D01*
X335011904Y-46214285D01*
X335107142Y-46261904D01*
X335154761Y-46309523D01*
X335202380Y-46404761D01*
X335202380Y-46595238D01*
X335154761Y-46690476D01*
X335107142Y-46738095D01*
X335011904Y-46785714D01*
X334821428Y-46785714D01*
X334726190Y-46738095D01*
X334678571Y-46690476D01*
X334630952Y-46595238D01*
X287214285Y-114752380D02*
X287214285Y-113752380D01*
X286976190Y-113752380D01*
X286833333Y-113800000D01*
X286738095Y-113895238D01*
X286690476Y-113990476D01*
X286642857Y-114180952D01*
X286642857Y-114323809D01*
X286690476Y-114514285D01*
X286738095Y-114609523D01*
X286833333Y-114704761D01*
X286976190Y-114752380D01*
X287214285Y-114752380D01*
X285690476Y-114752380D02*
X286261904Y-114752380D01*
X285976190Y-114752380D02*
X285976190Y-113752380D01*
X286071428Y-113895238D01*
X286166666Y-113990476D01*
X286261904Y-114038095D01*
X285071428Y-113752380D02*
X284976190Y-113752380D01*
X284880952Y-113800000D01*
X284833333Y-113847619D01*
X284785714Y-113942857D01*
X284738095Y-114133333D01*
X284738095Y-114371428D01*
X284785714Y-114561904D01*
X284833333Y-114657142D01*
X284880952Y-114704761D01*
X284976190Y-114752380D01*
X285071428Y-114752380D01*
X285166666Y-114704761D01*
X285214285Y-114657142D01*
X285261904Y-114561904D01*
X285309523Y-114371428D01*
X285309523Y-114133333D01*
X285261904Y-113942857D01*
X285214285Y-113847619D01*
X285166666Y-113800000D01*
X285071428Y-113752380D01*
X244101785Y-95702380D02*
X244101785Y-94702380D01*
X243863690Y-94702380D01*
X243720833Y-94750000D01*
X243625595Y-94845238D01*
X243577976Y-94940476D01*
X243530357Y-95130952D01*
X243530357Y-95273809D01*
X243577976Y-95464285D01*
X243625595Y-95559523D01*
X243720833Y-95654761D01*
X243863690Y-95702380D01*
X244101785Y-95702380D01*
X242577976Y-95702380D02*
X243149404Y-95702380D01*
X242863690Y-95702380D02*
X242863690Y-94702380D01*
X242958928Y-94845238D01*
X243054166Y-94940476D01*
X243149404Y-94988095D01*
X241625595Y-95702380D02*
X242197023Y-95702380D01*
X241911309Y-95702380D02*
X241911309Y-94702380D01*
X242006547Y-94845238D01*
X242101785Y-94940476D01*
X242197023Y-94988095D01*
X263151785Y-95702380D02*
X263151785Y-94702380D01*
X262913690Y-94702380D01*
X262770833Y-94750000D01*
X262675595Y-94845238D01*
X262627976Y-94940476D01*
X262580357Y-95130952D01*
X262580357Y-95273809D01*
X262627976Y-95464285D01*
X262675595Y-95559523D01*
X262770833Y-95654761D01*
X262913690Y-95702380D01*
X263151785Y-95702380D01*
X261627976Y-95702380D02*
X262199404Y-95702380D01*
X261913690Y-95702380D02*
X261913690Y-94702380D01*
X262008928Y-94845238D01*
X262104166Y-94940476D01*
X262199404Y-94988095D01*
X261247023Y-94797619D02*
X261199404Y-94750000D01*
X261104166Y-94702380D01*
X260866071Y-94702380D01*
X260770833Y-94750000D01*
X260723214Y-94797619D01*
X260675595Y-94892857D01*
X260675595Y-94988095D01*
X260723214Y-95130952D01*
X261294642Y-95702380D01*
X260675595Y-95702380D01*
X253626785Y-76652380D02*
X253626785Y-75652380D01*
X253388690Y-75652380D01*
X253245833Y-75700000D01*
X253150595Y-75795238D01*
X253102976Y-75890476D01*
X253055357Y-76080952D01*
X253055357Y-76223809D01*
X253102976Y-76414285D01*
X253150595Y-76509523D01*
X253245833Y-76604761D01*
X253388690Y-76652380D01*
X253626785Y-76652380D01*
X252102976Y-76652380D02*
X252674404Y-76652380D01*
X252388690Y-76652380D02*
X252388690Y-75652380D01*
X252483928Y-75795238D01*
X252579166Y-75890476D01*
X252674404Y-75938095D01*
X251769642Y-75652380D02*
X251150595Y-75652380D01*
X251483928Y-76033333D01*
X251341071Y-76033333D01*
X251245833Y-76080952D01*
X251198214Y-76128571D01*
X251150595Y-76223809D01*
X251150595Y-76461904D01*
X251198214Y-76557142D01*
X251245833Y-76604761D01*
X251341071Y-76652380D01*
X251626785Y-76652380D01*
X251722023Y-76604761D01*
X251769642Y-76557142D01*
X272676785Y-76652380D02*
X272676785Y-75652380D01*
X272438690Y-75652380D01*
X272295833Y-75700000D01*
X272200595Y-75795238D01*
X272152976Y-75890476D01*
X272105357Y-76080952D01*
X272105357Y-76223809D01*
X272152976Y-76414285D01*
X272200595Y-76509523D01*
X272295833Y-76604761D01*
X272438690Y-76652380D01*
X272676785Y-76652380D01*
X271152976Y-76652380D02*
X271724404Y-76652380D01*
X271438690Y-76652380D02*
X271438690Y-75652380D01*
X271533928Y-75795238D01*
X271629166Y-75890476D01*
X271724404Y-75938095D01*
X270295833Y-75985714D02*
X270295833Y-76652380D01*
X270533928Y-75604761D02*
X270772023Y-76319047D01*
X270152976Y-76319047D01*
X239202380Y-64285714D02*
X238202380Y-64285714D01*
X238202380Y-64523809D01*
X238250000Y-64666666D01*
X238345238Y-64761904D01*
X238440476Y-64809523D01*
X238630952Y-64857142D01*
X238773809Y-64857142D01*
X238964285Y-64809523D01*
X239059523Y-64761904D01*
X239154761Y-64666666D01*
X239202380Y-64523809D01*
X239202380Y-64285714D01*
X239202380Y-65809523D02*
X239202380Y-65238095D01*
X239202380Y-65523809D02*
X238202380Y-65523809D01*
X238345238Y-65428571D01*
X238440476Y-65333333D01*
X238488095Y-65238095D01*
X238202380Y-66714285D02*
X238202380Y-66238095D01*
X238678571Y-66190476D01*
X238630952Y-66238095D01*
X238583333Y-66333333D01*
X238583333Y-66571428D01*
X238630952Y-66666666D01*
X238678571Y-66714285D01*
X238773809Y-66761904D01*
X239011904Y-66761904D01*
X239107142Y-66714285D01*
X239154761Y-66666666D01*
X239202380Y-66571428D01*
X239202380Y-66333333D01*
X239154761Y-66238095D01*
X239107142Y-66190476D01*
X267914285Y-57602380D02*
X267914285Y-56602380D01*
X267676190Y-56602380D01*
X267533333Y-56650000D01*
X267438095Y-56745238D01*
X267390476Y-56840476D01*
X267342857Y-57030952D01*
X267342857Y-57173809D01*
X267390476Y-57364285D01*
X267438095Y-57459523D01*
X267533333Y-57554761D01*
X267676190Y-57602380D01*
X267914285Y-57602380D01*
X266390476Y-57602380D02*
X266961904Y-57602380D01*
X266676190Y-57602380D02*
X266676190Y-56602380D01*
X266771428Y-56745238D01*
X266866666Y-56840476D01*
X266961904Y-56888095D01*
X265533333Y-56602380D02*
X265723809Y-56602380D01*
X265819047Y-56650000D01*
X265866666Y-56697619D01*
X265961904Y-56840476D01*
X266009523Y-57030952D01*
X266009523Y-57411904D01*
X265961904Y-57507142D01*
X265914285Y-57554761D01*
X265819047Y-57602380D01*
X265628571Y-57602380D01*
X265533333Y-57554761D01*
X265485714Y-57507142D01*
X265438095Y-57411904D01*
X265438095Y-57173809D01*
X265485714Y-57078571D01*
X265533333Y-57030952D01*
X265628571Y-56983333D01*
X265819047Y-56983333D01*
X265914285Y-57030952D01*
X265961904Y-57078571D01*
X266009523Y-57173809D01*
X277439285Y-38552380D02*
X277439285Y-37552380D01*
X277201190Y-37552380D01*
X277058333Y-37600000D01*
X276963095Y-37695238D01*
X276915476Y-37790476D01*
X276867857Y-37980952D01*
X276867857Y-38123809D01*
X276915476Y-38314285D01*
X276963095Y-38409523D01*
X277058333Y-38504761D01*
X277201190Y-38552380D01*
X277439285Y-38552380D01*
X275915476Y-38552380D02*
X276486904Y-38552380D01*
X276201190Y-38552380D02*
X276201190Y-37552380D01*
X276296428Y-37695238D01*
X276391666Y-37790476D01*
X276486904Y-37838095D01*
X275582142Y-37552380D02*
X274915476Y-37552380D01*
X275344047Y-38552380D01*
X339714285Y-95702380D02*
X339714285Y-94702380D01*
X339476190Y-94702380D01*
X339333333Y-94750000D01*
X339238095Y-94845238D01*
X339190476Y-94940476D01*
X339142857Y-95130952D01*
X339142857Y-95273809D01*
X339190476Y-95464285D01*
X339238095Y-95559523D01*
X339333333Y-95654761D01*
X339476190Y-95702380D01*
X339714285Y-95702380D01*
X338190476Y-95702380D02*
X338761904Y-95702380D01*
X338476190Y-95702380D02*
X338476190Y-94702380D01*
X338571428Y-94845238D01*
X338666666Y-94940476D01*
X338761904Y-94988095D01*
X337619047Y-95130952D02*
X337714285Y-95083333D01*
X337761904Y-95035714D01*
X337809523Y-94940476D01*
X337809523Y-94892857D01*
X337761904Y-94797619D01*
X337714285Y-94750000D01*
X337619047Y-94702380D01*
X337428571Y-94702380D01*
X337333333Y-94750000D01*
X337285714Y-94797619D01*
X337238095Y-94892857D01*
X337238095Y-94940476D01*
X337285714Y-95035714D01*
X337333333Y-95083333D01*
X337428571Y-95130952D01*
X337619047Y-95130952D01*
X337714285Y-95178571D01*
X337761904Y-95226190D01*
X337809523Y-95321428D01*
X337809523Y-95511904D01*
X337761904Y-95607142D01*
X337714285Y-95654761D01*
X337619047Y-95702380D01*
X337428571Y-95702380D01*
X337333333Y-95654761D01*
X337285714Y-95607142D01*
X337238095Y-95511904D01*
X337238095Y-95321428D01*
X337285714Y-95226190D01*
X337333333Y-95178571D01*
X337428571Y-95130952D01*
X306014285Y-114752380D02*
X306014285Y-113752380D01*
X305776190Y-113752380D01*
X305633333Y-113800000D01*
X305538095Y-113895238D01*
X305490476Y-113990476D01*
X305442857Y-114180952D01*
X305442857Y-114323809D01*
X305490476Y-114514285D01*
X305538095Y-114609523D01*
X305633333Y-114704761D01*
X305776190Y-114752380D01*
X306014285Y-114752380D01*
X305061904Y-113847619D02*
X305014285Y-113800000D01*
X304919047Y-113752380D01*
X304680952Y-113752380D01*
X304585714Y-113800000D01*
X304538095Y-113847619D01*
X304490476Y-113942857D01*
X304490476Y-114038095D01*
X304538095Y-114180952D01*
X305109523Y-114752380D01*
X304490476Y-114752380D01*
X303871428Y-113752380D02*
X303776190Y-113752380D01*
X303680952Y-113800000D01*
X303633333Y-113847619D01*
X303585714Y-113942857D01*
X303538095Y-114133333D01*
X303538095Y-114371428D01*
X303585714Y-114561904D01*
X303633333Y-114657142D01*
X303680952Y-114704761D01*
X303776190Y-114752380D01*
X303871428Y-114752380D01*
X303966666Y-114704761D01*
X304014285Y-114657142D01*
X304061904Y-114561904D01*
X304109523Y-114371428D01*
X304109523Y-114133333D01*
X304061904Y-113942857D01*
X304014285Y-113847619D01*
X303966666Y-113800000D01*
X303871428Y-113752380D01*
X305464285Y-95702380D02*
X305464285Y-94702380D01*
X305226190Y-94702380D01*
X305083333Y-94750000D01*
X304988095Y-94845238D01*
X304940476Y-94940476D01*
X304892857Y-95130952D01*
X304892857Y-95273809D01*
X304940476Y-95464285D01*
X304988095Y-95559523D01*
X305083333Y-95654761D01*
X305226190Y-95702380D01*
X305464285Y-95702380D01*
X304511904Y-94797619D02*
X304464285Y-94750000D01*
X304369047Y-94702380D01*
X304130952Y-94702380D01*
X304035714Y-94750000D01*
X303988095Y-94797619D01*
X303940476Y-94892857D01*
X303940476Y-94988095D01*
X303988095Y-95130952D01*
X304559523Y-95702380D01*
X303940476Y-95702380D01*
X302988095Y-95702380D02*
X303559523Y-95702380D01*
X303273809Y-95702380D02*
X303273809Y-94702380D01*
X303369047Y-94845238D01*
X303464285Y-94940476D01*
X303559523Y-94988095D01*
X325464285Y-95702380D02*
X325464285Y-94702380D01*
X325226190Y-94702380D01*
X325083333Y-94750000D01*
X324988095Y-94845238D01*
X324940476Y-94940476D01*
X324892857Y-95130952D01*
X324892857Y-95273809D01*
X324940476Y-95464285D01*
X324988095Y-95559523D01*
X325083333Y-95654761D01*
X325226190Y-95702380D01*
X325464285Y-95702380D01*
X324511904Y-94797619D02*
X324464285Y-94750000D01*
X324369047Y-94702380D01*
X324130952Y-94702380D01*
X324035714Y-94750000D01*
X323988095Y-94797619D01*
X323940476Y-94892857D01*
X323940476Y-94988095D01*
X323988095Y-95130952D01*
X324559523Y-95702380D01*
X323940476Y-95702380D01*
X323559523Y-94797619D02*
X323511904Y-94750000D01*
X323416666Y-94702380D01*
X323178571Y-94702380D01*
X323083333Y-94750000D01*
X323035714Y-94797619D01*
X322988095Y-94892857D01*
X322988095Y-94988095D01*
X323035714Y-95130952D01*
X323607142Y-95702380D01*
X322988095Y-95702380D01*
X291214285Y-57602380D02*
X291214285Y-56602380D01*
X290976190Y-56602380D01*
X290833333Y-56650000D01*
X290738095Y-56745238D01*
X290690476Y-56840476D01*
X290642857Y-57030952D01*
X290642857Y-57173809D01*
X290690476Y-57364285D01*
X290738095Y-57459523D01*
X290833333Y-57554761D01*
X290976190Y-57602380D01*
X291214285Y-57602380D01*
X290261904Y-56697619D02*
X290214285Y-56650000D01*
X290119047Y-56602380D01*
X289880952Y-56602380D01*
X289785714Y-56650000D01*
X289738095Y-56697619D01*
X289690476Y-56792857D01*
X289690476Y-56888095D01*
X289738095Y-57030952D01*
X290309523Y-57602380D01*
X289690476Y-57602380D01*
X289357142Y-56602380D02*
X288738095Y-56602380D01*
X289071428Y-56983333D01*
X288928571Y-56983333D01*
X288833333Y-57030952D01*
X288785714Y-57078571D01*
X288738095Y-57173809D01*
X288738095Y-57411904D01*
X288785714Y-57507142D01*
X288833333Y-57554761D01*
X288928571Y-57602380D01*
X289214285Y-57602380D01*
X289309523Y-57554761D01*
X289357142Y-57507142D01*
X287214285Y-57602380D02*
X287214285Y-56602380D01*
X286976190Y-56602380D01*
X286833333Y-56650000D01*
X286738095Y-56745238D01*
X286690476Y-56840476D01*
X286642857Y-57030952D01*
X286642857Y-57173809D01*
X286690476Y-57364285D01*
X286738095Y-57459523D01*
X286833333Y-57554761D01*
X286976190Y-57602380D01*
X287214285Y-57602380D01*
X286261904Y-56697619D02*
X286214285Y-56650000D01*
X286119047Y-56602380D01*
X285880952Y-56602380D01*
X285785714Y-56650000D01*
X285738095Y-56697619D01*
X285690476Y-56792857D01*
X285690476Y-56888095D01*
X285738095Y-57030952D01*
X286309523Y-57602380D01*
X285690476Y-57602380D01*
X284833333Y-56935714D02*
X284833333Y-57602380D01*
X285071428Y-56554761D02*
X285309523Y-57269047D01*
X284690476Y-57269047D01*
X274452380Y-44785714D02*
X273452380Y-44785714D01*
X273452380Y-45023809D01*
X273500000Y-45166666D01*
X273595238Y-45261904D01*
X273690476Y-45309523D01*
X273880952Y-45357142D01*
X274023809Y-45357142D01*
X274214285Y-45309523D01*
X274309523Y-45261904D01*
X274404761Y-45166666D01*
X274452380Y-45023809D01*
X274452380Y-44785714D01*
X273547619Y-45738095D02*
X273500000Y-45785714D01*
X273452380Y-45880952D01*
X273452380Y-46119047D01*
X273500000Y-46214285D01*
X273547619Y-46261904D01*
X273642857Y-46309523D01*
X273738095Y-46309523D01*
X273880952Y-46261904D01*
X274452380Y-45690476D01*
X274452380Y-46309523D01*
X273452380Y-47214285D02*
X273452380Y-46738095D01*
X273928571Y-46690476D01*
X273880952Y-46738095D01*
X273833333Y-46833333D01*
X273833333Y-47071428D01*
X273880952Y-47166666D01*
X273928571Y-47214285D01*
X274023809Y-47261904D01*
X274261904Y-47261904D01*
X274357142Y-47214285D01*
X274404761Y-47166666D01*
X274452380Y-47071428D01*
X274452380Y-46833333D01*
X274404761Y-46738095D01*
X274357142Y-46690476D01*
X295952380Y-44785714D02*
X294952380Y-44785714D01*
X294952380Y-45023809D01*
X295000000Y-45166666D01*
X295095238Y-45261904D01*
X295190476Y-45309523D01*
X295380952Y-45357142D01*
X295523809Y-45357142D01*
X295714285Y-45309523D01*
X295809523Y-45261904D01*
X295904761Y-45166666D01*
X295952380Y-45023809D01*
X295952380Y-44785714D01*
X295047619Y-45738095D02*
X295000000Y-45785714D01*
X294952380Y-45880952D01*
X294952380Y-46119047D01*
X295000000Y-46214285D01*
X295047619Y-46261904D01*
X295142857Y-46309523D01*
X295238095Y-46309523D01*
X295380952Y-46261904D01*
X295952380Y-45690476D01*
X295952380Y-46309523D01*
X294952380Y-47166666D02*
X294952380Y-46976190D01*
X295000000Y-46880952D01*
X295047619Y-46833333D01*
X295190476Y-46738095D01*
X295380952Y-46690476D01*
X295761904Y-46690476D01*
X295857142Y-46738095D01*
X295904761Y-46785714D01*
X295952380Y-46880952D01*
X295952380Y-47071428D01*
X295904761Y-47166666D01*
X295857142Y-47214285D01*
X295761904Y-47261904D01*
X295523809Y-47261904D01*
X295428571Y-47214285D01*
X295380952Y-47166666D01*
X295333333Y-47071428D01*
X295333333Y-46880952D01*
X295380952Y-46785714D01*
X295428571Y-46738095D01*
X295523809Y-46690476D01*
X312964285Y-57602380D02*
X312964285Y-56602380D01*
X312726190Y-56602380D01*
X312583333Y-56650000D01*
X312488095Y-56745238D01*
X312440476Y-56840476D01*
X312392857Y-57030952D01*
X312392857Y-57173809D01*
X312440476Y-57364285D01*
X312488095Y-57459523D01*
X312583333Y-57554761D01*
X312726190Y-57602380D01*
X312964285Y-57602380D01*
X312011904Y-56697619D02*
X311964285Y-56650000D01*
X311869047Y-56602380D01*
X311630952Y-56602380D01*
X311535714Y-56650000D01*
X311488095Y-56697619D01*
X311440476Y-56792857D01*
X311440476Y-56888095D01*
X311488095Y-57030952D01*
X312059523Y-57602380D01*
X311440476Y-57602380D01*
X311107142Y-56602380D02*
X310440476Y-56602380D01*
X310869047Y-57602380D01*
X334964285Y-95702380D02*
X334964285Y-94702380D01*
X334726190Y-94702380D01*
X334583333Y-94750000D01*
X334488095Y-94845238D01*
X334440476Y-94940476D01*
X334392857Y-95130952D01*
X334392857Y-95273809D01*
X334440476Y-95464285D01*
X334488095Y-95559523D01*
X334583333Y-95654761D01*
X334726190Y-95702380D01*
X334964285Y-95702380D01*
X334011904Y-94797619D02*
X333964285Y-94750000D01*
X333869047Y-94702380D01*
X333630952Y-94702380D01*
X333535714Y-94750000D01*
X333488095Y-94797619D01*
X333440476Y-94892857D01*
X333440476Y-94988095D01*
X333488095Y-95130952D01*
X334059523Y-95702380D01*
X333440476Y-95702380D01*
X332869047Y-95130952D02*
X332964285Y-95083333D01*
X333011904Y-95035714D01*
X333059523Y-94940476D01*
X333059523Y-94892857D01*
X333011904Y-94797619D01*
X332964285Y-94750000D01*
X332869047Y-94702380D01*
X332678571Y-94702380D01*
X332583333Y-94750000D01*
X332535714Y-94797619D01*
X332488095Y-94892857D01*
X332488095Y-94940476D01*
X332535714Y-95035714D01*
X332583333Y-95083333D01*
X332678571Y-95130952D01*
X332869047Y-95130952D01*
X332964285Y-95178571D01*
X333011904Y-95226190D01*
X333059523Y-95321428D01*
X333059523Y-95511904D01*
X333011904Y-95607142D01*
X332964285Y-95654761D01*
X332869047Y-95702380D01*
X332678571Y-95702380D01*
X332583333Y-95654761D01*
X332535714Y-95607142D01*
X332488095Y-95511904D01*
X332488095Y-95321428D01*
X332535714Y-95226190D01*
X332583333Y-95178571D01*
X332678571Y-95130952D01*
X34214285Y-95702380D02*
X34214285Y-94702380D01*
X33976190Y-94702380D01*
X33833333Y-94750000D01*
X33738095Y-94845238D01*
X33690476Y-94940476D01*
X33642857Y-95130952D01*
X33642857Y-95273809D01*
X33690476Y-95464285D01*
X33738095Y-95559523D01*
X33833333Y-95654761D01*
X33976190Y-95702380D01*
X34214285Y-95702380D01*
X33309523Y-94702380D02*
X32690476Y-94702380D01*
X33023809Y-95083333D01*
X32880952Y-95083333D01*
X32785714Y-95130952D01*
X32738095Y-95178571D01*
X32690476Y-95273809D01*
X32690476Y-95511904D01*
X32738095Y-95607142D01*
X32785714Y-95654761D01*
X32880952Y-95702380D01*
X33166666Y-95702380D01*
X33261904Y-95654761D01*
X33309523Y-95607142D01*
X32071428Y-94702380D02*
X31976190Y-94702380D01*
X31880952Y-94750000D01*
X31833333Y-94797619D01*
X31785714Y-94892857D01*
X31738095Y-95083333D01*
X31738095Y-95321428D01*
X31785714Y-95511904D01*
X31833333Y-95607142D01*
X31880952Y-95654761D01*
X31976190Y-95702380D01*
X32071428Y-95702380D01*
X32166666Y-95654761D01*
X32214285Y-95607142D01*
X32261904Y-95511904D01*
X32309523Y-95321428D01*
X32309523Y-95083333D01*
X32261904Y-94892857D01*
X32214285Y-94797619D01*
X32166666Y-94750000D01*
X32071428Y-94702380D01*
X41695535Y-95702380D02*
X41695535Y-94702380D01*
X41457440Y-94702380D01*
X41314583Y-94750000D01*
X41219345Y-94845238D01*
X41171726Y-94940476D01*
X41124107Y-95130952D01*
X41124107Y-95273809D01*
X41171726Y-95464285D01*
X41219345Y-95559523D01*
X41314583Y-95654761D01*
X41457440Y-95702380D01*
X41695535Y-95702380D01*
X40790773Y-94702380D02*
X40171726Y-94702380D01*
X40505059Y-95083333D01*
X40362202Y-95083333D01*
X40266964Y-95130952D01*
X40219345Y-95178571D01*
X40171726Y-95273809D01*
X40171726Y-95511904D01*
X40219345Y-95607142D01*
X40266964Y-95654761D01*
X40362202Y-95702380D01*
X40647916Y-95702380D01*
X40743154Y-95654761D01*
X40790773Y-95607142D01*
X39219345Y-95702380D02*
X39790773Y-95702380D01*
X39505059Y-95702380D02*
X39505059Y-94702380D01*
X39600297Y-94845238D01*
X39695535Y-94940476D01*
X39790773Y-94988095D01*
X38952380Y-64285714D02*
X37952380Y-64285714D01*
X37952380Y-64523809D01*
X38000000Y-64666666D01*
X38095238Y-64761904D01*
X38190476Y-64809523D01*
X38380952Y-64857142D01*
X38523809Y-64857142D01*
X38714285Y-64809523D01*
X38809523Y-64761904D01*
X38904761Y-64666666D01*
X38952380Y-64523809D01*
X38952380Y-64285714D01*
X37952380Y-65190476D02*
X37952380Y-65809523D01*
X38333333Y-65476190D01*
X38333333Y-65619047D01*
X38380952Y-65714285D01*
X38428571Y-65761904D01*
X38523809Y-65809523D01*
X38761904Y-65809523D01*
X38857142Y-65761904D01*
X38904761Y-65714285D01*
X38952380Y-65619047D01*
X38952380Y-65333333D01*
X38904761Y-65238095D01*
X38857142Y-65190476D01*
X38047619Y-66190476D02*
X38000000Y-66238095D01*
X37952380Y-66333333D01*
X37952380Y-66571428D01*
X38000000Y-66666666D01*
X38047619Y-66714285D01*
X38142857Y-66761904D01*
X38238095Y-66761904D01*
X38380952Y-66714285D01*
X38952380Y-66142857D01*
X38952380Y-66761904D01*
X82176785Y-76652380D02*
X82176785Y-75652380D01*
X81938690Y-75652380D01*
X81795833Y-75700000D01*
X81700595Y-75795238D01*
X81652976Y-75890476D01*
X81605357Y-76080952D01*
X81605357Y-76223809D01*
X81652976Y-76414285D01*
X81700595Y-76509523D01*
X81795833Y-76604761D01*
X81938690Y-76652380D01*
X82176785Y-76652380D01*
X81272023Y-75652380D02*
X80652976Y-75652380D01*
X80986309Y-76033333D01*
X80843452Y-76033333D01*
X80748214Y-76080952D01*
X80700595Y-76128571D01*
X80652976Y-76223809D01*
X80652976Y-76461904D01*
X80700595Y-76557142D01*
X80748214Y-76604761D01*
X80843452Y-76652380D01*
X81129166Y-76652380D01*
X81224404Y-76604761D01*
X81272023Y-76557142D01*
X80319642Y-75652380D02*
X79700595Y-75652380D01*
X80033928Y-76033333D01*
X79891071Y-76033333D01*
X79795833Y-76080952D01*
X79748214Y-76128571D01*
X79700595Y-76223809D01*
X79700595Y-76461904D01*
X79748214Y-76557142D01*
X79795833Y-76604761D01*
X79891071Y-76652380D01*
X80176785Y-76652380D01*
X80272023Y-76604761D01*
X80319642Y-76557142D01*
X34551785Y-57602380D02*
X34551785Y-56602380D01*
X34313690Y-56602380D01*
X34170833Y-56650000D01*
X34075595Y-56745238D01*
X34027976Y-56840476D01*
X33980357Y-57030952D01*
X33980357Y-57173809D01*
X34027976Y-57364285D01*
X34075595Y-57459523D01*
X34170833Y-57554761D01*
X34313690Y-57602380D01*
X34551785Y-57602380D01*
X33647023Y-56602380D02*
X33027976Y-56602380D01*
X33361309Y-56983333D01*
X33218452Y-56983333D01*
X33123214Y-57030952D01*
X33075595Y-57078571D01*
X33027976Y-57173809D01*
X33027976Y-57411904D01*
X33075595Y-57507142D01*
X33123214Y-57554761D01*
X33218452Y-57602380D01*
X33504166Y-57602380D01*
X33599404Y-57554761D01*
X33647023Y-57507142D01*
X32170833Y-56935714D02*
X32170833Y-57602380D01*
X32408928Y-56554761D02*
X32647023Y-57269047D01*
X32027976Y-57269047D01*
X77414285Y-57602380D02*
X77414285Y-56602380D01*
X77176190Y-56602380D01*
X77033333Y-56650000D01*
X76938095Y-56745238D01*
X76890476Y-56840476D01*
X76842857Y-57030952D01*
X76842857Y-57173809D01*
X76890476Y-57364285D01*
X76938095Y-57459523D01*
X77033333Y-57554761D01*
X77176190Y-57602380D01*
X77414285Y-57602380D01*
X76509523Y-56602380D02*
X75890476Y-56602380D01*
X76223809Y-56983333D01*
X76080952Y-56983333D01*
X75985714Y-57030952D01*
X75938095Y-57078571D01*
X75890476Y-57173809D01*
X75890476Y-57411904D01*
X75938095Y-57507142D01*
X75985714Y-57554761D01*
X76080952Y-57602380D01*
X76366666Y-57602380D01*
X76461904Y-57554761D01*
X76509523Y-57507142D01*
X74985714Y-56602380D02*
X75461904Y-56602380D01*
X75509523Y-57078571D01*
X75461904Y-57030952D01*
X75366666Y-56983333D01*
X75128571Y-56983333D01*
X75033333Y-57030952D01*
X74985714Y-57078571D01*
X74938095Y-57173809D01*
X74938095Y-57411904D01*
X74985714Y-57507142D01*
X75033333Y-57554761D01*
X75128571Y-57602380D01*
X75366666Y-57602380D01*
X75461904Y-57554761D01*
X75509523Y-57507142D01*
X48839285Y-38552380D02*
X48839285Y-37552380D01*
X48601190Y-37552380D01*
X48458333Y-37600000D01*
X48363095Y-37695238D01*
X48315476Y-37790476D01*
X48267857Y-37980952D01*
X48267857Y-38123809D01*
X48315476Y-38314285D01*
X48363095Y-38409523D01*
X48458333Y-38504761D01*
X48601190Y-38552380D01*
X48839285Y-38552380D01*
X47934523Y-37552380D02*
X47315476Y-37552380D01*
X47648809Y-37933333D01*
X47505952Y-37933333D01*
X47410714Y-37980952D01*
X47363095Y-38028571D01*
X47315476Y-38123809D01*
X47315476Y-38361904D01*
X47363095Y-38457142D01*
X47410714Y-38504761D01*
X47505952Y-38552380D01*
X47791666Y-38552380D01*
X47886904Y-38504761D01*
X47934523Y-38457142D01*
X46458333Y-37552380D02*
X46648809Y-37552380D01*
X46744047Y-37600000D01*
X46791666Y-37647619D01*
X46886904Y-37790476D01*
X46934523Y-37980952D01*
X46934523Y-38361904D01*
X46886904Y-38457142D01*
X46839285Y-38504761D01*
X46744047Y-38552380D01*
X46553571Y-38552380D01*
X46458333Y-38504761D01*
X46410714Y-38457142D01*
X46363095Y-38361904D01*
X46363095Y-38123809D01*
X46410714Y-38028571D01*
X46458333Y-37980952D01*
X46553571Y-37933333D01*
X46744047Y-37933333D01*
X46839285Y-37980952D01*
X46886904Y-38028571D01*
X46934523Y-38123809D01*
X67889285Y-38552380D02*
X67889285Y-37552380D01*
X67651190Y-37552380D01*
X67508333Y-37600000D01*
X67413095Y-37695238D01*
X67365476Y-37790476D01*
X67317857Y-37980952D01*
X67317857Y-38123809D01*
X67365476Y-38314285D01*
X67413095Y-38409523D01*
X67508333Y-38504761D01*
X67651190Y-38552380D01*
X67889285Y-38552380D01*
X66984523Y-37552380D02*
X66365476Y-37552380D01*
X66698809Y-37933333D01*
X66555952Y-37933333D01*
X66460714Y-37980952D01*
X66413095Y-38028571D01*
X66365476Y-38123809D01*
X66365476Y-38361904D01*
X66413095Y-38457142D01*
X66460714Y-38504761D01*
X66555952Y-38552380D01*
X66841666Y-38552380D01*
X66936904Y-38504761D01*
X66984523Y-38457142D01*
X66032142Y-37552380D02*
X65365476Y-37552380D01*
X65794047Y-38552380D01*
X217202380Y-102785714D02*
X216202380Y-102785714D01*
X216202380Y-103023809D01*
X216250000Y-103166666D01*
X216345238Y-103261904D01*
X216440476Y-103309523D01*
X216630952Y-103357142D01*
X216773809Y-103357142D01*
X216964285Y-103309523D01*
X217059523Y-103261904D01*
X217154761Y-103166666D01*
X217202380Y-103023809D01*
X217202380Y-102785714D01*
X216202380Y-103690476D02*
X216202380Y-104357142D01*
X217202380Y-103928571D01*
X216630952Y-104880952D02*
X216583333Y-104785714D01*
X216535714Y-104738095D01*
X216440476Y-104690476D01*
X216392857Y-104690476D01*
X216297619Y-104738095D01*
X216250000Y-104785714D01*
X216202380Y-104880952D01*
X216202380Y-105071428D01*
X216250000Y-105166666D01*
X216297619Y-105214285D01*
X216392857Y-105261904D01*
X216440476Y-105261904D01*
X216535714Y-105214285D01*
X216583333Y-105166666D01*
X216630952Y-105071428D01*
X216630952Y-104880952D01*
X216678571Y-104785714D01*
X216726190Y-104738095D01*
X216821428Y-104690476D01*
X217011904Y-104690476D01*
X217107142Y-104738095D01*
X217154761Y-104785714D01*
X217202380Y-104880952D01*
X217202380Y-105071428D01*
X217154761Y-105166666D01*
X217107142Y-105214285D01*
X217011904Y-105261904D01*
X216821428Y-105261904D01*
X216726190Y-105214285D01*
X216678571Y-105166666D01*
X216630952Y-105071428D01*
X68702380Y-105035714D02*
X67702380Y-105035714D01*
X67702380Y-105273809D01*
X67750000Y-105416666D01*
X67845238Y-105511904D01*
X67940476Y-105559523D01*
X68130952Y-105607142D01*
X68273809Y-105607142D01*
X68464285Y-105559523D01*
X68559523Y-105511904D01*
X68654761Y-105416666D01*
X68702380Y-105273809D01*
X68702380Y-105035714D01*
X68035714Y-106464285D02*
X68702380Y-106464285D01*
X67654761Y-106226190D02*
X68369047Y-105988095D01*
X68369047Y-106607142D01*
X67702380Y-107178571D02*
X67702380Y-107273809D01*
X67750000Y-107369047D01*
X67797619Y-107416666D01*
X67892857Y-107464285D01*
X68083333Y-107511904D01*
X68321428Y-107511904D01*
X68511904Y-107464285D01*
X68607142Y-107416666D01*
X68654761Y-107369047D01*
X68702380Y-107273809D01*
X68702380Y-107178571D01*
X68654761Y-107083333D01*
X68607142Y-107035714D01*
X68511904Y-106988095D01*
X68321428Y-106940476D01*
X68083333Y-106940476D01*
X67892857Y-106988095D01*
X67797619Y-107035714D01*
X67750000Y-107083333D01*
X67702380Y-107178571D01*
X91701785Y-95702380D02*
X91701785Y-94702380D01*
X91463690Y-94702380D01*
X91320833Y-94750000D01*
X91225595Y-94845238D01*
X91177976Y-94940476D01*
X91130357Y-95130952D01*
X91130357Y-95273809D01*
X91177976Y-95464285D01*
X91225595Y-95559523D01*
X91320833Y-95654761D01*
X91463690Y-95702380D01*
X91701785Y-95702380D01*
X90273214Y-95035714D02*
X90273214Y-95702380D01*
X90511309Y-94654761D02*
X90749404Y-95369047D01*
X90130357Y-95369047D01*
X89797023Y-94797619D02*
X89749404Y-94750000D01*
X89654166Y-94702380D01*
X89416071Y-94702380D01*
X89320833Y-94750000D01*
X89273214Y-94797619D01*
X89225595Y-94892857D01*
X89225595Y-94988095D01*
X89273214Y-95130952D01*
X89844642Y-95702380D01*
X89225595Y-95702380D01*
X101226785Y-76652380D02*
X101226785Y-75652380D01*
X100988690Y-75652380D01*
X100845833Y-75700000D01*
X100750595Y-75795238D01*
X100702976Y-75890476D01*
X100655357Y-76080952D01*
X100655357Y-76223809D01*
X100702976Y-76414285D01*
X100750595Y-76509523D01*
X100845833Y-76604761D01*
X100988690Y-76652380D01*
X101226785Y-76652380D01*
X99798214Y-75985714D02*
X99798214Y-76652380D01*
X100036309Y-75604761D02*
X100274404Y-76319047D01*
X99655357Y-76319047D01*
X99369642Y-75652380D02*
X98750595Y-75652380D01*
X99083928Y-76033333D01*
X98941071Y-76033333D01*
X98845833Y-76080952D01*
X98798214Y-76128571D01*
X98750595Y-76223809D01*
X98750595Y-76461904D01*
X98798214Y-76557142D01*
X98845833Y-76604761D01*
X98941071Y-76652380D01*
X99226785Y-76652380D01*
X99322023Y-76604761D01*
X99369642Y-76557142D01*
X96464285Y-57602380D02*
X96464285Y-56602380D01*
X96226190Y-56602380D01*
X96083333Y-56650000D01*
X95988095Y-56745238D01*
X95940476Y-56840476D01*
X95892857Y-57030952D01*
X95892857Y-57173809D01*
X95940476Y-57364285D01*
X95988095Y-57459523D01*
X96083333Y-57554761D01*
X96226190Y-57602380D01*
X96464285Y-57602380D01*
X95035714Y-56935714D02*
X95035714Y-57602380D01*
X95273809Y-56554761D02*
X95511904Y-57269047D01*
X94892857Y-57269047D01*
X94083333Y-56935714D02*
X94083333Y-57602380D01*
X94321428Y-56554761D02*
X94559523Y-57269047D01*
X93940476Y-57269047D01*
X115514285Y-57602380D02*
X115514285Y-56602380D01*
X115276190Y-56602380D01*
X115133333Y-56650000D01*
X115038095Y-56745238D01*
X114990476Y-56840476D01*
X114942857Y-57030952D01*
X114942857Y-57173809D01*
X114990476Y-57364285D01*
X115038095Y-57459523D01*
X115133333Y-57554761D01*
X115276190Y-57602380D01*
X115514285Y-57602380D01*
X114085714Y-56935714D02*
X114085714Y-57602380D01*
X114323809Y-56554761D02*
X114561904Y-57269047D01*
X113942857Y-57269047D01*
X113085714Y-56602380D02*
X113561904Y-56602380D01*
X113609523Y-57078571D01*
X113561904Y-57030952D01*
X113466666Y-56983333D01*
X113228571Y-56983333D01*
X113133333Y-57030952D01*
X113085714Y-57078571D01*
X113038095Y-57173809D01*
X113038095Y-57411904D01*
X113085714Y-57507142D01*
X113133333Y-57554761D01*
X113228571Y-57602380D01*
X113466666Y-57602380D01*
X113561904Y-57554761D01*
X113609523Y-57507142D01*
X86939285Y-38552380D02*
X86939285Y-37552380D01*
X86701190Y-37552380D01*
X86558333Y-37600000D01*
X86463095Y-37695238D01*
X86415476Y-37790476D01*
X86367857Y-37980952D01*
X86367857Y-38123809D01*
X86415476Y-38314285D01*
X86463095Y-38409523D01*
X86558333Y-38504761D01*
X86701190Y-38552380D01*
X86939285Y-38552380D01*
X85510714Y-37885714D02*
X85510714Y-38552380D01*
X85748809Y-37504761D02*
X85986904Y-38219047D01*
X85367857Y-38219047D01*
X84558333Y-37552380D02*
X84748809Y-37552380D01*
X84844047Y-37600000D01*
X84891666Y-37647619D01*
X84986904Y-37790476D01*
X85034523Y-37980952D01*
X85034523Y-38361904D01*
X84986904Y-38457142D01*
X84939285Y-38504761D01*
X84844047Y-38552380D01*
X84653571Y-38552380D01*
X84558333Y-38504761D01*
X84510714Y-38457142D01*
X84463095Y-38361904D01*
X84463095Y-38123809D01*
X84510714Y-38028571D01*
X84558333Y-37980952D01*
X84653571Y-37933333D01*
X84844047Y-37933333D01*
X84939285Y-37980952D01*
X84986904Y-38028571D01*
X85034523Y-38123809D01*
X105989285Y-38552380D02*
X105989285Y-37552380D01*
X105751190Y-37552380D01*
X105608333Y-37600000D01*
X105513095Y-37695238D01*
X105465476Y-37790476D01*
X105417857Y-37980952D01*
X105417857Y-38123809D01*
X105465476Y-38314285D01*
X105513095Y-38409523D01*
X105608333Y-38504761D01*
X105751190Y-38552380D01*
X105989285Y-38552380D01*
X104560714Y-37885714D02*
X104560714Y-38552380D01*
X104798809Y-37504761D02*
X105036904Y-38219047D01*
X104417857Y-38219047D01*
X104132142Y-37552380D02*
X103465476Y-37552380D01*
X103894047Y-38552380D01*
X110751785Y-95702380D02*
X110751785Y-94702380D01*
X110513690Y-94702380D01*
X110370833Y-94750000D01*
X110275595Y-94845238D01*
X110227976Y-94940476D01*
X110180357Y-95130952D01*
X110180357Y-95273809D01*
X110227976Y-95464285D01*
X110275595Y-95559523D01*
X110370833Y-95654761D01*
X110513690Y-95702380D01*
X110751785Y-95702380D01*
X109275595Y-94702380D02*
X109751785Y-94702380D01*
X109799404Y-95178571D01*
X109751785Y-95130952D01*
X109656547Y-95083333D01*
X109418452Y-95083333D01*
X109323214Y-95130952D01*
X109275595Y-95178571D01*
X109227976Y-95273809D01*
X109227976Y-95511904D01*
X109275595Y-95607142D01*
X109323214Y-95654761D01*
X109418452Y-95702380D01*
X109656547Y-95702380D01*
X109751785Y-95654761D01*
X109799404Y-95607142D01*
X108275595Y-95702380D02*
X108847023Y-95702380D01*
X108561309Y-95702380D02*
X108561309Y-94702380D01*
X108656547Y-94845238D01*
X108751785Y-94940476D01*
X108847023Y-94988095D01*
X120276785Y-76652380D02*
X120276785Y-75652380D01*
X120038690Y-75652380D01*
X119895833Y-75700000D01*
X119800595Y-75795238D01*
X119752976Y-75890476D01*
X119705357Y-76080952D01*
X119705357Y-76223809D01*
X119752976Y-76414285D01*
X119800595Y-76509523D01*
X119895833Y-76604761D01*
X120038690Y-76652380D01*
X120276785Y-76652380D01*
X118800595Y-75652380D02*
X119276785Y-75652380D01*
X119324404Y-76128571D01*
X119276785Y-76080952D01*
X119181547Y-76033333D01*
X118943452Y-76033333D01*
X118848214Y-76080952D01*
X118800595Y-76128571D01*
X118752976Y-76223809D01*
X118752976Y-76461904D01*
X118800595Y-76557142D01*
X118848214Y-76604761D01*
X118943452Y-76652380D01*
X119181547Y-76652380D01*
X119276785Y-76604761D01*
X119324404Y-76557142D01*
X118372023Y-75747619D02*
X118324404Y-75700000D01*
X118229166Y-75652380D01*
X117991071Y-75652380D01*
X117895833Y-75700000D01*
X117848214Y-75747619D01*
X117800595Y-75842857D01*
X117800595Y-75938095D01*
X117848214Y-76080952D01*
X118419642Y-76652380D01*
X117800595Y-76652380D01*
X132702380Y-64285714D02*
X131702380Y-64285714D01*
X131702380Y-64523809D01*
X131750000Y-64666666D01*
X131845238Y-64761904D01*
X131940476Y-64809523D01*
X132130952Y-64857142D01*
X132273809Y-64857142D01*
X132464285Y-64809523D01*
X132559523Y-64761904D01*
X132654761Y-64666666D01*
X132702380Y-64523809D01*
X132702380Y-64285714D01*
X131702380Y-65761904D02*
X131702380Y-65285714D01*
X132178571Y-65238095D01*
X132130952Y-65285714D01*
X132083333Y-65380952D01*
X132083333Y-65619047D01*
X132130952Y-65714285D01*
X132178571Y-65761904D01*
X132273809Y-65809523D01*
X132511904Y-65809523D01*
X132607142Y-65761904D01*
X132654761Y-65714285D01*
X132702380Y-65619047D01*
X132702380Y-65380952D01*
X132654761Y-65285714D01*
X132607142Y-65238095D01*
X131702380Y-66142857D02*
X131702380Y-66761904D01*
X132083333Y-66428571D01*
X132083333Y-66571428D01*
X132130952Y-66666666D01*
X132178571Y-66714285D01*
X132273809Y-66761904D01*
X132511904Y-66761904D01*
X132607142Y-66714285D01*
X132654761Y-66666666D01*
X132702380Y-66571428D01*
X132702380Y-66285714D01*
X132654761Y-66190476D01*
X132607142Y-66142857D01*
X134564285Y-57602380D02*
X134564285Y-56602380D01*
X134326190Y-56602380D01*
X134183333Y-56650000D01*
X134088095Y-56745238D01*
X134040476Y-56840476D01*
X133992857Y-57030952D01*
X133992857Y-57173809D01*
X134040476Y-57364285D01*
X134088095Y-57459523D01*
X134183333Y-57554761D01*
X134326190Y-57602380D01*
X134564285Y-57602380D01*
X133088095Y-56602380D02*
X133564285Y-56602380D01*
X133611904Y-57078571D01*
X133564285Y-57030952D01*
X133469047Y-56983333D01*
X133230952Y-56983333D01*
X133135714Y-57030952D01*
X133088095Y-57078571D01*
X133040476Y-57173809D01*
X133040476Y-57411904D01*
X133088095Y-57507142D01*
X133135714Y-57554761D01*
X133230952Y-57602380D01*
X133469047Y-57602380D01*
X133564285Y-57554761D01*
X133611904Y-57507142D01*
X132183333Y-56935714D02*
X132183333Y-57602380D01*
X132421428Y-56554761D02*
X132659523Y-57269047D01*
X132040476Y-57269047D01*
X153614285Y-57602380D02*
X153614285Y-56602380D01*
X153376190Y-56602380D01*
X153233333Y-56650000D01*
X153138095Y-56745238D01*
X153090476Y-56840476D01*
X153042857Y-57030952D01*
X153042857Y-57173809D01*
X153090476Y-57364285D01*
X153138095Y-57459523D01*
X153233333Y-57554761D01*
X153376190Y-57602380D01*
X153614285Y-57602380D01*
X152138095Y-56602380D02*
X152614285Y-56602380D01*
X152661904Y-57078571D01*
X152614285Y-57030952D01*
X152519047Y-56983333D01*
X152280952Y-56983333D01*
X152185714Y-57030952D01*
X152138095Y-57078571D01*
X152090476Y-57173809D01*
X152090476Y-57411904D01*
X152138095Y-57507142D01*
X152185714Y-57554761D01*
X152280952Y-57602380D01*
X152519047Y-57602380D01*
X152614285Y-57554761D01*
X152661904Y-57507142D01*
X151185714Y-56602380D02*
X151661904Y-56602380D01*
X151709523Y-57078571D01*
X151661904Y-57030952D01*
X151566666Y-56983333D01*
X151328571Y-56983333D01*
X151233333Y-57030952D01*
X151185714Y-57078571D01*
X151138095Y-57173809D01*
X151138095Y-57411904D01*
X151185714Y-57507142D01*
X151233333Y-57554761D01*
X151328571Y-57602380D01*
X151566666Y-57602380D01*
X151661904Y-57554761D01*
X151709523Y-57507142D01*
X125039285Y-38552380D02*
X125039285Y-37552380D01*
X124801190Y-37552380D01*
X124658333Y-37600000D01*
X124563095Y-37695238D01*
X124515476Y-37790476D01*
X124467857Y-37980952D01*
X124467857Y-38123809D01*
X124515476Y-38314285D01*
X124563095Y-38409523D01*
X124658333Y-38504761D01*
X124801190Y-38552380D01*
X125039285Y-38552380D01*
X123563095Y-37552380D02*
X124039285Y-37552380D01*
X124086904Y-38028571D01*
X124039285Y-37980952D01*
X123944047Y-37933333D01*
X123705952Y-37933333D01*
X123610714Y-37980952D01*
X123563095Y-38028571D01*
X123515476Y-38123809D01*
X123515476Y-38361904D01*
X123563095Y-38457142D01*
X123610714Y-38504761D01*
X123705952Y-38552380D01*
X123944047Y-38552380D01*
X124039285Y-38504761D01*
X124086904Y-38457142D01*
X122658333Y-37552380D02*
X122848809Y-37552380D01*
X122944047Y-37600000D01*
X122991666Y-37647619D01*
X123086904Y-37790476D01*
X123134523Y-37980952D01*
X123134523Y-38361904D01*
X123086904Y-38457142D01*
X123039285Y-38504761D01*
X122944047Y-38552380D01*
X122753571Y-38552380D01*
X122658333Y-38504761D01*
X122610714Y-38457142D01*
X122563095Y-38361904D01*
X122563095Y-38123809D01*
X122610714Y-38028571D01*
X122658333Y-37980952D01*
X122753571Y-37933333D01*
X122944047Y-37933333D01*
X123039285Y-37980952D01*
X123086904Y-38028571D01*
X123134523Y-38123809D01*
X144089285Y-38552380D02*
X144089285Y-37552380D01*
X143851190Y-37552380D01*
X143708333Y-37600000D01*
X143613095Y-37695238D01*
X143565476Y-37790476D01*
X143517857Y-37980952D01*
X143517857Y-38123809D01*
X143565476Y-38314285D01*
X143613095Y-38409523D01*
X143708333Y-38504761D01*
X143851190Y-38552380D01*
X144089285Y-38552380D01*
X142613095Y-37552380D02*
X143089285Y-37552380D01*
X143136904Y-38028571D01*
X143089285Y-37980952D01*
X142994047Y-37933333D01*
X142755952Y-37933333D01*
X142660714Y-37980952D01*
X142613095Y-38028571D01*
X142565476Y-38123809D01*
X142565476Y-38361904D01*
X142613095Y-38457142D01*
X142660714Y-38504761D01*
X142755952Y-38552380D01*
X142994047Y-38552380D01*
X143089285Y-38504761D01*
X143136904Y-38457142D01*
X142232142Y-37552380D02*
X141565476Y-37552380D01*
X141994047Y-38552380D01*
X181714285Y-113452380D02*
X181714285Y-112452380D01*
X181476190Y-112452380D01*
X181333333Y-112500000D01*
X181238095Y-112595238D01*
X181190476Y-112690476D01*
X181142857Y-112880952D01*
X181142857Y-113023809D01*
X181190476Y-113214285D01*
X181238095Y-113309523D01*
X181333333Y-113404761D01*
X181476190Y-113452380D01*
X181714285Y-113452380D01*
X180285714Y-112452380D02*
X180476190Y-112452380D01*
X180571428Y-112500000D01*
X180619047Y-112547619D01*
X180714285Y-112690476D01*
X180761904Y-112880952D01*
X180761904Y-113261904D01*
X180714285Y-113357142D01*
X180666666Y-113404761D01*
X180571428Y-113452380D01*
X180380952Y-113452380D01*
X180285714Y-113404761D01*
X180238095Y-113357142D01*
X180190476Y-113261904D01*
X180190476Y-113023809D01*
X180238095Y-112928571D01*
X180285714Y-112880952D01*
X180380952Y-112833333D01*
X180571428Y-112833333D01*
X180666666Y-112880952D01*
X180714285Y-112928571D01*
X180761904Y-113023809D01*
X179571428Y-112452380D02*
X179476190Y-112452380D01*
X179380952Y-112500000D01*
X179333333Y-112547619D01*
X179285714Y-112642857D01*
X179238095Y-112833333D01*
X179238095Y-113071428D01*
X179285714Y-113261904D01*
X179333333Y-113357142D01*
X179380952Y-113404761D01*
X179476190Y-113452380D01*
X179571428Y-113452380D01*
X179666666Y-113404761D01*
X179714285Y-113357142D01*
X179761904Y-113261904D01*
X179809523Y-113071428D01*
X179809523Y-112833333D01*
X179761904Y-112642857D01*
X179714285Y-112547619D01*
X179666666Y-112500000D01*
X179571428Y-112452380D01*
X129801785Y-95702380D02*
X129801785Y-94702380D01*
X129563690Y-94702380D01*
X129420833Y-94750000D01*
X129325595Y-94845238D01*
X129277976Y-94940476D01*
X129230357Y-95130952D01*
X129230357Y-95273809D01*
X129277976Y-95464285D01*
X129325595Y-95559523D01*
X129420833Y-95654761D01*
X129563690Y-95702380D01*
X129801785Y-95702380D01*
X128373214Y-94702380D02*
X128563690Y-94702380D01*
X128658928Y-94750000D01*
X128706547Y-94797619D01*
X128801785Y-94940476D01*
X128849404Y-95130952D01*
X128849404Y-95511904D01*
X128801785Y-95607142D01*
X128754166Y-95654761D01*
X128658928Y-95702380D01*
X128468452Y-95702380D01*
X128373214Y-95654761D01*
X128325595Y-95607142D01*
X128277976Y-95511904D01*
X128277976Y-95273809D01*
X128325595Y-95178571D01*
X128373214Y-95130952D01*
X128468452Y-95083333D01*
X128658928Y-95083333D01*
X128754166Y-95130952D01*
X128801785Y-95178571D01*
X128849404Y-95273809D01*
X127325595Y-95702380D02*
X127897023Y-95702380D01*
X127611309Y-95702380D02*
X127611309Y-94702380D01*
X127706547Y-94845238D01*
X127801785Y-94940476D01*
X127897023Y-94988095D01*
X148851785Y-95702380D02*
X148851785Y-94702380D01*
X148613690Y-94702380D01*
X148470833Y-94750000D01*
X148375595Y-94845238D01*
X148327976Y-94940476D01*
X148280357Y-95130952D01*
X148280357Y-95273809D01*
X148327976Y-95464285D01*
X148375595Y-95559523D01*
X148470833Y-95654761D01*
X148613690Y-95702380D01*
X148851785Y-95702380D01*
X147423214Y-94702380D02*
X147613690Y-94702380D01*
X147708928Y-94750000D01*
X147756547Y-94797619D01*
X147851785Y-94940476D01*
X147899404Y-95130952D01*
X147899404Y-95511904D01*
X147851785Y-95607142D01*
X147804166Y-95654761D01*
X147708928Y-95702380D01*
X147518452Y-95702380D01*
X147423214Y-95654761D01*
X147375595Y-95607142D01*
X147327976Y-95511904D01*
X147327976Y-95273809D01*
X147375595Y-95178571D01*
X147423214Y-95130952D01*
X147518452Y-95083333D01*
X147708928Y-95083333D01*
X147804166Y-95130952D01*
X147851785Y-95178571D01*
X147899404Y-95273809D01*
X146947023Y-94797619D02*
X146899404Y-94750000D01*
X146804166Y-94702380D01*
X146566071Y-94702380D01*
X146470833Y-94750000D01*
X146423214Y-94797619D01*
X146375595Y-94892857D01*
X146375595Y-94988095D01*
X146423214Y-95130952D01*
X146994642Y-95702380D01*
X146375595Y-95702380D01*
X154952380Y-64285714D02*
X153952380Y-64285714D01*
X153952380Y-64523809D01*
X154000000Y-64666666D01*
X154095238Y-64761904D01*
X154190476Y-64809523D01*
X154380952Y-64857142D01*
X154523809Y-64857142D01*
X154714285Y-64809523D01*
X154809523Y-64761904D01*
X154904761Y-64666666D01*
X154952380Y-64523809D01*
X154952380Y-64285714D01*
X153952380Y-65714285D02*
X153952380Y-65523809D01*
X154000000Y-65428571D01*
X154047619Y-65380952D01*
X154190476Y-65285714D01*
X154380952Y-65238095D01*
X154761904Y-65238095D01*
X154857142Y-65285714D01*
X154904761Y-65333333D01*
X154952380Y-65428571D01*
X154952380Y-65619047D01*
X154904761Y-65714285D01*
X154857142Y-65761904D01*
X154761904Y-65809523D01*
X154523809Y-65809523D01*
X154428571Y-65761904D01*
X154380952Y-65714285D01*
X154333333Y-65619047D01*
X154333333Y-65428571D01*
X154380952Y-65333333D01*
X154428571Y-65285714D01*
X154523809Y-65238095D01*
X153952380Y-66142857D02*
X153952380Y-66761904D01*
X154333333Y-66428571D01*
X154333333Y-66571428D01*
X154380952Y-66666666D01*
X154428571Y-66714285D01*
X154523809Y-66761904D01*
X154761904Y-66761904D01*
X154857142Y-66714285D01*
X154904761Y-66666666D01*
X154952380Y-66571428D01*
X154952380Y-66285714D01*
X154904761Y-66190476D01*
X154857142Y-66142857D01*
X172664285Y-57602380D02*
X172664285Y-56602380D01*
X172426190Y-56602380D01*
X172283333Y-56650000D01*
X172188095Y-56745238D01*
X172140476Y-56840476D01*
X172092857Y-57030952D01*
X172092857Y-57173809D01*
X172140476Y-57364285D01*
X172188095Y-57459523D01*
X172283333Y-57554761D01*
X172426190Y-57602380D01*
X172664285Y-57602380D01*
X171235714Y-56602380D02*
X171426190Y-56602380D01*
X171521428Y-56650000D01*
X171569047Y-56697619D01*
X171664285Y-56840476D01*
X171711904Y-57030952D01*
X171711904Y-57411904D01*
X171664285Y-57507142D01*
X171616666Y-57554761D01*
X171521428Y-57602380D01*
X171330952Y-57602380D01*
X171235714Y-57554761D01*
X171188095Y-57507142D01*
X171140476Y-57411904D01*
X171140476Y-57173809D01*
X171188095Y-57078571D01*
X171235714Y-57030952D01*
X171330952Y-56983333D01*
X171521428Y-56983333D01*
X171616666Y-57030952D01*
X171664285Y-57078571D01*
X171711904Y-57173809D01*
X170283333Y-56935714D02*
X170283333Y-57602380D01*
X170521428Y-56554761D02*
X170759523Y-57269047D01*
X170140476Y-57269047D01*
X191714285Y-57602380D02*
X191714285Y-56602380D01*
X191476190Y-56602380D01*
X191333333Y-56650000D01*
X191238095Y-56745238D01*
X191190476Y-56840476D01*
X191142857Y-57030952D01*
X191142857Y-57173809D01*
X191190476Y-57364285D01*
X191238095Y-57459523D01*
X191333333Y-57554761D01*
X191476190Y-57602380D01*
X191714285Y-57602380D01*
X190285714Y-56602380D02*
X190476190Y-56602380D01*
X190571428Y-56650000D01*
X190619047Y-56697619D01*
X190714285Y-56840476D01*
X190761904Y-57030952D01*
X190761904Y-57411904D01*
X190714285Y-57507142D01*
X190666666Y-57554761D01*
X190571428Y-57602380D01*
X190380952Y-57602380D01*
X190285714Y-57554761D01*
X190238095Y-57507142D01*
X190190476Y-57411904D01*
X190190476Y-57173809D01*
X190238095Y-57078571D01*
X190285714Y-57030952D01*
X190380952Y-56983333D01*
X190571428Y-56983333D01*
X190666666Y-57030952D01*
X190714285Y-57078571D01*
X190761904Y-57173809D01*
X189285714Y-56602380D02*
X189761904Y-56602380D01*
X189809523Y-57078571D01*
X189761904Y-57030952D01*
X189666666Y-56983333D01*
X189428571Y-56983333D01*
X189333333Y-57030952D01*
X189285714Y-57078571D01*
X189238095Y-57173809D01*
X189238095Y-57411904D01*
X189285714Y-57507142D01*
X189333333Y-57554761D01*
X189428571Y-57602380D01*
X189666666Y-57602380D01*
X189761904Y-57554761D01*
X189809523Y-57507142D01*
X163139285Y-38552380D02*
X163139285Y-37552380D01*
X162901190Y-37552380D01*
X162758333Y-37600000D01*
X162663095Y-37695238D01*
X162615476Y-37790476D01*
X162567857Y-37980952D01*
X162567857Y-38123809D01*
X162615476Y-38314285D01*
X162663095Y-38409523D01*
X162758333Y-38504761D01*
X162901190Y-38552380D01*
X163139285Y-38552380D01*
X161710714Y-37552380D02*
X161901190Y-37552380D01*
X161996428Y-37600000D01*
X162044047Y-37647619D01*
X162139285Y-37790476D01*
X162186904Y-37980952D01*
X162186904Y-38361904D01*
X162139285Y-38457142D01*
X162091666Y-38504761D01*
X161996428Y-38552380D01*
X161805952Y-38552380D01*
X161710714Y-38504761D01*
X161663095Y-38457142D01*
X161615476Y-38361904D01*
X161615476Y-38123809D01*
X161663095Y-38028571D01*
X161710714Y-37980952D01*
X161805952Y-37933333D01*
X161996428Y-37933333D01*
X162091666Y-37980952D01*
X162139285Y-38028571D01*
X162186904Y-38123809D01*
X160758333Y-37552380D02*
X160948809Y-37552380D01*
X161044047Y-37600000D01*
X161091666Y-37647619D01*
X161186904Y-37790476D01*
X161234523Y-37980952D01*
X161234523Y-38361904D01*
X161186904Y-38457142D01*
X161139285Y-38504761D01*
X161044047Y-38552380D01*
X160853571Y-38552380D01*
X160758333Y-38504761D01*
X160710714Y-38457142D01*
X160663095Y-38361904D01*
X160663095Y-38123809D01*
X160710714Y-38028571D01*
X160758333Y-37980952D01*
X160853571Y-37933333D01*
X161044047Y-37933333D01*
X161139285Y-37980952D01*
X161186904Y-38028571D01*
X161234523Y-38123809D01*
X182189285Y-38552380D02*
X182189285Y-37552380D01*
X181951190Y-37552380D01*
X181808333Y-37600000D01*
X181713095Y-37695238D01*
X181665476Y-37790476D01*
X181617857Y-37980952D01*
X181617857Y-38123809D01*
X181665476Y-38314285D01*
X181713095Y-38409523D01*
X181808333Y-38504761D01*
X181951190Y-38552380D01*
X182189285Y-38552380D01*
X180760714Y-37552380D02*
X180951190Y-37552380D01*
X181046428Y-37600000D01*
X181094047Y-37647619D01*
X181189285Y-37790476D01*
X181236904Y-37980952D01*
X181236904Y-38361904D01*
X181189285Y-38457142D01*
X181141666Y-38504761D01*
X181046428Y-38552380D01*
X180855952Y-38552380D01*
X180760714Y-38504761D01*
X180713095Y-38457142D01*
X180665476Y-38361904D01*
X180665476Y-38123809D01*
X180713095Y-38028571D01*
X180760714Y-37980952D01*
X180855952Y-37933333D01*
X181046428Y-37933333D01*
X181141666Y-37980952D01*
X181189285Y-38028571D01*
X181236904Y-38123809D01*
X180332142Y-37552380D02*
X179665476Y-37552380D01*
X180094047Y-38552380D01*
X243452380Y-102785714D02*
X242452380Y-102785714D01*
X242452380Y-103023809D01*
X242500000Y-103166666D01*
X242595238Y-103261904D01*
X242690476Y-103309523D01*
X242880952Y-103357142D01*
X243023809Y-103357142D01*
X243214285Y-103309523D01*
X243309523Y-103261904D01*
X243404761Y-103166666D01*
X243452380Y-103023809D01*
X243452380Y-102785714D01*
X242452380Y-103690476D02*
X242452380Y-104357142D01*
X243452380Y-103928571D01*
X242452380Y-104928571D02*
X242452380Y-105023809D01*
X242500000Y-105119047D01*
X242547619Y-105166666D01*
X242642857Y-105214285D01*
X242833333Y-105261904D01*
X243071428Y-105261904D01*
X243261904Y-105214285D01*
X243357142Y-105166666D01*
X243404761Y-105119047D01*
X243452380Y-105023809D01*
X243452380Y-104928571D01*
X243404761Y-104833333D01*
X243357142Y-104785714D01*
X243261904Y-104738095D01*
X243071428Y-104690476D01*
X242833333Y-104690476D01*
X242642857Y-104738095D01*
X242547619Y-104785714D01*
X242500000Y-104833333D01*
X242452380Y-104928571D01*
X167901785Y-95702380D02*
X167901785Y-94702380D01*
X167663690Y-94702380D01*
X167520833Y-94750000D01*
X167425595Y-94845238D01*
X167377976Y-94940476D01*
X167330357Y-95130952D01*
X167330357Y-95273809D01*
X167377976Y-95464285D01*
X167425595Y-95559523D01*
X167520833Y-95654761D01*
X167663690Y-95702380D01*
X167901785Y-95702380D01*
X166997023Y-94702380D02*
X166330357Y-94702380D01*
X166758928Y-95702380D01*
X165425595Y-95702380D02*
X165997023Y-95702380D01*
X165711309Y-95702380D02*
X165711309Y-94702380D01*
X165806547Y-94845238D01*
X165901785Y-94940476D01*
X165997023Y-94988095D01*
X186951785Y-95702380D02*
X186951785Y-94702380D01*
X186713690Y-94702380D01*
X186570833Y-94750000D01*
X186475595Y-94845238D01*
X186427976Y-94940476D01*
X186380357Y-95130952D01*
X186380357Y-95273809D01*
X186427976Y-95464285D01*
X186475595Y-95559523D01*
X186570833Y-95654761D01*
X186713690Y-95702380D01*
X186951785Y-95702380D01*
X186047023Y-94702380D02*
X185380357Y-94702380D01*
X185808928Y-95702380D01*
X185047023Y-94797619D02*
X184999404Y-94750000D01*
X184904166Y-94702380D01*
X184666071Y-94702380D01*
X184570833Y-94750000D01*
X184523214Y-94797619D01*
X184475595Y-94892857D01*
X184475595Y-94988095D01*
X184523214Y-95130952D01*
X185094642Y-95702380D01*
X184475595Y-95702380D01*
X177426785Y-76652380D02*
X177426785Y-75652380D01*
X177188690Y-75652380D01*
X177045833Y-75700000D01*
X176950595Y-75795238D01*
X176902976Y-75890476D01*
X176855357Y-76080952D01*
X176855357Y-76223809D01*
X176902976Y-76414285D01*
X176950595Y-76509523D01*
X177045833Y-76604761D01*
X177188690Y-76652380D01*
X177426785Y-76652380D01*
X176522023Y-75652380D02*
X175855357Y-75652380D01*
X176283928Y-76652380D01*
X175569642Y-75652380D02*
X174950595Y-75652380D01*
X175283928Y-76033333D01*
X175141071Y-76033333D01*
X175045833Y-76080952D01*
X174998214Y-76128571D01*
X174950595Y-76223809D01*
X174950595Y-76461904D01*
X174998214Y-76557142D01*
X175045833Y-76604761D01*
X175141071Y-76652380D01*
X175426785Y-76652380D01*
X175522023Y-76604761D01*
X175569642Y-76557142D01*
X196476785Y-76652380D02*
X196476785Y-75652380D01*
X196238690Y-75652380D01*
X196095833Y-75700000D01*
X196000595Y-75795238D01*
X195952976Y-75890476D01*
X195905357Y-76080952D01*
X195905357Y-76223809D01*
X195952976Y-76414285D01*
X196000595Y-76509523D01*
X196095833Y-76604761D01*
X196238690Y-76652380D01*
X196476785Y-76652380D01*
X195572023Y-75652380D02*
X194905357Y-75652380D01*
X195333928Y-76652380D01*
X194095833Y-75985714D02*
X194095833Y-76652380D01*
X194333928Y-75604761D02*
X194572023Y-76319047D01*
X193952976Y-76319047D01*
X210764285Y-57602380D02*
X210764285Y-56602380D01*
X210526190Y-56602380D01*
X210383333Y-56650000D01*
X210288095Y-56745238D01*
X210240476Y-56840476D01*
X210192857Y-57030952D01*
X210192857Y-57173809D01*
X210240476Y-57364285D01*
X210288095Y-57459523D01*
X210383333Y-57554761D01*
X210526190Y-57602380D01*
X210764285Y-57602380D01*
X209859523Y-56602380D02*
X209192857Y-56602380D01*
X209621428Y-57602380D01*
X208335714Y-56602380D02*
X208811904Y-56602380D01*
X208859523Y-57078571D01*
X208811904Y-57030952D01*
X208716666Y-56983333D01*
X208478571Y-56983333D01*
X208383333Y-57030952D01*
X208335714Y-57078571D01*
X208288095Y-57173809D01*
X208288095Y-57411904D01*
X208335714Y-57507142D01*
X208383333Y-57554761D01*
X208478571Y-57602380D01*
X208716666Y-57602380D01*
X208811904Y-57554761D01*
X208859523Y-57507142D01*
X201239285Y-38552380D02*
X201239285Y-37552380D01*
X201001190Y-37552380D01*
X200858333Y-37600000D01*
X200763095Y-37695238D01*
X200715476Y-37790476D01*
X200667857Y-37980952D01*
X200667857Y-38123809D01*
X200715476Y-38314285D01*
X200763095Y-38409523D01*
X200858333Y-38504761D01*
X201001190Y-38552380D01*
X201239285Y-38552380D01*
X200334523Y-37552380D02*
X199667857Y-37552380D01*
X200096428Y-38552380D01*
X198858333Y-37552380D02*
X199048809Y-37552380D01*
X199144047Y-37600000D01*
X199191666Y-37647619D01*
X199286904Y-37790476D01*
X199334523Y-37980952D01*
X199334523Y-38361904D01*
X199286904Y-38457142D01*
X199239285Y-38504761D01*
X199144047Y-38552380D01*
X198953571Y-38552380D01*
X198858333Y-38504761D01*
X198810714Y-38457142D01*
X198763095Y-38361904D01*
X198763095Y-38123809D01*
X198810714Y-38028571D01*
X198858333Y-37980952D01*
X198953571Y-37933333D01*
X199144047Y-37933333D01*
X199239285Y-37980952D01*
X199286904Y-38028571D01*
X199334523Y-38123809D01*
X220289285Y-38552380D02*
X220289285Y-37552380D01*
X220051190Y-37552380D01*
X219908333Y-37600000D01*
X219813095Y-37695238D01*
X219765476Y-37790476D01*
X219717857Y-37980952D01*
X219717857Y-38123809D01*
X219765476Y-38314285D01*
X219813095Y-38409523D01*
X219908333Y-38504761D01*
X220051190Y-38552380D01*
X220289285Y-38552380D01*
X219384523Y-37552380D02*
X218717857Y-37552380D01*
X219146428Y-38552380D01*
X218432142Y-37552380D02*
X217765476Y-37552380D01*
X218194047Y-38552380D01*
X141357142Y-109583333D02*
X141404761Y-109535714D01*
X141452380Y-109392857D01*
X141452380Y-109297619D01*
X141404761Y-109154761D01*
X141309523Y-109059523D01*
X141214285Y-109011904D01*
X141023809Y-108964285D01*
X140880952Y-108964285D01*
X140690476Y-109011904D01*
X140595238Y-109059523D01*
X140500000Y-109154761D01*
X140452380Y-109297619D01*
X140452380Y-109392857D01*
X140500000Y-109535714D01*
X140547619Y-109583333D01*
X141452380Y-110535714D02*
X141452380Y-109964285D01*
X141452380Y-110250000D02*
X140452380Y-110250000D01*
X140595238Y-110154761D01*
X140690476Y-110059523D01*
X140738095Y-109964285D01*
%LPC*%
D15*
X223718750Y-110300000D03*
X228718750Y-109800000D03*
X242768750Y-110300000D03*
X247768750Y-109800000D03*
X247531250Y-110300000D03*
X252531250Y-109800000D03*
X152281250Y-110300000D03*
X157281250Y-109800000D03*
X154662500Y-110300000D03*
X159662500Y-109800000D03*
X97750000Y-118300000D03*
X92750000Y-118800000D03*
X92987500Y-118300000D03*
X87987500Y-118800000D03*
X85606250Y-110300000D03*
X90606250Y-109800000D03*
X71556250Y-118300000D03*
X66556250Y-118800000D03*
X69175000Y-118300000D03*
X64175000Y-118800000D03*
X61793750Y-110300000D03*
X66793750Y-109800000D03*
X42743750Y-72200000D03*
X47743750Y-71700000D03*
X45362500Y-80200000D03*
X40362500Y-80700000D03*
X45362500Y-118300000D03*
X40362500Y-118800000D03*
X292775000Y-34100000D03*
X297775000Y-33600000D03*
X271343750Y-110300000D03*
X276343750Y-109800000D03*
X216575000Y-110300000D03*
X221575000Y-109800000D03*
X207050000Y-34100000D03*
X212050000Y-33600000D03*
X188000000Y-34100000D03*
X193000000Y-33600000D03*
X197525000Y-53150000D03*
X202525000Y-52650000D03*
X183237500Y-72200000D03*
X188237500Y-71700000D03*
X164187500Y-72200000D03*
X169187500Y-71700000D03*
X173712500Y-91250000D03*
X178712500Y-90750000D03*
X154662500Y-91250000D03*
X159662500Y-90750000D03*
X245387500Y-118300000D03*
X240387500Y-118800000D03*
X168950000Y-34100000D03*
X173950000Y-33600000D03*
X149900000Y-34100000D03*
X154900000Y-33600000D03*
X178475000Y-53150000D03*
X183475000Y-52650000D03*
X159425000Y-53150000D03*
X164425000Y-52650000D03*
X145137500Y-72200000D03*
X150137500Y-71700000D03*
X135612500Y-91250000D03*
X140612500Y-90750000D03*
X116562500Y-91250000D03*
X121562500Y-90750000D03*
X169187500Y-118300000D03*
X164187500Y-118800000D03*
X130850000Y-34100000D03*
X135850000Y-33600000D03*
X111800000Y-34100000D03*
X116800000Y-33600000D03*
X140375000Y-53150000D03*
X145375000Y-52650000D03*
X121325000Y-53150000D03*
X126325000Y-52650000D03*
X126087500Y-72200000D03*
X131087500Y-71700000D03*
X107037500Y-72200000D03*
X112037500Y-71700000D03*
X97512500Y-91250000D03*
X102512500Y-90750000D03*
X85843750Y-118300000D03*
X80843750Y-118800000D03*
X92750000Y-34100000D03*
X97750000Y-33600000D03*
X73700000Y-34100000D03*
X78700000Y-33600000D03*
X102275000Y-53150000D03*
X107275000Y-52650000D03*
X83225000Y-53150000D03*
X88225000Y-52650000D03*
X87987500Y-72200000D03*
X92987500Y-71700000D03*
X78462500Y-91250000D03*
X83462500Y-90750000D03*
X59412500Y-110300000D03*
X64412500Y-109800000D03*
X54650000Y-34100000D03*
X59650000Y-33600000D03*
X35600000Y-34100000D03*
X40600000Y-33600000D03*
X64175000Y-53150000D03*
X69175000Y-52650000D03*
X40362500Y-53150000D03*
X45362500Y-52650000D03*
X68937500Y-72200000D03*
X73937500Y-71700000D03*
X42981250Y-80200000D03*
X37981250Y-80700000D03*
X47506250Y-91250000D03*
X52506250Y-90750000D03*
X37981250Y-110300000D03*
X42981250Y-109800000D03*
X330875000Y-110300000D03*
X335875000Y-109800000D03*
X307300000Y-42100000D03*
X302300000Y-42600000D03*
X283250000Y-34100000D03*
X288250000Y-33600000D03*
X273725000Y-53150000D03*
X278725000Y-52650000D03*
X297537500Y-53150000D03*
X302537500Y-52650000D03*
X290393750Y-72200000D03*
X295393750Y-71700000D03*
X311825000Y-91250000D03*
X316825000Y-90750000D03*
X280868750Y-91250000D03*
X285868750Y-90750000D03*
X311825000Y-110300000D03*
X316825000Y-109800000D03*
X330875000Y-53150000D03*
X335875000Y-52650000D03*
X264200000Y-34100000D03*
X269200000Y-33600000D03*
X254675000Y-53150000D03*
X259675000Y-52650000D03*
X235625000Y-53150000D03*
X240625000Y-52650000D03*
X259437500Y-72200000D03*
X264437500Y-71700000D03*
X240387500Y-72200000D03*
X245387500Y-71700000D03*
X249912500Y-91250000D03*
X254912500Y-90750000D03*
X230862500Y-91250000D03*
X235862500Y-90750000D03*
X292775000Y-110300000D03*
X297775000Y-109800000D03*
X330875000Y-34100000D03*
X335875000Y-33600000D03*
X245150000Y-34100000D03*
X250150000Y-33600000D03*
X226100000Y-34100000D03*
X231100000Y-33600000D03*
X216575000Y-53150000D03*
X221575000Y-52650000D03*
X221337500Y-72200000D03*
X226337500Y-71700000D03*
X202287500Y-72200000D03*
X207287500Y-71700000D03*
X211812500Y-91250000D03*
X216812500Y-90750000D03*
X192762500Y-91250000D03*
X197762500Y-90750000D03*
X273962500Y-118300000D03*
X268962500Y-118800000D03*
D16*
X80650000Y-106250000D03*
X77350000Y-106250000D03*
D17*
X75100000Y-106250000D03*
D18*
X82900000Y-106250000D03*
D19*
G36*
X137508999Y-114924937D02*
G01*
X137084735Y-115349201D01*
X136236207Y-114500673D01*
X136660471Y-114076409D01*
X137508999Y-114924937D01*
G37*
G36*
X136943313Y-115490622D02*
G01*
X136519049Y-115914886D01*
X135670521Y-115066358D01*
X136094785Y-114642094D01*
X136943313Y-115490622D01*
G37*
G36*
X136377628Y-116056308D02*
G01*
X135953364Y-116480572D01*
X135104836Y-115632044D01*
X135529100Y-115207780D01*
X136377628Y-116056308D01*
G37*
G36*
X135811943Y-116621993D02*
G01*
X135387679Y-117046257D01*
X134539151Y-116197729D01*
X134963415Y-115773465D01*
X135811943Y-116621993D01*
G37*
G36*
X135246257Y-117187679D02*
G01*
X134821993Y-117611943D01*
X133973465Y-116763415D01*
X134397729Y-116339151D01*
X135246257Y-117187679D01*
G37*
G36*
X134680572Y-117753364D02*
G01*
X134256308Y-118177628D01*
X133407780Y-117329100D01*
X133832044Y-116904836D01*
X134680572Y-117753364D01*
G37*
G36*
X134114886Y-118319049D02*
G01*
X133690622Y-118743313D01*
X132842094Y-117894785D01*
X133266358Y-117470521D01*
X134114886Y-118319049D01*
G37*
G36*
X133549201Y-118884735D02*
G01*
X133124937Y-119308999D01*
X132276409Y-118460471D01*
X132700673Y-118036207D01*
X133549201Y-118884735D01*
G37*
G36*
X130650063Y-119308999D02*
G01*
X130225799Y-118884735D01*
X131074327Y-118036207D01*
X131498591Y-118460471D01*
X130650063Y-119308999D01*
G37*
G36*
X130084378Y-118743313D02*
G01*
X129660114Y-118319049D01*
X130508642Y-117470521D01*
X130932906Y-117894785D01*
X130084378Y-118743313D01*
G37*
G36*
X129518692Y-118177628D02*
G01*
X129094428Y-117753364D01*
X129942956Y-116904836D01*
X130367220Y-117329100D01*
X129518692Y-118177628D01*
G37*
G36*
X128953007Y-117611943D02*
G01*
X128528743Y-117187679D01*
X129377271Y-116339151D01*
X129801535Y-116763415D01*
X128953007Y-117611943D01*
G37*
G36*
X128387321Y-117046257D02*
G01*
X127963057Y-116621993D01*
X128811585Y-115773465D01*
X129235849Y-116197729D01*
X128387321Y-117046257D01*
G37*
G36*
X127821636Y-116480572D02*
G01*
X127397372Y-116056308D01*
X128245900Y-115207780D01*
X128670164Y-115632044D01*
X127821636Y-116480572D01*
G37*
G36*
X127255951Y-115914886D02*
G01*
X126831687Y-115490622D01*
X127680215Y-114642094D01*
X128104479Y-115066358D01*
X127255951Y-115914886D01*
G37*
G36*
X126690265Y-115349201D02*
G01*
X126266001Y-114924937D01*
X127114529Y-114076409D01*
X127538793Y-114500673D01*
X126690265Y-115349201D01*
G37*
G36*
X127538793Y-112874327D02*
G01*
X127114529Y-113298591D01*
X126266001Y-112450063D01*
X126690265Y-112025799D01*
X127538793Y-112874327D01*
G37*
G36*
X128104479Y-112308642D02*
G01*
X127680215Y-112732906D01*
X126831687Y-111884378D01*
X127255951Y-111460114D01*
X128104479Y-112308642D01*
G37*
G36*
X128670164Y-111742956D02*
G01*
X128245900Y-112167220D01*
X127397372Y-111318692D01*
X127821636Y-110894428D01*
X128670164Y-111742956D01*
G37*
G36*
X129235849Y-111177271D02*
G01*
X128811585Y-111601535D01*
X127963057Y-110753007D01*
X128387321Y-110328743D01*
X129235849Y-111177271D01*
G37*
G36*
X129801535Y-110611585D02*
G01*
X129377271Y-111035849D01*
X128528743Y-110187321D01*
X128953007Y-109763057D01*
X129801535Y-110611585D01*
G37*
G36*
X130367220Y-110045900D02*
G01*
X129942956Y-110470164D01*
X129094428Y-109621636D01*
X129518692Y-109197372D01*
X130367220Y-110045900D01*
G37*
G36*
X130932906Y-109480215D02*
G01*
X130508642Y-109904479D01*
X129660114Y-109055951D01*
X130084378Y-108631687D01*
X130932906Y-109480215D01*
G37*
G36*
X131498591Y-108914529D02*
G01*
X131074327Y-109338793D01*
X130225799Y-108490265D01*
X130650063Y-108066001D01*
X131498591Y-108914529D01*
G37*
G36*
X132700673Y-109338793D02*
G01*
X132276409Y-108914529D01*
X133124937Y-108066001D01*
X133549201Y-108490265D01*
X132700673Y-109338793D01*
G37*
G36*
X133266358Y-109904479D02*
G01*
X132842094Y-109480215D01*
X133690622Y-108631687D01*
X134114886Y-109055951D01*
X133266358Y-109904479D01*
G37*
G36*
X133832044Y-110470164D02*
G01*
X133407780Y-110045900D01*
X134256308Y-109197372D01*
X134680572Y-109621636D01*
X133832044Y-110470164D01*
G37*
G36*
X134397729Y-111035849D02*
G01*
X133973465Y-110611585D01*
X134821993Y-109763057D01*
X135246257Y-110187321D01*
X134397729Y-111035849D01*
G37*
G36*
X134963415Y-111601535D02*
G01*
X134539151Y-111177271D01*
X135387679Y-110328743D01*
X135811943Y-110753007D01*
X134963415Y-111601535D01*
G37*
G36*
X135529100Y-112167220D02*
G01*
X135104836Y-111742956D01*
X135953364Y-110894428D01*
X136377628Y-111318692D01*
X135529100Y-112167220D01*
G37*
G36*
X136094785Y-112732906D02*
G01*
X135670521Y-112308642D01*
X136519049Y-111460114D01*
X136943313Y-111884378D01*
X136094785Y-112732906D01*
G37*
G36*
X136660471Y-113298591D02*
G01*
X136236207Y-112874327D01*
X137084735Y-112025799D01*
X137508999Y-112450063D01*
X136660471Y-113298591D01*
G37*
D20*
X132500000Y-102750000D03*
D21*
X319950000Y-74350000D03*
D22*
X138112500Y-76187500D03*
X233362500Y-76187500D03*
D23*
X247650000Y-57150000D03*
X157162500Y-76200000D03*
X52387500Y-114287500D03*
X323850000Y-114300000D03*
X262000000Y-114300000D03*
X325500000Y-47625000D03*
X54000000Y-57137500D03*
D24*
X317650000Y-33537500D03*
X318450000Y-33537500D03*
X319250000Y-33537500D03*
X320050000Y-33537500D03*
X320850000Y-33537500D03*
D25*
X315600000Y-31137500D03*
X322900000Y-31137500D03*
D20*
X128500000Y-102750000D03*
X124500000Y-102750000D03*
D26*
X136000000Y-103500000D03*
X138000000Y-103500000D03*
X148000000Y-118500000D03*
X150000000Y-118500000D03*
X147000000Y-110000000D03*
X149000000Y-110000000D03*
X140750000Y-119250000D03*
X142750000Y-119250000D03*
X142500000Y-113000000D03*
X144500000Y-113000000D03*
D27*
X171700000Y-102750000D03*
X169800000Y-102750000D03*
X171700000Y-105500000D03*
X169800000Y-105500000D03*
X114200000Y-116000000D03*
X112300000Y-116000000D03*
X58050000Y-79500000D03*
X59950000Y-79500000D03*
D28*
X334000000Y-73300000D03*
X334000000Y-76700000D03*
D29*
X334000000Y-75000000D03*
D30*
X147400000Y-113700000D03*
X149600000Y-113700000D03*
X149600000Y-115300000D03*
X147400000Y-115300000D03*
D27*
X332800000Y-70000000D03*
X334700000Y-70000000D03*
D31*
X36830000Y-43180000D03*
D32*
X39370000Y-43180000D03*
D31*
X57000000Y-76200000D03*
D32*
X59540000Y-76200000D03*
D18*
X265400000Y-104000000D03*
D17*
X257600000Y-104000000D03*
D16*
X259850000Y-104000000D03*
X263150000Y-104000000D03*
D18*
X204787500Y-91350000D03*
D17*
X204787500Y-99150000D03*
D33*
X204787500Y-96900000D03*
X204787500Y-93600000D03*
X223837500Y-93600000D03*
X223837500Y-96900000D03*
D17*
X223837500Y-99150000D03*
D18*
X223837500Y-91350000D03*
X214312500Y-72300000D03*
D17*
X214312500Y-80100000D03*
D33*
X214312500Y-77850000D03*
X214312500Y-74550000D03*
D18*
X224650000Y-65500000D03*
D17*
X216850000Y-65500000D03*
D16*
X219100000Y-65500000D03*
X222400000Y-65500000D03*
D33*
X228600000Y-55500000D03*
X228600000Y-58800000D03*
D17*
X228600000Y-61050000D03*
D18*
X228600000Y-53250000D03*
X238125000Y-34200000D03*
D17*
X238125000Y-42000000D03*
D33*
X238125000Y-39750000D03*
X238125000Y-36450000D03*
X257162500Y-36437500D03*
X257162500Y-39737500D03*
D17*
X257162500Y-41987500D03*
D18*
X257162500Y-34187500D03*
D16*
X336400000Y-46000000D03*
X333100000Y-46000000D03*
D17*
X330850000Y-46000000D03*
D18*
X338650000Y-46000000D03*
D33*
X286000000Y-112650000D03*
X286000000Y-115950000D03*
D17*
X286000000Y-118200000D03*
D18*
X286000000Y-110400000D03*
D33*
X242887500Y-93600000D03*
X242887500Y-96900000D03*
D17*
X242887500Y-99150000D03*
D18*
X242887500Y-91350000D03*
D33*
X261937500Y-93600000D03*
X261937500Y-96900000D03*
D17*
X261937500Y-99150000D03*
D18*
X261937500Y-91350000D03*
D33*
X252412500Y-74550000D03*
X252412500Y-77850000D03*
D17*
X252412500Y-80100000D03*
D18*
X252412500Y-72300000D03*
X271462500Y-72300000D03*
D17*
X271462500Y-80100000D03*
D33*
X271462500Y-77850000D03*
X271462500Y-74550000D03*
D16*
X240400000Y-65500000D03*
X237100000Y-65500000D03*
D17*
X234850000Y-65500000D03*
D18*
X242650000Y-65500000D03*
D33*
X266700000Y-55500000D03*
X266700000Y-58800000D03*
D17*
X266700000Y-61050000D03*
D18*
X266700000Y-53250000D03*
D33*
X276225000Y-36450000D03*
X276225000Y-39750000D03*
D17*
X276225000Y-42000000D03*
D18*
X276225000Y-34200000D03*
D33*
X338500000Y-93600000D03*
X338500000Y-96900000D03*
D17*
X338500000Y-99150000D03*
D18*
X338500000Y-91350000D03*
X304800000Y-110400000D03*
D17*
X304800000Y-118200000D03*
D33*
X304800000Y-115950000D03*
X304800000Y-112650000D03*
D18*
X304250000Y-91350000D03*
D17*
X304250000Y-99150000D03*
D33*
X304250000Y-96900000D03*
X304250000Y-93600000D03*
X324250000Y-93600000D03*
X324250000Y-96900000D03*
D17*
X324250000Y-99150000D03*
D18*
X324250000Y-91350000D03*
D33*
X290000000Y-55500000D03*
X290000000Y-58800000D03*
D17*
X290000000Y-61050000D03*
D18*
X290000000Y-53250000D03*
X286000000Y-53250000D03*
D17*
X286000000Y-61050000D03*
D33*
X286000000Y-58800000D03*
X286000000Y-55500000D03*
D16*
X275650000Y-46000000D03*
X272350000Y-46000000D03*
D17*
X270100000Y-46000000D03*
D18*
X277900000Y-46000000D03*
D16*
X297150000Y-46000000D03*
X293850000Y-46000000D03*
D17*
X291600000Y-46000000D03*
D18*
X299400000Y-46000000D03*
D33*
X311750000Y-55500000D03*
X311750000Y-58800000D03*
D17*
X311750000Y-61050000D03*
D18*
X311750000Y-53250000D03*
X333750000Y-91350000D03*
D17*
X333750000Y-99150000D03*
D33*
X333750000Y-96900000D03*
X333750000Y-93600000D03*
X33000000Y-93600000D03*
X33000000Y-96900000D03*
D17*
X33000000Y-99150000D03*
D18*
X33000000Y-91350000D03*
D33*
X40481250Y-93600000D03*
X40481250Y-96900000D03*
D17*
X40481250Y-99150000D03*
D18*
X40481250Y-91350000D03*
D16*
X40150000Y-65500000D03*
X36850000Y-65500000D03*
D17*
X34600000Y-65500000D03*
D18*
X42400000Y-65500000D03*
X80962500Y-72300000D03*
D17*
X80962500Y-80100000D03*
D33*
X80962500Y-77850000D03*
X80962500Y-74550000D03*
D18*
X33337500Y-53250000D03*
D17*
X33337500Y-61050000D03*
D33*
X33337500Y-58800000D03*
X33337500Y-55500000D03*
X76200000Y-55500000D03*
X76200000Y-58800000D03*
D17*
X76200000Y-61050000D03*
D18*
X76200000Y-53250000D03*
D33*
X47625000Y-36450000D03*
X47625000Y-39750000D03*
D17*
X47625000Y-42000000D03*
D18*
X47625000Y-34200000D03*
X66675000Y-34200000D03*
D17*
X66675000Y-42000000D03*
D33*
X66675000Y-39750000D03*
X66675000Y-36450000D03*
D18*
X220650000Y-104000000D03*
D17*
X212850000Y-104000000D03*
D16*
X215100000Y-104000000D03*
X218400000Y-104000000D03*
D18*
X72150000Y-106250000D03*
D17*
X64350000Y-106250000D03*
D16*
X66600000Y-106250000D03*
X69900000Y-106250000D03*
D18*
X90487500Y-91350000D03*
D17*
X90487500Y-99150000D03*
D33*
X90487500Y-96900000D03*
X90487500Y-93600000D03*
D18*
X100012500Y-72300000D03*
D17*
X100012500Y-80100000D03*
D33*
X100012500Y-77850000D03*
X100012500Y-74550000D03*
D18*
X95250000Y-53250000D03*
D17*
X95250000Y-61050000D03*
D33*
X95250000Y-58800000D03*
X95250000Y-55500000D03*
X114300000Y-55500000D03*
X114300000Y-58800000D03*
D17*
X114300000Y-61050000D03*
D18*
X114300000Y-53250000D03*
D33*
X85725000Y-36450000D03*
X85725000Y-39750000D03*
D17*
X85725000Y-42000000D03*
D18*
X85725000Y-34200000D03*
D33*
X104775000Y-36450000D03*
X104775000Y-39750000D03*
D17*
X104775000Y-42000000D03*
D18*
X104775000Y-34200000D03*
D33*
X109537500Y-93600000D03*
X109537500Y-96900000D03*
D17*
X109537500Y-99150000D03*
D18*
X109537500Y-91350000D03*
X119062500Y-72300000D03*
D17*
X119062500Y-80100000D03*
D33*
X119062500Y-77850000D03*
X119062500Y-74550000D03*
D16*
X133900000Y-65500000D03*
X130600000Y-65500000D03*
D17*
X128350000Y-65500000D03*
D18*
X136150000Y-65500000D03*
X133350000Y-53250000D03*
D17*
X133350000Y-61050000D03*
D33*
X133350000Y-58800000D03*
X133350000Y-55500000D03*
D18*
X152400000Y-53250000D03*
D17*
X152400000Y-61050000D03*
D33*
X152400000Y-58800000D03*
X152400000Y-55500000D03*
D18*
X123825000Y-34200000D03*
D17*
X123825000Y-42000000D03*
D33*
X123825000Y-39750000D03*
X123825000Y-36450000D03*
D18*
X142875000Y-34200000D03*
D17*
X142875000Y-42000000D03*
D33*
X142875000Y-39750000D03*
X142875000Y-36450000D03*
D18*
X180500000Y-109100000D03*
D17*
X180500000Y-116900000D03*
D33*
X180500000Y-114650000D03*
X180500000Y-111350000D03*
D18*
X128587500Y-91350000D03*
D17*
X128587500Y-99150000D03*
D33*
X128587500Y-96900000D03*
X128587500Y-93600000D03*
D18*
X147637500Y-91350000D03*
D17*
X147637500Y-99150000D03*
D33*
X147637500Y-96900000D03*
X147637500Y-93600000D03*
D18*
X158400000Y-65500000D03*
D17*
X150600000Y-65500000D03*
D16*
X152850000Y-65500000D03*
X156150000Y-65500000D03*
D18*
X171450000Y-53250000D03*
D17*
X171450000Y-61050000D03*
D33*
X171450000Y-58800000D03*
X171450000Y-55500000D03*
X190500000Y-55500000D03*
X190500000Y-58800000D03*
D17*
X190500000Y-61050000D03*
D18*
X190500000Y-53250000D03*
X161925000Y-34200000D03*
D17*
X161925000Y-42000000D03*
D33*
X161925000Y-39750000D03*
X161925000Y-36450000D03*
X180975000Y-36450000D03*
X180975000Y-39750000D03*
D17*
X180975000Y-42000000D03*
D18*
X180975000Y-34200000D03*
D16*
X244650000Y-104000000D03*
X241350000Y-104000000D03*
D17*
X239100000Y-104000000D03*
D18*
X246900000Y-104000000D03*
X166687500Y-91350000D03*
D17*
X166687500Y-99150000D03*
D33*
X166687500Y-96900000D03*
X166687500Y-93600000D03*
D18*
X185737500Y-91350000D03*
D17*
X185737500Y-99150000D03*
D33*
X185737500Y-96900000D03*
X185737500Y-93600000D03*
D18*
X176212500Y-72300000D03*
D17*
X176212500Y-80100000D03*
D33*
X176212500Y-77850000D03*
X176212500Y-74550000D03*
D18*
X195262500Y-72300000D03*
D17*
X195262500Y-80100000D03*
D33*
X195262500Y-77850000D03*
X195262500Y-74550000D03*
X209550000Y-55500000D03*
X209550000Y-58800000D03*
D17*
X209550000Y-61050000D03*
D18*
X209550000Y-53250000D03*
D33*
X200025000Y-36450000D03*
X200025000Y-39750000D03*
D17*
X200025000Y-42000000D03*
D18*
X200025000Y-34200000D03*
D33*
X219075000Y-36450000D03*
X219075000Y-39750000D03*
D17*
X219075000Y-42000000D03*
D18*
X219075000Y-34200000D03*
D34*
X142500000Y-108750000D03*
X142500000Y-110750000D03*
M02*
