M48
INCH,TZ
T1C0.020
T2C0.025
T3C0.028
T4C0.040
T5C0.055
%
G90
G05
T1
X43701Y-45472
X44193Y-42717
T2
X15551Y-14961
X16929Y-24409
X18504Y-21850
X19338Y-29227
X26181Y-18110
X31496Y-38386
X35433Y-33268
X38189Y-33858
X38780Y-44094
X39370Y-45472
X42717Y-46063
X45079Y-40157
X45669Y-37992
X47244Y-45571
X49803Y-41732
X50689Y-42028
X51181Y-47441
X51969Y-42224
X51969Y-43898
X51969Y-45276
X51969Y-47244
X51969Y-48031
X52264Y-41043
X52638Y-44567
X52869Y-37515
X52953Y-47244
X53051Y-44988
X53937Y-46654
X54528Y-41339
X54724Y-44882
X56201Y-42224
X56543Y-47042
X57480Y-40945
X59843Y-40354
X59843Y-42126
X66929Y-26575
X67717Y-40354
X67717Y-42126
X69882Y-26575
X73125Y-45576
X75591Y-40354
X83465Y-40354
X91339Y-40354
X91339Y-42126
X99213Y-40354
X99213Y-42126
X105906Y-38583
X106693Y-27165
X107087Y-42126
X112598Y-37402
X113976Y-38583
X117520Y-35039
X118701Y-42126
X120866Y-35827
X124803Y-14764
X124803Y-21850
X126575Y-14764
X126575Y-24606
X128740Y-31693
X129331Y-23622
X129921Y-35433
X130118Y-25787
T3
X12402Y-40394
X12402Y-43465
X13622Y-18898
X13622Y-26575
X16693Y-18898
X16693Y-26575
X18750Y-13465
X18750Y-16535
X18787Y-41629
X21858Y-41629
X26250Y-13465
X26250Y-16535
X28125Y-35965
X28125Y-39035
X29355Y-34055
X30000Y-20965
X30000Y-24035
X30748Y-42126
X31875Y-28465
X31875Y-31535
X32426Y-34055
X33750Y-13465
X33750Y-16535
X33819Y-42126
X35625Y-35965
X35625Y-39035
X37500Y-20965
X37500Y-24035
X39375Y-28465
X39375Y-31535
X41250Y-13465
X41250Y-16535
X43125Y-35079
X43125Y-38150
X45000Y-20965
X45000Y-24035
X46875Y-28465
X46875Y-31535
X48750Y-13465
X48750Y-16535
X50625Y-35965
X50625Y-39035
X52500Y-20965
X52500Y-24035
X52559Y-26772
X55630Y-26772
X56250Y-13465
X56250Y-16535
X57126Y-32874
X58125Y-35965
X58125Y-39035
X60000Y-20965
X60000Y-24035
X60197Y-32874
X63750Y-13465
X63750Y-16535
X65625Y-35965
X65625Y-39035
X67500Y-20965
X67500Y-24035
X69375Y-28465
X69375Y-31535
X71063Y-42953
X71063Y-46024
X71250Y-13465
X71250Y-16535
X73125Y-35965
X73125Y-39035
X75000Y-20965
X75000Y-24035
X76875Y-28465
X76875Y-31535
X78750Y-13465
X78750Y-16535
X80522Y-45079
X80625Y-35965
X80625Y-39035
X82500Y-20965
X82500Y-24035
X83593Y-45079
X84375Y-28465
X84375Y-31535
X85039Y-43543
X85039Y-46614
X86250Y-13465
X86250Y-16535
X86654Y-32874
X88125Y-35965
X88125Y-39035
X89724Y-32874
X90000Y-20965
X90000Y-24035
X92559Y-25591
X93750Y-13465
X93750Y-16535
X95625Y-35965
X95625Y-39035
X95630Y-25591
X99375Y-28465
X99375Y-31535
X101245Y-13460
X101245Y-16531
X103125Y-35965
X103125Y-39035
X105000Y-20965
X105000Y-24035
X106875Y-28465
X106875Y-31535
X108750Y-13465
X108750Y-16535
X112244Y-19685
X112598Y-23268
X112598Y-26339
X112598Y-43465
X112598Y-46535
X114173Y-23268
X114173Y-26339
X115039Y-17913
X115315Y-19685
X118110Y-17913
X119882Y-35965
X119882Y-39035
X120000Y-43465
X120000Y-46535
X122835Y-40551
X123031Y-19528
X123031Y-22598
X125906Y-40551
X127559Y-37402
X127559Y-40472
X130945Y-18110
X130945Y-38780
X130945Y-40748
X134016Y-18110
X134016Y-38780
X134016Y-40748
T4
X47933Y-38583
X47933Y-39764
T5
X14016Y-13425
X14953Y-31772
X14953Y-35925
X14953Y-43425
X15891Y-20925
X15891Y-31772
X15891Y-46772
X15984Y-13228
X16828Y-28425
X16922Y-31575
X16922Y-35728
X16922Y-43228
X17859Y-20728
X17859Y-31575
X17859Y-46575
X18703Y-35925
X18797Y-28228
X20672Y-35728
X21516Y-13425
X23391Y-35925
X23391Y-43425
X23484Y-13228
X24328Y-43425
X25266Y-20925
X25266Y-46772
X25359Y-35728
X25359Y-43228
X26297Y-43228
X27141Y-28425
X27234Y-20728
X27234Y-46575
X29016Y-13425
X29109Y-28228
X30891Y-35925
X30984Y-13228
X31828Y-43425
X32766Y-20925
X32859Y-35728
X33703Y-43425
X33797Y-43228
X34641Y-28425
X34641Y-46772
X34734Y-20728
X35672Y-43228
X36516Y-13425
X36609Y-28228
X36609Y-46575
X38391Y-35925
X38484Y-13228
X40266Y-20925
X40359Y-35728
X42141Y-28425
X42234Y-20728
X44016Y-13425
X44109Y-28228
X45891Y-35925
X45984Y-13228
X47766Y-20925
X47859Y-35728
X49641Y-28425
X49734Y-20728
X51516Y-13425
X51609Y-28228
X53391Y-35925
X53484Y-13228
X55266Y-20925
X55359Y-35728
X57141Y-28425
X57234Y-20728
X59016Y-13425
X59109Y-28228
X59953Y-43425
X60891Y-35925
X60891Y-43425
X60984Y-13228
X61922Y-43228
X62766Y-20925
X62859Y-35728
X62859Y-43228
X64641Y-28425
X64641Y-46772
X64734Y-20728
X66516Y-13425
X66609Y-28228
X66609Y-46575
X68391Y-35925
X68484Y-13228
X70266Y-20925
X70359Y-35728
X72141Y-28425
X72234Y-20728
X74016Y-13425
X74109Y-28228
X75891Y-35925
X75984Y-13228
X77766Y-20925
X77859Y-35728
X79641Y-28425
X79734Y-20728
X81516Y-13425
X81609Y-28228
X83391Y-35925
X83484Y-13228
X85266Y-20925
X85359Y-35728
X87141Y-28425
X87234Y-20728
X88078Y-43425
X89016Y-13425
X89109Y-28228
X90047Y-43228
X90891Y-35925
X90984Y-13228
X92766Y-20925
X92859Y-35728
X94641Y-28425
X94641Y-46772
X94734Y-20728
X96516Y-13425
X96609Y-28228
X96609Y-46575
X97453Y-43425
X98391Y-35925
X98484Y-13228
X99422Y-43228
X100266Y-20925
X100359Y-35728
X102141Y-28425
X102234Y-20728
X104016Y-13425
X104109Y-28228
X105891Y-46772
X105984Y-13228
X106828Y-43425
X107766Y-20925
X107859Y-46575
X108797Y-43228
X109734Y-20728
X110578Y-35925
X111516Y-13425
X112547Y-35728
X113484Y-13228
X114328Y-28425
X115266Y-13425
X115266Y-43425
X116297Y-28228
X117141Y-20925
X117234Y-13228
X117234Y-43228
X119016Y-16772
X119109Y-20728
X120984Y-16575
X122766Y-35925
X122766Y-43425
X124734Y-35728
X124734Y-43228
X130266Y-13425
X130266Y-20925
X130266Y-43425
X132234Y-13228
X132234Y-20728
X132234Y-43228
T3
X124252Y-11767G85X124252Y-12751
G05
X127126Y-11767G85X127126Y-12751
G05
T0
M30
