G04 #@! TF.GenerationSoftware,KiCad,Pcbnew,(5.1.12)-1*
G04 #@! TF.CreationDate,2021-12-15T00:33:09-05:00*
G04 #@! TF.ProjectId,alps66,616c7073-3636-42e6-9b69-6361645f7063,F*
G04 #@! TF.SameCoordinates,Original*
G04 #@! TF.FileFunction,Soldermask,Bot*
G04 #@! TF.FilePolarity,Negative*
%FSLAX46Y46*%
G04 Gerber Fmt 4.6, Leading zero omitted, Abs format (unit mm)*
G04 Created by KiCad (PCBNEW (5.1.12)-1) date 2021-12-15 00:33:09*
%MOMM*%
%LPD*%
G01*
G04 APERTURE LIST*
%ADD10C,2.300000*%
%ADD11R,0.900000X1.200000*%
%ADD12R,1.600000X1.600000*%
%ADD13C,1.600000*%
%ADD14C,0.100000*%
%ADD15C,1.700000*%
%ADD16C,11.500000*%
%ADD17C,4.000000*%
%ADD18C,6.000000*%
%ADD19R,0.500000X1.400000*%
%ADD20O,1.500000X4.000000*%
%ADD21R,1.000000X1.250000*%
%ADD22R,0.700000X1.300000*%
%ADD23R,1.700000X0.900000*%
%ADD24C,0.800000*%
%ADD25R,1.400000X1.200000*%
%ADD26R,1.800000X1.800000*%
%ADD27C,1.800000*%
%ADD28R,1.200000X0.900000*%
%ADD29R,1.250000X1.000000*%
G04 APERTURE END LIST*
D10*
X223718750Y-110300000D03*
X228718750Y-109800000D03*
X242768750Y-110300000D03*
X247768750Y-109800000D03*
X247531250Y-110300000D03*
X252531250Y-109800000D03*
X152281250Y-110300000D03*
X157281250Y-109800000D03*
X154662500Y-110300000D03*
X159662500Y-109800000D03*
X97750000Y-118300000D03*
X92750000Y-118800000D03*
X92987500Y-118300000D03*
X87987500Y-118800000D03*
X85606250Y-110300000D03*
X90606250Y-109800000D03*
X71556250Y-118300000D03*
X66556250Y-118800000D03*
X69175000Y-118300000D03*
X64175000Y-118800000D03*
X61793750Y-110300000D03*
X66793750Y-109800000D03*
X42743750Y-72200000D03*
X47743750Y-71700000D03*
X45362500Y-80200000D03*
X40362500Y-80700000D03*
X45362500Y-118300000D03*
X40362500Y-118800000D03*
X292775000Y-34100000D03*
X297775000Y-33600000D03*
X271343750Y-110300000D03*
X276343750Y-109800000D03*
X216575000Y-110300000D03*
X221575000Y-109800000D03*
X207050000Y-34100000D03*
X212050000Y-33600000D03*
X188000000Y-34100000D03*
X193000000Y-33600000D03*
X197525000Y-53150000D03*
X202525000Y-52650000D03*
X183237500Y-72200000D03*
X188237500Y-71700000D03*
X164187500Y-72200000D03*
X169187500Y-71700000D03*
X173712500Y-91250000D03*
X178712500Y-90750000D03*
X154662500Y-91250000D03*
X159662500Y-90750000D03*
X245387500Y-118300000D03*
X240387500Y-118800000D03*
X168950000Y-34100000D03*
X173950000Y-33600000D03*
X149900000Y-34100000D03*
X154900000Y-33600000D03*
X178475000Y-53150000D03*
X183475000Y-52650000D03*
X159425000Y-53150000D03*
X164425000Y-52650000D03*
X145137500Y-72200000D03*
X150137500Y-71700000D03*
X135612500Y-91250000D03*
X140612500Y-90750000D03*
X116562500Y-91250000D03*
X121562500Y-90750000D03*
X169187500Y-118300000D03*
X164187500Y-118800000D03*
X130850000Y-34100000D03*
X135850000Y-33600000D03*
X111800000Y-34100000D03*
X116800000Y-33600000D03*
X140375000Y-53150000D03*
X145375000Y-52650000D03*
X121325000Y-53150000D03*
X126325000Y-52650000D03*
X126087500Y-72200000D03*
X131087500Y-71700000D03*
X107037500Y-72200000D03*
X112037500Y-71700000D03*
X97512500Y-91250000D03*
X102512500Y-90750000D03*
X85843750Y-118300000D03*
X80843750Y-118800000D03*
X92750000Y-34100000D03*
X97750000Y-33600000D03*
X73700000Y-34100000D03*
X78700000Y-33600000D03*
X102275000Y-53150000D03*
X107275000Y-52650000D03*
X83225000Y-53150000D03*
X88225000Y-52650000D03*
X87987500Y-72200000D03*
X92987500Y-71700000D03*
X78462500Y-91250000D03*
X83462500Y-90750000D03*
X59412500Y-110300000D03*
X64412500Y-109800000D03*
X54650000Y-34100000D03*
X59650000Y-33600000D03*
X35600000Y-34100000D03*
X40600000Y-33600000D03*
X64175000Y-53150000D03*
X69175000Y-52650000D03*
X40362500Y-53150000D03*
X45362500Y-52650000D03*
X68937500Y-72200000D03*
X73937500Y-71700000D03*
X42981250Y-80200000D03*
X37981250Y-80700000D03*
X47506250Y-91250000D03*
X52506250Y-90750000D03*
X37981250Y-110300000D03*
X42981250Y-109800000D03*
X330875000Y-110300000D03*
X335875000Y-109800000D03*
X307300000Y-42100000D03*
X302300000Y-42600000D03*
X283250000Y-34100000D03*
X288250000Y-33600000D03*
X273725000Y-53150000D03*
X278725000Y-52650000D03*
X297537500Y-53150000D03*
X302537500Y-52650000D03*
X290393750Y-72200000D03*
X295393750Y-71700000D03*
X311825000Y-91250000D03*
X316825000Y-90750000D03*
X280868750Y-91250000D03*
X285868750Y-90750000D03*
X311825000Y-110300000D03*
X316825000Y-109800000D03*
X330875000Y-53150000D03*
X335875000Y-52650000D03*
X264200000Y-34100000D03*
X269200000Y-33600000D03*
X254675000Y-53150000D03*
X259675000Y-52650000D03*
X235625000Y-53150000D03*
X240625000Y-52650000D03*
X259437500Y-72200000D03*
X264437500Y-71700000D03*
X240387500Y-72200000D03*
X245387500Y-71700000D03*
X249912500Y-91250000D03*
X254912500Y-90750000D03*
X230862500Y-91250000D03*
X235862500Y-90750000D03*
X292775000Y-110300000D03*
X297775000Y-109800000D03*
X330875000Y-34100000D03*
X335875000Y-33600000D03*
X245150000Y-34100000D03*
X250150000Y-33600000D03*
X226100000Y-34100000D03*
X231100000Y-33600000D03*
X216575000Y-53150000D03*
X221575000Y-52650000D03*
X221337500Y-72200000D03*
X226337500Y-71700000D03*
X202287500Y-72200000D03*
X207287500Y-71700000D03*
X211812500Y-91250000D03*
X216812500Y-90750000D03*
X192762500Y-91250000D03*
X197762500Y-90750000D03*
X273962500Y-118300000D03*
X268962500Y-118800000D03*
D11*
X80650000Y-106250000D03*
X77350000Y-106250000D03*
D12*
X75100000Y-106250000D03*
D13*
X82900000Y-106250000D03*
D14*
G36*
X137508999Y-114924937D02*
G01*
X137084735Y-115349201D01*
X136236207Y-114500673D01*
X136660471Y-114076409D01*
X137508999Y-114924937D01*
G37*
G36*
X136943313Y-115490622D02*
G01*
X136519049Y-115914886D01*
X135670521Y-115066358D01*
X136094785Y-114642094D01*
X136943313Y-115490622D01*
G37*
G36*
X136377628Y-116056308D02*
G01*
X135953364Y-116480572D01*
X135104836Y-115632044D01*
X135529100Y-115207780D01*
X136377628Y-116056308D01*
G37*
G36*
X135811943Y-116621993D02*
G01*
X135387679Y-117046257D01*
X134539151Y-116197729D01*
X134963415Y-115773465D01*
X135811943Y-116621993D01*
G37*
G36*
X135246257Y-117187679D02*
G01*
X134821993Y-117611943D01*
X133973465Y-116763415D01*
X134397729Y-116339151D01*
X135246257Y-117187679D01*
G37*
G36*
X134680572Y-117753364D02*
G01*
X134256308Y-118177628D01*
X133407780Y-117329100D01*
X133832044Y-116904836D01*
X134680572Y-117753364D01*
G37*
G36*
X134114886Y-118319049D02*
G01*
X133690622Y-118743313D01*
X132842094Y-117894785D01*
X133266358Y-117470521D01*
X134114886Y-118319049D01*
G37*
G36*
X133549201Y-118884735D02*
G01*
X133124937Y-119308999D01*
X132276409Y-118460471D01*
X132700673Y-118036207D01*
X133549201Y-118884735D01*
G37*
G36*
X130650063Y-119308999D02*
G01*
X130225799Y-118884735D01*
X131074327Y-118036207D01*
X131498591Y-118460471D01*
X130650063Y-119308999D01*
G37*
G36*
X130084378Y-118743313D02*
G01*
X129660114Y-118319049D01*
X130508642Y-117470521D01*
X130932906Y-117894785D01*
X130084378Y-118743313D01*
G37*
G36*
X129518692Y-118177628D02*
G01*
X129094428Y-117753364D01*
X129942956Y-116904836D01*
X130367220Y-117329100D01*
X129518692Y-118177628D01*
G37*
G36*
X128953007Y-117611943D02*
G01*
X128528743Y-117187679D01*
X129377271Y-116339151D01*
X129801535Y-116763415D01*
X128953007Y-117611943D01*
G37*
G36*
X128387321Y-117046257D02*
G01*
X127963057Y-116621993D01*
X128811585Y-115773465D01*
X129235849Y-116197729D01*
X128387321Y-117046257D01*
G37*
G36*
X127821636Y-116480572D02*
G01*
X127397372Y-116056308D01*
X128245900Y-115207780D01*
X128670164Y-115632044D01*
X127821636Y-116480572D01*
G37*
G36*
X127255951Y-115914886D02*
G01*
X126831687Y-115490622D01*
X127680215Y-114642094D01*
X128104479Y-115066358D01*
X127255951Y-115914886D01*
G37*
G36*
X126690265Y-115349201D02*
G01*
X126266001Y-114924937D01*
X127114529Y-114076409D01*
X127538793Y-114500673D01*
X126690265Y-115349201D01*
G37*
G36*
X127538793Y-112874327D02*
G01*
X127114529Y-113298591D01*
X126266001Y-112450063D01*
X126690265Y-112025799D01*
X127538793Y-112874327D01*
G37*
G36*
X128104479Y-112308642D02*
G01*
X127680215Y-112732906D01*
X126831687Y-111884378D01*
X127255951Y-111460114D01*
X128104479Y-112308642D01*
G37*
G36*
X128670164Y-111742956D02*
G01*
X128245900Y-112167220D01*
X127397372Y-111318692D01*
X127821636Y-110894428D01*
X128670164Y-111742956D01*
G37*
G36*
X129235849Y-111177271D02*
G01*
X128811585Y-111601535D01*
X127963057Y-110753007D01*
X128387321Y-110328743D01*
X129235849Y-111177271D01*
G37*
G36*
X129801535Y-110611585D02*
G01*
X129377271Y-111035849D01*
X128528743Y-110187321D01*
X128953007Y-109763057D01*
X129801535Y-110611585D01*
G37*
G36*
X130367220Y-110045900D02*
G01*
X129942956Y-110470164D01*
X129094428Y-109621636D01*
X129518692Y-109197372D01*
X130367220Y-110045900D01*
G37*
G36*
X130932906Y-109480215D02*
G01*
X130508642Y-109904479D01*
X129660114Y-109055951D01*
X130084378Y-108631687D01*
X130932906Y-109480215D01*
G37*
G36*
X131498591Y-108914529D02*
G01*
X131074327Y-109338793D01*
X130225799Y-108490265D01*
X130650063Y-108066001D01*
X131498591Y-108914529D01*
G37*
G36*
X132700673Y-109338793D02*
G01*
X132276409Y-108914529D01*
X133124937Y-108066001D01*
X133549201Y-108490265D01*
X132700673Y-109338793D01*
G37*
G36*
X133266358Y-109904479D02*
G01*
X132842094Y-109480215D01*
X133690622Y-108631687D01*
X134114886Y-109055951D01*
X133266358Y-109904479D01*
G37*
G36*
X133832044Y-110470164D02*
G01*
X133407780Y-110045900D01*
X134256308Y-109197372D01*
X134680572Y-109621636D01*
X133832044Y-110470164D01*
G37*
G36*
X134397729Y-111035849D02*
G01*
X133973465Y-110611585D01*
X134821993Y-109763057D01*
X135246257Y-110187321D01*
X134397729Y-111035849D01*
G37*
G36*
X134963415Y-111601535D02*
G01*
X134539151Y-111177271D01*
X135387679Y-110328743D01*
X135811943Y-110753007D01*
X134963415Y-111601535D01*
G37*
G36*
X135529100Y-112167220D02*
G01*
X135104836Y-111742956D01*
X135953364Y-110894428D01*
X136377628Y-111318692D01*
X135529100Y-112167220D01*
G37*
G36*
X136094785Y-112732906D02*
G01*
X135670521Y-112308642D01*
X136519049Y-111460114D01*
X136943313Y-111884378D01*
X136094785Y-112732906D01*
G37*
G36*
X136660471Y-113298591D02*
G01*
X136236207Y-112874327D01*
X137084735Y-112025799D01*
X137508999Y-112450063D01*
X136660471Y-113298591D01*
G37*
D15*
X132500000Y-102750000D03*
D16*
X319950000Y-74350000D03*
D17*
X138112500Y-76187500D03*
X233362500Y-76187500D03*
D18*
X247650000Y-57150000D03*
X157162500Y-76200000D03*
X52387500Y-114287500D03*
X323850000Y-114300000D03*
X262000000Y-114300000D03*
X325500000Y-47625000D03*
X54000000Y-57137500D03*
D19*
X317650000Y-33537500D03*
X318450000Y-33537500D03*
X319250000Y-33537500D03*
X320050000Y-33537500D03*
X320850000Y-33537500D03*
D20*
X315600000Y-31137500D03*
X322900000Y-31137500D03*
D15*
X128500000Y-102750000D03*
X124500000Y-102750000D03*
D21*
X136000000Y-103500000D03*
X138000000Y-103500000D03*
X148000000Y-118500000D03*
X150000000Y-118500000D03*
X147000000Y-110000000D03*
X149000000Y-110000000D03*
X140750000Y-119250000D03*
X142750000Y-119250000D03*
X142500000Y-113000000D03*
X144500000Y-113000000D03*
D22*
X171700000Y-102750000D03*
X169800000Y-102750000D03*
X171700000Y-105500000D03*
X169800000Y-105500000D03*
X114200000Y-116000000D03*
X112300000Y-116000000D03*
X58050000Y-79500000D03*
X59950000Y-79500000D03*
D23*
X334000000Y-73300000D03*
X334000000Y-76700000D03*
D24*
X334000000Y-75000000D03*
D25*
X147400000Y-113700000D03*
X149600000Y-113700000D03*
X149600000Y-115300000D03*
X147400000Y-115300000D03*
D22*
X332800000Y-70000000D03*
X334700000Y-70000000D03*
D26*
X36830000Y-43180000D03*
D27*
X39370000Y-43180000D03*
D26*
X57000000Y-76200000D03*
D27*
X59540000Y-76200000D03*
D13*
X265400000Y-104000000D03*
D12*
X257600000Y-104000000D03*
D11*
X259850000Y-104000000D03*
X263150000Y-104000000D03*
D13*
X204787500Y-91350000D03*
D12*
X204787500Y-99150000D03*
D28*
X204787500Y-96900000D03*
X204787500Y-93600000D03*
X223837500Y-93600000D03*
X223837500Y-96900000D03*
D12*
X223837500Y-99150000D03*
D13*
X223837500Y-91350000D03*
X214312500Y-72300000D03*
D12*
X214312500Y-80100000D03*
D28*
X214312500Y-77850000D03*
X214312500Y-74550000D03*
D13*
X224650000Y-65500000D03*
D12*
X216850000Y-65500000D03*
D11*
X219100000Y-65500000D03*
X222400000Y-65500000D03*
D28*
X228600000Y-55500000D03*
X228600000Y-58800000D03*
D12*
X228600000Y-61050000D03*
D13*
X228600000Y-53250000D03*
X238125000Y-34200000D03*
D12*
X238125000Y-42000000D03*
D28*
X238125000Y-39750000D03*
X238125000Y-36450000D03*
X257162500Y-36437500D03*
X257162500Y-39737500D03*
D12*
X257162500Y-41987500D03*
D13*
X257162500Y-34187500D03*
D11*
X336400000Y-46000000D03*
X333100000Y-46000000D03*
D12*
X330850000Y-46000000D03*
D13*
X338650000Y-46000000D03*
D28*
X286000000Y-112650000D03*
X286000000Y-115950000D03*
D12*
X286000000Y-118200000D03*
D13*
X286000000Y-110400000D03*
D28*
X242887500Y-93600000D03*
X242887500Y-96900000D03*
D12*
X242887500Y-99150000D03*
D13*
X242887500Y-91350000D03*
D28*
X261937500Y-93600000D03*
X261937500Y-96900000D03*
D12*
X261937500Y-99150000D03*
D13*
X261937500Y-91350000D03*
D28*
X252412500Y-74550000D03*
X252412500Y-77850000D03*
D12*
X252412500Y-80100000D03*
D13*
X252412500Y-72300000D03*
X271462500Y-72300000D03*
D12*
X271462500Y-80100000D03*
D28*
X271462500Y-77850000D03*
X271462500Y-74550000D03*
D11*
X240400000Y-65500000D03*
X237100000Y-65500000D03*
D12*
X234850000Y-65500000D03*
D13*
X242650000Y-65500000D03*
D28*
X266700000Y-55500000D03*
X266700000Y-58800000D03*
D12*
X266700000Y-61050000D03*
D13*
X266700000Y-53250000D03*
D28*
X276225000Y-36450000D03*
X276225000Y-39750000D03*
D12*
X276225000Y-42000000D03*
D13*
X276225000Y-34200000D03*
D28*
X338500000Y-93600000D03*
X338500000Y-96900000D03*
D12*
X338500000Y-99150000D03*
D13*
X338500000Y-91350000D03*
X304800000Y-110400000D03*
D12*
X304800000Y-118200000D03*
D28*
X304800000Y-115950000D03*
X304800000Y-112650000D03*
D13*
X304250000Y-91350000D03*
D12*
X304250000Y-99150000D03*
D28*
X304250000Y-96900000D03*
X304250000Y-93600000D03*
X324250000Y-93600000D03*
X324250000Y-96900000D03*
D12*
X324250000Y-99150000D03*
D13*
X324250000Y-91350000D03*
D28*
X290000000Y-55500000D03*
X290000000Y-58800000D03*
D12*
X290000000Y-61050000D03*
D13*
X290000000Y-53250000D03*
X286000000Y-53250000D03*
D12*
X286000000Y-61050000D03*
D28*
X286000000Y-58800000D03*
X286000000Y-55500000D03*
D11*
X275650000Y-46000000D03*
X272350000Y-46000000D03*
D12*
X270100000Y-46000000D03*
D13*
X277900000Y-46000000D03*
D11*
X297150000Y-46000000D03*
X293850000Y-46000000D03*
D12*
X291600000Y-46000000D03*
D13*
X299400000Y-46000000D03*
D28*
X311750000Y-55500000D03*
X311750000Y-58800000D03*
D12*
X311750000Y-61050000D03*
D13*
X311750000Y-53250000D03*
X333750000Y-91350000D03*
D12*
X333750000Y-99150000D03*
D28*
X333750000Y-96900000D03*
X333750000Y-93600000D03*
X33000000Y-93600000D03*
X33000000Y-96900000D03*
D12*
X33000000Y-99150000D03*
D13*
X33000000Y-91350000D03*
D28*
X40481250Y-93600000D03*
X40481250Y-96900000D03*
D12*
X40481250Y-99150000D03*
D13*
X40481250Y-91350000D03*
D11*
X40150000Y-65500000D03*
X36850000Y-65500000D03*
D12*
X34600000Y-65500000D03*
D13*
X42400000Y-65500000D03*
X80962500Y-72300000D03*
D12*
X80962500Y-80100000D03*
D28*
X80962500Y-77850000D03*
X80962500Y-74550000D03*
D13*
X33337500Y-53250000D03*
D12*
X33337500Y-61050000D03*
D28*
X33337500Y-58800000D03*
X33337500Y-55500000D03*
X76200000Y-55500000D03*
X76200000Y-58800000D03*
D12*
X76200000Y-61050000D03*
D13*
X76200000Y-53250000D03*
D28*
X47625000Y-36450000D03*
X47625000Y-39750000D03*
D12*
X47625000Y-42000000D03*
D13*
X47625000Y-34200000D03*
X66675000Y-34200000D03*
D12*
X66675000Y-42000000D03*
D28*
X66675000Y-39750000D03*
X66675000Y-36450000D03*
D13*
X220650000Y-104000000D03*
D12*
X212850000Y-104000000D03*
D11*
X215100000Y-104000000D03*
X218400000Y-104000000D03*
D13*
X72150000Y-106250000D03*
D12*
X64350000Y-106250000D03*
D11*
X66600000Y-106250000D03*
X69900000Y-106250000D03*
D13*
X90487500Y-91350000D03*
D12*
X90487500Y-99150000D03*
D28*
X90487500Y-96900000D03*
X90487500Y-93600000D03*
D13*
X100012500Y-72300000D03*
D12*
X100012500Y-80100000D03*
D28*
X100012500Y-77850000D03*
X100012500Y-74550000D03*
D13*
X95250000Y-53250000D03*
D12*
X95250000Y-61050000D03*
D28*
X95250000Y-58800000D03*
X95250000Y-55500000D03*
X114300000Y-55500000D03*
X114300000Y-58800000D03*
D12*
X114300000Y-61050000D03*
D13*
X114300000Y-53250000D03*
D28*
X85725000Y-36450000D03*
X85725000Y-39750000D03*
D12*
X85725000Y-42000000D03*
D13*
X85725000Y-34200000D03*
D28*
X104775000Y-36450000D03*
X104775000Y-39750000D03*
D12*
X104775000Y-42000000D03*
D13*
X104775000Y-34200000D03*
D28*
X109537500Y-93600000D03*
X109537500Y-96900000D03*
D12*
X109537500Y-99150000D03*
D13*
X109537500Y-91350000D03*
X119062500Y-72300000D03*
D12*
X119062500Y-80100000D03*
D28*
X119062500Y-77850000D03*
X119062500Y-74550000D03*
D11*
X133900000Y-65500000D03*
X130600000Y-65500000D03*
D12*
X128350000Y-65500000D03*
D13*
X136150000Y-65500000D03*
X133350000Y-53250000D03*
D12*
X133350000Y-61050000D03*
D28*
X133350000Y-58800000D03*
X133350000Y-55500000D03*
D13*
X152400000Y-53250000D03*
D12*
X152400000Y-61050000D03*
D28*
X152400000Y-58800000D03*
X152400000Y-55500000D03*
D13*
X123825000Y-34200000D03*
D12*
X123825000Y-42000000D03*
D28*
X123825000Y-39750000D03*
X123825000Y-36450000D03*
D13*
X142875000Y-34200000D03*
D12*
X142875000Y-42000000D03*
D28*
X142875000Y-39750000D03*
X142875000Y-36450000D03*
D13*
X180500000Y-109100000D03*
D12*
X180500000Y-116900000D03*
D28*
X180500000Y-114650000D03*
X180500000Y-111350000D03*
D13*
X128587500Y-91350000D03*
D12*
X128587500Y-99150000D03*
D28*
X128587500Y-96900000D03*
X128587500Y-93600000D03*
D13*
X147637500Y-91350000D03*
D12*
X147637500Y-99150000D03*
D28*
X147637500Y-96900000D03*
X147637500Y-93600000D03*
D13*
X158400000Y-65500000D03*
D12*
X150600000Y-65500000D03*
D11*
X152850000Y-65500000D03*
X156150000Y-65500000D03*
D13*
X171450000Y-53250000D03*
D12*
X171450000Y-61050000D03*
D28*
X171450000Y-58800000D03*
X171450000Y-55500000D03*
X190500000Y-55500000D03*
X190500000Y-58800000D03*
D12*
X190500000Y-61050000D03*
D13*
X190500000Y-53250000D03*
X161925000Y-34200000D03*
D12*
X161925000Y-42000000D03*
D28*
X161925000Y-39750000D03*
X161925000Y-36450000D03*
X180975000Y-36450000D03*
X180975000Y-39750000D03*
D12*
X180975000Y-42000000D03*
D13*
X180975000Y-34200000D03*
D11*
X244650000Y-104000000D03*
X241350000Y-104000000D03*
D12*
X239100000Y-104000000D03*
D13*
X246900000Y-104000000D03*
X166687500Y-91350000D03*
D12*
X166687500Y-99150000D03*
D28*
X166687500Y-96900000D03*
X166687500Y-93600000D03*
D13*
X185737500Y-91350000D03*
D12*
X185737500Y-99150000D03*
D28*
X185737500Y-96900000D03*
X185737500Y-93600000D03*
D13*
X176212500Y-72300000D03*
D12*
X176212500Y-80100000D03*
D28*
X176212500Y-77850000D03*
X176212500Y-74550000D03*
D13*
X195262500Y-72300000D03*
D12*
X195262500Y-80100000D03*
D28*
X195262500Y-77850000D03*
X195262500Y-74550000D03*
X209550000Y-55500000D03*
X209550000Y-58800000D03*
D12*
X209550000Y-61050000D03*
D13*
X209550000Y-53250000D03*
D28*
X200025000Y-36450000D03*
X200025000Y-39750000D03*
D12*
X200025000Y-42000000D03*
D13*
X200025000Y-34200000D03*
D28*
X219075000Y-36450000D03*
X219075000Y-39750000D03*
D12*
X219075000Y-42000000D03*
D13*
X219075000Y-34200000D03*
D29*
X142500000Y-108750000D03*
X142500000Y-110750000D03*
M02*
