G04 #@! TF.FileFunction,Paste,Bot*
%FSLAX46Y46*%
G04 Gerber Fmt 4.6, Leading zero omitted, Abs format (unit mm)*
G04 Created by KiCad (PCBNEW 4.0.6) date 07/11/19 02:34:24*
%MOMM*%
%LPD*%
G01*
G04 APERTURE LIST*
%ADD10C,0.100000*%
%ADD11R,1.440000X1.440000*%
%ADD12R,1.840000X1.640000*%
%ADD13R,1.240000X1.040000*%
%ADD14R,0.840000X1.090000*%
%ADD15R,1.090000X0.840000*%
%ADD16R,0.540000X1.140000*%
%ADD17R,0.340000X1.240000*%
%ADD18O,1.340000X3.840000*%
%ADD19R,1.540000X0.740000*%
%ADD20R,1.040000X1.040000*%
G04 APERTURE END LIST*
D10*
D11*
X56550000Y-74250000D03*
X58950000Y-74250000D03*
D10*
G36*
X137448894Y-115013325D02*
X137173123Y-115289096D01*
X136225600Y-114341573D01*
X136501371Y-114065802D01*
X137448894Y-115013325D01*
X137448894Y-115013325D01*
G37*
G36*
X136883209Y-115579011D02*
X136607438Y-115854782D01*
X135659915Y-114907259D01*
X135935686Y-114631488D01*
X136883209Y-115579011D01*
X136883209Y-115579011D01*
G37*
G36*
X136317524Y-116144696D02*
X136041753Y-116420467D01*
X135094230Y-115472944D01*
X135370001Y-115197173D01*
X136317524Y-116144696D01*
X136317524Y-116144696D01*
G37*
G36*
X135751838Y-116710382D02*
X135476067Y-116986153D01*
X134528544Y-116038630D01*
X134804315Y-115762859D01*
X135751838Y-116710382D01*
X135751838Y-116710382D01*
G37*
G36*
X135186153Y-117276067D02*
X134910382Y-117551838D01*
X133962859Y-116604315D01*
X134238630Y-116328544D01*
X135186153Y-117276067D01*
X135186153Y-117276067D01*
G37*
G36*
X134620467Y-117841753D02*
X134344696Y-118117524D01*
X133397173Y-117170001D01*
X133672944Y-116894230D01*
X134620467Y-117841753D01*
X134620467Y-117841753D01*
G37*
G36*
X134054782Y-118407438D02*
X133779011Y-118683209D01*
X132831488Y-117735686D01*
X133107259Y-117459915D01*
X134054782Y-118407438D01*
X134054782Y-118407438D01*
G37*
G36*
X133489096Y-118973123D02*
X133213325Y-119248894D01*
X132265802Y-118301371D01*
X132541573Y-118025600D01*
X133489096Y-118973123D01*
X133489096Y-118973123D01*
G37*
G36*
X131509198Y-118301371D02*
X130561675Y-119248894D01*
X130285904Y-118973123D01*
X131233427Y-118025600D01*
X131509198Y-118301371D01*
X131509198Y-118301371D01*
G37*
G36*
X130943512Y-117735686D02*
X129995989Y-118683209D01*
X129720218Y-118407438D01*
X130667741Y-117459915D01*
X130943512Y-117735686D01*
X130943512Y-117735686D01*
G37*
G36*
X130377827Y-117170001D02*
X129430304Y-118117524D01*
X129154533Y-117841753D01*
X130102056Y-116894230D01*
X130377827Y-117170001D01*
X130377827Y-117170001D01*
G37*
G36*
X129812141Y-116604315D02*
X128864618Y-117551838D01*
X128588847Y-117276067D01*
X129536370Y-116328544D01*
X129812141Y-116604315D01*
X129812141Y-116604315D01*
G37*
G36*
X129246456Y-116038630D02*
X128298933Y-116986153D01*
X128023162Y-116710382D01*
X128970685Y-115762859D01*
X129246456Y-116038630D01*
X129246456Y-116038630D01*
G37*
G36*
X128680770Y-115472944D02*
X127733247Y-116420467D01*
X127457476Y-116144696D01*
X128404999Y-115197173D01*
X128680770Y-115472944D01*
X128680770Y-115472944D01*
G37*
G36*
X128115085Y-114907259D02*
X127167562Y-115854782D01*
X126891791Y-115579011D01*
X127839314Y-114631488D01*
X128115085Y-114907259D01*
X128115085Y-114907259D01*
G37*
G36*
X127549400Y-114341573D02*
X126601877Y-115289096D01*
X126326106Y-115013325D01*
X127273629Y-114065802D01*
X127549400Y-114341573D01*
X127549400Y-114341573D01*
G37*
G36*
X127549400Y-113033427D02*
X127273629Y-113309198D01*
X126326106Y-112361675D01*
X126601877Y-112085904D01*
X127549400Y-113033427D01*
X127549400Y-113033427D01*
G37*
G36*
X128115085Y-112467741D02*
X127839314Y-112743512D01*
X126891791Y-111795989D01*
X127167562Y-111520218D01*
X128115085Y-112467741D01*
X128115085Y-112467741D01*
G37*
G36*
X128680770Y-111902056D02*
X128404999Y-112177827D01*
X127457476Y-111230304D01*
X127733247Y-110954533D01*
X128680770Y-111902056D01*
X128680770Y-111902056D01*
G37*
G36*
X129246456Y-111336370D02*
X128970685Y-111612141D01*
X128023162Y-110664618D01*
X128298933Y-110388847D01*
X129246456Y-111336370D01*
X129246456Y-111336370D01*
G37*
G36*
X129812141Y-110770685D02*
X129536370Y-111046456D01*
X128588847Y-110098933D01*
X128864618Y-109823162D01*
X129812141Y-110770685D01*
X129812141Y-110770685D01*
G37*
G36*
X130377827Y-110204999D02*
X130102056Y-110480770D01*
X129154533Y-109533247D01*
X129430304Y-109257476D01*
X130377827Y-110204999D01*
X130377827Y-110204999D01*
G37*
G36*
X130943512Y-109639314D02*
X130667741Y-109915085D01*
X129720218Y-108967562D01*
X129995989Y-108691791D01*
X130943512Y-109639314D01*
X130943512Y-109639314D01*
G37*
G36*
X131509198Y-109073629D02*
X131233427Y-109349400D01*
X130285904Y-108401877D01*
X130561675Y-108126106D01*
X131509198Y-109073629D01*
X131509198Y-109073629D01*
G37*
G36*
X133489096Y-108401877D02*
X132541573Y-109349400D01*
X132265802Y-109073629D01*
X133213325Y-108126106D01*
X133489096Y-108401877D01*
X133489096Y-108401877D01*
G37*
G36*
X134054782Y-108967562D02*
X133107259Y-109915085D01*
X132831488Y-109639314D01*
X133779011Y-108691791D01*
X134054782Y-108967562D01*
X134054782Y-108967562D01*
G37*
G36*
X134620467Y-109533247D02*
X133672944Y-110480770D01*
X133397173Y-110204999D01*
X134344696Y-109257476D01*
X134620467Y-109533247D01*
X134620467Y-109533247D01*
G37*
G36*
X135186153Y-110098933D02*
X134238630Y-111046456D01*
X133962859Y-110770685D01*
X134910382Y-109823162D01*
X135186153Y-110098933D01*
X135186153Y-110098933D01*
G37*
G36*
X135751838Y-110664618D02*
X134804315Y-111612141D01*
X134528544Y-111336370D01*
X135476067Y-110388847D01*
X135751838Y-110664618D01*
X135751838Y-110664618D01*
G37*
G36*
X136317524Y-111230304D02*
X135370001Y-112177827D01*
X135094230Y-111902056D01*
X136041753Y-110954533D01*
X136317524Y-111230304D01*
X136317524Y-111230304D01*
G37*
G36*
X136883209Y-111795989D02*
X135935686Y-112743512D01*
X135659915Y-112467741D01*
X136607438Y-111520218D01*
X136883209Y-111795989D01*
X136883209Y-111795989D01*
G37*
G36*
X137448894Y-112361675D02*
X136501371Y-113309198D01*
X136225600Y-113033427D01*
X137173123Y-112085904D01*
X137448894Y-112361675D01*
X137448894Y-112361675D01*
G37*
D12*
X124500000Y-101000000D03*
X124500000Y-98000000D03*
D13*
X147418750Y-115087500D03*
X149818750Y-115087500D03*
X147418750Y-113387500D03*
X149818750Y-113387500D03*
D14*
X136500000Y-103000000D03*
X134500000Y-103000000D03*
X147368750Y-118487500D03*
X149368750Y-118487500D03*
D15*
X146618750Y-110737500D03*
X146618750Y-108737500D03*
D14*
X139250000Y-117500000D03*
X141250000Y-117500000D03*
X141000000Y-112750000D03*
X143000000Y-112750000D03*
D10*
G36*
X141209619Y-107984279D02*
X142015721Y-108790381D01*
X141633883Y-109172219D01*
X140827781Y-108366117D01*
X141209619Y-107984279D01*
X141209619Y-107984279D01*
G37*
G36*
X139866117Y-109327781D02*
X140672219Y-110133883D01*
X140290381Y-110515721D01*
X139484279Y-109709619D01*
X139866117Y-109327781D01*
X139866117Y-109327781D01*
G37*
G36*
X139459619Y-106234279D02*
X140265721Y-107040381D01*
X139883883Y-107422219D01*
X139077781Y-106616117D01*
X139459619Y-106234279D01*
X139459619Y-106234279D01*
G37*
G36*
X138116117Y-107577781D02*
X138922219Y-108383883D01*
X138540381Y-108765721D01*
X137734279Y-107959619D01*
X138116117Y-107577781D01*
X138116117Y-107577781D01*
G37*
D16*
X115200000Y-115500000D03*
X113300000Y-115500000D03*
X56800000Y-70750000D03*
X58700000Y-70750000D03*
D17*
X317650000Y-33537500D03*
X318450000Y-33537500D03*
X319250000Y-33537500D03*
X320050000Y-33537500D03*
X320850000Y-33537500D03*
D18*
X315600000Y-31137500D03*
X322900000Y-31137500D03*
D19*
X334000000Y-73300000D03*
X334000000Y-76700000D03*
D20*
X216000000Y-112925000D03*
X216000000Y-116075000D03*
X204787500Y-93675000D03*
X204787500Y-96825000D03*
X223837500Y-93675000D03*
X223837500Y-96825000D03*
X214312500Y-74625000D03*
X214312500Y-77775000D03*
X225575000Y-83500000D03*
X222425000Y-83500000D03*
X228600000Y-55575000D03*
X228600000Y-58725000D03*
X238125000Y-36525000D03*
X238125000Y-39675000D03*
X257162500Y-36512500D03*
X257162500Y-39662500D03*
X286000000Y-112725000D03*
X286000000Y-115875000D03*
X242887500Y-93675000D03*
X242887500Y-96825000D03*
X261937500Y-93675000D03*
X261937500Y-96825000D03*
X252412500Y-74625000D03*
X252412500Y-77775000D03*
X271462500Y-74625000D03*
X271462500Y-77775000D03*
X240575000Y-65000000D03*
X237425000Y-65000000D03*
X266700000Y-55575000D03*
X266700000Y-58725000D03*
X276225000Y-36525000D03*
X276225000Y-39675000D03*
X304800000Y-112725000D03*
X304800000Y-115875000D03*
X304500000Y-93675000D03*
X304500000Y-96825000D03*
X317475000Y-103000000D03*
X314325000Y-103000000D03*
X290000000Y-61425000D03*
X290000000Y-64575000D03*
X286000000Y-61425000D03*
X286000000Y-64575000D03*
X290575000Y-50000000D03*
X287425000Y-50000000D03*
X297675000Y-45500000D03*
X294525000Y-45500000D03*
X338075000Y-46000000D03*
X334925000Y-46000000D03*
X31500000Y-104925000D03*
X31500000Y-108075000D03*
X53193750Y-105737500D03*
X50043750Y-105737500D03*
X40075000Y-67500000D03*
X36925000Y-67500000D03*
X80962500Y-74625000D03*
X80962500Y-77775000D03*
X40075000Y-48000000D03*
X36925000Y-48000000D03*
X76200000Y-55575000D03*
X76200000Y-58725000D03*
X47625000Y-36525000D03*
X47625000Y-39675000D03*
X66675000Y-36525000D03*
X66675000Y-39675000D03*
X80037500Y-86500000D03*
X76887500Y-86500000D03*
X71437500Y-93675000D03*
X71437500Y-96825000D03*
X90487500Y-93675000D03*
X90487500Y-96825000D03*
X100012500Y-74625000D03*
X100012500Y-77775000D03*
X95250000Y-55575000D03*
X95250000Y-58725000D03*
X114300000Y-55575000D03*
X114300000Y-58725000D03*
X85725000Y-36525000D03*
X85725000Y-39675000D03*
X104775000Y-36525000D03*
X104775000Y-39675000D03*
X83575000Y-107000000D03*
X80425000Y-107000000D03*
X109537500Y-91425000D03*
X109537500Y-94575000D03*
X119062500Y-74625000D03*
X119062500Y-77775000D03*
X138975000Y-68000000D03*
X135825000Y-68000000D03*
X133350000Y-55575000D03*
X133350000Y-58725000D03*
X152400000Y-55575000D03*
X152400000Y-58725000D03*
X123825000Y-36525000D03*
X123825000Y-39675000D03*
X142875000Y-36525000D03*
X142875000Y-39675000D03*
X180500000Y-111425000D03*
X180500000Y-114575000D03*
X128587500Y-93675000D03*
X128587500Y-96825000D03*
X147637500Y-93675000D03*
X147637500Y-96825000D03*
X150575000Y-83500000D03*
X147425000Y-83500000D03*
X171450000Y-55575000D03*
X171450000Y-58725000D03*
X190500000Y-55575000D03*
X190500000Y-58725000D03*
X161925000Y-36525000D03*
X161925000Y-39675000D03*
X180975000Y-36525000D03*
X180975000Y-39675000D03*
X210000000Y-114500000D03*
X206850000Y-114500000D03*
X166687500Y-93675000D03*
X166687500Y-96825000D03*
X185737500Y-93675000D03*
X185737500Y-96825000D03*
X176212500Y-74625000D03*
X176212500Y-77775000D03*
X195262500Y-74625000D03*
X195262500Y-77775000D03*
X209550000Y-55575000D03*
X209550000Y-58725000D03*
X200025000Y-36525000D03*
X200025000Y-39675000D03*
X219075000Y-36525000D03*
X219075000Y-39675000D03*
X338075000Y-98500000D03*
X334925000Y-98500000D03*
X338075000Y-103500000D03*
X334925000Y-103500000D03*
X312500000Y-51925000D03*
X312500000Y-55075000D03*
X324000000Y-97325000D03*
X324000000Y-100475000D03*
M02*
