G04 #@! TF.GenerationSoftware,KiCad,Pcbnew,(5.1.12)-1*
G04 #@! TF.CreationDate,2021-12-15T00:33:09-05:00*
G04 #@! TF.ProjectId,alps66,616c7073-3636-42e6-9b69-6361645f7063,F*
G04 #@! TF.SameCoordinates,Original*
G04 #@! TF.FileFunction,Paste,Bot*
G04 #@! TF.FilePolarity,Positive*
%FSLAX46Y46*%
G04 Gerber Fmt 4.6, Leading zero omitted, Abs format (unit mm)*
G04 Created by KiCad (PCBNEW (5.1.12)-1) date 2021-12-15 00:33:09*
%MOMM*%
%LPD*%
G01*
G04 APERTURE LIST*
%ADD10R,0.740000X1.040000*%
%ADD11C,0.100000*%
%ADD12R,0.340000X1.240000*%
%ADD13O,1.340000X3.840000*%
%ADD14R,0.840000X1.090000*%
%ADD15R,0.540000X1.140000*%
%ADD16R,1.540000X0.740000*%
%ADD17R,1.240000X1.040000*%
%ADD18R,1.040000X0.740000*%
%ADD19R,1.090000X0.840000*%
G04 APERTURE END LIST*
D10*
X80650000Y-106250000D03*
X77350000Y-106250000D03*
D11*
G36*
X137395862Y-114924937D02*
G01*
X137084735Y-115236064D01*
X136349344Y-114500673D01*
X136660471Y-114189546D01*
X137395862Y-114924937D01*
G37*
G36*
X136830176Y-115490622D02*
G01*
X136519049Y-115801749D01*
X135783658Y-115066358D01*
X136094785Y-114755231D01*
X136830176Y-115490622D01*
G37*
G36*
X136264491Y-116056308D02*
G01*
X135953364Y-116367435D01*
X135217973Y-115632044D01*
X135529100Y-115320917D01*
X136264491Y-116056308D01*
G37*
G36*
X135698806Y-116621993D02*
G01*
X135387679Y-116933120D01*
X134652288Y-116197729D01*
X134963415Y-115886602D01*
X135698806Y-116621993D01*
G37*
G36*
X135133120Y-117187679D02*
G01*
X134821993Y-117498806D01*
X134086602Y-116763415D01*
X134397729Y-116452288D01*
X135133120Y-117187679D01*
G37*
G36*
X134567435Y-117753364D02*
G01*
X134256308Y-118064491D01*
X133520917Y-117329100D01*
X133832044Y-117017973D01*
X134567435Y-117753364D01*
G37*
G36*
X134001749Y-118319049D02*
G01*
X133690622Y-118630176D01*
X132955231Y-117894785D01*
X133266358Y-117583658D01*
X134001749Y-118319049D01*
G37*
G36*
X133436064Y-118884735D02*
G01*
X133124937Y-119195862D01*
X132389546Y-118460471D01*
X132700673Y-118149344D01*
X133436064Y-118884735D01*
G37*
G36*
X130650063Y-119195862D02*
G01*
X130338936Y-118884735D01*
X131074327Y-118149344D01*
X131385454Y-118460471D01*
X130650063Y-119195862D01*
G37*
G36*
X130084378Y-118630176D02*
G01*
X129773251Y-118319049D01*
X130508642Y-117583658D01*
X130819769Y-117894785D01*
X130084378Y-118630176D01*
G37*
G36*
X129518692Y-118064491D02*
G01*
X129207565Y-117753364D01*
X129942956Y-117017973D01*
X130254083Y-117329100D01*
X129518692Y-118064491D01*
G37*
G36*
X128953007Y-117498806D02*
G01*
X128641880Y-117187679D01*
X129377271Y-116452288D01*
X129688398Y-116763415D01*
X128953007Y-117498806D01*
G37*
G36*
X128387321Y-116933120D02*
G01*
X128076194Y-116621993D01*
X128811585Y-115886602D01*
X129122712Y-116197729D01*
X128387321Y-116933120D01*
G37*
G36*
X127821636Y-116367435D02*
G01*
X127510509Y-116056308D01*
X128245900Y-115320917D01*
X128557027Y-115632044D01*
X127821636Y-116367435D01*
G37*
G36*
X127255951Y-115801749D02*
G01*
X126944824Y-115490622D01*
X127680215Y-114755231D01*
X127991342Y-115066358D01*
X127255951Y-115801749D01*
G37*
G36*
X126690265Y-115236064D02*
G01*
X126379138Y-114924937D01*
X127114529Y-114189546D01*
X127425656Y-114500673D01*
X126690265Y-115236064D01*
G37*
G36*
X127425656Y-112874327D02*
G01*
X127114529Y-113185454D01*
X126379138Y-112450063D01*
X126690265Y-112138936D01*
X127425656Y-112874327D01*
G37*
G36*
X127991342Y-112308642D02*
G01*
X127680215Y-112619769D01*
X126944824Y-111884378D01*
X127255951Y-111573251D01*
X127991342Y-112308642D01*
G37*
G36*
X128557027Y-111742956D02*
G01*
X128245900Y-112054083D01*
X127510509Y-111318692D01*
X127821636Y-111007565D01*
X128557027Y-111742956D01*
G37*
G36*
X129122712Y-111177271D02*
G01*
X128811585Y-111488398D01*
X128076194Y-110753007D01*
X128387321Y-110441880D01*
X129122712Y-111177271D01*
G37*
G36*
X129688398Y-110611585D02*
G01*
X129377271Y-110922712D01*
X128641880Y-110187321D01*
X128953007Y-109876194D01*
X129688398Y-110611585D01*
G37*
G36*
X130254083Y-110045900D02*
G01*
X129942956Y-110357027D01*
X129207565Y-109621636D01*
X129518692Y-109310509D01*
X130254083Y-110045900D01*
G37*
G36*
X130819769Y-109480215D02*
G01*
X130508642Y-109791342D01*
X129773251Y-109055951D01*
X130084378Y-108744824D01*
X130819769Y-109480215D01*
G37*
G36*
X131385454Y-108914529D02*
G01*
X131074327Y-109225656D01*
X130338936Y-108490265D01*
X130650063Y-108179138D01*
X131385454Y-108914529D01*
G37*
G36*
X132700673Y-109225656D02*
G01*
X132389546Y-108914529D01*
X133124937Y-108179138D01*
X133436064Y-108490265D01*
X132700673Y-109225656D01*
G37*
G36*
X133266358Y-109791342D02*
G01*
X132955231Y-109480215D01*
X133690622Y-108744824D01*
X134001749Y-109055951D01*
X133266358Y-109791342D01*
G37*
G36*
X133832044Y-110357027D02*
G01*
X133520917Y-110045900D01*
X134256308Y-109310509D01*
X134567435Y-109621636D01*
X133832044Y-110357027D01*
G37*
G36*
X134397729Y-110922712D02*
G01*
X134086602Y-110611585D01*
X134821993Y-109876194D01*
X135133120Y-110187321D01*
X134397729Y-110922712D01*
G37*
G36*
X134963415Y-111488398D02*
G01*
X134652288Y-111177271D01*
X135387679Y-110441880D01*
X135698806Y-110753007D01*
X134963415Y-111488398D01*
G37*
G36*
X135529100Y-112054083D02*
G01*
X135217973Y-111742956D01*
X135953364Y-111007565D01*
X136264491Y-111318692D01*
X135529100Y-112054083D01*
G37*
G36*
X136094785Y-112619769D02*
G01*
X135783658Y-112308642D01*
X136519049Y-111573251D01*
X136830176Y-111884378D01*
X136094785Y-112619769D01*
G37*
G36*
X136660471Y-113185454D02*
G01*
X136349344Y-112874327D01*
X137084735Y-112138936D01*
X137395862Y-112450063D01*
X136660471Y-113185454D01*
G37*
D12*
X317650000Y-33537500D03*
X318450000Y-33537500D03*
X319250000Y-33537500D03*
X320050000Y-33537500D03*
X320850000Y-33537500D03*
D13*
X315600000Y-31137500D03*
X322900000Y-31137500D03*
D14*
X136000000Y-103500000D03*
X138000000Y-103500000D03*
X148000000Y-118500000D03*
X150000000Y-118500000D03*
X147000000Y-110000000D03*
X149000000Y-110000000D03*
X140750000Y-119250000D03*
X142750000Y-119250000D03*
X142500000Y-113000000D03*
X144500000Y-113000000D03*
D15*
X171700000Y-102750000D03*
X169800000Y-102750000D03*
X171700000Y-105500000D03*
X169800000Y-105500000D03*
X114200000Y-116000000D03*
X112300000Y-116000000D03*
X58050000Y-79500000D03*
X59950000Y-79500000D03*
D16*
X334000000Y-73300000D03*
X334000000Y-76700000D03*
D17*
X147400000Y-113700000D03*
X149600000Y-113700000D03*
X149600000Y-115300000D03*
X147400000Y-115300000D03*
D15*
X332800000Y-70000000D03*
X334700000Y-70000000D03*
D10*
X259850000Y-104000000D03*
X263150000Y-104000000D03*
D18*
X204787500Y-96900000D03*
X204787500Y-93600000D03*
X223837500Y-93600000D03*
X223837500Y-96900000D03*
X214312500Y-77850000D03*
X214312500Y-74550000D03*
D10*
X219100000Y-65500000D03*
X222400000Y-65500000D03*
D18*
X228600000Y-55500000D03*
X228600000Y-58800000D03*
X238125000Y-39750000D03*
X238125000Y-36450000D03*
X257162500Y-36437500D03*
X257162500Y-39737500D03*
D10*
X336400000Y-46000000D03*
X333100000Y-46000000D03*
D18*
X286000000Y-112650000D03*
X286000000Y-115950000D03*
X242887500Y-93600000D03*
X242887500Y-96900000D03*
X261937500Y-93600000D03*
X261937500Y-96900000D03*
X252412500Y-74550000D03*
X252412500Y-77850000D03*
X271462500Y-77850000D03*
X271462500Y-74550000D03*
D10*
X240400000Y-65500000D03*
X237100000Y-65500000D03*
D18*
X266700000Y-55500000D03*
X266700000Y-58800000D03*
X276225000Y-36450000D03*
X276225000Y-39750000D03*
X338500000Y-93600000D03*
X338500000Y-96900000D03*
X304800000Y-115950000D03*
X304800000Y-112650000D03*
X304250000Y-96900000D03*
X304250000Y-93600000D03*
X324250000Y-93600000D03*
X324250000Y-96900000D03*
X290000000Y-55500000D03*
X290000000Y-58800000D03*
X286000000Y-58800000D03*
X286000000Y-55500000D03*
D10*
X275650000Y-46000000D03*
X272350000Y-46000000D03*
X297150000Y-46000000D03*
X293850000Y-46000000D03*
D18*
X311750000Y-55500000D03*
X311750000Y-58800000D03*
X333750000Y-96900000D03*
X333750000Y-93600000D03*
X33000000Y-93600000D03*
X33000000Y-96900000D03*
X40481250Y-93600000D03*
X40481250Y-96900000D03*
D10*
X40150000Y-65500000D03*
X36850000Y-65500000D03*
D18*
X80962500Y-77850000D03*
X80962500Y-74550000D03*
X33337500Y-58800000D03*
X33337500Y-55500000D03*
X76200000Y-55500000D03*
X76200000Y-58800000D03*
X47625000Y-36450000D03*
X47625000Y-39750000D03*
X66675000Y-39750000D03*
X66675000Y-36450000D03*
D10*
X215100000Y-104000000D03*
X218400000Y-104000000D03*
X66600000Y-106250000D03*
X69900000Y-106250000D03*
D18*
X90487500Y-96900000D03*
X90487500Y-93600000D03*
X100012500Y-77850000D03*
X100012500Y-74550000D03*
X95250000Y-58800000D03*
X95250000Y-55500000D03*
X114300000Y-55500000D03*
X114300000Y-58800000D03*
X85725000Y-36450000D03*
X85725000Y-39750000D03*
X104775000Y-36450000D03*
X104775000Y-39750000D03*
X109537500Y-93600000D03*
X109537500Y-96900000D03*
X119062500Y-77850000D03*
X119062500Y-74550000D03*
D10*
X133900000Y-65500000D03*
X130600000Y-65500000D03*
D18*
X133350000Y-58800000D03*
X133350000Y-55500000D03*
X152400000Y-58800000D03*
X152400000Y-55500000D03*
X123825000Y-39750000D03*
X123825000Y-36450000D03*
X142875000Y-39750000D03*
X142875000Y-36450000D03*
X180500000Y-114650000D03*
X180500000Y-111350000D03*
X128587500Y-96900000D03*
X128587500Y-93600000D03*
X147637500Y-96900000D03*
X147637500Y-93600000D03*
D10*
X152850000Y-65500000D03*
X156150000Y-65500000D03*
D18*
X171450000Y-58800000D03*
X171450000Y-55500000D03*
X190500000Y-55500000D03*
X190500000Y-58800000D03*
X161925000Y-39750000D03*
X161925000Y-36450000D03*
X180975000Y-36450000D03*
X180975000Y-39750000D03*
D10*
X244650000Y-104000000D03*
X241350000Y-104000000D03*
D18*
X166687500Y-96900000D03*
X166687500Y-93600000D03*
X185737500Y-96900000D03*
X185737500Y-93600000D03*
X176212500Y-77850000D03*
X176212500Y-74550000D03*
X195262500Y-77850000D03*
X195262500Y-74550000D03*
X209550000Y-55500000D03*
X209550000Y-58800000D03*
X200025000Y-36450000D03*
X200025000Y-39750000D03*
X219075000Y-36450000D03*
X219075000Y-39750000D03*
D19*
X142500000Y-108750000D03*
X142500000Y-110750000D03*
M02*
