M48
; DRILL file {KiCad (5.1.12)-1} date 12/15/21 00:33:16
; FORMAT={-:-/ absolute / metric / decimal}
; #@! TF.CreationDate,2021-12-15T00:33:16-05:00
; #@! TF.GenerationSoftware,Kicad,Pcbnew,(5.1.12)-1
; #@! TF.FileFunction,Plated,1,2,PTH
FMAT,2
METRIC
T1C0.300
T2C0.400
T3C0.700
T4C0.900
T5C1.016
T6C1.400
T7C2.800
%
G90
G05
T1
X39.5Y-38.0
X43.0Y-62.0
X47.0Y-55.5
X51.5Y-76.5
X56.75Y-45.5
X58.0Y-50.5
X92.75Y-91.25
X99.25Y-112.0
X101.25Y-115.75
X107.5Y-101.75
X108.5Y-117.0
X110.5Y-115.5
X111.0Y-101.75
X113.5Y-107.25
X115.75Y-101.0
X119.0Y-116.25
X122.75Y-107.5
X130.0Y-106.5
X130.0Y-120.5
X131.5Y-122.5
X134.5Y-120.0
X137.75Y-106.0
X138.0Y-119.75
X141.787Y-95.287
X144.25Y-83.5
X150.75Y-106.0
X154.25Y-119.75
X163.5Y-102.75
X166.25Y-105.5
X192.25Y-102.25
X269.0Y-69.0
X286.0Y-95.0
X327.75Y-66.25
T2
X134.0Y-113.75
X140.75Y-117.75
X141.25Y-114.25
X315.5Y-48.75
X322.25Y-55.5
T3
X33.0Y-91.35
X33.0Y-99.15
X33.337Y-53.25
X33.337Y-61.05
X34.6Y-65.5
X40.481Y-91.35
X40.481Y-99.15
X42.4Y-65.5
X47.625Y-34.2
X47.625Y-42.0
X64.35Y-106.25
X66.675Y-34.2
X66.675Y-42.0
X72.15Y-106.25
X75.1Y-106.25
X76.2Y-53.25
X76.2Y-61.05
X80.962Y-72.3
X80.962Y-80.1
X82.9Y-106.25
X85.725Y-34.2
X85.725Y-42.0
X90.487Y-91.35
X90.487Y-99.15
X95.25Y-53.25
X95.25Y-61.05
X100.012Y-72.3
X100.012Y-80.1
X104.775Y-34.2
X104.775Y-42.0
X109.537Y-91.35
X109.537Y-99.15
X114.3Y-53.25
X114.3Y-61.05
X119.062Y-72.3
X119.062Y-80.1
X123.825Y-34.2
X123.825Y-42.0
X128.35Y-65.5
X128.588Y-91.35
X128.588Y-99.15
X133.35Y-53.25
X133.35Y-61.05
X136.15Y-65.5
X142.875Y-34.2
X142.875Y-42.0
X147.637Y-91.35
X147.637Y-99.15
X150.6Y-65.5
X152.4Y-53.25
X152.4Y-61.05
X158.4Y-65.5
X161.925Y-34.2
X161.925Y-42.0
X166.688Y-91.35
X166.688Y-99.15
X171.45Y-53.25
X171.45Y-61.05
X176.213Y-72.3
X176.213Y-80.1
X180.5Y-109.1
X180.5Y-116.9
X180.975Y-34.2
X180.975Y-42.0
X185.737Y-91.35
X185.737Y-99.15
X190.5Y-53.25
X190.5Y-61.05
X195.262Y-72.3
X195.262Y-80.1
X200.025Y-34.2
X200.025Y-42.0
X204.787Y-91.35
X204.787Y-99.15
X209.55Y-53.25
X209.55Y-61.05
X212.85Y-104.0
X214.312Y-72.3
X214.312Y-80.1
X216.85Y-65.5
X219.075Y-34.2
X219.075Y-42.0
X220.65Y-104.0
X223.837Y-91.35
X223.837Y-99.15
X224.65Y-65.5
X228.6Y-53.25
X228.6Y-61.05
X234.85Y-65.5
X238.125Y-34.2
X238.125Y-42.0
X239.1Y-104.0
X242.65Y-65.5
X242.887Y-91.35
X242.887Y-99.15
X246.9Y-104.0
X252.412Y-72.3
X252.412Y-80.1
X257.162Y-34.188
X257.162Y-41.987
X257.6Y-104.0
X261.938Y-91.35
X261.938Y-99.15
X265.4Y-104.0
X266.7Y-53.25
X266.7Y-61.05
X270.1Y-46.0
X271.462Y-72.3
X271.462Y-80.1
X276.225Y-34.2
X276.225Y-42.0
X277.9Y-46.0
X286.0Y-53.25
X286.0Y-61.05
X286.0Y-110.4
X286.0Y-118.2
X290.0Y-53.25
X290.0Y-61.05
X291.6Y-46.0
X299.4Y-46.0
X304.25Y-91.35
X304.25Y-99.15
X304.8Y-110.4
X304.8Y-118.2
X311.75Y-53.25
X311.75Y-61.05
X324.25Y-91.35
X324.25Y-99.15
X330.85Y-46.0
X333.75Y-91.35
X333.75Y-99.15
X338.5Y-91.35
X338.5Y-99.15
X338.65Y-46.0
T4
X36.83Y-43.18
X39.37Y-43.18
X57.0Y-76.2
X59.54Y-76.2
T5
X124.5Y-102.75
X128.5Y-102.75
X132.5Y-102.75
T6
X35.6Y-34.1
X37.981Y-80.7
X37.981Y-110.3
X40.362Y-53.15
X40.362Y-80.7
X40.362Y-118.8
X40.6Y-33.6
X42.744Y-72.2
X42.981Y-80.2
X42.981Y-109.8
X45.362Y-52.65
X45.362Y-80.2
X45.362Y-118.3
X47.506Y-91.25
X47.744Y-71.7
X52.506Y-90.75
X54.65Y-34.1
X59.412Y-110.3
X59.65Y-33.6
X61.794Y-110.3
X64.175Y-53.15
X64.175Y-118.8
X64.412Y-109.8
X66.556Y-118.8
X66.794Y-109.8
X68.938Y-72.2
X69.175Y-52.65
X69.175Y-118.3
X71.556Y-118.3
X73.7Y-34.1
X73.938Y-71.7
X78.462Y-91.25
X78.7Y-33.6
X80.844Y-118.8
X83.225Y-53.15
X83.462Y-90.75
X85.606Y-110.3
X85.844Y-118.3
X87.987Y-72.2
X87.987Y-118.8
X88.225Y-52.65
X90.606Y-109.8
X92.75Y-34.1
X92.75Y-118.8
X92.987Y-71.7
X92.987Y-118.3
X97.512Y-91.25
X97.75Y-33.6
X97.75Y-118.3
X102.275Y-53.15
X102.512Y-90.75
X107.037Y-72.2
X107.275Y-52.65
X111.8Y-34.1
X112.037Y-71.7
X116.562Y-91.25
X116.8Y-33.6
X121.325Y-53.15
X121.562Y-90.75
X126.087Y-72.2
X126.325Y-52.65
X130.85Y-34.1
X131.088Y-71.7
X135.612Y-91.25
X135.85Y-33.6
X140.375Y-53.15
X140.612Y-90.75
X145.137Y-72.2
X145.375Y-52.65
X149.9Y-34.1
X150.137Y-71.7
X152.281Y-110.3
X154.662Y-91.25
X154.662Y-110.3
X154.9Y-33.6
X157.281Y-109.8
X159.425Y-53.15
X159.662Y-90.75
X159.662Y-109.8
X164.188Y-72.2
X164.188Y-118.8
X164.425Y-52.65
X168.95Y-34.1
X169.188Y-71.7
X169.188Y-118.3
X173.713Y-91.25
X173.95Y-33.6
X178.475Y-53.15
X178.713Y-90.75
X183.237Y-72.2
X183.475Y-52.65
X188.0Y-34.1
X188.237Y-71.7
X192.762Y-91.25
X193.0Y-33.6
X197.525Y-53.15
X197.762Y-90.75
X202.287Y-72.2
X202.525Y-52.65
X207.05Y-34.1
X207.287Y-71.7
X211.812Y-91.25
X212.05Y-33.6
X216.575Y-53.15
X216.575Y-110.3
X216.812Y-90.75
X221.337Y-72.2
X221.575Y-52.65
X221.575Y-109.8
X223.719Y-110.3
X226.1Y-34.1
X226.337Y-71.7
X228.719Y-109.8
X230.862Y-91.25
X231.1Y-33.6
X235.625Y-53.15
X235.862Y-90.75
X240.387Y-72.2
X240.387Y-118.8
X240.625Y-52.65
X242.769Y-110.3
X245.15Y-34.1
X245.387Y-71.7
X245.387Y-118.3
X247.531Y-110.3
X247.769Y-109.8
X249.912Y-91.25
X250.15Y-33.6
X252.531Y-109.8
X254.675Y-53.15
X254.912Y-90.75
X259.438Y-72.2
X259.675Y-52.65
X264.2Y-34.1
X264.438Y-71.7
X268.962Y-118.8
X269.2Y-33.6
X271.344Y-110.3
X273.725Y-53.15
X273.962Y-118.3
X276.344Y-109.8
X278.725Y-52.65
X280.869Y-91.25
X283.25Y-34.1
X285.869Y-90.75
X288.25Y-33.6
X290.394Y-72.2
X292.775Y-34.1
X292.775Y-110.3
X295.394Y-71.7
X297.537Y-53.15
X297.775Y-33.6
X297.775Y-109.8
X302.3Y-42.6
X302.537Y-52.65
X307.3Y-42.1
X311.825Y-91.25
X311.825Y-110.3
X316.825Y-90.75
X316.825Y-109.8
X330.875Y-34.1
X330.875Y-53.15
X330.875Y-110.3
X335.875Y-33.6
X335.875Y-52.65
X335.875Y-109.8
T3
X315.6Y-29.887G85X315.6Y-32.387
G05
X322.9Y-29.887G85X322.9Y-32.387
G05
T7
X51.287Y-114.287G85X53.487Y-114.287
G05
X52.9Y-57.137G85X55.1Y-57.137
G05
X156.062Y-76.2G85X158.262Y-76.2
G05
X246.55Y-57.15G85X248.75Y-57.15
G05
X260.9Y-114.3G85X263.1Y-114.3
G05
X322.75Y-114.3G85X324.95Y-114.3
G05
X324.4Y-47.625G85X326.6Y-47.625
G05
T0
M30
