G04 #@! TF.GenerationSoftware,KiCad,Pcbnew,(5.1.12)-1*
G04 #@! TF.CreationDate,2021-12-15T00:33:09-05:00*
G04 #@! TF.ProjectId,alps66,616c7073-3636-42e6-9b69-6361645f7063,F*
G04 #@! TF.SameCoordinates,Original*
G04 #@! TF.FileFunction,Soldermask,Top*
G04 #@! TF.FilePolarity,Negative*
%FSLAX46Y46*%
G04 Gerber Fmt 4.6, Leading zero omitted, Abs format (unit mm)*
G04 Created by KiCad (PCBNEW (5.1.12)-1) date 2021-12-15 00:33:09*
%MOMM*%
%LPD*%
G01*
G04 APERTURE LIST*
%ADD10C,2.300000*%
%ADD11R,1.600000X1.600000*%
%ADD12C,1.600000*%
%ADD13C,1.700000*%
%ADD14C,11.500000*%
%ADD15C,4.000000*%
%ADD16C,6.000000*%
%ADD17O,1.500000X4.000000*%
%ADD18C,0.800000*%
%ADD19R,1.800000X1.800000*%
%ADD20C,1.800000*%
G04 APERTURE END LIST*
D10*
X223718750Y-110300000D03*
X228718750Y-109800000D03*
X242768750Y-110300000D03*
X247768750Y-109800000D03*
X247531250Y-110300000D03*
X252531250Y-109800000D03*
X152281250Y-110300000D03*
X157281250Y-109800000D03*
X154662500Y-110300000D03*
X159662500Y-109800000D03*
X97750000Y-118300000D03*
X92750000Y-118800000D03*
X92987500Y-118300000D03*
X87987500Y-118800000D03*
X85606250Y-110300000D03*
X90606250Y-109800000D03*
X71556250Y-118300000D03*
X66556250Y-118800000D03*
X69175000Y-118300000D03*
X64175000Y-118800000D03*
X61793750Y-110300000D03*
X66793750Y-109800000D03*
X42743750Y-72200000D03*
X47743750Y-71700000D03*
X45362500Y-80200000D03*
X40362500Y-80700000D03*
X45362500Y-118300000D03*
X40362500Y-118800000D03*
X292775000Y-34100000D03*
X297775000Y-33600000D03*
X271343750Y-110300000D03*
X276343750Y-109800000D03*
X216575000Y-110300000D03*
X221575000Y-109800000D03*
X207050000Y-34100000D03*
X212050000Y-33600000D03*
X188000000Y-34100000D03*
X193000000Y-33600000D03*
X197525000Y-53150000D03*
X202525000Y-52650000D03*
X183237500Y-72200000D03*
X188237500Y-71700000D03*
X164187500Y-72200000D03*
X169187500Y-71700000D03*
X173712500Y-91250000D03*
X178712500Y-90750000D03*
X154662500Y-91250000D03*
X159662500Y-90750000D03*
X245387500Y-118300000D03*
X240387500Y-118800000D03*
X168950000Y-34100000D03*
X173950000Y-33600000D03*
X149900000Y-34100000D03*
X154900000Y-33600000D03*
X178475000Y-53150000D03*
X183475000Y-52650000D03*
X159425000Y-53150000D03*
X164425000Y-52650000D03*
X145137500Y-72200000D03*
X150137500Y-71700000D03*
X135612500Y-91250000D03*
X140612500Y-90750000D03*
X116562500Y-91250000D03*
X121562500Y-90750000D03*
X169187500Y-118300000D03*
X164187500Y-118800000D03*
X130850000Y-34100000D03*
X135850000Y-33600000D03*
X111800000Y-34100000D03*
X116800000Y-33600000D03*
X140375000Y-53150000D03*
X145375000Y-52650000D03*
X121325000Y-53150000D03*
X126325000Y-52650000D03*
X126087500Y-72200000D03*
X131087500Y-71700000D03*
X107037500Y-72200000D03*
X112037500Y-71700000D03*
X97512500Y-91250000D03*
X102512500Y-90750000D03*
X85843750Y-118300000D03*
X80843750Y-118800000D03*
X92750000Y-34100000D03*
X97750000Y-33600000D03*
X73700000Y-34100000D03*
X78700000Y-33600000D03*
X102275000Y-53150000D03*
X107275000Y-52650000D03*
X83225000Y-53150000D03*
X88225000Y-52650000D03*
X87987500Y-72200000D03*
X92987500Y-71700000D03*
X78462500Y-91250000D03*
X83462500Y-90750000D03*
X59412500Y-110300000D03*
X64412500Y-109800000D03*
X54650000Y-34100000D03*
X59650000Y-33600000D03*
X35600000Y-34100000D03*
X40600000Y-33600000D03*
X64175000Y-53150000D03*
X69175000Y-52650000D03*
X40362500Y-53150000D03*
X45362500Y-52650000D03*
X68937500Y-72200000D03*
X73937500Y-71700000D03*
X42981250Y-80200000D03*
X37981250Y-80700000D03*
X47506250Y-91250000D03*
X52506250Y-90750000D03*
X37981250Y-110300000D03*
X42981250Y-109800000D03*
X330875000Y-110300000D03*
X335875000Y-109800000D03*
X307300000Y-42100000D03*
X302300000Y-42600000D03*
X283250000Y-34100000D03*
X288250000Y-33600000D03*
X273725000Y-53150000D03*
X278725000Y-52650000D03*
X297537500Y-53150000D03*
X302537500Y-52650000D03*
X290393750Y-72200000D03*
X295393750Y-71700000D03*
X311825000Y-91250000D03*
X316825000Y-90750000D03*
X280868750Y-91250000D03*
X285868750Y-90750000D03*
X311825000Y-110300000D03*
X316825000Y-109800000D03*
X330875000Y-53150000D03*
X335875000Y-52650000D03*
X264200000Y-34100000D03*
X269200000Y-33600000D03*
X254675000Y-53150000D03*
X259675000Y-52650000D03*
X235625000Y-53150000D03*
X240625000Y-52650000D03*
X259437500Y-72200000D03*
X264437500Y-71700000D03*
X240387500Y-72200000D03*
X245387500Y-71700000D03*
X249912500Y-91250000D03*
X254912500Y-90750000D03*
X230862500Y-91250000D03*
X235862500Y-90750000D03*
X292775000Y-110300000D03*
X297775000Y-109800000D03*
X330875000Y-34100000D03*
X335875000Y-33600000D03*
X245150000Y-34100000D03*
X250150000Y-33600000D03*
X226100000Y-34100000D03*
X231100000Y-33600000D03*
X216575000Y-53150000D03*
X221575000Y-52650000D03*
X221337500Y-72200000D03*
X226337500Y-71700000D03*
X202287500Y-72200000D03*
X207287500Y-71700000D03*
X211812500Y-91250000D03*
X216812500Y-90750000D03*
X192762500Y-91250000D03*
X197762500Y-90750000D03*
X273962500Y-118300000D03*
X268962500Y-118800000D03*
D11*
X75100000Y-106250000D03*
D12*
X82900000Y-106250000D03*
D13*
X132500000Y-102750000D03*
D14*
X319950000Y-74350000D03*
D15*
X138112500Y-76187500D03*
X233362500Y-76187500D03*
D16*
X247650000Y-57150000D03*
X157162500Y-76200000D03*
X52387500Y-114287500D03*
X323850000Y-114300000D03*
X262000000Y-114300000D03*
X325500000Y-47625000D03*
X54000000Y-57137500D03*
D17*
X315600000Y-31137500D03*
X322900000Y-31137500D03*
D13*
X128500000Y-102750000D03*
X124500000Y-102750000D03*
D18*
X334000000Y-75000000D03*
D19*
X36830000Y-43180000D03*
D20*
X39370000Y-43180000D03*
D19*
X57000000Y-76200000D03*
D20*
X59540000Y-76200000D03*
D12*
X265400000Y-104000000D03*
D11*
X257600000Y-104000000D03*
D12*
X204787500Y-91350000D03*
D11*
X204787500Y-99150000D03*
X223837500Y-99150000D03*
D12*
X223837500Y-91350000D03*
X214312500Y-72300000D03*
D11*
X214312500Y-80100000D03*
D12*
X224650000Y-65500000D03*
D11*
X216850000Y-65500000D03*
X228600000Y-61050000D03*
D12*
X228600000Y-53250000D03*
X238125000Y-34200000D03*
D11*
X238125000Y-42000000D03*
X257162500Y-41987500D03*
D12*
X257162500Y-34187500D03*
D11*
X330850000Y-46000000D03*
D12*
X338650000Y-46000000D03*
D11*
X286000000Y-118200000D03*
D12*
X286000000Y-110400000D03*
D11*
X242887500Y-99150000D03*
D12*
X242887500Y-91350000D03*
D11*
X261937500Y-99150000D03*
D12*
X261937500Y-91350000D03*
D11*
X252412500Y-80100000D03*
D12*
X252412500Y-72300000D03*
X271462500Y-72300000D03*
D11*
X271462500Y-80100000D03*
X234850000Y-65500000D03*
D12*
X242650000Y-65500000D03*
D11*
X266700000Y-61050000D03*
D12*
X266700000Y-53250000D03*
D11*
X276225000Y-42000000D03*
D12*
X276225000Y-34200000D03*
D11*
X338500000Y-99150000D03*
D12*
X338500000Y-91350000D03*
X304800000Y-110400000D03*
D11*
X304800000Y-118200000D03*
D12*
X304250000Y-91350000D03*
D11*
X304250000Y-99150000D03*
X324250000Y-99150000D03*
D12*
X324250000Y-91350000D03*
D11*
X290000000Y-61050000D03*
D12*
X290000000Y-53250000D03*
X286000000Y-53250000D03*
D11*
X286000000Y-61050000D03*
X270100000Y-46000000D03*
D12*
X277900000Y-46000000D03*
D11*
X291600000Y-46000000D03*
D12*
X299400000Y-46000000D03*
D11*
X311750000Y-61050000D03*
D12*
X311750000Y-53250000D03*
X333750000Y-91350000D03*
D11*
X333750000Y-99150000D03*
X33000000Y-99150000D03*
D12*
X33000000Y-91350000D03*
D11*
X40481250Y-99150000D03*
D12*
X40481250Y-91350000D03*
D11*
X34600000Y-65500000D03*
D12*
X42400000Y-65500000D03*
X80962500Y-72300000D03*
D11*
X80962500Y-80100000D03*
D12*
X33337500Y-53250000D03*
D11*
X33337500Y-61050000D03*
X76200000Y-61050000D03*
D12*
X76200000Y-53250000D03*
D11*
X47625000Y-42000000D03*
D12*
X47625000Y-34200000D03*
X66675000Y-34200000D03*
D11*
X66675000Y-42000000D03*
D12*
X220650000Y-104000000D03*
D11*
X212850000Y-104000000D03*
D12*
X72150000Y-106250000D03*
D11*
X64350000Y-106250000D03*
D12*
X90487500Y-91350000D03*
D11*
X90487500Y-99150000D03*
D12*
X100012500Y-72300000D03*
D11*
X100012500Y-80100000D03*
D12*
X95250000Y-53250000D03*
D11*
X95250000Y-61050000D03*
X114300000Y-61050000D03*
D12*
X114300000Y-53250000D03*
D11*
X85725000Y-42000000D03*
D12*
X85725000Y-34200000D03*
D11*
X104775000Y-42000000D03*
D12*
X104775000Y-34200000D03*
D11*
X109537500Y-99150000D03*
D12*
X109537500Y-91350000D03*
X119062500Y-72300000D03*
D11*
X119062500Y-80100000D03*
X128350000Y-65500000D03*
D12*
X136150000Y-65500000D03*
X133350000Y-53250000D03*
D11*
X133350000Y-61050000D03*
D12*
X152400000Y-53250000D03*
D11*
X152400000Y-61050000D03*
D12*
X123825000Y-34200000D03*
D11*
X123825000Y-42000000D03*
D12*
X142875000Y-34200000D03*
D11*
X142875000Y-42000000D03*
D12*
X180500000Y-109100000D03*
D11*
X180500000Y-116900000D03*
D12*
X128587500Y-91350000D03*
D11*
X128587500Y-99150000D03*
D12*
X147637500Y-91350000D03*
D11*
X147637500Y-99150000D03*
D12*
X158400000Y-65500000D03*
D11*
X150600000Y-65500000D03*
D12*
X171450000Y-53250000D03*
D11*
X171450000Y-61050000D03*
X190500000Y-61050000D03*
D12*
X190500000Y-53250000D03*
X161925000Y-34200000D03*
D11*
X161925000Y-42000000D03*
X180975000Y-42000000D03*
D12*
X180975000Y-34200000D03*
D11*
X239100000Y-104000000D03*
D12*
X246900000Y-104000000D03*
X166687500Y-91350000D03*
D11*
X166687500Y-99150000D03*
D12*
X185737500Y-91350000D03*
D11*
X185737500Y-99150000D03*
D12*
X176212500Y-72300000D03*
D11*
X176212500Y-80100000D03*
D12*
X195262500Y-72300000D03*
D11*
X195262500Y-80100000D03*
X209550000Y-61050000D03*
D12*
X209550000Y-53250000D03*
D11*
X200025000Y-42000000D03*
D12*
X200025000Y-34200000D03*
D11*
X219075000Y-42000000D03*
D12*
X219075000Y-34200000D03*
M02*
