G04 #@! TF.GenerationSoftware,KiCad,Pcbnew,(5.1.12)-1*
G04 #@! TF.CreationDate,2021-12-15T00:33:09-05:00*
G04 #@! TF.ProjectId,alps66,616c7073-3636-42e6-9b69-6361645f7063,F*
G04 #@! TF.SameCoordinates,Original*
G04 #@! TF.FileFunction,Copper,L1,Top*
G04 #@! TF.FilePolarity,Positive*
%FSLAX46Y46*%
G04 Gerber Fmt 4.6, Leading zero omitted, Abs format (unit mm)*
G04 Created by KiCad (PCBNEW (5.1.12)-1) date 2021-12-15 00:33:09*
%MOMM*%
%LPD*%
G01*
G04 APERTURE LIST*
G04 #@! TA.AperFunction,ComponentPad*
%ADD10C,2.300000*%
G04 #@! TD*
G04 #@! TA.AperFunction,ComponentPad*
%ADD11R,1.600000X1.600000*%
G04 #@! TD*
G04 #@! TA.AperFunction,ComponentPad*
%ADD12C,1.600000*%
G04 #@! TD*
G04 #@! TA.AperFunction,ComponentPad*
%ADD13C,1.700000*%
G04 #@! TD*
G04 #@! TA.AperFunction,ComponentPad*
%ADD14C,6.000000*%
G04 #@! TD*
G04 #@! TA.AperFunction,ComponentPad*
%ADD15O,1.500000X4.000000*%
G04 #@! TD*
G04 #@! TA.AperFunction,ComponentPad*
%ADD16R,1.800000X1.800000*%
G04 #@! TD*
G04 #@! TA.AperFunction,ComponentPad*
%ADD17C,1.800000*%
G04 #@! TD*
G04 #@! TA.AperFunction,ViaPad*
%ADD18C,0.800000*%
G04 #@! TD*
G04 #@! TA.AperFunction,ViaPad*
%ADD19C,0.600000*%
G04 #@! TD*
G04 #@! TA.AperFunction,Conductor*
%ADD20C,0.381000*%
G04 #@! TD*
G04 #@! TA.AperFunction,Conductor*
%ADD21C,0.254000*%
G04 #@! TD*
G04 APERTURE END LIST*
D10*
X223718750Y-110300000D03*
X228718750Y-109800000D03*
X242768750Y-110300000D03*
X247768750Y-109800000D03*
X247531250Y-110300000D03*
X252531250Y-109800000D03*
X152281250Y-110300000D03*
X157281250Y-109800000D03*
X154662500Y-110300000D03*
X159662500Y-109800000D03*
X97750000Y-118300000D03*
X92750000Y-118800000D03*
X92987500Y-118300000D03*
X87987500Y-118800000D03*
X85606250Y-110300000D03*
X90606250Y-109800000D03*
X71556250Y-118300000D03*
X66556250Y-118800000D03*
X69175000Y-118300000D03*
X64175000Y-118800000D03*
X61793750Y-110300000D03*
X66793750Y-109800000D03*
X42743750Y-72200000D03*
X47743750Y-71700000D03*
X45362500Y-80200000D03*
X40362500Y-80700000D03*
X45362500Y-118300000D03*
X40362500Y-118800000D03*
X292775000Y-34100000D03*
X297775000Y-33600000D03*
X271343750Y-110300000D03*
X276343750Y-109800000D03*
X216575000Y-110300000D03*
X221575000Y-109800000D03*
X207050000Y-34100000D03*
X212050000Y-33600000D03*
X188000000Y-34100000D03*
X193000000Y-33600000D03*
X197525000Y-53150000D03*
X202525000Y-52650000D03*
X183237500Y-72200000D03*
X188237500Y-71700000D03*
X164187500Y-72200000D03*
X169187500Y-71700000D03*
X173712500Y-91250000D03*
X178712500Y-90750000D03*
X154662500Y-91250000D03*
X159662500Y-90750000D03*
X245387500Y-118300000D03*
X240387500Y-118800000D03*
X168950000Y-34100000D03*
X173950000Y-33600000D03*
X149900000Y-34100000D03*
X154900000Y-33600000D03*
X178475000Y-53150000D03*
X183475000Y-52650000D03*
X159425000Y-53150000D03*
X164425000Y-52650000D03*
X145137500Y-72200000D03*
X150137500Y-71700000D03*
X135612500Y-91250000D03*
X140612500Y-90750000D03*
X116562500Y-91250000D03*
X121562500Y-90750000D03*
X169187500Y-118300000D03*
X164187500Y-118800000D03*
X130850000Y-34100000D03*
X135850000Y-33600000D03*
X111800000Y-34100000D03*
X116800000Y-33600000D03*
X140375000Y-53150000D03*
X145375000Y-52650000D03*
X121325000Y-53150000D03*
X126325000Y-52650000D03*
X126087500Y-72200000D03*
X131087500Y-71700000D03*
X107037500Y-72200000D03*
X112037500Y-71700000D03*
X97512500Y-91250000D03*
X102512500Y-90750000D03*
X85843750Y-118300000D03*
X80843750Y-118800000D03*
X92750000Y-34100000D03*
X97750000Y-33600000D03*
X73700000Y-34100000D03*
X78700000Y-33600000D03*
X102275000Y-53150000D03*
X107275000Y-52650000D03*
X83225000Y-53150000D03*
X88225000Y-52650000D03*
X87987500Y-72200000D03*
X92987500Y-71700000D03*
X78462500Y-91250000D03*
X83462500Y-90750000D03*
X59412500Y-110300000D03*
X64412500Y-109800000D03*
X54650000Y-34100000D03*
X59650000Y-33600000D03*
X35600000Y-34100000D03*
X40600000Y-33600000D03*
X64175000Y-53150000D03*
X69175000Y-52650000D03*
X40362500Y-53150000D03*
X45362500Y-52650000D03*
X68937500Y-72200000D03*
X73937500Y-71700000D03*
X42981250Y-80200000D03*
X37981250Y-80700000D03*
X47506250Y-91250000D03*
X52506250Y-90750000D03*
X37981250Y-110300000D03*
X42981250Y-109800000D03*
X330875000Y-110300000D03*
X335875000Y-109800000D03*
X307300000Y-42100000D03*
X302300000Y-42600000D03*
X283250000Y-34100000D03*
X288250000Y-33600000D03*
X273725000Y-53150000D03*
X278725000Y-52650000D03*
X297537500Y-53150000D03*
X302537500Y-52650000D03*
X290393750Y-72200000D03*
X295393750Y-71700000D03*
X311825000Y-91250000D03*
X316825000Y-90750000D03*
X280868750Y-91250000D03*
X285868750Y-90750000D03*
X311825000Y-110300000D03*
X316825000Y-109800000D03*
X330875000Y-53150000D03*
X335875000Y-52650000D03*
X264200000Y-34100000D03*
X269200000Y-33600000D03*
X254675000Y-53150000D03*
X259675000Y-52650000D03*
X235625000Y-53150000D03*
X240625000Y-52650000D03*
X259437500Y-72200000D03*
X264437500Y-71700000D03*
X240387500Y-72200000D03*
X245387500Y-71700000D03*
X249912500Y-91250000D03*
X254912500Y-90750000D03*
X230862500Y-91250000D03*
X235862500Y-90750000D03*
X292775000Y-110300000D03*
X297775000Y-109800000D03*
X330875000Y-34100000D03*
X335875000Y-33600000D03*
X245150000Y-34100000D03*
X250150000Y-33600000D03*
X226100000Y-34100000D03*
X231100000Y-33600000D03*
X216575000Y-53150000D03*
X221575000Y-52650000D03*
X221337500Y-72200000D03*
X226337500Y-71700000D03*
X202287500Y-72200000D03*
X207287500Y-71700000D03*
X211812500Y-91250000D03*
X216812500Y-90750000D03*
X192762500Y-91250000D03*
X197762500Y-90750000D03*
X273962500Y-118300000D03*
X268962500Y-118800000D03*
D11*
X75100000Y-106250000D03*
D12*
X82900000Y-106250000D03*
D13*
X132500000Y-102750000D03*
D14*
X247650000Y-57150000D03*
X157162500Y-76200000D03*
X52387500Y-114287500D03*
X323850000Y-114300000D03*
X262000000Y-114300000D03*
X325500000Y-47625000D03*
X54000000Y-57137500D03*
D15*
X315600000Y-31137500D03*
X322900000Y-31137500D03*
D13*
X128500000Y-102750000D03*
X124500000Y-102750000D03*
D16*
X36830000Y-43180000D03*
D17*
X39370000Y-43180000D03*
D16*
X57000000Y-76200000D03*
D17*
X59540000Y-76200000D03*
D12*
X265400000Y-104000000D03*
D11*
X257600000Y-104000000D03*
D12*
X204787500Y-91350000D03*
D11*
X204787500Y-99150000D03*
X223837500Y-99150000D03*
D12*
X223837500Y-91350000D03*
X214312500Y-72300000D03*
D11*
X214312500Y-80100000D03*
D12*
X224650000Y-65500000D03*
D11*
X216850000Y-65500000D03*
X228600000Y-61050000D03*
D12*
X228600000Y-53250000D03*
X238125000Y-34200000D03*
D11*
X238125000Y-42000000D03*
X257162500Y-41987500D03*
D12*
X257162500Y-34187500D03*
D11*
X330850000Y-46000000D03*
D12*
X338650000Y-46000000D03*
D11*
X286000000Y-118200000D03*
D12*
X286000000Y-110400000D03*
D11*
X242887500Y-99150000D03*
D12*
X242887500Y-91350000D03*
D11*
X261937500Y-99150000D03*
D12*
X261937500Y-91350000D03*
D11*
X252412500Y-80100000D03*
D12*
X252412500Y-72300000D03*
X271462500Y-72300000D03*
D11*
X271462500Y-80100000D03*
X234850000Y-65500000D03*
D12*
X242650000Y-65500000D03*
D11*
X266700000Y-61050000D03*
D12*
X266700000Y-53250000D03*
D11*
X276225000Y-42000000D03*
D12*
X276225000Y-34200000D03*
D11*
X338500000Y-99150000D03*
D12*
X338500000Y-91350000D03*
X304800000Y-110400000D03*
D11*
X304800000Y-118200000D03*
D12*
X304250000Y-91350000D03*
D11*
X304250000Y-99150000D03*
X324250000Y-99150000D03*
D12*
X324250000Y-91350000D03*
D11*
X290000000Y-61050000D03*
D12*
X290000000Y-53250000D03*
X286000000Y-53250000D03*
D11*
X286000000Y-61050000D03*
X270100000Y-46000000D03*
D12*
X277900000Y-46000000D03*
D11*
X291600000Y-46000000D03*
D12*
X299400000Y-46000000D03*
D11*
X311750000Y-61050000D03*
D12*
X311750000Y-53250000D03*
X333750000Y-91350000D03*
D11*
X333750000Y-99150000D03*
X33000000Y-99150000D03*
D12*
X33000000Y-91350000D03*
D11*
X40481250Y-99150000D03*
D12*
X40481250Y-91350000D03*
D11*
X34600000Y-65500000D03*
D12*
X42400000Y-65500000D03*
X80962500Y-72300000D03*
D11*
X80962500Y-80100000D03*
D12*
X33337500Y-53250000D03*
D11*
X33337500Y-61050000D03*
X76200000Y-61050000D03*
D12*
X76200000Y-53250000D03*
D11*
X47625000Y-42000000D03*
D12*
X47625000Y-34200000D03*
X66675000Y-34200000D03*
D11*
X66675000Y-42000000D03*
D12*
X220650000Y-104000000D03*
D11*
X212850000Y-104000000D03*
D12*
X72150000Y-106250000D03*
D11*
X64350000Y-106250000D03*
D12*
X90487500Y-91350000D03*
D11*
X90487500Y-99150000D03*
D12*
X100012500Y-72300000D03*
D11*
X100012500Y-80100000D03*
D12*
X95250000Y-53250000D03*
D11*
X95250000Y-61050000D03*
X114300000Y-61050000D03*
D12*
X114300000Y-53250000D03*
D11*
X85725000Y-42000000D03*
D12*
X85725000Y-34200000D03*
D11*
X104775000Y-42000000D03*
D12*
X104775000Y-34200000D03*
D11*
X109537500Y-99150000D03*
D12*
X109537500Y-91350000D03*
X119062500Y-72300000D03*
D11*
X119062500Y-80100000D03*
X128350000Y-65500000D03*
D12*
X136150000Y-65500000D03*
X133350000Y-53250000D03*
D11*
X133350000Y-61050000D03*
D12*
X152400000Y-53250000D03*
D11*
X152400000Y-61050000D03*
D12*
X123825000Y-34200000D03*
D11*
X123825000Y-42000000D03*
D12*
X142875000Y-34200000D03*
D11*
X142875000Y-42000000D03*
D12*
X180500000Y-109100000D03*
D11*
X180500000Y-116900000D03*
D12*
X128587500Y-91350000D03*
D11*
X128587500Y-99150000D03*
D12*
X147637500Y-91350000D03*
D11*
X147637500Y-99150000D03*
D12*
X158400000Y-65500000D03*
D11*
X150600000Y-65500000D03*
D12*
X171450000Y-53250000D03*
D11*
X171450000Y-61050000D03*
X190500000Y-61050000D03*
D12*
X190500000Y-53250000D03*
X161925000Y-34200000D03*
D11*
X161925000Y-42000000D03*
X180975000Y-42000000D03*
D12*
X180975000Y-34200000D03*
D11*
X239100000Y-104000000D03*
D12*
X246900000Y-104000000D03*
X166687500Y-91350000D03*
D11*
X166687500Y-99150000D03*
D12*
X185737500Y-91350000D03*
D11*
X185737500Y-99150000D03*
D12*
X176212500Y-72300000D03*
D11*
X176212500Y-80100000D03*
D12*
X195262500Y-72300000D03*
D11*
X195262500Y-80100000D03*
X209550000Y-61050000D03*
D12*
X209550000Y-53250000D03*
D11*
X200025000Y-42000000D03*
D12*
X200025000Y-34200000D03*
D11*
X219075000Y-42000000D03*
D12*
X219075000Y-34200000D03*
D18*
X315500000Y-48750000D03*
X322250000Y-55500000D03*
X140750000Y-117750000D03*
X141250000Y-114250000D03*
X134000000Y-113750000D03*
D19*
X137750000Y-106000000D03*
X150750000Y-106000000D03*
X110500000Y-115500000D03*
X111000000Y-101750000D03*
X113500000Y-107250000D03*
X107500000Y-101750000D03*
X166250000Y-105500000D03*
X163500000Y-102750000D03*
X154250000Y-119750000D03*
X134500000Y-120000000D03*
X286000000Y-95000000D03*
X130000000Y-120500000D03*
X92750000Y-91250000D03*
X101250000Y-115750000D03*
X108500000Y-117000000D03*
X119000000Y-116250000D03*
X144250000Y-83500000D03*
X115750000Y-101000000D03*
X138000000Y-119750000D03*
X192250000Y-102250000D03*
X131500000Y-122500000D03*
X99250000Y-112000000D03*
X141787500Y-95287500D03*
X51500000Y-76500006D03*
X43000000Y-62000000D03*
X269000000Y-69000000D03*
X47000000Y-55500000D03*
X39500000Y-38000000D03*
X130000000Y-106500000D03*
X327750000Y-66250000D03*
X122750000Y-107500000D03*
X58000000Y-50500000D03*
X56750000Y-45500000D03*
D20*
X322250000Y-55500000D02*
X315500000Y-48750000D01*
X140750000Y-114750000D02*
X141250000Y-114250000D01*
X140750000Y-117750000D02*
X140750000Y-114750000D01*
X124500000Y-112750000D02*
X125500000Y-113750000D01*
X134000000Y-113750000D02*
X125500000Y-113750000D01*
X124500000Y-112750000D02*
X124500000Y-102750000D01*
D21*
X150000000Y-105250000D02*
X150750000Y-106000000D01*
X138500000Y-105250000D02*
X150000000Y-105250000D01*
X137750000Y-106000000D02*
X138500000Y-105250000D01*
X107500000Y-101750000D02*
X111000000Y-101750000D01*
X110500000Y-110250000D02*
X113500000Y-107250000D01*
X113500000Y-104250000D02*
X111000000Y-101750000D01*
X110500000Y-115500000D02*
X110500000Y-110250000D01*
X113500000Y-107250000D02*
X113500000Y-105750000D01*
X113500000Y-105750000D02*
X113500000Y-104250000D01*
X166250000Y-105500000D02*
X163500000Y-102750000D01*
X257162500Y-41987500D02*
X238112500Y-41987500D01*
X249100000Y-95500000D02*
X257600000Y-104000000D01*
X238250000Y-95500000D02*
X249100000Y-95500000D01*
X234600000Y-99150000D02*
X238250000Y-95500000D01*
X223837500Y-99150000D02*
X234600000Y-99150000D01*
X200000000Y-103937500D02*
X204787500Y-99150000D01*
X200000000Y-112250000D02*
X200000000Y-103937500D01*
X196500000Y-115750000D02*
X200000000Y-112250000D01*
X183625000Y-119500000D02*
X187375000Y-115750000D01*
X178750000Y-119500000D02*
X183625000Y-119500000D01*
X187375000Y-115750000D02*
X196500000Y-115750000D01*
X173500000Y-114250000D02*
X178750000Y-119500000D01*
X159750000Y-114250000D02*
X173500000Y-114250000D01*
X154250000Y-119750000D02*
X159750000Y-114250000D01*
X308750000Y-49500000D02*
X314500000Y-43750000D01*
X291500000Y-49500000D02*
X308750000Y-49500000D01*
X314500000Y-43750000D02*
X328600000Y-43750000D01*
X285500000Y-43500000D02*
X291500000Y-49500000D01*
X258675000Y-43500000D02*
X285500000Y-43500000D01*
X328600000Y-43750000D02*
X330850000Y-46000000D01*
X257162500Y-41987500D02*
X258675000Y-43500000D01*
X252412500Y-80100000D02*
X271462500Y-80100000D01*
X261925000Y-99137500D02*
X261937500Y-99137500D01*
X274900000Y-99150000D02*
X261937500Y-99150000D01*
X283500000Y-107750000D02*
X274900000Y-99150000D01*
X283500000Y-115700000D02*
X283500000Y-107750000D01*
X286000000Y-118200000D02*
X283500000Y-115700000D01*
X238100000Y-99150000D02*
X242887500Y-99150000D01*
X134500000Y-120000000D02*
X136000000Y-121500000D01*
X136000000Y-121500000D02*
X154250000Y-121500000D01*
X154250000Y-121500000D02*
X160750000Y-115000000D01*
X173000000Y-115000000D02*
X178250000Y-120250000D01*
X234500000Y-114250000D02*
X234500000Y-102750000D01*
X160750000Y-115000000D02*
X173000000Y-115000000D01*
X178250000Y-120250000D02*
X184250000Y-120250000D01*
X184250000Y-120250000D02*
X188000000Y-116500000D01*
X188000000Y-116500000D02*
X208500000Y-116500000D01*
X228250000Y-120500000D02*
X234500000Y-114250000D01*
X208500000Y-116500000D02*
X212500000Y-120500000D01*
X212500000Y-120500000D02*
X228250000Y-120500000D01*
X234500000Y-102750000D02*
X238100000Y-99150000D01*
X295150000Y-99150000D02*
X291000000Y-95000000D01*
X291000000Y-95000000D02*
X286000000Y-95000000D01*
X304250000Y-99150000D02*
X295150000Y-99150000D01*
X274100000Y-50000000D02*
X270100000Y-46000000D01*
X280000000Y-50000000D02*
X274100000Y-50000000D01*
X283000000Y-53000000D02*
X280000000Y-50000000D01*
X283000000Y-58050000D02*
X283000000Y-53000000D01*
X286000000Y-61050000D02*
X283000000Y-58050000D01*
X324250000Y-99150000D02*
X304250000Y-99150000D01*
X307750000Y-102650000D02*
X304250000Y-99150000D01*
X307750000Y-115250000D02*
X307750000Y-102650000D01*
X304800000Y-118200000D02*
X307750000Y-115250000D01*
X66675000Y-42000000D02*
X47625000Y-42000000D01*
X76187500Y-61037500D02*
X76162500Y-61037500D01*
X47625000Y-42000000D02*
X45500000Y-42000000D01*
X45500000Y-42000000D02*
X44500000Y-41000000D01*
X44500000Y-41000000D02*
X32750000Y-41000000D01*
X32750000Y-41000000D02*
X31500000Y-42250000D01*
X31500000Y-59212500D02*
X33337500Y-61050000D01*
X31500000Y-42250000D02*
X31500000Y-59212500D01*
X34600000Y-62312500D02*
X33337500Y-61050000D01*
X34600000Y-65500000D02*
X34600000Y-62312500D01*
X102178125Y-118000000D02*
X98190625Y-121987500D01*
X33000000Y-115500000D02*
X33000000Y-99150000D01*
X106500000Y-118000000D02*
X102178125Y-118000000D01*
X98190625Y-121987500D02*
X39487500Y-121987500D01*
X108750000Y-120250000D02*
X106500000Y-118000000D01*
X39487500Y-121987500D02*
X33000000Y-115500000D01*
X116750000Y-118750000D02*
X115250000Y-120250000D01*
X121000000Y-118750000D02*
X116750000Y-118750000D01*
X123500000Y-121250000D02*
X121000000Y-118750000D01*
X115250000Y-120250000D02*
X108750000Y-120250000D01*
X129250000Y-121250000D02*
X123500000Y-121250000D01*
X130000000Y-120500000D02*
X129250000Y-121250000D01*
X40481250Y-99150000D02*
X33000000Y-99150000D01*
X31250000Y-68850000D02*
X31250000Y-97400000D01*
X31250000Y-97400000D02*
X33000000Y-99150000D01*
X34600000Y-65500000D02*
X31250000Y-68850000D01*
X85725000Y-42000000D02*
X104775000Y-42000000D01*
X77950000Y-99150000D02*
X90487500Y-99150000D01*
X92750000Y-85000000D02*
X92750000Y-91250000D01*
X97650000Y-80100000D02*
X92750000Y-85000000D01*
X100012500Y-80100000D02*
X97650000Y-80100000D01*
X77950000Y-99150000D02*
X71437500Y-99150000D01*
X71437500Y-99150000D02*
X70350000Y-99150000D01*
X64350000Y-105150000D02*
X64350000Y-106250000D01*
X70350000Y-99150000D02*
X64350000Y-105150000D01*
X96750000Y-111250000D02*
X101250000Y-115750000D01*
X96750000Y-105412500D02*
X96750000Y-111250000D01*
X90487500Y-99150000D02*
X96750000Y-105412500D01*
X133350000Y-61050000D02*
X133500000Y-61200000D01*
X133350000Y-61050000D02*
X152400000Y-61050000D01*
X123812500Y-41987500D02*
X142862500Y-41987500D01*
X125900000Y-80100000D02*
X119062500Y-80100000D01*
X107137500Y-96750000D02*
X109537500Y-99150000D01*
X100000000Y-100500000D02*
X103750000Y-96750000D01*
X100000000Y-108500000D02*
X100000000Y-100500000D01*
X103750000Y-96750000D02*
X107137500Y-96750000D01*
X108500000Y-117000000D02*
X100000000Y-108500000D01*
X128350000Y-77650000D02*
X128350000Y-65500000D01*
X125900000Y-80100000D02*
X128350000Y-77650000D01*
X128350000Y-64150000D02*
X128350000Y-65500000D01*
X131450000Y-61050000D02*
X128350000Y-64150000D01*
X133350000Y-61050000D02*
X131450000Y-61050000D01*
X92000000Y-107750000D02*
X76600000Y-107750000D01*
X94500000Y-110250000D02*
X92000000Y-107750000D01*
X94500000Y-112000000D02*
X94500000Y-110250000D01*
X76600000Y-107750000D02*
X75100000Y-106250000D01*
X99500000Y-117000000D02*
X94500000Y-112000000D01*
X108500000Y-117000000D02*
X99500000Y-117000000D01*
X171450000Y-61050000D02*
X190500000Y-61050000D01*
X161925000Y-42000000D02*
X180975000Y-42000000D01*
X178687500Y-116937500D02*
X180462500Y-116937500D01*
X174537500Y-112787500D02*
X178687500Y-116937500D01*
X169037500Y-112787500D02*
X174537500Y-112787500D01*
X155400000Y-99150000D02*
X169037500Y-112787500D01*
X147637500Y-99150000D02*
X155400000Y-99150000D01*
X144250000Y-83500000D02*
X147250000Y-80500000D01*
X147250000Y-68850000D02*
X150600000Y-65500000D01*
X147250000Y-80500000D02*
X147250000Y-68850000D01*
X115750000Y-113000000D02*
X115750000Y-101000000D01*
X119000000Y-116250000D02*
X115750000Y-113000000D01*
X200025000Y-42000000D02*
X219075000Y-42000000D01*
X185787500Y-99200000D02*
X185725000Y-99137500D01*
X166675000Y-99137500D02*
X185725000Y-99137500D01*
X185737500Y-99150000D02*
X189150000Y-99150000D01*
X192250000Y-102250000D02*
X189150000Y-99150000D01*
X195262500Y-80100000D02*
X176212500Y-80100000D01*
X182993750Y-118750000D02*
X185737500Y-116006250D01*
X179250000Y-118750000D02*
X182993750Y-118750000D01*
X174000000Y-113500000D02*
X179250000Y-118750000D01*
X159250000Y-113500000D02*
X174000000Y-113500000D01*
X155750000Y-117000000D02*
X159250000Y-113500000D01*
X147625000Y-117000000D02*
X155750000Y-117000000D01*
X144125000Y-120500000D02*
X147625000Y-117000000D01*
X138750000Y-120500000D02*
X144125000Y-120500000D01*
X185737500Y-116006250D02*
X185737500Y-99150000D01*
X138000000Y-119750000D02*
X138750000Y-120500000D01*
X297000000Y-120000000D02*
X275662500Y-120000000D01*
X275662500Y-120000000D02*
X273962500Y-118300000D01*
X292775000Y-110300000D02*
X292775000Y-115775000D01*
X311825000Y-116675000D02*
X311825000Y-110300000D01*
X308500000Y-120000000D02*
X311825000Y-116675000D01*
X297000000Y-120000000D02*
X308500000Y-120000000D01*
X292775000Y-115775000D02*
X297000000Y-120000000D01*
X247531250Y-110300000D02*
X247531250Y-116156250D01*
X247531250Y-116156250D02*
X245387500Y-118300000D01*
X37981250Y-110300000D02*
X37981250Y-110918750D01*
X37981250Y-110918750D02*
X45362500Y-118300000D01*
X45362500Y-117681250D02*
X45362500Y-118300000D01*
X61793750Y-110300000D02*
X61793750Y-110918750D01*
X61793750Y-110300000D02*
X59412500Y-110300000D01*
X212000000Y-121250000D02*
X242437500Y-121250000D01*
X208000000Y-117250000D02*
X212000000Y-121250000D01*
X188500000Y-117250000D02*
X208000000Y-117250000D01*
X184750000Y-121000000D02*
X188500000Y-117250000D01*
X242437500Y-121250000D02*
X245387500Y-118300000D01*
X248337500Y-121250000D02*
X245387500Y-118300000D01*
X271012500Y-121250000D02*
X248337500Y-121250000D01*
X273962500Y-118300000D02*
X271012500Y-121250000D01*
X171887500Y-121000000D02*
X169187500Y-118300000D01*
X184750000Y-121000000D02*
X171887500Y-121000000D01*
X164987500Y-122500000D02*
X169187500Y-118300000D01*
X131500000Y-122500000D02*
X164987500Y-122500000D01*
X150537500Y-95287500D02*
X188700000Y-95287500D01*
X188700000Y-95287500D02*
X192750000Y-91237500D01*
X150537500Y-95287500D02*
X150600000Y-95287500D01*
X150600000Y-95287500D02*
X154650000Y-91237500D01*
X188700000Y-95287500D02*
X209712500Y-95287500D01*
X268250000Y-91250000D02*
X280868750Y-91250000D01*
X259500000Y-89500000D02*
X266500000Y-89500000D01*
X266500000Y-89500000D02*
X268250000Y-91250000D01*
X254250000Y-94750000D02*
X259500000Y-89500000D01*
X234362500Y-94750000D02*
X254250000Y-94750000D01*
X230862500Y-91250000D02*
X234362500Y-94750000D01*
X112562500Y-95250000D02*
X116562500Y-91250000D01*
X101512500Y-95250000D02*
X112562500Y-95250000D01*
X97512500Y-91250000D02*
X101512500Y-95250000D01*
X226825000Y-95287500D02*
X230862500Y-91250000D01*
X209712500Y-95287500D02*
X226825000Y-95287500D01*
X97512500Y-110262500D02*
X99250000Y-112000000D01*
X97512500Y-91250000D02*
X97512500Y-110262500D01*
X150537500Y-95287500D02*
X141787500Y-95287500D01*
X97512500Y-91250000D02*
X93512500Y-95250000D01*
X51506250Y-95250000D02*
X47506250Y-91250000D01*
X93512500Y-95250000D02*
X51506250Y-95250000D01*
X249787500Y-91125000D02*
X249900000Y-91237500D01*
X103037500Y-76200000D02*
X107037500Y-72200000D01*
X74500000Y-78000000D02*
X76300000Y-76200000D01*
X47562500Y-78000000D02*
X74500000Y-78000000D01*
X76300000Y-76200000D02*
X103037500Y-76200000D01*
X45362500Y-80200000D02*
X47562500Y-78000000D01*
X78462500Y-81962500D02*
X74500000Y-78000000D01*
X78462500Y-91250000D02*
X78462500Y-81962500D01*
X135612500Y-91250000D02*
X138862500Y-88000000D01*
X170462500Y-88000000D02*
X173712500Y-91250000D01*
X138862500Y-88000000D02*
X170462500Y-88000000D01*
X173712500Y-91250000D02*
X176962500Y-88000000D01*
X208562500Y-88000000D02*
X211812500Y-91250000D01*
X176962500Y-88000000D02*
X208562500Y-88000000D01*
X211812500Y-91250000D02*
X215062500Y-88000000D01*
X246662500Y-88000000D02*
X249912500Y-91250000D01*
X215062500Y-88000000D02*
X246662500Y-88000000D01*
X305250000Y-79500000D02*
X311825000Y-86075000D01*
X279250000Y-79500000D02*
X305250000Y-79500000D01*
X270000000Y-84000000D02*
X274750000Y-84000000D01*
X311825000Y-86075000D02*
X311825000Y-91250000D01*
X266000000Y-88000000D02*
X270000000Y-84000000D01*
X274750000Y-84000000D02*
X279250000Y-79500000D01*
X253162500Y-88000000D02*
X266000000Y-88000000D01*
X249912500Y-91250000D02*
X253162500Y-88000000D01*
X273750000Y-76250000D02*
X274500000Y-75500000D01*
X244437500Y-76250000D02*
X273750000Y-76250000D01*
X240387500Y-72200000D02*
X244437500Y-76250000D01*
X287093750Y-75500000D02*
X290393750Y-72200000D01*
X274500000Y-75500000D02*
X287093750Y-75500000D01*
X198287500Y-76200000D02*
X226800000Y-76200000D01*
X230800000Y-72200000D02*
X240387500Y-72200000D01*
X226800000Y-76200000D02*
X230800000Y-72200000D01*
X198287500Y-76200000D02*
X168187500Y-76200000D01*
X168187500Y-76200000D02*
X164187500Y-72200000D01*
X202287500Y-72200000D02*
X198287500Y-76200000D01*
X122887500Y-69000000D02*
X126087500Y-72200000D01*
X68937500Y-72200000D02*
X72137500Y-69000000D01*
X72137500Y-69000000D02*
X84787500Y-69000000D01*
X84787500Y-69000000D02*
X87987500Y-72200000D01*
X84787500Y-69000000D02*
X122887500Y-69000000D01*
X68937500Y-72200000D02*
X55800006Y-72200000D01*
X55800006Y-72200000D02*
X51500000Y-76500006D01*
X79225000Y-57150000D02*
X72850000Y-57150000D01*
X68000000Y-62000000D02*
X43000000Y-62000000D01*
X72850000Y-57150000D02*
X68000000Y-62000000D01*
X218137500Y-69000000D02*
X256237500Y-69000000D01*
X256237500Y-69000000D02*
X259437500Y-72200000D01*
X183237500Y-72200000D02*
X186437500Y-69000000D01*
X218137500Y-69000000D02*
X221337500Y-72200000D01*
X186437500Y-69000000D02*
X218137500Y-69000000D01*
X183237500Y-72200000D02*
X178475000Y-72200000D01*
X178475000Y-72200000D02*
X159425000Y-53150000D01*
X117325000Y-57150000D02*
X155425000Y-57150000D01*
X155425000Y-57150000D02*
X159425000Y-53150000D01*
X79225000Y-57150000D02*
X117325000Y-57150000D01*
X117325000Y-57150000D02*
X121325000Y-53150000D01*
X79225000Y-57150000D02*
X83225000Y-53150000D01*
X256237500Y-69000000D02*
X269000000Y-69000000D01*
X49350000Y-53150000D02*
X47000000Y-55500000D01*
X49350000Y-53150000D02*
X64175000Y-53150000D01*
X232475000Y-50000000D02*
X270575000Y-50000000D01*
X270575000Y-50000000D02*
X273725000Y-53150000D01*
X213425000Y-50000000D02*
X232475000Y-50000000D01*
X232475000Y-50000000D02*
X235625000Y-53150000D01*
X194375000Y-50000000D02*
X213425000Y-50000000D01*
X213425000Y-50000000D02*
X216575000Y-53150000D01*
X175325000Y-50000000D02*
X194375000Y-50000000D01*
X194375000Y-50000000D02*
X197525000Y-53150000D01*
X137225000Y-50000000D02*
X175325000Y-50000000D01*
X175325000Y-50000000D02*
X178475000Y-53150000D01*
X99125000Y-50000000D02*
X137225000Y-50000000D01*
X137225000Y-50000000D02*
X140375000Y-53150000D01*
X64175000Y-53150000D02*
X67325000Y-50000000D01*
X67325000Y-50000000D02*
X99125000Y-50000000D01*
X99125000Y-50000000D02*
X102275000Y-53150000D01*
X184000000Y-38100000D02*
X222100000Y-38100000D01*
X222100000Y-38100000D02*
X226100000Y-34100000D01*
X145900000Y-38100000D02*
X184000000Y-38100000D01*
X184000000Y-38100000D02*
X188000000Y-34100000D01*
X107800000Y-38100000D02*
X145900000Y-38100000D01*
X145900000Y-38100000D02*
X149900000Y-34100000D01*
X107800000Y-38100000D02*
X111800000Y-34100000D01*
X69637500Y-38100000D02*
X73700000Y-34037500D01*
X39500000Y-38000000D02*
X39600000Y-38100000D01*
X47625000Y-38100000D02*
X69637500Y-38100000D01*
X69637500Y-38100000D02*
X107800000Y-38100000D01*
X35587500Y-34087500D02*
X39500000Y-38000000D01*
X39600000Y-38100000D02*
X47625000Y-38100000D01*
X264200000Y-34100000D02*
X267800000Y-30500000D01*
X275500000Y-30500000D02*
X282500000Y-37500000D01*
X267800000Y-30500000D02*
X275500000Y-30500000D01*
X241550000Y-30500000D02*
X260600000Y-30500000D01*
X260600000Y-30500000D02*
X264200000Y-34100000D01*
X203500000Y-30500000D02*
X241550000Y-30500000D01*
X241550000Y-30500000D02*
X245150000Y-34100000D01*
X165350000Y-30500000D02*
X203500000Y-30500000D01*
X203500000Y-30500000D02*
X203450000Y-30500000D01*
X203450000Y-30500000D02*
X207050000Y-34100000D01*
X127250000Y-30500000D02*
X165350000Y-30500000D01*
X165350000Y-30500000D02*
X168950000Y-34100000D01*
X89150000Y-30500000D02*
X127250000Y-30500000D01*
X127250000Y-30500000D02*
X130850000Y-34100000D01*
X54650000Y-34100000D02*
X58250000Y-30500000D01*
X89150000Y-30500000D02*
X92750000Y-34100000D01*
X58250000Y-30500000D02*
X89150000Y-30500000D01*
X289375000Y-37500000D02*
X292775000Y-34100000D01*
X282500000Y-37500000D02*
X289375000Y-37500000D01*
X302700000Y-37500000D02*
X307300000Y-42100000D01*
X296175000Y-37500000D02*
X302700000Y-37500000D01*
X292775000Y-34100000D02*
X296175000Y-37500000D01*
X235862500Y-90750000D02*
X242287500Y-90750000D01*
X242287500Y-90750000D02*
X242887500Y-91350000D01*
X245387500Y-71700000D02*
X251812500Y-71700000D01*
X251812500Y-71700000D02*
X252412500Y-72300000D01*
X264437500Y-71700000D02*
X270862500Y-71700000D01*
X270862500Y-71700000D02*
X271462500Y-72300000D01*
X259675000Y-52650000D02*
X266100000Y-52650000D01*
X266100000Y-52650000D02*
X266700000Y-53250000D01*
X269200000Y-33600000D02*
X275625000Y-33600000D01*
X275625000Y-33600000D02*
X276225000Y-34200000D01*
X303650000Y-90750000D02*
X304250000Y-91350000D01*
X285868750Y-90750000D02*
X303650000Y-90750000D01*
X295393750Y-56893750D02*
X295393750Y-71700000D01*
X290000000Y-53250000D02*
X291750000Y-53250000D01*
X291750000Y-53250000D02*
X295393750Y-56893750D01*
X300137500Y-50250000D02*
X302537500Y-52650000D01*
X289000000Y-50250000D02*
X300137500Y-50250000D01*
X286000000Y-53250000D02*
X289000000Y-50250000D01*
X40481250Y-91350000D02*
X43581250Y-88250000D01*
X50006250Y-88250000D02*
X52506250Y-90750000D01*
X43581250Y-88250000D02*
X50006250Y-88250000D01*
X73937500Y-71700000D02*
X80362500Y-71700000D01*
X80362500Y-71700000D02*
X80962500Y-72300000D01*
X69175000Y-52650000D02*
X75600000Y-52650000D01*
X75600000Y-52650000D02*
X76200000Y-53250000D01*
X40587500Y-33587500D02*
X47012500Y-33587500D01*
X47012500Y-33587500D02*
X47625000Y-34200000D01*
X59650000Y-33600000D02*
X66075000Y-33600000D01*
X66075000Y-33600000D02*
X66675000Y-34200000D01*
X64175000Y-112418750D02*
X66793750Y-109800000D01*
X64175000Y-118800000D02*
X64175000Y-112418750D01*
X68600000Y-109800000D02*
X72150000Y-106250000D01*
X66793750Y-109800000D02*
X68600000Y-109800000D01*
X83462500Y-90750000D02*
X89887500Y-90750000D01*
X89887500Y-90750000D02*
X90487500Y-91350000D01*
X92987500Y-71700000D02*
X99412500Y-71700000D01*
X99412500Y-71700000D02*
X100012500Y-72300000D01*
X88225000Y-52650000D02*
X94650000Y-52650000D01*
X94650000Y-52650000D02*
X95250000Y-53250000D01*
X107275000Y-52650000D02*
X113700000Y-52650000D01*
X113700000Y-52650000D02*
X114300000Y-53250000D01*
X78700000Y-33537500D02*
X85062500Y-33537500D01*
X85062500Y-33537500D02*
X85725000Y-34200000D01*
X97750000Y-33600000D02*
X104175000Y-33600000D01*
X104175000Y-33600000D02*
X104775000Y-34200000D01*
X85606250Y-111656250D02*
X85606250Y-110300000D01*
X92750000Y-118800000D02*
X85606250Y-111656250D01*
X108937500Y-90750000D02*
X109537500Y-91350000D01*
X102512500Y-90750000D02*
X108937500Y-90750000D01*
X112037500Y-71700000D02*
X118462500Y-71700000D01*
X118462500Y-71700000D02*
X119062500Y-72300000D01*
X136150000Y-66637500D02*
X136150000Y-65500000D01*
X131087500Y-71700000D02*
X136150000Y-66637500D01*
X126325000Y-52650000D02*
X132750000Y-52650000D01*
X132750000Y-52650000D02*
X133350000Y-53250000D01*
X145375000Y-52650000D02*
X151800000Y-52650000D01*
X151800000Y-52650000D02*
X152400000Y-53250000D01*
X116800000Y-33600000D02*
X123225000Y-33600000D01*
X123225000Y-33600000D02*
X123825000Y-34200000D01*
X135850000Y-33600000D02*
X142275000Y-33600000D01*
X142275000Y-33600000D02*
X142875000Y-34200000D01*
X140612500Y-90750000D02*
X147037500Y-90750000D01*
X147037500Y-90750000D02*
X147637500Y-91350000D01*
X152200000Y-71700000D02*
X158400000Y-65500000D01*
X150137500Y-71700000D02*
X152200000Y-71700000D01*
X164425000Y-52650000D02*
X170850000Y-52650000D01*
X170850000Y-52650000D02*
X171450000Y-53250000D01*
X183475000Y-52650000D02*
X189900000Y-52650000D01*
X189900000Y-52650000D02*
X190500000Y-53250000D01*
X154900000Y-33600000D02*
X161325000Y-33600000D01*
X161325000Y-33600000D02*
X161925000Y-34200000D01*
X173950000Y-33600000D02*
X180375000Y-33600000D01*
X180375000Y-33600000D02*
X180975000Y-34200000D01*
X246900000Y-106168750D02*
X242768750Y-110300000D01*
X246900000Y-104000000D02*
X246900000Y-106168750D01*
X240387500Y-112681250D02*
X242768750Y-110300000D01*
X240387500Y-118800000D02*
X240387500Y-112681250D01*
X159662500Y-90750000D02*
X166087500Y-90750000D01*
X166087500Y-90750000D02*
X166687500Y-91350000D01*
X185737500Y-91350000D02*
X185137500Y-90750000D01*
X185137500Y-90750000D02*
X178712500Y-90750000D01*
X169187500Y-71700000D02*
X175612500Y-71700000D01*
X175612500Y-71700000D02*
X176212500Y-72300000D01*
X188237500Y-71700000D02*
X194662500Y-71700000D01*
X194662500Y-71700000D02*
X195262500Y-72300000D01*
X202525000Y-52650000D02*
X208950000Y-52650000D01*
X208950000Y-52650000D02*
X209550000Y-53250000D01*
X193000000Y-33600000D02*
X199425000Y-33600000D01*
X199425000Y-33600000D02*
X200025000Y-34200000D01*
X212050000Y-33600000D02*
X218475000Y-33600000D01*
X218475000Y-33600000D02*
X219075000Y-34200000D01*
X314500000Y-66250000D02*
X327750000Y-66250000D01*
X274250000Y-83250000D02*
X278750000Y-78750000D01*
X269500000Y-83250000D02*
X274250000Y-83250000D01*
X278750000Y-78750000D02*
X302000000Y-78750000D01*
X135250000Y-87250000D02*
X265500000Y-87250000D01*
X130000000Y-92500000D02*
X135250000Y-87250000D01*
X265500000Y-87250000D02*
X269500000Y-83250000D01*
X130000000Y-106500000D02*
X130000000Y-92500000D01*
X302000000Y-78750000D02*
X314500000Y-66250000D01*
X268962500Y-118800000D02*
X276343750Y-111418750D01*
X276343750Y-111418750D02*
X276343750Y-109800000D01*
X265400000Y-104000000D02*
X268750000Y-104000000D01*
X274550000Y-109800000D02*
X276343750Y-109800000D01*
X268750000Y-104000000D02*
X274550000Y-109800000D01*
X204787500Y-91350000D02*
X204187500Y-90750000D01*
X204187500Y-90750000D02*
X197762500Y-90750000D01*
X223237500Y-90750000D02*
X223837500Y-91350000D01*
X216812500Y-90750000D02*
X223237500Y-90750000D01*
X207287500Y-71700000D02*
X213712500Y-71700000D01*
X213712500Y-71700000D02*
X214312500Y-72300000D01*
X221575000Y-52650000D02*
X228000000Y-52650000D01*
X228000000Y-52650000D02*
X228600000Y-53250000D01*
X231100000Y-33600000D02*
X237525000Y-33600000D01*
X237525000Y-33600000D02*
X238125000Y-34200000D01*
X238087500Y-34162500D02*
X238112500Y-34187500D01*
X250150000Y-33600000D02*
X256575000Y-33600000D01*
X256575000Y-33600000D02*
X257162500Y-34187500D01*
X330875000Y-110300000D02*
X330875000Y-53150000D01*
X322025000Y-62000000D02*
X330875000Y-53150000D01*
X301500000Y-78000000D02*
X317500000Y-62000000D01*
X273750000Y-82500000D02*
X278250000Y-78000000D01*
X269000000Y-82500000D02*
X273750000Y-82500000D01*
X265000000Y-86500000D02*
X269000000Y-82500000D01*
X317500000Y-62000000D02*
X322025000Y-62000000D01*
X129000000Y-86500000D02*
X265000000Y-86500000D01*
X122750000Y-92750000D02*
X129000000Y-86500000D01*
X278250000Y-78000000D02*
X301500000Y-78000000D01*
X122750000Y-107500000D02*
X122750000Y-92750000D01*
X330875000Y-53150000D02*
X334750000Y-49275000D01*
X334750000Y-37975000D02*
X330875000Y-34100000D01*
X334750000Y-49275000D02*
X334750000Y-37975000D01*
X222075000Y-110300000D02*
X221575000Y-109800000D01*
X223718750Y-110300000D02*
X222075000Y-110300000D01*
X221575000Y-104925000D02*
X220650000Y-104000000D01*
X221575000Y-109800000D02*
X221575000Y-104925000D01*
X55500000Y-48000000D02*
X58000000Y-50500000D01*
X45750000Y-48000000D02*
X55500000Y-48000000D01*
X43250000Y-45500000D02*
X45750000Y-48000000D01*
X37750000Y-45500000D02*
X43250000Y-45500000D01*
X36830000Y-44580000D02*
X37750000Y-45500000D01*
X36830000Y-43180000D02*
X36830000Y-44580000D01*
X42930000Y-43180000D02*
X39370000Y-43180000D01*
X45250000Y-45500000D02*
X42930000Y-43180000D01*
X56750000Y-45500000D02*
X45250000Y-45500000D01*
M02*
