%FSLAX45Y45*%
G04 Gerber Fmt 4.5, Leading zero omitted, Abs format (unit mm)*
G04 Created by KiCad (PCBNEW (5.1.12)-1) date 2021-12-15 00:33:17*
%MOMM*%
%LPD*%
G01*
G04 APERTURE LIST*
%TA.AperFunction,Profile*%
%ADD10C,0.100000*%
%TD*%
%ADD11C,0.200000*%
%ADD12C,0.300000*%
G04 APERTURE END LIST*
D10*
X31475000Y-2860000D02*
X32375000Y-2860000D01*
X32375000Y-2860000D02*
G75*
G02*
X32400000Y-2885000I0J-25000D01*
G01*
X32425000Y-2910000D02*
G75*
G02*
X32400000Y-2885000I0J25000D01*
G01*
X31450000Y-2885000D02*
G75*
G02*
X31475000Y-2860000I25000J0D01*
G01*
X31450000Y-2885000D02*
G75*
G02*
X31425000Y-2910000I-25000J0D01*
G01*
X32425000Y-2910000D02*
X33987500Y-2910000D01*
X3160000Y-2910000D02*
X31425000Y-2910000D01*
X34237500Y-3160000D02*
X34237500Y-12080000D01*
X2910000Y-12080000D02*
G75*
G03*
X3160000Y-12330000I250000J0D01*
G01*
X33987500Y-12330000D02*
G75*
G03*
X34237500Y-12080000I0J250000D01*
G01*
X34237500Y-3160000D02*
G75*
G03*
X33987500Y-2910000I-250000J0D01*
G01*
X3160000Y-2910000D02*
G75*
G03*
X2910000Y-3160000I0J-250000D01*
G01*
X3160000Y-12330000D02*
X33987500Y-12330000D01*
X2910000Y-3160000D02*
X2910000Y-12080000D01*
D11*
X33360000Y-7460000D02*
X33440000Y-7540000D01*
X33440000Y-7460000D02*
X33360000Y-7540000D01*
X3963125Y-10225000D02*
G75*
G03*
X3963125Y-10225000I-152500J0D01*
G01*
X6343125Y-10225000D02*
G75*
G03*
X6343125Y-10225000I-152500J0D01*
G01*
X10630000Y-12130000D02*
G75*
G03*
X10630000Y-12130000I-152500J0D01*
G01*
X12058750Y-12130000D02*
G75*
G03*
X12058750Y-12130000I-152500J0D01*
G01*
X19678750Y-12130000D02*
G75*
G03*
X19678750Y-12130000I-152500J0D01*
G01*
X20631250Y-12130000D02*
G75*
G03*
X20631250Y-12130000I-152500J0D01*
G01*
X27299375Y-10225000D02*
G75*
G03*
X27299375Y-10225000I-152500J0D01*
G01*
X28251875Y-8320000D02*
G75*
G03*
X28251875Y-8320000I-152500J0D01*
G01*
X28490000Y-3110000D02*
G75*
G03*
X28490000Y-3110000I-152500J0D01*
G01*
X29679375Y-10225000D02*
G75*
G03*
X29679375Y-10225000I-152500J0D01*
G01*
X30631875Y-8320000D02*
G75*
G03*
X30631875Y-8320000I-152500J0D01*
G01*
X30870000Y-3110000D02*
G75*
G03*
X30870000Y-3110000I-152500J0D01*
G01*
X3810625Y-8501000D02*
X3810625Y-8901000D01*
X3610625Y-8701000D02*
X4010625Y-8701000D01*
X6190625Y-8501000D02*
X6190625Y-8901000D01*
X5990625Y-8701000D02*
X6390625Y-8701000D01*
X10477500Y-10406000D02*
X10477500Y-10806000D01*
X10277500Y-10606000D02*
X10677500Y-10606000D01*
X11906250Y-10406000D02*
X11906250Y-10806000D01*
X11706250Y-10606000D02*
X12106250Y-10606000D01*
X13811250Y-7418750D02*
X13811250Y-7818750D01*
X13611250Y-7618750D02*
X14011250Y-7618750D01*
X19526250Y-10406000D02*
X19526250Y-10806000D01*
X19326250Y-10606000D02*
X19726250Y-10606000D01*
X20478750Y-10406000D02*
X20478750Y-10806000D01*
X20278750Y-10606000D02*
X20678750Y-10606000D01*
X23336250Y-7418750D02*
X23336250Y-7818750D01*
X23136250Y-7618750D02*
X23536250Y-7618750D01*
X27146875Y-8501000D02*
X27146875Y-8901000D01*
X26946875Y-8701000D02*
X27346875Y-8701000D01*
X28099375Y-6596000D02*
X28099375Y-6996000D01*
X27899375Y-6796000D02*
X28299375Y-6796000D01*
X28337500Y-4434000D02*
X28337500Y-4834000D01*
X28137500Y-4634000D02*
X28537500Y-4634000D01*
X29526875Y-8501000D02*
X29526875Y-8901000D01*
X29326875Y-8701000D02*
X29726875Y-8701000D01*
X30479375Y-6596000D02*
X30479375Y-6996000D01*
X30279375Y-6796000D02*
X30679375Y-6796000D01*
X30717500Y-4434000D02*
X30717500Y-4834000D01*
X30517500Y-4634000D02*
X30917500Y-4634000D01*
X32401590Y-7841590D02*
X32401590Y-7028410D01*
X31588410Y-7028410D01*
X31588410Y-7841590D01*
X32401590Y-7841590D01*
D12*
X3191428Y-12800714D02*
X3191428Y-12500714D01*
X3262857Y-12500714D01*
X3305714Y-12515000D01*
X3334286Y-12543571D01*
X3348571Y-12572143D01*
X3362857Y-12629286D01*
X3362857Y-12672143D01*
X3348571Y-12729286D01*
X3334286Y-12757857D01*
X3305714Y-12786429D01*
X3262857Y-12800714D01*
X3191428Y-12800714D01*
X3491428Y-12800714D02*
X3491428Y-12600714D01*
X3491428Y-12657857D02*
X3505714Y-12629286D01*
X3520000Y-12615000D01*
X3548571Y-12600714D01*
X3577143Y-12600714D01*
X3677143Y-12800714D02*
X3677143Y-12600714D01*
X3677143Y-12500714D02*
X3662857Y-12515000D01*
X3677143Y-12529286D01*
X3691428Y-12515000D01*
X3677143Y-12500714D01*
X3677143Y-12529286D01*
X3862857Y-12800714D02*
X3834286Y-12786429D01*
X3820000Y-12757857D01*
X3820000Y-12500714D01*
X4020000Y-12800714D02*
X3991428Y-12786429D01*
X3977143Y-12757857D01*
X3977143Y-12500714D01*
X4362857Y-12800714D02*
X4362857Y-12500714D01*
X4462857Y-12715000D01*
X4562857Y-12500714D01*
X4562857Y-12800714D01*
X4834286Y-12800714D02*
X4834286Y-12643571D01*
X4820000Y-12615000D01*
X4791428Y-12600714D01*
X4734286Y-12600714D01*
X4705714Y-12615000D01*
X4834286Y-12786429D02*
X4805714Y-12800714D01*
X4734286Y-12800714D01*
X4705714Y-12786429D01*
X4691428Y-12757857D01*
X4691428Y-12729286D01*
X4705714Y-12700714D01*
X4734286Y-12686429D01*
X4805714Y-12686429D01*
X4834286Y-12672143D01*
X4977143Y-12600714D02*
X4977143Y-12900714D01*
X4977143Y-12615000D02*
X5005714Y-12600714D01*
X5062857Y-12600714D01*
X5091428Y-12615000D01*
X5105714Y-12629286D01*
X5120000Y-12657857D01*
X5120000Y-12743571D01*
X5105714Y-12772143D01*
X5091428Y-12786429D01*
X5062857Y-12800714D01*
X5005714Y-12800714D01*
X4977143Y-12786429D01*
X5248571Y-12772143D02*
X5262857Y-12786429D01*
X5248571Y-12800714D01*
X5234286Y-12786429D01*
X5248571Y-12772143D01*
X5248571Y-12800714D01*
X5248571Y-12615000D02*
X5262857Y-12629286D01*
X5248571Y-12643571D01*
X5234286Y-12629286D01*
X5248571Y-12615000D01*
X5248571Y-12643571D01*
X2825000Y-13255000D02*
X2905000Y-13335000D01*
X2905000Y-13255000D02*
X2825000Y-13335000D01*
X3248571Y-13130714D02*
X3277143Y-13130714D01*
X3305714Y-13145000D01*
X3320000Y-13159286D01*
X3334286Y-13187857D01*
X3348571Y-13245000D01*
X3348571Y-13316429D01*
X3334286Y-13373571D01*
X3320000Y-13402143D01*
X3305714Y-13416429D01*
X3277143Y-13430714D01*
X3248571Y-13430714D01*
X3220000Y-13416429D01*
X3205714Y-13402143D01*
X3191428Y-13373571D01*
X3177143Y-13316429D01*
X3177143Y-13245000D01*
X3191428Y-13187857D01*
X3205714Y-13159286D01*
X3220000Y-13145000D01*
X3248571Y-13130714D01*
X3477143Y-13402143D02*
X3491428Y-13416429D01*
X3477143Y-13430714D01*
X3462857Y-13416429D01*
X3477143Y-13402143D01*
X3477143Y-13430714D01*
X3662857Y-13259286D02*
X3634286Y-13245000D01*
X3620000Y-13230714D01*
X3605714Y-13202143D01*
X3605714Y-13187857D01*
X3620000Y-13159286D01*
X3634286Y-13145000D01*
X3662857Y-13130714D01*
X3720000Y-13130714D01*
X3748571Y-13145000D01*
X3762857Y-13159286D01*
X3777143Y-13187857D01*
X3777143Y-13202143D01*
X3762857Y-13230714D01*
X3748571Y-13245000D01*
X3720000Y-13259286D01*
X3662857Y-13259286D01*
X3634286Y-13273571D01*
X3620000Y-13287857D01*
X3605714Y-13316429D01*
X3605714Y-13373571D01*
X3620000Y-13402143D01*
X3634286Y-13416429D01*
X3662857Y-13430714D01*
X3720000Y-13430714D01*
X3748571Y-13416429D01*
X3762857Y-13402143D01*
X3777143Y-13373571D01*
X3777143Y-13316429D01*
X3762857Y-13287857D01*
X3748571Y-13273571D01*
X3720000Y-13259286D01*
X3962857Y-13130714D02*
X3991428Y-13130714D01*
X4020000Y-13145000D01*
X4034286Y-13159286D01*
X4048571Y-13187857D01*
X4062857Y-13245000D01*
X4062857Y-13316429D01*
X4048571Y-13373571D01*
X4034286Y-13402143D01*
X4020000Y-13416429D01*
X3991428Y-13430714D01*
X3962857Y-13430714D01*
X3934286Y-13416429D01*
X3920000Y-13402143D01*
X3905714Y-13373571D01*
X3891428Y-13316429D01*
X3891428Y-13245000D01*
X3905714Y-13187857D01*
X3920000Y-13159286D01*
X3934286Y-13145000D01*
X3962857Y-13130714D01*
X4248571Y-13130714D02*
X4277143Y-13130714D01*
X4305714Y-13145000D01*
X4320000Y-13159286D01*
X4334286Y-13187857D01*
X4348571Y-13245000D01*
X4348571Y-13316429D01*
X4334286Y-13373571D01*
X4320000Y-13402143D01*
X4305714Y-13416429D01*
X4277143Y-13430714D01*
X4248571Y-13430714D01*
X4220000Y-13416429D01*
X4205714Y-13402143D01*
X4191428Y-13373571D01*
X4177143Y-13316429D01*
X4177143Y-13245000D01*
X4191428Y-13187857D01*
X4205714Y-13159286D01*
X4220000Y-13145000D01*
X4248571Y-13130714D01*
X4477143Y-13430714D02*
X4477143Y-13230714D01*
X4477143Y-13259286D02*
X4491428Y-13245000D01*
X4520000Y-13230714D01*
X4562857Y-13230714D01*
X4591428Y-13245000D01*
X4605714Y-13273571D01*
X4605714Y-13430714D01*
X4605714Y-13273571D02*
X4620000Y-13245000D01*
X4648571Y-13230714D01*
X4691428Y-13230714D01*
X4720000Y-13245000D01*
X4734286Y-13273571D01*
X4734286Y-13430714D01*
X4877143Y-13430714D02*
X4877143Y-13230714D01*
X4877143Y-13259286D02*
X4891428Y-13245000D01*
X4920000Y-13230714D01*
X4962857Y-13230714D01*
X4991428Y-13245000D01*
X5005714Y-13273571D01*
X5005714Y-13430714D01*
X5005714Y-13273571D02*
X5020000Y-13245000D01*
X5048571Y-13230714D01*
X5091428Y-13230714D01*
X5120000Y-13245000D01*
X5134286Y-13273571D01*
X5134286Y-13430714D01*
X5720000Y-13116429D02*
X5462857Y-13502143D01*
X6105714Y-13130714D02*
X6134286Y-13130714D01*
X6162857Y-13145000D01*
X6177143Y-13159286D01*
X6191428Y-13187857D01*
X6205714Y-13245000D01*
X6205714Y-13316429D01*
X6191428Y-13373571D01*
X6177143Y-13402143D01*
X6162857Y-13416429D01*
X6134286Y-13430714D01*
X6105714Y-13430714D01*
X6077143Y-13416429D01*
X6062857Y-13402143D01*
X6048571Y-13373571D01*
X6034286Y-13316429D01*
X6034286Y-13245000D01*
X6048571Y-13187857D01*
X6062857Y-13159286D01*
X6077143Y-13145000D01*
X6105714Y-13130714D01*
X6334286Y-13402143D02*
X6348571Y-13416429D01*
X6334286Y-13430714D01*
X6320000Y-13416429D01*
X6334286Y-13402143D01*
X6334286Y-13430714D01*
X6534286Y-13130714D02*
X6562857Y-13130714D01*
X6591428Y-13145000D01*
X6605714Y-13159286D01*
X6620000Y-13187857D01*
X6634286Y-13245000D01*
X6634286Y-13316429D01*
X6620000Y-13373571D01*
X6605714Y-13402143D01*
X6591428Y-13416429D01*
X6562857Y-13430714D01*
X6534286Y-13430714D01*
X6505714Y-13416429D01*
X6491428Y-13402143D01*
X6477143Y-13373571D01*
X6462857Y-13316429D01*
X6462857Y-13245000D01*
X6477143Y-13187857D01*
X6491428Y-13159286D01*
X6505714Y-13145000D01*
X6534286Y-13130714D01*
X6734286Y-13130714D02*
X6920000Y-13130714D01*
X6820000Y-13245000D01*
X6862857Y-13245000D01*
X6891428Y-13259286D01*
X6905714Y-13273571D01*
X6920000Y-13302143D01*
X6920000Y-13373571D01*
X6905714Y-13402143D01*
X6891428Y-13416429D01*
X6862857Y-13430714D01*
X6777143Y-13430714D01*
X6748571Y-13416429D01*
X6734286Y-13402143D01*
X7205714Y-13430714D02*
X7034286Y-13430714D01*
X7120000Y-13430714D02*
X7120000Y-13130714D01*
X7091428Y-13173571D01*
X7062857Y-13202143D01*
X7034286Y-13216429D01*
X7477143Y-13130714D02*
X7334286Y-13130714D01*
X7320000Y-13273571D01*
X7334286Y-13259286D01*
X7362857Y-13245000D01*
X7434286Y-13245000D01*
X7462857Y-13259286D01*
X7477143Y-13273571D01*
X7491428Y-13302143D01*
X7491428Y-13373571D01*
X7477143Y-13402143D01*
X7462857Y-13416429D01*
X7434286Y-13430714D01*
X7362857Y-13430714D01*
X7334286Y-13416429D01*
X7320000Y-13402143D01*
X7605714Y-13130714D02*
X7605714Y-13187857D01*
X7720000Y-13130714D02*
X7720000Y-13187857D01*
X8162857Y-13545000D02*
X8148571Y-13530714D01*
X8120000Y-13487857D01*
X8105714Y-13459286D01*
X8091428Y-13416429D01*
X8077143Y-13345000D01*
X8077143Y-13287857D01*
X8091428Y-13216429D01*
X8105714Y-13173571D01*
X8120000Y-13145000D01*
X8148571Y-13102143D01*
X8162857Y-13087857D01*
X8434286Y-13430714D02*
X8262857Y-13430714D01*
X8348571Y-13430714D02*
X8348571Y-13130714D01*
X8320000Y-13173571D01*
X8291428Y-13202143D01*
X8262857Y-13216429D01*
X8791428Y-13430714D02*
X8791428Y-13130714D01*
X8920000Y-13430714D02*
X8920000Y-13273571D01*
X8905714Y-13245000D01*
X8877143Y-13230714D01*
X8834286Y-13230714D01*
X8805714Y-13245000D01*
X8791428Y-13259286D01*
X9105714Y-13430714D02*
X9077143Y-13416429D01*
X9062857Y-13402143D01*
X9048571Y-13373571D01*
X9048571Y-13287857D01*
X9062857Y-13259286D01*
X9077143Y-13245000D01*
X9105714Y-13230714D01*
X9148571Y-13230714D01*
X9177143Y-13245000D01*
X9191428Y-13259286D01*
X9205714Y-13287857D01*
X9205714Y-13373571D01*
X9191428Y-13402143D01*
X9177143Y-13416429D01*
X9148571Y-13430714D01*
X9105714Y-13430714D01*
X9377143Y-13430714D02*
X9348571Y-13416429D01*
X9334286Y-13387857D01*
X9334286Y-13130714D01*
X9605714Y-13416429D02*
X9577143Y-13430714D01*
X9520000Y-13430714D01*
X9491428Y-13416429D01*
X9477143Y-13387857D01*
X9477143Y-13273571D01*
X9491428Y-13245000D01*
X9520000Y-13230714D01*
X9577143Y-13230714D01*
X9605714Y-13245000D01*
X9620000Y-13273571D01*
X9620000Y-13302143D01*
X9477143Y-13330714D01*
X9720000Y-13545000D02*
X9734286Y-13530714D01*
X9762857Y-13487857D01*
X9777143Y-13459286D01*
X9791428Y-13416429D01*
X9805714Y-13345000D01*
X9805714Y-13287857D01*
X9791428Y-13216429D01*
X9777143Y-13173571D01*
X9762857Y-13145000D01*
X9734286Y-13102143D01*
X9720000Y-13087857D01*
X10262857Y-13545000D02*
X10248571Y-13530714D01*
X10220000Y-13487857D01*
X10205714Y-13459286D01*
X10191428Y-13416429D01*
X10177143Y-13345000D01*
X10177143Y-13287857D01*
X10191428Y-13216429D01*
X10205714Y-13173571D01*
X10220000Y-13145000D01*
X10248571Y-13102143D01*
X10262857Y-13087857D01*
X10377143Y-13230714D02*
X10377143Y-13430714D01*
X10377143Y-13259286D02*
X10391428Y-13245000D01*
X10420000Y-13230714D01*
X10462857Y-13230714D01*
X10491428Y-13245000D01*
X10505714Y-13273571D01*
X10505714Y-13430714D01*
X10691428Y-13430714D02*
X10662857Y-13416429D01*
X10648571Y-13402143D01*
X10634286Y-13373571D01*
X10634286Y-13287857D01*
X10648571Y-13259286D01*
X10662857Y-13245000D01*
X10691428Y-13230714D01*
X10734286Y-13230714D01*
X10762857Y-13245000D01*
X10777143Y-13259286D01*
X10791428Y-13287857D01*
X10791428Y-13373571D01*
X10777143Y-13402143D01*
X10762857Y-13416429D01*
X10734286Y-13430714D01*
X10691428Y-13430714D01*
X10877143Y-13230714D02*
X10991428Y-13230714D01*
X10920000Y-13130714D02*
X10920000Y-13387857D01*
X10934286Y-13416429D01*
X10962857Y-13430714D01*
X10991428Y-13430714D01*
X11320000Y-13230714D02*
X11320000Y-13530714D01*
X11320000Y-13245000D02*
X11348571Y-13230714D01*
X11405714Y-13230714D01*
X11434286Y-13245000D01*
X11448571Y-13259286D01*
X11462857Y-13287857D01*
X11462857Y-13373571D01*
X11448571Y-13402143D01*
X11434286Y-13416429D01*
X11405714Y-13430714D01*
X11348571Y-13430714D01*
X11320000Y-13416429D01*
X11634286Y-13430714D02*
X11605714Y-13416429D01*
X11591428Y-13387857D01*
X11591428Y-13130714D01*
X11877143Y-13430714D02*
X11877143Y-13273571D01*
X11862857Y-13245000D01*
X11834286Y-13230714D01*
X11777143Y-13230714D01*
X11748571Y-13245000D01*
X11877143Y-13416429D02*
X11848571Y-13430714D01*
X11777143Y-13430714D01*
X11748571Y-13416429D01*
X11734286Y-13387857D01*
X11734286Y-13359286D01*
X11748571Y-13330714D01*
X11777143Y-13316429D01*
X11848571Y-13316429D01*
X11877143Y-13302143D01*
X11977143Y-13230714D02*
X12091428Y-13230714D01*
X12020000Y-13130714D02*
X12020000Y-13387857D01*
X12034286Y-13416429D01*
X12062857Y-13430714D01*
X12091428Y-13430714D01*
X12305714Y-13416429D02*
X12277143Y-13430714D01*
X12220000Y-13430714D01*
X12191428Y-13416429D01*
X12177143Y-13387857D01*
X12177143Y-13273571D01*
X12191428Y-13245000D01*
X12220000Y-13230714D01*
X12277143Y-13230714D01*
X12305714Y-13245000D01*
X12320000Y-13273571D01*
X12320000Y-13302143D01*
X12177143Y-13330714D01*
X12577143Y-13430714D02*
X12577143Y-13130714D01*
X12577143Y-13416429D02*
X12548571Y-13430714D01*
X12491428Y-13430714D01*
X12462857Y-13416429D01*
X12448571Y-13402143D01*
X12434286Y-13373571D01*
X12434286Y-13287857D01*
X12448571Y-13259286D01*
X12462857Y-13245000D01*
X12491428Y-13230714D01*
X12548571Y-13230714D01*
X12577143Y-13245000D01*
X12691428Y-13545000D02*
X12705714Y-13530714D01*
X12734286Y-13487857D01*
X12748571Y-13459286D01*
X12762857Y-13416429D01*
X12777143Y-13345000D01*
X12777143Y-13287857D01*
X12762857Y-13216429D01*
X12748571Y-13173571D01*
X12734286Y-13145000D01*
X12705714Y-13102143D01*
X12691428Y-13087857D01*
X2905000Y-13691000D02*
G75*
G03*
X2905000Y-13691000I-152500J0D01*
G01*
X3162857Y-13526714D02*
X3348571Y-13526714D01*
X3248571Y-13641000D01*
X3291428Y-13641000D01*
X3320000Y-13655286D01*
X3334286Y-13669571D01*
X3348571Y-13698143D01*
X3348571Y-13769571D01*
X3334286Y-13798143D01*
X3320000Y-13812429D01*
X3291428Y-13826714D01*
X3205714Y-13826714D01*
X3177143Y-13812429D01*
X3162857Y-13798143D01*
X3477143Y-13798143D02*
X3491428Y-13812429D01*
X3477143Y-13826714D01*
X3462857Y-13812429D01*
X3477143Y-13798143D01*
X3477143Y-13826714D01*
X3677143Y-13526714D02*
X3705714Y-13526714D01*
X3734286Y-13541000D01*
X3748571Y-13555286D01*
X3762857Y-13583857D01*
X3777143Y-13641000D01*
X3777143Y-13712429D01*
X3762857Y-13769571D01*
X3748571Y-13798143D01*
X3734286Y-13812429D01*
X3705714Y-13826714D01*
X3677143Y-13826714D01*
X3648571Y-13812429D01*
X3634286Y-13798143D01*
X3620000Y-13769571D01*
X3605714Y-13712429D01*
X3605714Y-13641000D01*
X3620000Y-13583857D01*
X3634286Y-13555286D01*
X3648571Y-13541000D01*
X3677143Y-13526714D01*
X4048571Y-13526714D02*
X3905714Y-13526714D01*
X3891428Y-13669571D01*
X3905714Y-13655286D01*
X3934286Y-13641000D01*
X4005714Y-13641000D01*
X4034286Y-13655286D01*
X4048571Y-13669571D01*
X4062857Y-13698143D01*
X4062857Y-13769571D01*
X4048571Y-13798143D01*
X4034286Y-13812429D01*
X4005714Y-13826714D01*
X3934286Y-13826714D01*
X3905714Y-13812429D01*
X3891428Y-13798143D01*
X4248571Y-13526714D02*
X4277143Y-13526714D01*
X4305714Y-13541000D01*
X4320000Y-13555286D01*
X4334286Y-13583857D01*
X4348571Y-13641000D01*
X4348571Y-13712429D01*
X4334286Y-13769571D01*
X4320000Y-13798143D01*
X4305714Y-13812429D01*
X4277143Y-13826714D01*
X4248571Y-13826714D01*
X4220000Y-13812429D01*
X4205714Y-13798143D01*
X4191428Y-13769571D01*
X4177143Y-13712429D01*
X4177143Y-13641000D01*
X4191428Y-13583857D01*
X4205714Y-13555286D01*
X4220000Y-13541000D01*
X4248571Y-13526714D01*
X4477143Y-13826714D02*
X4477143Y-13626714D01*
X4477143Y-13655286D02*
X4491428Y-13641000D01*
X4520000Y-13626714D01*
X4562857Y-13626714D01*
X4591428Y-13641000D01*
X4605714Y-13669571D01*
X4605714Y-13826714D01*
X4605714Y-13669571D02*
X4620000Y-13641000D01*
X4648571Y-13626714D01*
X4691428Y-13626714D01*
X4720000Y-13641000D01*
X4734286Y-13669571D01*
X4734286Y-13826714D01*
X4877143Y-13826714D02*
X4877143Y-13626714D01*
X4877143Y-13655286D02*
X4891428Y-13641000D01*
X4920000Y-13626714D01*
X4962857Y-13626714D01*
X4991428Y-13641000D01*
X5005714Y-13669571D01*
X5005714Y-13826714D01*
X5005714Y-13669571D02*
X5020000Y-13641000D01*
X5048571Y-13626714D01*
X5091428Y-13626714D01*
X5120000Y-13641000D01*
X5134286Y-13669571D01*
X5134286Y-13826714D01*
X5720000Y-13512429D02*
X5462857Y-13898143D01*
X6105714Y-13526714D02*
X6134286Y-13526714D01*
X6162857Y-13541000D01*
X6177143Y-13555286D01*
X6191428Y-13583857D01*
X6205714Y-13641000D01*
X6205714Y-13712429D01*
X6191428Y-13769571D01*
X6177143Y-13798143D01*
X6162857Y-13812429D01*
X6134286Y-13826714D01*
X6105714Y-13826714D01*
X6077143Y-13812429D01*
X6062857Y-13798143D01*
X6048571Y-13769571D01*
X6034286Y-13712429D01*
X6034286Y-13641000D01*
X6048571Y-13583857D01*
X6062857Y-13555286D01*
X6077143Y-13541000D01*
X6105714Y-13526714D01*
X6334286Y-13798143D02*
X6348571Y-13812429D01*
X6334286Y-13826714D01*
X6320000Y-13812429D01*
X6334286Y-13798143D01*
X6334286Y-13826714D01*
X6634286Y-13826714D02*
X6462857Y-13826714D01*
X6548571Y-13826714D02*
X6548571Y-13526714D01*
X6520000Y-13569571D01*
X6491428Y-13598143D01*
X6462857Y-13612429D01*
X6748571Y-13555286D02*
X6762857Y-13541000D01*
X6791428Y-13526714D01*
X6862857Y-13526714D01*
X6891428Y-13541000D01*
X6905714Y-13555286D01*
X6920000Y-13583857D01*
X6920000Y-13612429D01*
X6905714Y-13655286D01*
X6734286Y-13826714D01*
X6920000Y-13826714D01*
X7105714Y-13526714D02*
X7134286Y-13526714D01*
X7162857Y-13541000D01*
X7177143Y-13555286D01*
X7191428Y-13583857D01*
X7205714Y-13641000D01*
X7205714Y-13712429D01*
X7191428Y-13769571D01*
X7177143Y-13798143D01*
X7162857Y-13812429D01*
X7134286Y-13826714D01*
X7105714Y-13826714D01*
X7077143Y-13812429D01*
X7062857Y-13798143D01*
X7048571Y-13769571D01*
X7034286Y-13712429D01*
X7034286Y-13641000D01*
X7048571Y-13583857D01*
X7062857Y-13555286D01*
X7077143Y-13541000D01*
X7105714Y-13526714D01*
X7491428Y-13826714D02*
X7320000Y-13826714D01*
X7405714Y-13826714D02*
X7405714Y-13526714D01*
X7377143Y-13569571D01*
X7348571Y-13598143D01*
X7320000Y-13612429D01*
X7605714Y-13526714D02*
X7605714Y-13583857D01*
X7720000Y-13526714D02*
X7720000Y-13583857D01*
X8162857Y-13941000D02*
X8148571Y-13926714D01*
X8120000Y-13883857D01*
X8105714Y-13855286D01*
X8091428Y-13812429D01*
X8077143Y-13741000D01*
X8077143Y-13683857D01*
X8091428Y-13612429D01*
X8105714Y-13569571D01*
X8120000Y-13541000D01*
X8148571Y-13498143D01*
X8162857Y-13483857D01*
X8434286Y-13826714D02*
X8262857Y-13826714D01*
X8348571Y-13826714D02*
X8348571Y-13526714D01*
X8320000Y-13569571D01*
X8291428Y-13598143D01*
X8262857Y-13612429D01*
X8548571Y-13555286D02*
X8562857Y-13541000D01*
X8591428Y-13526714D01*
X8662857Y-13526714D01*
X8691428Y-13541000D01*
X8705714Y-13555286D01*
X8720000Y-13583857D01*
X8720000Y-13612429D01*
X8705714Y-13655286D01*
X8534286Y-13826714D01*
X8720000Y-13826714D01*
X9077143Y-13826714D02*
X9077143Y-13526714D01*
X9205714Y-13826714D02*
X9205714Y-13669571D01*
X9191428Y-13641000D01*
X9162857Y-13626714D01*
X9120000Y-13626714D01*
X9091428Y-13641000D01*
X9077143Y-13655286D01*
X9391428Y-13826714D02*
X9362857Y-13812429D01*
X9348571Y-13798143D01*
X9334286Y-13769571D01*
X9334286Y-13683857D01*
X9348571Y-13655286D01*
X9362857Y-13641000D01*
X9391428Y-13626714D01*
X9434286Y-13626714D01*
X9462857Y-13641000D01*
X9477143Y-13655286D01*
X9491428Y-13683857D01*
X9491428Y-13769571D01*
X9477143Y-13798143D01*
X9462857Y-13812429D01*
X9434286Y-13826714D01*
X9391428Y-13826714D01*
X9662857Y-13826714D02*
X9634286Y-13812429D01*
X9620000Y-13783857D01*
X9620000Y-13526714D01*
X9891428Y-13812429D02*
X9862857Y-13826714D01*
X9805714Y-13826714D01*
X9777143Y-13812429D01*
X9762857Y-13783857D01*
X9762857Y-13669571D01*
X9777143Y-13641000D01*
X9805714Y-13626714D01*
X9862857Y-13626714D01*
X9891428Y-13641000D01*
X9905714Y-13669571D01*
X9905714Y-13698143D01*
X9762857Y-13726714D01*
X10020000Y-13812429D02*
X10048571Y-13826714D01*
X10105714Y-13826714D01*
X10134286Y-13812429D01*
X10148571Y-13783857D01*
X10148571Y-13769571D01*
X10134286Y-13741000D01*
X10105714Y-13726714D01*
X10062857Y-13726714D01*
X10034286Y-13712429D01*
X10020000Y-13683857D01*
X10020000Y-13669571D01*
X10034286Y-13641000D01*
X10062857Y-13626714D01*
X10105714Y-13626714D01*
X10134286Y-13641000D01*
X10248571Y-13941000D02*
X10262857Y-13926714D01*
X10291428Y-13883857D01*
X10305714Y-13855286D01*
X10320000Y-13812429D01*
X10334286Y-13741000D01*
X10334286Y-13683857D01*
X10320000Y-13612429D01*
X10305714Y-13569571D01*
X10291428Y-13541000D01*
X10262857Y-13498143D01*
X10248571Y-13483857D01*
X10791428Y-13941000D02*
X10777143Y-13926714D01*
X10748571Y-13883857D01*
X10734286Y-13855286D01*
X10720000Y-13812429D01*
X10705714Y-13741000D01*
X10705714Y-13683857D01*
X10720000Y-13612429D01*
X10734286Y-13569571D01*
X10748571Y-13541000D01*
X10777143Y-13498143D01*
X10791428Y-13483857D01*
X10905714Y-13626714D02*
X10905714Y-13826714D01*
X10905714Y-13655286D02*
X10920000Y-13641000D01*
X10948571Y-13626714D01*
X10991428Y-13626714D01*
X11020000Y-13641000D01*
X11034286Y-13669571D01*
X11034286Y-13826714D01*
X11220000Y-13826714D02*
X11191428Y-13812429D01*
X11177143Y-13798143D01*
X11162857Y-13769571D01*
X11162857Y-13683857D01*
X11177143Y-13655286D01*
X11191428Y-13641000D01*
X11220000Y-13626714D01*
X11262857Y-13626714D01*
X11291428Y-13641000D01*
X11305714Y-13655286D01*
X11320000Y-13683857D01*
X11320000Y-13769571D01*
X11305714Y-13798143D01*
X11291428Y-13812429D01*
X11262857Y-13826714D01*
X11220000Y-13826714D01*
X11405714Y-13626714D02*
X11520000Y-13626714D01*
X11448571Y-13526714D02*
X11448571Y-13783857D01*
X11462857Y-13812429D01*
X11491428Y-13826714D01*
X11520000Y-13826714D01*
X11848571Y-13626714D02*
X11848571Y-13926714D01*
X11848571Y-13641000D02*
X11877143Y-13626714D01*
X11934286Y-13626714D01*
X11962857Y-13641000D01*
X11977143Y-13655286D01*
X11991428Y-13683857D01*
X11991428Y-13769571D01*
X11977143Y-13798143D01*
X11962857Y-13812429D01*
X11934286Y-13826714D01*
X11877143Y-13826714D01*
X11848571Y-13812429D01*
X12162857Y-13826714D02*
X12134286Y-13812429D01*
X12120000Y-13783857D01*
X12120000Y-13526714D01*
X12405714Y-13826714D02*
X12405714Y-13669571D01*
X12391428Y-13641000D01*
X12362857Y-13626714D01*
X12305714Y-13626714D01*
X12277143Y-13641000D01*
X12405714Y-13812429D02*
X12377143Y-13826714D01*
X12305714Y-13826714D01*
X12277143Y-13812429D01*
X12262857Y-13783857D01*
X12262857Y-13755286D01*
X12277143Y-13726714D01*
X12305714Y-13712429D01*
X12377143Y-13712429D01*
X12405714Y-13698143D01*
X12505714Y-13626714D02*
X12620000Y-13626714D01*
X12548571Y-13526714D02*
X12548571Y-13783857D01*
X12562857Y-13812429D01*
X12591428Y-13826714D01*
X12620000Y-13826714D01*
X12834286Y-13812429D02*
X12805714Y-13826714D01*
X12748571Y-13826714D01*
X12720000Y-13812429D01*
X12705714Y-13783857D01*
X12705714Y-13669571D01*
X12720000Y-13641000D01*
X12748571Y-13626714D01*
X12805714Y-13626714D01*
X12834286Y-13641000D01*
X12848571Y-13669571D01*
X12848571Y-13698143D01*
X12705714Y-13726714D01*
X13105714Y-13826714D02*
X13105714Y-13526714D01*
X13105714Y-13812429D02*
X13077143Y-13826714D01*
X13020000Y-13826714D01*
X12991428Y-13812429D01*
X12977143Y-13798143D01*
X12962857Y-13769571D01*
X12962857Y-13683857D01*
X12977143Y-13655286D01*
X12991428Y-13641000D01*
X13020000Y-13626714D01*
X13077143Y-13626714D01*
X13105714Y-13641000D01*
X13220000Y-13941000D02*
X13234286Y-13926714D01*
X13262857Y-13883857D01*
X13277143Y-13855286D01*
X13291428Y-13812429D01*
X13305714Y-13741000D01*
X13305714Y-13683857D01*
X13291428Y-13612429D01*
X13277143Y-13569571D01*
X13262857Y-13541000D01*
X13234286Y-13498143D01*
X13220000Y-13483857D01*
X2705000Y-13926000D02*
X2705000Y-14326000D01*
X2505000Y-14126000D02*
X2905000Y-14126000D01*
X3320000Y-14061714D02*
X3320000Y-14261714D01*
X3248571Y-13947429D02*
X3177143Y-14161714D01*
X3362857Y-14161714D01*
X3477143Y-14233143D02*
X3491428Y-14247429D01*
X3477143Y-14261714D01*
X3462857Y-14247429D01*
X3477143Y-14233143D01*
X3477143Y-14261714D01*
X3677143Y-13961714D02*
X3705714Y-13961714D01*
X3734286Y-13976000D01*
X3748571Y-13990286D01*
X3762857Y-14018857D01*
X3777143Y-14076000D01*
X3777143Y-14147429D01*
X3762857Y-14204571D01*
X3748571Y-14233143D01*
X3734286Y-14247429D01*
X3705714Y-14261714D01*
X3677143Y-14261714D01*
X3648571Y-14247429D01*
X3634286Y-14233143D01*
X3620000Y-14204571D01*
X3605714Y-14147429D01*
X3605714Y-14076000D01*
X3620000Y-14018857D01*
X3634286Y-13990286D01*
X3648571Y-13976000D01*
X3677143Y-13961714D01*
X3962857Y-13961714D02*
X3991428Y-13961714D01*
X4020000Y-13976000D01*
X4034286Y-13990286D01*
X4048571Y-14018857D01*
X4062857Y-14076000D01*
X4062857Y-14147429D01*
X4048571Y-14204571D01*
X4034286Y-14233143D01*
X4020000Y-14247429D01*
X3991428Y-14261714D01*
X3962857Y-14261714D01*
X3934286Y-14247429D01*
X3920000Y-14233143D01*
X3905714Y-14204571D01*
X3891428Y-14147429D01*
X3891428Y-14076000D01*
X3905714Y-14018857D01*
X3920000Y-13990286D01*
X3934286Y-13976000D01*
X3962857Y-13961714D01*
X4248571Y-13961714D02*
X4277143Y-13961714D01*
X4305714Y-13976000D01*
X4320000Y-13990286D01*
X4334286Y-14018857D01*
X4348571Y-14076000D01*
X4348571Y-14147429D01*
X4334286Y-14204571D01*
X4320000Y-14233143D01*
X4305714Y-14247429D01*
X4277143Y-14261714D01*
X4248571Y-14261714D01*
X4220000Y-14247429D01*
X4205714Y-14233143D01*
X4191428Y-14204571D01*
X4177143Y-14147429D01*
X4177143Y-14076000D01*
X4191428Y-14018857D01*
X4205714Y-13990286D01*
X4220000Y-13976000D01*
X4248571Y-13961714D01*
X4477143Y-14261714D02*
X4477143Y-14061714D01*
X4477143Y-14090286D02*
X4491428Y-14076000D01*
X4520000Y-14061714D01*
X4562857Y-14061714D01*
X4591428Y-14076000D01*
X4605714Y-14104571D01*
X4605714Y-14261714D01*
X4605714Y-14104571D02*
X4620000Y-14076000D01*
X4648571Y-14061714D01*
X4691428Y-14061714D01*
X4720000Y-14076000D01*
X4734286Y-14104571D01*
X4734286Y-14261714D01*
X4877143Y-14261714D02*
X4877143Y-14061714D01*
X4877143Y-14090286D02*
X4891428Y-14076000D01*
X4920000Y-14061714D01*
X4962857Y-14061714D01*
X4991428Y-14076000D01*
X5005714Y-14104571D01*
X5005714Y-14261714D01*
X5005714Y-14104571D02*
X5020000Y-14076000D01*
X5048571Y-14061714D01*
X5091428Y-14061714D01*
X5120000Y-14076000D01*
X5134286Y-14104571D01*
X5134286Y-14261714D01*
X5720000Y-13947429D02*
X5462857Y-14333143D01*
X6105714Y-13961714D02*
X6134286Y-13961714D01*
X6162857Y-13976000D01*
X6177143Y-13990286D01*
X6191428Y-14018857D01*
X6205714Y-14076000D01*
X6205714Y-14147429D01*
X6191428Y-14204571D01*
X6177143Y-14233143D01*
X6162857Y-14247429D01*
X6134286Y-14261714D01*
X6105714Y-14261714D01*
X6077143Y-14247429D01*
X6062857Y-14233143D01*
X6048571Y-14204571D01*
X6034286Y-14147429D01*
X6034286Y-14076000D01*
X6048571Y-14018857D01*
X6062857Y-13990286D01*
X6077143Y-13976000D01*
X6105714Y-13961714D01*
X6334286Y-14233143D02*
X6348571Y-14247429D01*
X6334286Y-14261714D01*
X6320000Y-14247429D01*
X6334286Y-14233143D01*
X6334286Y-14261714D01*
X6634286Y-14261714D02*
X6462857Y-14261714D01*
X6548571Y-14261714D02*
X6548571Y-13961714D01*
X6520000Y-14004571D01*
X6491428Y-14033143D01*
X6462857Y-14047429D01*
X6905714Y-13961714D02*
X6762857Y-13961714D01*
X6748571Y-14104571D01*
X6762857Y-14090286D01*
X6791428Y-14076000D01*
X6862857Y-14076000D01*
X6891428Y-14090286D01*
X6905714Y-14104571D01*
X6920000Y-14133143D01*
X6920000Y-14204571D01*
X6905714Y-14233143D01*
X6891428Y-14247429D01*
X6862857Y-14261714D01*
X6791428Y-14261714D01*
X6762857Y-14247429D01*
X6748571Y-14233143D01*
X7020000Y-13961714D02*
X7220000Y-13961714D01*
X7091428Y-14261714D01*
X7477143Y-13961714D02*
X7334286Y-13961714D01*
X7320000Y-14104571D01*
X7334286Y-14090286D01*
X7362857Y-14076000D01*
X7434286Y-14076000D01*
X7462857Y-14090286D01*
X7477143Y-14104571D01*
X7491428Y-14133143D01*
X7491428Y-14204571D01*
X7477143Y-14233143D01*
X7462857Y-14247429D01*
X7434286Y-14261714D01*
X7362857Y-14261714D01*
X7334286Y-14247429D01*
X7320000Y-14233143D01*
X7605714Y-13961714D02*
X7605714Y-14018857D01*
X7720000Y-13961714D02*
X7720000Y-14018857D01*
X8162857Y-14376000D02*
X8148571Y-14361714D01*
X8120000Y-14318857D01*
X8105714Y-14290286D01*
X8091428Y-14247429D01*
X8077143Y-14176000D01*
X8077143Y-14118857D01*
X8091428Y-14047429D01*
X8105714Y-14004571D01*
X8120000Y-13976000D01*
X8148571Y-13933143D01*
X8162857Y-13918857D01*
X8434286Y-14261714D02*
X8262857Y-14261714D01*
X8348571Y-14261714D02*
X8348571Y-13961714D01*
X8320000Y-14004571D01*
X8291428Y-14033143D01*
X8262857Y-14047429D01*
X8691428Y-14061714D02*
X8691428Y-14261714D01*
X8620000Y-13947429D02*
X8548571Y-14161714D01*
X8734286Y-14161714D01*
X9077143Y-14261714D02*
X9077143Y-13961714D01*
X9205714Y-14261714D02*
X9205714Y-14104571D01*
X9191428Y-14076000D01*
X9162857Y-14061714D01*
X9120000Y-14061714D01*
X9091428Y-14076000D01*
X9077143Y-14090286D01*
X9391428Y-14261714D02*
X9362857Y-14247429D01*
X9348571Y-14233143D01*
X9334286Y-14204571D01*
X9334286Y-14118857D01*
X9348571Y-14090286D01*
X9362857Y-14076000D01*
X9391428Y-14061714D01*
X9434286Y-14061714D01*
X9462857Y-14076000D01*
X9477143Y-14090286D01*
X9491428Y-14118857D01*
X9491428Y-14204571D01*
X9477143Y-14233143D01*
X9462857Y-14247429D01*
X9434286Y-14261714D01*
X9391428Y-14261714D01*
X9662857Y-14261714D02*
X9634286Y-14247429D01*
X9620000Y-14218857D01*
X9620000Y-13961714D01*
X9891428Y-14247429D02*
X9862857Y-14261714D01*
X9805714Y-14261714D01*
X9777143Y-14247429D01*
X9762857Y-14218857D01*
X9762857Y-14104571D01*
X9777143Y-14076000D01*
X9805714Y-14061714D01*
X9862857Y-14061714D01*
X9891428Y-14076000D01*
X9905714Y-14104571D01*
X9905714Y-14133143D01*
X9762857Y-14161714D01*
X10020000Y-14247429D02*
X10048571Y-14261714D01*
X10105714Y-14261714D01*
X10134286Y-14247429D01*
X10148571Y-14218857D01*
X10148571Y-14204571D01*
X10134286Y-14176000D01*
X10105714Y-14161714D01*
X10062857Y-14161714D01*
X10034286Y-14147429D01*
X10020000Y-14118857D01*
X10020000Y-14104571D01*
X10034286Y-14076000D01*
X10062857Y-14061714D01*
X10105714Y-14061714D01*
X10134286Y-14076000D01*
X10248571Y-14376000D02*
X10262857Y-14361714D01*
X10291428Y-14318857D01*
X10305714Y-14290286D01*
X10320000Y-14247429D01*
X10334286Y-14176000D01*
X10334286Y-14118857D01*
X10320000Y-14047429D01*
X10305714Y-14004571D01*
X10291428Y-13976000D01*
X10262857Y-13933143D01*
X10248571Y-13918857D01*
X10791428Y-14376000D02*
X10777143Y-14361714D01*
X10748571Y-14318857D01*
X10734286Y-14290286D01*
X10720000Y-14247429D01*
X10705714Y-14176000D01*
X10705714Y-14118857D01*
X10720000Y-14047429D01*
X10734286Y-14004571D01*
X10748571Y-13976000D01*
X10777143Y-13933143D01*
X10791428Y-13918857D01*
X10905714Y-14061714D02*
X10905714Y-14261714D01*
X10905714Y-14090286D02*
X10920000Y-14076000D01*
X10948571Y-14061714D01*
X10991428Y-14061714D01*
X11020000Y-14076000D01*
X11034286Y-14104571D01*
X11034286Y-14261714D01*
X11220000Y-14261714D02*
X11191428Y-14247429D01*
X11177143Y-14233143D01*
X11162857Y-14204571D01*
X11162857Y-14118857D01*
X11177143Y-14090286D01*
X11191428Y-14076000D01*
X11220000Y-14061714D01*
X11262857Y-14061714D01*
X11291428Y-14076000D01*
X11305714Y-14090286D01*
X11320000Y-14118857D01*
X11320000Y-14204571D01*
X11305714Y-14233143D01*
X11291428Y-14247429D01*
X11262857Y-14261714D01*
X11220000Y-14261714D01*
X11405714Y-14061714D02*
X11520000Y-14061714D01*
X11448571Y-13961714D02*
X11448571Y-14218857D01*
X11462857Y-14247429D01*
X11491428Y-14261714D01*
X11520000Y-14261714D01*
X11848571Y-14061714D02*
X11848571Y-14361714D01*
X11848571Y-14076000D02*
X11877143Y-14061714D01*
X11934286Y-14061714D01*
X11962857Y-14076000D01*
X11977143Y-14090286D01*
X11991428Y-14118857D01*
X11991428Y-14204571D01*
X11977143Y-14233143D01*
X11962857Y-14247429D01*
X11934286Y-14261714D01*
X11877143Y-14261714D01*
X11848571Y-14247429D01*
X12162857Y-14261714D02*
X12134286Y-14247429D01*
X12120000Y-14218857D01*
X12120000Y-13961714D01*
X12405714Y-14261714D02*
X12405714Y-14104571D01*
X12391428Y-14076000D01*
X12362857Y-14061714D01*
X12305714Y-14061714D01*
X12277143Y-14076000D01*
X12405714Y-14247429D02*
X12377143Y-14261714D01*
X12305714Y-14261714D01*
X12277143Y-14247429D01*
X12262857Y-14218857D01*
X12262857Y-14190286D01*
X12277143Y-14161714D01*
X12305714Y-14147429D01*
X12377143Y-14147429D01*
X12405714Y-14133143D01*
X12505714Y-14061714D02*
X12620000Y-14061714D01*
X12548571Y-13961714D02*
X12548571Y-14218857D01*
X12562857Y-14247429D01*
X12591428Y-14261714D01*
X12620000Y-14261714D01*
X12834286Y-14247429D02*
X12805714Y-14261714D01*
X12748571Y-14261714D01*
X12720000Y-14247429D01*
X12705714Y-14218857D01*
X12705714Y-14104571D01*
X12720000Y-14076000D01*
X12748571Y-14061714D01*
X12805714Y-14061714D01*
X12834286Y-14076000D01*
X12848571Y-14104571D01*
X12848571Y-14133143D01*
X12705714Y-14161714D01*
X13105714Y-14261714D02*
X13105714Y-13961714D01*
X13105714Y-14247429D02*
X13077143Y-14261714D01*
X13020000Y-14261714D01*
X12991428Y-14247429D01*
X12977143Y-14233143D01*
X12962857Y-14204571D01*
X12962857Y-14118857D01*
X12977143Y-14090286D01*
X12991428Y-14076000D01*
X13020000Y-14061714D01*
X13077143Y-14061714D01*
X13105714Y-14076000D01*
X13220000Y-14376000D02*
X13234286Y-14361714D01*
X13262857Y-14318857D01*
X13277143Y-14290286D01*
X13291428Y-14247429D01*
X13305714Y-14176000D01*
X13305714Y-14118857D01*
X13291428Y-14047429D01*
X13277143Y-14004571D01*
X13262857Y-13976000D01*
X13234286Y-13933143D01*
X13220000Y-13918857D01*
X2736590Y-15062590D02*
X2736590Y-14249410D01*
X1923410Y-14249410D01*
X1923410Y-15062590D01*
X2736590Y-15062590D01*
X3348571Y-14791714D02*
X3177143Y-14791714D01*
X3262857Y-14791714D02*
X3262857Y-14491714D01*
X3234286Y-14534571D01*
X3205714Y-14563143D01*
X3177143Y-14577429D01*
X3634286Y-14791714D02*
X3462857Y-14791714D01*
X3548571Y-14791714D02*
X3548571Y-14491714D01*
X3520000Y-14534571D01*
X3491428Y-14563143D01*
X3462857Y-14577429D01*
X3762857Y-14763143D02*
X3777143Y-14777429D01*
X3762857Y-14791714D01*
X3748571Y-14777429D01*
X3762857Y-14763143D01*
X3762857Y-14791714D01*
X4048571Y-14491714D02*
X3905714Y-14491714D01*
X3891428Y-14634571D01*
X3905714Y-14620286D01*
X3934286Y-14606000D01*
X4005714Y-14606000D01*
X4034286Y-14620286D01*
X4048571Y-14634571D01*
X4062857Y-14663143D01*
X4062857Y-14734571D01*
X4048571Y-14763143D01*
X4034286Y-14777429D01*
X4005714Y-14791714D01*
X3934286Y-14791714D01*
X3905714Y-14777429D01*
X3891428Y-14763143D01*
X4248571Y-14491714D02*
X4277143Y-14491714D01*
X4305714Y-14506000D01*
X4320000Y-14520286D01*
X4334286Y-14548857D01*
X4348571Y-14606000D01*
X4348571Y-14677429D01*
X4334286Y-14734571D01*
X4320000Y-14763143D01*
X4305714Y-14777429D01*
X4277143Y-14791714D01*
X4248571Y-14791714D01*
X4220000Y-14777429D01*
X4205714Y-14763143D01*
X4191428Y-14734571D01*
X4177143Y-14677429D01*
X4177143Y-14606000D01*
X4191428Y-14548857D01*
X4205714Y-14520286D01*
X4220000Y-14506000D01*
X4248571Y-14491714D01*
X4534286Y-14491714D02*
X4562857Y-14491714D01*
X4591428Y-14506000D01*
X4605714Y-14520286D01*
X4620000Y-14548857D01*
X4634286Y-14606000D01*
X4634286Y-14677429D01*
X4620000Y-14734571D01*
X4605714Y-14763143D01*
X4591428Y-14777429D01*
X4562857Y-14791714D01*
X4534286Y-14791714D01*
X4505714Y-14777429D01*
X4491428Y-14763143D01*
X4477143Y-14734571D01*
X4462857Y-14677429D01*
X4462857Y-14606000D01*
X4477143Y-14548857D01*
X4491428Y-14520286D01*
X4505714Y-14506000D01*
X4534286Y-14491714D01*
X4762857Y-14791714D02*
X4762857Y-14591714D01*
X4762857Y-14620286D02*
X4777143Y-14606000D01*
X4805714Y-14591714D01*
X4848571Y-14591714D01*
X4877143Y-14606000D01*
X4891428Y-14634571D01*
X4891428Y-14791714D01*
X4891428Y-14634571D02*
X4905714Y-14606000D01*
X4934286Y-14591714D01*
X4977143Y-14591714D01*
X5005714Y-14606000D01*
X5020000Y-14634571D01*
X5020000Y-14791714D01*
X5162857Y-14791714D02*
X5162857Y-14591714D01*
X5162857Y-14620286D02*
X5177143Y-14606000D01*
X5205714Y-14591714D01*
X5248571Y-14591714D01*
X5277143Y-14606000D01*
X5291428Y-14634571D01*
X5291428Y-14791714D01*
X5291428Y-14634571D02*
X5305714Y-14606000D01*
X5334286Y-14591714D01*
X5377143Y-14591714D01*
X5405714Y-14606000D01*
X5420000Y-14634571D01*
X5420000Y-14791714D01*
X6005714Y-14477429D02*
X5748571Y-14863143D01*
X6391428Y-14491714D02*
X6420000Y-14491714D01*
X6448571Y-14506000D01*
X6462857Y-14520286D01*
X6477143Y-14548857D01*
X6491428Y-14606000D01*
X6491428Y-14677429D01*
X6477143Y-14734571D01*
X6462857Y-14763143D01*
X6448571Y-14777429D01*
X6420000Y-14791714D01*
X6391428Y-14791714D01*
X6362857Y-14777429D01*
X6348571Y-14763143D01*
X6334286Y-14734571D01*
X6320000Y-14677429D01*
X6320000Y-14606000D01*
X6334286Y-14548857D01*
X6348571Y-14520286D01*
X6362857Y-14506000D01*
X6391428Y-14491714D01*
X6620000Y-14763143D02*
X6634286Y-14777429D01*
X6620000Y-14791714D01*
X6605714Y-14777429D01*
X6620000Y-14763143D01*
X6620000Y-14791714D01*
X6891428Y-14591714D02*
X6891428Y-14791714D01*
X6820000Y-14477429D02*
X6748571Y-14691714D01*
X6934286Y-14691714D01*
X7191428Y-14491714D02*
X7048571Y-14491714D01*
X7034286Y-14634571D01*
X7048571Y-14620286D01*
X7077143Y-14606000D01*
X7148571Y-14606000D01*
X7177143Y-14620286D01*
X7191428Y-14634571D01*
X7205714Y-14663143D01*
X7205714Y-14734571D01*
X7191428Y-14763143D01*
X7177143Y-14777429D01*
X7148571Y-14791714D01*
X7077143Y-14791714D01*
X7048571Y-14777429D01*
X7034286Y-14763143D01*
X7320000Y-14520286D02*
X7334286Y-14506000D01*
X7362857Y-14491714D01*
X7434286Y-14491714D01*
X7462857Y-14506000D01*
X7477143Y-14520286D01*
X7491428Y-14548857D01*
X7491428Y-14577429D01*
X7477143Y-14620286D01*
X7305714Y-14791714D01*
X7491428Y-14791714D01*
X7662857Y-14620286D02*
X7634286Y-14606000D01*
X7620000Y-14591714D01*
X7605714Y-14563143D01*
X7605714Y-14548857D01*
X7620000Y-14520286D01*
X7634286Y-14506000D01*
X7662857Y-14491714D01*
X7720000Y-14491714D01*
X7748571Y-14506000D01*
X7762857Y-14520286D01*
X7777143Y-14548857D01*
X7777143Y-14563143D01*
X7762857Y-14591714D01*
X7748571Y-14606000D01*
X7720000Y-14620286D01*
X7662857Y-14620286D01*
X7634286Y-14634571D01*
X7620000Y-14648857D01*
X7605714Y-14677429D01*
X7605714Y-14734571D01*
X7620000Y-14763143D01*
X7634286Y-14777429D01*
X7662857Y-14791714D01*
X7720000Y-14791714D01*
X7748571Y-14777429D01*
X7762857Y-14763143D01*
X7777143Y-14734571D01*
X7777143Y-14677429D01*
X7762857Y-14648857D01*
X7748571Y-14634571D01*
X7720000Y-14620286D01*
X7891428Y-14491714D02*
X7891428Y-14548857D01*
X8005714Y-14491714D02*
X8005714Y-14548857D01*
X8448571Y-14906000D02*
X8434286Y-14891714D01*
X8405714Y-14848857D01*
X8391428Y-14820286D01*
X8377143Y-14777429D01*
X8362857Y-14706000D01*
X8362857Y-14648857D01*
X8377143Y-14577429D01*
X8391428Y-14534571D01*
X8405714Y-14506000D01*
X8434286Y-14463143D01*
X8448571Y-14448857D01*
X8720000Y-14791714D02*
X8548571Y-14791714D01*
X8634286Y-14791714D02*
X8634286Y-14491714D01*
X8605714Y-14534571D01*
X8577143Y-14563143D01*
X8548571Y-14577429D01*
X9077143Y-14791714D02*
X9077143Y-14491714D01*
X9205714Y-14791714D02*
X9205714Y-14634571D01*
X9191428Y-14606000D01*
X9162857Y-14591714D01*
X9120000Y-14591714D01*
X9091428Y-14606000D01*
X9077143Y-14620286D01*
X9391428Y-14791714D02*
X9362857Y-14777429D01*
X9348571Y-14763143D01*
X9334286Y-14734571D01*
X9334286Y-14648857D01*
X9348571Y-14620286D01*
X9362857Y-14606000D01*
X9391428Y-14591714D01*
X9434286Y-14591714D01*
X9462857Y-14606000D01*
X9477143Y-14620286D01*
X9491428Y-14648857D01*
X9491428Y-14734571D01*
X9477143Y-14763143D01*
X9462857Y-14777429D01*
X9434286Y-14791714D01*
X9391428Y-14791714D01*
X9662857Y-14791714D02*
X9634286Y-14777429D01*
X9620000Y-14748857D01*
X9620000Y-14491714D01*
X9891428Y-14777429D02*
X9862857Y-14791714D01*
X9805714Y-14791714D01*
X9777143Y-14777429D01*
X9762857Y-14748857D01*
X9762857Y-14634571D01*
X9777143Y-14606000D01*
X9805714Y-14591714D01*
X9862857Y-14591714D01*
X9891428Y-14606000D01*
X9905714Y-14634571D01*
X9905714Y-14663143D01*
X9762857Y-14691714D01*
X10005714Y-14906000D02*
X10020000Y-14891714D01*
X10048571Y-14848857D01*
X10062857Y-14820286D01*
X10077143Y-14777429D01*
X10091428Y-14706000D01*
X10091428Y-14648857D01*
X10077143Y-14577429D01*
X10062857Y-14534571D01*
X10048571Y-14506000D01*
X10020000Y-14463143D01*
X10005714Y-14448857D01*
X10548571Y-14906000D02*
X10534286Y-14891714D01*
X10505714Y-14848857D01*
X10491428Y-14820286D01*
X10477143Y-14777429D01*
X10462857Y-14706000D01*
X10462857Y-14648857D01*
X10477143Y-14577429D01*
X10491428Y-14534571D01*
X10505714Y-14506000D01*
X10534286Y-14463143D01*
X10548571Y-14448857D01*
X10662857Y-14591714D02*
X10662857Y-14791714D01*
X10662857Y-14620286D02*
X10677143Y-14606000D01*
X10705714Y-14591714D01*
X10748571Y-14591714D01*
X10777143Y-14606000D01*
X10791428Y-14634571D01*
X10791428Y-14791714D01*
X10977143Y-14791714D02*
X10948571Y-14777429D01*
X10934286Y-14763143D01*
X10920000Y-14734571D01*
X10920000Y-14648857D01*
X10934286Y-14620286D01*
X10948571Y-14606000D01*
X10977143Y-14591714D01*
X11020000Y-14591714D01*
X11048571Y-14606000D01*
X11062857Y-14620286D01*
X11077143Y-14648857D01*
X11077143Y-14734571D01*
X11062857Y-14763143D01*
X11048571Y-14777429D01*
X11020000Y-14791714D01*
X10977143Y-14791714D01*
X11162857Y-14591714D02*
X11277143Y-14591714D01*
X11205714Y-14491714D02*
X11205714Y-14748857D01*
X11220000Y-14777429D01*
X11248571Y-14791714D01*
X11277143Y-14791714D01*
X11605714Y-14591714D02*
X11605714Y-14891714D01*
X11605714Y-14606000D02*
X11634286Y-14591714D01*
X11691428Y-14591714D01*
X11720000Y-14606000D01*
X11734286Y-14620286D01*
X11748571Y-14648857D01*
X11748571Y-14734571D01*
X11734286Y-14763143D01*
X11720000Y-14777429D01*
X11691428Y-14791714D01*
X11634286Y-14791714D01*
X11605714Y-14777429D01*
X11920000Y-14791714D02*
X11891428Y-14777429D01*
X11877143Y-14748857D01*
X11877143Y-14491714D01*
X12162857Y-14791714D02*
X12162857Y-14634571D01*
X12148571Y-14606000D01*
X12120000Y-14591714D01*
X12062857Y-14591714D01*
X12034286Y-14606000D01*
X12162857Y-14777429D02*
X12134286Y-14791714D01*
X12062857Y-14791714D01*
X12034286Y-14777429D01*
X12020000Y-14748857D01*
X12020000Y-14720286D01*
X12034286Y-14691714D01*
X12062857Y-14677429D01*
X12134286Y-14677429D01*
X12162857Y-14663143D01*
X12262857Y-14591714D02*
X12377143Y-14591714D01*
X12305714Y-14491714D02*
X12305714Y-14748857D01*
X12320000Y-14777429D01*
X12348571Y-14791714D01*
X12377143Y-14791714D01*
X12591428Y-14777429D02*
X12562857Y-14791714D01*
X12505714Y-14791714D01*
X12477143Y-14777429D01*
X12462857Y-14748857D01*
X12462857Y-14634571D01*
X12477143Y-14606000D01*
X12505714Y-14591714D01*
X12562857Y-14591714D01*
X12591428Y-14606000D01*
X12605714Y-14634571D01*
X12605714Y-14663143D01*
X12462857Y-14691714D01*
X12862857Y-14791714D02*
X12862857Y-14491714D01*
X12862857Y-14777429D02*
X12834286Y-14791714D01*
X12777143Y-14791714D01*
X12748571Y-14777429D01*
X12734286Y-14763143D01*
X12720000Y-14734571D01*
X12720000Y-14648857D01*
X12734286Y-14620286D01*
X12748571Y-14606000D01*
X12777143Y-14591714D01*
X12834286Y-14591714D01*
X12862857Y-14606000D01*
X12977143Y-14906000D02*
X12991428Y-14891714D01*
X13020000Y-14848857D01*
X13034286Y-14820286D01*
X13048571Y-14777429D01*
X13062857Y-14706000D01*
X13062857Y-14648857D01*
X13048571Y-14577429D01*
X13034286Y-14534571D01*
X13020000Y-14506000D01*
X12991428Y-14463143D01*
X12977143Y-14448857D01*
M02*
