G04 #@! TF.GenerationSoftware,KiCad,Pcbnew,(5.1.12)-1*
G04 #@! TF.CreationDate,2021-12-15T00:33:09-05:00*
G04 #@! TF.ProjectId,alps66,616c7073-3636-42e6-9b69-6361645f7063,F*
G04 #@! TF.SameCoordinates,Original*
G04 #@! TF.FileFunction,Legend,Top*
G04 #@! TF.FilePolarity,Positive*
%FSLAX46Y46*%
G04 Gerber Fmt 4.6, Leading zero omitted, Abs format (unit mm)*
G04 Created by KiCad (PCBNEW (5.1.12)-1) date 2021-12-15 00:33:09*
%MOMM*%
%LPD*%
G01*
G04 APERTURE LIST*
%ADD10C,0.250000*%
%ADD11C,2.300000*%
%ADD12R,1.600000X1.600000*%
%ADD13C,1.600000*%
%ADD14C,1.700000*%
%ADD15C,11.500000*%
%ADD16C,4.000000*%
%ADD17C,6.000000*%
%ADD18O,1.500000X4.000000*%
%ADD19C,0.800000*%
%ADD20R,1.800000X1.800000*%
%ADD21C,1.800000*%
G04 APERTURE END LIST*
D10*
X217253571Y-114978571D02*
X217253571Y-113478571D01*
X218110714Y-114978571D02*
X217467857Y-114121428D01*
X218110714Y-113478571D02*
X217253571Y-114335714D01*
X218610714Y-113478571D02*
X219610714Y-113478571D01*
X218967857Y-114978571D01*
X220396428Y-114121428D02*
X220253571Y-114050000D01*
X220182142Y-113978571D01*
X220110714Y-113835714D01*
X220110714Y-113764285D01*
X220182142Y-113621428D01*
X220253571Y-113550000D01*
X220396428Y-113478571D01*
X220682142Y-113478571D01*
X220825000Y-113550000D01*
X220896428Y-113621428D01*
X220967857Y-113764285D01*
X220967857Y-113835714D01*
X220896428Y-113978571D01*
X220825000Y-114050000D01*
X220682142Y-114121428D01*
X220396428Y-114121428D01*
X220253571Y-114192857D01*
X220182142Y-114264285D01*
X220110714Y-114407142D01*
X220110714Y-114692857D01*
X220182142Y-114835714D01*
X220253571Y-114907142D01*
X220396428Y-114978571D01*
X220682142Y-114978571D01*
X220825000Y-114907142D01*
X220896428Y-114835714D01*
X220967857Y-114692857D01*
X220967857Y-114407142D01*
X220896428Y-114264285D01*
X220825000Y-114192857D01*
X220682142Y-114121428D01*
X207728571Y-38778571D02*
X207728571Y-37278571D01*
X208585714Y-38778571D02*
X207942857Y-37921428D01*
X208585714Y-37278571D02*
X207728571Y-38135714D01*
X209085714Y-37278571D02*
X210085714Y-37278571D01*
X209442857Y-38778571D01*
X210514285Y-37278571D02*
X211514285Y-37278571D01*
X210871428Y-38778571D01*
X188678571Y-38778571D02*
X188678571Y-37278571D01*
X189535714Y-38778571D02*
X188892857Y-37921428D01*
X189535714Y-37278571D02*
X188678571Y-38135714D01*
X190035714Y-37278571D02*
X191035714Y-37278571D01*
X190392857Y-38778571D01*
X192250000Y-37278571D02*
X191964285Y-37278571D01*
X191821428Y-37350000D01*
X191750000Y-37421428D01*
X191607142Y-37635714D01*
X191535714Y-37921428D01*
X191535714Y-38492857D01*
X191607142Y-38635714D01*
X191678571Y-38707142D01*
X191821428Y-38778571D01*
X192107142Y-38778571D01*
X192250000Y-38707142D01*
X192321428Y-38635714D01*
X192392857Y-38492857D01*
X192392857Y-38135714D01*
X192321428Y-37992857D01*
X192250000Y-37921428D01*
X192107142Y-37850000D01*
X191821428Y-37850000D01*
X191678571Y-37921428D01*
X191607142Y-37992857D01*
X191535714Y-38135714D01*
X198203571Y-57828571D02*
X198203571Y-56328571D01*
X199060714Y-57828571D02*
X198417857Y-56971428D01*
X199060714Y-56328571D02*
X198203571Y-57185714D01*
X199560714Y-56328571D02*
X200560714Y-56328571D01*
X199917857Y-57828571D01*
X201846428Y-56328571D02*
X201132142Y-56328571D01*
X201060714Y-57042857D01*
X201132142Y-56971428D01*
X201275000Y-56900000D01*
X201632142Y-56900000D01*
X201775000Y-56971428D01*
X201846428Y-57042857D01*
X201917857Y-57185714D01*
X201917857Y-57542857D01*
X201846428Y-57685714D01*
X201775000Y-57757142D01*
X201632142Y-57828571D01*
X201275000Y-57828571D01*
X201132142Y-57757142D01*
X201060714Y-57685714D01*
X183916071Y-76878571D02*
X183916071Y-75378571D01*
X184773214Y-76878571D02*
X184130357Y-76021428D01*
X184773214Y-75378571D02*
X183916071Y-76235714D01*
X185273214Y-75378571D02*
X186273214Y-75378571D01*
X185630357Y-76878571D01*
X187487500Y-75878571D02*
X187487500Y-76878571D01*
X187130357Y-75307142D02*
X186773214Y-76378571D01*
X187701785Y-76378571D01*
X164866071Y-76878571D02*
X164866071Y-75378571D01*
X165723214Y-76878571D02*
X165080357Y-76021428D01*
X165723214Y-75378571D02*
X164866071Y-76235714D01*
X166223214Y-75378571D02*
X167223214Y-75378571D01*
X166580357Y-76878571D01*
X167651785Y-75378571D02*
X168580357Y-75378571D01*
X168080357Y-75950000D01*
X168294642Y-75950000D01*
X168437500Y-76021428D01*
X168508928Y-76092857D01*
X168580357Y-76235714D01*
X168580357Y-76592857D01*
X168508928Y-76735714D01*
X168437500Y-76807142D01*
X168294642Y-76878571D01*
X167866071Y-76878571D01*
X167723214Y-76807142D01*
X167651785Y-76735714D01*
X174391071Y-95928571D02*
X174391071Y-94428571D01*
X175248214Y-95928571D02*
X174605357Y-95071428D01*
X175248214Y-94428571D02*
X174391071Y-95285714D01*
X175748214Y-94428571D02*
X176748214Y-94428571D01*
X176105357Y-95928571D01*
X177248214Y-94571428D02*
X177319642Y-94500000D01*
X177462500Y-94428571D01*
X177819642Y-94428571D01*
X177962500Y-94500000D01*
X178033928Y-94571428D01*
X178105357Y-94714285D01*
X178105357Y-94857142D01*
X178033928Y-95071428D01*
X177176785Y-95928571D01*
X178105357Y-95928571D01*
X155341071Y-95928571D02*
X155341071Y-94428571D01*
X156198214Y-95928571D02*
X155555357Y-95071428D01*
X156198214Y-94428571D02*
X155341071Y-95285714D01*
X156698214Y-94428571D02*
X157698214Y-94428571D01*
X157055357Y-95928571D01*
X159055357Y-95928571D02*
X158198214Y-95928571D01*
X158626785Y-95928571D02*
X158626785Y-94428571D01*
X158483928Y-94642857D01*
X158341071Y-94785714D01*
X158198214Y-94857142D01*
X241066071Y-114978571D02*
X241066071Y-113478571D01*
X241923214Y-114978571D02*
X241280357Y-114121428D01*
X241923214Y-113478571D02*
X241066071Y-114335714D01*
X242423214Y-113478571D02*
X243423214Y-113478571D01*
X242780357Y-114978571D01*
X244280357Y-113478571D02*
X244423214Y-113478571D01*
X244566071Y-113550000D01*
X244637500Y-113621428D01*
X244708928Y-113764285D01*
X244780357Y-114050000D01*
X244780357Y-114407142D01*
X244708928Y-114692857D01*
X244637500Y-114835714D01*
X244566071Y-114907142D01*
X244423214Y-114978571D01*
X244280357Y-114978571D01*
X244137500Y-114907142D01*
X244066071Y-114835714D01*
X243994642Y-114692857D01*
X243923214Y-114407142D01*
X243923214Y-114050000D01*
X243994642Y-113764285D01*
X244066071Y-113621428D01*
X244137500Y-113550000D01*
X244280357Y-113478571D01*
X169628571Y-38778571D02*
X169628571Y-37278571D01*
X170485714Y-38778571D02*
X169842857Y-37921428D01*
X170485714Y-37278571D02*
X169628571Y-38135714D01*
X171771428Y-37278571D02*
X171485714Y-37278571D01*
X171342857Y-37350000D01*
X171271428Y-37421428D01*
X171128571Y-37635714D01*
X171057142Y-37921428D01*
X171057142Y-38492857D01*
X171128571Y-38635714D01*
X171200000Y-38707142D01*
X171342857Y-38778571D01*
X171628571Y-38778571D01*
X171771428Y-38707142D01*
X171842857Y-38635714D01*
X171914285Y-38492857D01*
X171914285Y-38135714D01*
X171842857Y-37992857D01*
X171771428Y-37921428D01*
X171628571Y-37850000D01*
X171342857Y-37850000D01*
X171200000Y-37921428D01*
X171128571Y-37992857D01*
X171057142Y-38135714D01*
X172414285Y-37278571D02*
X173414285Y-37278571D01*
X172771428Y-38778571D01*
X150578571Y-38778571D02*
X150578571Y-37278571D01*
X151435714Y-38778571D02*
X150792857Y-37921428D01*
X151435714Y-37278571D02*
X150578571Y-38135714D01*
X152721428Y-37278571D02*
X152435714Y-37278571D01*
X152292857Y-37350000D01*
X152221428Y-37421428D01*
X152078571Y-37635714D01*
X152007142Y-37921428D01*
X152007142Y-38492857D01*
X152078571Y-38635714D01*
X152150000Y-38707142D01*
X152292857Y-38778571D01*
X152578571Y-38778571D01*
X152721428Y-38707142D01*
X152792857Y-38635714D01*
X152864285Y-38492857D01*
X152864285Y-38135714D01*
X152792857Y-37992857D01*
X152721428Y-37921428D01*
X152578571Y-37850000D01*
X152292857Y-37850000D01*
X152150000Y-37921428D01*
X152078571Y-37992857D01*
X152007142Y-38135714D01*
X154150000Y-37278571D02*
X153864285Y-37278571D01*
X153721428Y-37350000D01*
X153650000Y-37421428D01*
X153507142Y-37635714D01*
X153435714Y-37921428D01*
X153435714Y-38492857D01*
X153507142Y-38635714D01*
X153578571Y-38707142D01*
X153721428Y-38778571D01*
X154007142Y-38778571D01*
X154150000Y-38707142D01*
X154221428Y-38635714D01*
X154292857Y-38492857D01*
X154292857Y-38135714D01*
X154221428Y-37992857D01*
X154150000Y-37921428D01*
X154007142Y-37850000D01*
X153721428Y-37850000D01*
X153578571Y-37921428D01*
X153507142Y-37992857D01*
X153435714Y-38135714D01*
X179153571Y-57828571D02*
X179153571Y-56328571D01*
X180010714Y-57828571D02*
X179367857Y-56971428D01*
X180010714Y-56328571D02*
X179153571Y-57185714D01*
X181296428Y-56328571D02*
X181010714Y-56328571D01*
X180867857Y-56400000D01*
X180796428Y-56471428D01*
X180653571Y-56685714D01*
X180582142Y-56971428D01*
X180582142Y-57542857D01*
X180653571Y-57685714D01*
X180725000Y-57757142D01*
X180867857Y-57828571D01*
X181153571Y-57828571D01*
X181296428Y-57757142D01*
X181367857Y-57685714D01*
X181439285Y-57542857D01*
X181439285Y-57185714D01*
X181367857Y-57042857D01*
X181296428Y-56971428D01*
X181153571Y-56900000D01*
X180867857Y-56900000D01*
X180725000Y-56971428D01*
X180653571Y-57042857D01*
X180582142Y-57185714D01*
X182796428Y-56328571D02*
X182082142Y-56328571D01*
X182010714Y-57042857D01*
X182082142Y-56971428D01*
X182225000Y-56900000D01*
X182582142Y-56900000D01*
X182725000Y-56971428D01*
X182796428Y-57042857D01*
X182867857Y-57185714D01*
X182867857Y-57542857D01*
X182796428Y-57685714D01*
X182725000Y-57757142D01*
X182582142Y-57828571D01*
X182225000Y-57828571D01*
X182082142Y-57757142D01*
X182010714Y-57685714D01*
X160103571Y-57828571D02*
X160103571Y-56328571D01*
X160960714Y-57828571D02*
X160317857Y-56971428D01*
X160960714Y-56328571D02*
X160103571Y-57185714D01*
X162246428Y-56328571D02*
X161960714Y-56328571D01*
X161817857Y-56400000D01*
X161746428Y-56471428D01*
X161603571Y-56685714D01*
X161532142Y-56971428D01*
X161532142Y-57542857D01*
X161603571Y-57685714D01*
X161675000Y-57757142D01*
X161817857Y-57828571D01*
X162103571Y-57828571D01*
X162246428Y-57757142D01*
X162317857Y-57685714D01*
X162389285Y-57542857D01*
X162389285Y-57185714D01*
X162317857Y-57042857D01*
X162246428Y-56971428D01*
X162103571Y-56900000D01*
X161817857Y-56900000D01*
X161675000Y-56971428D01*
X161603571Y-57042857D01*
X161532142Y-57185714D01*
X163675000Y-56828571D02*
X163675000Y-57828571D01*
X163317857Y-56257142D02*
X162960714Y-57328571D01*
X163889285Y-57328571D01*
X145816071Y-76878571D02*
X145816071Y-75378571D01*
X146673214Y-76878571D02*
X146030357Y-76021428D01*
X146673214Y-75378571D02*
X145816071Y-76235714D01*
X147958928Y-75378571D02*
X147673214Y-75378571D01*
X147530357Y-75450000D01*
X147458928Y-75521428D01*
X147316071Y-75735714D01*
X147244642Y-76021428D01*
X147244642Y-76592857D01*
X147316071Y-76735714D01*
X147387500Y-76807142D01*
X147530357Y-76878571D01*
X147816071Y-76878571D01*
X147958928Y-76807142D01*
X148030357Y-76735714D01*
X148101785Y-76592857D01*
X148101785Y-76235714D01*
X148030357Y-76092857D01*
X147958928Y-76021428D01*
X147816071Y-75950000D01*
X147530357Y-75950000D01*
X147387500Y-76021428D01*
X147316071Y-76092857D01*
X147244642Y-76235714D01*
X148601785Y-75378571D02*
X149530357Y-75378571D01*
X149030357Y-75950000D01*
X149244642Y-75950000D01*
X149387500Y-76021428D01*
X149458928Y-76092857D01*
X149530357Y-76235714D01*
X149530357Y-76592857D01*
X149458928Y-76735714D01*
X149387500Y-76807142D01*
X149244642Y-76878571D01*
X148816071Y-76878571D01*
X148673214Y-76807142D01*
X148601785Y-76735714D01*
X136291071Y-95928571D02*
X136291071Y-94428571D01*
X137148214Y-95928571D02*
X136505357Y-95071428D01*
X137148214Y-94428571D02*
X136291071Y-95285714D01*
X138433928Y-94428571D02*
X138148214Y-94428571D01*
X138005357Y-94500000D01*
X137933928Y-94571428D01*
X137791071Y-94785714D01*
X137719642Y-95071428D01*
X137719642Y-95642857D01*
X137791071Y-95785714D01*
X137862500Y-95857142D01*
X138005357Y-95928571D01*
X138291071Y-95928571D01*
X138433928Y-95857142D01*
X138505357Y-95785714D01*
X138576785Y-95642857D01*
X138576785Y-95285714D01*
X138505357Y-95142857D01*
X138433928Y-95071428D01*
X138291071Y-95000000D01*
X138005357Y-95000000D01*
X137862500Y-95071428D01*
X137791071Y-95142857D01*
X137719642Y-95285714D01*
X139148214Y-94571428D02*
X139219642Y-94500000D01*
X139362500Y-94428571D01*
X139719642Y-94428571D01*
X139862500Y-94500000D01*
X139933928Y-94571428D01*
X140005357Y-94714285D01*
X140005357Y-94857142D01*
X139933928Y-95071428D01*
X139076785Y-95928571D01*
X140005357Y-95928571D01*
X117241071Y-95928571D02*
X117241071Y-94428571D01*
X118098214Y-95928571D02*
X117455357Y-95071428D01*
X118098214Y-94428571D02*
X117241071Y-95285714D01*
X119383928Y-94428571D02*
X119098214Y-94428571D01*
X118955357Y-94500000D01*
X118883928Y-94571428D01*
X118741071Y-94785714D01*
X118669642Y-95071428D01*
X118669642Y-95642857D01*
X118741071Y-95785714D01*
X118812500Y-95857142D01*
X118955357Y-95928571D01*
X119241071Y-95928571D01*
X119383928Y-95857142D01*
X119455357Y-95785714D01*
X119526785Y-95642857D01*
X119526785Y-95285714D01*
X119455357Y-95142857D01*
X119383928Y-95071428D01*
X119241071Y-95000000D01*
X118955357Y-95000000D01*
X118812500Y-95071428D01*
X118741071Y-95142857D01*
X118669642Y-95285714D01*
X120955357Y-95928571D02*
X120098214Y-95928571D01*
X120526785Y-95928571D02*
X120526785Y-94428571D01*
X120383928Y-94642857D01*
X120241071Y-94785714D01*
X120098214Y-94857142D01*
X164866071Y-114978571D02*
X164866071Y-113478571D01*
X165723214Y-114978571D02*
X165080357Y-114121428D01*
X165723214Y-113478571D02*
X164866071Y-114335714D01*
X167008928Y-113478571D02*
X166723214Y-113478571D01*
X166580357Y-113550000D01*
X166508928Y-113621428D01*
X166366071Y-113835714D01*
X166294642Y-114121428D01*
X166294642Y-114692857D01*
X166366071Y-114835714D01*
X166437500Y-114907142D01*
X166580357Y-114978571D01*
X166866071Y-114978571D01*
X167008928Y-114907142D01*
X167080357Y-114835714D01*
X167151785Y-114692857D01*
X167151785Y-114335714D01*
X167080357Y-114192857D01*
X167008928Y-114121428D01*
X166866071Y-114050000D01*
X166580357Y-114050000D01*
X166437500Y-114121428D01*
X166366071Y-114192857D01*
X166294642Y-114335714D01*
X168080357Y-113478571D02*
X168223214Y-113478571D01*
X168366071Y-113550000D01*
X168437500Y-113621428D01*
X168508928Y-113764285D01*
X168580357Y-114050000D01*
X168580357Y-114407142D01*
X168508928Y-114692857D01*
X168437500Y-114835714D01*
X168366071Y-114907142D01*
X168223214Y-114978571D01*
X168080357Y-114978571D01*
X167937500Y-114907142D01*
X167866071Y-114835714D01*
X167794642Y-114692857D01*
X167723214Y-114407142D01*
X167723214Y-114050000D01*
X167794642Y-113764285D01*
X167866071Y-113621428D01*
X167937500Y-113550000D01*
X168080357Y-113478571D01*
X131528571Y-38778571D02*
X131528571Y-37278571D01*
X132385714Y-38778571D02*
X131742857Y-37921428D01*
X132385714Y-37278571D02*
X131528571Y-38135714D01*
X133742857Y-37278571D02*
X133028571Y-37278571D01*
X132957142Y-37992857D01*
X133028571Y-37921428D01*
X133171428Y-37850000D01*
X133528571Y-37850000D01*
X133671428Y-37921428D01*
X133742857Y-37992857D01*
X133814285Y-38135714D01*
X133814285Y-38492857D01*
X133742857Y-38635714D01*
X133671428Y-38707142D01*
X133528571Y-38778571D01*
X133171428Y-38778571D01*
X133028571Y-38707142D01*
X132957142Y-38635714D01*
X134314285Y-37278571D02*
X135314285Y-37278571D01*
X134671428Y-38778571D01*
X112478571Y-38778571D02*
X112478571Y-37278571D01*
X113335714Y-38778571D02*
X112692857Y-37921428D01*
X113335714Y-37278571D02*
X112478571Y-38135714D01*
X114692857Y-37278571D02*
X113978571Y-37278571D01*
X113907142Y-37992857D01*
X113978571Y-37921428D01*
X114121428Y-37850000D01*
X114478571Y-37850000D01*
X114621428Y-37921428D01*
X114692857Y-37992857D01*
X114764285Y-38135714D01*
X114764285Y-38492857D01*
X114692857Y-38635714D01*
X114621428Y-38707142D01*
X114478571Y-38778571D01*
X114121428Y-38778571D01*
X113978571Y-38707142D01*
X113907142Y-38635714D01*
X116050000Y-37278571D02*
X115764285Y-37278571D01*
X115621428Y-37350000D01*
X115550000Y-37421428D01*
X115407142Y-37635714D01*
X115335714Y-37921428D01*
X115335714Y-38492857D01*
X115407142Y-38635714D01*
X115478571Y-38707142D01*
X115621428Y-38778571D01*
X115907142Y-38778571D01*
X116050000Y-38707142D01*
X116121428Y-38635714D01*
X116192857Y-38492857D01*
X116192857Y-38135714D01*
X116121428Y-37992857D01*
X116050000Y-37921428D01*
X115907142Y-37850000D01*
X115621428Y-37850000D01*
X115478571Y-37921428D01*
X115407142Y-37992857D01*
X115335714Y-38135714D01*
X141053571Y-57828571D02*
X141053571Y-56328571D01*
X141910714Y-57828571D02*
X141267857Y-56971428D01*
X141910714Y-56328571D02*
X141053571Y-57185714D01*
X143267857Y-56328571D02*
X142553571Y-56328571D01*
X142482142Y-57042857D01*
X142553571Y-56971428D01*
X142696428Y-56900000D01*
X143053571Y-56900000D01*
X143196428Y-56971428D01*
X143267857Y-57042857D01*
X143339285Y-57185714D01*
X143339285Y-57542857D01*
X143267857Y-57685714D01*
X143196428Y-57757142D01*
X143053571Y-57828571D01*
X142696428Y-57828571D01*
X142553571Y-57757142D01*
X142482142Y-57685714D01*
X144696428Y-56328571D02*
X143982142Y-56328571D01*
X143910714Y-57042857D01*
X143982142Y-56971428D01*
X144125000Y-56900000D01*
X144482142Y-56900000D01*
X144625000Y-56971428D01*
X144696428Y-57042857D01*
X144767857Y-57185714D01*
X144767857Y-57542857D01*
X144696428Y-57685714D01*
X144625000Y-57757142D01*
X144482142Y-57828571D01*
X144125000Y-57828571D01*
X143982142Y-57757142D01*
X143910714Y-57685714D01*
X122003571Y-57828571D02*
X122003571Y-56328571D01*
X122860714Y-57828571D02*
X122217857Y-56971428D01*
X122860714Y-56328571D02*
X122003571Y-57185714D01*
X124217857Y-56328571D02*
X123503571Y-56328571D01*
X123432142Y-57042857D01*
X123503571Y-56971428D01*
X123646428Y-56900000D01*
X124003571Y-56900000D01*
X124146428Y-56971428D01*
X124217857Y-57042857D01*
X124289285Y-57185714D01*
X124289285Y-57542857D01*
X124217857Y-57685714D01*
X124146428Y-57757142D01*
X124003571Y-57828571D01*
X123646428Y-57828571D01*
X123503571Y-57757142D01*
X123432142Y-57685714D01*
X125575000Y-56828571D02*
X125575000Y-57828571D01*
X125217857Y-56257142D02*
X124860714Y-57328571D01*
X125789285Y-57328571D01*
X126766071Y-76878571D02*
X126766071Y-75378571D01*
X127623214Y-76878571D02*
X126980357Y-76021428D01*
X127623214Y-75378571D02*
X126766071Y-76235714D01*
X128980357Y-75378571D02*
X128266071Y-75378571D01*
X128194642Y-76092857D01*
X128266071Y-76021428D01*
X128408928Y-75950000D01*
X128766071Y-75950000D01*
X128908928Y-76021428D01*
X128980357Y-76092857D01*
X129051785Y-76235714D01*
X129051785Y-76592857D01*
X128980357Y-76735714D01*
X128908928Y-76807142D01*
X128766071Y-76878571D01*
X128408928Y-76878571D01*
X128266071Y-76807142D01*
X128194642Y-76735714D01*
X129551785Y-75378571D02*
X130480357Y-75378571D01*
X129980357Y-75950000D01*
X130194642Y-75950000D01*
X130337500Y-76021428D01*
X130408928Y-76092857D01*
X130480357Y-76235714D01*
X130480357Y-76592857D01*
X130408928Y-76735714D01*
X130337500Y-76807142D01*
X130194642Y-76878571D01*
X129766071Y-76878571D01*
X129623214Y-76807142D01*
X129551785Y-76735714D01*
X107716071Y-76878571D02*
X107716071Y-75378571D01*
X108573214Y-76878571D02*
X107930357Y-76021428D01*
X108573214Y-75378571D02*
X107716071Y-76235714D01*
X109930357Y-75378571D02*
X109216071Y-75378571D01*
X109144642Y-76092857D01*
X109216071Y-76021428D01*
X109358928Y-75950000D01*
X109716071Y-75950000D01*
X109858928Y-76021428D01*
X109930357Y-76092857D01*
X110001785Y-76235714D01*
X110001785Y-76592857D01*
X109930357Y-76735714D01*
X109858928Y-76807142D01*
X109716071Y-76878571D01*
X109358928Y-76878571D01*
X109216071Y-76807142D01*
X109144642Y-76735714D01*
X110573214Y-75521428D02*
X110644642Y-75450000D01*
X110787500Y-75378571D01*
X111144642Y-75378571D01*
X111287500Y-75450000D01*
X111358928Y-75521428D01*
X111430357Y-75664285D01*
X111430357Y-75807142D01*
X111358928Y-76021428D01*
X110501785Y-76878571D01*
X111430357Y-76878571D01*
X98191071Y-95928571D02*
X98191071Y-94428571D01*
X99048214Y-95928571D02*
X98405357Y-95071428D01*
X99048214Y-94428571D02*
X98191071Y-95285714D01*
X100405357Y-94428571D02*
X99691071Y-94428571D01*
X99619642Y-95142857D01*
X99691071Y-95071428D01*
X99833928Y-95000000D01*
X100191071Y-95000000D01*
X100333928Y-95071428D01*
X100405357Y-95142857D01*
X100476785Y-95285714D01*
X100476785Y-95642857D01*
X100405357Y-95785714D01*
X100333928Y-95857142D01*
X100191071Y-95928571D01*
X99833928Y-95928571D01*
X99691071Y-95857142D01*
X99619642Y-95785714D01*
X101905357Y-95928571D02*
X101048214Y-95928571D01*
X101476785Y-95928571D02*
X101476785Y-94428571D01*
X101333928Y-94642857D01*
X101191071Y-94785714D01*
X101048214Y-94857142D01*
X81522321Y-114978571D02*
X81522321Y-113478571D01*
X82379464Y-114978571D02*
X81736607Y-114121428D01*
X82379464Y-113478571D02*
X81522321Y-114335714D01*
X83736607Y-113478571D02*
X83022321Y-113478571D01*
X82950892Y-114192857D01*
X83022321Y-114121428D01*
X83165178Y-114050000D01*
X83522321Y-114050000D01*
X83665178Y-114121428D01*
X83736607Y-114192857D01*
X83808035Y-114335714D01*
X83808035Y-114692857D01*
X83736607Y-114835714D01*
X83665178Y-114907142D01*
X83522321Y-114978571D01*
X83165178Y-114978571D01*
X83022321Y-114907142D01*
X82950892Y-114835714D01*
X84736607Y-113478571D02*
X84879464Y-113478571D01*
X85022321Y-113550000D01*
X85093750Y-113621428D01*
X85165178Y-113764285D01*
X85236607Y-114050000D01*
X85236607Y-114407142D01*
X85165178Y-114692857D01*
X85093750Y-114835714D01*
X85022321Y-114907142D01*
X84879464Y-114978571D01*
X84736607Y-114978571D01*
X84593750Y-114907142D01*
X84522321Y-114835714D01*
X84450892Y-114692857D01*
X84379464Y-114407142D01*
X84379464Y-114050000D01*
X84450892Y-113764285D01*
X84522321Y-113621428D01*
X84593750Y-113550000D01*
X84736607Y-113478571D01*
X93428571Y-38778571D02*
X93428571Y-37278571D01*
X94285714Y-38778571D02*
X93642857Y-37921428D01*
X94285714Y-37278571D02*
X93428571Y-38135714D01*
X95571428Y-37778571D02*
X95571428Y-38778571D01*
X95214285Y-37207142D02*
X94857142Y-38278571D01*
X95785714Y-38278571D01*
X96214285Y-37278571D02*
X97214285Y-37278571D01*
X96571428Y-38778571D01*
X74378571Y-38778571D02*
X74378571Y-37278571D01*
X75235714Y-38778571D02*
X74592857Y-37921428D01*
X75235714Y-37278571D02*
X74378571Y-38135714D01*
X76521428Y-37778571D02*
X76521428Y-38778571D01*
X76164285Y-37207142D02*
X75807142Y-38278571D01*
X76735714Y-38278571D01*
X77950000Y-37278571D02*
X77664285Y-37278571D01*
X77521428Y-37350000D01*
X77450000Y-37421428D01*
X77307142Y-37635714D01*
X77235714Y-37921428D01*
X77235714Y-38492857D01*
X77307142Y-38635714D01*
X77378571Y-38707142D01*
X77521428Y-38778571D01*
X77807142Y-38778571D01*
X77950000Y-38707142D01*
X78021428Y-38635714D01*
X78092857Y-38492857D01*
X78092857Y-38135714D01*
X78021428Y-37992857D01*
X77950000Y-37921428D01*
X77807142Y-37850000D01*
X77521428Y-37850000D01*
X77378571Y-37921428D01*
X77307142Y-37992857D01*
X77235714Y-38135714D01*
X102953571Y-57828571D02*
X102953571Y-56328571D01*
X103810714Y-57828571D02*
X103167857Y-56971428D01*
X103810714Y-56328571D02*
X102953571Y-57185714D01*
X105096428Y-56828571D02*
X105096428Y-57828571D01*
X104739285Y-56257142D02*
X104382142Y-57328571D01*
X105310714Y-57328571D01*
X106596428Y-56328571D02*
X105882142Y-56328571D01*
X105810714Y-57042857D01*
X105882142Y-56971428D01*
X106025000Y-56900000D01*
X106382142Y-56900000D01*
X106525000Y-56971428D01*
X106596428Y-57042857D01*
X106667857Y-57185714D01*
X106667857Y-57542857D01*
X106596428Y-57685714D01*
X106525000Y-57757142D01*
X106382142Y-57828571D01*
X106025000Y-57828571D01*
X105882142Y-57757142D01*
X105810714Y-57685714D01*
X83903571Y-57828571D02*
X83903571Y-56328571D01*
X84760714Y-57828571D02*
X84117857Y-56971428D01*
X84760714Y-56328571D02*
X83903571Y-57185714D01*
X86046428Y-56828571D02*
X86046428Y-57828571D01*
X85689285Y-56257142D02*
X85332142Y-57328571D01*
X86260714Y-57328571D01*
X87475000Y-56828571D02*
X87475000Y-57828571D01*
X87117857Y-56257142D02*
X86760714Y-57328571D01*
X87689285Y-57328571D01*
X88666071Y-76878571D02*
X88666071Y-75378571D01*
X89523214Y-76878571D02*
X88880357Y-76021428D01*
X89523214Y-75378571D02*
X88666071Y-76235714D01*
X90808928Y-75878571D02*
X90808928Y-76878571D01*
X90451785Y-75307142D02*
X90094642Y-76378571D01*
X91023214Y-76378571D01*
X91451785Y-75378571D02*
X92380357Y-75378571D01*
X91880357Y-75950000D01*
X92094642Y-75950000D01*
X92237500Y-76021428D01*
X92308928Y-76092857D01*
X92380357Y-76235714D01*
X92380357Y-76592857D01*
X92308928Y-76735714D01*
X92237500Y-76807142D01*
X92094642Y-76878571D01*
X91666071Y-76878571D01*
X91523214Y-76807142D01*
X91451785Y-76735714D01*
X79141071Y-95928571D02*
X79141071Y-94428571D01*
X79998214Y-95928571D02*
X79355357Y-95071428D01*
X79998214Y-94428571D02*
X79141071Y-95285714D01*
X81283928Y-94928571D02*
X81283928Y-95928571D01*
X80926785Y-94357142D02*
X80569642Y-95428571D01*
X81498214Y-95428571D01*
X81998214Y-94571428D02*
X82069642Y-94500000D01*
X82212500Y-94428571D01*
X82569642Y-94428571D01*
X82712500Y-94500000D01*
X82783928Y-94571428D01*
X82855357Y-94714285D01*
X82855357Y-94857142D01*
X82783928Y-95071428D01*
X81926785Y-95928571D01*
X82855357Y-95928571D01*
X60091071Y-114978571D02*
X60091071Y-113478571D01*
X60948214Y-114978571D02*
X60305357Y-114121428D01*
X60948214Y-113478571D02*
X60091071Y-114335714D01*
X62233928Y-113978571D02*
X62233928Y-114978571D01*
X61876785Y-113407142D02*
X61519642Y-114478571D01*
X62448214Y-114478571D01*
X63305357Y-113478571D02*
X63448214Y-113478571D01*
X63591071Y-113550000D01*
X63662500Y-113621428D01*
X63733928Y-113764285D01*
X63805357Y-114050000D01*
X63805357Y-114407142D01*
X63733928Y-114692857D01*
X63662500Y-114835714D01*
X63591071Y-114907142D01*
X63448214Y-114978571D01*
X63305357Y-114978571D01*
X63162500Y-114907142D01*
X63091071Y-114835714D01*
X63019642Y-114692857D01*
X62948214Y-114407142D01*
X62948214Y-114050000D01*
X63019642Y-113764285D01*
X63091071Y-113621428D01*
X63162500Y-113550000D01*
X63305357Y-113478571D01*
X55328571Y-38778571D02*
X55328571Y-37278571D01*
X56185714Y-38778571D02*
X55542857Y-37921428D01*
X56185714Y-37278571D02*
X55328571Y-38135714D01*
X56685714Y-37278571D02*
X57614285Y-37278571D01*
X57114285Y-37850000D01*
X57328571Y-37850000D01*
X57471428Y-37921428D01*
X57542857Y-37992857D01*
X57614285Y-38135714D01*
X57614285Y-38492857D01*
X57542857Y-38635714D01*
X57471428Y-38707142D01*
X57328571Y-38778571D01*
X56900000Y-38778571D01*
X56757142Y-38707142D01*
X56685714Y-38635714D01*
X58114285Y-37278571D02*
X59114285Y-37278571D01*
X58471428Y-38778571D01*
X36278571Y-38778571D02*
X36278571Y-37278571D01*
X37135714Y-38778571D02*
X36492857Y-37921428D01*
X37135714Y-37278571D02*
X36278571Y-38135714D01*
X37635714Y-37278571D02*
X38564285Y-37278571D01*
X38064285Y-37850000D01*
X38278571Y-37850000D01*
X38421428Y-37921428D01*
X38492857Y-37992857D01*
X38564285Y-38135714D01*
X38564285Y-38492857D01*
X38492857Y-38635714D01*
X38421428Y-38707142D01*
X38278571Y-38778571D01*
X37850000Y-38778571D01*
X37707142Y-38707142D01*
X37635714Y-38635714D01*
X39850000Y-37278571D02*
X39564285Y-37278571D01*
X39421428Y-37350000D01*
X39350000Y-37421428D01*
X39207142Y-37635714D01*
X39135714Y-37921428D01*
X39135714Y-38492857D01*
X39207142Y-38635714D01*
X39278571Y-38707142D01*
X39421428Y-38778571D01*
X39707142Y-38778571D01*
X39850000Y-38707142D01*
X39921428Y-38635714D01*
X39992857Y-38492857D01*
X39992857Y-38135714D01*
X39921428Y-37992857D01*
X39850000Y-37921428D01*
X39707142Y-37850000D01*
X39421428Y-37850000D01*
X39278571Y-37921428D01*
X39207142Y-37992857D01*
X39135714Y-38135714D01*
X64853571Y-57828571D02*
X64853571Y-56328571D01*
X65710714Y-57828571D02*
X65067857Y-56971428D01*
X65710714Y-56328571D02*
X64853571Y-57185714D01*
X66210714Y-56328571D02*
X67139285Y-56328571D01*
X66639285Y-56900000D01*
X66853571Y-56900000D01*
X66996428Y-56971428D01*
X67067857Y-57042857D01*
X67139285Y-57185714D01*
X67139285Y-57542857D01*
X67067857Y-57685714D01*
X66996428Y-57757142D01*
X66853571Y-57828571D01*
X66425000Y-57828571D01*
X66282142Y-57757142D01*
X66210714Y-57685714D01*
X68496428Y-56328571D02*
X67782142Y-56328571D01*
X67710714Y-57042857D01*
X67782142Y-56971428D01*
X67925000Y-56900000D01*
X68282142Y-56900000D01*
X68425000Y-56971428D01*
X68496428Y-57042857D01*
X68567857Y-57185714D01*
X68567857Y-57542857D01*
X68496428Y-57685714D01*
X68425000Y-57757142D01*
X68282142Y-57828571D01*
X67925000Y-57828571D01*
X67782142Y-57757142D01*
X67710714Y-57685714D01*
X41041071Y-57828571D02*
X41041071Y-56328571D01*
X41898214Y-57828571D02*
X41255357Y-56971428D01*
X41898214Y-56328571D02*
X41041071Y-57185714D01*
X42398214Y-56328571D02*
X43326785Y-56328571D01*
X42826785Y-56900000D01*
X43041071Y-56900000D01*
X43183928Y-56971428D01*
X43255357Y-57042857D01*
X43326785Y-57185714D01*
X43326785Y-57542857D01*
X43255357Y-57685714D01*
X43183928Y-57757142D01*
X43041071Y-57828571D01*
X42612500Y-57828571D01*
X42469642Y-57757142D01*
X42398214Y-57685714D01*
X44612500Y-56828571D02*
X44612500Y-57828571D01*
X44255357Y-56257142D02*
X43898214Y-57328571D01*
X44826785Y-57328571D01*
X69616071Y-76878571D02*
X69616071Y-75378571D01*
X70473214Y-76878571D02*
X69830357Y-76021428D01*
X70473214Y-75378571D02*
X69616071Y-76235714D01*
X70973214Y-75378571D02*
X71901785Y-75378571D01*
X71401785Y-75950000D01*
X71616071Y-75950000D01*
X71758928Y-76021428D01*
X71830357Y-76092857D01*
X71901785Y-76235714D01*
X71901785Y-76592857D01*
X71830357Y-76735714D01*
X71758928Y-76807142D01*
X71616071Y-76878571D01*
X71187500Y-76878571D01*
X71044642Y-76807142D01*
X70973214Y-76735714D01*
X72401785Y-75378571D02*
X73330357Y-75378571D01*
X72830357Y-75950000D01*
X73044642Y-75950000D01*
X73187500Y-76021428D01*
X73258928Y-76092857D01*
X73330357Y-76235714D01*
X73330357Y-76592857D01*
X73258928Y-76735714D01*
X73187500Y-76807142D01*
X73044642Y-76878571D01*
X72616071Y-76878571D01*
X72473214Y-76807142D01*
X72401785Y-76735714D01*
X38659821Y-76878571D02*
X38659821Y-75378571D01*
X39516964Y-76878571D02*
X38874107Y-76021428D01*
X39516964Y-75378571D02*
X38659821Y-76235714D01*
X40016964Y-75378571D02*
X40945535Y-75378571D01*
X40445535Y-75950000D01*
X40659821Y-75950000D01*
X40802678Y-76021428D01*
X40874107Y-76092857D01*
X40945535Y-76235714D01*
X40945535Y-76592857D01*
X40874107Y-76735714D01*
X40802678Y-76807142D01*
X40659821Y-76878571D01*
X40231250Y-76878571D01*
X40088392Y-76807142D01*
X40016964Y-76735714D01*
X41516964Y-75521428D02*
X41588392Y-75450000D01*
X41731250Y-75378571D01*
X42088392Y-75378571D01*
X42231250Y-75450000D01*
X42302678Y-75521428D01*
X42374107Y-75664285D01*
X42374107Y-75807142D01*
X42302678Y-76021428D01*
X41445535Y-76878571D01*
X42374107Y-76878571D01*
X48184821Y-95928571D02*
X48184821Y-94428571D01*
X49041964Y-95928571D02*
X48399107Y-95071428D01*
X49041964Y-94428571D02*
X48184821Y-95285714D01*
X49541964Y-94428571D02*
X50470535Y-94428571D01*
X49970535Y-95000000D01*
X50184821Y-95000000D01*
X50327678Y-95071428D01*
X50399107Y-95142857D01*
X50470535Y-95285714D01*
X50470535Y-95642857D01*
X50399107Y-95785714D01*
X50327678Y-95857142D01*
X50184821Y-95928571D01*
X49756250Y-95928571D01*
X49613392Y-95857142D01*
X49541964Y-95785714D01*
X51899107Y-95928571D02*
X51041964Y-95928571D01*
X51470535Y-95928571D02*
X51470535Y-94428571D01*
X51327678Y-94642857D01*
X51184821Y-94785714D01*
X51041964Y-94857142D01*
X38659821Y-114978571D02*
X38659821Y-113478571D01*
X39516964Y-114978571D02*
X38874107Y-114121428D01*
X39516964Y-113478571D02*
X38659821Y-114335714D01*
X40016964Y-113478571D02*
X40945535Y-113478571D01*
X40445535Y-114050000D01*
X40659821Y-114050000D01*
X40802678Y-114121428D01*
X40874107Y-114192857D01*
X40945535Y-114335714D01*
X40945535Y-114692857D01*
X40874107Y-114835714D01*
X40802678Y-114907142D01*
X40659821Y-114978571D01*
X40231250Y-114978571D01*
X40088392Y-114907142D01*
X40016964Y-114835714D01*
X41874107Y-113478571D02*
X42016964Y-113478571D01*
X42159821Y-113550000D01*
X42231250Y-113621428D01*
X42302678Y-113764285D01*
X42374107Y-114050000D01*
X42374107Y-114407142D01*
X42302678Y-114692857D01*
X42231250Y-114835714D01*
X42159821Y-114907142D01*
X42016964Y-114978571D01*
X41874107Y-114978571D01*
X41731250Y-114907142D01*
X41659821Y-114835714D01*
X41588392Y-114692857D01*
X41516964Y-114407142D01*
X41516964Y-114050000D01*
X41588392Y-113764285D01*
X41659821Y-113621428D01*
X41731250Y-113550000D01*
X41874107Y-113478571D01*
X331553571Y-114978571D02*
X331553571Y-113478571D01*
X332410714Y-114978571D02*
X331767857Y-114121428D01*
X332410714Y-113478571D02*
X331553571Y-114335714D01*
X332982142Y-113621428D02*
X333053571Y-113550000D01*
X333196428Y-113478571D01*
X333553571Y-113478571D01*
X333696428Y-113550000D01*
X333767857Y-113621428D01*
X333839285Y-113764285D01*
X333839285Y-113907142D01*
X333767857Y-114121428D01*
X332910714Y-114978571D01*
X333839285Y-114978571D01*
X334696428Y-114121428D02*
X334553571Y-114050000D01*
X334482142Y-113978571D01*
X334410714Y-113835714D01*
X334410714Y-113764285D01*
X334482142Y-113621428D01*
X334553571Y-113550000D01*
X334696428Y-113478571D01*
X334982142Y-113478571D01*
X335125000Y-113550000D01*
X335196428Y-113621428D01*
X335267857Y-113764285D01*
X335267857Y-113835714D01*
X335196428Y-113978571D01*
X335125000Y-114050000D01*
X334982142Y-114121428D01*
X334696428Y-114121428D01*
X334553571Y-114192857D01*
X334482142Y-114264285D01*
X334410714Y-114407142D01*
X334410714Y-114692857D01*
X334482142Y-114835714D01*
X334553571Y-114907142D01*
X334696428Y-114978571D01*
X334982142Y-114978571D01*
X335125000Y-114907142D01*
X335196428Y-114835714D01*
X335267857Y-114692857D01*
X335267857Y-114407142D01*
X335196428Y-114264285D01*
X335125000Y-114192857D01*
X334982142Y-114121428D01*
X302978571Y-38778571D02*
X302978571Y-37278571D01*
X303835714Y-38778571D02*
X303192857Y-37921428D01*
X303835714Y-37278571D02*
X302978571Y-38135714D01*
X304407142Y-37421428D02*
X304478571Y-37350000D01*
X304621428Y-37278571D01*
X304978571Y-37278571D01*
X305121428Y-37350000D01*
X305192857Y-37421428D01*
X305264285Y-37564285D01*
X305264285Y-37707142D01*
X305192857Y-37921428D01*
X304335714Y-38778571D01*
X305264285Y-38778571D01*
X305764285Y-37278571D02*
X306764285Y-37278571D01*
X306121428Y-38778571D01*
X283928571Y-38778571D02*
X283928571Y-37278571D01*
X284785714Y-38778571D02*
X284142857Y-37921428D01*
X284785714Y-37278571D02*
X283928571Y-38135714D01*
X285357142Y-37421428D02*
X285428571Y-37350000D01*
X285571428Y-37278571D01*
X285928571Y-37278571D01*
X286071428Y-37350000D01*
X286142857Y-37421428D01*
X286214285Y-37564285D01*
X286214285Y-37707142D01*
X286142857Y-37921428D01*
X285285714Y-38778571D01*
X286214285Y-38778571D01*
X287500000Y-37278571D02*
X287214285Y-37278571D01*
X287071428Y-37350000D01*
X287000000Y-37421428D01*
X286857142Y-37635714D01*
X286785714Y-37921428D01*
X286785714Y-38492857D01*
X286857142Y-38635714D01*
X286928571Y-38707142D01*
X287071428Y-38778571D01*
X287357142Y-38778571D01*
X287500000Y-38707142D01*
X287571428Y-38635714D01*
X287642857Y-38492857D01*
X287642857Y-38135714D01*
X287571428Y-37992857D01*
X287500000Y-37921428D01*
X287357142Y-37850000D01*
X287071428Y-37850000D01*
X286928571Y-37921428D01*
X286857142Y-37992857D01*
X286785714Y-38135714D01*
X274403571Y-57828571D02*
X274403571Y-56328571D01*
X275260714Y-57828571D02*
X274617857Y-56971428D01*
X275260714Y-56328571D02*
X274403571Y-57185714D01*
X275832142Y-56471428D02*
X275903571Y-56400000D01*
X276046428Y-56328571D01*
X276403571Y-56328571D01*
X276546428Y-56400000D01*
X276617857Y-56471428D01*
X276689285Y-56614285D01*
X276689285Y-56757142D01*
X276617857Y-56971428D01*
X275760714Y-57828571D01*
X276689285Y-57828571D01*
X278046428Y-56328571D02*
X277332142Y-56328571D01*
X277260714Y-57042857D01*
X277332142Y-56971428D01*
X277475000Y-56900000D01*
X277832142Y-56900000D01*
X277975000Y-56971428D01*
X278046428Y-57042857D01*
X278117857Y-57185714D01*
X278117857Y-57542857D01*
X278046428Y-57685714D01*
X277975000Y-57757142D01*
X277832142Y-57828571D01*
X277475000Y-57828571D01*
X277332142Y-57757142D01*
X277260714Y-57685714D01*
X298216071Y-57828571D02*
X298216071Y-56328571D01*
X299073214Y-57828571D02*
X298430357Y-56971428D01*
X299073214Y-56328571D02*
X298216071Y-57185714D01*
X299644642Y-56471428D02*
X299716071Y-56400000D01*
X299858928Y-56328571D01*
X300216071Y-56328571D01*
X300358928Y-56400000D01*
X300430357Y-56471428D01*
X300501785Y-56614285D01*
X300501785Y-56757142D01*
X300430357Y-56971428D01*
X299573214Y-57828571D01*
X300501785Y-57828571D01*
X301787500Y-56828571D02*
X301787500Y-57828571D01*
X301430357Y-56257142D02*
X301073214Y-57328571D01*
X302001785Y-57328571D01*
X291072321Y-76878571D02*
X291072321Y-75378571D01*
X291929464Y-76878571D02*
X291286607Y-76021428D01*
X291929464Y-75378571D02*
X291072321Y-76235714D01*
X292500892Y-75521428D02*
X292572321Y-75450000D01*
X292715178Y-75378571D01*
X293072321Y-75378571D01*
X293215178Y-75450000D01*
X293286607Y-75521428D01*
X293358035Y-75664285D01*
X293358035Y-75807142D01*
X293286607Y-76021428D01*
X292429464Y-76878571D01*
X293358035Y-76878571D01*
X293858035Y-75378571D02*
X294786607Y-75378571D01*
X294286607Y-75950000D01*
X294500892Y-75950000D01*
X294643750Y-76021428D01*
X294715178Y-76092857D01*
X294786607Y-76235714D01*
X294786607Y-76592857D01*
X294715178Y-76735714D01*
X294643750Y-76807142D01*
X294500892Y-76878571D01*
X294072321Y-76878571D01*
X293929464Y-76807142D01*
X293858035Y-76735714D01*
X312503571Y-95928571D02*
X312503571Y-94428571D01*
X313360714Y-95928571D02*
X312717857Y-95071428D01*
X313360714Y-94428571D02*
X312503571Y-95285714D01*
X313932142Y-94571428D02*
X314003571Y-94500000D01*
X314146428Y-94428571D01*
X314503571Y-94428571D01*
X314646428Y-94500000D01*
X314717857Y-94571428D01*
X314789285Y-94714285D01*
X314789285Y-94857142D01*
X314717857Y-95071428D01*
X313860714Y-95928571D01*
X314789285Y-95928571D01*
X315360714Y-94571428D02*
X315432142Y-94500000D01*
X315575000Y-94428571D01*
X315932142Y-94428571D01*
X316075000Y-94500000D01*
X316146428Y-94571428D01*
X316217857Y-94714285D01*
X316217857Y-94857142D01*
X316146428Y-95071428D01*
X315289285Y-95928571D01*
X316217857Y-95928571D01*
X281547321Y-95928571D02*
X281547321Y-94428571D01*
X282404464Y-95928571D02*
X281761607Y-95071428D01*
X282404464Y-94428571D02*
X281547321Y-95285714D01*
X282975892Y-94571428D02*
X283047321Y-94500000D01*
X283190178Y-94428571D01*
X283547321Y-94428571D01*
X283690178Y-94500000D01*
X283761607Y-94571428D01*
X283833035Y-94714285D01*
X283833035Y-94857142D01*
X283761607Y-95071428D01*
X282904464Y-95928571D01*
X283833035Y-95928571D01*
X285261607Y-95928571D02*
X284404464Y-95928571D01*
X284833035Y-95928571D02*
X284833035Y-94428571D01*
X284690178Y-94642857D01*
X284547321Y-94785714D01*
X284404464Y-94857142D01*
X312503571Y-114978571D02*
X312503571Y-113478571D01*
X313360714Y-114978571D02*
X312717857Y-114121428D01*
X313360714Y-113478571D02*
X312503571Y-114335714D01*
X313932142Y-113621428D02*
X314003571Y-113550000D01*
X314146428Y-113478571D01*
X314503571Y-113478571D01*
X314646428Y-113550000D01*
X314717857Y-113621428D01*
X314789285Y-113764285D01*
X314789285Y-113907142D01*
X314717857Y-114121428D01*
X313860714Y-114978571D01*
X314789285Y-114978571D01*
X315717857Y-113478571D02*
X315860714Y-113478571D01*
X316003571Y-113550000D01*
X316075000Y-113621428D01*
X316146428Y-113764285D01*
X316217857Y-114050000D01*
X316217857Y-114407142D01*
X316146428Y-114692857D01*
X316075000Y-114835714D01*
X316003571Y-114907142D01*
X315860714Y-114978571D01*
X315717857Y-114978571D01*
X315575000Y-114907142D01*
X315503571Y-114835714D01*
X315432142Y-114692857D01*
X315360714Y-114407142D01*
X315360714Y-114050000D01*
X315432142Y-113764285D01*
X315503571Y-113621428D01*
X315575000Y-113550000D01*
X315717857Y-113478571D01*
X331553571Y-57828571D02*
X331553571Y-56328571D01*
X332410714Y-57828571D02*
X331767857Y-56971428D01*
X332410714Y-56328571D02*
X331553571Y-57185714D01*
X333839285Y-57828571D02*
X332982142Y-57828571D01*
X333410714Y-57828571D02*
X333410714Y-56328571D01*
X333267857Y-56542857D01*
X333125000Y-56685714D01*
X332982142Y-56757142D01*
X334696428Y-56971428D02*
X334553571Y-56900000D01*
X334482142Y-56828571D01*
X334410714Y-56685714D01*
X334410714Y-56614285D01*
X334482142Y-56471428D01*
X334553571Y-56400000D01*
X334696428Y-56328571D01*
X334982142Y-56328571D01*
X335125000Y-56400000D01*
X335196428Y-56471428D01*
X335267857Y-56614285D01*
X335267857Y-56685714D01*
X335196428Y-56828571D01*
X335125000Y-56900000D01*
X334982142Y-56971428D01*
X334696428Y-56971428D01*
X334553571Y-57042857D01*
X334482142Y-57114285D01*
X334410714Y-57257142D01*
X334410714Y-57542857D01*
X334482142Y-57685714D01*
X334553571Y-57757142D01*
X334696428Y-57828571D01*
X334982142Y-57828571D01*
X335125000Y-57757142D01*
X335196428Y-57685714D01*
X335267857Y-57542857D01*
X335267857Y-57257142D01*
X335196428Y-57114285D01*
X335125000Y-57042857D01*
X334982142Y-56971428D01*
X264878571Y-38778571D02*
X264878571Y-37278571D01*
X265735714Y-38778571D02*
X265092857Y-37921428D01*
X265735714Y-37278571D02*
X264878571Y-38135714D01*
X267164285Y-38778571D02*
X266307142Y-38778571D01*
X266735714Y-38778571D02*
X266735714Y-37278571D01*
X266592857Y-37492857D01*
X266450000Y-37635714D01*
X266307142Y-37707142D01*
X267664285Y-37278571D02*
X268664285Y-37278571D01*
X268021428Y-38778571D01*
X255353571Y-57828571D02*
X255353571Y-56328571D01*
X256210714Y-57828571D02*
X255567857Y-56971428D01*
X256210714Y-56328571D02*
X255353571Y-57185714D01*
X257639285Y-57828571D02*
X256782142Y-57828571D01*
X257210714Y-57828571D02*
X257210714Y-56328571D01*
X257067857Y-56542857D01*
X256925000Y-56685714D01*
X256782142Y-56757142D01*
X258925000Y-56328571D02*
X258639285Y-56328571D01*
X258496428Y-56400000D01*
X258425000Y-56471428D01*
X258282142Y-56685714D01*
X258210714Y-56971428D01*
X258210714Y-57542857D01*
X258282142Y-57685714D01*
X258353571Y-57757142D01*
X258496428Y-57828571D01*
X258782142Y-57828571D01*
X258925000Y-57757142D01*
X258996428Y-57685714D01*
X259067857Y-57542857D01*
X259067857Y-57185714D01*
X258996428Y-57042857D01*
X258925000Y-56971428D01*
X258782142Y-56900000D01*
X258496428Y-56900000D01*
X258353571Y-56971428D01*
X258282142Y-57042857D01*
X258210714Y-57185714D01*
X236303571Y-57828571D02*
X236303571Y-56328571D01*
X237160714Y-57828571D02*
X236517857Y-56971428D01*
X237160714Y-56328571D02*
X236303571Y-57185714D01*
X238589285Y-57828571D02*
X237732142Y-57828571D01*
X238160714Y-57828571D02*
X238160714Y-56328571D01*
X238017857Y-56542857D01*
X237875000Y-56685714D01*
X237732142Y-56757142D01*
X239946428Y-56328571D02*
X239232142Y-56328571D01*
X239160714Y-57042857D01*
X239232142Y-56971428D01*
X239375000Y-56900000D01*
X239732142Y-56900000D01*
X239875000Y-56971428D01*
X239946428Y-57042857D01*
X240017857Y-57185714D01*
X240017857Y-57542857D01*
X239946428Y-57685714D01*
X239875000Y-57757142D01*
X239732142Y-57828571D01*
X239375000Y-57828571D01*
X239232142Y-57757142D01*
X239160714Y-57685714D01*
X260116071Y-76878571D02*
X260116071Y-75378571D01*
X260973214Y-76878571D02*
X260330357Y-76021428D01*
X260973214Y-75378571D02*
X260116071Y-76235714D01*
X262401785Y-76878571D02*
X261544642Y-76878571D01*
X261973214Y-76878571D02*
X261973214Y-75378571D01*
X261830357Y-75592857D01*
X261687500Y-75735714D01*
X261544642Y-75807142D01*
X263687500Y-75878571D02*
X263687500Y-76878571D01*
X263330357Y-75307142D02*
X262973214Y-76378571D01*
X263901785Y-76378571D01*
X241066071Y-76878571D02*
X241066071Y-75378571D01*
X241923214Y-76878571D02*
X241280357Y-76021428D01*
X241923214Y-75378571D02*
X241066071Y-76235714D01*
X243351785Y-76878571D02*
X242494642Y-76878571D01*
X242923214Y-76878571D02*
X242923214Y-75378571D01*
X242780357Y-75592857D01*
X242637500Y-75735714D01*
X242494642Y-75807142D01*
X243851785Y-75378571D02*
X244780357Y-75378571D01*
X244280357Y-75950000D01*
X244494642Y-75950000D01*
X244637500Y-76021428D01*
X244708928Y-76092857D01*
X244780357Y-76235714D01*
X244780357Y-76592857D01*
X244708928Y-76735714D01*
X244637500Y-76807142D01*
X244494642Y-76878571D01*
X244066071Y-76878571D01*
X243923214Y-76807142D01*
X243851785Y-76735714D01*
X250591071Y-95928571D02*
X250591071Y-94428571D01*
X251448214Y-95928571D02*
X250805357Y-95071428D01*
X251448214Y-94428571D02*
X250591071Y-95285714D01*
X252876785Y-95928571D02*
X252019642Y-95928571D01*
X252448214Y-95928571D02*
X252448214Y-94428571D01*
X252305357Y-94642857D01*
X252162500Y-94785714D01*
X252019642Y-94857142D01*
X253448214Y-94571428D02*
X253519642Y-94500000D01*
X253662500Y-94428571D01*
X254019642Y-94428571D01*
X254162500Y-94500000D01*
X254233928Y-94571428D01*
X254305357Y-94714285D01*
X254305357Y-94857142D01*
X254233928Y-95071428D01*
X253376785Y-95928571D01*
X254305357Y-95928571D01*
X231541071Y-95928571D02*
X231541071Y-94428571D01*
X232398214Y-95928571D02*
X231755357Y-95071428D01*
X232398214Y-94428571D02*
X231541071Y-95285714D01*
X233826785Y-95928571D02*
X232969642Y-95928571D01*
X233398214Y-95928571D02*
X233398214Y-94428571D01*
X233255357Y-94642857D01*
X233112500Y-94785714D01*
X232969642Y-94857142D01*
X235255357Y-95928571D02*
X234398214Y-95928571D01*
X234826785Y-95928571D02*
X234826785Y-94428571D01*
X234683928Y-94642857D01*
X234541071Y-94785714D01*
X234398214Y-94857142D01*
X293453571Y-114978571D02*
X293453571Y-113478571D01*
X294310714Y-114978571D02*
X293667857Y-114121428D01*
X294310714Y-113478571D02*
X293453571Y-114335714D01*
X295739285Y-114978571D02*
X294882142Y-114978571D01*
X295310714Y-114978571D02*
X295310714Y-113478571D01*
X295167857Y-113692857D01*
X295025000Y-113835714D01*
X294882142Y-113907142D01*
X296667857Y-113478571D02*
X296810714Y-113478571D01*
X296953571Y-113550000D01*
X297025000Y-113621428D01*
X297096428Y-113764285D01*
X297167857Y-114050000D01*
X297167857Y-114407142D01*
X297096428Y-114692857D01*
X297025000Y-114835714D01*
X296953571Y-114907142D01*
X296810714Y-114978571D01*
X296667857Y-114978571D01*
X296525000Y-114907142D01*
X296453571Y-114835714D01*
X296382142Y-114692857D01*
X296310714Y-114407142D01*
X296310714Y-114050000D01*
X296382142Y-113764285D01*
X296453571Y-113621428D01*
X296525000Y-113550000D01*
X296667857Y-113478571D01*
X332267857Y-38778571D02*
X332267857Y-37278571D01*
X333125000Y-38778571D02*
X332482142Y-37921428D01*
X333125000Y-37278571D02*
X332267857Y-38135714D01*
X333982142Y-37921428D02*
X333839285Y-37850000D01*
X333767857Y-37778571D01*
X333696428Y-37635714D01*
X333696428Y-37564285D01*
X333767857Y-37421428D01*
X333839285Y-37350000D01*
X333982142Y-37278571D01*
X334267857Y-37278571D01*
X334410714Y-37350000D01*
X334482142Y-37421428D01*
X334553571Y-37564285D01*
X334553571Y-37635714D01*
X334482142Y-37778571D01*
X334410714Y-37850000D01*
X334267857Y-37921428D01*
X333982142Y-37921428D01*
X333839285Y-37992857D01*
X333767857Y-38064285D01*
X333696428Y-38207142D01*
X333696428Y-38492857D01*
X333767857Y-38635714D01*
X333839285Y-38707142D01*
X333982142Y-38778571D01*
X334267857Y-38778571D01*
X334410714Y-38707142D01*
X334482142Y-38635714D01*
X334553571Y-38492857D01*
X334553571Y-38207142D01*
X334482142Y-38064285D01*
X334410714Y-37992857D01*
X334267857Y-37921428D01*
X246542857Y-38778571D02*
X246542857Y-37278571D01*
X247400000Y-38778571D02*
X246757142Y-37921428D01*
X247400000Y-37278571D02*
X246542857Y-38135714D01*
X247900000Y-37278571D02*
X248900000Y-37278571D01*
X248257142Y-38778571D01*
X227492857Y-38778571D02*
X227492857Y-37278571D01*
X228350000Y-38778571D02*
X227707142Y-37921428D01*
X228350000Y-37278571D02*
X227492857Y-38135714D01*
X229635714Y-37278571D02*
X229350000Y-37278571D01*
X229207142Y-37350000D01*
X229135714Y-37421428D01*
X228992857Y-37635714D01*
X228921428Y-37921428D01*
X228921428Y-38492857D01*
X228992857Y-38635714D01*
X229064285Y-38707142D01*
X229207142Y-38778571D01*
X229492857Y-38778571D01*
X229635714Y-38707142D01*
X229707142Y-38635714D01*
X229778571Y-38492857D01*
X229778571Y-38135714D01*
X229707142Y-37992857D01*
X229635714Y-37921428D01*
X229492857Y-37850000D01*
X229207142Y-37850000D01*
X229064285Y-37921428D01*
X228992857Y-37992857D01*
X228921428Y-38135714D01*
X217967857Y-57828571D02*
X217967857Y-56328571D01*
X218825000Y-57828571D02*
X218182142Y-56971428D01*
X218825000Y-56328571D02*
X217967857Y-57185714D01*
X220182142Y-56328571D02*
X219467857Y-56328571D01*
X219396428Y-57042857D01*
X219467857Y-56971428D01*
X219610714Y-56900000D01*
X219967857Y-56900000D01*
X220110714Y-56971428D01*
X220182142Y-57042857D01*
X220253571Y-57185714D01*
X220253571Y-57542857D01*
X220182142Y-57685714D01*
X220110714Y-57757142D01*
X219967857Y-57828571D01*
X219610714Y-57828571D01*
X219467857Y-57757142D01*
X219396428Y-57685714D01*
X222730357Y-76878571D02*
X222730357Y-75378571D01*
X223587500Y-76878571D02*
X222944642Y-76021428D01*
X223587500Y-75378571D02*
X222730357Y-76235714D01*
X224873214Y-75878571D02*
X224873214Y-76878571D01*
X224516071Y-75307142D02*
X224158928Y-76378571D01*
X225087500Y-76378571D01*
X203680357Y-76878571D02*
X203680357Y-75378571D01*
X204537500Y-76878571D02*
X203894642Y-76021428D01*
X204537500Y-75378571D02*
X203680357Y-76235714D01*
X205037500Y-75378571D02*
X205966071Y-75378571D01*
X205466071Y-75950000D01*
X205680357Y-75950000D01*
X205823214Y-76021428D01*
X205894642Y-76092857D01*
X205966071Y-76235714D01*
X205966071Y-76592857D01*
X205894642Y-76735714D01*
X205823214Y-76807142D01*
X205680357Y-76878571D01*
X205251785Y-76878571D01*
X205108928Y-76807142D01*
X205037500Y-76735714D01*
X213205357Y-95928571D02*
X213205357Y-94428571D01*
X214062500Y-95928571D02*
X213419642Y-95071428D01*
X214062500Y-94428571D02*
X213205357Y-95285714D01*
X214633928Y-94571428D02*
X214705357Y-94500000D01*
X214848214Y-94428571D01*
X215205357Y-94428571D01*
X215348214Y-94500000D01*
X215419642Y-94571428D01*
X215491071Y-94714285D01*
X215491071Y-94857142D01*
X215419642Y-95071428D01*
X214562500Y-95928571D01*
X215491071Y-95928571D01*
X194155357Y-95928571D02*
X194155357Y-94428571D01*
X195012500Y-95928571D02*
X194369642Y-95071428D01*
X195012500Y-94428571D02*
X194155357Y-95285714D01*
X196441071Y-95928571D02*
X195583928Y-95928571D01*
X196012500Y-95928571D02*
X196012500Y-94428571D01*
X195869642Y-94642857D01*
X195726785Y-94785714D01*
X195583928Y-94857142D01*
X270355357Y-114978571D02*
X270355357Y-113478571D01*
X271212500Y-114978571D02*
X270569642Y-114121428D01*
X271212500Y-113478571D02*
X270355357Y-114335714D01*
X272141071Y-113478571D02*
X272283928Y-113478571D01*
X272426785Y-113550000D01*
X272498214Y-113621428D01*
X272569642Y-113764285D01*
X272641071Y-114050000D01*
X272641071Y-114407142D01*
X272569642Y-114692857D01*
X272498214Y-114835714D01*
X272426785Y-114907142D01*
X272283928Y-114978571D01*
X272141071Y-114978571D01*
X271998214Y-114907142D01*
X271926785Y-114835714D01*
X271855357Y-114692857D01*
X271783928Y-114407142D01*
X271783928Y-114050000D01*
X271855357Y-113764285D01*
X271926785Y-113621428D01*
X271998214Y-113550000D01*
X272141071Y-113478571D01*
%LPC*%
D11*
X223718750Y-110300000D03*
X228718750Y-109800000D03*
X242768750Y-110300000D03*
X247768750Y-109800000D03*
X247531250Y-110300000D03*
X252531250Y-109800000D03*
X152281250Y-110300000D03*
X157281250Y-109800000D03*
X154662500Y-110300000D03*
X159662500Y-109800000D03*
X97750000Y-118300000D03*
X92750000Y-118800000D03*
X92987500Y-118300000D03*
X87987500Y-118800000D03*
X85606250Y-110300000D03*
X90606250Y-109800000D03*
X71556250Y-118300000D03*
X66556250Y-118800000D03*
X69175000Y-118300000D03*
X64175000Y-118800000D03*
X61793750Y-110300000D03*
X66793750Y-109800000D03*
X42743750Y-72200000D03*
X47743750Y-71700000D03*
X45362500Y-80200000D03*
X40362500Y-80700000D03*
X45362500Y-118300000D03*
X40362500Y-118800000D03*
X292775000Y-34100000D03*
X297775000Y-33600000D03*
X271343750Y-110300000D03*
X276343750Y-109800000D03*
X216575000Y-110300000D03*
X221575000Y-109800000D03*
X207050000Y-34100000D03*
X212050000Y-33600000D03*
X188000000Y-34100000D03*
X193000000Y-33600000D03*
X197525000Y-53150000D03*
X202525000Y-52650000D03*
X183237500Y-72200000D03*
X188237500Y-71700000D03*
X164187500Y-72200000D03*
X169187500Y-71700000D03*
X173712500Y-91250000D03*
X178712500Y-90750000D03*
X154662500Y-91250000D03*
X159662500Y-90750000D03*
X245387500Y-118300000D03*
X240387500Y-118800000D03*
X168950000Y-34100000D03*
X173950000Y-33600000D03*
X149900000Y-34100000D03*
X154900000Y-33600000D03*
X178475000Y-53150000D03*
X183475000Y-52650000D03*
X159425000Y-53150000D03*
X164425000Y-52650000D03*
X145137500Y-72200000D03*
X150137500Y-71700000D03*
X135612500Y-91250000D03*
X140612500Y-90750000D03*
X116562500Y-91250000D03*
X121562500Y-90750000D03*
X169187500Y-118300000D03*
X164187500Y-118800000D03*
X130850000Y-34100000D03*
X135850000Y-33600000D03*
X111800000Y-34100000D03*
X116800000Y-33600000D03*
X140375000Y-53150000D03*
X145375000Y-52650000D03*
X121325000Y-53150000D03*
X126325000Y-52650000D03*
X126087500Y-72200000D03*
X131087500Y-71700000D03*
X107037500Y-72200000D03*
X112037500Y-71700000D03*
X97512500Y-91250000D03*
X102512500Y-90750000D03*
X85843750Y-118300000D03*
X80843750Y-118800000D03*
X92750000Y-34100000D03*
X97750000Y-33600000D03*
X73700000Y-34100000D03*
X78700000Y-33600000D03*
X102275000Y-53150000D03*
X107275000Y-52650000D03*
X83225000Y-53150000D03*
X88225000Y-52650000D03*
X87987500Y-72200000D03*
X92987500Y-71700000D03*
X78462500Y-91250000D03*
X83462500Y-90750000D03*
X59412500Y-110300000D03*
X64412500Y-109800000D03*
X54650000Y-34100000D03*
X59650000Y-33600000D03*
X35600000Y-34100000D03*
X40600000Y-33600000D03*
X64175000Y-53150000D03*
X69175000Y-52650000D03*
X40362500Y-53150000D03*
X45362500Y-52650000D03*
X68937500Y-72200000D03*
X73937500Y-71700000D03*
X42981250Y-80200000D03*
X37981250Y-80700000D03*
X47506250Y-91250000D03*
X52506250Y-90750000D03*
X37981250Y-110300000D03*
X42981250Y-109800000D03*
X330875000Y-110300000D03*
X335875000Y-109800000D03*
X307300000Y-42100000D03*
X302300000Y-42600000D03*
X283250000Y-34100000D03*
X288250000Y-33600000D03*
X273725000Y-53150000D03*
X278725000Y-52650000D03*
X297537500Y-53150000D03*
X302537500Y-52650000D03*
X290393750Y-72200000D03*
X295393750Y-71700000D03*
X311825000Y-91250000D03*
X316825000Y-90750000D03*
X280868750Y-91250000D03*
X285868750Y-90750000D03*
X311825000Y-110300000D03*
X316825000Y-109800000D03*
X330875000Y-53150000D03*
X335875000Y-52650000D03*
X264200000Y-34100000D03*
X269200000Y-33600000D03*
X254675000Y-53150000D03*
X259675000Y-52650000D03*
X235625000Y-53150000D03*
X240625000Y-52650000D03*
X259437500Y-72200000D03*
X264437500Y-71700000D03*
X240387500Y-72200000D03*
X245387500Y-71700000D03*
X249912500Y-91250000D03*
X254912500Y-90750000D03*
X230862500Y-91250000D03*
X235862500Y-90750000D03*
X292775000Y-110300000D03*
X297775000Y-109800000D03*
X330875000Y-34100000D03*
X335875000Y-33600000D03*
X245150000Y-34100000D03*
X250150000Y-33600000D03*
X226100000Y-34100000D03*
X231100000Y-33600000D03*
X216575000Y-53150000D03*
X221575000Y-52650000D03*
X221337500Y-72200000D03*
X226337500Y-71700000D03*
X202287500Y-72200000D03*
X207287500Y-71700000D03*
X211812500Y-91250000D03*
X216812500Y-90750000D03*
X192762500Y-91250000D03*
X197762500Y-90750000D03*
X273962500Y-118300000D03*
X268962500Y-118800000D03*
D12*
X75100000Y-106250000D03*
D13*
X82900000Y-106250000D03*
D14*
X132500000Y-102750000D03*
D15*
X319950000Y-74350000D03*
D16*
X138112500Y-76187500D03*
X233362500Y-76187500D03*
D17*
X247650000Y-57150000D03*
X157162500Y-76200000D03*
X52387500Y-114287500D03*
X323850000Y-114300000D03*
X262000000Y-114300000D03*
X325500000Y-47625000D03*
X54000000Y-57137500D03*
D18*
X315600000Y-31137500D03*
X322900000Y-31137500D03*
D14*
X128500000Y-102750000D03*
X124500000Y-102750000D03*
D19*
X334000000Y-75000000D03*
D20*
X36830000Y-43180000D03*
D21*
X39370000Y-43180000D03*
D20*
X57000000Y-76200000D03*
D21*
X59540000Y-76200000D03*
D13*
X265400000Y-104000000D03*
D12*
X257600000Y-104000000D03*
D13*
X204787500Y-91350000D03*
D12*
X204787500Y-99150000D03*
X223837500Y-99150000D03*
D13*
X223837500Y-91350000D03*
X214312500Y-72300000D03*
D12*
X214312500Y-80100000D03*
D13*
X224650000Y-65500000D03*
D12*
X216850000Y-65500000D03*
X228600000Y-61050000D03*
D13*
X228600000Y-53250000D03*
X238125000Y-34200000D03*
D12*
X238125000Y-42000000D03*
X257162500Y-41987500D03*
D13*
X257162500Y-34187500D03*
D12*
X330850000Y-46000000D03*
D13*
X338650000Y-46000000D03*
D12*
X286000000Y-118200000D03*
D13*
X286000000Y-110400000D03*
D12*
X242887500Y-99150000D03*
D13*
X242887500Y-91350000D03*
D12*
X261937500Y-99150000D03*
D13*
X261937500Y-91350000D03*
D12*
X252412500Y-80100000D03*
D13*
X252412500Y-72300000D03*
X271462500Y-72300000D03*
D12*
X271462500Y-80100000D03*
X234850000Y-65500000D03*
D13*
X242650000Y-65500000D03*
D12*
X266700000Y-61050000D03*
D13*
X266700000Y-53250000D03*
D12*
X276225000Y-42000000D03*
D13*
X276225000Y-34200000D03*
D12*
X338500000Y-99150000D03*
D13*
X338500000Y-91350000D03*
X304800000Y-110400000D03*
D12*
X304800000Y-118200000D03*
D13*
X304250000Y-91350000D03*
D12*
X304250000Y-99150000D03*
X324250000Y-99150000D03*
D13*
X324250000Y-91350000D03*
D12*
X290000000Y-61050000D03*
D13*
X290000000Y-53250000D03*
X286000000Y-53250000D03*
D12*
X286000000Y-61050000D03*
X270100000Y-46000000D03*
D13*
X277900000Y-46000000D03*
D12*
X291600000Y-46000000D03*
D13*
X299400000Y-46000000D03*
D12*
X311750000Y-61050000D03*
D13*
X311750000Y-53250000D03*
X333750000Y-91350000D03*
D12*
X333750000Y-99150000D03*
X33000000Y-99150000D03*
D13*
X33000000Y-91350000D03*
D12*
X40481250Y-99150000D03*
D13*
X40481250Y-91350000D03*
D12*
X34600000Y-65500000D03*
D13*
X42400000Y-65500000D03*
X80962500Y-72300000D03*
D12*
X80962500Y-80100000D03*
D13*
X33337500Y-53250000D03*
D12*
X33337500Y-61050000D03*
X76200000Y-61050000D03*
D13*
X76200000Y-53250000D03*
D12*
X47625000Y-42000000D03*
D13*
X47625000Y-34200000D03*
X66675000Y-34200000D03*
D12*
X66675000Y-42000000D03*
D13*
X220650000Y-104000000D03*
D12*
X212850000Y-104000000D03*
D13*
X72150000Y-106250000D03*
D12*
X64350000Y-106250000D03*
D13*
X90487500Y-91350000D03*
D12*
X90487500Y-99150000D03*
D13*
X100012500Y-72300000D03*
D12*
X100012500Y-80100000D03*
D13*
X95250000Y-53250000D03*
D12*
X95250000Y-61050000D03*
X114300000Y-61050000D03*
D13*
X114300000Y-53250000D03*
D12*
X85725000Y-42000000D03*
D13*
X85725000Y-34200000D03*
D12*
X104775000Y-42000000D03*
D13*
X104775000Y-34200000D03*
D12*
X109537500Y-99150000D03*
D13*
X109537500Y-91350000D03*
X119062500Y-72300000D03*
D12*
X119062500Y-80100000D03*
X128350000Y-65500000D03*
D13*
X136150000Y-65500000D03*
X133350000Y-53250000D03*
D12*
X133350000Y-61050000D03*
D13*
X152400000Y-53250000D03*
D12*
X152400000Y-61050000D03*
D13*
X123825000Y-34200000D03*
D12*
X123825000Y-42000000D03*
D13*
X142875000Y-34200000D03*
D12*
X142875000Y-42000000D03*
D13*
X180500000Y-109100000D03*
D12*
X180500000Y-116900000D03*
D13*
X128587500Y-91350000D03*
D12*
X128587500Y-99150000D03*
D13*
X147637500Y-91350000D03*
D12*
X147637500Y-99150000D03*
D13*
X158400000Y-65500000D03*
D12*
X150600000Y-65500000D03*
D13*
X171450000Y-53250000D03*
D12*
X171450000Y-61050000D03*
X190500000Y-61050000D03*
D13*
X190500000Y-53250000D03*
X161925000Y-34200000D03*
D12*
X161925000Y-42000000D03*
X180975000Y-42000000D03*
D13*
X180975000Y-34200000D03*
D12*
X239100000Y-104000000D03*
D13*
X246900000Y-104000000D03*
X166687500Y-91350000D03*
D12*
X166687500Y-99150000D03*
D13*
X185737500Y-91350000D03*
D12*
X185737500Y-99150000D03*
D13*
X176212500Y-72300000D03*
D12*
X176212500Y-80100000D03*
D13*
X195262500Y-72300000D03*
D12*
X195262500Y-80100000D03*
X209550000Y-61050000D03*
D13*
X209550000Y-53250000D03*
D12*
X200025000Y-42000000D03*
D13*
X200025000Y-34200000D03*
D12*
X219075000Y-42000000D03*
D13*
X219075000Y-34200000D03*
M02*
