M48
; DRILL file {KiCad (5.1.12)-1} date 12/15/21 00:33:16
; FORMAT={-:-/ absolute / metric / decimal}
; #@! TF.CreationDate,2021-12-15T00:33:16-05:00
; #@! TF.GenerationSoftware,Kicad,Pcbnew,(5.1.12)-1
; #@! TF.FileFunction,NonPlated,1,2,NPTH
FMAT,2
METRIC
T1C0.800
T2C3.050
T3C4.000
T4C11.500
%
G90
G05
T1
X334.0Y-75.0
T2
X38.106Y-102.25
X61.906Y-102.25
X104.775Y-121.3
X119.062Y-121.3
X195.262Y-121.3
X204.787Y-121.3
X271.469Y-102.25
X280.994Y-83.2
X283.375Y-31.1
X295.269Y-102.25
X304.794Y-83.2
X307.175Y-31.1
T3
X38.106Y-87.01
X61.906Y-87.01
X104.775Y-106.06
X119.062Y-106.06
X138.112Y-76.188
X195.262Y-106.06
X204.787Y-106.06
X233.362Y-76.188
X271.469Y-87.01
X280.994Y-67.96
X283.375Y-46.34
X295.269Y-87.01
X304.794Y-67.96
X307.175Y-46.34
T4
X319.95Y-74.35
T0
M30
