G04 #@! TF.FileFunction,Profile,NP*
%FSLAX46Y46*%
G04 Gerber Fmt 4.6, Leading zero omitted, Abs format (unit mm)*
G04 Created by KiCad (PCBNEW 4.0.6) date 05/14/19 15:03:00*
%MOMM*%
%LPD*%
G01*
G04 APERTURE LIST*
%ADD10C,0.100000*%
%ADD11C,0.010000*%
G04 APERTURE END LIST*
D10*
D11*
X45850000Y-44500000D02*
X45850000Y-31700000D01*
X30350000Y-44500000D02*
X45850000Y-44500000D01*
X30350000Y-31700000D02*
X30350000Y-44500000D01*
X45850000Y-31700000D02*
X30350000Y-31700000D01*
X341125000Y-44500000D02*
X341125000Y-31700000D01*
X325625000Y-44500000D02*
X341125000Y-44500000D01*
X325625000Y-31700000D02*
X325625000Y-44500000D01*
X341125000Y-31700000D02*
X325625000Y-31700000D01*
X341125000Y-63550000D02*
X341125000Y-50750000D01*
X325625000Y-63550000D02*
X341125000Y-63550000D01*
X325625000Y-50750000D02*
X325625000Y-63550000D01*
X341125000Y-50750000D02*
X325625000Y-50750000D01*
X341125000Y-120700000D02*
X341125000Y-107900000D01*
X325625000Y-120700000D02*
X341125000Y-120700000D01*
X325625000Y-107900000D02*
X325625000Y-120700000D01*
X341125000Y-107900000D02*
X325625000Y-107900000D01*
X322075000Y-120700000D02*
X322075000Y-107900000D01*
X306575000Y-120700000D02*
X322075000Y-120700000D01*
X306575000Y-107900000D02*
X306575000Y-120700000D01*
X322075000Y-107900000D02*
X306575000Y-107900000D01*
X303025000Y-120700000D02*
X303025000Y-107900000D01*
X287525000Y-120700000D02*
X303025000Y-120700000D01*
X287525000Y-107900000D02*
X287525000Y-120700000D01*
X303025000Y-107900000D02*
X287525000Y-107900000D01*
X322075000Y-101650000D02*
X322075000Y-88850000D01*
X306575000Y-101650000D02*
X322075000Y-101650000D01*
X306575000Y-88850000D02*
X306575000Y-101650000D01*
X322075000Y-88850000D02*
X306575000Y-88850000D01*
X50612500Y-63550000D02*
X50612500Y-50750000D01*
X35112500Y-63550000D02*
X50612500Y-63550000D01*
X35112500Y-50750000D02*
X35112500Y-63550000D01*
X50612500Y-50750000D02*
X35112500Y-50750000D01*
X52993750Y-82600000D02*
X52993750Y-69800000D01*
X37493750Y-82600000D02*
X52993750Y-82600000D01*
X37493750Y-69800000D02*
X37493750Y-82600000D01*
X52993750Y-69800000D02*
X37493750Y-69800000D01*
X57756250Y-101650000D02*
X57756250Y-88850000D01*
X42256250Y-101650000D02*
X57756250Y-101650000D01*
X42256250Y-88850000D02*
X42256250Y-101650000D01*
X57756250Y-88850000D02*
X42256250Y-88850000D01*
X35356250Y-101250000D02*
G75*
G02X34606250Y-100500000I0J750000D01*
G01*
X34606250Y-88000000D02*
X34606250Y-100500000D01*
X34606250Y-88000000D02*
G75*
G02X35356250Y-87250000I750000J0D01*
G01*
X40856250Y-87250000D02*
X35356250Y-87250000D01*
X40856250Y-87250000D02*
G75*
G02X41606250Y-88000000I0J-750000D01*
G01*
X41606250Y-100500000D02*
X41606250Y-88000000D01*
X41606250Y-100500000D02*
G75*
G02X40856250Y-101250000I-750000J0D01*
G01*
X35356250Y-101250000D02*
X40856250Y-101250000D01*
X58406250Y-88000000D02*
X58406250Y-100500000D01*
X58406250Y-88000000D02*
G75*
G02X59156250Y-87250000I750000J0D01*
G01*
X64656250Y-87250000D02*
X59156250Y-87250000D01*
X64656250Y-87250000D02*
G75*
G02X65406250Y-88000000I0J-750000D01*
G01*
X65406250Y-100500000D02*
X65406250Y-88000000D01*
X65406250Y-100500000D02*
G75*
G02X64656250Y-101250000I-750000J0D01*
G01*
X59156250Y-101250000D02*
X64656250Y-101250000D01*
X59156250Y-101250000D02*
G75*
G02X58406250Y-100500000I0J750000D01*
G01*
X291118750Y-101650000D02*
X291118750Y-88850000D01*
X275618750Y-101650000D02*
X291118750Y-101650000D01*
X275618750Y-88850000D02*
X275618750Y-101650000D01*
X291118750Y-88850000D02*
X275618750Y-88850000D01*
X307787500Y-63550000D02*
X307787500Y-50750000D01*
X292287500Y-63550000D02*
X307787500Y-63550000D01*
X292287500Y-50750000D02*
X292287500Y-63550000D01*
X307787500Y-50750000D02*
X292287500Y-50750000D01*
X300643750Y-82600000D02*
X300643750Y-69800000D01*
X285143750Y-82600000D02*
X300643750Y-82600000D01*
X285143750Y-69800000D02*
X285143750Y-82600000D01*
X300643750Y-69800000D02*
X285143750Y-69800000D01*
X64900000Y-44500000D02*
X64900000Y-31700000D01*
X49400000Y-44500000D02*
X64900000Y-44500000D01*
X49400000Y-31700000D02*
X49400000Y-44500000D01*
X64900000Y-31700000D02*
X49400000Y-31700000D01*
X283975000Y-63550000D02*
X283975000Y-50750000D01*
X268475000Y-63550000D02*
X283975000Y-63550000D01*
X268475000Y-50750000D02*
X268475000Y-63550000D01*
X283975000Y-50750000D02*
X268475000Y-50750000D01*
X269687500Y-82600000D02*
X269687500Y-69800000D01*
X254187500Y-82600000D02*
X269687500Y-82600000D01*
X254187500Y-69800000D02*
X254187500Y-82600000D01*
X269687500Y-69800000D02*
X254187500Y-69800000D01*
X260162500Y-101650000D02*
X260162500Y-88850000D01*
X244662500Y-101650000D02*
X260162500Y-101650000D01*
X244662500Y-88850000D02*
X244662500Y-101650000D01*
X260162500Y-88850000D02*
X244662500Y-88850000D01*
X74425000Y-63550000D02*
X74425000Y-50750000D01*
X58925000Y-63550000D02*
X74425000Y-63550000D01*
X58925000Y-50750000D02*
X58925000Y-63550000D01*
X74425000Y-50750000D02*
X58925000Y-50750000D01*
X79187500Y-82600000D02*
X79187500Y-69800000D01*
X63687500Y-82600000D02*
X79187500Y-82600000D01*
X63687500Y-69800000D02*
X63687500Y-82600000D01*
X79187500Y-69800000D02*
X63687500Y-69800000D01*
X88712500Y-101650000D02*
X88712500Y-88850000D01*
X73212500Y-101650000D02*
X88712500Y-101650000D01*
X73212500Y-88850000D02*
X73212500Y-101650000D01*
X88712500Y-88850000D02*
X73212500Y-88850000D01*
X48231250Y-120700000D02*
X48231250Y-107900000D01*
X32731250Y-120700000D02*
X48231250Y-120700000D01*
X32731250Y-107900000D02*
X32731250Y-120700000D01*
X48231250Y-107900000D02*
X32731250Y-107900000D01*
X257781250Y-120700000D02*
X257781250Y-107900000D01*
X242281250Y-120700000D02*
X257781250Y-120700000D01*
X242281250Y-107900000D02*
X242281250Y-120700000D01*
X257781250Y-107900000D02*
X242281250Y-107900000D01*
X281593750Y-120700000D02*
X281593750Y-107900000D01*
X266093750Y-120700000D02*
X281593750Y-120700000D01*
X266093750Y-107900000D02*
X266093750Y-120700000D01*
X281593750Y-107900000D02*
X266093750Y-107900000D01*
X218468750Y-120700000D02*
X218468750Y-107900000D01*
X233968750Y-120700000D02*
X218468750Y-120700000D01*
X233968750Y-107900000D02*
X233968750Y-120700000D01*
X218468750Y-107900000D02*
X233968750Y-107900000D01*
X72043750Y-120700000D02*
X72043750Y-107900000D01*
X56543750Y-120700000D02*
X72043750Y-120700000D01*
X56543750Y-107900000D02*
X56543750Y-120700000D01*
X72043750Y-107900000D02*
X56543750Y-107900000D01*
X95856250Y-120700000D02*
X95856250Y-107900000D01*
X80356250Y-120700000D02*
X95856250Y-120700000D01*
X80356250Y-107900000D02*
X80356250Y-120700000D01*
X95856250Y-107900000D02*
X80356250Y-107900000D01*
X274218750Y-87250000D02*
G75*
G02X274968750Y-88000000I0J-750000D01*
G01*
X274968750Y-100500000D02*
X274968750Y-88000000D01*
X274968750Y-100500000D02*
G75*
G02X274218750Y-101250000I-750000J0D01*
G01*
X268718750Y-101250000D02*
X274218750Y-101250000D01*
X268718750Y-101250000D02*
G75*
G02X267968750Y-100500000I0J750000D01*
G01*
X267968750Y-88000000D02*
X267968750Y-100500000D01*
X267968750Y-88000000D02*
G75*
G02X268718750Y-87250000I750000J0D01*
G01*
X274218750Y-87250000D02*
X268718750Y-87250000D01*
X298768750Y-100500000D02*
G75*
G02X298018750Y-101250000I-750000J0D01*
G01*
X292518750Y-101250000D02*
X298018750Y-101250000D01*
X292518750Y-101250000D02*
G75*
G02X291768750Y-100500000I0J750000D01*
G01*
X291768750Y-88000000D02*
X291768750Y-100500000D01*
X291768750Y-88000000D02*
G75*
G02X292518750Y-87250000I750000J0D01*
G01*
X298018750Y-87250000D02*
X292518750Y-87250000D01*
X298018750Y-87250000D02*
G75*
G02X298768750Y-88000000I0J-750000D01*
G01*
X298768750Y-100500000D02*
X298768750Y-88000000D01*
X284493750Y-81450000D02*
G75*
G02X283743750Y-82200000I-750000J0D01*
G01*
X278243750Y-82200000D02*
X283743750Y-82200000D01*
X278243750Y-82200000D02*
G75*
G02X277493750Y-81450000I0J750000D01*
G01*
X277493750Y-68950000D02*
X277493750Y-81450000D01*
X277493750Y-68950000D02*
G75*
G02X278243750Y-68200000I750000J0D01*
G01*
X283743750Y-68200000D02*
X278243750Y-68200000D01*
X283743750Y-68200000D02*
G75*
G02X284493750Y-68950000I0J-750000D01*
G01*
X284493750Y-81450000D02*
X284493750Y-68950000D01*
X302043750Y-82200000D02*
G75*
G02X301293750Y-81450000I0J750000D01*
G01*
X301293750Y-68950000D02*
X301293750Y-81450000D01*
X301293750Y-68950000D02*
G75*
G02X302043750Y-68200000I750000J0D01*
G01*
X307543750Y-68200000D02*
X302043750Y-68200000D01*
X307543750Y-68200000D02*
G75*
G02X308293750Y-68950000I0J-750000D01*
G01*
X308293750Y-81450000D02*
X308293750Y-68950000D01*
X308293750Y-81450000D02*
G75*
G02X307543750Y-82200000I-750000J0D01*
G01*
X302043750Y-82200000D02*
X307543750Y-82200000D01*
X335950000Y-77850000D02*
X335950000Y-71850000D01*
X331950000Y-77850000D02*
X335950000Y-77850000D01*
X331950000Y-71850000D02*
X331950000Y-77850000D01*
X335950000Y-71850000D02*
X331950000Y-71850000D01*
X310675000Y-45350000D02*
G75*
G02X309925000Y-46100000I-750000J0D01*
G01*
X310675000Y-44500000D02*
X310675000Y-45350000D01*
X312550000Y-44500000D02*
X310675000Y-44500000D01*
X312550000Y-31700000D02*
X312550000Y-44500000D01*
X297050000Y-31700000D02*
X312550000Y-31700000D01*
X297050000Y-44500000D02*
X297050000Y-31700000D01*
X303675000Y-44500000D02*
X297050000Y-44500000D01*
X303675000Y-45350000D02*
X303675000Y-44500000D01*
X304425000Y-46100000D02*
G75*
G02X303675000Y-45350000I0J750000D01*
G01*
X309925000Y-46100000D02*
X304425000Y-46100000D01*
X286875000Y-45350000D02*
G75*
G02X286125000Y-46100000I-750000J0D01*
G01*
X286875000Y-44500000D02*
X286875000Y-45350000D01*
X293500000Y-44500000D02*
X286875000Y-44500000D01*
X293500000Y-31700000D02*
X293500000Y-44500000D01*
X278000000Y-31700000D02*
X293500000Y-31700000D01*
X278000000Y-44500000D02*
X278000000Y-31700000D01*
X279875000Y-44500000D02*
X278000000Y-44500000D01*
X279875000Y-45350000D02*
X279875000Y-44500000D01*
X280625000Y-46100000D02*
G75*
G02X279875000Y-45350000I0J750000D01*
G01*
X286125000Y-46100000D02*
X280625000Y-46100000D01*
X26487500Y-32450000D02*
X33787500Y-25150000D01*
X26487500Y-73600000D02*
X26487500Y-32450000D01*
X28487500Y-73600000D02*
X26487500Y-73600000D01*
X28487500Y-78800000D02*
X28487500Y-73600000D01*
X26487500Y-78800000D02*
X28487500Y-78800000D01*
X26487500Y-119950000D02*
X26487500Y-78800000D01*
X31787500Y-125250000D02*
X26487500Y-119950000D01*
X44237500Y-125250000D02*
X31787500Y-125250000D01*
X44237500Y-127250000D02*
X44237500Y-125250000D01*
X124987500Y-127250000D02*
X44237500Y-127250000D01*
X124987500Y-125250000D02*
X124987500Y-127250000D01*
X134987500Y-125250000D02*
X124987500Y-125250000D01*
X134987500Y-127250000D02*
X134987500Y-125250000D01*
X236487500Y-127250000D02*
X134987500Y-127250000D01*
X236487500Y-125250000D02*
X236487500Y-127250000D01*
X246487500Y-125250000D02*
X236487500Y-125250000D01*
X246487500Y-127250000D02*
X246487500Y-125250000D01*
X327237500Y-127250000D02*
X246487500Y-127250000D01*
X327237500Y-125250000D02*
X327237500Y-127250000D01*
X339687500Y-125250000D02*
X327237500Y-125250000D01*
X344987500Y-119950000D02*
X339687500Y-125250000D01*
X344987500Y-32450000D02*
X344987500Y-119950000D01*
X337687500Y-25150000D02*
X344987500Y-32450000D01*
X33787500Y-25150000D02*
X337687500Y-25150000D01*
X68450000Y-44500000D02*
X83950000Y-44500000D01*
X68450000Y-31700000D02*
X68450000Y-44500000D01*
X83950000Y-31700000D02*
X68450000Y-31700000D01*
X83950000Y-44500000D02*
X83950000Y-31700000D01*
X87500000Y-44500000D02*
X103000000Y-44500000D01*
X87500000Y-31700000D02*
X87500000Y-44500000D01*
X103000000Y-31700000D02*
X87500000Y-31700000D01*
X103000000Y-44500000D02*
X103000000Y-31700000D01*
X106550000Y-44500000D02*
X122050000Y-44500000D01*
X106550000Y-31700000D02*
X106550000Y-44500000D01*
X122050000Y-31700000D02*
X106550000Y-31700000D01*
X122050000Y-44500000D02*
X122050000Y-31700000D01*
X125600000Y-44500000D02*
X141100000Y-44500000D01*
X125600000Y-31700000D02*
X125600000Y-44500000D01*
X141100000Y-31700000D02*
X125600000Y-31700000D01*
X141100000Y-44500000D02*
X141100000Y-31700000D01*
X144650000Y-44500000D02*
X160150000Y-44500000D01*
X144650000Y-31700000D02*
X144650000Y-44500000D01*
X160150000Y-31700000D02*
X144650000Y-31700000D01*
X160150000Y-44500000D02*
X160150000Y-31700000D01*
X163700000Y-44500000D02*
X179200000Y-44500000D01*
X163700000Y-31700000D02*
X163700000Y-44500000D01*
X179200000Y-31700000D02*
X163700000Y-31700000D01*
X179200000Y-44500000D02*
X179200000Y-31700000D01*
X258950000Y-44500000D02*
X274450000Y-44500000D01*
X258950000Y-31700000D02*
X258950000Y-44500000D01*
X274450000Y-31700000D02*
X258950000Y-31700000D01*
X274450000Y-44500000D02*
X274450000Y-31700000D01*
X239900000Y-44500000D02*
X255400000Y-44500000D01*
X239900000Y-31700000D02*
X239900000Y-44500000D01*
X255400000Y-31700000D02*
X239900000Y-31700000D01*
X255400000Y-44500000D02*
X255400000Y-31700000D01*
X220850000Y-44500000D02*
X236350000Y-44500000D01*
X220850000Y-31700000D02*
X220850000Y-44500000D01*
X236350000Y-31700000D02*
X220850000Y-31700000D01*
X236350000Y-44500000D02*
X236350000Y-31700000D01*
X201800000Y-44500000D02*
X217300000Y-44500000D01*
X201800000Y-31700000D02*
X201800000Y-44500000D01*
X217300000Y-31700000D02*
X201800000Y-31700000D01*
X217300000Y-44500000D02*
X217300000Y-31700000D01*
X182750000Y-44500000D02*
X198250000Y-44500000D01*
X182750000Y-31700000D02*
X182750000Y-44500000D01*
X198250000Y-31700000D02*
X182750000Y-31700000D01*
X198250000Y-44500000D02*
X198250000Y-31700000D01*
X77975000Y-63550000D02*
X93475000Y-63550000D01*
X77975000Y-50750000D02*
X77975000Y-63550000D01*
X93475000Y-50750000D02*
X77975000Y-50750000D01*
X93475000Y-63550000D02*
X93475000Y-50750000D01*
X97025000Y-63550000D02*
X112525000Y-63550000D01*
X97025000Y-50750000D02*
X97025000Y-63550000D01*
X112525000Y-50750000D02*
X97025000Y-50750000D01*
X112525000Y-63550000D02*
X112525000Y-50750000D01*
X116075000Y-63550000D02*
X131575000Y-63550000D01*
X116075000Y-50750000D02*
X116075000Y-63550000D01*
X131575000Y-50750000D02*
X116075000Y-50750000D01*
X131575000Y-63550000D02*
X131575000Y-50750000D01*
X135125000Y-63550000D02*
X150625000Y-63550000D01*
X135125000Y-50750000D02*
X135125000Y-63550000D01*
X150625000Y-50750000D02*
X135125000Y-50750000D01*
X150625000Y-63550000D02*
X150625000Y-50750000D01*
X154175000Y-63550000D02*
X169675000Y-63550000D01*
X154175000Y-50750000D02*
X154175000Y-63550000D01*
X169675000Y-50750000D02*
X154175000Y-50750000D01*
X169675000Y-63550000D02*
X169675000Y-50750000D01*
X173225000Y-63550000D02*
X188725000Y-63550000D01*
X173225000Y-50750000D02*
X173225000Y-63550000D01*
X188725000Y-50750000D02*
X173225000Y-50750000D01*
X188725000Y-63550000D02*
X188725000Y-50750000D01*
X192275000Y-63550000D02*
X207775000Y-63550000D01*
X192275000Y-50750000D02*
X192275000Y-63550000D01*
X207775000Y-50750000D02*
X192275000Y-50750000D01*
X207775000Y-63550000D02*
X207775000Y-50750000D01*
X249425000Y-63550000D02*
X264925000Y-63550000D01*
X249425000Y-50750000D02*
X249425000Y-63550000D01*
X264925000Y-50750000D02*
X249425000Y-50750000D01*
X264925000Y-63550000D02*
X264925000Y-50750000D01*
X230375000Y-63550000D02*
X245875000Y-63550000D01*
X230375000Y-50750000D02*
X230375000Y-63550000D01*
X245875000Y-50750000D02*
X230375000Y-50750000D01*
X245875000Y-63550000D02*
X245875000Y-50750000D01*
X211325000Y-63550000D02*
X226825000Y-63550000D01*
X211325000Y-50750000D02*
X211325000Y-63550000D01*
X226825000Y-50750000D02*
X211325000Y-50750000D01*
X226825000Y-63550000D02*
X226825000Y-50750000D01*
X82737500Y-82600000D02*
X98237500Y-82600000D01*
X82737500Y-69800000D02*
X82737500Y-82600000D01*
X98237500Y-69800000D02*
X82737500Y-69800000D01*
X98237500Y-82600000D02*
X98237500Y-69800000D01*
X101787500Y-82600000D02*
X117287500Y-82600000D01*
X101787500Y-69800000D02*
X101787500Y-82600000D01*
X117287500Y-69800000D02*
X101787500Y-69800000D01*
X117287500Y-82600000D02*
X117287500Y-69800000D01*
X120837500Y-82600000D02*
X136337500Y-82600000D01*
X120837500Y-69800000D02*
X120837500Y-82600000D01*
X136337500Y-69800000D02*
X120837500Y-69800000D01*
X136337500Y-82600000D02*
X136337500Y-69800000D01*
X139887500Y-82600000D02*
X155387500Y-82600000D01*
X139887500Y-69800000D02*
X139887500Y-82600000D01*
X155387500Y-69800000D02*
X139887500Y-69800000D01*
X155387500Y-82600000D02*
X155387500Y-69800000D01*
X158937500Y-82600000D02*
X174437500Y-82600000D01*
X158937500Y-69800000D02*
X158937500Y-82600000D01*
X174437500Y-69800000D02*
X158937500Y-69800000D01*
X174437500Y-82600000D02*
X174437500Y-69800000D01*
X177987500Y-82600000D02*
X193487500Y-82600000D01*
X177987500Y-69800000D02*
X177987500Y-82600000D01*
X193487500Y-69800000D02*
X177987500Y-69800000D01*
X193487500Y-82600000D02*
X193487500Y-69800000D01*
X197037500Y-82600000D02*
X212537500Y-82600000D01*
X197037500Y-69800000D02*
X197037500Y-82600000D01*
X212537500Y-69800000D02*
X197037500Y-69800000D01*
X212537500Y-82600000D02*
X212537500Y-69800000D01*
X235137500Y-82600000D02*
X250637500Y-82600000D01*
X235137500Y-69800000D02*
X235137500Y-82600000D01*
X250637500Y-69800000D02*
X235137500Y-69800000D01*
X250637500Y-82600000D02*
X250637500Y-69800000D01*
X216087500Y-82600000D02*
X231587500Y-82600000D01*
X216087500Y-69800000D02*
X216087500Y-82600000D01*
X231587500Y-69800000D02*
X216087500Y-69800000D01*
X231587500Y-82600000D02*
X231587500Y-69800000D01*
X92262500Y-101650000D02*
X107762500Y-101650000D01*
X92262500Y-88850000D02*
X92262500Y-101650000D01*
X107762500Y-88850000D02*
X92262500Y-88850000D01*
X107762500Y-101650000D02*
X107762500Y-88850000D01*
X111312500Y-101650000D02*
X126812500Y-101650000D01*
X111312500Y-88850000D02*
X111312500Y-101650000D01*
X126812500Y-88850000D02*
X111312500Y-88850000D01*
X126812500Y-101650000D02*
X126812500Y-88850000D01*
X130362500Y-101650000D02*
X145862500Y-101650000D01*
X130362500Y-88850000D02*
X130362500Y-101650000D01*
X145862500Y-88850000D02*
X130362500Y-88850000D01*
X145862500Y-101650000D02*
X145862500Y-88850000D01*
X149412500Y-101650000D02*
X164912500Y-101650000D01*
X149412500Y-88850000D02*
X149412500Y-101650000D01*
X164912500Y-88850000D02*
X149412500Y-88850000D01*
X164912500Y-101650000D02*
X164912500Y-88850000D01*
X168462500Y-101650000D02*
X183962500Y-101650000D01*
X168462500Y-88850000D02*
X168462500Y-101650000D01*
X183962500Y-88850000D02*
X168462500Y-88850000D01*
X183962500Y-101650000D02*
X183962500Y-88850000D01*
X187512500Y-101650000D02*
X203012500Y-101650000D01*
X187512500Y-88850000D02*
X187512500Y-101650000D01*
X203012500Y-88850000D02*
X187512500Y-88850000D01*
X203012500Y-101650000D02*
X203012500Y-88850000D01*
X206562500Y-101650000D02*
X222062500Y-101650000D01*
X206562500Y-88850000D02*
X206562500Y-101650000D01*
X222062500Y-88850000D02*
X206562500Y-88850000D01*
X222062500Y-101650000D02*
X222062500Y-88850000D01*
X225612500Y-101650000D02*
X241112500Y-101650000D01*
X225612500Y-88850000D02*
X225612500Y-101650000D01*
X241112500Y-88850000D02*
X225612500Y-88850000D01*
X241112500Y-101650000D02*
X241112500Y-88850000D01*
X91093750Y-120700000D02*
X91093750Y-107900000D01*
X75593750Y-120700000D02*
X91093750Y-120700000D01*
X75593750Y-107900000D02*
X75593750Y-120700000D01*
X91093750Y-107900000D02*
X75593750Y-107900000D01*
X69662500Y-120700000D02*
X69662500Y-107900000D01*
X54162500Y-120700000D02*
X69662500Y-120700000D01*
X54162500Y-107900000D02*
X54162500Y-120700000D01*
X69662500Y-107900000D02*
X54162500Y-107900000D01*
X48231250Y-82600000D02*
X48231250Y-69800000D01*
X32731250Y-82600000D02*
X48231250Y-82600000D01*
X32731250Y-69800000D02*
X32731250Y-82600000D01*
X48231250Y-69800000D02*
X32731250Y-69800000D01*
X147031250Y-116300000D02*
X122562500Y-116300000D01*
X147031250Y-120700000D02*
X147031250Y-116300000D01*
X174437500Y-120700000D02*
X147031250Y-120700000D01*
X174437500Y-116300000D02*
X174437500Y-120700000D01*
X191762500Y-116300000D02*
X174437500Y-116300000D01*
X191762500Y-122550000D02*
X191762500Y-116300000D01*
X192512500Y-123300000D02*
G75*
G02X191762500Y-122550000I0J750000D01*
G01*
X198012500Y-123300000D02*
X192512500Y-123300000D01*
X198762500Y-122550000D02*
G75*
G02X198012500Y-123300000I-750000J0D01*
G01*
X198762500Y-116300000D02*
X198762500Y-122550000D01*
X201287500Y-116300000D02*
X198762500Y-116300000D01*
X201287500Y-122550000D02*
X201287500Y-116300000D01*
X202037500Y-123300000D02*
G75*
G02X201287500Y-122550000I0J750000D01*
G01*
X207537500Y-123300000D02*
X202037500Y-123300000D01*
X208287500Y-122550000D02*
G75*
G02X207537500Y-123300000I-750000J0D01*
G01*
X208287500Y-104550000D02*
X208287500Y-122550000D01*
X207537500Y-103800000D02*
G75*
G02X208287500Y-104550000I0J-750000D01*
G01*
X202037500Y-103800000D02*
X207537500Y-103800000D01*
X201287500Y-104550000D02*
G75*
G02X202037500Y-103800000I750000J0D01*
G01*
X201287500Y-112300000D02*
X201287500Y-104550000D01*
X198762500Y-112300000D02*
X201287500Y-112300000D01*
X198762500Y-104550000D02*
X198762500Y-112300000D01*
X198012500Y-103800000D02*
G75*
G02X198762500Y-104550000I0J-750000D01*
G01*
X192512500Y-103800000D02*
X198012500Y-103800000D01*
X191762500Y-104550000D02*
G75*
G02X192512500Y-103800000I750000J0D01*
G01*
X191762500Y-112300000D02*
X191762500Y-104550000D01*
X174437500Y-112300000D02*
X191762500Y-112300000D01*
X174437500Y-107900000D02*
X174437500Y-112300000D01*
X147031250Y-107900000D02*
X174437500Y-107900000D01*
X147031250Y-112300000D02*
X147031250Y-107900000D01*
X122562500Y-112300000D02*
X147031250Y-112300000D01*
X122562500Y-104550000D02*
X122562500Y-112300000D01*
X121812500Y-103800000D02*
G75*
G02X122562500Y-104550000I0J-750000D01*
G01*
X116312500Y-103800000D02*
X121812500Y-103800000D01*
X115562500Y-104550000D02*
G75*
G02X116312500Y-103800000I750000J0D01*
G01*
X115562500Y-112300000D02*
X115562500Y-104550000D01*
X113037500Y-112300000D02*
X115562500Y-112300000D01*
X113037500Y-104550000D02*
X113037500Y-112300000D01*
X112287500Y-103800000D02*
G75*
G02X113037500Y-104550000I0J-750000D01*
G01*
X102025000Y-103800000D02*
X112287500Y-103800000D01*
X101275000Y-104550000D02*
G75*
G02X102025000Y-103800000I750000J0D01*
G01*
X101275000Y-122550000D02*
X101275000Y-104550000D01*
X102025000Y-123300000D02*
G75*
G02X101275000Y-122550000I0J750000D01*
G01*
X112287500Y-123300000D02*
X102025000Y-123300000D01*
X113037500Y-122550000D02*
G75*
G02X112287500Y-123300000I-750000J0D01*
G01*
X113037500Y-116300000D02*
X113037500Y-122550000D01*
X115562500Y-116300000D02*
X113037500Y-116300000D01*
X115562500Y-122550000D02*
X115562500Y-116300000D01*
X116312500Y-123300000D02*
G75*
G02X115562500Y-122550000I0J750000D01*
G01*
X121812500Y-123300000D02*
X116312500Y-123300000D01*
X122562500Y-122550000D02*
G75*
G02X121812500Y-123300000I-750000J0D01*
G01*
X122562500Y-116300000D02*
X122562500Y-122550000D01*
X324450000Y-74350000D02*
G75*
G03X324450000Y-74350000I-4500000J0D01*
G01*
M02*
